<svg version="1.2" baseProfile="tiny-ps" xmlns="http://www.w3.org/2000/svg" viewBox="0 0 696 552" width="696" height="552">
	<title>scene1-svg</title>
	<defs>
		<clipPath clipPathUnits="userSpaceOnUse" id="cp1">
			<path d="M602.9 450.61L82.9 435.71C58.7 435.01 38.8 416.51 36.4 392.41L11.3 144.41C8.5 116.31 30.3 91.81 58.5 91.41L637.3 83.41C666.5 83.01 689.4 108.51 685.8 137.51L652.1 408.51C649 433.11 627.7 451.41 602.9 450.61Z" />
		</clipPath>
		<clipPath clipPathUnits="userSpaceOnUse" id="cp2">
			<path d="M51.1 207.11C51.1 207.11 43.1 206.31 41.5 195.51C41.5 195.51 48.7 197.61 51 202.71C51 202.71 52 191.31 57.4 190.21C57.4 190.21 59.8 198.71 56 202.91C56 202.91 58.9 198.11 66.3 198.21C66.3 198.21 64.4 205.01 57.1 207.01" />
		</clipPath>
	</defs>
	<style>
		tspan { white-space:pre }
		.shp0 { fill: #c4e2ff } 
		.shp1 { fill: none;stroke: #2a87db;stroke-linecap:round;stroke-linejoin:round;stroke-width: 1.8 } 
		.shp2 { fill: #e0f0ff } 
		.shp3 { fill: #2a87db } 
		.shp4 { fill: #e0f0ff;stroke: #2a87db } 
		.shp5 { fill: #22272e } 
		.shp6 { fill: #ffecd6 } 
		.shp7 { fill: none;stroke: #22272e;stroke-linecap:round;stroke-linejoin:round;stroke-width: 1.8 } 
		.shp8 { fill: #d4f0fc } 
		.shp9 { fill: none;stroke: #896068;stroke-linecap:round;stroke-linejoin:round;stroke-width: 1.8 } 
		.shp10 { fill: none;stroke: #63737a;stroke-linecap:round;stroke-linejoin:round;stroke-width: 1.8 } 
		.shp11 { fill: #896068 } 
		.shp12 { fill: #63737a } 
		.shp13 { fill: none;stroke: #ffffff;stroke-linecap:round;stroke-linejoin:round;stroke-width: 1.8 } 
		.shp14 { fill: none;stroke: #22272e;stroke-linecap:round;stroke-linejoin:round;stroke-width: 4 } 
		.shp15 { fill: none;stroke: #e26e85;stroke-linecap:round;stroke-linejoin:round;stroke-width: 1.8 } 
		.shp16 { fill: #ffffff } 
		.shp17 { fill: #e26e85 } 
		.shp18 { fill: none;stroke: #f8ab5d;stroke-linecap:round;stroke-linejoin:round;stroke-width: 1.8 } 
		.shp19 { fill: #f8ab5d } 
	</style>
	<g id="Layer" style="opacity: 0.902">
		<path id="Layer" class="shp0" d="M602.9 450.61L82.9 435.71C58.7 435.01 38.8 416.51 36.4 392.41L11.3 144.41C8.5 116.31 30.3 91.81 58.5 91.41L637.3 83.41C666.5 83.01 689.4 108.51 685.8 137.51L652.1 408.51C649 433.11 627.7 451.41 602.9 450.61Z" />
		<g id="Clip-Path" clip-path="url(#cp1)">
			<g id="Layer">
				<path id="Layer" class="shp1" d="M178.5 495.71L-237 495.71C-245.3 495.71 -252 489.01 -252 480.71L-252 245.01C-252 236.71 -245.3 230.01 -237 230.01L178.5 230.01C186.8 230.01 193.5 236.71 193.5 245.01L193.5 480.61C193.5 488.91 186.8 495.71 178.5 495.71Z" />
				<path id="Layer" class="shp1" d="M727.6 479.81L308.5 479.81C300.2 479.81 293.5 473.11 293.5 464.81L293.5 120.51C293.5 112.21 300.2 105.51 308.5 105.51L727.6 105.51C735.9 105.51 742.6 112.21 742.6 120.51L742.6 464.81C742.6 473.11 735.9 479.81 727.6 479.81Z" />
				<path id="Layer" class="shp1" d="M63.7 230.01L43.4 230.01C41.2 230.01 39.4 228.41 39.1 226.21L37.5 211.81C37.2 209.31 39.2 207.01 41.8 207.01L65.3 207.01C67.9 207.01 69.8 209.21 69.6 211.81L68 226.21C67.7 228.41 65.9 230.01 63.7 230.01Z" />
				<path id="Layer" class="shp2" d="M51.1 207.11C51.1 207.11 43.1 206.31 41.5 195.51C41.5 195.51 48.7 197.61 51 202.71C51 202.71 52 191.31 57.4 190.21C57.4 190.21 59.8 198.71 56 202.91C56 202.91 58.9 198.11 66.3 198.21C66.3 198.21 64.4 205.01 57.1 207.01" />
				<g id="Clip-Path" clip-path="url(#cp2)">
					<path id="Layer" class="shp3" d="M41.5 195.51L41.78 194.55L40.28 194.12L40.51 195.66L41.5 195.51ZM51 202.71L50.09 203.13L51.66 206.61L52 202.8L51 202.71ZM57.4 190.21L58.36 189.94L58.11 189.05L57.2 189.23L57.4 190.21ZM56 202.91L55.14 202.4L56.74 203.59L56 202.91ZM66.3 198.21L67.26 198.48L67.61 197.23L66.31 197.21L66.3 198.21ZM51.1 207.11C51.2 206.12 51.2 206.12 51.2 206.12C51.2 206.12 51.2 206.12 51.2 206.12C51.2 206.12 51.2 206.12 51.2 206.12C51.2 206.12 51.2 206.12 51.2 206.12C51.2 206.12 51.2 206.12 51.2 206.12C51.19 206.12 51.17 206.12 51.15 206.11C51.11 206.11 51.04 206.09 50.94 206.08C50.75 206.04 50.47 205.97 50.13 205.87C49.43 205.65 48.48 205.25 47.48 204.55C45.5 203.16 43.25 200.5 42.49 195.37L40.51 195.66C41.35 201.33 43.9 204.47 46.32 206.18C47.52 207.03 48.67 207.5 49.52 207.77C49.95 207.91 50.31 207.99 50.56 208.04C50.69 208.06 50.79 208.08 50.87 208.09C50.9 208.1 50.93 208.1 50.96 208.1C50.97 208.1 50.98 208.11 50.98 208.11C50.99 208.11 50.99 208.11 50.99 208.11C51 208.11 51 208.11 51 208.11C51 208.11 51 208.11 51 208.11C51 208.11 51 208.11 51.1 207.11ZM41.5 195.51C41.22 196.47 41.22 196.47 41.22 196.47L41.22 196.47C41.22 196.47 41.22 196.47 41.22 196.47C41.22 196.47 41.22 196.47 41.22 196.47C41.22 196.47 41.23 196.48 41.23 196.48C41.24 196.48 41.26 196.49 41.28 196.49C41.33 196.51 41.4 196.53 41.5 196.56C41.68 196.63 41.96 196.72 42.3 196.85C42.98 197.12 43.91 197.52 44.9 198.07C46.92 199.2 49.07 200.87 50.09 203.13L51.91 202.3C50.63 199.46 48.03 197.53 45.87 196.33C44.78 195.72 43.77 195.28 43.02 194.99C42.65 194.84 42.35 194.74 42.13 194.67C42.02 194.63 41.94 194.6 41.88 194.58C41.85 194.57 41.83 194.57 41.81 194.56C41.8 194.56 41.79 194.56 41.79 194.56C41.79 194.56 41.78 194.56 41.78 194.56C41.78 194.56 41.78 194.55 41.78 194.55C41.78 194.55 41.78 194.55 41.78 194.55C41.78 194.55 41.78 194.55 41.5 195.51ZM51 202.71C52 202.8 52 202.8 52 202.8L52 202.8L52 202.8C52 202.8 52 202.8 52 202.8C52 202.79 52 202.78 52 202.78C52 202.76 52 202.73 52.01 202.69C52.02 202.61 52.03 202.49 52.05 202.34C52.08 202.04 52.14 201.6 52.23 201.08C52.4 200.02 52.69 198.61 53.13 197.17C53.58 195.73 54.17 194.31 54.94 193.2C55.71 192.1 56.59 191.4 57.6 191.19L57.2 189.23C55.51 189.58 54.24 190.72 53.3 192.06C52.37 193.4 51.7 195.04 51.22 196.58C50.74 198.13 50.44 199.64 50.25 200.75C50.16 201.31 50.1 201.78 50.06 202.1C50.04 202.26 50.03 202.39 50.02 202.48C50.01 202.53 50.01 202.56 50.01 202.59C50.01 202.6 50.01 202.61 50 202.62C50 202.62 50 202.62 50 202.62C50 202.62 50 202.62 50 202.63C50 202.63 50 202.63 50 202.63C50 202.63 50 202.63 51 202.71ZM57.4 190.21C56.44 190.49 56.44 190.49 56.44 190.49L56.44 190.49C56.44 190.49 56.44 190.49 56.44 190.49C56.44 190.49 56.44 190.49 56.44 190.49C56.44 190.49 56.44 190.5 56.44 190.5C56.45 190.51 56.45 190.54 56.46 190.56C56.47 190.62 56.5 190.71 56.52 190.82C56.58 191.05 56.65 191.38 56.73 191.8C56.89 192.63 57.07 193.77 57.13 195.04C57.25 197.63 56.88 200.45 55.26 202.24L56.74 203.59C58.92 201.18 59.25 197.65 59.12 194.94C59.06 193.56 58.87 192.31 58.7 191.42C58.61 190.97 58.53 190.61 58.47 190.35C58.44 190.22 58.41 190.13 58.39 190.06C58.38 190.02 58.38 189.99 58.37 189.97C58.37 189.97 58.37 189.96 58.37 189.95C58.36 189.95 58.36 189.95 58.36 189.95C58.36 189.94 58.36 189.94 58.36 189.94C58.36 189.94 58.36 189.94 58.36 189.94C58.36 189.94 58.36 189.94 57.4 190.21ZM56 202.91C56.86 203.43 56.86 203.43 56.86 203.43C56.86 203.43 56.85 203.43 56.85 203.43C56.85 203.43 56.85 203.43 56.85 203.43C56.85 203.44 56.85 203.44 56.85 203.44C56.85 203.44 56.85 203.44 56.85 203.43C56.86 203.43 56.86 203.42 56.87 203.41C56.89 203.38 56.91 203.34 56.95 203.29C57.03 203.18 57.15 203.02 57.33 202.82C57.67 202.42 58.21 201.88 58.96 201.34C60.45 200.26 62.82 199.17 66.29 199.21L66.31 197.21C62.38 197.16 59.6 198.41 57.79 199.72C56.89 200.36 56.24 201.01 55.81 201.51C55.6 201.76 55.44 201.97 55.33 202.13C55.27 202.2 55.23 202.27 55.2 202.31C55.18 202.33 55.17 202.35 55.16 202.37C55.16 202.38 55.15 202.38 55.15 202.39C55.15 202.39 55.15 202.39 55.15 202.39C55.15 202.39 55.15 202.39 55.15 202.4C55.15 202.4 55.14 202.4 55.14 202.4C55.14 202.4 55.14 202.4 56 202.91ZM66.3 198.21C65.34 197.94 65.34 197.94 65.34 197.94C65.34 197.94 65.34 197.94 65.34 197.94C65.34 197.94 65.34 197.94 65.34 197.94C65.34 197.94 65.34 197.94 65.34 197.94C65.34 197.94 65.34 197.95 65.34 197.95C65.33 197.96 65.33 197.97 65.32 197.99C65.31 198.03 65.29 198.1 65.26 198.18C65.2 198.35 65.11 198.6 64.97 198.91C64.7 199.53 64.27 200.38 63.62 201.28C62.33 203.1 60.21 205.13 56.84 206.05L57.36 207.98C61.29 206.9 63.77 204.53 65.25 202.44C65.99 201.4 66.49 200.43 66.81 199.71C66.96 199.35 67.07 199.05 67.15 198.84C67.19 198.73 67.21 198.65 67.23 198.59C67.24 198.56 67.25 198.53 67.25 198.52C67.26 198.51 67.26 198.5 67.26 198.5C67.26 198.49 67.26 198.49 67.26 198.49C67.26 198.49 67.26 198.49 67.26 198.49C67.26 198.49 67.26 198.48 67.26 198.48C67.26 198.48 67.26 198.48 66.3 198.21Z" />
				</g>
				<path id="Layer" class="shp1" d="M175.4 279.71L85.2 279.71C82.9 279.71 81 277.81 81 275.51L81 248.11C81 245.81 82.9 243.91 85.2 243.91L175.4 243.91C177.7 243.91 179.6 245.81 179.6 248.11L179.6 275.51C179.6 277.81 177.7 279.71 175.4 279.71Z" />
				<path id="Layer" class="shp4" d="M140.6 253.11L119.8 253.11C119.28 253.11 118.8 252.64 118.8 252.11C118.8 251.59 119.28 251.11 119.8 251.11L140.6 251.11C141.12 251.11 141.6 251.59 141.6 252.11C141.6 252.66 141.2 253.11 140.6 253.11Z" />
				<path id="Layer" class="shp1" d="M175.4 325.51L85.2 325.51C82.9 325.51 81 323.61 81 321.31L81 293.91C81 291.61 82.9 289.71 85.2 289.71L175.4 289.71C177.7 289.71 179.6 291.61 179.6 293.91L179.6 321.31C179.6 323.61 177.7 325.51 175.4 325.51Z" />
				<path id="Layer" class="shp4" d="M140.6 298.91L119.8 298.91C119.28 298.91 118.8 298.44 118.8 297.91C118.8 297.39 119.28 296.91 119.8 296.91L140.6 296.91C141.12 296.91 141.6 297.39 141.6 297.91C141.6 298.46 141.2 298.91 140.6 298.91Z" />
				<path id="Layer" class="shp1" d="M638.5 357.91L548.3 357.91C546 357.91 544.1 356.01 544.1 353.71L544.1 326.31C544.1 324.01 546 322.11 548.3 322.11L638.5 322.11C640.8 322.11 642.7 324.01 642.7 326.31L642.7 353.71C642.8 356.01 640.9 357.91 638.5 357.91Z" />
				<path id="Layer" class="shp4" d="M603.8 331.21L583 331.21C582.48 331.21 582 330.74 582 330.21C582 329.69 582.48 329.21 583 329.21L603.8 329.21C604.32 329.21 604.8 329.69 604.8 330.21C604.8 330.82 604.35 331.21 603.8 331.21Z" />
				<path id="Layer" class="shp1" d="M522.7 357.91L432.5 357.91C430.2 357.91 428.3 356.01 428.3 353.71L428.3 326.31C428.3 324.01 430.2 322.11 432.5 322.11L522.7 322.11C525 322.11 526.9 324.01 526.9 326.31L526.9 353.71C527 356.01 525.1 357.91 522.7 357.91Z" />
				<path id="Layer" class="shp4" d="M488 331.21L467.2 331.21C466.68 331.21 466.2 330.74 466.2 330.21C466.2 329.69 466.68 329.21 467.2 329.21L488 329.21C488.52 329.21 489 329.69 489 330.21C489 330.82 488.55 331.21 488 331.21Z" />
				<path id="Layer" class="shp1" d="M60.4 279.71L-29.8 279.71C-32.1 279.71 -34 277.81 -34 275.51L-34 248.11C-34 245.81 -32.1 243.91 -29.8 243.91L60.4 243.91C62.7 243.91 64.6 245.81 64.6 248.11L64.6 275.51C64.6 277.81 62.7 279.71 60.4 279.71Z" />
				<path id="Layer" class="shp4" d="M25.6 253.11L4.8 253.11C4.28 253.11 3.8 252.64 3.8 252.11C3.8 251.59 4.28 251.11 4.8 251.11L25.6 251.11C26.12 251.11 26.6 251.59 26.6 252.11C26.6 252.66 26.2 253.11 25.6 253.11Z" />
				<path id="Layer" class="shp1" d="M60.4 325.51L-29.8 325.51C-32.1 325.51 -34 323.61 -34 321.31L-34 293.91C-34 291.61 -32.1 289.71 -29.8 289.71L60.4 289.71C62.7 289.71 64.6 291.61 64.6 293.91L64.6 321.31C64.6 323.61 62.7 325.51 60.4 325.51Z" />
				<path id="Layer" class="shp4" d="M25.6 298.91L4.8 298.91C4.28 298.91 3.8 298.44 3.8 297.91C3.8 297.39 4.28 296.91 4.8 296.91L25.6 296.91C26.12 296.91 26.6 297.39 26.6 297.91C26.6 298.46 26.2 298.91 25.6 298.91Z" />
				<path id="Layer" class="shp1" d="M769.9 210.41L314.9 210.41C312.4 210.41 310.3 208.31 310.3 205.81L310.3 126.11C310.3 123.61 312.4 121.51 314.9 121.51L769.9 121.51C772.4 121.51 774.5 123.61 774.5 126.11L774.5 205.81C774.5 208.31 772.4 210.41 769.9 210.41Z" />
				<path id="Layer" class="shp1" d="M769.9 309.31L314.9 309.31C312.4 309.31 310.3 307.21 310.3 304.71L310.3 225.01C310.3 222.51 312.4 220.41 314.9 220.41L769.9 220.41C772.4 220.41 774.5 222.51 774.5 225.01L774.5 304.71C774.5 307.21 772.4 309.31 769.9 309.31Z" />
				<path id="Layer" class="shp1" d="M350.8 160.11L340.9 160.11L340.9 210.41L350.8 210.41L350.8 160.11Z" />
				<path id="Layer" class="shp1" d="M361 173.81L350.7 173.81L350.7 210.41L361 210.41L361 173.81Z" />
				<path id="Layer" class="shp1" d="M649.2 258.91L639.3 258.91L639.3 309.21L649.2 309.21L649.2 258.91Z" />
				<path id="Layer" class="shp1" d="M659.4 272.61L649.1 272.61L649.1 309.21L659.4 309.21L659.4 272.61Z" />
				<path id="Layer" class="shp1" d="M629 258.91L619.1 258.91L619.1 309.21L629 309.21L629 258.91Z" />
				<path id="Layer" class="shp1" d="M619.23 260.78L609.79 257.8L594.65 305.76L604.09 308.74L619.23 260.78Z" />
				<path id="Layer" class="shp1" d="M639.3 272.61L629 272.61L629 309.21L639.3 309.21L639.3 272.61Z" />
				<path id="Layer" class="shp1" d="M515.6 160.11L505.7 160.11L505.7 210.41L515.6 210.41L515.6 160.11Z" />
				<path id="Layer" class="shp1" d="M525.9 173.81L515.6 173.81L515.6 210.41L525.9 210.41L525.9 173.81Z" />
				<path id="Layer" class="shp1" d="M417.9 160.11L408 160.11L408 210.41L417.9 210.41L417.9 160.11Z" />
				<path id="Layer" class="shp1" d="M408.15 161.9L398.71 158.91L383.57 206.88L393.01 209.86L408.15 161.9Z" />
				<path id="Layer" class="shp1" d="M428.1 173.81L417.8 173.81L417.8 210.41L428.1 210.41L428.1 173.81Z" />
				<path id="Layer" class="shp4" d="M648.5 166.58L648.48 166.87L648.73 167.03L648.73 167.03L648.73 167.03L648.73 167.03L648.73 167.04L648.75 167.05C648.77 167.06 648.79 167.08 648.83 167.1C648.89 167.14 648.98 167.2 649.1 167.28C649.35 167.45 649.69 167.69 650.11 168C650.94 168.61 652.05 169.47 653.15 170.48C654.25 171.49 655.34 172.64 656.14 173.81C656.94 175 657.42 176.15 657.4 177.2C657.3 180.87 655.11 198.53 654.1 206.35C653.84 208.31 652.24 209.71 650.3 209.71L644.1 209.71L637.9 209.71C635.96 209.71 634.36 208.31 634.1 206.35C633.09 198.53 630.9 180.87 630.8 177.2C630.78 176.15 631.26 175 632.06 173.81C632.86 172.64 633.95 171.49 635.05 170.48C636.15 169.47 637.26 168.61 638.09 168C638.51 167.69 638.85 167.45 639.1 167.28C639.22 167.2 639.31 167.14 639.38 167.1C639.41 167.08 639.43 167.06 639.45 167.05L639.47 167.04L639.47 167.03L639.47 167.03L639.47 167.03L639.47 167.03L639.72 166.87L639.7 166.58L638.6 151.7C638.61 150.94 639.12 150.41 639.8 150.41L644.1 150.41L648.4 150.41C649.13 150.41 649.67 150.99 649.6 151.66L649.6 151.66L649.6 151.68L648.5 166.58Z" />
				<path id="Layer" class="shp4" d="M608.7 166.58L608.68 166.87L608.93 167.03L608.93 167.03L608.93 167.03L608.93 167.03L608.93 167.04L608.95 167.05C608.97 167.06 608.99 167.08 609.02 167.1C609.09 167.14 609.18 167.2 609.3 167.28C609.55 167.45 609.89 167.69 610.31 168C611.14 168.61 612.25 169.47 613.35 170.48C614.45 171.49 615.54 172.64 616.34 173.81C617.14 175 617.62 176.15 617.6 177.2C617.5 180.87 615.31 198.53 614.3 206.35C614.04 208.31 612.44 209.71 610.5 209.71L604.3 209.71L598.1 209.71C596.16 209.71 594.56 208.31 594.3 206.35C593.29 198.53 591.1 180.87 591 177.2C590.98 176.15 591.46 175 592.26 173.81C593.06 172.64 594.15 171.49 595.25 170.48C596.35 169.47 597.46 168.61 598.29 168C598.71 167.69 599.05 167.45 599.29 167.28C599.42 167.2 599.51 167.14 599.58 167.1C599.61 167.08 599.63 167.06 599.65 167.05L599.67 167.04L599.67 167.03L599.67 167.03L599.67 167.03L599.67 167.03L599.92 166.87L599.9 166.58L598.8 151.7C598.81 150.94 599.32 150.41 600 150.41L604.3 150.41L608.6 150.41C609.34 150.41 609.87 150.99 609.8 151.66L609.8 151.66L609.8 151.68L608.7 166.58Z" />
				<path id="Layer" class="shp1" d="M9.9 403.71L965.7 403.71" />
			</g>
		</g>
		<path id="Layer" class="shp2" d="M110.1 317.61L97.4 495.21C97.3 496.71 98.5 498.01 100 498.01C101.4 498.01 102.5 497.01 102.6 495.61L117.9 317.61L110.1 317.61Z" />
		<path id="Layer" class="shp2" d="M624.2 317.61L636.9 495.21C637 496.71 635.8 498.01 634.3 498.01C632.9 498.01 631.8 497.01 631.7 495.61L616.4 317.61L624.2 317.61Z" />
		<path id="Layer" class="shp5" d="M221.3 97.81C221.3 97.81 230.2 115.91 236.6 132.21C243 148.51 244.1 163.61 237.9 166.81C229.2 171.31 219.5 171.61 208.3 150.41C197.1 129.21 205.5 81.31 221.3 97.81Z" />
		<path id="Layer" class="shp6" d="M173.4 428.41C173.5 429.61 169.9 449.91 170.1 451.41C170.4 452.91 154.8 456.81 147.3 450.11C147.3 450.11 148.4 423.61 148.4 419.61C148.4 415.71 172.7 417.21 173.4 428.41Z" />
		<path id="Layer" class="shp3" d="M170.4 447.81C170.4 447.81 172.1 455.31 174.6 459.91C177.1 464.51 190.9 477.41 189.4 481.81C187.9 486.21 175.2 486.61 165.4 486.21C155.6 485.81 151.2 482.41 147.3 475.41C143.3 468.41 146 463.71 146.5 450.11C146.5 450.11 146.8 447.81 147.4 447.41C147.4 447.41 149.4 450.91 151.7 451.21C154 451.41 156.3 445.91 161.9 445.31C167.5 444.81 168.2 450.31 168.8 450.31C169.5 450.31 170.2 449.41 170.4 447.81Z" />
		<path id="Layer" class="shp7" d="M179.5 469.31C179.5 469.31 172.5 466.31 159.5 471.21" />
		<path id="Layer" class="shp7" d="M177 463.81C177 463.81 170 460.81 157 465.71" />
		<path id="Layer" class="shp6" d="M223.4 424.91C223.5 426.11 219.9 446.41 220.1 447.91C220.4 449.41 204.8 453.31 197.3 446.61C197.3 446.61 198.4 420.11 198.4 416.11C198.4 412.21 222.8 413.71 223.4 424.91Z" />
		<path id="Layer" class="shp3" d="M220.5 444.21C220.5 444.21 222.2 451.71 224.7 456.31C227.2 460.91 241 473.81 239.5 478.21C238 482.61 225.3 483.01 215.5 482.61C205.7 482.21 201.3 478.81 197.4 471.81C193.4 464.81 196.1 460.11 196.6 446.51C196.6 446.51 196.9 444.21 197.5 443.81C197.5 443.81 199.5 447.31 201.8 447.61C204.1 447.81 206.4 442.31 212 441.71C217.6 441.21 218.3 446.71 218.9 446.71C219.6 446.81 220.3 445.91 220.5 444.21Z" />
		<path id="Layer" class="shp7" d="M229.5 465.81C229.5 465.81 222.5 462.81 209.5 467.71" />
		<path id="Layer" class="shp7" d="M227.1 460.31C227.1 460.31 220.1 457.31 207.1 462.21" />
		<path id="Layer" class="shp8" d="M128.7 209.11C128.7 209.11 125.7 226.61 134.3 267.71C136.9 280.21 139 296.51 140.5 313.61C144 352.61 141 392.41 139.2 408.11C136.6 430.61 148.1 434.91 160.5 435.91C172.9 436.91 177.5 431.21 178.1 424.91C178.7 418.61 186.1 334.61 188.9 315.61C191.8 296.61 192 270.61 191.1 266.81C190.2 263.01 201 263.81 196.5 216.81C192.1 169.61 132.3 196.61 128.7 209.11Z" />
		<path id="Layer" class="shp8" d="M214.8 211.41C214.8 211.41 229.8 275.61 231.6 295.61C233.4 315.61 229.7 413.71 229.8 419.61C230 425.51 224.5 430.81 211.1 431.11C197.7 431.41 192.3 422.51 192.4 417.71C192.7 401.71 192.9 338.01 191.9 328.21C190.9 318.41 176.3 270.21 173.4 265.61C170.5 260.91 164.1 226.41 176.7 220.41C189.3 214.41 209.1 205.41 214.8 211.41Z" />
		<path id="Layer" class="shp3" d="M195.9 83.31C195.9 83.31 170.3 82.41 158.4 80.81C146.5 79.21 124.3 79.11 115.5 97.01C106.7 114.91 134 123.71 133.3 136.41C132.7 149.01 130.8 170.61 130.8 170.61C130.8 170.61 128.3 194.71 125.5 203.81C122.7 212.91 128 217.51 130.5 218.31C133 219.11 159 224.41 178.7 223.31C198.4 222.21 214.5 217.71 215.9 213.31C217.4 208.91 215 196.01 215.9 182.51C216.8 169.01 219.4 145.41 219.4 136.41C219.4 127.41 223.8 104.61 219.4 95.21C215 85.81 204.4 83.61 195.9 83.31Z" />
		<path id="Layer" class="shp5" d="M162.3 72.71C162.3 72.71 158.2 73.31 156.8 76.01C155.9 77.71 154.8 80.81 154.9 84.01C155 87.21 159.8 96.01 173.7 97.61C187.7 99.21 192.6 92.41 193.2 89.81C193.8 87.21 192.8 80.21 191.8 79.01C190.9 77.71 189.4 76.41 184.4 75.81C179.5 75.01 163.9 72.11 162.3 72.71Z" />
		<path id="Layer" class="shp6" d="M182.4 133.51C182.4 133.51 186.5 129.21 188.6 126.01C190.7 122.81 193.5 119.31 195.8 118.01C198.1 116.61 202.9 115.81 204.2 115.11C205.6 114.41 207 116.91 204.2 119.21C201.4 121.51 202.6 128.21 198.7 131.81C194.7 135.41 183.8 137.61 182.4 133.51Z" />
		<path id="Layer" class="shp8" d="M211.5 74.31L262 71.01C263.5 70.91 264.7 72.21 264.5 73.71L252.1 149.91C251.8 151.61 250.5 152.91 248.8 153.11L200.5 159.71C199 159.91 197.7 158.61 197.8 157.11L208 77.71C208.1 75.81 209.6 74.41 211.5 74.31Z" />
		<path id="Layer" class="shp3" d="M247.2 74.51L228.1 75.51C227.4 75.51 226.8 74.91 226.9 74.21L227.2 72.21C227.3 71.41 228 70.81 228.7 70.81L247.8 69.81C248.5 69.81 249.1 70.41 249 71.11L248.7 73.11C248.6 73.91 247.9 74.41 247.2 74.51Z" />
		<path id="Layer" class="shp6" d="M135.8 151.71C135.8 151.71 142.1 126.41 143.7 116.71C145.3 107.01 139.2 96.21 129.8 93.81C118.8 91.11 115.4 96.91 115.4 96.91C115.4 96.91 111 104.61 106.6 128.81C102.2 153.01 99.7 175.51 115.4 181.01C131.1 186.51 163.3 168.61 173.6 160.91C183.9 153.31 187.7 150.01 189.7 149.51C191.7 149.01 199.6 151.11 203.8 146.41C208 141.71 211.6 138.01 212 138.01C212.4 138.01 222.4 139.51 224.1 138.21C226 136.71 223.2 135.21 221.2 134.91C219.3 134.61 213.5 132.71 213.5 132.71C213.5 132.71 218 131.31 221.2 130.11C224.4 128.81 227.7 128.21 227.5 126.51C227.3 124.71 225.3 125.01 223.3 124.91C221.3 124.81 218.6 125.41 218.6 125.41C218.6 125.41 224.1 123.91 225.5 122.31C227 120.61 225.7 119.31 222.8 119.61C220.5 119.81 217.3 120.61 217.3 120.61C217.3 120.61 222.9 120.11 222.5 117.61C222.2 115.91 217.2 116.81 213.9 117.21C210.6 117.61 206.4 118.41 202.8 119.31C200.4 119.91 198.2 120.61 196.7 121.31C193.2 123.01 184.4 131.41 183 133.11C181.6 134.81 164 137.61 149.6 140.81C135.2 143.91 126.8 146.61 122.4 150.71L135.8 151.71Z" />
		<path id="Layer" class="shp9" d="M214.1 117.11C210.8 117.51 206.6 118.31 203 119.21C200.6 119.81 198.4 120.51 196.9 121.21" />
		<path id="Layer" class="shp5" d="M186 151.71C183.5 153.51 179.7 156.51 173.7 160.91C163.4 168.51 131.2 186.41 115.5 181.01C99.9 175.51 102.4 153.01 106.7 128.81C111.1 104.61 115.5 96.91 115.5 96.91C115.5 96.91 118.9 91.11 129.9 93.81C139.2 96.11 145.4 106.91 143.8 116.71C142.8 122.81 139.9 135.21 137.9 143.51C141.4 142.51 145.4 141.61 150 140.61C160.2 138.41 172.1 136.31 178.6 134.71C178.5 135.01 177.2 140.41 179.7 145.51C182 150.71 186 151.71 186 151.71Z" />
		<path id="Layer" class="shp10" d="M105.7 171.51C105.7 171.51 105.5 166.11 112.1 166.81C118.6 167.51 135.8 173.71 130.9 181.01" />
		<path id="Layer" class="shp10" d="M170.6 136.51C170.6 136.51 169.1 142.31 171.8 148.21C174.5 154.01 179.4 156.81 179.4 156.81" />
		<path id="Layer" class="shp6" d="M161.5 57.01C161.5 57.01 161.2 69.81 160.4 77.81C159.6 85.81 174.5 89.11 181.7 87.71C188.9 86.31 190 84.11 190 84.11C190 84.11 189.4 73.31 190 69.41C190.6 65.51 161.6 52.81 161.5 57.01Z" />
		<path id="Layer" class="shp11" d="M189.8 81.21C189.7 79.61 189.7 77.51 189.7 75.41C183.6 75.71 178.2 70.11 173.8 65.51C172.6 75.11 180.9 81.31 189.8 81.21Z" />
		<path id="Layer" class="shp5" d="M201.6 40.01C201.6 40.01 206.6 37.41 208.1 29.21C209.6 20.91 207.8 8.81 202.2 7.41C196.5 5.91 200.5 23.21 196.7 26.41C192.9 29.51 201.6 35.51 201.6 40.01Z" />
		<path id="Layer" class="shp6" d="M201.4 25.91C201.4 25.91 203.1 32.81 202.5 42.91C201.9 53.11 203.9 70.31 192.8 75.31C181.7 80.31 167 75.11 161 58.71C155 42.31 154.9 26.01 164.1 19.01C173.4 11.91 198.1 12.91 201.4 25.91Z" />
		<path id="Layer" class="shp5" d="M162.2 45.61C162.2 45.61 165.6 44.51 165.7 38.41C165.7 32.21 169 27.11 175.6 28.91C182.2 30.71 191.4 35.81 196.8 35.71C203.2 35.51 205.2 28.61 205.7 20.11C206.2 11.51 203.4 6.31 200.1 7.21C196.8 8.11 194 10.91 189.9 5.71C184.3 -1.29 179.3 -1.09 175.3 2.21C168.3 8.11 169.9 11.21 163.5 8.71C159.8 7.21 157.2 7.61 155.4 14.51C153.6 21.41 154.3 23.31 150 22.71C145.6 22.11 148.4 44.91 155.4 50.01C155.5 50.01 160.9 45.11 162.2 45.61Z" />
		<path id="Layer" class="shp5" d="M196.6 47.31C197 48.41 197.2 49.51 197.5 50.51C197.8 51.51 198.1 52.61 198.4 53.41C198.6 53.91 198.9 54.61 198.9 55.31C198.9 56.01 198.8 56.81 198.3 57.31C197.4 58.41 196.1 58.71 194.9 58.61C195.9 58.01 196.8 57.31 197.1 56.61C197.4 55.91 197.2 55.11 196.7 54.21C196.2 53.01 196 51.91 196 50.71C196.1 49.51 196.3 48.41 196.6 47.31Z" />
		<path id="Layer" class="shp5" d="M186.9 38.61C187.8 38.71 188.5 37.91 188.2 37.01C187.9 36.11 187.7 35.31 186.7 35.11C184.6 34.61 180.1 35.01 177.4 37.01C174.7 39.01 177.3 39.41 180.7 38.71C183.1 38.31 185.3 38.41 186.9 38.61Z" />
		<path id="Layer" class="shp7" d="M182.3 58.71C187.77 58.71 192.2 54.1 192.2 48.41C192.2 42.73 187.77 38.11 182.3 38.11C176.83 38.11 172.4 42.73 172.4 48.41C172.4 54.1 176.83 58.71 182.3 58.71Z" />
		<path id="Layer" class="shp7" d="M203 57.81C206.53 57.81 209.4 53.61 209.4 48.41C209.4 43.22 206.53 39.01 203 39.01C199.47 39.01 196.6 43.22 196.6 48.41C196.6 53.61 199.47 57.81 203 57.81Z" />
		<path id="Layer" class="shp7" d="M196.8 46.31C196.8 46.31 195.5 44.51 192 46.31" />
		<path id="Layer" class="shp7" d="M172.8 45.51L160.9 44.61" />
		<path id="Layer" class="shp7" d="M188.3 65.71C188.3 65.71 183.8 65.41 181.5 61.01" />
		<path id="Layer" class="shp5" d="M183.8 52.21C184.7 52.31 185.5 51.61 185.6 50.61L185.7 49.61C185.8 48.71 185.1 47.91 184.1 47.81C183.2 47.71 182.4 48.41 182.3 49.41L182.2 50.41C182.1 51.41 182.8 52.11 183.8 52.21Z" />
		<path id="Layer" class="shp5" d="M198.6 52.51C199.5 52.61 200.3 51.91 200.4 50.91L200.5 49.91C200.6 49.01 199.9 48.21 198.9 48.11C198 48.01 197.2 48.71 197.1 49.71L197 50.71C197 51.61 197.7 52.41 198.6 52.51Z" />
		<path id="Layer" class="shp6" d="M161.8 45.91C161.8 45.91 158.9 40.91 155 42.21C151.1 43.51 151.2 49.51 153.1 53.11C155.5 57.71 161 59.11 163.9 58.61" />
		<path id="Layer" class="shp5" d="M154.9 49.51C154.7 49.01 154.6 48.51 154.7 47.91C154.7 47.61 154.9 47.31 155.1 47.01C155.4 46.71 155.8 46.51 156.2 46.51C156.9 46.51 157.6 46.81 158 47.31C158.4 47.71 158.7 48.21 159 48.71C159.5 49.61 159.7 50.51 160 51.31C160.2 51.71 160.3 52.01 160.5 52.21C160.7 52.41 161.2 52.41 161.7 52.41C161.4 52.81 160.9 53.21 160.2 53.11C159.5 52.91 159.1 52.51 158.7 52.11C158.1 51.21 157.7 50.41 157.3 49.61C156.9 48.81 156.5 48.21 156.1 48.11C156 48.11 155.9 48.01 155.8 48.11C155.7 48.11 155.6 48.21 155.5 48.41C155.3 48.51 155.1 49.01 154.9 49.51Z" />
		<path id="Layer" class="shp9" d="M214.1 132.81C214.1 132.81 212.2 132.31 210.8 132.21C209.4 132.01 208.4 132.21 208.4 132.21" />
		<path id="Layer" class="shp9" d="M218.7 125.31C218.7 125.31 208.5 127.51 207.6 128.21" />
		<path id="Layer" class="shp9" d="M217.5 120.51C217.5 120.51 210.5 122.01 210.1 122.11C208.8 122.51 206.4 123.21 206.4 123.21" />
		<path id="Layer" class="shp7" d="M137.9 250.21C137.9 250.21 149.6 245.21 149.6 228.21" />
		<path id="Layer" class="shp2" d="M25.7 389.41L19.9 509.81C19.8 511.21 20.9 512.31 22.3 512.31C23.5 512.31 24.6 511.41 24.7 510.11L34.8 389.31L25.7 389.31L25.7 389.41Z" />
		<path id="Layer" class="shp2" d="M82.8 389.41L88.6 509.81C88.7 511.21 87.6 512.31 86.2 512.31C85 512.31 83.9 511.41 83.8 510.11L73.7 389.31L82.8 389.31L82.8 389.41Z" />
		<path id="Layer" class="shp2" d="M64.7 365.71L64.6 486.21C64.6 487.61 63.5 488.61 62.1 488.61C60.9 488.51 59.9 487.51 59.8 486.31L55.6 365.21L64.7 365.71Z" />
		<path id="Layer" class="shp5" d="M86.8 377.71C77.6 376.41 65.8 375.61 52.8 375.61C39.9 375.61 28 376.41 18.8 377.71L0 377.71L0 384.51C0 389.41 23.6 393.41 52.8 393.41C81.9 393.41 105.6 389.41 105.6 384.51L105.6 377.71L86.8 377.71Z" />
		<path id="Layer" class="shp12" d="M52.8 386.61C81.96 386.61 105.6 382.63 105.6 377.71C105.6 372.8 81.96 368.81 52.8 368.81C23.64 368.81 0 372.8 0 377.71C0 382.63 23.64 386.61 52.8 386.61Z" />
		<path id="Layer" class="shp5" d="M90.5 471.71C90.5 471.71 89.2 481.31 87.4 484.21C85.5 487.11 82.6 494.31 82.7 496.01C83 499.11 92.6 507.01 98.2 511.81C103.8 516.61 108.4 516.81 118.8 517.61C129.2 518.41 133.4 516.81 133.4 513.61C133.4 510.51 131.3 508.91 126.7 503.61C122.2 498.31 114.9 490.81 112.5 486.51C110.1 482.21 114.9 475.71 117.1 471.71C119.3 467.71 95.1 460.41 90.5 471.71Z" />
		<path id="Layer" class="shp6" d="M117.1 471.71C115 475.71 110.2 482.21 112.5 486.51C112.7 486.91 113 487.31 113.2 487.71C112.6 486.91 110.5 484.31 106.4 484.31C101.6 484.31 99 489.91 95.3 487.21C92.9 485.41 89.8 483.41 88 482.31C89.4 478.41 90.3 471.61 90.3 471.61C95.1 460.41 119.3 467.71 117.1 471.71Z" />
		<path id="Layer" class="shp3" d="M86.9 308.41C86.9 308.41 91.1 318.61 93.2 321.51C95.3 324.41 146.8 329.41 152.3 350.31C157.8 371.21 125.2 459.41 121.7 467.71C118.2 476.01 117.7 483.31 105.9 482.11C94 480.81 84.6 473.31 86.9 465.01C89.2 456.71 98.2 434.61 101.9 408.11C105.7 381.61 119 376.01 95 367.91C71 359.81 51.9 362.41 58.5 340.01C65.1 317.61 82.3 306.01 86.9 308.41Z" />
		<path id="Layer" class="shp5" d="M124.1 486.31C124.1 486.31 128.3 501.31 128.3 502.91C128.3 504.61 125.6 517.41 126.2 521.21C126.8 525.01 132 527.11 138.9 533.41C146.3 540.31 152.3 539.91 161.4 539.21C169.2 538.61 179.6 534.81 180.7 531.71C181.9 528.51 180.6 526.41 174.4 523.11C168.9 520.11 155.1 504.81 154.4 503.11C153.7 501.41 149.5 479.11 149.3 477.01C149.1 474.81 121.6 480.61 124.1 486.31Z" />
		<path id="Layer" class="shp6" d="M153.7 501.01C151.6 498.41 148.6 496.21 144.6 498.61C140.4 501.11 140 506.51 137.8 506.81C135.6 507.11 135.4 504.01 132.5 503.11C129.6 502.31 127.8 500.31 127.8 500.31C126.7 495.61 124.1 486.21 124.1 486.21C121.6 480.51 149.1 474.71 149.2 476.91C149.4 478.81 152.4 495.01 153.7 501.01Z" />
		<path id="Layer" class="shp13" d="M160.4 511.91C160.4 511.91 155.2 509.91 145 515.01" />
		<path id="Layer" class="shp13" d="M167.6 518.31C167.6 518.31 159.9 516.31 149.7 521.41" />
		<path id="Layer" class="shp3" d="M16.5 306.81C16.5 306.81 11.7 319.41 8.8 327.31C5.9 335.21 2.2 351.41 10.5 364.51C18.8 377.61 34.8 379.91 60.5 383.11C85.9 386.21 91.4 388.21 91.4 388.21C91.4 388.21 97.2 414.11 106.6 439.51C116 464.91 119.5 479.71 119.9 483.31C120.3 486.81 122.2 490.41 128.5 491.91C134.8 493.41 151.2 489.81 152.3 482.51C153.3 475.21 146.3 452.91 141.7 423.31C137.1 393.71 135 368.91 126.3 357.41C117.5 345.91 83.3 344.71 83.3 341.41C83.2 338.21 33.2 298.81 16.5 306.81Z" />
		<path id="Layer" class="shp7" d="M141.6 423.31C137 393.71 134.9 368.91 126.2 357.41C117.4 345.91 84.9 342.71 83.2 341.41C83.2 341.41 75.2 335.91 64.1 336.01" />
		<path id="Layer" class="shp7" d="M83.2 341.41C83.2 341.41 84 336.21 83.2 333.81" />
		<path id="Layer" class="shp7" d="M10.5 345.31C10.5 345.31 27.2 345.01 30.9 326.81" />
		<path id="Layer" class="shp7" d="M91.3 388.21C91.3 388.21 91.1 383.61 95.1 380.11" />
		<path id="Layer" class="shp13" d="M125.7 502.31C125.7 502.31 123.6 496.61 106.8 501.21" />
		<path id="Layer" class="shp13" d="M117.3 493.31C117.3 493.31 115.7 489.11 102.3 494.81" />
		<path id="Layer" class="shp5" d="M511.2 370.11L511.2 376.91C511.2 381.31 489.1 384.91 461.7 384.91C434.4 384.91 412.2 381.31 412.2 376.91L412.2 370.11L435.5 370.11C443.1 369.31 452.1 368.91 461.7 368.91C471.3 368.91 480.3 369.31 487.9 370.11L511.2 370.11Z" />
		<path id="Layer" class="shp12" d="M461.7 378.11C489.04 378.11 511.2 374.53 511.2 370.11C511.2 365.7 489.04 362.11 461.7 362.11C434.36 362.11 412.2 365.7 412.2 370.11C412.2 374.53 434.36 378.11 461.7 378.11Z" />
		<path id="Layer" class="shp5" d="M461.7 458.91C460.4 458.91 459.4 457.91 459.4 456.61L459.4 378.21L464.1 378.21L464.1 456.61C464.1 457.91 463 458.91 461.7 458.91Z" />
		<path id="Layer" class="shp14" d="M461.7 456.41C461.7 456.41 434.5 458.41 425.9 476.51" />
		<path id="Layer" class="shp14" d="M497.6 476.51C488.9 458.41 461.8 456.41 461.8 456.41C461.8 456.41 457.3 459.91 455.4 480.61" />
		<path id="Layer" class="shp3" d="M456.97 489.96C460.89 489.03 463.32 485.1 462.4 481.18C461.47 477.25 457.54 474.82 453.62 475.75C449.69 476.68 447.26 480.61 448.19 484.53C449.12 488.46 453.05 490.89 456.97 489.96Z" />
		<path id="Layer" class="shp3" d="M502.72 483.16C505.57 480.31 505.57 475.68 502.72 472.83C499.87 469.98 495.24 469.98 492.39 472.83C489.54 475.68 489.54 480.31 492.39 483.16C495.24 486.01 499.87 486.01 502.72 483.16Z" />
		<path id="Layer" class="shp7" d="M427.57 485.06C431.49 484.13 433.92 480.2 433 476.28C432.07 472.36 428.14 469.93 424.21 470.85C420.29 471.78 417.86 475.71 418.79 479.63C419.71 483.56 423.64 485.99 427.57 485.06Z" />
		<path id="Layer" class="shp5" d="M488.7 296.41C493.5 307.91 502 326.41 501.9 347.21C501.9 372.41 471.4 382.71 468.3 386.71C465.2 390.81 401.7 395.11 395.2 382.41C388.7 369.61 389.1 356.31 406.5 324.21C418.1 302.71 416.6 296.71 416.7 296.41C416.7 296.41 418.3 298.11 419 291.41C419.7 284.71 485.8 289.61 488.7 296.41Z" />
		<path id="Layer" class="shp6" d="M410.3 356.31C404.1 357.31 393.7 360.61 392.6 377.11C391.6 393.61 404.7 457.61 404.9 468.91C405.1 480.21 404 480.71 396.3 487.61C388.6 494.51 373.3 502.01 374.6 507.31C375.9 512.61 393.4 517.11 404.9 515.01C416.5 512.91 419 499.81 421.2 498.71C423.4 497.61 424.8 493.51 425.1 490.91C425.4 488.21 433.5 396.51 434.3 383.01C435.4 366.31 428.5 353.41 410.3 356.31Z" />
		<path id="Layer" class="shp5" d="M425.9 483.11C425.5 487.51 425.2 490.31 425.2 490.81C424.9 493.51 423.5 497.51 421.3 498.61C419.1 499.71 416.6 512.81 405 514.91C393.4 517.01 375.9 512.51 374.7 507.21C373.7 503.11 382.8 497.61 390.5 492.11C390.3 492.31 388.1 494.51 390.5 495.01C393 495.51 397.5 493.61 406.1 498.41C414.7 503.21 417.2 495.71 418.9 490.61C420.4 486.31 423.4 487.71 425.9 483.11Z" />
		<path id="Layer" class="shp6" d="M440.5 359.31C433 364.31 430 370.41 428.6 393.41C426.7 425.01 423.3 474.71 421.7 480.01C420.1 485.31 418.1 487.71 416.2 493.01C414.3 498.31 398.2 513.61 399.2 519.41C400.1 525.21 409.4 531.01 415.2 532.91C421 534.81 427.9 535.61 432.1 532.91C436.3 530.21 438.4 513.31 439.5 509.31C440.6 505.21 441.8 502.31 442.8 495.21C443.7 488.21 451.1 456.11 454.2 446.91C457.3 437.81 471.2 393.01 471.6 375.51C471.8 358.01 451.5 352.11 440.5 359.31Z" />
		<path id="Layer" class="shp15" d="M440.5 359.31C433 364.31 430 370.41 428.6 393.41C426.7 425.01 423.3 474.71 421.7 480.01C420.1 485.31 418.1 487.71 416.2 493.01" />
		<path id="Layer" class="shp5" d="M443.9 488.91C443.3 491.71 442.9 493.91 442.8 495.21C441.9 502.21 440.6 505.21 439.5 509.31C438.4 513.41 436.4 530.31 432.2 532.91C428 535.61 421.1 534.81 415.3 532.91C409.5 531.01 400.3 525.21 399.3 519.51C398.6 515.31 406.8 506.21 412.1 499.41C411.8 499.81 408 505.51 414.8 510.51C420.7 514.91 431.7 517.61 434.5 511.01C437.3 504.41 438.8 498.21 440.1 496.21C441.4 494.31 443 492.21 443.9 488.91Z" />
		<path id="Layer" class="shp16" d="M423.94 514.02C424.73 511.89 423.05 509.32 420.19 508.27C417.34 507.23 414.4 508.1 413.62 510.23C412.84 512.35 414.52 514.92 417.37 515.97C420.22 517.02 423.16 516.14 423.94 514.02Z" />
		<path id="Layer" class="shp16" d="M401.7 497.01C401.4 499.11 398.8 500.41 396 500.01C393.2 499.61 391.1 497.51 391.4 495.41C391.7 493.31 394.3 492.01 397.1 492.41C400 492.81 402 494.91 401.7 497.01Z" />
		<path id="Layer" class="shp3" d="M419.1 212.81C419.1 212.81 405.5 213.01 396.3 233.31C387.1 253.51 372.5 282.21 374.6 294.31C376.7 306.41 404.6 294.31 417.8 271.61C430.9 248.91 429.7 213.41 419.1 212.81Z" />
		<path id="Layer" class="shp5" d="M429.6 172.41C429.6 172.41 422.7 172.01 420.5 163.11C418.3 154.21 427.4 143.11 435.8 140.41C444.2 137.71 446.3 142.91 451.8 143.51C457.3 144.11 472 142.51 477.9 155.61C483.8 168.71 474 181.11 481.5 190.91C489 200.81 495.3 218.91 473.2 226.71C451.1 234.51 425.7 228.41 417.8 214.31C410 200.21 425.1 191.91 427.4 184.61C429.9 177.41 431 175.61 429.6 172.41Z" />
		<path id="Layer" class="shp8" d="M452 207.61C452 207.61 431.6 207.41 420.5 211.61C417.2 212.81 414.4 214.91 413.6 225.31C412.9 234.71 412.4 234.61 409.8 239.21C405.7 246.61 404 255.11 411.9 268.91C417 277.91 415.4 294.81 414.6 303.31C413.8 311.91 414.8 315.61 431.3 319.81C447.8 324.01 483.2 319.81 487.2 315.81C491.2 311.81 493 272.21 492.2 264.51C491.4 256.81 506.2 236.31 505.1 228.21C504.1 220.11 494.4 209.01 452 207.61Z" />
		<path id="Layer" class="shp16" d="M440.8 205.91C440.8 205.91 431.6 206.31 428.6 209.41C426.5 211.61 428.2 213.01 430.7 214.91C432.4 216.21 426.4 219.61 429.5 223.51C431.8 226.41 437 222.81 439 225.51C441.3 228.71 441.7 229.91 445.2 230.01C449.6 230.11 450 225.41 453.3 225.91C457.3 226.51 458.2 227.91 461.1 227.61C465.6 227.11 465.7 222.61 465.1 219.91C464.5 217.21 466.1 217.11 469.6 216.11C473.1 215.11 473.8 208.31 460.9 206.41C448.1 204.51 440.8 205.91 440.8 205.91Z" />
		<path id="Layer" class="shp6" d="M463.6 187.81C463.6 187.81 461.5 197.91 461.7 208.71C461.7 208.71 458.2 219.21 446.2 218.51C435 217.91 437.6 208.91 437.6 208.91C437.6 208.91 440.3 198.91 440.4 196.31C440.6 193.71 460.8 185.11 463.6 187.81Z" />
		<path id="Layer" class="shp17" d="M454.7 199.21C449.9 202.41 444.3 204.31 439 203.91C438.3 206.61 437.7 208.91 437.7 208.91C437.7 208.91 437.6 209.41 437.5 210.21C445.3 210.01 452.3 206.51 454.7 199.21Z" />
		<path id="Layer" class="shp6" d="M428.3 162.41C428.3 162.71 428.6 170.41 427.2 179.01C425.8 187.61 427.3 201.21 436.6 204.41C449.5 208.81 462.9 200.01 466.2 187.21C469.5 174.41 471.2 158.71 454.8 154.01C438.3 149.21 429.2 156.11 428.3 162.41Z" />
		<path id="Layer" class="shp5" d="M427.8 166.01C427.8 166.01 427.1 162.91 430 162.31C432.9 161.71 435.6 160.41 438.3 159.21C440.2 158.31 442.6 158.61 444.5 162.81C448.7 171.81 454 185.31 465 181.51C465 181.51 469.2 182.41 470.4 175.41C471.6 168.41 471.1 159.01 458.9 153.31C446.7 147.71 432.7 151.51 430.1 154.41C426.1 158.91 427.8 166.01 427.8 166.01Z" />
		<path id="Layer" class="shp6" d="M460.3 182.91C460.3 182.91 464.8 176.71 469 180.31C473.2 183.91 467.4 193.01 461.6 192.71" />
		<path id="Layer" class="shp8" d="M466.8 193.41C466.8 192.01 465.6 189.41 464.2 189.41C462.8 189.41 461.6 192.01 461.6 193.41C461.6 194.81 462.8 196.01 464.2 196.01C465.6 196.01 466.8 194.91 466.8 193.41Z" />
		<path id="Layer" class="shp5" d="M467.5 184.51C467.1 184.31 466.8 184.01 466.5 183.91C466.2 183.71 465.9 183.81 465.8 183.91C465.7 183.91 465.7 184.01 465.6 184.11C465.5 184.21 465.4 184.31 465.4 184.41C465.3 184.61 465.3 184.81 465.2 185.11C465.1 185.71 465.2 186.51 465 187.41C464.9 187.91 464.6 188.41 464.1 188.71C463.6 189.01 463.1 188.81 462.7 188.71C463.1 188.51 463.4 188.31 463.5 188.01C463.6 187.81 463.6 187.51 463.6 187.21C463.6 186.61 463.4 185.81 463.5 184.91C463.5 184.41 463.7 183.91 464.1 183.41C464.3 183.21 464.5 183.01 464.7 182.81C465 182.71 465.3 182.51 465.6 182.51C466.3 182.51 466.8 182.91 467 183.31C467.4 183.71 467.5 184.11 467.5 184.51Z" />
		<path id="Layer" class="shp5" d="M431.7 178.41C432.1 179.31 432.1 180.31 431.9 181.31C431.7 182.31 431.3 183.21 430.6 184.01C430.4 184.31 430.3 184.31 430.3 184.61C430.3 184.81 430.4 185.11 430.6 185.51C430.8 185.81 431 186.21 431.3 186.51C431.6 186.81 431.9 187.21 432.3 187.31C431.8 187.51 431.3 187.41 430.8 187.21C430.3 187.01 429.9 186.71 429.5 186.41C429.1 186.01 428.8 185.51 428.7 184.81C428.7 184.61 428.7 184.51 428.7 184.31C428.7 184.11 428.8 183.91 428.8 183.81C428.9 183.61 428.9 183.51 429 183.31C429.1 183.21 429.2 183.01 429.3 182.91C430.3 181.71 431 180.21 431.7 178.41Z" />
		<path id="Layer" class="shp7" d="M436.2 192.61C436.2 192.61 439.9 193.11 442.6 190.81" />
		<path id="Layer" class="shp5" d="M440.5 170.81C440.3 170.21 440.6 169.31 440.9 168.91C441.7 167.91 444.3 167.81 446.3 169.11C448.3 170.31 449.1 172.21 448.5 172.41C447.6 172.71 446.7 171.51 444.6 171.31C442.5 171.01 440.9 171.91 440.5 170.81Z" />
		<path id="Layer" class="shp5" d="M430.2 170.51C430.7 170.61 431.2 170.31 431.2 169.81C431.3 169.11 431.3 168.31 431 167.81C430.4 166.91 428.8 167.91 428.3 168.61C427.8 169.31 428 170.51 428.3 170.51C428.5 170.51 429.4 170.31 430.2 170.51Z" />
		<path id="Layer" class="shp5" d="M442.5 180.21C443.3 180.31 443.9 179.71 444 178.91L444.1 178.11C444.2 177.31 443.6 176.71 442.8 176.61C442 176.51 441.4 177.11 441.3 177.91L441.2 178.71C441.2 179.51 441.7 180.21 442.5 180.21Z" />
		<path id="Layer" class="shp5" d="M429.6 179.21C430.4 179.31 431 178.71 431.1 177.91L431.2 177.11C431.3 176.31 430.7 175.71 429.9 175.61C429.1 175.51 428.5 176.11 428.4 176.91L428.3 177.71C428.3 178.51 428.9 179.11 429.6 179.21Z" />
		<path id="Layer" class="shp2" d="M293 334.91L298.8 470.51C298.9 472.01 297.8 473.31 296.4 473.31C295.2 473.31 294.1 472.21 294 470.81L283.9 334.81L293 334.81L293 334.91Z" />
		<path id="Layer" class="shp2" d="M305.5 319.01L311 448.01C311.1 449.51 310 450.71 308.7 450.71C307.5 450.71 306.5 449.71 306.4 448.41L296.8 319.01L305.5 319.01L305.5 319.01Z" />
		<path id="Layer" class="shp2" d="M202.1 335.01L183.9 469.51C183.7 471.01 184.7 472.41 186 472.51C187.2 472.61 188.4 471.61 188.6 470.31L211.1 335.81L202.1 335.01Z" />
		<path id="Layer" class="shp2" d="M323.5 191.11C323.5 191.11 329.4 193.81 324.3 217.51C319.2 241.21 309.8 272.61 311.1 308.11C312.3 343.61 289.1 358.31 251 355.61C212.9 352.91 272.7 245.31 272.7 245.31C272.7 245.31 315.6 181.41 323.5 191.11Z" />
		<path id="Layer" class="shp16" d="M221.3 198.31C222.3 193.91 224.4 186.81 232.3 183.91C240.2 181.01 323.2 182.41 324.3 192.71C325.3 202.91 303.7 251.01 303.8 285.41C303.9 319.71 310 348.31 269.5 354.01C229 359.71 185.6 351.31 190 337.51C194.4 323.81 207.8 305.21 211.9 267.31C216 229.41 217.6 215.31 221.3 198.31Z" />
		<path id="Layer" class="shp5" d="M202.5 308.41C202.5 308.41 172 346.61 171.1 359.31C170.2 372.01 221.2 371.51 221.3 368.91C221.5 366.31 229.9 351.51 233.9 351.21C236.5 351.01 240.5 350.81 241.2 354.01C242.2 358.51 241.2 367.91 241.2 367.91L285.1 388.51L289.4 370.21C289.4 370.21 296.8 358.31 296.8 338.71C296.8 319.11 291.1 290.21 291.1 290.21C291.1 290.21 207.5 299.01 202.5 308.41Z" />
		<path id="Layer" class="shp5" d="M238.5 492.61C238.5 492.61 235.8 494.41 235.2 498.91C234.6 503.41 232.2 510.11 230.6 515.61C229 521.11 224.3 531.81 226.7 533.61C230.1 536.31 239.1 538.21 249.5 539.11C259.9 540.01 264.9 539.41 266.5 536.41C268 533.41 264.7 516.21 264.1 509.71C263.5 503.21 264.1 496.41 262.9 494.11C261.7 491.91 243.3 486.41 238.5 492.61Z" />
		<path id="Layer" class="shp5" d="M201.6 486.81C201.6 486.81 200.4 488.71 199.2 492.71C198 496.61 187.4 513.01 187.5 518.21C187.7 523.51 197.7 523.51 201.6 523.71C206.3 523.91 218.2 523.01 222.1 520.31C226 517.61 226.1 508.31 226.4 505.31C227 499.31 226.9 495.71 225.5 486.71C225.1 483.81 220.7 483.01 218.3 484.71C215.9 486.31 203.4 482.91 201.6 486.81Z" />
		<path id="Layer" class="shp6" d="M240.1 480.71C240.1 480.71 238.3 493.81 238.1 495.41C237.9 496.91 240.8 500.51 249.2 502.31C256.4 503.91 260.7 501.21 261.4 500.21C262.1 499.21 265.4 482.51 266.5 478.71C267.6 475.01 242.4 476.21 240.1 480.71Z" />
		<path id="Layer" class="shp6" d="M199.2 477.91C199.2 477.91 201.9 487.11 201.9 488.31C201.9 489.51 206.5 492.01 212.9 491.81C219.2 491.61 224.7 488.11 224.7 486.41C224.7 484.71 222.8 468.41 222.8 468.41C222.8 468.41 199.8 473.31 199.2 477.91Z" />
		<path id="Layer" class="shp13" d="M236.4 515.91C236.4 515.91 248.7 511.81 260.3 521.41" />
		<path id="Layer" class="shp13" d="M239.6 508.61C239.6 508.61 251.7 506.41 259.4 512.71" />
		<path id="Layer" class="shp5" d="M238.6 497.91C238.6 497.91 240.6 499.11 242.9 497.91C245.2 496.71 247.6 494.51 252.3 495.41C258 496.51 259.1 502.41 262.2 499.81C262.2 499.81 262.3 503.81 254.5 504.21C246.7 504.61 238.7 499.21 238.6 497.91Z" />
		<path id="Layer" class="shp5" d="M201.5 488.51C201.5 488.51 202.6 489.71 204.4 488.01C206.2 486.41 206 484.41 210.9 483.71C214.1 483.31 216.8 485.61 219.2 487.51C221.6 489.41 224 486.81 224.5 484.61C224.5 484.61 226.1 490.31 223.9 493.11C222.3 495.21 216.1 493.71 212.4 493.81C208.8 493.91 200.7 492.11 200.7 492.11L201.5 488.51Z" />
		<path id="Layer" class="shp13" d="M194.7 503.21C194.7 503.21 204.1 497.41 217 505.21" />
		<path id="Layer" class="shp13" d="M199.2 497.21C199.2 497.21 207.4 491.41 218.7 499.21" />
		<path id="Layer" class="shp5" d="M253 348.21C253 348.21 240.9 349.91 240.1 380.11C239.3 410.31 236.8 458.81 233.4 465.61C230.1 472.41 231.2 480.41 237.5 483.61C243.8 486.81 251.1 490.51 260.3 489.51C269.5 488.61 273.9 483.21 273.9 472.51C273.9 461.71 277.8 431.81 283.8 407.41C289.7 383.01 293.8 358.91 281.6 350.21C269.4 341.51 253 348.21 253 348.21Z" />
		<path id="Layer" class="shp5" d="M181.3 345.81C181.3 345.81 163.1 348.11 173.4 393.21C183.7 438.21 190.6 462.01 189 468.91C187.4 475.81 192.4 479.51 198.1 480.81C203.7 482.11 214.7 481.91 220.9 478.41C227.2 474.91 227.8 469.31 225.3 458.61C222.8 447.91 222.2 405.11 221.9 390.41C221.6 375.71 225.3 350.71 207.5 343.51C189.6 336.21 181.3 345.81 181.3 345.81Z" />
		<path id="Layer" class="shp10" d="M192.7 375.61C200.71 375.61 207.2 369.21 207.2 361.31C207.2 353.42 200.71 347.01 192.7 347.01C184.69 347.01 178.2 353.42 178.2 361.31C178.2 369.21 184.69 375.61 192.7 375.61Z" />
		<path id="Layer" class="shp10" d="M264.4 386.61C272.41 386.61 278.9 380.21 278.9 372.31C278.9 364.42 272.41 358.01 264.4 358.01C256.39 358.01 249.9 364.42 249.9 372.31C249.9 380.21 256.39 386.61 264.4 386.61Z" />
		<path id="Layer" class="shp5" d="M297.8 159.31C297.8 159.31 303.7 157.41 305.6 153.11C307.6 148.81 307.3 135.81 303.8 131.71C300.3 127.61 290.5 129.41 284.3 127.61C278.1 125.81 273.8 121.81 262.3 124.01C250.8 126.21 240.2 136.51 239.7 142.11C239.2 147.71 242.5 150.01 241.3 153.61C240 157.11 238.5 160.71 244.1 166.21C249.7 171.71 247.5 175.31 251.7 175.31C255.9 175.31 248.3 162.51 253.7 151.51C259.2 140.61 294.8 146.91 297.8 159.31Z" />
		<path id="Layer" class="shp6" d="M181.6 225.51C181.6 225.51 168.4 242.91 166.1 256.01C163.8 269.11 170.9 277.61 179.7 279.01C188.5 280.41 218 241.91 219.4 234.11C220.7 226.31 185.8 219.41 181.6 225.51Z" />
		<path id="Layer" class="shp12" d="M223.7 191.51C223.7 191.51 217 189.61 200.9 203.51C187.4 215.11 176.7 226.21 176.7 226.21C176.7 226.21 205.1 252.01 209 258.71C209 258.71 226.5 238.51 228 218.11C229.5 197.61 226.2 190.71 223.7 191.51Z" />
		<path id="Layer" class="shp7" d="M181.6 221.61C181.6 221.61 202.1 238.11 213.2 253.31" />
		<path id="Layer" class="shp5" d="M215.8 200.01C218.3 194.41 223.3 190.31 229.5 190.11C235.5 189.91 244.6 190.01 257.8 190.91C286.2 192.91 308.1 201.01 313.9 205.21C319.7 209.41 312.6 235.41 306.6 249.81C300.6 264.21 294.1 277.31 293 282.31C292 287.31 295.9 310.91 293.8 315.71C291.7 320.51 269.4 328.81 241 327.21C212.6 325.51 200.8 316.41 199.9 313.01C199.1 309.71 202.6 280.11 204.3 270.01C206 259.91 207.2 237.71 207.4 234.51C209.2 213.91 213.2 205.81 215.8 200.01Z" />
		<path id="Layer" class="shp6" d="M339.8 246.51C332.7 234.31 308.1 258.61 308.7 264.01C308.7 264.01 313.1 273.21 313.1 274.21C313.1 275.21 308.7 300.51 305.7 314.71C304.8 319.11 302.1 324.01 298.8 328.71C306.6 331.61 314.5 334.01 322.6 335.61C333.2 317.11 345.4 288.81 347.3 281.81C350.8 268.71 346.9 258.71 339.8 246.51Z" />
		<path id="Layer" class="shp15" d="M313.1 274.21C313.1 274.21 314.9 269.91 319.5 268.01" />
		<path id="Layer" class="shp12" d="M313.9 205.11C313.9 205.11 322 209.61 330 223.11C337.9 236.61 344.2 248.91 344.2 248.91L309 267.31C309 267.31 298.8 250.61 294.6 243.11C290.4 235.61 290 220.21 295.9 211.61C301.6 203.11 311.1 203.21 313.9 205.11Z" />
		<path id="Layer" class="shp7" d="M305.7 262.01C305.7 262.01 326.2 248.51 341.3 243.51" />
		<path id="Layer" class="shp6" d="M303.7 320.31C303.7 320.31 289.6 321.71 286.4 323.51C283.3 325.31 278.4 336.21 278.8 337.21C279.1 338.21 282.2 337.21 282.2 337.21C282.2 337.21 281.8 339.31 284.2 339.31C286.6 339.31 287 338.31 287 338.31C287 338.31 286.6 340.91 289.4 340.81C292.2 340.61 298 335.61 298 335.61C298 335.61 294.9 341.11 296.8 342.41C298.6 343.71 302.8 339.11 303.4 338.21C304 337.31 319.9 346.91 326 329.21C326 329.21 314.5 316.71 303.7 320.31Z" />
		<path id="Layer" class="shp12" d="M244.4 189.51C244.4 189.51 239.6 190.01 238.6 190.91C237.6 191.81 234.6 199.61 238.6 207.71C242.6 215.71 254.2 219.81 266 216.11C277.8 212.51 282.8 201.11 282.4 197.61C282 194.11 279.9 193.01 275.6 191.91C271.3 190.81 244.4 189.51 244.4 189.51Z" />
		<path id="Layer" class="shp6" d="M250.1 164.41C250.1 164.41 250.4 173.61 248.1 181.11C247.1 184.51 245.5 187.61 244.5 189.41C243.7 190.91 243.1 192.51 242.9 194.11C242.3 198.21 242.6 205.31 250.1 208.71C262.1 214.11 274.7 204.21 276.4 196.31C276.4 196.31 277.1 188.11 278.9 184.81C280.7 181.61 255.9 161.31 250.1 164.41Z" />
		<path id="Layer" class="shp17" d="M275.6 198.61C276 197.81 276.2 197.01 276.4 196.31C276.4 196.31 276.5 194.71 276.9 192.61C268.6 191.21 261.3 186.41 256.8 179.91C257.4 189.71 265.8 197.21 275.6 198.61Z" />
		<path id="Layer" class="shp6" d="M174.8 277.41C174.8 277.41 179.7 282.91 201.5 277.41C223.2 271.91 251.4 256.71 255.6 255.21C259.8 253.61 261.4 254.41 265.9 254.41C276.6 254.61 281 253.61 282.4 252.91C285.2 251.51 286.5 249.41 286 247.61C285.5 245.81 287 245.31 287.3 243.71C287.8 240.71 286.7 240.31 287 240.11C287.3 239.91 290.3 239.01 290.9 238.21C292.4 235.91 291.2 234.41 291.2 234.41C291.2 234.41 295 233.41 299.5 233.01C304 232.61 306.7 231.01 305.4 229.41C304.1 227.81 295.3 228.31 289.6 228.31C283.9 228.31 281.9 228.41 281.5 228.21C279.3 227.51 275 226.21 272.9 226.41C270.8 226.61 268.4 228.31 264.3 230.51C260.2 232.71 255.6 234.51 249.6 236.01C245 237.21 214.1 239.61 195 243.21C192.3 243.71 189.8 244.21 187.7 244.81C185.1 245.51 183 246.21 181.6 246.91C171.2 252.51 162.1 267.21 174.8 277.41Z" />
		<path id="Layer" class="shp15" d="M291.1 234.41C291.1 234.41 288.5 234.01 287.6 233.81C286.6 233.61 285.2 233.61 285.2 233.61" />
		<path id="Layer" class="shp15" d="M287 240.11C287 240.11 285.2 240.61 284.5 240.91" />
		<path id="Layer" class="shp15" d="M286 246.51C286 246.51 284.1 247.61 283.3 247.91" />
		<path id="Layer" class="shp5" d="M255.6 255.21C247.9 246.11 251.8 235.41 251.8 235.41L243.2 237.01C238.3 249.11 247 259.31 247 259.31L255.6 255.21Z" />
		<path id="Layer" class="shp15" d="M281.4 228.21C281.4 228.21 276 228.31 275.1 228.71" />
		<path id="Layer" class="shp15" d="M195 243.21C192.3 243.71 189.8 244.21 187.7 244.81C185.1 245.51 183 246.21 181.6 246.91" />
		<path id="Layer" class="shp16" d="M251.6 246.51C251.6 243.61 249.3 241.31 246.4 241.31C243.5 241.31 241.2 243.61 241.2 246.51C241.2 249.41 243.5 251.71 246.4 251.71C249.2 251.61 251.6 249.31 251.6 246.51Z" />
		<path id="Layer" class="shp6" d="M299 142.31C299 142.31 301.2 148.91 298.1 158.71C295 168.61 292.9 172.21 290.3 180.01C287.6 187.81 281.4 194.61 270.7 193.51C259.5 192.31 250.7 182.11 250.2 169.41C249.7 156.71 248.6 136.91 263.7 133.41C278.6 130.01 296.4 138.91 299 142.31Z" />
		<path id="Layer" class="shp5" d="M289.1 163.51C289.1 164.71 289.1 165.81 289.3 166.91C289.4 167.41 289.5 168.01 289.6 168.51C289.7 168.81 289.7 169.01 289.8 169.31L289.9 169.71L290 170.21C290.2 170.91 290.2 171.61 290 172.41C289.7 173.11 289.2 173.81 288.6 174.11C287.4 174.81 286.1 174.91 284.9 174.61C286 174.11 287.1 173.61 287.7 173.01C288.4 172.31 288.5 171.61 288.2 170.71L288.1 170.41L288 169.91C287.9 169.61 287.9 169.31 287.8 169.01C287.7 168.41 287.7 167.71 287.7 167.11C288 165.71 288.4 164.41 289.1 163.51Z" />
		<path id="Layer" class="shp5" d="M252.8 158.11C252.8 158.11 256.1 157.31 258.2 148.61C258.2 148.61 258.9 146.61 262.4 149.31C265.8 152.01 271.7 156.41 281.9 151.61C292.1 146.81 293.4 145.21 294.8 146.91C294.8 146.91 296.3 154.51 301.5 152.11C306.7 149.81 303.9 136.21 286.7 131.81C269.5 127.41 257.3 128.91 251.8 138.51C246.2 148.21 248.4 157.51 252.8 158.11Z" />
		<path id="Layer" class="shp5" d="M284.2 154.91C284.8 154.21 285.4 152.61 284.6 151.51C283.5 149.81 276 148.61 274.2 150.11C272.4 151.61 276.9 151.81 279 152.81C281.1 153.91 283.6 155.61 284.2 154.91Z" />
		<path id="Layer" class="shp5" d="M293.5 159.21C293.7 158.61 294.3 157.91 295 157.61C296.1 157.11 298.4 159.41 298 160.91C297.6 162.41 296.5 160.71 295.5 160.51C294.5 160.11 293.2 159.81 293.5 159.21Z" />
		<path id="Layer" class="shp5" d="M278.5 160.71C278.8 159.91 278.4 159.01 277.5 158.71C276.7 158.41 275.8 158.81 275.5 159.71L275.3 160.21L278.2 161.31L278.5 160.71Z" />
		<path id="Layer" class="shp5" d="M293.5 166.31C293.8 165.51 293.4 164.61 292.5 164.31C291.7 164.01 290.8 164.41 290.5 165.31L290.3 165.81L293.2 166.91L293.5 166.31Z" />
		<path id="Layer" class="shp6" d="M254.6 159.81C254.6 159.81 252.9 153.01 247.9 153.11C242.9 153.21 240.6 166.81 252.1 168.91" />
		<path id="Layer" class="shp5" d="M247.1 159.31C247.1 158.81 247.2 158.41 247.6 157.91C247.8 157.71 248.1 157.51 248.5 157.51C248.8 157.51 249.2 157.61 249.4 157.71C249.5 157.71 249.7 157.91 249.8 158.01C250 158.11 250 158.31 250.1 158.41C250.2 158.61 250.2 158.71 250.3 158.81C250.3 158.91 250.4 159.11 250.4 159.21C250.5 159.71 250.5 160.11 250.5 160.51C250.5 161.31 250.5 162.11 250.5 162.81C250.5 163.11 250.6 163.41 250.8 163.71C251 164.01 251.3 164.21 251.7 164.41C251.3 164.61 250.8 164.61 250.3 164.41C249.8 164.21 249.4 163.71 249.2 163.21C248.8 162.31 248.7 161.41 248.7 160.51C248.7 159.71 248.6 158.81 248.6 158.81C248.4 158.61 248.3 158.51 248 158.51C247.8 158.71 247.5 159.01 247.1 159.31Z" />
		<path id="Layer" class="shp5" d="M278.2 181.11C278.6 180.51 279 179.91 279.2 179.41C279.6 178.51 279.2 177.51 278.3 177.21C277.3 176.81 276 176.11 274.5 174.91C271.4 172.41 270 174.61 270.2 177.41C273.2 177.71 275.9 179.61 278.2 181.11Z" />
		<path id="Layer" class="shp17" d="M270.2 177.31C270.4 179.71 271.7 182.61 274.3 183.01C276 183.31 277.3 182.31 278.2 181.11C275.9 179.61 273.2 177.71 270.2 177.31Z" />
		<path id="Layer" class="shp2" d="M70.5 342.91L55.8 547.91C55.7 549.61 57.1 551.11 58.8 551.11C60.4 551.11 61.7 549.91 61.8 548.41L79.5 343.01L70.5 343.01L70.5 342.91Z" />
		<path id="Layer" class="shp2" d="M663.8 342.91L678.5 547.91C678.6 549.61 677.2 551.11 675.5 551.11C673.9 551.11 672.6 549.91 672.5 548.41L654.8 343.01L663.8 343.01L663.8 342.91Z" />
		<path id="Layer" class="shp16" d="M695.1 338.61L39.2 338.61L114.2 308.41L620 308.41L695.1 338.61Z" />
		<path id="Layer" class="shp2" d="M695.2 338.61L39.2 338.61L39.2 346.11L695.2 346.11L695.2 338.61Z" />
		<path id="Layer" class="shp8" d="M300 303.41L342.1 303.41C343.2 303.41 344.3 303.71 345.3 304.41L383.5 329.91C384.8 330.71 384.2 332.71 382.7 332.71L321.8 332.71C320.4 332.71 319.1 332.11 318.2 330.91L298.8 305.91C298 304.91 298.7 303.41 300 303.41Z" />
		<path id="Layer" class="shp1" d="M326 324.81L365.3 324.81" />
		<path id="Layer" class="shp5" d="M354.4 317.31L346.2 311.11C345.8 310.81 345.4 310.71 345 310.71L334.3 310.71C333.9 310.71 333.8 311.11 334 311.41L340.2 317.41C340.6 317.81 341.1 318.01 341.6 318.01L354.2 318.01C354.6 318.01 354.7 317.61 354.4 317.31Z" />
		<path id="Layer" class="shp1" d="M332.2 318.01L321.4 318.01" />
		<path id="Layer" class="shp1" d="M328.7 313.91L319 313.91" />
		<path id="Layer" class="shp12" d="M543.1 336.81L531.1 337.71C530.1 337.81 529 337.71 528 337.41L473.2 322.41C472 322.11 471.1 320.91 471.1 319.61L564.3 317.31L543.1 336.81Z" />
		<path id="Layer" class="shp5" d="M529.7 333.41L552.9 271.71C553.7 269.51 555.9 268.01 558.2 268.11L653.4 269.91C655.5 269.91 657 272.11 656.1 274.11L634.1 328.01C633.3 330.01 631.4 331.31 629.3 331.51L532.7 337.61C530.6 337.61 529 335.41 529.7 333.41Z" />
		<path id="Layer" class="shp5" d="M533.1 337.61L531.1 337.71C530.1 337.81 529 337.71 528 337.41L473.2 322.41C472 322.01 471.1 320.91 471.1 319.61L531.2 334.01L533.1 337.61Z" />
		<path id="Layer" class="shp12" d="M610.2 301.41C609.1 305.21 605.2 308.31 601.4 308.31C597.6 308.31 595.4 305.21 596.5 301.41C597.6 297.61 601.5 294.51 605.3 294.51C609.1 294.41 611.3 297.61 610.2 301.41Z" />
		<path id="Layer" class="shp6" d="M73.2 206.01C73.2 206.01 83 203.31 91.6 218.71C100.2 234.11 104.5 262.71 107.2 265.61C109.9 268.51 114.3 270.71 128.5 279.81C142.7 288.91 143.5 289.21 155.8 290.71C168.1 292.21 168.9 296.41 172.7 300.61C176.5 304.81 179.2 307.71 175.6 308.01C172.1 308.31 168.1 303.11 165.8 304.61C163.5 306.11 161.8 307.31 157.7 308.41C153.5 309.41 154.8 311.11 150.9 310.71C147 310.31 139.4 310.51 141.8 308.41C144.1 306.31 141.8 305.81 141.8 305.81C141.8 305.81 99.5 300.11 85.8 289.01C72 277.91 68.5 241.11 65.8 228.91C63 216.61 69.8 206.01 73.2 206.01Z" />
		<path id="Layer" class="shp18" d="M107.2 265.61C107.2 265.61 103.4 265.21 100.7 266.61" />
		<path id="Layer" class="shp5" d="M78 157.31C78 157.31 85.4 150.31 82.5 141.21C79.6 132.01 70.6 131.21 63.3 133.41C56 135.71 36 131.91 28.7 143.01C21.4 154.11 26 164.11 21.4 167.01C16.8 169.91 10.3 172.01 11.4 179.31C12.4 186.61 32 197.21 26 205.61C20 213.91 14.3 233.51 37.5 244.61C60.6 255.71 62.1 229.21 63.6 213.81C65.1 198.41 60.5 180.61 67.1 174.01C73.8 167.21 79.3 163.51 78 157.31Z" />
		<path id="Layer" class="shp5" d="M44.2 202.41C44.2 202.41 70.7 203.01 75.3 205.11C79.9 207.21 82 214.31 83.4 219.71C84.9 225.11 95.3 231.61 97.2 243.51C99.1 255.41 88.9 269.21 88.4 271.41C88 273.71 87.8 296.01 89 300.61C90.3 305.21 92.3 312.71 92.1 316.01C91.9 319.31 77.9 325.81 57.1 324.61C36.3 323.41 14.5 312.91 13.8 310.61C13.2 308.31 20 297.51 18.1 274.91C16.2 252.41 5.4 228.01 13.3 214.61C21.2 201.41 40.2 202.31 44.2 202.41Z" />
		<path id="Layer" class="shp6" d="M43.2 183.41C43.2 183.41 44.3 195.01 44.1 202.41C44.1 202.41 47 208.61 56.1 210.41C67.1 212.71 69.3 206.41 67.8 203.71C67.8 203.71 65.2 194.11 64.9 187.51C64.7 181.11 43.7 182.51 43.2 183.41Z" />
		<path id="Layer" class="shp19" d="M52.2 193.01C56.3 199.41 60.5 202.01 67.7 202.51C67.3 201.11 66.8 198.61 66.2 195.91C60.5 196.61 57.8 194.61 52.2 193.01Z" />
		<path id="Layer" class="shp6" d="M39.4 202.41C39.4 202.41 45.2 206.21 51 214.41C56.7 222.61 64 228.71 69.1 228.11C74.2 227.51 76.6 220.81 70 204.01C70 204.01 54 201.41 39.4 202.41Z" />
		<path id="Layer" class="shp12" d="M133.7 297.01L175.6 294.41C176.1 294.41 176.7 293.31 176.9 293.71C177 293.81 176.9 295.41 176.9 295.51C176.9 295.81 176.8 296.21 176.6 296.41L145 328.81C143.7 330.11 141.9 330.81 140 330.61L98.8 326.51C98.4 326.51 98 326.21 97.9 325.91C97.8 325.71 96.2 323.01 96.3 322.71C96.3 322.41 98.6 322.41 98.9 322.21L130.9 298.11C131.6 297.51 132.6 297.11 133.7 297.01Z" />
		<path id="Layer" class="shp5" d="M133.2 294.41L175.7 292.61C176.8 292.61 177.4 293.91 176.6 294.71L143.9 326.91C142.6 328.21 140.7 328.91 138.8 328.61L97.1 323.51C96 323.41 95.6 322.01 96.5 321.31L130.2 295.41C131 294.81 132.1 294.41 133.2 294.41Z" />
		<path id="Layer" class="shp6" d="M152 292.51C152 292.51 150.9 292.71 150.9 294.81C150.9 296.81 151.7 302.51 149.6 302.91C147.6 303.31 146.6 300.81 145.6 298.61C144.6 296.41 141.6 296.31 139.7 293.11" />
		<path id="Layer" class="shp6" d="M75.4 146.61C75.4 146.61 78.3 154.31 78.6 163.01C78.9 171.81 81.9 176.81 80.2 184.41C78.5 192.11 72.5 197.91 65.1 198.21C57.7 198.51 46.9 191.91 41 184.01C35.1 176.01 33.3 159.61 36.8 151.61C40.1 143.71 66.3 135.41 75.4 146.61Z" />
		<path id="Layer" class="shp5" d="M78.8 155.21C78.8 155.21 74.5 155.71 71.8 151.31C71.8 151.31 65.3 166.31 54.8 167.31C47.6 168.01 46.2 164.61 43.2 167.31C40.2 170.01 48.9 185.61 46.2 198.31C43.5 211.01 30.7 214.51 21.7 206.71C10.4 196.81 22.7 194.91 25 180.91C27.3 167.01 25 156.31 32.4 148.21C39.8 140.11 47.1 135.11 58.8 136.21C70.6 137.31 75.4 139.11 78.8 155.21Z" />
		<path id="Layer" class="shp5" d="M47.9 165.41C47.9 165.41 47.2 170.71 47.5 172.41C47.8 174.11 44.4 170.51 41.3 172.81C39.6 174.11 38 165.91 41.3 163.41C44.5 160.91 46.4 163.01 47.9 165.41Z" />
		<path id="Layer" class="shp6" d="M46 172.51C46 172.51 42.2 167.61 38.1 170.61C34 173.71 39.3 182.71 45.5 182.01" />
		<path id="Layer" class="shp6" d="M130.1 319.91C130.1 319.91 135.8 324.61 138 326.21C140.1 327.81 138.8 329.21 136.4 329.21C133.9 329.31 126.1 322.91 130.1 319.91Z" />
		<path id="Layer" class="shp6" d="M16.8 210.51C14.4 211.61 12.5 213.51 11.2 215.81C8.8 220.31 5.4 229.11 7.9 240.51C11.6 257.41 20.3 282.81 24.2 288.81C28.1 294.81 46.4 306.81 59.3 314.81C72.2 322.81 82.1 327.21 84.5 329.01C87 330.81 91.7 335.41 100.8 336.51C110 337.61 112.9 334.31 115.7 335.01C118.6 335.71 123.2 338.91 125.8 338.61C128.4 338.21 127 336.31 126 335.31C125 334.31 119.1 329.01 119.1 329.01C119.1 329.01 122.7 330.51 127.9 333.61C132.3 336.21 134.4 336.31 135.6 336.21C136.8 336.21 138.2 335.71 138 334.61C138 334.61 139.2 335.31 140.2 334.41C141.2 333.51 141.5 332.71 139.1 330.01C136.6 327.31 130.6 320.21 127.6 317.11C124.5 313.91 121.1 313.71 113.7 314.11C106.3 314.41 95.9 312.91 95.6 313.21C95.3 313.51 63.5 279.81 53.9 270.21C53.9 270.21 46.2 245.11 43.9 234.31C39.2 212.61 27.8 205.31 16.8 210.51Z" />
		<path id="Layer" class="shp18" d="M138 334.71C138 334.71 138 333.51 135 331.41C132 329.41 127.3 324.81 125.8 323.71C124.3 322.51 122.5 321.21 122.2 321.21" />
		<path id="Layer" class="shp18" d="M119.1 329.11C119.1 329.11 116.8 327.11 115.7 327.41" />
		<path id="Layer" class="shp18" d="M53.9 270.21C53.9 270.21 49.2 269.71 45.5 273.51" />
		<path id="Layer" class="shp5" d="M74.9 168.31C75.6 169.21 76.2 170.11 76.8 170.91C77.1 171.31 77.4 171.71 77.8 172.01C78 172.21 78.1 172.31 78.3 172.51L78.6 172.71C78.7 172.81 78.9 172.91 79 173.11C79.5 173.71 79.7 174.51 79.7 175.21C79.7 175.91 79.4 176.51 79.1 177.01C78.5 178.01 77.6 178.91 76.4 179.21C77.1 178.31 77.5 177.41 77.8 176.41C78.1 175.51 78 174.61 77.6 174.21C77.6 174.11 77.5 174.11 77.4 174.01C77.3 173.91 77.2 173.81 77 173.71C76.8 173.51 76.5 173.21 76.4 173.01C76 172.51 75.7 172.01 75.5 171.51C75.2 170.61 74.9 169.51 74.9 168.31Z" />
		<path id="Layer" class="shp7" d="M71.8 186.31C71.8 186.31 68.9 187.21 66.3 184.51" />
		<path id="Layer" class="shp5" d="M65 172.91C65.9 172.81 66.5 171.91 66.3 171.01L66.1 170.11C66 169.21 65.1 168.61 64.2 168.81C63.3 168.91 62.7 169.81 62.9 170.71L63.1 171.61C63.3 172.41 64.1 173.01 65 172.91Z" />
		<path id="Layer" class="shp5" d="M77.2 170.91C78.1 170.81 78.7 169.91 78.5 169.01L78.3 168.11C78.2 167.21 77.3 166.61 76.4 166.81C75.5 166.91 74.9 167.81 75.1 168.71L75.3 169.61C75.5 170.41 76.3 171.11 77.2 170.91Z" />
		<path id="Layer" class="shp5" d="M64.1 162.51C65 162.61 65.7 161.81 65.6 160.91C65.5 160.11 65.3 159.31 64.9 158.81C64 157.81 60.5 158.11 57.9 160.11C55.2 162.11 54.2 164.71 55.5 164.81C56.8 164.91 58.7 163.21 60.8 162.71C61.8 162.31 63.1 162.41 64.1 162.51Z" />
		<path id="Layer" class="shp5" d="M77.2 161.01C76.8 161.31 76.3 161.01 76.2 160.61C76 159.81 75.8 158.61 76.1 158.31C76.6 157.71 78.1 158.11 78.4 159.01C78.7 159.91 78.8 160.41 78.5 160.41C78.3 160.31 77.7 160.61 77.2 161.01Z" />
		<path id="Layer" class="shp5" d="M39.7 175.11C39.4 174.81 39.3 174.41 39.3 173.91C39.3 173.71 39.4 173.41 39.6 173.11C39.8 172.81 40 172.71 40.3 172.51C40.4 172.51 40.5 172.41 40.7 172.41C40.9 172.41 41.2 172.41 41.4 172.51C41.8 172.71 42 173.01 42.1 173.21C42.4 173.61 42.5 174.01 42.7 174.41C43 175.11 43.1 175.81 43.3 176.31C43.4 176.61 43.5 176.81 43.7 177.01C43.9 177.21 44.3 177.31 44.7 177.31C44.4 177.61 44 177.81 43.5 177.81C43 177.81 42.5 177.51 42.2 177.11C41.6 176.41 41.3 175.61 41 175.01C40.9 174.71 40.8 174.31 40.7 174.11C40.7 174.01 40.6 173.91 40.7 173.91L40.8 173.91L40.7 173.91C40.5 173.91 40.4 173.91 40.2 174.11C39.9 174.31 39.8 174.71 39.7 175.11Z" />
		<path id="Layer" class="shp6" d="M322.4 113.21L287.2 113.21L283.6 115.51C282.5 116.21 280.9 115.41 280.9 114.11L280.9 89.21C280.9 86.71 282.9 84.61 285.5 84.61L322.3 84.61C324.8 84.61 326.9 86.61 326.9 89.21L326.9 108.61C326.9 111.21 324.9 113.21 322.4 113.21Z" />
		<path id="Layer" class="shp7" d="M291.4 104.01L294.9 100.51C296.8 98.61 299.8 98.61 301.7 100.51C303.6 102.41 306.6 102.41 308.5 100.51L315.2 93.81" />
		<path id="Layer" class="shp5" d="M316.3 95.81L317.5 91.51L313.2 92.71L316.3 95.81Z" />
		<path id="Layer" class="shp5" d="M280.9 331.01L280.9 331.31C280.9 332.31 280.1 333.11 279.1 333.11L194.3 333.11C193.3 333.11 192.5 332.31 192.5 331.31C192.5 330.71 192.8 330.11 193.2 329.61L209.6 313.41C210.4 312.61 211.4 312.21 212.4 312.21L268.1 312.21C269.5 312.21 270.9 313.01 271.6 314.21L280.6 329.71C280.7 330.21 280.9 330.61 280.9 331.01Z" />
		<path id="Layer" class="shp12" d="M238.6 326.71C238.6 327.01 238 327.31 237.2 327.31C236.4 327.31 235.8 327.01 235.8 326.71C235.8 326.41 236.4 326.11 237.2 326.11C238 326.11 238.6 326.41 238.6 326.71Z" />
		<path id="Layer" class="shp3" d="M575.7 419.91C575.7 419.91 568 403.41 587.3 393.01C606.6 382.61 633.4 392.91 631 396.51C629.5 398.71 625.6 405.11 618.3 413.01C612.2 419.71 594.7 430.11 575.7 419.91Z" />
		<path id="Layer" class="shp7" d="M627.6 395.81C627.6 395.81 585.2 386.31 575.6 419.91C566.1 453.51 569 485.71 569 485.71" />
		<path id="Layer" class="shp5" d="M537.5 457.71L544.4 539.01C544.4 542.11 557 544.51 572.6 544.51C588.1 544.51 600.8 542.01 600.8 539.01L607.7 457.71L537.5 457.71Z" />
		<path id="Layer" class="shp3" d="M572.6 463.01C591.93 463.01 607.6 460.64 607.6 457.71C607.6 454.79 591.93 452.41 572.6 452.41C553.27 452.41 537.6 454.79 537.6 457.71C537.6 460.64 553.27 463.01 572.6 463.01Z" />
		<path id="Layer" class="shp3" d="M563.7 440.81C563.7 440.81 552.4 435.21 545.1 447.81C537.8 460.51 543.2 479.41 548.2 482.21C553.2 485.01 574 475.51 574 456.41C574 439.41 563.7 440.81 563.7 440.81Z" />
		<path id="Layer" class="shp7" d="M563.7 440.81C563.7 440.81 552.4 440.01 549 479.61" />
		<path id="Layer" class="shp3" d="M555.1 417.71C555.1 417.71 543.2 399.21 519.4 411.11C495.6 423.01 496.3 455.81 500 457.71C503.8 459.61 559.4 440.21 555.1 417.71Z" />
		<path id="Layer" class="shp7" d="M574 456.41C574 456.41 566.6 430.41 555.1 417.61C543.5 404.81 507.9 419.51 501.6 450.41" />
		<path id="Layer" class="shp3" d="M587.3 428.11C587.3 428.11 577.2 424.61 572.6 437.11C568.1 449.31 573.4 477.11 599.4 485.51C600.8 485.91 602.3 485.51 603.2 484.41C606.4 480.71 613.1 471.01 613.1 456.41C613 436.11 601.8 421.41 587.3 428.11Z" />
		<path id="Layer" class="shp7" d="M587.3 428.11C587.3 428.11 608.3 438.41 600.6 481.71" />
		<path id="Layer" class="shp3" d="M374.6 294.31C374.6 294.31 375 306.91 393.2 308.11C411.3 309.41 446.6 305.31 453.5 303.41C460.4 301.51 460 290.41 455.6 287.31C451.2 284.21 424.8 282.81 411.3 280.81C408.2 280.31 404.6 279.71 400.9 279.41C397.7 279.11 394.5 278.91 391.4 279.01C382.3 279.41 374.7 282.91 374.6 294.31Z" />
		<path id="Layer" class="shp7" d="M374.4 290.81C374.4 290.81 374.4 288.21 378.3 288.91C386.8 290.51 394 308.81 385.3 306.51" />
		<path id="Layer" class="shp7" d="M411.2 280.81C408.1 280.31 404.5 279.71 400.8 279.41C397.6 279.11 394.4 278.91 391.3 279.01" />
		<path id="Layer" class="shp3" d="M500.5 222.41C503.8 223.51 506.2 226.11 510.4 238.81C515.9 255.41 522.9 290.61 519.3 300.11C515.7 309.61 508.5 314.51 484.3 315.61C460.1 316.71 436.6 314.81 433.5 314.81C430.4 314.81 425.2 303.41 428.5 295.91C428.5 295.91 449 290.91 460.6 287.81C472.2 284.71 485 281.41 490.3 280.81C490.3 280.81 481.7 259.71 478.9 252.31C476.1 244.91 478.4 232.31 485 226.61C491.5 221.01 497.7 221.51 500.5 222.41Z" />
		<path id="Layer" class="shp7" d="M490.2 280.81C490.2 280.81 500.1 278.81 506 280.81" />
		<path id="Layer" class="shp7" d="M520.3 294.31C520.3 294.31 518.2 289.31 509.7 294.91C503 299.31 501 312.51 508.3 311.71" />
		<path id="Layer" class="shp6" d="M430.5 296.11C430.5 296.11 425.2 296.61 419.8 296.61C414.4 296.61 407.1 297.51 405.4 298.31C403.7 299.01 386.5 316.31 386.9 318.61C387.2 320.91 390.5 319.41 393.3 317.51C396 315.51 401.3 310.41 402.4 309.71C402.4 309.71 401 312.91 399.7 317.71C398.4 322.51 397.1 327.31 398.4 328.11C400.1 329.11 401.7 327.41 402.2 326.41C402.2 326.41 402.1 328.91 404.1 329.01C406.1 329.11 408 325.31 409.6 322.11C411.3 318.91 414.7 314.71 414.7 314.71C414.7 314.71 413.1 319.81 412.5 322.61C411.9 325.41 411.5 328.71 413 329.01C415.3 329.51 417.4 322.71 418.7 320.11C420.1 317.41 425.1 319.21 428.8 316.91C432.6 314.51 434.6 313.91 434.6 313.91C434.6 313.91 437.1 311.41 437.1 306.01C437.1 300.51 432.6 295.91 430.5 296.11Z" />
		<path id="Layer" class="shp15" d="M402 326.51C402 326.51 406.8 312.51 408.8 309.81C410.8 307.11 411.5 306.91 412.1 306.51" />
		<path id="Layer" class="shp15" d="M402.2 309.81C402.2 309.81 403 308.21 404.3 305.81C405 304.61 406.5 303.41 406.5 303.41" />
		<path id="Layer" class="shp15" d="M414.5 314.71C414.5 314.71 415.9 311.31 417.3 310.91" />
		<path id="Layer" class="shp6" d="M446.4 285.91C446.4 285.91 450.4 284.61 454.1 282.91C457.8 281.21 459.3 280.51 462.2 280.31C465.1 280.01 474.2 280.01 475.5 280.81C476.8 281.61 478.5 285.41 479.4 287.31C480.3 289.21 477.4 296.71 477.4 296.71C477.4 296.71 478.7 303.31 477.1 304.01C476.1 304.41 475.2 304.21 473.9 300.71C473.9 300.71 474.8 303.71 473 303.91C471.2 304.11 469.2 298.91 467.9 296.61C466.6 294.31 464.1 291.41 464.1 291.41C464.1 291.41 465.2 295.01 465.4 296.21C465.6 297.51 466.4 300.51 465.9 301.71C465.4 302.91 463.6 301.31 461.8 297.21C460 293.11 459.4 291.71 458.3 291.81C452.1 292.41 452.5 291.01 449.5 290.81L442.9 292.51C442.8 292.41 442.1 288.41 446.4 285.91Z" />
		<path id="Layer" class="shp15" d="M473.9 300.61C473.9 300.61 471.9 294.11 471.2 292.11C470.5 290.21 468.2 286.61 468.2 286.61" />
		<path id="Layer" class="shp15" d="M477.4 296.61C477.4 296.61 476.2 289.61 475.7 287.91C475.2 286.31 474.4 284.81 474.4 284.81" />
		<path id="Layer" class="shp15" d="M464 291.31C464 291.31 463.4 289.31 463.1 288.71" />
	</g>
</svg>