<svg version="1.2" baseProfile="tiny-ps" xmlns="http://www.w3.org/2000/svg" viewBox="0 0 133 130" width="133" height="130">
	<title>tab</title>
	<style>
		tspan { white-space:pre }
		.shp0 { fill: #63737a } 
		.shp1 { fill: #22272e } 
		.shp2 { fill: #2a87db } 
		.shp3 { fill: #ffecd6 } 
		.shp4 { fill: #d4f0fc } 
		.shp5 { fill: none;stroke: #63737a;stroke-linecap:round;stroke-linejoin:round;stroke-width: 1.8 } 
	</style>
	<g id="tab">
		<path id="Layer" class="shp0" d="M101.4 129.41L9.2 118.61C6.5 118.31 4.9 115.91 5.5 113.21L26.8 15.81C27.3 13.51 29.5 11.61 31.9 11.31L128.1 1.21C130.6 0.91 132.5 2.91 132 5.31L106.5 125.71C105.9 128.01 103.7 129.71 101.4 129.41Z" />
		<path id="Layer" class="shp1" d="M97.7 129.41L4.7 118.51C2 118.21 0.3 115.81 0.9 113.11L22.4 15.01C22.9 12.61 25.1 10.71 27.6 10.51L124.5 0.31C127 0.01 128.9 2.01 128.4 4.41L102.6 125.81C102.2 128.01 99.9 129.71 97.7 129.41Z" />
		<path id="Layer" class="shp2" d="M63.4 35.31L28.4 37.01C27.5 37.01 26.8 36.31 27 35.41L29.8 22.41C30 21.71 30.6 21.11 31.4 21.01L66.7 18.01C67.7 17.91 68.3 18.71 68.1 19.61L65 34.01C64.9 34.61 64.2 35.21 63.4 35.31Z" />
		<path id="Layer" class="shp3" d="M17.1 108.21C16.3 108.11 15.8 107.41 16 106.71L21.2 82.31C21.4 81.51 22.1 80.91 22.9 81.01C23.7 81.11 24.2 81.71 24 82.51L18.8 107.01C18.7 107.71 17.9 108.31 17.1 108.21Z" />
		<path id="Layer" class="shp4" d="M29.5 107.91L35.7 79.11C35.9 78.31 36.6 77.71 37.4 77.81L37.6 77.81C38.4 77.81 38.9 78.51 38.8 79.31L32.6 108.11C32.4 108.91 31.6 109.51 30.8 109.41L30.6 109.41C29.8 109.41 29.3 108.71 29.5 107.91Z" />
		<path id="Layer" class="shp2" d="M43 109.01L50 76.11C50.2 75.21 51 74.61 51.9 74.61C52.8 74.61 53.4 75.41 53.2 76.31L46.2 109.21C46 110.11 45.1 110.71 44.2 110.71C43.4 110.71 42.8 109.91 43 109.01Z" />
		<path id="Layer" class="shp2" d="M93 46.91L95.3 51.81C92.5 55.01 89.1 57.01 85.9 57.01C79.7 57.01 76.4 49.51 78.4 40.21C80.4 30.91 87 23.01 93.3 22.51C96.6 22.21 99.1 23.91 100.6 26.91L96.2 32.11C95.3 30.31 93.8 29.21 91.9 29.41C88.1 29.71 84.1 34.41 82.8 40.11C81.6 45.71 83.6 50.31 87.4 50.21C89.4 50.01 91.4 48.81 93 46.91Z" />
		<path id="Layer" class="shp4" d="M101.6 39.11C100.5 44.01 98.2 48.51 95.4 51.71L93.1 46.81C94.8 44.91 96.2 42.21 96.8 39.31C97.4 36.41 97.2 33.81 96.3 32.01L100.7 26.81C102.2 29.91 102.6 34.21 101.6 39.11Z" />
		<path id="Layer" class="shp2" d="M66.3 95.41C64.3 104.71 67.6 112.21 73.8 112.21C77 112.21 80.4 110.21 83.2 107.01L80.9 102.11C79.2 104.01 77.2 105.21 75.3 105.31C71.5 105.41 69.5 100.81 70.7 95.21C71.2 92.71 72.4 90.31 73.8 88.51L71.7 83.91C69.2 87.11 67.2 91.11 66.3 95.41Z" />
		<path id="Layer" class="shp4" d="M79.8 84.61C81.7 84.51 83.3 85.51 84.1 87.31L88.5 82.11C87 79.11 84.4 77.41 81.2 77.71C77.8 78.01 74.4 80.41 71.6 83.91L73.7 88.51C75.5 86.31 77.6 84.71 79.8 84.61Z" />
		<path id="Layer" class="shp3" d="M89.4 94.51C88.3 99.41 86 103.91 83.2 107.11L80.9 102.21C82.6 100.31 84 97.61 84.6 94.71C85.2 91.81 85 89.21 84.1 87.41L88.5 82.21C90 85.21 90.5 89.61 89.4 94.51Z" />
		<path id="Layer" class="shp5" d="M25.8 45.71L50.4 44.81" />
		<path id="Layer" class="shp5" d="M24.4 51.31L59.6 50.91" />
		<path id="Layer" class="shp5" d="M23.3 57.11L58.9 57.11" />
		<path id="Layer" class="shp0" d="M115.3 10.01C115.5 9.21 115.2 8.61 114.6 8.61C114 8.71 113.4 9.41 113.3 10.21C113.1 11.01 113.4 11.61 114 11.61C114.6 11.51 115.2 10.81 115.3 10.01Z" />
		<path id="Layer" class="shp0" d="M121.1 9.51C121.3 8.71 120.9 8.11 120.4 8.11C119.8 8.21 119.2 8.91 119 9.71C118.8 10.51 119.2 11.11 119.7 11.11C120.4 11.01 121 10.31 121.1 9.51Z" />
	</g>
</svg>