<svg version="1.2" baseProfile="tiny-ps" xmlns="http://www.w3.org/2000/svg" viewBox="0 0 161 106" width="161" height="106">
	<title>tab2</title>
	<style>
		tspan { white-space:pre }
		.shp0 { fill: #f8ab5d } 
		.shp1 { fill: #d4f0fc } 
		.shp2 { fill: none;stroke: #f8ab5d;stroke-linecap:round;stroke-linejoin:round;stroke-width: 1.8 } 
		.shp3 { fill: #2a87db } 
		.shp4 { fill: #ffecd6 } 
	</style>
	<g id="tab2">
		<path id="Layer" class="shp0" d="M142.4 105.81L7.8 100.31C4.9 100.21 2.9 97.51 3.3 94.21L14.3 13.31C14.7 10.11 17.5 7.51 20.4 7.31L155 1.81C158.7 1.61 161.3 4.41 160.9 8.01L149.9 99.31C149.5 103.11 146.1 106.01 142.4 105.81Z" />
		<path id="Layer" class="shp1" d="M140.1 104.11L5.5 98.61C2.6 98.51 0.6 95.81 1 92.51L12 11.61C12.4 8.41 15.2 5.81 18.1 5.61L152.7 0.11C156.4 -0.09 159 2.71 158.6 6.31L147.6 97.61C147.2 101.41 143.8 104.21 140.1 104.11Z" />
		<path id="Layer" class="shp2" d="M33.2 51.91L68.8 51.91" />
		<path id="Layer" class="shp2" d="M65 81.21L45.8 80.71C42.8 80.61 40.8 78.01 41.2 74.91L47.3 29.01C47.7 25.91 50.4 23.31 53.4 23.21L72.6 22.71" />
		<path id="Layer" class="shp3" d="M93.6 28.01L71.3 28.41C70 28.41 69.2 27.41 69.3 26.11L70.2 19.41C70.4 18.11 71.5 17.01 72.8 17.01L95.1 16.31C96.4 16.31 97.3 17.31 97.2 18.61L96.3 25.41C96.1 26.91 94.9 28.01 93.6 28.01Z" />
		<path id="Layer" class="shp3" d="M132 57.91L108.1 57.81C106.8 57.81 105.8 56.71 106 55.31L106.9 48.31C107.1 46.91 108.3 45.81 109.6 45.81L133.5 45.71C134.9 45.71 135.9 46.81 135.7 48.21L134.8 55.31C134.7 56.81 133.4 57.91 132 57.91Z" />
		<path id="Layer" class="shp3" d="M86.1 87.61L63.8 87.01C62.5 87.01 61.7 85.91 61.8 84.61L62.7 77.81C62.9 76.51 64 75.41 65.3 75.51L87.6 75.91C88.9 75.91 89.8 77.01 89.7 78.41L88.8 85.31C88.6 86.61 87.4 87.61 86.1 87.61Z" />
		<path id="Layer" class="shp2" d="M93 51.81L106.5 51.81" />
		<path id="Layer" class="shp4" d="M89.9 57.71L67.6 57.61C66.3 57.61 65.5 56.51 65.6 55.21L66.5 48.51C66.7 47.21 67.8 46.11 69.1 46.11L91.4 46.01C92.7 46.01 93.6 47.11 93.5 48.41L92.6 55.31C92.4 56.61 91.2 57.71 89.9 57.71Z" />
		<path id="Layer" class="shp3" d="M33.2 51.91C33.7 48.21 31.3 45.31 27.9 45.31C24.5 45.31 21.4 48.31 20.9 51.91C20.4 55.51 22.7 58.51 26.1 58.51C29.5 58.51 32.7 55.61 33.2 51.91Z" />
	</g>
</svg>