<svg width="138" height="26" viewBox="0 0 138 26" fill="none" xmlns="http://www.w3.org/2000/svg">
<rect y="7.17241" width="1" height="12.5517" fill="#222222"/>
<rect x="42" y="7.17241" width="1" height="12.5517" fill="#222222"/>
<rect x="80.5" y="6.27586" width="1" height="12.5517" fill="#222222"/>
<rect x="3.5" y="7.17241" width="1" height="12.5517" fill="#222222"/>
<rect x="45.5" y="7.17241" width="1" height="12.5517" fill="#222222"/>
<rect x="84" y="6.27586" width="1" height="12.5517" fill="#222222"/>
<rect x="7" y="7.17241" width="1" height="12.5517" fill="#222222"/>
<rect x="49" y="7.17241" width="1" height="12.5517" fill="#222222"/>
<rect x="126" y="6.27586" width="1" height="12.5517" fill="#222222"/>
<rect x="87.5" y="6.27586" width="1" height="12.5517" fill="#222222"/>
<rect x="10.5" y="6.27586" width="1" height="14.3448" fill="#222222"/>
<rect x="38.5" y="6.27586" width="1" height="14.3448" fill="#222222"/>
<rect x="52.5" y="6.27586" width="1" height="14.3448" fill="#222222"/>
<rect x="129.5" y="6.27586" width="1" height="12.5517" fill="#222222"/>
<rect x="14" y="5.37931" width="1" height="16.1379" fill="#222222"/>
<rect x="35" y="5.37931" width="1" height="16.1379" fill="#222222"/>
<rect x="56" y="5.37931" width="1" height="16.1379" fill="#222222"/>
<rect x="133" y="6.27586" width="1" height="12.5517" fill="#222222"/>
<rect x="91" y="4.48276" width="1" height="16.1379" fill="#222222"/>
<rect x="108.5" y="4.48276" width="1" height="16.1379" fill="#222222"/>
<rect x="77" y="5.37931" width="1" height="16.1379" fill="#222222"/>
<rect x="17.5" y="2.68966" width="1" height="21.5172" fill="#222222"/>
<rect x="73.5" y="2.68966" width="1" height="21.5172" fill="#222222"/>
<rect x="31.5" y="2.68966" width="1" height="21.5172" fill="#222222"/>
<rect x="59.5" y="2.68966" width="1" height="21.5172" fill="#222222"/>
<rect x="136.5" y="6.27586" width="1" height="12.5517" fill="#222222"/>
<rect x="94.5" y="1.7931" width="1" height="21.5172" fill="#222222"/>
<rect x="112" y="1.7931" width="1" height="21.5172" fill="#222222"/>
<rect x="21" y="1.7931" width="1" height="23.3103" fill="#222222"/>
<rect x="24.5" y="0.896553" width="1" height="25.1034" fill="#222222"/>
<rect x="66.5" y="0.896553" width="1" height="25.1034" fill="#222222"/>
<rect x="101.5" width="1" height="25.1034" fill="#222222"/>
<rect x="119" y="3.58621" width="1" height="17.931" fill="#222222"/>
<rect x="28" y="1.7931" width="1" height="23.3103" fill="#222222"/>
<rect x="70" y="1.7931" width="1" height="23.3103" fill="#222222"/>
<rect x="105" y="0.896553" width="1" height="23.3103" fill="#222222"/>
<rect x="122.5" y="2.68966" width="1" height="19.7241" fill="#222222"/>
<rect x="63" y="1.7931" width="1" height="23.3103" fill="#222222"/>
<rect x="98" y="0.896553" width="1" height="23.3103" fill="#222222"/>
<rect x="115.5" y="0.896553" width="1" height="23.3103" fill="#222222"/>
</svg>
