<svg width="14" height="16" viewBox="0 0 14 16" fill="none" xmlns="http://www.w3.org/2000/svg">
<path d="M0.731948 0.153923H13.268C13.4846 0.153923 13.6603 0.329672 13.6603 0.546241V15.4539C13.6603 15.6705 13.4846 15.8463 13.268 15.8463H0.731948C0.51538 15.8463 0.33963 15.6705 0.33963 15.4539V0.546241C0.33963 0.329672 0.51538 0.153923 0.731948 0.153923ZM3.10362 3.4514C2.58771 3.4514 2.58771 2.66676 3.10362 2.66676H7.16929C7.68539 2.66676 7.68539 3.4514 7.16929 3.4514H3.10362ZM6.83064 13.3334C6.31454 13.3334 6.31454 12.5488 6.83064 12.5488H10.8963C11.4122 12.5488 11.4122 13.3334 10.8963 13.3334H6.83064ZM3.10362 8.02542C2.58771 8.02542 2.58771 7.24078 3.10362 7.24078H7.16929C7.68539 7.24078 7.68539 8.02542 7.16929 8.02542H3.10362ZM3.10362 5.73841C2.58771 5.73841 2.58771 4.95377 3.10362 4.95377H7.16929C7.68539 4.95377 7.68539 5.73841 7.16929 5.73841H3.10362ZM12.8757 0.938559H1.12427V15.0616H12.8757V0.938559Z" fill="black"/>
</svg>
