<svg width="18" height="18" viewBox="0 0 18 18" fill="none" xmlns="http://www.w3.org/2000/svg">
<path d="M8.99986 0.17424C13.8742 0.17424 17.8258 4.12584 17.8258 9.00012C17.8258 13.8744 13.8742 17.826 8.99986 17.826C4.12556 17.826 0.17395 13.8744 0.17395 9.00012C0.17395 4.12584 4.12556 0.17424 8.99986 0.17424ZM1.06879 8.55876H2.93946C3.0177 6.23993 3.7499 3.69532 5.34228 1.94732C2.8557 3.2393 1.22271 5.74819 1.06879 8.55876ZM3.8226 8.55876H5.58379C5.62227 6.44275 5.96753 3.51653 7.06158 1.63693C4.85648 3.01075 3.91041 6.11131 3.8226 8.55876ZM6.46651 8.55876H11.5332C11.5083 7.22512 10.9379 1.05674 8.99986 1.05674C7.06179 1.05674 6.49138 7.22512 6.46651 8.55876ZM12.4159 8.55876H14.1771C14.0893 6.11131 13.1432 3.01075 10.9381 1.63693C12.0322 3.51653 12.3774 6.44275 12.4159 8.55876ZM15.0603 8.55876H16.9309C16.777 5.74798 15.144 3.23951 12.6574 1.94732C14.25 3.69617 14.982 6.23908 15.0603 8.55876ZM16.9309 9.44148H15.0603C14.982 11.7612 14.25 14.3041 12.6574 16.0529C15.144 14.7607 16.777 12.2523 16.9309 9.44148ZM14.1771 9.44148H12.4159C12.3774 11.5575 12.0322 14.4837 10.9381 16.3633C13.1432 14.9895 14.0893 11.8889 14.1771 9.44148ZM11.5332 9.44148H6.46651C6.49138 10.7751 7.06179 16.9435 8.99986 16.9435C10.9379 16.9435 11.5083 10.7751 11.5332 9.44148ZM5.58379 9.44148H3.8226C3.91041 11.8889 4.85648 14.9895 7.06158 16.3633C5.96753 14.4837 5.62227 11.5575 5.58379 9.44148ZM2.93946 9.44148H1.06879C1.22271 12.2523 2.8557 14.7607 5.34228 16.0529C3.74968 14.3045 3.0177 11.7607 2.93946 9.44148Z" fill="black"/>
</svg>
