<svg width="22" height="22" viewBox="0 0 22 22" fill="none" xmlns="http://www.w3.org/2000/svg">
<path d="M16.8438 19.25H5.15625C4.88275 19.25 4.62044 19.1413 4.42705 18.948C4.23365 18.7546 4.125 18.4923 4.125 18.2188V8.59375C4.125 8.32025 4.23365 8.05794 4.42705 7.86455C4.62044 7.67115 4.88275 7.5625 5.15625 7.5625H16.8438C17.1173 7.5625 17.3796 7.67115 17.573 7.86455C17.7663 8.05794 17.875 8.32025 17.875 8.59375V18.2188C17.875 18.4923 17.7663 18.7546 17.573 18.948C17.3796 19.1413 17.1173 19.25 16.8438 19.25ZM5.15625 8.25C5.06508 8.25 4.97765 8.28622 4.91318 8.35068C4.84872 8.41515 4.8125 8.50258 4.8125 8.59375V18.2188C4.8125 18.3099 4.84872 18.3974 4.91318 18.4618C4.97765 18.5263 5.06508 18.5625 5.15625 18.5625H16.8438C16.9349 18.5625 17.0224 18.5263 17.0868 18.4618C17.1513 18.3974 17.1875 18.3099 17.1875 18.2188V8.59375C17.1875 8.50258 17.1513 8.41515 17.0868 8.35068C17.0224 8.28622 16.9349 8.25 16.8438 8.25H5.15625Z" fill="#222222"/>
<path d="M11 16.1562C10.6393 16.1562 10.2877 16.0427 9.99503 15.8318C9.70239 15.6209 9.48353 15.3232 9.36945 14.981C9.25538 14.6388 9.25187 14.2694 9.35943 13.925C9.46699 13.5807 9.68016 13.2789 9.96875 13.0625V11.6875C9.96875 11.414 10.0774 11.1517 10.2708 10.9583C10.4642 10.7649 10.7265 10.6563 11 10.6562C11.2735 10.6563 11.5358 10.7649 11.7292 10.9583C11.9226 11.1517 12.0312 11.414 12.0312 11.6875V13.0625C12.3198 13.2789 12.533 13.5807 12.6406 13.925C12.7481 14.2694 12.7446 14.6388 12.6305 14.981C12.5165 15.3232 12.2976 15.6209 12.005 15.8318C11.7123 16.0427 11.3607 16.1562 11 16.1562ZM11 11.3438C10.9088 11.3438 10.8214 11.38 10.7569 11.4444C10.6925 11.5089 10.6562 11.5963 10.6562 11.6875V13.2516C10.6565 13.3121 10.6407 13.3717 10.6105 13.4242C10.5804 13.4767 10.5368 13.5203 10.4844 13.5506C10.3285 13.6406 10.1989 13.7698 10.1085 13.9254C10.018 14.081 9.96984 14.2575 9.96875 14.4375C9.96875 14.711 10.0774 14.9733 10.2708 15.1667C10.4642 15.3601 10.7265 15.4688 11 15.4688C11.2735 15.4688 11.5358 15.3601 11.7292 15.1667C11.9226 14.9733 12.0312 14.711 12.0312 14.4375C12.0302 14.2575 11.982 14.081 11.8915 13.9254C11.8011 13.7698 11.6715 13.6406 11.5156 13.5506C11.4632 13.5203 11.4196 13.4767 11.3895 13.4242C11.3593 13.3717 11.3435 13.3121 11.3438 13.2516V11.6875C11.3438 11.5963 11.3075 11.5089 11.2431 11.4444C11.1786 11.38 11.0912 11.3438 11 11.3438Z" fill="#222222"/>
<path d="M14.4375 8.25H7.5625C7.47133 8.25 7.3839 8.21378 7.31943 8.14932C7.25497 8.08485 7.21875 7.99742 7.21875 7.90625V6.1875C7.21875 5.18465 7.61713 4.22287 8.32625 3.51375C9.03537 2.80463 9.99715 2.40625 11 2.40625C12.0028 2.40625 12.9646 2.80463 13.6737 3.51375C14.3829 4.22287 14.7812 5.18465 14.7812 6.1875V7.90625C14.7812 7.99742 14.745 8.08485 14.6806 8.14932C14.6161 8.21378 14.5287 8.25 14.4375 8.25ZM7.90625 7.5625H14.0938V6.1875C14.0938 5.36699 13.7678 4.58008 13.1876 3.99989C12.6074 3.4197 11.8205 3.09375 11 3.09375C10.1795 3.09375 9.39258 3.4197 8.81239 3.99989C8.2322 4.58008 7.90625 5.36699 7.90625 6.1875V7.5625Z" fill="#222222"/>
</svg>
