<svg width="20" height="18" viewBox="0 0 20 18" fill="none" xmlns="http://www.w3.org/2000/svg">
<path d="M19.414 1.9886C19.4229 1.45477 19.2296 0.962549 18.8697 0.602649C18.6744 0.407399 18.3578 0.407399 18.1626 0.602674C17.9673 0.797949 17.9673 1.11452 18.1626 1.30977C18.3291 1.47632 18.4185 1.71145 18.4141 1.97187C18.41 2.22032 18.3159 2.46022 18.1626 2.6136C17.8444 2.93172 14.6733 5.71574 12.1967 7.88194L11.5897 7.27499C13.3977 5.20632 15.6414 2.6484 16.519 1.67715L16.7186 1.87682C16.9139 2.0721 17.2305 2.07212 17.4257 1.87687C17.621 1.68162 17.6211 1.36505 17.4258 1.16977L16.8588 0.602699C16.765 0.508924 16.6378 0.456224 16.5052 0.456224H16.5052C16.3726 0.456224 16.2454 0.508899 16.1517 0.602649C15.8474 0.906899 13.9862 3.02077 12.3069 4.93717C11.8552 4.25359 11.252 3.66554 10.5345 3.21414C9.48577 2.55437 8.26312 2.21985 6.90044 2.21985C6.60066 2.21985 6.30409 2.23875 6.01901 2.27607C5.74519 2.31192 5.55229 2.56292 5.58811 2.83675C5.62396 3.11055 5.87494 3.30345 6.14876 3.26762C6.39099 3.23592 6.64389 3.21985 6.90042 3.21985C8.97527 3.21985 10.7157 4.15004 11.6183 5.72349C10.7761 6.68586 10.0525 7.51476 9.70352 7.91471C9.08057 7.99959 8.61574 8.25451 8.28799 8.69166C7.98327 9.09809 7.84969 9.58349 7.70829 10.0974C7.53779 10.717 7.36149 11.3578 6.85871 11.8605C6.71569 12.0035 6.67291 12.2186 6.75031 12.4054C6.82771 12.5923 7.01004 12.7141 7.21227 12.7141C8.55789 12.7141 9.62442 12.4273 10.3822 11.8616C11.0652 11.3519 11.4722 10.6281 11.5685 9.75901C12.8568 8.63384 18.4076 3.78274 18.8697 3.3207C19.2071 2.98332 19.4055 2.49777 19.414 1.9886ZM11.4421 8.54164C11.2919 8.67291 11.1462 8.80016 11.0062 8.92244L10.5497 8.46594C10.6718 8.32591 10.7991 8.18014 10.9303 8.02984L11.4421 8.54164ZM9.78407 11.0603C9.39077 11.3539 8.86737 11.5495 8.22134 11.6453C8.44117 11.2033 8.56449 10.7551 8.67247 10.3627C8.90422 9.52046 9.04537 9.09776 9.61642 8.94691L10.5396 9.87011C10.438 10.3616 10.1851 10.7609 9.78407 11.0603Z" fill="#222222"/>
<path d="M4.45779 3.74878C4.53062 3.74878 4.60459 3.73278 4.67457 3.69905C4.71944 3.6774 4.76554 3.65613 4.81154 3.63585C5.06417 3.52433 5.17857 3.22913 5.06704 2.9765C4.95552 2.72391 4.66034 2.60951 4.40769 2.72101C4.35152 2.74581 4.29519 2.77181 4.24027 2.79828C3.99154 2.9182 3.88712 3.21708 4.00702 3.4658C4.09322 3.64455 4.27179 3.74878 4.45779 3.74878Z" fill="#222222"/>
<path d="M8.07099 13.2696C7.79512 13.2669 7.56852 13.4879 7.56539 13.764C7.54382 15.6861 7.25364 16.5437 5.59129 16.5437C4.65939 16.5437 3.68139 15.8619 2.90809 14.6733C2.05542 13.3627 1.58582 11.661 1.58582 9.88176C1.58582 7.57193 2.28332 5.65003 3.54984 4.47013C3.75189 4.28191 3.76309 3.96551 3.57487 3.76346C3.38664 3.56141 3.07024 3.55021 2.86819 3.73843C2.12217 4.43346 1.54494 5.33651 1.15252 6.42251C0.776465 7.46316 0.585815 8.62703 0.585815 9.88176C0.585815 11.8523 1.11289 13.7477 2.06989 15.2187C3.03117 16.6963 4.31469 17.5437 5.59129 17.5437C6.81232 17.5437 7.66334 17.114 8.12067 16.2666C8.51332 15.539 8.55607 14.5991 8.56532 13.7752C8.56842 13.4991 8.34712 13.2727 8.07099 13.2696Z" fill="#222222"/>
<path d="M10.5314 5.86506C10.5314 4.94656 9.78415 4.19929 8.86565 4.19929C7.94713 4.19929 7.19983 4.94656 7.19983 5.86506C7.19983 6.78359 7.94713 7.53089 8.86565 7.53089C9.78415 7.53086 10.5314 6.78359 10.5314 5.86506ZM8.19983 5.86506C8.19983 5.49794 8.4985 5.19929 8.86565 5.19929C9.23278 5.19929 9.53143 5.49794 9.53143 5.86506C9.53143 6.23221 9.23278 6.53089 8.86565 6.53089C8.4985 6.53086 8.19983 6.23219 8.19983 5.86506Z" fill="#222222"/>
<path d="M4.89572 8.12937C5.81424 8.12937 6.56152 7.38209 6.56152 6.46359C6.56152 5.54507 5.81424 4.79779 4.89572 4.79779C3.97719 4.79779 3.22992 5.54507 3.22992 6.46359C3.22992 7.38209 3.97719 8.12937 4.89572 8.12937ZM4.89572 5.79779C5.26284 5.79779 5.56152 6.09647 5.56152 6.46359C5.56152 6.83072 5.26284 7.12937 4.89572 7.12937C4.52859 7.12937 4.22992 6.83072 4.22992 6.46359C4.22992 6.09647 4.52862 5.79779 4.89572 5.79779Z" fill="#222222"/>
<path d="M5.28546 10.291C5.28546 9.37244 4.53818 8.62514 3.61966 8.62514C2.70113 8.62514 1.95386 9.37244 1.95386 10.291C1.95386 11.2095 2.70113 11.9567 3.61966 11.9567C4.53818 11.9567 5.28546 11.2095 5.28546 10.291ZM3.61966 10.9567C3.25253 10.9567 2.95386 10.6581 2.95386 10.291C2.95386 9.92381 3.25253 9.62514 3.61966 9.62514C3.98678 9.62514 4.28546 9.92381 4.28546 10.291C4.28546 10.6581 3.98678 10.9567 3.61966 10.9567Z" fill="#222222"/>
<path d="M5.36979 15.8543C6.28832 15.8543 7.03562 15.1071 7.03562 14.1886C7.03562 13.2701 6.28832 12.5228 5.36979 12.5228C4.45129 12.5228 3.70401 13.2701 3.70401 14.1886C3.70401 15.1071 4.45129 15.8543 5.36979 15.8543ZM5.36979 13.5228C5.73694 13.5228 6.03562 13.8214 6.03562 14.1886C6.03562 14.5557 5.73694 14.8543 5.36979 14.8543C5.00269 14.8543 4.70401 14.5557 4.70401 14.1886C4.70401 13.8214 5.00269 13.5228 5.36979 13.5228Z" fill="#222222"/>
</svg>
