<svg width="18" height="18" viewBox="0 0 18 18" fill="none" xmlns="http://www.w3.org/2000/svg">
<path d="M12.75 15H1.875C0.8415 15 0 14.1585 0 13.125V1.875C0 0.8415 0.8415 0 1.875 0H7.875C8.0355 0 8.178 0.102 8.22975 0.2535L13.1047 14.5035C13.1437 14.6175 13.125 14.7443 13.0553 14.8425C12.9847 14.9415 12.8715 15 12.75 15ZM1.875 0.75C1.25475 0.75 0.75 1.25475 0.75 1.875V13.125C0.75 13.7452 1.25475 14.25 1.875 14.25H12.225L7.60725 0.75H1.875Z" fill="#222222"/>
<path d="M16.125 18H10.125C9.969 18 9.82875 17.9033 9.774 17.757L8.649 14.757C8.57625 14.5628 8.6745 14.3467 8.868 14.274C9.06225 14.202 9.27825 14.2995 9.351 14.493L10.3853 17.25H16.125C16.7452 17.25 17.25 16.7452 17.25 16.125V4.875C17.25 4.25475 16.7452 3.75 16.125 3.75H9C8.793 3.75 8.625 3.582 8.625 3.375C8.625 3.168 8.793 3 9 3H16.125C17.1585 3 18 3.8415 18 4.875V16.125C18 17.1585 17.1585 18 16.125 18Z" fill="#222222"/>
<path d="M10.125 18C10.0373 18 9.94952 17.9692 9.87827 17.907C9.72227 17.7705 9.70652 17.5335 9.84302 17.3775L12.468 14.3775C12.6045 14.2208 12.8415 14.2057 12.9975 14.3422C13.1535 14.4787 13.1693 14.7158 13.0328 14.8718L10.4078 17.8718C10.3328 17.9565 10.2293 18 10.125 18Z" fill="#222222"/>
<path d="M7.12496 10.5C6.97046 10.5 6.82646 10.4048 6.77171 10.251L5.24996 5.99026L3.72821 10.251C3.65846 10.446 3.44321 10.548 3.24896 10.4783C3.05396 10.4085 2.95196 10.194 3.02171 9.99901L4.89671 4.74901C5.00321 4.45051 5.49671 4.45051 5.60246 4.74901L7.47746 9.99901C7.54721 10.194 7.44596 10.4085 7.25021 10.4783C7.20971 10.4933 7.16696 10.5 7.12496 10.5Z" fill="#222222"/>
<path d="M6 8.25H4.5C4.293 8.25 4.125 8.082 4.125 7.875C4.125 7.668 4.293 7.5 4.5 7.5H6C6.207 7.5 6.375 7.668 6.375 7.875C6.375 8.082 6.207 8.25 6 8.25Z" fill="#222222"/>
<path d="M16.125 8.25H10.875C10.668 8.25 10.5 8.082 10.5 7.875C10.5 7.668 10.668 7.5 10.875 7.5H16.125C16.332 7.5 16.5 7.668 16.5 7.875C16.5 8.082 16.332 8.25 16.125 8.25Z" fill="#222222"/>
<path d="M13.125 8.25C12.918 8.25 12.75 8.082 12.75 7.875V7.125C12.75 6.918 12.918 6.75 13.125 6.75C13.332 6.75 13.5 6.918 13.5 7.125V7.875C13.5 8.082 13.332 8.25 13.125 8.25Z" fill="#222222"/>
<path d="M12 12.75C11.8822 12.75 11.7667 12.6952 11.694 12.5925C11.574 12.4237 11.6137 12.1897 11.7825 12.0697C13.4242 10.9035 14.625 8.5245 14.625 7.87575C14.625 7.66875 14.793 7.50075 15 7.50075C15.207 7.50075 15.375 7.66875 15.375 7.87575C15.375 8.86425 13.9297 11.4645 12.2175 12.6817C12.1515 12.7275 12.0757 12.75 12 12.75Z" fill="#222222"/>
<path d="M15 13.5C14.9092 13.5 14.8185 13.4678 14.7472 13.4018C14.475 13.1528 12.0787 10.9395 11.6527 9.891C11.5747 9.699 11.6677 9.48075 11.859 9.40275C12.0487 9.3255 12.2692 9.417 12.3472 9.609C12.654 10.3643 14.5492 12.2033 15.2535 12.8483C15.4065 12.9885 15.4162 13.2248 15.2767 13.3785C15.2025 13.4588 15.1012 13.5 15 13.5Z" fill="#222222"/>
</svg>
