<svg width="594" height="411" viewBox="0 0 594 411" fill="none" xmlns="http://www.w3.org/2000/svg">
<path d="M125.331 184.922C125.331 184.922 123.556 185.406 120.732 185.084L122.184 182.824C119.037 182.905 111.452 178.789 110.645 174.996C110.564 174.512 110.564 174.028 110.725 173.705V173.625C111.936 171.204 118.311 171.768 122.991 176.368C128.559 181.775 125.331 184.922 125.331 184.922Z" fill="#E0F0FF"/>
<path d="M122.265 182.824L120.812 185.084C119.037 184.841 116.778 184.277 114.357 182.905C111.29 181.21 109.838 179.031 109.111 177.337C109.999 175.319 110.645 173.947 110.806 173.625C110.645 174.028 110.645 174.431 110.725 174.916C111.532 178.789 119.118 182.905 122.265 182.824Z" fill="#2A87DB"/>
<path d="M77.3973 207.275C77.3973 207.275 81.1094 208.97 84.5794 208.486C88.0494 208.002 94.8279 206.065 96.1998 206.791C97.5716 207.517 99.9119 207.598 99.1856 209.938C98.54 212.279 97.0875 215.022 94.021 215.184C90.9545 215.426 87.888 217.766 82.804 216.313C77.7201 214.861 74.7343 214.135 74.5729 212.117C74.4922 210.019 77.3973 207.275 77.3973 207.275Z" fill="#F4C2C9"/>
<path d="M125.332 184.922C124.04 188.715 107.175 210.907 99.1857 222.527C91.1967 234.147 77.6395 267.072 70.861 265.7C64.0824 264.328 55.6899 257.711 57.1425 253.918C58.6757 250.126 75.7835 239.312 88.8565 220.671C101.929 202.03 101.607 189.118 105.561 178.547C107.255 174.028 108.466 174.351 108.466 174.351C108.466 174.351 108.385 175.642 109.031 177.417C109.676 179.112 111.129 181.291 114.276 182.985C116.697 184.357 118.957 184.922 120.732 185.164C123.556 185.487 125.332 184.922 125.332 184.922Z" fill="white"/>
<path d="M96.2805 218.331C96.2805 218.331 99.5084 212.359 100.315 208.728" stroke="#E0F0FF" stroke-width="1.8" stroke-linecap="round" stroke-linejoin="round"/>
<path d="M99.3469 219.138C99.3469 219.138 101.526 215.022 102.656 213.973" stroke="#E0F0FF" stroke-width="1.8" stroke-linecap="round" stroke-linejoin="round"/>
<path d="M87.4845 234.793C87.4845 234.793 85.9512 238.828 84.2566 241.652" stroke="#E0F0FF" stroke-width="1.8" stroke-linecap="round" stroke-linejoin="round"/>
<path d="M82.9655 233.663C82.9655 233.663 79.9797 238.344 74.573 242.701" stroke="#E0F0FF" stroke-width="1.8" stroke-linecap="round" stroke-linejoin="round"/>
<path d="M89.8247 212.279C89.8247 212.279 94.8279 215.506 97.6523 216.636C100.557 217.766 104.269 216.555 104.592 216.555C104.915 216.555 106.448 218.976 105.076 220.671C103.705 222.366 102.171 222.608 102.01 223.173C101.849 223.738 102.252 226.965 101.364 228.095C100.557 229.225 98.7821 229.871 98.2172 230.597C97.733 231.323 97.0874 234.954 96.1998 235.519C95.3121 236.084 94.1823 237.94 91.9228 238.263C89.6633 238.586 80.7866 235.035 72.5555 228.66C67.3102 224.625 63.9209 223.173 63.9209 223.173C63.9209 223.173 67.5523 207.275 74.1694 208.728C80.8673 210.18 89.8247 212.279 89.8247 212.279Z" fill="#F4C2C9"/>
<path d="M89.8247 212.279C89.8247 212.279 94.8279 215.506 97.6523 216.636C100.557 217.766 104.269 216.556 104.592 216.556" stroke="#E26E85" stroke-width="1.8" stroke-linecap="round" stroke-linejoin="round"/>
<path d="M69.8925 201.949C69.8925 201.949 70.7801 201.223 71.8292 202.03C72.8783 202.837 76.8324 205.984 77.3166 207.275C77.8815 208.566 75.1378 216.556 70.8608 221.478C66.6646 226.401 64.3244 226.401 64.0823 226.32C63.8402 226.239 57.8686 223.495 57.0616 222.446C56.2546 221.397 56.5774 220.268 56.5774 220.268C56.5774 220.268 67.9557 201.869 69.8925 201.949Z" fill="#2A87DB"/>
<path d="M17.6814 174.028C12.194 180.726 12.8396 190.652 19.2147 196.543C21.0707 198.237 23.1689 200.174 25.5091 202.272C38.0978 213.57 57.6265 220.59 57.6265 220.59C68.2786 215.668 69.8925 201.949 69.8925 201.949C60.2896 195.897 50.7673 184.599 43.7466 174.754C37.4523 166.039 24.5407 165.716 17.6814 174.028Z" fill="#D4F0FC"/>
<path d="M102.091 223.253C102.091 223.253 99.9119 224.302 98.54 224.464C97.1682 224.625 95.2314 224.464 95.2314 224.464" stroke="#E26E85" stroke-width="1.8" stroke-linecap="round" stroke-linejoin="round"/>
<path d="M98.7014 230.355C98.7014 230.355 97.7331 231.162 96.3612 231.404C94.9894 231.565 93.8596 230.92 93.8596 230.92" stroke="#E26E85" stroke-width="1.8" stroke-linecap="round" stroke-linejoin="round"/>
<path d="M95.5542 236.246C95.5542 236.246 93.6174 236.891 92.5684 235.923" stroke="#E26E85" stroke-width="1.8" stroke-linecap="round" stroke-linejoin="round"/>
<path d="M78.572 341.089L67.616 347.386C65.9769 348.335 63.8202 347.818 62.8712 346.092L31.4697 291.916C30.5207 290.277 31.0383 288.12 32.7637 287.171L43.7197 280.874C45.3588 279.925 47.5155 280.442 48.4645 282.168L79.866 336.344C80.815 337.983 80.2111 340.14 78.572 341.089Z" fill="#22272E"/>
<path d="M70.894 333.411C69.9451 331.772 67.7884 331.168 66.1493 332.117C64.5102 333.066 63.9063 335.223 64.8553 336.862C65.8042 338.501 67.9609 339.105 69.6 338.156C71.2391 337.207 71.843 335.136 70.894 333.411Z" fill="#63737A"/>
<path d="M56.4873 324.784L64.5102 320.126" stroke="#63737A" stroke-width="1.8" stroke-linecap="round" stroke-linejoin="round"/>
<path d="M54.2444 320.989L62.3536 316.33" stroke="#63737A" stroke-width="1.8" stroke-linecap="round" stroke-linejoin="round"/>
<path d="M95.1355 304.08L88.0615 334.015C87.8027 334.877 91.9436 337.034 97.4648 338.932C102.9 340.83 107.644 341.693 107.903 340.916L120.93 313.052L95.1355 304.08Z" fill="#D4F0FC"/>
<path d="M114.201 320.557L119.032 322.196C121.188 322.972 122.137 325.388 121.102 327.372L117.047 335.136C116.185 336.775 114.287 337.465 112.561 336.862L107.299 335.05" stroke="#D4F0FC" stroke-width="1.8" stroke-linecap="round" stroke-linejoin="round"/>
<path d="M120.93 313.138C120.584 314.173 114.459 313.052 107.385 310.55C100.225 308.048 94.7904 305.201 95.1354 304.08C95.4805 303.045 101.606 304.166 108.68 306.668C115.84 309.17 121.275 312.016 120.93 313.138Z" fill="#2A87DB"/>
<path d="M428.32 310.403L490.582 303.094L489.525 314.366L477.284 316.127L476.051 318.417L428.32 310.403Z" fill="#63737A"/>
<path d="M476.051 317.184L492.255 252.984C492.784 250.783 494.721 249.021 496.923 248.757L580.145 236.34C581.906 236.076 583.404 237.749 582.875 239.51L565.878 297.017C565.262 298.955 563.677 300.54 561.651 300.98L478.957 320.267C477.196 320.619 475.611 319.034 476.051 317.184Z" fill="#22272E"/>
<path d="M539.723 276.146C538.842 279.316 535.936 282.398 533.03 283.015C530.212 283.631 528.538 281.518 529.419 278.347C530.3 275.177 533.206 272.094 536.112 271.478C538.93 270.862 540.604 272.975 539.723 276.146Z" fill="#63737A"/>
<path d="M477.284 320.002C477.02 319.826 440.913 315.071 430.873 313.662C429.376 313.486 428.32 312.253 428.32 310.756V310.403L477.284 316.128V320.002Z" fill="#22272E"/>
<path d="M553.021 199H580.145C581.378 199 582.435 200.057 582.347 201.378L580.938 218.374C580.85 219.872 579.705 221.016 578.208 221.193L550.907 224.187C549.586 224.363 548.442 223.218 548.53 221.897L550.027 201.906C550.027 200.233 551.436 199 553.021 199Z" stroke="#2A87DB" stroke-width="1.8" stroke-linecap="round" stroke-linejoin="round"/>
<path d="M551.26 199.616L567.112 208.159C568.168 208.687 569.401 208.599 570.37 207.895L581.643 199.616" stroke="#2A87DB" stroke-width="1.8" stroke-linecap="round" stroke-linejoin="round"/>
<path d="M528.275 219.079C526.954 217.67 524.752 217.582 523.343 218.815C521.934 220.136 521.846 222.338 523.079 223.747C524.312 225.156 526.601 225.244 528.01 224.011C529.507 222.69 529.596 220.488 528.275 219.079Z" fill="#22272E"/>
<path d="M523.695 211.065L523.079 210.361C521.053 208.159 517.619 207.983 515.329 210.008C513.127 212.034 512.951 215.468 514.977 217.758L515.593 218.463C516.298 219.255 516.826 220.136 517.09 221.193C517.266 221.985 517.53 222.866 517.707 223.747C518.147 225.596 520.437 226.3 521.934 224.979L525.809 221.457L529.684 217.934C531.093 216.613 530.652 214.323 528.803 213.619C527.922 213.355 527.13 213.003 526.337 212.738C525.28 212.386 524.4 211.858 523.695 211.065Z" fill="#2A87DB"/>
<path d="M453.771 224.891C453.771 224.891 455.884 234.931 453.771 247.084L482.304 240.919C482.304 240.919 475.963 230.352 474.29 220.664L453.771 224.891Z" fill="#22272E"/>
<path d="M454.387 229.471L475.347 225.068" stroke="#63737A" stroke-width="1.8" stroke-linecap="round" stroke-linejoin="round"/>
<path d="M459.319 233.61L472.881 230.352" stroke="#63737A" stroke-width="1.8" stroke-linecap="round" stroke-linejoin="round"/>
<path d="M459.583 237.837L468.654 235.723" stroke="#63737A" stroke-width="1.8" stroke-linecap="round" stroke-linejoin="round"/>
<path d="M496.494 350.849L514.867 346.719C514.867 346.719 515.12 355.147 528.099 360.119C528.099 360.119 513.687 371.076 509.22 373.941C509.304 373.857 498.516 368.295 496.494 350.849Z" fill="#2A87DB"/>
<path d="M497.589 356.411L516.047 350.427" stroke="#22272E" stroke-width="1.8" stroke-linecap="round" stroke-linejoin="round"/>
<path d="M503.657 359.867L515.204 354.557" stroke="#22272E" stroke-width="1.8" stroke-linecap="round" stroke-linejoin="round"/>
<path d="M505.596 363.406L517.142 357.169" stroke="#22272E" stroke-width="1.8" stroke-linecap="round" stroke-linejoin="round"/>
<path d="M508.125 366.778L514.783 362.732" stroke="#22272E" stroke-width="1.8" stroke-linecap="round" stroke-linejoin="round"/>
<path d="M460 383.971L462.023 402.681C462.023 404.03 469.018 405.041 477.615 405.041C486.211 405.041 493.207 403.945 493.207 402.681L495.229 383.971H460Z" fill="#22272E"/>
<path d="M495.229 383.971C495.229 385.488 487.307 386.668 477.615 386.668C467.922 386.668 460 385.488 460 383.971C460 382.454 467.922 381.274 477.615 381.274C487.391 381.358 495.229 382.538 495.229 383.971Z" fill="#D4F0FC"/>
<path d="M472.895 383.971C472.895 383.971 463.456 380.263 464.467 373.014C465.563 365.682 472.474 380.768 474.244 378.493C476.013 376.217 473.738 365.176 477.615 364.165C481.576 363.238 480.48 378.661 480.48 378.661C480.48 378.661 484.441 376.723 486.886 373.857C489.33 370.992 492.87 377.397 482.84 383.971C482.756 383.971 478.458 386.162 472.895 383.971Z" fill="#2A87DB"/>
<path d="M556.08 379.083C556.08 381.611 554.057 383.634 551.529 383.634C549.001 383.634 546.978 381.611 546.978 379.083C546.978 376.554 549.001 374.531 551.529 374.531C553.973 374.531 556.08 376.639 556.08 379.083Z" fill="#D4F0FC"/>
<path d="M156.58 396.891C154.6 397.404 152.547 398.357 150.713 399.971C147.56 402.684 142.5 404.591 137.147 404.297C132.013 404.077 126.587 401.804 122.48 396.304C140.3 398.211 156.58 396.891 156.58 396.891Z" fill="white"/>
<path d="M137.073 404.371C124.167 404.591 106.127 404.371 100.553 404.297C94.1 404.811 86.84 402.317 82 394.324C82 394.324 86.7667 395.057 99.0133 395.131C111.26 395.204 121.013 394.324 121.013 394.324C121.453 395.057 121.893 395.717 122.333 396.377C126.513 401.804 131.94 404.077 137.073 404.371Z" fill="#22272E"/>
<path d="M523.625 115.223C523.625 115.223 522.386 116.462 524.687 125.843C526.988 135.225 532.21 142.394 532.21 142.394C532.21 142.394 538.936 136.73 536.901 126.994C534.954 117.258 523.625 115.223 523.625 115.223Z" fill="#22272E"/>
<path d="M524.952 142.837C524.952 142.837 523.182 143.368 519.022 147.705C514.863 152.041 508.756 154.254 501.498 157.529C494.241 160.804 490.7 145.58 492.559 137.88C494.329 130.18 502.295 124.87 502.295 124.87L517.783 126.994C517.783 126.994 522.917 120.887 524.952 124.87C526.899 128.853 526.722 137.792 524.952 142.837Z" fill="#F4C2C9"/>
<path d="M511.676 171.07L458.926 183.196C456.625 183.727 454.324 182.311 453.793 180.009L438.835 115.223C438.304 112.922 439.72 110.62 442.022 110.089L494.771 97.9639C497.073 97.4329 499.374 98.849 499.905 101.15L514.774 165.937C515.394 168.238 513.977 170.539 511.676 171.07Z" fill="#22272E"/>
<path d="M489.461 116.55L455.121 124.427C453.97 124.693 452.908 123.985 452.642 122.834C452.377 121.684 453.085 120.622 454.236 120.356L488.576 112.479C489.727 112.213 490.789 112.921 491.054 114.072C491.231 115.134 490.523 116.285 489.461 116.55Z" fill="#D4F0FC"/>
<path d="M455.032 133.544L493.444 124.693" stroke="#63737A" stroke-width="1.8" stroke-linecap="round" stroke-linejoin="round"/>
<path d="M456.537 140.004L494.948 131.154" stroke="#63737A" stroke-width="1.8" stroke-linecap="round" stroke-linejoin="round"/>
<path d="M479.46 165.494L465.299 168.769C464.148 169.035 463.086 168.327 462.82 167.176L459.546 153.015C459.28 151.864 459.988 150.802 461.139 150.537L475.3 147.262C476.45 146.997 477.513 147.705 477.778 148.855L481.053 163.016C481.23 164.078 480.522 165.229 479.46 165.494Z" fill="#D4F0FC"/>
<path d="M483 145.403L497.427 142.04" stroke="#63737A" stroke-width="1.8" stroke-linecap="round" stroke-linejoin="round"/>
<path d="M484.593 152.395L499.108 149.121" stroke="#63737A" stroke-width="1.8" stroke-linecap="round" stroke-linejoin="round"/>
<path d="M486.186 159.476L494.948 157.44" stroke="#63737A" stroke-width="1.8" stroke-linecap="round" stroke-linejoin="round"/>
<path d="M478.309 103.805L459.546 108.142C458.218 108.408 457.068 107.257 457.333 105.93L457.51 105.044C457.687 104.336 458.218 103.805 458.926 103.628L476.893 99.4686C477.601 99.2915 478.309 99.5571 478.752 100.088L479.283 100.796C480.168 101.947 479.637 103.54 478.309 103.805Z" fill="#2A87DB"/>
<path d="M519.022 121.595C519.022 121.595 516.81 122.746 512.561 121.595C508.313 120.444 507.605 119.382 503.18 118.232C498.754 117.081 492.647 118.32 491.585 120.179C490.523 122.038 493.356 123.188 497.161 123.631C500.967 124.073 502.737 131.331 508.844 134.075C519.022 138.588 528.05 124.781 519.022 121.595Z" fill="#F4C2C9"/>
<path d="M491.585 120.179C490.523 122.038 493.356 123.188 497.161 123.631C500.967 124.073 502.737 131.331 508.844 134.074C510.968 135.048 513.004 135.137 514.863 134.783" stroke="#E26E85" stroke-width="1.8" stroke-linecap="round" stroke-linejoin="round"/>
<path d="M525.749 117.524C525.749 117.524 521.058 120.533 519.022 121.595C519.022 121.595 523.005 125.489 524.598 132.481C526.191 139.473 524.952 142.837 524.952 142.837C524.952 142.837 530.174 142.306 532.741 140.447C532.741 140.447 535.219 136.376 533.184 128.41C531.148 120.445 525.749 117.524 525.749 117.524Z" fill="white"/>
<path d="M581.331 106.726C577.791 95.0432 563.984 90.2638 553.982 97.2558C548.141 101.327 542.034 105.31 537.166 107.965C523.625 115.311 523.625 115.311 523.625 115.311C523.625 115.311 531.325 122.923 532.475 131.331C533.626 139.739 532.21 142.483 532.21 142.483C532.21 142.483 553.363 137.261 572.038 128.145C579.915 124.162 583.898 115.134 581.331 106.726Z" fill="#2A87DB"/>
<path d="M530.44 136.022C530.44 135.402 529.997 134.96 529.378 134.96C528.758 134.96 528.316 135.402 528.316 136.022C528.316 136.641 528.758 137.084 529.378 137.084C529.997 137.084 530.44 136.641 530.44 136.022Z" fill="#22272E"/>
<path d="M272.143 29.5506C276.202 37.4136 281.275 45.1922 284.318 49.5887C285.671 51.5334 288.292 51.9561 290.152 50.6033C293.957 47.8977 299.03 45.1922 302.581 43.4166C304.695 42.3175 305.709 39.781 304.779 37.5827C302.497 32.2561 300.129 25.154 298.185 18.8973C295.563 10.6115 286.263 6.63771 278.485 10.527C271.382 13.9935 268.508 22.533 272.143 29.5506Z" fill="#D4F0FC"/>
<path d="M300.214 38.7665C301.482 38.7665 302.666 39.2738 303.342 40.2884C304.695 42.233 307.231 45.5304 309.937 47.475C313.911 50.2652 328.369 52.7171 329.552 54.8308C330.736 56.9446 327.269 57.621 324.902 57.3673C322.45 57.1982 320.506 56.86 319.998 57.8746C319.491 58.8892 320.167 63.1167 323.465 66.0759C326.678 69.0351 332.681 72.1634 332.934 74.869C333.188 77.5746 326.508 74.9535 323.549 73.0935C320.506 71.3179 319.745 70.8952 319.745 70.8952C319.745 70.8952 319.322 71.7407 316.954 72.5862C315.602 73.0089 314.164 71.9098 312.896 72.1634C311.628 72.4171 305.963 75.2917 303.257 73.939C301.313 72.9244 297.001 63.1167 294.887 60.4956C293.365 58.551 289.73 52.9707 287.954 50.1806C287.193 49.0815 287.193 47.5596 287.87 46.4605C289.307 43.6703 293.027 39.0201 300.214 38.7665Z" fill="#F4C2C9"/>
<path d="M244.242 96.429C244.496 95.7527 245.341 95.7527 245.595 96.429C246.018 97.6973 246.525 99.0501 247.117 99.6419C247.624 100.149 249.061 100.741 250.33 101.164C251.006 101.417 251.006 102.263 250.33 102.517C249.061 102.939 247.709 103.447 247.117 104.038C246.609 104.546 246.018 105.983 245.595 107.251C245.341 107.928 244.496 107.928 244.242 107.251C243.819 105.983 243.312 104.63 242.72 104.038C242.213 103.531 240.776 102.939 239.507 102.517C238.831 102.263 238.831 101.417 239.507 101.164C240.776 100.741 242.128 100.234 242.72 99.6419C243.312 99.0501 243.819 97.6973 244.242 96.429Z" fill="#2A87DB"/>
<path d="M319.66 70.9797C319.66 70.9797 316.363 69.2887 315.01 67.9359C314.249 67.1749 313.657 66.0758 313.657 66.0758" stroke="#E26E85" stroke-width="1.8" stroke-linecap="round" stroke-linejoin="round"/>
<path d="M312.812 72.1634C312.812 72.1634 310.782 71.3179 310.021 70.7261C309.261 70.0497 308.161 68.2742 308.161 68.2742" stroke="#E26E85" stroke-width="1.8" stroke-linecap="round" stroke-linejoin="round"/>
<path d="M307.908 73.8544C307.908 73.8544 306.386 73.2625 305.54 72.5016C304.949 71.9943 303.765 70.4724 303.765 70.4724" stroke="#E26E85" stroke-width="1.8" stroke-linecap="round" stroke-linejoin="round"/>
<path d="M254.473 47.644C254.642 47.1367 255.318 47.1367 255.487 47.644C255.825 48.5741 256.164 49.5887 256.586 49.9269C257.009 50.3496 257.939 50.6878 258.869 51.026C259.376 51.1951 259.376 51.8715 258.869 52.0406C257.939 52.3788 256.925 52.717 256.586 53.1397C256.164 53.5625 255.825 54.4925 255.487 55.4226C255.318 55.9298 254.642 55.9298 254.473 55.4226C254.134 54.4925 253.796 53.4779 253.374 53.1397C252.951 52.717 252.021 52.3788 251.091 52.0406C250.583 51.8715 250.583 51.1951 251.091 51.026C252.021 50.6878 253.035 50.3496 253.374 49.9269C253.796 49.5041 254.219 48.4895 254.473 47.644Z" fill="#2A87DB"/>
<path d="M334.541 89.6651C334.71 89.1578 335.386 89.1578 335.555 89.6651C335.894 90.5952 336.232 91.6098 336.654 91.948C337.077 92.2862 338.007 92.7089 338.937 93.0471C339.445 93.2162 339.445 93.8926 338.937 94.0617C338.007 94.3999 336.993 94.7381 336.654 95.1608C336.232 95.5836 335.894 96.5136 335.555 97.4437C335.386 97.951 334.71 97.951 334.541 97.4437C334.203 96.5136 333.864 95.499 333.442 95.1608C333.019 94.7381 332.089 94.3999 331.159 94.0617C330.651 93.8926 330.651 93.2162 331.159 93.0471C332.089 92.7089 333.103 92.3707 333.442 91.948C333.864 91.6098 334.287 90.5952 334.541 89.6651Z" fill="#2A87DB"/>
<path d="M263.012 75.2072C263.181 74.7845 263.688 74.7845 263.773 75.2072C264.026 75.9681 264.365 76.7291 264.618 77.0673C264.957 77.4055 265.717 77.7437 266.478 77.9128C266.901 78.0819 266.901 78.5892 266.478 78.6737C265.717 78.9274 264.957 79.2656 264.618 79.5192C264.28 79.8574 263.942 80.6183 263.773 81.3793C263.604 81.802 263.096 81.802 263.012 81.3793C262.758 80.6183 262.42 79.8574 262.166 79.5192C261.828 79.181 261.067 78.8428 260.306 78.6737C259.884 78.5046 259.884 77.9973 260.306 77.9128C261.067 77.6591 261.828 77.3209 262.166 77.0673C262.42 76.8136 262.758 75.9681 263.012 75.2072Z" fill="#D4F0FC"/>
<path d="M350.605 82.1401L347.899 85.0994C347.477 85.5221 347.477 86.283 347.899 86.7903C348.322 87.2131 348.914 87.2976 349.421 87.044L352.634 85.0994L350.605 82.1401Z" fill="#22272E"/>
<path d="M375.293 89.3268L376.054 93.3006C376.139 93.8924 375.8 94.5688 375.209 94.7379C374.617 94.907 374.025 94.6534 373.771 94.0615L372.08 90.6796L375.293 89.3268Z" fill="#22272E"/>
<path d="M366.246 92.7934C376.426 92.7934 384.678 84.5414 384.678 74.3617C384.678 64.1819 376.426 55.9299 366.246 55.9299C356.067 55.9299 347.815 64.1819 347.815 74.3617C347.815 84.5414 356.067 92.7934 366.246 92.7934Z" fill="#2A87DB"/>
<path d="M371.937 84.7527C377.669 81.599 379.757 74.4039 376.612 68.6714C373.458 62.9475 366.263 60.8591 360.531 64.0043C354.807 67.1496 352.71 74.3532 355.864 80.0771C359.009 85.8096 366.213 87.8979 371.937 84.7527Z" fill="#D4F0FC"/>
<path d="M369.544 78.5891L366.247 74.3617L368.022 68.4432" stroke="#63737A" stroke-width="1.8" stroke-linecap="round" stroke-linejoin="round"/>
<path d="M354.494 56.5218C353.987 56.6909 353.395 56.4372 353.226 55.8454C352.803 53.3935 354.156 50.9415 356.608 50.0115C359.06 49.0815 361.681 50.0115 363.034 52.1252C363.372 52.6325 363.118 53.2244 362.527 53.478L354.494 56.5218Z" fill="#2A87DB"/>
<path d="M385.693 65.653C386.031 66.0758 386.707 66.1603 387.13 65.7376C388.821 63.8775 388.99 61.0874 387.384 58.9737C385.777 56.8599 383.072 56.2681 380.874 57.3672C380.366 57.6209 380.197 58.2973 380.535 58.72L385.693 65.653Z" fill="#2A87DB"/>
<path d="M374.617 54.5771L369.798 53.2243C369.037 52.9707 368.529 52.2098 368.783 51.3643C369.037 50.6033 369.798 50.096 370.643 50.3497L375.462 51.7025C376.223 51.9561 376.731 52.7171 376.477 53.5625C376.223 54.3235 375.378 54.8308 374.617 54.5771Z" fill="#2A87DB"/>
<path d="M370.685 52.4888L369.358 57.0375L372.85 58.0521L374.177 53.5034L370.685 52.4888Z" fill="#2A87DB"/>
<path d="M174.002 117.516L72.6666 144.373C68.956 145.345 65.3337 142.871 64.892 139.072L52.2583 29.7862C51.9932 27.1358 54.1136 24.8387 56.764 25.1038L159.778 32.2599C162.693 32.4366 165.078 34.6453 165.52 37.5608L177.005 112.833C177.447 114.865 176.034 116.986 174.002 117.516Z" fill="#63737A"/>
<path d="M178.684 117.869L76.2888 144.992C72.5782 145.964 68.8676 143.401 68.4259 139.602L55.7038 29.1677C55.4388 26.5172 57.5591 24.2202 60.2979 24.3969L164.46 31.5531C167.375 31.7298 169.849 33.9385 170.291 36.8539L181.953 112.921C182.13 115.218 180.804 117.25 178.684 117.869Z" fill="#22272E"/>
<path d="M98.5527 45.3353L73.5503 44.9819C73.0202 44.9819 72.6668 44.6285 72.5784 44.0985L72.225 41.2713C72.1367 40.6529 72.6668 40.1228 73.1969 40.1228L98.2876 40.8296C98.8177 40.8296 99.1711 41.183 99.2595 41.7131L99.6129 44.2752C99.6129 44.8052 99.1711 45.3353 98.5527 45.3353Z" fill="#2A87DB"/>
<path d="M73.8149 54.7002L122.23 54.0818" stroke="#63737A" stroke-width="1.8" stroke-linecap="round" stroke-linejoin="round"/>
<path d="M75.052 64.5069L105.709 63.27" stroke="#63737A" stroke-width="1.8" stroke-linecap="round" stroke-linejoin="round"/>
<path d="M86.5373 124.937L83.6218 125.555C83.0034 125.732 82.385 125.29 82.2966 124.583L79.3811 100.111C79.2928 99.4926 79.7345 98.9625 80.353 98.8741L83.2684 98.4324C83.8869 98.3441 84.417 98.7858 84.5053 99.4042L87.5091 123.7C87.4208 124.318 87.0674 124.848 86.5373 124.937Z" fill="#D4F0FC"/>
<path d="M96.874 121.491L92.0149 82.6181C91.9266 81.9997 92.3683 81.4696 92.9867 81.3813L95.4605 81.1162C96.0789 81.0279 96.609 81.4696 96.609 82.0881L101.468 120.608C101.556 121.138 101.203 121.668 100.585 121.845L98.0226 122.375C97.5808 122.551 96.9624 122.11 96.874 121.491Z" fill="#2A87DB"/>
<path d="M110.391 118.576L108.536 104.263C108.448 103.645 108.889 103.115 109.419 103.026L111.54 102.673C112.158 102.585 112.688 103.026 112.777 103.645L114.632 117.869C114.72 118.399 114.367 118.929 113.748 119.106L111.628 119.547C111.01 119.636 110.391 119.194 110.391 118.576Z" fill="#D4F0FC"/>
<path d="M125.94 116.455L124.085 116.809C123.466 116.985 122.848 116.544 122.76 115.925L121.7 108.239C121.611 107.621 122.053 107.09 122.583 107.002L124.438 106.649C125.057 106.56 125.675 107.002 125.675 107.621L126.735 115.307C126.824 115.837 126.47 116.367 125.94 116.455Z" fill="#F4C2C9"/>
<path d="M161.986 105.765L154.388 88.7142L160.926 73.6067C163.93 76.7872 166.139 81.558 167.022 86.9472C167.994 94.6335 165.962 101.966 161.986 105.765Z" fill="#2A87DB"/>
<path d="M160.838 73.6067L154.3 88.7142L141.49 78.4658C143.345 73.2533 146.967 69.631 151.473 69.366C154.83 69.101 158.187 70.6912 160.838 73.6067Z" fill="#F4C2C9"/>
<path d="M161.986 105.765C160.573 107.09 158.983 107.974 157.216 108.327C149.794 109.918 142.108 101.966 140.518 90.5694C139.899 86.0637 140.341 81.823 141.49 78.3774L154.3 88.6258L161.986 105.765Z" fill="#D4F0FC"/>
<path d="M181.599 34.1151C183.19 44.8936 177.182 54.7002 167.11 56.1138C155.537 57.704 143.433 47.7207 141.843 33.9384C140.341 20.4212 149.794 11.1447 161.368 12.735C171.528 14.1485 180.098 23.5134 181.599 34.1151Z" fill="#F8AB5D"/>
<path d="M185.752 32.2599C187.342 43.3917 181.246 53.5517 170.821 54.9653C158.806 56.6439 146.349 46.3072 144.758 32.0832C143.168 18.1242 152.975 8.58265 164.902 10.1729C175.327 11.6748 184.161 21.3931 185.752 32.2599Z" fill="#D4F0FC"/>
<path d="M171.263 26.0755C171.616 28.8143 169.937 30.9346 167.464 30.9346C164.902 30.9346 162.428 28.5492 162.074 25.7221C161.721 22.895 163.576 20.7746 166.138 20.9513C168.612 21.128 170.909 23.4251 171.263 26.0755Z" fill="#22272E"/>
<path d="M173.648 43.3917L164.548 44.0101C162.34 44.1868 160.308 42.3315 159.954 39.8577C159.247 34.4685 162.781 30.2278 167.464 30.3162C171.881 30.4045 175.857 34.3802 176.564 39.151C176.74 41.448 175.503 43.3033 173.648 43.3917Z" fill="#22272E"/>
</svg>
