<svg version="1.2" baseProfile="tiny-ps" xmlns="http://www.w3.org/2000/svg" viewBox="0 0 594 411" width="594" height="411">
	<title>Folder 9</title>
	<style>
		tspan { white-space:pre }
		.shp0 { fill: #e0f0ff } 
		.shp1 { fill: #2a87db } 
		.shp2 { fill: #f4c2c9 } 
		.shp3 { fill: #ffffff } 
		.shp4 { fill: none;stroke: #e0f0ff;stroke-linecap:round;stroke-linejoin:round;stroke-width: 1.8 } 
		.shp5 { fill: none;stroke: #e26e85;stroke-linecap:round;stroke-linejoin:round;stroke-width: 1.8 } 
		.shp6 { fill: #d4f0fc } 
		.shp7 { fill: #22272e } 
		.shp8 { fill: #63737a } 
		.shp9 { fill: none;stroke: #63737a;stroke-linecap:round;stroke-linejoin:round;stroke-width: 1.8 } 
		.shp10 { fill: none;stroke: #d4f0fc;stroke-linecap:round;stroke-linejoin:round;stroke-width: 1.8 } 
		.shp11 { fill: none;stroke: #2a87db;stroke-linecap:round;stroke-linejoin:round;stroke-width: 1.8 } 
		.shp12 { fill: none;stroke: #22272e;stroke-linecap:round;stroke-linejoin:round;stroke-width: 1.8 } 
		.shp13 { fill: #f8ab5d } 
	</style>
	<g id="Folder 9">
		<g id="Folder 8">
			<path id="Layer" class="shp0" d="M138.54 177.28C138.54 177.28 136.34 177.88 132.84 177.48L134.64 174.68C130.74 174.78 121.34 169.68 120.34 164.98C120.24 164.38 120.24 163.78 120.44 163.38L120.44 163.28C121.94 160.28 129.84 160.98 135.64 166.68C142.54 173.38 138.54 177.28 138.54 177.28Z" />
			<path id="Layer" class="shp1" d="M134.74 174.68L132.94 177.48C130.74 177.18 127.94 176.48 124.94 174.78C121.14 172.68 119.34 169.98 118.44 167.88C119.54 165.38 120.34 163.68 120.54 163.28C120.34 163.78 120.34 164.28 120.44 164.88C121.44 169.68 130.84 174.78 134.74 174.68Z" />
			<path id="Layer" class="shp2" d="M79.14 204.98C79.14 204.98 83.74 207.08 88.04 206.48C92.34 205.88 100.74 203.48 102.44 204.38C104.14 205.28 107.04 205.38 106.14 208.28C105.34 211.18 103.54 214.58 99.74 214.78C95.94 215.08 92.14 217.98 85.84 216.18C79.54 214.38 75.84 213.48 75.64 210.98C75.54 208.38 79.14 204.98 79.14 204.98Z" />
			<path id="Layer" class="shp3" d="M138.54 177.28C136.94 181.98 116.04 209.48 106.14 223.88C96.24 238.28 79.44 279.08 71.04 277.38C62.64 275.68 52.24 267.48 54.04 262.78C55.94 258.08 77.14 244.68 93.34 221.58C109.54 198.48 109.14 182.48 114.04 169.38C116.14 163.78 117.64 164.18 117.64 164.18C117.64 164.18 117.54 165.78 118.34 167.98C119.14 170.08 120.94 172.78 124.84 174.88C127.84 176.58 130.64 177.28 132.84 177.58C136.34 177.98 138.54 177.28 138.54 177.28Z" />
			<path id="Layer" class="shp4" d="M102.54 218.68C102.54 218.68 106.54 211.28 107.54 206.78" />
			<path id="Layer" class="shp4" d="M106.34 219.68C106.34 219.68 109.04 214.58 110.44 213.28" />
			<path id="Layer" class="shp4" d="M91.64 239.08C91.64 239.08 89.74 244.08 87.64 247.58" />
			<path id="Layer" class="shp4" d="M86.04 237.68C86.04 237.68 82.34 243.48 75.64 248.88" />
			<path id="Layer" class="shp2" d="M94.54 211.18C94.54 211.18 100.74 215.18 104.24 216.58C107.84 217.98 112.44 216.48 112.84 216.48C113.24 216.48 115.14 219.48 113.44 221.58C111.74 223.68 109.84 223.98 109.64 224.68C109.44 225.38 109.94 229.38 108.84 230.78C107.84 232.18 105.64 232.98 104.94 233.88C104.34 234.78 103.54 239.28 102.44 239.98C101.34 240.68 99.94 242.98 97.14 243.38C94.34 243.78 83.34 239.38 73.14 231.48C66.64 226.48 62.44 224.68 62.44 224.68C62.44 224.68 66.94 204.98 75.14 206.78C83.44 208.58 94.54 211.18 94.54 211.18Z" />
			<path id="Layer" class="shp5" d="M94.54 211.18C94.54 211.18 100.74 215.18 104.24 216.58C107.84 217.98 112.44 216.48 112.84 216.48" />
			<path id="Layer" class="shp1" d="M69.84 198.38C69.84 198.38 70.94 197.48 72.24 198.48C73.54 199.48 78.44 203.38 79.04 204.98C79.74 206.58 76.34 216.48 71.04 222.58C65.84 228.68 62.94 228.68 62.64 228.58C62.34 228.48 54.94 225.08 53.94 223.78C52.94 222.48 53.34 221.08 53.34 221.08C53.34 221.08 67.44 198.28 69.84 198.38Z" />
			<path id="Layer" class="shp6" d="M5.14 163.78C-1.66 172.08 -0.86 184.38 7.04 191.68C9.34 193.78 11.94 196.18 14.84 198.78C30.44 212.78 54.64 221.48 54.64 221.48C67.84 215.38 69.84 198.38 69.84 198.38C57.94 190.88 46.14 176.88 37.44 164.68C29.64 153.88 13.64 153.48 5.14 163.78Z" />
			<path id="Layer" class="shp5" d="M109.74 224.78C109.74 224.78 107.04 226.08 105.34 226.28C103.64 226.48 101.24 226.28 101.24 226.28" />
			<path id="Layer" class="shp5" d="M105.54 233.58C105.54 233.58 104.34 234.58 102.64 234.88C100.94 235.08 99.54 234.28 99.54 234.28" />
			<path id="Layer" class="shp5" d="M101.64 240.88C101.64 240.88 99.24 241.68 97.94 240.48" />
		</g>
		<g id="Folder 6">
			<path id="Layer" class="shp7" d="M78.94 345.38L66.24 352.68C64.34 353.78 61.84 353.18 60.74 351.18L24.34 288.38C23.24 286.48 23.84 283.98 25.84 282.88L38.54 275.58C40.44 274.48 42.94 275.08 44.04 277.08L80.44 339.88C81.54 341.78 80.84 344.28 78.94 345.38Z" />
			<path id="Layer" class="shp8" d="M70.04 336.48C68.94 334.58 66.44 333.88 64.54 334.98C62.64 336.08 61.94 338.58 63.04 340.48C64.14 342.38 66.64 343.08 68.54 341.98C70.44 340.88 71.14 338.48 70.04 336.48Z" />
			<path id="Layer" class="shp9" d="M53.34 326.48L62.64 321.08" />
			<path id="Layer" class="shp9" d="M50.74 322.08L60.14 316.68" />
			<path id="Layer" class="shp6" d="M98.14 302.48L89.94 337.18C89.64 338.18 94.44 340.68 100.84 342.88C107.14 345.08 112.64 346.08 112.94 345.18L128.04 312.88L98.14 302.48Z" />
			<path id="Layer" class="shp10" d="M120.24 321.58L125.84 323.48C128.34 324.38 129.44 327.18 128.24 329.48L123.54 338.48C122.54 340.38 120.34 341.18 118.34 340.48L112.24 338.38" />
			<path id="Layer" class="shp1" d="M128.04 312.98C127.64 314.18 120.54 312.88 112.34 309.98C104.04 307.08 97.74 303.78 98.14 302.48C98.54 301.28 105.64 302.58 113.84 305.48C122.14 308.38 128.44 311.68 128.04 312.98Z" />
		</g>
		<g id="Folder 3">
			<path id="Layer" class="shp8" d="M417.84 317.28L488.54 308.98L487.34 321.78L473.44 323.78L472.04 326.38L417.84 317.28Z" />
			<path id="Layer" class="shp7" d="M472.04 324.98L490.44 252.08C491.04 249.58 493.24 247.58 495.74 247.28L590.24 233.18C592.24 232.88 593.94 234.78 593.34 236.78L574.04 302.08C573.34 304.28 571.54 306.08 569.24 306.58L475.34 328.48C473.34 328.88 471.54 327.08 472.04 324.98Z" />
			<path id="Layer" class="shp8" d="M544.34 278.38C543.34 281.98 540.04 285.48 536.74 286.18C533.54 286.88 531.64 284.48 532.64 280.88C533.64 277.28 536.94 273.78 540.24 273.08C543.44 272.38 545.34 274.78 544.34 278.38Z" />
			<path id="Layer" class="shp7" d="M473.44 328.18C473.14 327.98 432.14 322.58 420.74 320.98C419.04 320.78 417.84 319.38 417.84 317.68L417.84 317.28L473.44 323.78L473.44 328.18Z" />
			<path id="Layer" class="shp11" d="M559.44 190.78L590.24 190.78C591.64 190.78 592.84 191.98 592.74 193.48L591.14 212.78C591.04 214.48 589.74 215.78 588.04 215.98L557.04 219.38C555.54 219.58 554.24 218.28 554.34 216.78L556.04 194.08C556.04 192.18 557.64 190.78 559.44 190.78Z" />
			<path id="Layer" class="shp11" d="M557.44 191.48L575.44 201.18C576.64 201.78 578.04 201.68 579.14 200.88L591.94 191.48" />
			<path id="Layer" class="shp7" d="M531.34 213.58C529.84 211.98 527.34 211.88 525.74 213.28C524.14 214.78 524.04 217.28 525.44 218.88C526.84 220.48 529.44 220.58 531.04 219.18C532.74 217.68 532.84 215.18 531.34 213.58Z" />
			<path id="Layer" class="shp1" d="M526.14 204.48L525.44 203.68C523.14 201.18 519.24 200.98 516.64 203.28C514.14 205.58 513.94 209.48 516.24 212.08L516.94 212.88C517.74 213.78 518.34 214.78 518.64 215.98C518.84 216.88 519.14 217.88 519.34 218.88C519.84 220.98 522.44 221.78 524.14 220.28L528.54 216.28L532.94 212.28C534.54 210.78 534.04 208.18 531.94 207.38C530.94 207.08 530.04 206.68 529.14 206.38C527.94 205.98 526.94 205.38 526.14 204.48Z" />
			<path id="Layer" class="shp7" d="M446.74 220.18C446.74 220.18 449.14 231.58 446.74 245.38L479.14 238.38C479.14 238.38 471.94 226.38 470.04 215.38L446.74 220.18Z" />
			<path id="Layer" class="shp9" d="M447.44 225.38L471.24 220.38" />
			<path id="Layer" class="shp9" d="M453.04 230.08L468.44 226.38" />
			<path id="Layer" class="shp9" d="M453.34 234.88L463.64 232.48" />
		</g>
		<g id="Folder 4">
			<path id="Layer" class="shp1" d="M494.34 346.18L516.14 341.28C516.14 341.28 516.44 351.28 531.84 357.18C531.84 357.18 514.74 370.18 509.44 373.58C509.54 373.48 496.74 366.88 494.34 346.18Z" />
			<path id="Layer" class="shp12" d="M495.64 352.78L517.54 345.68" />
			<path id="Layer" class="shp12" d="M502.84 356.88L516.54 350.58" />
			<path id="Layer" class="shp12" d="M505.14 361.08L518.84 353.68" />
			<path id="Layer" class="shp12" d="M508.14 365.08L516.04 360.28" />
			<path id="Layer" class="shp7" d="M451.04 385.48L453.44 407.68C453.44 409.28 461.74 410.48 471.94 410.48C482.14 410.48 490.44 409.18 490.44 407.68L492.84 385.48L451.04 385.48Z" />
			<path id="Layer" class="shp6" d="M492.84 385.48C492.84 387.28 483.44 388.68 471.94 388.68C460.44 388.68 451.04 387.28 451.04 385.48C451.04 383.68 460.44 382.28 471.94 382.28C483.54 382.38 492.84 383.78 492.84 385.48Z" />
			<path id="Layer" class="shp1" d="M466.34 385.48C466.34 385.48 455.14 381.08 456.34 372.48C457.64 363.78 465.84 381.68 467.94 378.98C470.04 376.28 467.34 363.18 471.94 361.98C476.64 360.88 475.34 379.18 475.34 379.18C475.34 379.18 480.04 376.88 482.94 373.48C485.84 370.08 490.04 377.68 478.14 385.48C478.04 385.48 472.94 388.08 466.34 385.48Z" />
			<path id="Layer" class="shp6" d="M565.04 379.68C565.04 382.68 562.64 385.08 559.64 385.08C556.64 385.08 554.24 382.68 554.24 379.68C554.24 376.68 556.64 374.28 559.64 374.28C562.54 374.28 565.04 376.78 565.04 379.68Z" />
		</g>
		<g id="Folder 5">
			<path id="Layer" class="shp3" d="M170.14 395.98C167.44 396.68 164.64 397.98 162.14 400.18C157.84 403.88 150.94 406.48 143.64 406.08C136.64 405.78 129.24 402.68 123.64 395.18C147.94 397.78 170.14 395.98 170.14 395.98Z" />
			<path id="Layer" class="shp7" d="M143.54 406.18C125.94 406.48 101.34 406.18 93.74 406.08C84.94 406.78 75.04 403.38 68.44 392.48C68.44 392.48 74.94 393.48 91.64 393.58C108.34 393.68 121.64 392.48 121.64 392.48C122.24 393.48 122.84 394.38 123.44 395.28C129.14 402.68 136.54 405.78 143.54 406.18Z" />
		</g>
		<g id="hand">
			<path id="Layer" class="shp7" d="M525.34 112.18C525.34 112.18 523.94 113.58 526.54 124.18C529.14 134.78 535.04 142.88 535.04 142.88C535.04 142.88 542.64 136.48 540.34 125.48C538.14 114.48 525.34 112.18 525.34 112.18Z" />
			<path id="Layer" class="shp2" d="M526.84 143.38C526.84 143.38 524.84 143.98 520.14 148.88C515.44 153.78 508.54 156.28 500.34 159.98C492.14 163.68 488.14 146.48 490.24 137.78C492.24 129.08 501.24 123.08 501.24 123.08L518.74 125.48C518.74 125.48 524.54 118.58 526.84 123.08C529.04 127.58 528.84 137.68 526.84 143.38Z" />
			<path id="Layer" class="shp7" d="M511.84 175.28L452.24 188.98C449.64 189.58 447.04 187.98 446.44 185.38L429.54 112.18C428.94 109.58 430.54 106.98 433.14 106.38L492.74 92.68C495.34 92.08 497.94 93.68 498.54 96.28L515.34 169.48C516.04 172.08 514.44 174.68 511.84 175.28Z" />
			<path id="Layer" class="shp6" d="M486.74 113.68L447.94 122.58C446.64 122.88 445.44 122.08 445.14 120.78C444.84 119.48 445.64 118.28 446.94 117.98L485.74 109.08C487.04 108.78 488.24 109.58 488.54 110.88C488.74 112.08 487.94 113.38 486.74 113.68Z" />
			<path id="Layer" class="shp9" d="M447.84 132.88L491.24 122.88" />
			<path id="Layer" class="shp9" d="M449.54 140.18L492.94 130.18" />
			<path id="Layer" class="shp6" d="M475.44 168.98L459.44 172.68C458.14 172.98 456.94 172.18 456.64 170.88L452.94 154.88C452.64 153.58 453.44 152.38 454.74 152.08L470.74 148.38C472.04 148.08 473.24 148.88 473.54 150.18L477.24 166.18C477.44 167.38 476.64 168.68 475.44 168.98Z" />
			<path id="Layer" class="shp9" d="M479.44 146.28L495.74 142.48" />
			<path id="Layer" class="shp9" d="M481.24 154.18L497.64 150.48" />
			<path id="Layer" class="shp9" d="M483.04 162.18L492.94 159.88" />
			<path id="Layer" class="shp1" d="M474.14 99.28L452.94 104.18C451.44 104.48 450.14 103.18 450.44 101.68L450.64 100.68C450.84 99.88 451.44 99.28 452.24 99.08L472.54 94.38C473.34 94.18 474.14 94.48 474.64 95.08L475.24 95.88C476.24 97.18 475.64 98.98 474.14 99.28Z" />
			<path id="Layer" class="shp2" d="M520.14 119.38C520.14 119.38 517.64 120.68 512.84 119.38C508.04 118.08 507.24 116.88 502.24 115.58C497.24 114.28 490.34 115.68 489.14 117.78C487.94 119.88 491.14 121.18 495.44 121.68C499.74 122.18 501.74 130.38 508.64 133.48C520.14 138.58 530.34 122.98 520.14 119.38Z" />
			<path id="Layer" class="shp5" d="M489.14 117.78C487.94 119.88 491.14 121.18 495.44 121.68C499.74 122.18 501.74 130.38 508.64 133.48C511.04 134.58 513.34 134.68 515.44 134.28" />
			<path id="Layer" class="shp3" d="M527.74 114.78C527.74 114.78 522.44 118.18 520.14 119.38C520.14 119.38 524.64 123.78 526.44 131.68C528.24 139.58 526.84 143.38 526.84 143.38C526.84 143.38 532.74 142.78 535.64 140.68C535.64 140.68 538.44 136.08 536.14 127.08C533.84 118.08 527.74 114.78 527.74 114.78Z" />
			<path id="Layer" class="shp1" d="M590.54 102.58C586.54 89.38 570.94 83.98 559.64 91.88C553.04 96.48 546.14 100.98 540.64 103.98C525.34 112.28 525.34 112.28 525.34 112.28C525.34 112.28 534.04 120.88 535.34 130.38C536.64 139.88 535.04 142.98 535.04 142.98C535.04 142.98 558.94 137.08 580.04 126.78C588.94 122.28 593.44 112.08 590.54 102.58Z" />
			<path id="Layer" class="shp7" d="M533.04 135.68C533.04 134.98 532.54 134.48 531.84 134.48C531.14 134.48 530.64 134.98 530.64 135.68C530.64 136.38 531.14 136.88 531.84 136.88C532.54 136.88 533.04 136.38 533.04 135.68Z" />
		</g>
		<g id="Folder 2">
			<path id="Layer" class="shp6" d="M264.54 24.28C269.34 33.58 275.34 42.78 278.94 47.98C280.54 50.28 283.64 50.78 285.84 49.18C290.34 45.98 296.34 42.78 300.54 40.68C303.04 39.38 304.24 36.38 303.14 33.78C300.44 27.48 297.64 19.08 295.34 11.68C292.24 1.88 281.24 -2.82 272.04 1.78C263.64 5.88 260.24 15.98 264.54 24.28Z" />
			<path id="Layer" class="shp2" d="M297.74 35.18C299.24 35.18 300.64 35.78 301.44 36.98C303.04 39.28 306.04 43.18 309.24 45.48C313.94 48.78 331.04 51.68 332.44 54.18C333.84 56.68 329.74 57.48 326.94 57.18C324.04 56.98 321.74 56.58 321.14 57.78C320.54 58.98 321.34 63.98 325.24 67.48C329.04 70.98 336.14 74.68 336.44 77.88C336.74 81.08 328.84 77.98 325.34 75.78C321.74 73.68 320.84 73.18 320.84 73.18C320.84 73.18 320.34 74.18 317.54 75.18C315.94 75.68 314.24 74.38 312.74 74.68C311.24 74.98 304.54 78.38 301.34 76.78C299.04 75.58 293.94 63.98 291.44 60.88C289.64 58.58 285.34 51.98 283.24 48.68C282.34 47.38 282.34 45.58 283.14 44.28C284.84 40.98 289.24 35.48 297.74 35.18Z" />
			<path id="Layer" class="shp1" d="M231.54 103.38C231.84 102.58 232.84 102.58 233.14 103.38C233.64 104.88 234.24 106.48 234.94 107.18C235.54 107.78 237.24 108.48 238.74 108.98C239.54 109.28 239.54 110.28 238.74 110.58C237.24 111.08 235.64 111.68 234.94 112.38C234.34 112.98 233.64 114.68 233.14 116.18C232.84 116.98 231.84 116.98 231.54 116.18C231.04 114.68 230.44 113.08 229.74 112.38C229.14 111.78 227.44 111.08 225.94 110.58C225.14 110.28 225.14 109.28 225.94 108.98C227.44 108.48 229.04 107.88 229.74 107.18C230.44 106.48 231.04 104.88 231.54 103.38Z" />
			<path id="Layer" class="shp5" d="M320.74 73.28C320.74 73.28 316.84 71.28 315.24 69.68C314.34 68.78 313.64 67.48 313.64 67.48" />
			<path id="Layer" class="shp5" d="M312.64 74.68C312.64 74.68 310.24 73.68 309.34 72.98C308.44 72.18 307.14 70.08 307.14 70.08" />
			<path id="Layer" class="shp5" d="M306.84 76.68C306.84 76.68 305.04 75.98 304.04 75.08C303.34 74.48 301.94 72.68 301.94 72.68" />
			<path id="Layer" class="shp1" d="M243.64 45.68C243.84 45.08 244.64 45.08 244.84 45.68C245.24 46.78 245.64 47.98 246.14 48.38C246.64 48.88 247.74 49.28 248.84 49.68C249.44 49.88 249.44 50.68 248.84 50.88C247.74 51.28 246.54 51.68 246.14 52.18C245.64 52.68 245.24 53.78 244.84 54.88C244.64 55.48 243.84 55.48 243.64 54.88C243.24 53.78 242.84 52.58 242.34 52.18C241.84 51.68 240.74 51.28 239.64 50.88C239.04 50.68 239.04 49.88 239.64 49.68C240.74 49.28 241.94 48.88 242.34 48.38C242.84 47.88 243.34 46.68 243.64 45.68Z" />
			<path id="Layer" class="shp1" d="M338.34 95.38C338.54 94.78 339.34 94.78 339.54 95.38C339.94 96.48 340.34 97.68 340.84 98.08C341.34 98.48 342.44 98.98 343.54 99.38C344.14 99.58 344.14 100.38 343.54 100.58C342.44 100.98 341.24 101.38 340.84 101.88C340.34 102.38 339.94 103.48 339.54 104.58C339.34 105.18 338.54 105.18 338.34 104.58C337.94 103.48 337.54 102.28 337.04 101.88C336.54 101.38 335.44 100.98 334.34 100.58C333.74 100.38 333.74 99.58 334.34 99.38C335.44 98.98 336.64 98.58 337.04 98.08C337.54 97.68 338.04 96.48 338.34 95.38Z" />
			<path id="Layer" class="shp6" d="M253.74 78.28C253.94 77.78 254.54 77.78 254.64 78.28C254.94 79.18 255.34 80.08 255.64 80.48C256.04 80.88 256.94 81.28 257.84 81.48C258.34 81.68 258.34 82.28 257.84 82.38C256.94 82.68 256.04 83.08 255.64 83.38C255.24 83.78 254.84 84.68 254.64 85.58C254.44 86.08 253.84 86.08 253.74 85.58C253.44 84.68 253.04 83.78 252.74 83.38C252.34 82.98 251.44 82.58 250.54 82.38C250.04 82.18 250.04 81.58 250.54 81.48C251.44 81.18 252.34 80.78 252.74 80.48C253.04 80.18 253.44 79.18 253.74 78.28Z" />
			<path id="Layer" class="shp7" d="M357.34 86.48L354.14 89.98C353.64 90.48 353.64 91.38 354.14 91.98C354.64 92.48 355.34 92.58 355.94 92.28L359.74 89.98L357.34 86.48Z" />
			<path id="Layer" class="shp7" d="M386.54 94.98L387.44 99.68C387.54 100.38 387.14 101.18 386.44 101.38C385.74 101.58 385.04 101.28 384.74 100.58L382.74 96.58L386.54 94.98Z" />
			<path id="Layer" class="shp1" d="M375.84 99.08C387.88 99.08 397.64 89.32 397.64 77.28C397.64 65.24 387.88 55.48 375.84 55.48C363.8 55.48 354.04 65.24 354.04 77.28C354.04 89.32 363.8 99.08 375.84 99.08Z" />
			<path id="Layer" class="shp6" d="M382.57 89.57C389.35 85.84 391.82 77.33 388.1 70.55C384.37 63.78 375.86 61.31 369.08 65.03C362.31 68.75 359.83 77.27 363.56 84.04C367.28 90.82 375.8 93.29 382.57 89.57Z" />
			<path id="Layer" class="shp9" d="M379.74 82.28L375.84 77.28L377.94 70.28" />
			<path id="Layer" class="shp1" d="M361.94 56.18C361.34 56.38 360.64 56.08 360.44 55.38C359.94 52.48 361.54 49.58 364.44 48.48C367.34 47.38 370.44 48.48 372.04 50.98C372.44 51.58 372.14 52.28 371.44 52.58L361.94 56.18Z" />
			<path id="Layer" class="shp1" d="M398.84 66.98C399.24 67.48 400.04 67.58 400.54 67.08C402.54 64.88 402.74 61.58 400.84 59.08C398.94 56.58 395.74 55.88 393.14 57.18C392.54 57.48 392.34 58.28 392.74 58.78L398.84 66.98Z" />
			<path id="Layer" class="shp1" d="M385.74 53.88L380.04 52.28C379.14 51.98 378.54 51.08 378.84 50.08C379.14 49.18 380.04 48.58 381.04 48.88L386.74 50.48C387.64 50.78 388.24 51.68 387.94 52.68C387.64 53.58 386.64 54.18 385.74 53.88Z" />
			<path id="Layer" class="shp1" d="M381.09 51.41L379.52 56.79L383.65 57.99L385.22 52.61L381.09 51.41Z" />
		</g>
		<g id="Folder 7">
			<path id="Layer" class="shp8" d="M181.24 122.78L66.54 153.18C62.34 154.28 58.24 151.48 57.74 147.18L43.44 23.48C43.14 20.48 45.54 17.88 48.54 18.18L165.14 26.28C168.44 26.48 171.14 28.98 171.64 32.28L184.64 117.48C185.14 119.78 183.54 122.18 181.24 122.78Z" />
			<path id="Layer" class="shp7" d="M186.54 123.18L70.64 153.88C66.44 154.98 62.24 152.08 61.74 147.78L47.34 22.78C47.04 19.78 49.44 17.18 52.54 17.38L170.44 25.48C173.74 25.68 176.54 28.18 177.04 31.48L190.24 117.58C190.44 120.18 188.94 122.48 186.54 123.18Z" />
			<path id="Layer" class="shp1" d="M95.84 41.08L67.54 40.68C66.94 40.68 66.54 40.28 66.44 39.68L66.04 36.48C65.94 35.78 66.54 35.18 67.14 35.18L95.54 35.98C96.14 35.98 96.54 36.38 96.64 36.98L97.04 39.88C97.04 40.48 96.54 41.08 95.84 41.08Z" />
			<path id="Layer" class="shp9" d="M67.84 51.68L122.64 50.98" />
			<path id="Layer" class="shp9" d="M69.24 62.78L103.94 61.38" />
			<path id="Layer" class="shp6" d="M82.24 131.18L78.94 131.88C78.24 132.08 77.54 131.58 77.44 130.78L74.14 103.08C74.04 102.38 74.54 101.78 75.24 101.68L78.54 101.18C79.24 101.08 79.84 101.58 79.94 102.28L83.34 129.78C83.24 130.48 82.84 131.08 82.24 131.18Z" />
			<path id="Layer" class="shp1" d="M93.94 127.28L88.44 83.28C88.34 82.58 88.84 81.98 89.54 81.88L92.34 81.58C93.04 81.48 93.64 81.98 93.64 82.68L99.14 126.28C99.24 126.88 98.84 127.48 98.14 127.68L95.24 128.28C94.74 128.48 94.04 127.98 93.94 127.28Z" />
			<path id="Layer" class="shp6" d="M109.24 123.98L107.14 107.78C107.04 107.08 107.54 106.48 108.14 106.38L110.54 105.98C111.24 105.88 111.84 106.38 111.94 107.08L114.04 123.18C114.14 123.78 113.74 124.38 113.04 124.58L110.64 125.08C109.94 125.18 109.24 124.68 109.24 123.98Z" />
			<path id="Layer" class="shp2" d="M126.84 121.58L124.74 121.98C124.04 122.18 123.34 121.68 123.24 120.98L122.04 112.28C121.94 111.58 122.44 110.98 123.04 110.88L125.14 110.48C125.84 110.38 126.54 110.88 126.54 111.58L127.74 120.28C127.84 120.88 127.44 121.48 126.84 121.58Z" />
			<path id="Layer" class="shp1" d="M167.64 109.48L159.04 90.18L166.44 73.08C169.84 76.68 172.34 82.08 173.34 88.18C174.44 96.88 172.14 105.18 167.64 109.48Z" />
			<path id="Layer" class="shp2" d="M166.34 73.08L158.94 90.18L144.44 78.58C146.54 72.68 150.64 68.58 155.74 68.28C159.54 67.98 163.34 69.78 166.34 73.08Z" />
			<path id="Layer" class="shp6" d="M167.64 109.48C166.04 110.98 164.24 111.98 162.24 112.38C153.84 114.18 145.14 105.18 143.34 92.28C142.64 87.18 143.14 82.38 144.44 78.48L158.94 90.08L167.64 109.48Z" />
			<path id="Layer" class="shp13" d="M189.84 28.38C191.64 40.58 184.84 51.68 173.44 53.28C160.34 55.08 146.64 43.78 144.84 28.18C143.14 12.88 153.84 2.38 166.94 4.18C178.44 5.78 188.14 16.38 189.84 28.38Z" />
			<path id="Layer" class="shp6" d="M194.54 26.28C196.34 38.88 189.44 50.38 177.64 51.98C164.04 53.88 149.94 42.18 148.14 26.08C146.34 10.28 157.44 -0.52 170.94 1.28C182.74 2.98 192.74 13.98 194.54 26.28Z" />
			<path id="Layer" class="shp7" d="M178.14 19.28C178.54 22.38 176.64 24.78 173.84 24.78C170.94 24.78 168.14 22.08 167.74 18.88C167.34 15.68 169.44 13.28 172.34 13.48C175.14 13.68 177.74 16.28 178.14 19.28Z" />
			<path id="Layer" class="shp7" d="M180.84 38.88L170.54 39.58C168.04 39.78 165.74 37.68 165.34 34.88C164.54 28.78 168.54 23.98 173.84 24.08C178.84 24.18 183.34 28.68 184.14 34.08C184.34 36.68 182.94 38.78 180.84 38.88Z" />
		</g>
	</g>
</svg>