<svg width="270" height="307" viewBox="0 0 270 307" fill="none" xmlns="http://www.w3.org/2000/svg">
<path d="M228.589 227.111C209.489 227.511 179.489 234.711 161.289 242.111C143.189 249.511 130.789 256.411 130.789 256.411C130.789 256.411 135.089 254.011 140.189 263.811C145.289 273.611 143.489 285.011 143.489 285.011C146.089 284.311 208.089 282.411 227.889 279.811C247.689 277.211 270.589 270.011 269.189 250.711C267.789 231.411 250.789 226.111 227.489 221.811C204.089 217.511 191.189 219.311 189.789 218.911C188.389 218.611 183.889 216.711 181.489 213.811C179.089 210.911 176.589 203.011 176.589 203.011C176.589 203.011 116.189 199.211 110.089 209.411C104.089 219.611 131.389 248.811 131.389 248.811L228.589 227.111Z" fill="#22272E"/>
<path d="M84.5892 201.811C84.5892 201.811 81.2892 209.011 80.0892 211.611C78.8892 214.211 51.1892 215.211 38.7892 215.411C26.3892 215.611 2.08919 220.611 0.18919 238.511C-2.01081 258.911 15.0892 268.411 45.5892 270.611C79.8892 273.111 111.689 272.311 118.389 273.011C125.089 273.711 143.589 265.411 145.689 257.711C147.789 250.011 176.889 244.111 176.889 244.111C176.889 244.111 183.289 212.111 172.789 205.711C162.289 199.211 84.5892 201.811 84.5892 201.811Z" fill="#22272E"/>
<path d="M145.689 250.511C145.689 250.511 88.8891 217.811 43.7891 219.711" stroke="#63737A" stroke-width="1.8" stroke-miterlimit="10" stroke-linecap="round" stroke-linejoin="round"/>
<path d="M130.789 256.511C130.789 256.511 127.989 257.711 129.589 267.311C131.189 276.911 139.989 287.111 143.489 285.111C146.989 283.111 145.189 265.711 141.189 259.911C137.289 254.211 130.789 256.511 130.789 256.511Z" fill="#22272E"/>
<path d="M124.289 259.711C124.289 259.711 118.789 266.411 116.289 268.311C113.789 270.211 102.589 271.011 98.4892 277.411C94.3892 283.811 103.789 298.511 111.389 296.111C109.289 297.411 107.489 298.611 106.089 299.511C99.2892 304.111 86.8892 311.011 78.0892 300.911C70.6892 292.311 73.2892 281.911 78.6892 275.011C84.0892 268.211 97.9892 267.311 101.189 266.411C104.389 265.411 111.689 260.211 114.889 258.311C117.589 256.711 119.589 258.811 124.289 259.711Z" fill="#2A87DB"/>
<path d="M143.689 281.811C143.289 281.911 136.089 283.111 133.089 283.711C130.689 284.211 119.289 290.911 111.289 296.011C103.689 298.411 94.2892 283.711 98.3892 277.311C102.489 270.911 113.689 270.111 116.189 268.211C118.689 266.311 124.189 259.611 124.189 259.611C124.889 259.711 125.689 259.811 126.489 259.911C132.889 260.411 136.189 258.211 136.189 258.211C137.389 259.311 138.689 261.111 139.989 263.711C143.589 270.411 143.889 277.711 143.689 281.811Z" fill="#F4C2C9"/>
<path d="M228.589 227.111C209.489 227.511 179.489 234.711 161.289 242.111C143.189 249.511 130.789 256.411 130.789 256.411" stroke="#63737A" stroke-width="1.8" stroke-miterlimit="10" stroke-linecap="round" stroke-linejoin="round"/>
<path d="M4.28909 228.511C5.48909 227.911 7.28909 227.611 9.78909 228.411C15.1891 230.211 16.9891 242.111 14.2891 249.511C11.5891 257.011 5.58911 256.611 3.58911 254.511" stroke="#63737A" stroke-width="1.8" stroke-miterlimit="10" stroke-linecap="round" stroke-linejoin="round"/>
<path d="M265.689 239.211C265.689 239.211 260.689 233.511 254.789 240.611C248.289 248.311 251.689 261.311 256.889 264.411C262.189 267.511 265.089 264.411 265.089 264.411" stroke="#63737A" stroke-width="1.8" stroke-miterlimit="10" stroke-linecap="round" stroke-linejoin="round"/>
<path d="M47.3892 98.1112C47.3892 98.7112 46.8892 99.2112 46.2892 99.2112C45.6892 99.2112 45.1892 98.7112 45.1892 98.1112C45.1892 97.5112 45.6892 97.0112 46.2892 97.0112C46.8892 97.0112 47.3892 97.5112 47.3892 98.1112Z" stroke="#22272E" stroke-width="1.8" stroke-miterlimit="10" stroke-linecap="round" stroke-linejoin="round"/>
<path d="M69.1894 79.4113C67.0894 86.4113 64.8894 89.4113 65.0894 95.8113C52.3894 99.5113 43.9894 91.6113 43.9894 91.6113C44.5894 88.9113 44.8894 86.8113 44.4894 85.5113C43.2894 80.7113 36.7894 78.5113 32.2894 72.5113C27.7894 66.5113 27.3894 55.9113 29.5894 54.6113C30.5894 54.0113 31.5894 54.2113 33.0894 59.2113C33.9894 62.1113 35.2894 64.7113 35.5894 65.1113C33.4894 60.3113 32.5894 44.5113 38.3894 46.9113C40.2894 47.7113 38.0894 51.1113 40.3894 57.2113C42.4894 63.0113 46.3894 65.2113 46.3894 65.2113C46.3894 65.2113 45.6894 60.5113 48.2894 56.8113C50.4894 53.7113 56.0894 50.2113 57.0894 53.5113C58.1894 56.7113 53.0894 57.9113 52.6894 62.0113C52.0894 66.9113 57.5894 70.7113 61.2894 67.5113C64.9894 64.3113 62.8894 60.7113 61.2894 58.4113C59.6894 56.2113 57.1894 53.3113 58.9894 52.0113C60.7894 50.8113 65.2894 52.2113 68.4894 57.7113C71.5894 63.1113 71.2894 72.4113 69.1894 79.4113Z" fill="#F4C2C9"/>
<path d="M89.4893 151.111C89.4893 151.111 66.9893 179.511 52.1893 185.911C37.3893 192.311 27.3893 187.811 24.4893 172.311C21.5893 156.811 30.7893 129.111 34.7893 118.911C37.6893 111.311 42.2893 99.3113 43.9893 91.7113C43.9893 91.7113 52.4893 99.5113 65.0893 95.9113C65.1893 102.011 62.3893 124.511 62.0893 126.611C62.1893 125.911 63.3893 122.611 71.7893 110.811C81.4893 97.3113 91.1893 91.4113 91.1893 91.4113C91.1893 91.4113 99.3893 95.3113 101.789 113.611C104.089 132.011 89.4893 151.111 89.4893 151.111Z" fill="#2A87DB"/>
<path d="M62.0892 126.611C62.0892 126.611 61.1892 152.211 57.8892 160.511" stroke="#22272E" stroke-width="1.8" stroke-miterlimit="10" stroke-linecap="round" stroke-linejoin="round"/>
<path d="M46.2893 65.3113C46.2893 65.3113 46.6893 68.1113 47.8893 69.7113" stroke="#E26E85" stroke-width="1.8" stroke-miterlimit="10" stroke-linecap="round" stroke-linejoin="round"/>
<path d="M41.6892 99.6113C41.6892 99.6113 47.3892 107.811 64.4892 105.411" stroke="#22272E" stroke-width="1.8" stroke-miterlimit="10" stroke-linecap="round" stroke-linejoin="round"/>
<path d="M27.3893 181.011C27.3893 181.011 24.7893 172.111 34.3893 170.011C44.0893 167.911 55.6893 181.811 48.2893 187.311" stroke="#22272E" stroke-width="1.8" stroke-miterlimit="10" stroke-linecap="round" stroke-linejoin="round"/>
<path d="M35.4893 65.3113C35.4893 65.3113 36.5893 67.8113 38.9893 70.2113C39.9893 71.2113 41.3893 72.2113 41.9893 73.5113" stroke="#E26E85" stroke-width="1.8" stroke-miterlimit="10" stroke-linecap="round" stroke-linejoin="round"/>
<path d="M154.889 4.81135C166.289 7.71135 171.689 14.2113 171.189 30.6113C170.689 47.0113 168.489 52.9113 176.289 62.0113C184.089 71.0113 186.189 83.9113 171.389 92.0113C156.589 100.111 124.189 102.211 108.089 92.0113C91.9893 81.8113 90.0893 70.9113 94.8893 60.2113C99.6893 49.5113 112.489 42.5114 109.689 34.8114C106.889 27.0114 110.289 35.5113 110.289 35.5113C110.289 35.5113 101.889 29.4113 102.589 17.2113C103.189 5.01135 118.189 0.411334 125.989 0.0113342C129.989 -0.188666 134.289 2.31135 140.189 3.31135C146.089 4.11135 151.989 4.11135 154.889 4.81135Z" fill="#22272E"/>
<path d="M130.989 82.6113C130.989 82.6113 109.389 83.8113 96.7893 88.3113C84.1893 92.8113 86.4893 102.811 84.8893 113.311C83.1893 123.811 72.9893 134.511 78.1893 148.811C83.3893 163.111 88.4893 171.211 85.7893 182.211C83.1893 193.211 80.5893 198.711 80.9893 201.811C81.4893 204.911 95.7893 214.411 101.289 216.311C106.789 218.211 117.489 210.611 117.489 210.611C117.489 210.611 122.989 217.811 130.989 219.411C138.989 221.111 171.389 212.711 178.789 204.411C178.789 204.411 173.989 195.111 173.789 183.911C173.589 172.711 180.089 158.811 182.489 151.111C184.789 143.411 198.389 113.711 193.089 103.811C189.289 96.7113 160.889 80.7113 130.989 82.6113Z" fill="#D4F0FC"/>
<path d="M193.489 104.911C193.489 104.911 203.789 115.211 211.889 131.911C211.889 131.911 212.389 97.3114 213.089 94.9114C213.089 94.9114 223.789 97.5114 234.589 93.2114C234.589 93.2114 237.489 119.911 241.789 140.211C246.089 160.511 250.889 190.811 236.289 194.811C221.789 198.911 208.389 189.611 190.689 165.911C173.089 142.311 174.489 130.411 174.489 124.411C174.389 117.311 183.989 99.1114 193.489 104.911Z" fill="#2A87DB"/>
<path d="M211.889 132.011C211.889 132.011 211.189 153.511 213.789 167.111" stroke="#22272E" stroke-width="1.8" stroke-miterlimit="10" stroke-linecap="round" stroke-linejoin="round"/>
<path d="M212.489 104.311C212.489 104.311 225.289 108.311 235.489 101.811" stroke="#22272E" stroke-width="1.8" stroke-miterlimit="10" stroke-linecap="round" stroke-linejoin="round"/>
<path d="M231.589 99.2113C231.589 99.8113 231.089 100.311 230.489 100.311C229.889 100.311 229.389 99.8113 229.389 99.2113C229.389 98.6113 229.889 98.1113 230.489 98.1113C231.189 98.1113 231.589 98.6113 231.589 99.2113Z" stroke="#22272E" stroke-width="1.8" stroke-miterlimit="10" stroke-linecap="round" stroke-linejoin="round"/>
<path d="M233.789 93.6114C233.789 93.6114 232.789 86.5114 237.589 84.2114C242.389 81.9114 246.789 83.0114 251.689 79.4114C256.589 75.9114 264.889 64.4114 264.589 61.9114C264.189 59.4114 262.489 60.5114 259.189 63.2114C255.989 65.9114 254.389 66.5114 254.389 66.5114C254.389 66.5114 256.389 59.7114 255.489 54.7114C254.489 49.7114 251.189 49.1114 250.389 49.6114C249.589 50.1114 250.389 52.2114 250.189 56.2114C249.989 60.1114 248.789 63.5114 245.289 66.0114C245.289 66.0114 246.089 62.8114 244.589 59.0114C242.989 55.2114 240.289 52.7114 238.189 53.3114C236.089 53.9114 236.789 55.5114 237.789 57.7114C238.889 59.9114 240.389 63.9114 236.189 68.1114C231.989 72.3114 225.189 68.1114 227.489 62.5114C229.789 56.9114 233.289 55.6114 235.089 54.1114C236.889 52.6114 236.389 49.9114 232.589 50.5114C228.789 51.1114 222.289 55.7114 218.489 60.8114C214.689 65.8114 213.589 72.8114 213.489 79.6114C213.389 86.4114 213.089 95.1114 213.089 95.1114C213.089 95.1114 215.589 98.2114 221.089 98.2114C226.589 98.1114 233.789 96.1114 233.789 93.6114Z" fill="#F4C2C9"/>
<path d="M254.389 66.6113C254.389 66.6113 252.689 71.3113 250.289 75.1113" stroke="#E26E85" stroke-width="1.8" stroke-miterlimit="10" stroke-linecap="round" stroke-linejoin="round"/>
<path d="M245.189 66.0114C245.189 66.0114 244.789 70.0114 241.989 73.8114" stroke="#E26E85" stroke-width="1.8" stroke-miterlimit="10" stroke-linecap="round" stroke-linejoin="round"/>
<path d="M221.589 194.411C221.589 194.411 219.089 190.411 225.189 184.311C231.289 178.211 244.289 178.911 244.689 185.211" stroke="#22272E" stroke-width="1.8" stroke-miterlimit="10" stroke-linecap="round" stroke-linejoin="round"/>
<path d="M124.489 81.2114C124.489 81.2114 118.889 80.9114 115.389 88.5114C111.889 96.1114 112.889 111.711 116.689 114.111C120.489 116.511 130.689 106.211 130.689 106.211C130.689 106.211 139.289 117.811 145.489 117.311C151.689 116.811 159.489 105.711 158.989 93.5114C158.489 81.3114 153.489 79.9114 150.789 79.6114C148.189 79.1114 124.489 81.2114 124.489 81.2114Z" fill="white"/>
<path d="M130.689 106.111C130.689 106.111 110.989 127.911 110.789 132.011C110.589 136.111 117.289 137.411 119.089 136.511C120.889 135.511 132.689 105.811 130.689 106.111Z" fill="white"/>
<path d="M130.489 108.811C130.489 108.811 133.889 133.011 136.089 136.811C138.289 140.611 145.289 134.911 144.489 131.611C143.689 128.311 134.189 109.011 130.689 106.211C127.189 103.311 130.489 108.811 130.489 108.811Z" fill="white"/>
<path d="M154.889 59.9113C154.889 59.9113 152.689 73.6113 154.289 83.9113C154.289 83.9113 144.789 105.011 130.789 105.011C123.889 105.011 121.689 90.8114 122.889 85.2114L124.989 69.6114C124.989 69.6114 138.989 45.4113 154.889 59.9113Z" fill="#F4C2C9"/>
<path d="M143.389 74.4114C137.389 78.0114 130.789 79.8114 123.789 78.4114L122.989 84.3114C130.589 82.8114 138.289 80.6114 143.389 74.4114Z" fill="#E26E85"/>
<path d="M111.289 30.4113C111.289 30.4113 111.789 38.2113 110.489 50.9113C109.189 63.6113 109.689 71.9113 120.489 77.3113C131.289 82.7113 148.789 77.8113 155.189 62.4113C161.589 47.0113 170.089 17.7113 147.089 13.3113C124.089 8.91135 110.989 14.4113 111.289 30.4113Z" fill="#F4C2C9"/>
<path d="M127.289 20.3114C127.289 20.3114 131.689 35.1113 141.489 38.9113C151.389 42.7113 149.789 51.9114 154.689 50.8114C159.589 49.7114 163.389 45.7114 166.689 49.6114C169.989 53.4114 170.289 19.2114 153.389 13.3114C136.489 7.41137 118.589 7.11135 113.289 12.5113C108.089 17.9113 109.889 35.2114 109.889 35.2114C109.889 35.2114 120.689 32.7114 127.289 20.3114Z" fill="#22272E"/>
<path d="M155.789 50.9113C155.789 50.9113 158.089 45.2113 162.989 46.2113C167.789 47.2113 167.489 62.7113 154.989 61.9113" fill="#F4C2C9"/>
<path d="M120.789 45.6113C121.389 46.9113 121.389 48.4113 120.989 49.8113C120.789 50.5113 120.489 51.2113 120.089 51.8113C119.889 52.1113 119.689 52.4113 119.489 52.7113C119.389 52.9113 119.189 53.2113 119.089 53.4113C118.689 54.3113 118.889 55.3113 119.489 56.3113C120.189 57.2113 121.189 58.1113 122.489 58.4113C121.789 58.7113 121.089 58.6113 120.389 58.4113C119.689 58.2113 118.989 57.8113 118.489 57.3113C117.889 56.8113 117.489 56.1113 117.189 55.3113C116.989 54.5113 117.089 53.6113 117.389 52.8113C117.589 52.4113 117.789 52.1113 117.989 51.8113C118.189 51.5113 118.389 51.3113 118.589 51.0113C118.989 50.5113 119.289 50.0113 119.589 49.4113C120.189 48.2113 120.689 47.0113 120.789 45.6113Z" fill="#22272E"/>
<path d="M128.189 65.1114C128.189 65.1114 133.189 66.5114 136.189 61.4114" stroke="#22272E" stroke-width="1.8" stroke-miterlimit="10" stroke-linecap="round" stroke-linejoin="round"/>
<path d="M134.589 45.6113C134.589 45.6113 134.989 47.8113 138.789 48.2113C141.989 48.6113 143.489 46.0113 143.489 46.0113" stroke="#22272E" stroke-width="1.8" stroke-miterlimit="10" stroke-linecap="round" stroke-linejoin="round"/>
<path d="M118.989 44.0114C118.989 44.0114 115.989 46.4114 113.589 43.4114" stroke="#22272E" stroke-width="1.8" stroke-miterlimit="10" stroke-linecap="round" stroke-linejoin="round"/>
<path d="M121.789 34.5114C121.989 33.2114 120.489 31.0114 118.489 30.4114C116.489 29.8114 113.289 32.6114 113.589 33.8114C113.989 35.0114 115.889 33.2114 117.689 33.4114C119.289 33.6114 121.589 35.6114 121.789 34.5114Z" fill="#22272E"/>
<path d="M145.689 36.7113C145.889 35.4113 144.389 33.2113 142.389 32.6113C140.389 32.0113 137.189 34.8113 137.489 36.0113C137.889 37.2113 139.789 35.4113 141.589 35.6113C143.289 35.8113 145.589 37.8113 145.689 36.7113Z" fill="#22272E"/>
<path d="M162.589 50.9114C161.589 51.2114 160.789 51.7114 160.489 52.3114C160.389 52.6114 160.289 52.9114 160.289 53.3114C160.289 53.5114 160.289 53.7114 160.289 53.9114C160.289 54.2114 160.289 54.4114 160.289 54.7114C160.289 55.3114 160.189 55.9114 159.989 56.4114C159.789 57.0114 159.289 57.6114 158.689 57.8114C157.489 58.3114 156.389 58.0114 155.389 57.5114C156.389 57.2114 157.389 57.0114 157.889 56.5114C158.389 56.1114 158.489 55.4114 158.489 54.5114C158.489 54.3114 158.489 54.1114 158.489 53.8114C158.489 53.5114 158.489 53.2114 158.489 52.9114C158.589 52.3114 158.789 51.6114 159.289 51.2114C160.389 50.5114 161.689 50.5114 162.589 50.9114Z" fill="#22272E"/>
<path d="M111.989 53.8114C116.904 53.8114 120.889 49.4686 120.889 44.1114C120.889 38.7542 116.904 34.4114 111.989 34.4114C107.074 34.4114 103.089 38.7542 103.089 44.1114C103.089 49.4686 107.074 53.8114 111.989 53.8114Z" stroke="#22272E" stroke-width="1.8" stroke-miterlimit="10" stroke-linecap="round" stroke-linejoin="round"/>
<path d="M147.838 48.5268C148.75 42.9116 144.936 37.6209 139.321 36.7096C133.706 35.7983 128.415 39.6115 127.504 45.2267C126.593 50.8418 130.406 56.1326 136.021 57.0439C141.636 57.9552 146.927 54.1419 147.838 48.5268Z" stroke="#22272E" stroke-width="1.8" stroke-miterlimit="10" stroke-linecap="round" stroke-linejoin="round"/>
<path d="M120.889 44.9114C120.889 44.9114 122.489 43.2114 127.489 45.3114" stroke="#22272E" stroke-width="1.8" stroke-miterlimit="10" stroke-linecap="round" stroke-linejoin="round"/>
<path d="M147.989 46.9114L157.789 47.8114" stroke="#22272E" stroke-width="1.8" stroke-miterlimit="10" stroke-linecap="round" stroke-linejoin="round"/>
<path d="M160.189 59.5113L156.789 65.4113C156.389 66.2113 156.889 67.1113 157.789 67.1113H164.589C165.489 67.1113 165.989 66.2113 165.589 65.4113L162.189 59.5113C161.689 58.8113 160.589 58.8113 160.189 59.5113Z" fill="#D4F0FC"/>
</svg>
