<svg width="23" height="25" viewBox="0 0 23 25" fill="none" xmlns="http://www.w3.org/2000/svg">
<path opacity="0.4" d="M1.10791 9.4456H21.9025" stroke="white" stroke-width="1.5" stroke-linecap="round" stroke-linejoin="round"/>
<path opacity="0.4" d="M6.31641 18.4492H6.32721M16.6813 13.9583H16.6921H16.6813ZM11.5042 13.9583H11.515H11.5042ZM6.31641 13.9583H6.32721H6.31641ZM16.6813 18.4492H16.6921H16.6813ZM11.5042 18.4492H11.515H11.5042Z" stroke="white" stroke-width="1.5" stroke-linecap="round" stroke-linejoin="round"/>
<path d="M16.2168 0.890007V4.6925" stroke="white" stroke-width="1.5" stroke-linecap="round" stroke-linejoin="round"/>
<path d="M6.79297 0.890007V4.6925" stroke="white" stroke-width="1.5" stroke-linecap="round" stroke-linejoin="round"/>
<path fill-rule="evenodd" clip-rule="evenodd" d="M16.4446 2.71477H6.56611C3.13998 2.71477 1 4.60509 1 8.07978V18.5366C1 22.066 3.13998 24 6.56611 24H16.4338C19.8707 24 22 22.0988 22 18.6241V8.07978C22.0107 4.60509 19.8816 2.71477 16.4446 2.71477Z" stroke="white" stroke-width="1.5" stroke-linecap="round" stroke-linejoin="round"/>
</svg>
