<svg width="32" height="32" viewBox="0 0 32 32" fill="none" xmlns="http://www.w3.org/2000/svg">
<path fill-rule="evenodd" clip-rule="evenodd" d="M23.037 18.519C23.9366 18.519 24.6917 19.2614 24.5542 20.1499C23.7472 25.3765 19.2728 29.2572 13.8763 29.2572C7.90571 29.2572 3.06641 24.4179 3.06641 18.4488C3.06641 13.5309 6.80255 8.94986 11.0089 7.91407C11.9128 7.69091 12.8391 8.3267 12.8391 9.25723C12.8391 15.5618 13.051 17.1927 14.2482 18.0797C15.4454 18.9667 16.8531 18.519 23.037 18.519Z" stroke="black" stroke-width="1.5" stroke-linecap="round" stroke-linejoin="round"/>
<path fill-rule="evenodd" clip-rule="evenodd" d="M28.9233 13.2688C28.9949 9.21832 24.0195 2.6892 17.9563 2.80148C17.4847 2.8099 17.1072 3.20288 17.0862 3.67306C16.9332 7.00358 17.1395 11.3194 17.2546 13.2759C17.2897 13.885 17.7683 14.3636 18.376 14.3987C20.3872 14.5138 24.8602 14.671 28.143 14.1741C28.5893 14.1067 28.9163 13.7194 28.9233 13.2688Z" stroke="#0BAF9A" stroke-width="1.5" stroke-linecap="round" stroke-linejoin="round"/>
</svg>
