<svg width="32" height="32" viewBox="0 0 32 32" fill="none" xmlns="http://www.w3.org/2000/svg">
<path fill-rule="evenodd" clip-rule="evenodd" d="M6.3925 9.40773C6.3925 7.7424 7.74317 6.39173 9.40717 6.39173H10.7792C11.5738 6.39173 12.3378 6.07707 12.9032 5.51573L13.8618 4.55573C15.0365 3.37573 16.9458 3.3704 18.1258 4.54507L18.1378 4.55573L19.0978 5.51573C19.6618 6.07707 20.4258 6.39173 21.2218 6.39173H22.5925C24.2578 6.39173 25.6085 7.7424 25.6085 9.40773V10.7771C25.6085 11.5744 25.9232 12.3371 26.4845 12.9024L27.4445 13.8624C28.6245 15.0371 28.6312 16.9451 27.4565 18.1264L27.4445 18.1384L26.4845 19.0984C25.9232 19.6611 25.6085 20.4264 25.6085 21.2211V22.5931C25.6085 24.2584 24.2578 25.6077 22.5925 25.6077H21.2218C20.4258 25.6077 19.6618 25.9237 19.0978 26.4851L18.1378 27.4437C16.9645 28.6251 15.0552 28.6304 13.8738 27.4557C13.8698 27.4517 13.8658 27.4477 13.8618 27.4437L12.9032 26.4851C12.3378 25.9237 11.5738 25.6077 10.7792 25.6077H9.40717C7.74317 25.6077 6.3925 24.2584 6.3925 22.5931V21.2211C6.3925 20.4264 6.0765 19.6611 5.51517 19.0984L4.5565 18.1384C3.37517 16.9637 3.36984 15.0544 4.5445 13.8744L4.5565 13.8624L5.51517 12.9024C6.0765 12.3371 6.3925 11.5744 6.3925 10.7771V9.40773Z" stroke="#222222" stroke-width="1.5" stroke-linecap="round" stroke-linejoin="round"/>
<path d="M12.5732 19.426L19.4266 12.5727" stroke="#222222" stroke-width="1.5" stroke-linecap="round" stroke-linejoin="round"/>
<path d="M19.4229 19.9299C19.2903 19.9299 19.1637 19.8769 19.0697 19.783C19.04 19.7532 19.0033 19.698 18.9598 19.6001C18.9336 19.5413 18.9229 19.4916 18.9229 19.4299C18.9229 19.3618 18.9367 19.2982 18.9598 19.2463C18.9943 19.1686 19.0293 19.1172 19.0697 19.0767C19.2478 18.8987 19.5979 18.8987 19.776 19.0767C19.8291 19.1299 19.8662 19.1804 19.8899 19.2267C19.9115 19.2982 19.9229 19.3682 19.9229 19.4299C19.9229 19.4881 19.9132 19.5454 19.8898 19.6203C19.8597 19.6817 19.818 19.741 19.776 19.783C19.682 19.8769 19.5554 19.9299 19.4229 19.9299Z" fill="black" stroke="#222222"/>
<path d="M12.1882 12.2499L12.1996 12.2401L12.2106 12.2295C12.4068 12.0393 12.7472 12.0481 12.9218 12.2233L12.9237 12.2252C13.0157 12.3166 13.0693 12.4435 13.0693 12.5771C13.0693 12.6749 13.0594 12.716 13.0453 12.7483C13.0231 12.798 12.9842 12.8564 12.9123 12.94C12.8751 12.9746 12.8268 13.006 12.7529 13.0388C12.698 13.0632 12.634 13.0771 12.5693 13.0771C12.512 13.0771 12.4609 13.0663 12.3991 13.0388C12.3084 12.9985 12.2561 12.9659 12.2259 12.9393C12.1738 12.8771 12.1375 12.8175 12.1067 12.7483C12.0797 12.6867 12.0693 12.6365 12.0693 12.5771C12.0693 12.508 12.083 12.4457 12.1062 12.3935C12.1273 12.3462 12.1459 12.3105 12.1628 12.2838C12.1789 12.2585 12.1882 12.2499 12.1882 12.2499Z" fill="black" stroke="#222222"/>
</svg>
