<svg width="37" height="39" viewBox="0 0 37 39" fill="none" xmlns="http://www.w3.org/2000/svg">
<path d="M14.4155 23.8847C13.3973 22.8133 12.7775 21.3573 12.7775 19.7241C12.7775 16.4519 15.2779 13.8145 18.3805 13.8145C19.9158 13.8145 21.329 14.4696 22.3295 15.541" stroke="#0BAF9A" stroke-width="2" stroke-linecap="round" stroke-linejoin="round"/>
<path d="M23.8793 20.7715C23.4684 23.1794 21.6692 25.0796 19.3866 25.5163" stroke="#0BAF9A" stroke-width="2" stroke-linecap="round" stroke-linejoin="round"/>
<path d="M8.91522 29.6815C6.10486 27.3557 3.72482 23.9585 2 19.7232C3.74253 15.4693 6.13851 12.0534 8.96658 9.709C11.7769 7.36456 15.0194 6.09155 18.3805 6.09155C21.7611 6.09155 25.0018 7.38323 27.8298 9.74446" stroke="#222222" stroke-width="2" stroke-linecap="round" stroke-linejoin="round"/>
<path d="M31.5699 13.8499C32.7883 15.5559 33.8597 17.5252 34.761 19.7221C31.2778 28.2282 25.1222 33.3519 18.3806 33.3519C16.8523 33.3519 15.3453 33.0906 13.8967 32.581" stroke="#222222" stroke-width="2" stroke-linecap="round" stroke-linejoin="round"/>
<path d="M32.348 5L4.41443 34.4435" stroke="#222222" stroke-width="2" stroke-linecap="round" stroke-linejoin="round"/>
</svg>
