<svg width="32" height="32" viewBox="0 0 32 32" fill="none" xmlns="http://www.w3.org/2000/svg">
<path d="M12.0587 26.7233V23.0109C12.0587 22.0667 12.8285 21.2994 13.7823 21.2931H17.2759C18.2343 21.2931 19.0111 22.0622 19.0111 23.0109V26.7348C19.0109 27.5365 19.6573 28.1917 20.4668 28.2105H22.7959C25.1178 28.2105 27 26.3471 27 24.0485V13.4879C26.9876 12.5836 26.5587 11.7345 25.8354 11.1821L17.8699 4.82958C16.4744 3.72347 14.4907 3.72347 13.0952 4.82958L5.16456 11.1936C4.43852 11.7438 4.00894 12.5943 4 13.4994V24.0485C4 26.3471 5.88222 28.2105 8.20405 28.2105H10.5332C11.3629 28.2105 12.0354 27.5447 12.0354 26.7233" stroke="#222222" stroke-width="1.5" stroke-linecap="round" stroke-linejoin="round"/>
</svg>
