<svg width="32" height="32" viewBox="0 0 32 32" fill="none" xmlns="http://www.w3.org/2000/svg">
<path fill-rule="evenodd" clip-rule="evenodd" d="M6 14.4697C6.01921 8.81554 10.6183 4.24754 16.2725 4.26669C21.9266 4.28596 26.4946 8.8851 26.4754 14.5392V14.6552C26.4058 18.3305 24.3536 21.7276 21.8377 24.3827C20.3988 25.8769 18.792 27.1997 17.0493 28.3247C16.5833 28.7278 15.8921 28.7278 15.4261 28.3247C12.8281 26.6337 10.5479 24.4988 8.68985 22.0175C7.0338 19.8538 6.09355 17.2276 6 14.5044V14.4697Z" stroke="#222222" stroke-width="1.5" stroke-linecap="round" stroke-linejoin="round"/>
<path d="M16.2377 17.9479C18.0498 17.9479 19.5188 16.4789 19.5188 14.6667C19.5188 12.8546 18.0498 11.3856 16.2377 11.3856C14.4255 11.3856 12.9565 12.8546 12.9565 14.6667C12.9565 16.4789 14.4255 17.9479 16.2377 17.9479Z" stroke="#0BAF9A" stroke-width="1.5" stroke-linecap="round" stroke-linejoin="round"/>
</svg>
