<svg width="32" height="32" viewBox="0 0 32 32" fill="none" xmlns="http://www.w3.org/2000/svg">
<path fill-rule="evenodd" clip-rule="evenodd" d="M21.6225 4H10.3762C6.45708 4 4 6.77492 4 10.7018V21.2982C4 25.2251 6.44541 28 10.3762 28H21.6212C25.5533 28 28 25.2251 28 21.2982V10.7018C28 6.77492 25.5533 4 21.6225 4Z" stroke="#222222" stroke-width="1.5" stroke-linecap="round" stroke-linejoin="round"/>
<path fill-rule="evenodd" clip-rule="evenodd" d="M14.3039 16C14.3039 17.3258 13.2284 18.4026 11.9013 18.4026C10.5755 18.4026 9.5 17.3258 9.5 16C9.5 14.6742 10.5755 13.5974 11.9013 13.5974C13.2284 13.5974 14.3039 14.6742 14.3039 16Z" stroke="#222222" stroke-width="1.5" stroke-linecap="round" stroke-linejoin="round"/>
<path d="M14.3037 16H22.5V18.4026" stroke="#222222" stroke-width="1.5" stroke-linecap="round" stroke-linejoin="round"/>
<path d="M18.8301 18.402V15.9994" stroke="#222222" stroke-width="1.5" stroke-linecap="round" stroke-linejoin="round"/>
</svg>
