<svg width="32" height="32" viewBox="0 0 32 32" fill="none" xmlns="http://www.w3.org/2000/svg">
<path d="M14.6666 23.3334H5.33325" stroke="#0BAF9A" stroke-width="2" stroke-linecap="round" stroke-linejoin="round"/>
<path fill-rule="evenodd" clip-rule="evenodd" d="M26.6667 23.3333C26.6667 25.1743 25.1743 26.6667 23.3333 26.6667C21.4924 26.6667 20 25.1743 20 23.3333C20 21.491 21.4924 20 23.3333 20C25.1743 20 26.6667 21.491 26.6667 23.3333Z" stroke="black" stroke-width="2" stroke-linecap="round" stroke-linejoin="round"/>
<path d="M17.3333 8.66675H26.6666" stroke="#0BAF9A" stroke-width="2" stroke-linecap="round" stroke-linejoin="round"/>
<path fill-rule="evenodd" clip-rule="evenodd" d="M5.33325 8.66671C5.33325 10.509 6.82563 12 8.66659 12C10.5075 12 11.9999 10.509 11.9999 8.66671C11.9999 6.82575 10.5075 5.33337 8.66659 5.33337C6.82563 5.33337 5.33325 6.82575 5.33325 8.66671Z" stroke="black" stroke-width="2" stroke-linecap="round" stroke-linejoin="round"/>
</svg>
