<svg width="32" height="32" viewBox="0 0 32 32" fill="none" xmlns="http://www.w3.org/2000/svg">
<path fill-rule="evenodd" clip-rule="evenodd" d="M27.7422 10.1648L26.9123 8.72465C26.2102 7.50608 24.6542 7.08571 23.434 7.7849C22.8532 8.12707 22.1601 8.22415 21.5076 8.05473C20.8551 7.88531 20.2968 7.46331 19.9557 6.88178C19.7364 6.51215 19.6185 6.09114 19.614 5.66134C19.6338 4.97224 19.3738 4.30449 18.8933 3.81018C18.4128 3.31587 17.7527 3.0371 17.0633 3.03738H15.3913C14.7159 3.03738 14.0684 3.3065 13.592 3.78521C13.1155 4.26392 12.8495 4.91274 12.8528 5.58811C12.8328 6.98252 11.6966 8.10236 10.3021 8.10222C9.87224 8.09776 9.45124 7.97987 9.08161 7.7605C7.86138 7.0613 6.30545 7.48168 5.60335 8.70024L4.71243 10.1648C4.01118 11.3818 4.42583 12.9368 5.63996 13.643C6.42917 14.0987 6.91534 14.9407 6.91534 15.852C6.91534 16.7633 6.42917 17.6054 5.63996 18.061C4.42737 18.7625 4.01227 20.3137 4.71243 21.5271L5.55453 22.9794C5.88349 23.573 6.43543 24.011 7.08822 24.1965C7.74101 24.3821 8.44082 24.2998 9.03279 23.968C9.61474 23.6284 10.3082 23.5354 10.9591 23.7095C11.6099 23.8837 12.1643 24.3107 12.4988 24.8955C12.7182 25.2651 12.8361 25.6861 12.8406 26.1159C12.8406 27.5247 13.9826 28.6667 15.3913 28.6667H17.0633C18.4673 28.6667 19.6073 27.5321 19.614 26.1282C19.6108 25.4507 19.8784 24.8 20.3575 24.3209C20.8366 23.8419 21.4873 23.5742 22.1647 23.5774C22.5935 23.5889 23.0128 23.7063 23.3852 23.9192C24.6022 24.6204 26.1572 24.2057 26.8634 22.9916L27.7422 21.5271C28.0823 20.9433 28.1756 20.248 28.0016 19.5951C27.8275 18.9423 27.4003 18.3858 26.8146 18.0488C26.229 17.7119 25.8018 17.1554 25.6277 16.5025C25.4536 15.8497 25.547 15.1544 25.8871 14.5706C26.1083 14.1844 26.4285 13.8642 26.8146 13.643C28.0215 12.9371 28.4352 11.3913 27.7422 10.177V10.1648Z" stroke="#222222" stroke-width="1.5" stroke-linecap="round" stroke-linejoin="round"/>
<path d="M16.2334 19.3669C18.1746 19.3669 19.7483 17.7932 19.7483 15.852C19.7483 13.9108 18.1746 12.3372 16.2334 12.3372C14.2922 12.3372 12.7185 13.9108 12.7185 15.852C12.7185 17.7932 14.2922 19.3669 16.2334 19.3669Z" stroke="#0BAF9A" stroke-width="1.5" stroke-linecap="round" stroke-linejoin="round"/>
</svg>
