<svg width="25" height="26" viewBox="0 0 25 26" fill="none" xmlns="http://www.w3.org/2000/svg">
<path d="M8.93419 23.5257V19.8456C8.93417 18.9096 9.69207 18.149 10.6311 18.1427H14.0708C15.0143 18.1427 15.7791 18.9051 15.7791 19.8456V23.5371C15.7789 24.3318 16.4153 24.9814 17.2123 25H19.5055C21.7914 25 23.6445 23.1528 23.6445 20.8742V10.4054C23.6323 9.50899 23.2101 8.66722 22.498 8.11964L14.6555 1.82236C13.2816 0.72588 11.3285 0.72588 9.95463 1.82236L2.14656 8.13107C1.43175 8.67643 1.0088 9.5196 1 10.4168V20.8742C1 23.1528 2.85313 25 5.13908 25H7.4322C8.24906 25 8.91126 24.3399 8.91126 23.5257" stroke="#0BAF9A" stroke-width="1.5" stroke-linecap="round" stroke-linejoin="round"/>
</svg>
