<svg width="32" height="32" viewBox="0 0 32 32" fill="none" xmlns="http://www.w3.org/2000/svg">
<path d="M18.4668 5.66707V8.89374" stroke="#222222" stroke-width="1.5" stroke-linecap="round" stroke-linejoin="round"/>
<path d="M18.4668 23.6801V26.3788" stroke="#222222" stroke-width="1.5" stroke-linecap="round" stroke-linejoin="round"/>
<path d="M18.4668 19.0995V12.6715" stroke="#222222" stroke-width="1.5" stroke-linecap="round" stroke-linejoin="round"/>
<path fill-rule="evenodd" clip-rule="evenodd" d="M24.9365 26.6667C27.3659 26.6667 29.3337 24.7234 29.3337 22.3242V18.8675C27.7261 18.8675 26.4314 17.5889 26.4314 16.0014C26.4314 14.4138 27.7261 13.1339 29.3337 13.1339L29.3323 9.6758C29.3323 7.27659 27.3631 5.33333 24.9351 5.33333H7.06555C4.63751 5.33333 2.66838 7.27659 2.66838 9.6758L2.66699 13.2465C4.27456 13.2465 5.56923 14.4138 5.56923 16.0014C5.56923 17.5889 4.27456 18.8675 2.66699 18.8675V22.3242C2.66699 24.7234 4.63473 26.6667 7.06416 26.6667H24.9365Z" stroke="#222222" stroke-width="1.5" stroke-linecap="round" stroke-linejoin="round"/>
</svg>
