<svg width="32" height="32" viewBox="0 0 32 32" fill="none" xmlns="http://www.w3.org/2000/svg">
<path fill-rule="evenodd" clip-rule="evenodd" d="M23.8097 27.2224C26.3097 27.2224 28.3337 25.1971 28.3337 22.6984V19.0984C26.6803 19.0984 25.347 17.7651 25.347 16.1131C25.347 14.4597 26.6803 13.1277 28.3337 13.1277L28.331 9.52374C28.331 7.02507 26.307 4.99974 23.8083 4.99974H8.19233C5.69366 4.99974 3.66833 7.02507 3.66833 9.52374L3.66699 13.2437C5.31899 13.2437 6.65233 14.4597 6.65233 16.1131C6.65233 17.7651 5.31899 19.0984 3.66699 19.0984V22.6984C3.66699 25.1971 5.69099 27.2224 8.18966 27.2224H23.8097Z" stroke="#222222" stroke-width="1.5" stroke-linecap="round" stroke-linejoin="round"/>
<path fill-rule="evenodd" clip-rule="evenodd" d="M15.9994 18.4724L18.3194 19.6924C18.5368 19.8057 18.7914 19.6217 18.7501 19.3804L18.3061 16.7951L20.1848 14.9671C20.3608 14.7951 20.2634 14.4977 20.0208 14.4617L17.4261 14.0844L16.2648 11.7324C16.1568 11.5124 15.8434 11.5124 15.7341 11.7324L14.5728 14.0844L11.9794 14.4617C11.7368 14.4977 11.6394 14.7951 11.8154 14.9671L13.6928 16.7951L13.2488 19.3804C13.2074 19.6217 13.4621 19.8057 13.6794 19.6924L15.9994 18.4724Z" stroke="#222222" stroke-width="1.5" stroke-linecap="round" stroke-linejoin="round"/>
</svg>
