<svg width="36" height="36" viewBox="0 0 36 36" fill="none" xmlns="http://www.w3.org/2000/svg">
<path fill-rule="evenodd" clip-rule="evenodd" d="M2 8.22222C2 3.55518 2.04997 2 8.22222 2C14.3945 2 14.4444 3.55518 14.4444 8.22222C14.4444 12.8893 14.4641 14.4444 8.22222 14.4444C1.98031 14.4444 2 12.8893 2 8.22222Z" stroke="white" stroke-width="3" stroke-linecap="round" stroke-linejoin="round"/>
<path opacity="0.4" fill-rule="evenodd" clip-rule="evenodd" d="M21.5555 8.22222C21.5555 3.55518 21.6055 2 27.7778 2C33.95 2 34 3.55518 34 8.22222C34 12.8893 34.0197 14.4444 27.7778 14.4444C21.5359 14.4444 21.5555 12.8893 21.5555 8.22222Z" stroke="white" stroke-width="3" stroke-linecap="round" stroke-linejoin="round"/>
<path fill-rule="evenodd" clip-rule="evenodd" d="M2 27.7776C2 23.1106 2.04997 21.5554 8.22222 21.5554C14.3945 21.5554 14.4444 23.1106 14.4444 27.7776C14.4444 32.4447 14.4641 33.9999 8.22222 33.9999C1.98031 33.9999 2 32.4447 2 27.7776Z" stroke="white" stroke-width="3" stroke-linecap="round" stroke-linejoin="round"/>
<path fill-rule="evenodd" clip-rule="evenodd" d="M21.5555 27.7776C21.5555 23.1106 21.6055 21.5554 27.7778 21.5554C33.95 21.5554 34 23.1106 34 27.7776C34 32.4447 34.0197 33.9999 27.7778 33.9999C21.5359 33.9999 21.5555 32.4447 21.5555 27.7776Z" stroke="white" stroke-width="3" stroke-linecap="round" stroke-linejoin="round"/>
</svg>
