<svg width="36" height="36" viewBox="0 0 36 36" fill="none" xmlns="http://www.w3.org/2000/svg">
<path d="M13.2122 32.0342V27.1275C13.2121 25.8794 14.2831 24.8653 15.6101 24.8569H20.4709C21.8042 24.8569 22.8851 25.8735 22.8851 27.1275V32.0495C22.8848 33.1091 23.784 33.9752 24.9104 34H28.1509C31.3813 34 34 31.5371 34 28.4989V14.5405C33.9827 13.3453 33.3861 12.223 32.3797 11.4929L21.2972 3.09648C19.3557 1.63451 16.5957 1.63451 14.6542 3.09648L3.62025 11.5081C2.61012 12.2352 2.01244 13.3595 2 14.5558V28.4989C2 31.5371 4.61874 34 7.84911 34H11.0896C12.244 34 13.1797 33.1199 13.1797 32.0342" stroke="white" stroke-width="3" stroke-linecap="round" stroke-linejoin="round"/>
</svg>
