<svg width="32" height="32" viewBox="0 0 32 32" fill="none" xmlns="http://www.w3.org/2000/svg">
<path d="M3.73877 20.636C3.73877 20.636 3.9281 22.9533 3.9721 23.684C4.03077 24.664 4.40944 25.7587 5.04144 26.5187C5.93344 27.596 6.9841 27.976 8.38677 27.9787C10.0361 27.9813 22.0294 27.9813 23.6788 27.9787C25.0814 27.976 26.1321 27.596 27.0241 26.5187C27.6561 25.7587 28.0348 24.664 28.0948 23.684C28.1374 22.9533 28.3268 20.636 28.3268 20.636" stroke="#0BAF9A" stroke-width="1.5" stroke-linecap="round" stroke-linejoin="round"/>
<path d="M11.3281 7.106V6.61133C11.3281 4.98466 12.6455 3.66733 14.2721 3.66733H17.7148C19.3401 3.66733 20.6588 4.98466 20.6588 6.61133L20.6601 7.106" stroke="#222222" stroke-width="1.5" stroke-linecap="round" stroke-linejoin="round"/>
<path d="M15.9932 22.2376V20.5123" stroke="#222222" stroke-width="1.5" stroke-linecap="round" stroke-linejoin="round"/>
<path fill-rule="evenodd" clip-rule="evenodd" d="M3.6665 11.1855V15.8081C6.22384 17.4948 9.28784 18.6761 12.6505 19.1441C13.0532 17.6761 14.3772 16.6001 15.9865 16.6001C17.5705 16.6001 18.9212 17.6761 19.2972 19.1575C22.6732 18.6895 25.7492 17.5081 28.3198 15.8081V11.1855C28.3198 8.92679 26.5025 7.10812 24.2438 7.10812H7.75584C5.49717 7.10812 3.6665 8.92679 3.6665 11.1855Z" stroke="#222222" stroke-width="1.5" stroke-linecap="round" stroke-linejoin="round"/>
</svg>
