<!-- Generated by IcoMoon.io -->
<svg version="1.1" xmlns="http://www.w3.org/2000/svg" width="31" height="24" viewBox="0 0 31 24">
<title>google-plus</title>
<path d="M19.246 12.228c0 5.612-3.763 9.589-9.429 9.589-5.424 0-9.817-4.393-9.817-9.817s4.393-9.817 9.817-9.817c2.652 0 4.862 0.964 6.576 2.571l-2.665 2.558c-0.723-0.696-1.996-1.513-3.911-1.513-3.348 0-6.080 2.772-6.080 6.201s2.732 6.201 6.080 6.201c3.884 0 5.344-2.799 5.571-4.232h-5.571v-3.375h9.268c0.094 0.496 0.161 0.991 0.161 1.634zM30.857 10.594v2.813h-2.799v2.799h-2.813v-2.799h-2.799v-2.813h2.799v-2.799h2.813v2.799h2.799z"></path>
</svg>
