<!-- Generated by IcoMoon.io -->
<svg version="1.1" xmlns="http://www.w3.org/2000/svg" width="21" height="24" viewBox="0 0 21 24">
<title>whatsapp</title>
<path d="M13.192 13.045c0.228 0 2.411 1.138 2.504 1.299 0.027 0.067 0.027 0.147 0.027 0.201 0 0.335-0.107 0.71-0.228 1.018-0.308 0.75-1.554 1.232-2.317 1.232-0.643 0-1.969-0.563-2.545-0.83-1.915-0.871-3.107-2.357-4.259-4.058-0.509-0.75-0.964-1.674-0.951-2.598v-0.107c0.027-0.884 0.348-1.513 0.991-2.116 0.201-0.188 0.415-0.295 0.696-0.295 0.161 0 0.321 0.040 0.496 0.040 0.362 0 0.429 0.107 0.563 0.455 0.094 0.228 0.777 2.049 0.777 2.183 0 0.509-0.924 1.085-0.924 1.393 0 0.067 0.027 0.134 0.067 0.201 0.295 0.629 0.857 1.353 1.366 1.835 0.616 0.589 1.272 0.978 2.022 1.353 0.094 0.054 0.188 0.094 0.295 0.094 0.402 0 1.071-1.299 1.42-1.299zM10.473 20.143c4.634 0 8.411-3.777 8.411-8.411s-3.777-8.411-8.411-8.411-8.411 3.777-8.411 8.411c0 1.768 0.563 3.496 1.607 4.929l-1.058 3.121 3.241-1.031c1.366 0.897 2.987 1.393 4.621 1.393zM10.473 1.634c5.571 0 10.098 4.527 10.098 10.098s-4.527 10.098-10.098 10.098c-1.701 0-3.388-0.429-4.888-1.259l-5.585 1.795 1.821-5.424c-0.951-1.567-1.446-3.375-1.446-5.21 0-5.571 4.527-10.098 10.098-10.098z"></path>
</svg>
