<svg version="1.2" baseProfile="tiny-ps" xmlns="http://www.w3.org/2000/svg" viewBox="0 0 337 338" width="337" height="338">
	<title>delivery-svg</title>
	<style>
		tspan { white-space:pre }
		.shp0 { fill: #2780d4 } 
	</style>
	<g id="Layer_1">
	</g>
	<g id="Layer_2">
		<g id="Layer">
			<path id="Layer" class="shp0" d="M169.1 337.2C214 337.2 256.2 319.7 288 287.9C317.5 258.4 334.9 219.2 337 177.5C337.2 173.4 334 169.8 329.9 169.6C325.8 169.4 322.2 172.6 322 176.7C320.1 214.6 304.2 250.3 277.3 277.2C248.4 306.1 209.9 322.1 169 322.1C128.1 322.1 89.6 306.2 60.7 277.2C1 217.5 1 120.3 60.7 60.6C111.6 9.7 190.8 1.2 251 39.5L234.1 60.2L282.6 55.3L277.7 6.8L260.6 27.8C194.3 -15.4 106.4 -6.3 50.1 50C-15.5 115.6 -15.5 222.2 50.1 287.8C82 319.7 124.2 337.2 169.1 337.2Z" />
			<path id="Layer" fill-rule="evenodd" class="shp0" d="M248.5 135.9L248.5 248.7C248.5 252.8 245.1 256.2 241 256.2L96.9 256.2C92.8 256.2 89.4 252.8 89.4 248.7L89.4 135.8C89.4 135.3 89.5 134.8 89.6 134.3C89.7 134.3 89.7 134.2 89.7 134.1C89.7 133.9 89.8 133.8 89.8 133.6C89.8 133.5 89.8 133.3 89.9 133.2C89.9 133.1 90 133 90 132.9C90.2 132.5 90.4 132 90.7 131.6L122.5 85C123.9 82.9 126.2 81.7 128.7 81.7L209.3 81.7C211.8 81.7 214.1 82.9 215.5 85L247.3 131.7C247.6 132.1 247.8 132.5 248 133C248 133.1 248.1 133.2 248.1 133.3C248.1 133.4 248.2 133.6 248.2 133.7C248.2 133.9 248.3 134 248.3 134.2C248.4 134.2 248.4 134.3 248.4 134.4C248.5 134.8 248.5 135.3 248.5 135.9ZM111.1 128.3L226.8 128.3L205.3 96.7L132.7 96.7L111.1 128.3ZM233.6 241.3L233.6 143.4L104.5 143.4L104.5 241.3L233.6 241.3Z" />
		</g>
	</g>
</svg>