<?xml version="1.0" ?><svg id="Layer_1" style="enable-background:new 0 0 256 256;" fill="#2780d4" version="1.1" viewBox="0 0 256 256" xml:space="preserve" xmlns="http://www.w3.org/2000/svg" xmlns:xlink="http://www.w3.org/1999/xlink"><g><path d="M152.9,86.2c-0.8-0.6-1.7-1.1-2.6-1.7c-1.5-0.9-3.4-0.9-5-0.1c-1.6,0.9-2.5,2.5-2.5,4.3v28.5c0,2.4-1.9,4.3-4.3,4.3h-21.1   c-2.3,0-4.3-1.9-4.3-4.3V88.8c0-1.8-1-3.4-2.5-4.3c-1.6-0.9-3.5-0.8-5,0.1c-0.9,0.6-1.8,1.2-2.7,1.8c-11.4,8.1-18.3,21.3-18.3,35.4   c0,0.6,0,1.1,0,1.4c0.4,13.8,7.2,26.2,18.5,34.2c1,0.7,2,1.3,2.9,1.9v56.4c-0.2,11.6,8.8,21.5,20.5,22.6c0.4,0,0.9,0,1.3,0   c0,0,0.1,0,0.1,0c12.1,0,21.9-9.8,21.9-21.9v-57.1c0.9-0.5,1.7-1.1,2.6-1.7c11.6-7.9,18.6-21,18.8-34.7c0-0.4,0-0.7,0-1.1   c0,0,0-0.1,0-0.1C171.4,107.6,164.4,94.3,152.9,86.2z M161.5,122.4c-0.2,10.8-5.6,20.9-14.5,27c-1.4,1-2.8,1.8-4.2,2.5   c-1.7,0.8-2.7,2.5-2.7,4.4v60c0,6.6-5.4,12-12.1,12c0,0,0,0-0.1,0c-0.3,0-0.5,0-0.6,0c-6.5-0.6-11.5-6.1-11.4-12.6v-59.4   c0-1.9-1.1-3.6-2.8-4.4c-1.5-0.7-2.9-1.6-4.4-2.6c-8.7-6.1-13.9-15.7-14.3-26.7c0-0.2,0-0.5,0-0.8c0-8.4,3.2-16.5,8.8-22.5v18.1   c0,7.8,6.3,14.1,14.1,14.1h21.1c7.8,0,14.1-6.3,14.1-14.1V99.1c5.6,6.1,8.8,14.1,8.8,22.6L161.5,122.4z"/><path d="M241.3,92.9c-6.2-14.6-15.1-27.8-26.3-39.1c-11.3-11.3-24.4-20.1-39.1-26.3c-15.2-6.4-31.3-9.7-47.9-9.7   s-32.7,3.3-47.9,9.7c-14.6,6.2-27.8,15.1-39.1,26.3C29.8,65.1,20.9,78.3,14.7,92.9c-6.4,15.2-9.7,31.3-9.7,47.9v71.9   c0,0.2,0,0.5,0.1,0.7c0.3,6.4,3.7,12.2,9.2,15.7l13.4,8.4c0.8,0.5,1.7,0.8,2.6,0.8h19.8c6.2,0,11.3-5.1,11.3-11.3V162   c0-6.2-5.1-11.3-11.3-11.3H34.7c-2.7,0-4.9,2.2-4.9,4.9s2.2,4.9,4.9,4.9h15.4c0.8,0,1.4,0.6,1.4,1.4v64.9c0,0.8-0.6,1.4-1.4,1.4   H31.8l-12.2-7.6c-2.8-1.7-4.5-4.8-4.6-8.1c0-0.2,0-0.3,0-0.5v-71.3c0-15.3,3-30.1,8.9-44c5.7-13.5,13.8-25.6,24.2-35.9   C58.4,50.5,70.5,42.3,84,36.6c13.9-5.9,28.7-8.9,44-8.9s30.1,3,44,8.9c13.5,5.7,25.6,13.8,35.9,24.2c10.4,10.4,18.5,22.5,24.2,35.9   c5.9,13.9,8.9,28.8,8.9,44v71.3c0,0.2,0,0.3,0,0.5c-0.1,3.3-1.8,6.3-4.6,8.1l-12.2,7.6h-18.4c-0.8,0-1.4-0.6-1.4-1.4V162   c0-0.8,0.6-1.4,1.4-1.4h15.4c2.7,0,4.9-2.2,4.9-4.9s-2.2-4.9-4.9-4.9h-15.4c-6.2,0-11.3,5.1-11.3,11.3v64.9   c0,6.2,5.1,11.3,11.3,11.3h19.8c0.9,0,1.8-0.3,2.6-0.8l13.4-8.4c5.5-3.4,8.9-9.2,9.2-15.6c0-0.2,0.1-0.5,0.1-0.7v-71.9   C250.9,124.2,247.7,108.1,241.3,92.9z"/></g></svg>