<svg width="676" height="520" viewBox="0 0 676 520" fill="none" xmlns="http://www.w3.org/2000/svg">
<g opacity="0.9">
<path d="M591.842 435.976L71.8425 421.076C47.6425 420.376 27.7425 401.876 25.3425 377.776L0.24249 129.776C-2.55751 101.676 19.2425 77.1761 47.4425 76.7761L626.242 68.7761C655.442 68.3761 678.342 93.8761 674.742 122.876L641.042 393.776C637.942 418.376 616.642 436.676 591.842 435.976Z" fill="#C9E5FF"/>
<mask id="mask0_301:5514" style="mask-type:alpha" maskUnits="userSpaceOnUse" x="0" y="68" width="676" height="368">
<path d="M591.842 435.976L71.8425 421.076C47.6425 420.376 27.7425 401.876 25.3425 377.776L0.24249 129.776C-2.55751 101.676 19.2425 77.1761 47.4425 76.7761L626.242 68.7761C655.443 68.3761 678.342 93.8761 674.742 122.876L641.042 393.776C637.943 418.376 616.642 436.676 591.842 435.976Z" fill="#EAF9F3"/>
</mask>
<g mask="url(#mask0_301:5514)">
<path d="M167.442 480.976H-248.058C-256.358 480.976 -263.058 474.276 -263.058 465.976V230.276C-263.058 221.976 -256.358 215.276 -248.058 215.276H167.442C175.742 215.276 182.442 221.976 182.442 230.276V465.976C182.442 474.276 175.742 480.976 167.442 480.976Z" stroke="#E0F0FF" stroke-width="1.8" stroke-miterlimit="10" stroke-linecap="round" stroke-linejoin="round"/>
<path d="M716.542 465.176H297.442C289.142 465.176 282.442 458.476 282.442 450.176V105.876C282.442 97.576 289.142 90.876 297.442 90.876H716.542C724.842 90.876 731.542 97.576 731.542 105.876V450.176C731.542 458.476 724.842 465.176 716.542 465.176Z" stroke="#E0F0FF" stroke-width="1.8" stroke-miterlimit="10" stroke-linecap="round" stroke-linejoin="round"/>
<path d="M67.8424 144.976H-22.0576V136.076H67.8424C68.8424 136.076 69.6424 136.876 69.6424 137.876V143.076C69.6424 144.176 68.8424 144.976 67.8424 144.976Z" stroke="#E0F0FF" stroke-width="1.8" stroke-miterlimit="10" stroke-linecap="round" stroke-linejoin="round"/>
<path d="M51.5423 136.076H31.2423C29.0423 136.076 27.2423 134.476 26.9423 132.276L25.3423 117.876C25.0423 115.376 27.0423 113.076 29.6423 113.076H53.1423C55.7423 113.076 57.6423 115.276 57.4423 117.876L55.8423 132.276C55.5423 134.376 53.7423 136.076 51.5423 136.076Z" stroke="#E0F0FF" stroke-width="1.8" stroke-miterlimit="10" stroke-linecap="round" stroke-linejoin="round"/>
<path d="M38.9423 113.076C38.9423 113.076 30.9423 112.276 29.3423 101.476C29.3423 101.476 36.5423 103.576 38.8423 108.676C38.8423 108.676 39.8423 97.276 45.2423 96.176C45.2423 96.176 47.6423 104.676 43.8423 108.876C43.8423 108.876 46.7423 104.076 54.1423 104.176C54.1423 104.176 52.2423 110.976 44.9423 112.976" fill="#E0F0FF"/>
<path d="M164.242 265.076H74.0423C71.7423 265.076 69.8423 263.176 69.8423 260.876V233.476C69.8423 231.176 71.7423 229.276 74.0423 229.276H164.242C166.542 229.276 168.442 231.176 168.442 233.476V260.876C168.542 263.176 166.642 265.076 164.242 265.076Z" stroke="#E0F0FF" stroke-width="1.8" stroke-miterlimit="10" stroke-linecap="round" stroke-linejoin="round"/>
<path d="M129.542 238.876H108.742C107.942 238.876 107.242 238.176 107.242 237.376C107.242 236.576 107.942 235.876 108.742 235.876H129.542C130.342 235.876 131.042 236.576 131.042 237.376C131.042 238.176 130.342 238.876 129.542 238.876Z" fill="#E0F0FF"/>
<path d="M164.242 310.876H74.0423C71.7423 310.876 69.8423 308.976 69.8423 306.676V279.276C69.8423 276.976 71.7423 275.076 74.0423 275.076H164.242C166.542 275.076 168.442 276.976 168.442 279.276V306.676C168.542 308.976 166.642 310.876 164.242 310.876Z" stroke="#E0F0FF" stroke-width="1.8" stroke-miterlimit="10" stroke-linecap="round" stroke-linejoin="round"/>
<path d="M129.542 284.676H108.742C107.942 284.676 107.242 283.976 107.242 283.176C107.242 282.376 107.942 281.676 108.742 281.676H129.542C130.342 281.676 131.042 282.376 131.042 283.176C131.042 284.076 130.342 284.676 129.542 284.676Z" fill="#E0F0FF"/>
<path d="M627.443 343.176H537.242C534.942 343.176 533.042 341.276 533.042 338.976V311.576C533.042 309.276 534.942 307.376 537.242 307.376H627.443C629.743 307.376 631.642 309.276 631.642 311.576V338.976C631.742 341.276 629.843 343.176 627.443 343.176Z" stroke="#E0F0FF" stroke-width="1.8" stroke-miterlimit="10" stroke-linecap="round" stroke-linejoin="round"/>
<path d="M592.742 317.076H571.942C571.142 317.076 570.442 316.376 570.442 315.576C570.442 314.776 571.142 314.076 571.942 314.076H592.742C593.542 314.076 594.242 314.776 594.242 315.576C594.242 316.376 593.542 317.076 592.742 317.076Z" fill="#E0F0FF"/>
<path d="M511.642 343.176H421.442C419.142 343.176 417.242 341.276 417.242 338.976V311.576C417.242 309.276 419.142 307.376 421.442 307.376H511.642C513.942 307.376 515.842 309.276 515.842 311.576V338.976C515.842 341.276 513.942 343.176 511.642 343.176Z" stroke="#E0F0FF" stroke-width="1.8" stroke-miterlimit="10" stroke-linecap="round" stroke-linejoin="round"/>
<path d="M476.942 317.076H456.142C455.342 317.076 454.642 316.376 454.642 315.576C454.642 314.776 455.342 314.076 456.142 314.076H476.942C477.742 314.076 478.442 314.776 478.442 315.576C478.442 316.376 477.742 317.076 476.942 317.076Z" fill="#E0F0FF"/>
<path d="M49.2423 265.076H-40.9577C-43.2577 265.076 -45.1577 263.176 -45.1577 260.876V233.476C-45.1577 231.176 -43.2577 229.276 -40.9577 229.276H49.2423C51.5423 229.276 53.4423 231.176 53.4423 233.476V260.876C53.5423 263.176 51.6423 265.076 49.2423 265.076Z" stroke="#E0F0FF" stroke-width="1.8" stroke-miterlimit="10" stroke-linecap="round" stroke-linejoin="round"/>
<path d="M14.5422 238.876H-6.25781C-7.05781 238.876 -7.75781 238.176 -7.75781 237.376C-7.75781 236.576 -7.05781 235.876 -6.25781 235.876H14.5422C15.3422 235.876 16.0422 236.576 16.0422 237.376C16.0422 238.176 15.4422 238.876 14.5422 238.876Z" fill="#E0F0FF"/>
<path d="M49.2423 310.876H-40.9577C-43.2577 310.876 -45.1577 308.976 -45.1577 306.676V279.276C-45.1577 276.976 -43.2577 275.076 -40.9577 275.076H49.2423C51.5423 275.076 53.4423 276.976 53.4423 279.276V306.676C53.5423 308.976 51.6423 310.876 49.2423 310.876Z" stroke="#E0F0FF" stroke-width="1.8" stroke-miterlimit="10" stroke-linecap="round" stroke-linejoin="round"/>
<path d="M14.5422 284.676H-6.25781C-7.05781 284.676 -7.75781 283.976 -7.75781 283.176C-7.75781 282.376 -7.05781 281.676 -6.25781 281.676H14.5422C15.3422 281.676 16.0422 282.376 16.0422 283.176C16.0422 284.076 15.4422 284.676 14.5422 284.676Z" fill="#E0F0FF"/>
<path d="M758.742 195.676H303.742C301.242 195.676 299.142 193.576 299.142 191.076V111.376C299.142 108.876 301.242 106.776 303.742 106.776H758.742C761.242 106.776 763.342 108.876 763.342 111.376V191.076C763.342 193.576 761.342 195.676 758.742 195.676Z" stroke="#E0F0FF" stroke-width="1.8" stroke-miterlimit="10" stroke-linecap="round" stroke-linejoin="round"/>
<path d="M758.742 294.576H303.742C301.242 294.576 299.142 292.476 299.142 289.976V210.276C299.142 207.776 301.242 205.676 303.742 205.676H758.742C761.242 205.676 763.342 207.776 763.342 210.276V289.976C763.342 292.576 761.342 294.576 758.742 294.576Z" stroke="#E0F0FF" stroke-width="1.8" stroke-miterlimit="10" stroke-linecap="round" stroke-linejoin="round"/>
<path d="M339.742 145.376H329.842V195.676H339.742V145.376Z" stroke="#E0F0FF" stroke-width="1.8" stroke-miterlimit="10" stroke-linecap="round" stroke-linejoin="round"/>
<path d="M349.942 159.076H339.642V195.676H349.942V159.076Z" stroke="#E0F0FF" stroke-width="1.8" stroke-miterlimit="10" stroke-linecap="round" stroke-linejoin="round"/>
<path d="M638.042 244.176H628.142V294.476H638.042V244.176Z" stroke="#E0F0FF" stroke-width="1.8" stroke-miterlimit="10" stroke-linecap="round" stroke-linejoin="round"/>
<path d="M648.342 257.876H638.042V294.476H648.342V257.876Z" stroke="#E0F0FF" stroke-width="1.8" stroke-miterlimit="10" stroke-linecap="round" stroke-linejoin="round"/>
<path d="M617.943 244.176H608.042V294.476H617.943V244.176Z" stroke="#E0F0FF" stroke-width="1.8" stroke-miterlimit="10" stroke-linecap="round" stroke-linejoin="round"/>
<path d="M608.183 246.048L598.742 243.067L583.597 291.033L593.038 294.014L608.183 246.048Z" stroke="#E0F0FF" stroke-width="1.8" stroke-miterlimit="10" stroke-linecap="round" stroke-linejoin="round"/>
<path d="M628.242 257.876H617.942V294.476H628.242V257.876Z" stroke="#E0F0FF" stroke-width="1.8" stroke-miterlimit="10" stroke-linecap="round" stroke-linejoin="round"/>
<path d="M504.542 145.376H494.642V195.676H504.542V145.376Z" stroke="#E0F0FF" stroke-width="1.8" stroke-miterlimit="10" stroke-linecap="round" stroke-linejoin="round"/>
<path d="M514.842 159.076H504.542V195.676H514.842V159.076Z" stroke="#E0F0FF" stroke-width="1.8" stroke-miterlimit="10" stroke-linecap="round" stroke-linejoin="round"/>
<path d="M406.742 145.376H396.842V195.676H406.742V145.376Z" stroke="#E0F0FF" stroke-width="1.8" stroke-miterlimit="10" stroke-linecap="round" stroke-linejoin="round"/>
<path d="M396.979 147.232L387.538 144.251L372.393 192.217L381.833 195.198L396.979 147.232Z" stroke="#E0F0FF" stroke-width="1.8" stroke-miterlimit="10" stroke-linecap="round" stroke-linejoin="round"/>
<path d="M417.042 159.076H406.742V195.676H417.042V159.076Z" stroke="#E0F0FF" stroke-width="1.8" stroke-miterlimit="10" stroke-linecap="round" stroke-linejoin="round"/>
<path d="M637.942 151.976L639.042 137.076C639.142 136.076 638.342 135.276 637.342 135.276H633.042H628.742C627.742 135.276 627.042 136.076 627.042 137.076L628.142 151.976C628.142 151.976 619.142 157.776 619.242 162.576C619.342 166.276 621.542 183.976 622.542 191.776C622.842 193.976 624.642 195.576 626.842 195.576H633.042H639.242C641.442 195.576 643.242 193.976 643.542 191.776C644.542 183.976 646.742 166.276 646.842 162.576C646.942 157.676 637.942 151.976 637.942 151.976Z" fill="#E0F0FF"/>
<path d="M598.042 151.976L599.142 137.076C599.242 136.076 598.442 135.276 597.442 135.276H593.142H588.842C587.842 135.276 587.142 136.076 587.142 137.076L588.242 151.976C588.242 151.976 579.242 157.776 579.342 162.576C579.442 166.276 581.642 183.976 582.642 191.776C582.942 193.976 584.742 195.576 586.942 195.576H593.142H599.342C601.542 195.576 603.342 193.976 603.642 191.776C604.642 183.976 606.842 166.276 606.942 162.576C607.042 157.676 598.042 151.976 598.042 151.976Z" fill="#E0F0FF"/>
<path d="M-1.25757 388.976H954.542" stroke="#E0F0FF" stroke-width="1.8" stroke-miterlimit="10" stroke-linecap="round" stroke-linejoin="round"/>
</g>
<path d="M86.6426 399.176V519.476H94.7426L97.3426 399.176H86.6426Z" fill="#E0F0FF"/>
<path d="M97.3426 399.176H86.6426V412.276H97.0426L97.3426 399.176Z" fill="#2A87DB"/>
<path d="M567.143 399.176V519.476H558.943L556.443 399.176H567.143Z" fill="#E0F0FF"/>
<path d="M556.443 399.176H567.143V412.276H556.743L556.443 399.176Z" fill="#2A87DB"/>
<path d="M601.742 394.276H52.0425L110.542 368.676H543.142L601.742 394.276Z" fill="#D4F0FC"/>
<path d="M601.742 394.276H52.0425V401.976H601.742V394.276Z" fill="#E0F0FF"/>
<path d="M116.942 335.376L104.242 342.676C102.342 343.776 99.8423 343.176 98.7423 341.176L62.3423 278.376C61.2423 276.476 61.8423 273.976 63.8423 272.876L76.5423 265.576C78.4423 264.476 80.9423 265.076 82.0423 267.076L118.442 329.876C119.542 331.776 118.842 334.276 116.942 335.376Z" fill="#22272E"/>
<path d="M108.042 326.476C106.942 324.576 104.442 323.876 102.542 324.976C100.642 326.076 99.9423 328.576 101.042 330.476C102.142 332.376 104.642 333.076 106.542 331.976C108.442 330.876 109.142 328.476 108.042 326.476Z" fill="#63737A"/>
<path d="M91.3423 316.476L100.642 311.076" stroke="#63737A" stroke-width="1.8" stroke-miterlimit="10" stroke-linecap="round" stroke-linejoin="round"/>
<path d="M88.7422 312.076L98.1422 306.676" stroke="#63737A" stroke-width="1.8" stroke-miterlimit="10" stroke-linecap="round" stroke-linejoin="round"/>
<path d="M136.142 292.476L127.942 327.176C127.642 328.176 132.442 330.676 138.842 332.876C145.142 335.076 150.642 336.076 150.942 335.176L166.042 302.876L136.142 292.476Z" fill="#D4F0FC"/>
<path d="M158.242 311.576L163.842 313.476C166.342 314.376 167.442 317.176 166.242 319.476L161.542 328.476C160.542 330.376 158.342 331.176 156.342 330.476L150.242 328.376" stroke="#D4F0FC" stroke-width="1.8" stroke-miterlimit="10" stroke-linecap="round" stroke-linejoin="round"/>
<path d="M166.042 302.976C165.642 304.176 158.542 302.876 150.342 299.976C142.042 297.076 135.742 293.776 136.142 292.476C136.542 291.276 143.642 292.576 151.842 295.476C160.142 298.376 166.442 301.676 166.042 302.976Z" fill="#2A87DB"/>
<path d="M219.242 122.776L104.542 153.176C100.342 154.276 96.2424 151.476 95.7424 147.176L81.4424 23.476C81.1424 20.476 83.5424 17.876 86.5424 18.176L203.142 26.276C206.442 26.476 209.142 28.976 209.642 32.276L222.642 117.476C223.142 119.776 221.542 122.176 219.242 122.776Z" fill="#63737A"/>
<path d="M224.542 123.176L108.642 153.876C104.442 154.976 100.242 152.076 99.7423 147.776L85.3422 22.776C85.0422 19.776 87.4423 17.176 90.5423 17.376L208.442 25.476C211.742 25.676 214.542 28.176 215.042 31.476L228.242 117.576C228.442 120.176 226.942 122.476 224.542 123.176Z" fill="#22272E"/>
<path d="M133.842 41.076L105.542 40.676C104.942 40.676 104.542 40.276 104.442 39.676L104.042 36.476C103.942 35.776 104.542 35.176 105.142 35.176L133.542 35.976C134.142 35.976 134.542 36.376 134.642 36.976L135.042 39.876C135.042 40.476 134.542 41.076 133.842 41.076Z" fill="#2A87DB"/>
<path d="M105.843 51.6759L160.643 50.976" stroke="#63737A" stroke-width="1.8" stroke-miterlimit="10" stroke-linecap="round" stroke-linejoin="round"/>
<path d="M107.243 62.776L141.943 61.3759" stroke="#63737A" stroke-width="1.8" stroke-miterlimit="10" stroke-linecap="round" stroke-linejoin="round"/>
<path d="M120.242 131.176L116.942 131.876C116.242 132.076 115.542 131.576 115.442 130.776L112.142 103.076C112.042 102.376 112.542 101.776 113.242 101.676L116.542 101.176C117.242 101.076 117.842 101.576 117.942 102.276L121.342 129.776C121.242 130.476 120.842 131.076 120.242 131.176Z" fill="#D4F0FC"/>
<path d="M131.942 127.276L126.442 83.276C126.342 82.576 126.842 81.976 127.542 81.876L130.342 81.576C131.042 81.476 131.642 81.976 131.642 82.676L137.142 126.276C137.242 126.876 136.842 127.476 136.142 127.676L133.242 128.276C132.742 128.476 132.042 127.976 131.942 127.276Z" fill="#2A87DB"/>
<path d="M147.242 123.976L145.142 107.776C145.042 107.076 145.542 106.476 146.142 106.376L148.542 105.976C149.242 105.876 149.842 106.376 149.942 107.076L152.042 123.176C152.142 123.776 151.742 124.376 151.042 124.576L148.642 125.076C147.942 125.176 147.242 124.676 147.242 123.976Z" fill="#D4F0FC"/>
<path d="M164.842 121.576L162.742 121.976C162.042 122.176 161.342 121.676 161.242 120.976L160.042 112.276C159.942 111.576 160.442 110.976 161.042 110.876L163.142 110.476C163.842 110.376 164.542 110.876 164.542 111.576L165.742 120.276C165.842 120.876 165.442 121.476 164.842 121.576Z" fill="#F4C2C9"/>
<path d="M205.642 109.476L197.042 90.176L204.442 73.076C207.842 76.676 210.342 82.0759 211.342 88.1759C212.442 96.8759 210.142 105.176 205.642 109.476Z" fill="#2A87DB"/>
<path d="M204.342 73.076L196.942 90.176L182.442 78.576C184.542 72.676 188.642 68.576 193.742 68.276C197.542 67.976 201.342 69.776 204.342 73.076Z" fill="#F4C2C9"/>
<path d="M205.642 109.476C204.042 110.976 202.242 111.976 200.242 112.376C191.842 114.176 183.142 105.176 181.342 92.2759C180.642 87.1759 181.142 82.376 182.442 78.476L196.942 90.076L205.642 109.476Z" fill="#D4F0FC"/>
<path d="M302.542 24.276C307.342 33.576 313.342 42.776 316.942 47.976C318.542 50.276 321.642 50.776 323.842 49.176C328.342 45.976 334.342 42.776 338.542 40.676C341.042 39.376 342.242 36.376 341.142 33.776C338.442 27.476 335.642 19.076 333.342 11.676C330.242 1.87598 319.242 -2.82401 310.042 1.77599C301.642 5.87599 298.242 15.976 302.542 24.276Z" fill="#D4F0FC"/>
<path d="M335.742 35.176C337.242 35.176 338.642 35.776 339.442 36.976C341.042 39.276 344.042 43.176 347.242 45.476C351.942 48.776 369.042 51.676 370.442 54.176C371.842 56.676 367.742 57.476 364.942 57.176C362.042 56.976 359.742 56.576 359.142 57.776C358.542 58.976 359.342 63.976 363.242 67.476C367.042 70.976 374.142 74.676 374.442 77.876C374.742 81.076 366.842 77.976 363.342 75.776C359.742 73.676 358.842 73.176 358.842 73.176C358.842 73.176 358.342 74.176 355.542 75.176C353.942 75.676 352.242 74.376 350.742 74.676C349.242 74.976 342.542 78.376 339.342 76.776C337.042 75.576 331.942 63.976 329.442 60.876C327.642 58.576 323.342 51.976 321.242 48.676C320.342 47.376 320.342 45.576 321.142 44.276C322.842 40.976 327.242 35.476 335.742 35.176Z" fill="#F4C2C9"/>
<path d="M358.742 73.276C358.742 73.276 354.842 71.276 353.242 69.676C352.342 68.776 351.642 67.476 351.642 67.476" stroke="#E26E85" stroke-width="1.8" stroke-miterlimit="10" stroke-linecap="round" stroke-linejoin="round"/>
<path d="M350.642 74.676C350.642 74.676 348.242 73.676 347.342 72.976C346.442 72.176 345.142 70.076 345.142 70.076" stroke="#E26E85" stroke-width="1.8" stroke-miterlimit="10" stroke-linecap="round" stroke-linejoin="round"/>
<path d="M344.842 76.676C344.842 76.676 343.042 75.976 342.042 75.076C341.342 74.476 339.942 72.676 339.942 72.676" stroke="#E26E85" stroke-width="1.8" stroke-miterlimit="10" stroke-linecap="round" stroke-linejoin="round"/>
<path d="M269.542 103.376C269.842 102.576 270.842 102.576 271.142 103.376C271.642 104.876 272.242 106.476 272.942 107.176C273.542 107.776 275.242 108.476 276.742 108.976C277.542 109.276 277.542 110.276 276.742 110.576C275.242 111.076 273.642 111.676 272.942 112.376C272.342 112.976 271.642 114.676 271.142 116.176C270.842 116.976 269.842 116.976 269.542 116.176C269.042 114.676 268.442 113.076 267.742 112.376C267.142 111.776 265.442 111.076 263.942 110.576C263.142 110.276 263.142 109.276 263.942 108.976C265.442 108.476 267.042 107.876 267.742 107.176C268.442 106.476 269.042 104.876 269.542 103.376Z" fill="#2A87DB"/>
<path d="M281.642 45.676C281.842 45.076 282.642 45.076 282.842 45.676C283.242 46.776 283.642 47.976 284.142 48.376C284.642 48.876 285.742 49.276 286.842 49.676C287.442 49.876 287.442 50.676 286.842 50.876C285.742 51.276 284.542 51.676 284.142 52.176C283.642 52.676 283.242 53.776 282.842 54.876C282.642 55.476 281.842 55.476 281.642 54.876C281.242 53.776 280.842 52.576 280.342 52.176C279.842 51.676 278.742 51.276 277.642 50.876C277.042 50.676 277.042 49.876 277.642 49.676C278.742 49.276 279.942 48.876 280.342 48.376C280.842 47.876 281.342 46.676 281.642 45.676Z" fill="#2A87DB"/>
<path d="M376.342 95.376C376.542 94.776 377.342 94.776 377.542 95.376C377.942 96.476 378.342 97.676 378.842 98.076C379.342 98.476 380.442 98.976 381.542 99.376C382.142 99.576 382.142 100.376 381.542 100.576C380.442 100.976 379.242 101.376 378.842 101.876C378.342 102.376 377.942 103.476 377.542 104.576C377.342 105.176 376.542 105.176 376.342 104.576C375.942 103.476 375.542 102.276 375.042 101.876C374.542 101.376 373.442 100.976 372.342 100.576C371.742 100.376 371.742 99.576 372.342 99.376C373.442 98.976 374.642 98.576 375.042 98.076C375.542 97.676 376.042 96.476 376.342 95.376Z" fill="#2A87DB"/>
<path d="M291.742 78.276C291.942 77.776 292.542 77.776 292.642 78.276C292.942 79.176 293.342 80.076 293.642 80.476C294.042 80.876 294.942 81.276 295.842 81.476C296.342 81.676 296.342 82.276 295.842 82.376C294.942 82.676 294.042 83.076 293.642 83.376C293.242 83.776 292.842 84.676 292.642 85.576C292.442 86.076 291.842 86.076 291.742 85.576C291.442 84.676 291.042 83.776 290.742 83.376C290.342 82.976 289.442 82.576 288.542 82.376C288.042 82.176 288.042 81.576 288.542 81.476C289.442 81.176 290.342 80.776 290.742 80.476C291.042 80.176 291.442 79.176 291.742 78.276Z" fill="#D4F0FC"/>
<path d="M384.342 122.076C384.642 121.276 385.642 121.276 385.942 122.076C386.442 123.576 387.042 125.176 387.742 125.876C388.342 126.476 390.042 127.176 391.542 127.676C392.342 127.976 392.342 128.976 391.542 129.276C390.042 129.776 388.442 130.376 387.742 131.076C387.142 131.676 386.442 133.376 385.942 134.876C385.642 135.676 384.642 135.676 384.342 134.876C383.842 133.376 383.242 131.776 382.542 131.076C381.942 130.476 380.242 129.776 378.742 129.276C377.942 128.976 377.942 127.976 378.742 127.676C380.242 127.176 381.842 126.576 382.542 125.876C383.142 125.176 383.842 123.576 384.342 122.076Z" fill="#D4F0FC"/>
<path d="M553.342 102.176C553.342 102.176 551.942 103.576 554.542 114.176C557.142 124.776 563.042 132.876 563.042 132.876C563.042 132.876 570.642 126.476 568.342 115.476C566.142 104.476 553.342 102.176 553.342 102.176Z" fill="#22272E"/>
<path d="M554.842 133.376C554.842 133.376 552.842 133.976 548.142 138.876C543.442 143.776 536.542 146.276 528.342 149.976C520.142 153.676 516.143 136.476 518.243 127.776C520.243 119.076 529.243 113.076 529.243 113.076L546.743 115.476C546.743 115.476 552.542 108.576 554.842 113.076C557.042 117.576 556.842 127.676 554.842 133.376Z" fill="#F4C2C9"/>
<path d="M539.842 165.276L480.242 178.976C477.642 179.576 475.042 177.976 474.442 175.376L457.542 102.176C456.942 99.576 458.542 96.976 461.142 96.376L520.742 82.676C523.342 82.076 525.942 83.676 526.542 86.276L543.342 159.476C544.042 162.076 542.442 164.676 539.842 165.276Z" fill="#22272E"/>
<path d="M514.743 103.676L475.943 112.576C474.643 112.876 473.443 112.076 473.143 110.776C472.843 109.476 473.643 108.276 474.943 107.976L513.743 99.076C515.043 98.776 516.243 99.576 516.543 100.876C516.743 102.076 515.943 103.376 514.743 103.676Z" fill="#D4F0FC"/>
<path d="M475.843 122.876L519.243 112.876" stroke="#63737A" stroke-width="1.8" stroke-miterlimit="10" stroke-linecap="round" stroke-linejoin="round"/>
<path d="M477.542 130.176L520.943 120.176" stroke="#63737A" stroke-width="1.8" stroke-miterlimit="10" stroke-linecap="round" stroke-linejoin="round"/>
<path d="M503.443 158.976L487.443 162.676C486.143 162.976 484.943 162.176 484.643 160.876L480.943 144.876C480.643 143.576 481.443 142.376 482.743 142.076L498.743 138.376C500.043 138.076 501.243 138.876 501.543 140.176L505.243 156.176C505.443 157.376 504.643 158.676 503.443 158.976Z" fill="#D4F0FC"/>
<path d="M507.443 136.276L523.743 132.476" stroke="#63737A" stroke-width="1.8" stroke-miterlimit="10" stroke-linecap="round" stroke-linejoin="round"/>
<path d="M509.243 144.176L525.643 140.476" stroke="#63737A" stroke-width="1.8" stroke-miterlimit="10" stroke-linecap="round" stroke-linejoin="round"/>
<path d="M511.042 152.176L520.943 149.876" stroke="#63737A" stroke-width="1.8" stroke-miterlimit="10" stroke-linecap="round" stroke-linejoin="round"/>
<path d="M502.143 89.276L480.943 94.176C479.443 94.476 478.143 93.176 478.443 91.676L478.643 90.676C478.843 89.876 479.443 89.276 480.243 89.076L500.543 84.376C501.343 84.176 502.143 84.476 502.643 85.076L503.243 85.876C504.243 87.176 503.643 88.976 502.143 89.276Z" fill="#2A87DB"/>
<path d="M548.142 109.376C548.142 109.376 545.642 110.676 540.842 109.376C536.042 108.076 535.243 106.876 530.243 105.576C525.243 104.276 518.342 105.676 517.142 107.776C515.942 109.876 519.143 111.176 523.443 111.676C527.743 112.176 529.742 120.376 536.642 123.476C548.142 128.576 558.342 112.976 548.142 109.376Z" fill="#F4C2C9"/>
<path d="M517.142 107.776C515.942 109.876 519.143 111.176 523.443 111.676C527.743 112.176 529.742 120.376 536.642 123.476C539.042 124.576 541.343 124.676 543.443 124.276" stroke="#E26E85" stroke-width="1.8" stroke-miterlimit="10" stroke-linecap="round" stroke-linejoin="round"/>
<path d="M555.743 104.776C555.743 104.776 550.443 108.176 548.143 109.376C548.143 109.376 552.643 113.776 554.443 121.676C556.243 129.576 554.843 133.376 554.843 133.376C554.843 133.376 560.743 132.776 563.643 130.676C563.643 130.676 566.443 126.076 564.143 117.076C561.843 108.076 555.743 104.776 555.743 104.776Z" fill="white"/>
<path d="M618.543 92.576C614.543 79.376 598.943 73.976 587.643 81.876C581.043 86.476 574.143 90.976 568.643 93.976C553.343 102.276 553.343 102.276 553.343 102.276C553.343 102.276 562.043 110.876 563.343 120.376C564.643 129.876 563.043 132.976 563.043 132.976C563.043 132.976 586.943 127.076 608.043 116.776C616.943 112.276 621.443 102.076 618.543 92.576Z" fill="#2A87DB"/>
<path d="M561.043 125.676C561.043 124.976 560.543 124.476 559.843 124.476C559.143 124.476 558.643 124.976 558.643 125.676C558.643 126.376 559.143 126.876 559.843 126.876C560.543 126.876 561.043 126.376 561.043 125.676Z" fill="#22272E"/>
<path d="M426.842 310.276L497.542 301.976L496.342 314.776L482.442 316.776L481.042 319.376L426.842 310.276Z" fill="#63737A"/>
<path d="M481.042 317.976L499.442 245.076C500.042 242.576 502.242 240.576 504.742 240.276L599.242 226.176C601.242 225.876 602.942 227.776 602.342 229.776L583.042 295.076C582.342 297.276 580.542 299.076 578.242 299.576L484.342 321.476C482.342 321.876 480.542 320.076 481.042 317.976Z" fill="#22272E"/>
<path d="M553.342 271.376C552.342 274.976 549.042 278.476 545.742 279.176C542.542 279.876 540.642 277.476 541.642 273.876C542.642 270.276 545.942 266.776 549.242 266.076C552.442 265.376 554.342 267.776 553.342 271.376Z" fill="#63737A"/>
<path d="M482.442 321.176C482.142 320.976 441.142 315.576 429.742 313.976C428.042 313.776 426.842 312.376 426.842 310.676V310.276L482.442 316.776V321.176Z" fill="#22272E"/>
<path d="M568.442 183.776H599.242C600.642 183.776 601.842 184.976 601.742 186.476L600.142 205.776C600.042 207.476 598.742 208.776 597.042 208.976L566.042 212.376C564.542 212.576 563.242 211.276 563.342 209.776L565.042 187.076C565.042 185.176 566.642 183.776 568.442 183.776Z" stroke="#2A87DB" stroke-width="1.8" stroke-miterlimit="10" stroke-linecap="round" stroke-linejoin="round"/>
<path d="M566.442 184.476L584.442 194.176C585.642 194.776 587.042 194.676 588.142 193.876L600.942 184.476" stroke="#2A87DB" stroke-width="1.8" stroke-miterlimit="10" stroke-linecap="round" stroke-linejoin="round"/>
<path d="M395.342 86.476L392.142 89.976C391.642 90.476 391.642 91.376 392.142 91.976C392.642 92.476 393.342 92.576 393.942 92.276L397.742 89.976L395.342 86.476Z" fill="#22272E"/>
<path d="M424.542 94.976L425.442 99.676C425.542 100.376 425.142 101.176 424.442 101.376C423.742 101.576 423.042 101.276 422.742 100.576L420.742 96.576L424.542 94.976Z" fill="#22272E"/>
<path d="M413.842 99.076C425.882 99.076 435.642 89.3158 435.642 77.276C435.642 65.2362 425.882 55.476 413.842 55.476C401.803 55.476 392.042 65.2362 392.042 77.276C392.042 89.3158 401.803 99.076 413.842 99.076Z" fill="#2A87DB"/>
<path d="M420.571 89.5661C427.347 85.8416 429.82 77.3297 426.096 70.5542C422.371 63.7786 413.859 61.3053 407.084 65.0298C400.308 68.7543 397.835 77.2662 401.559 84.0418C405.284 90.8173 413.796 93.2906 420.571 89.5661Z" fill="#D4F0FC"/>
<path d="M417.742 82.276L413.842 77.276L415.942 70.276" stroke="#63737A" stroke-width="1.8" stroke-miterlimit="10" stroke-linecap="round" stroke-linejoin="round"/>
<path d="M399.942 56.176C399.342 56.376 398.642 56.076 398.442 55.376C397.942 52.476 399.542 49.576 402.442 48.476C405.342 47.376 408.442 48.476 410.042 50.976C410.442 51.576 410.142 52.276 409.442 52.576L399.942 56.176Z" fill="#2A87DB"/>
<path d="M436.842 66.976C437.242 67.476 438.042 67.576 438.542 67.076C440.542 64.876 440.742 61.576 438.842 59.076C436.942 56.576 433.742 55.876 431.142 57.176C430.542 57.476 430.342 58.276 430.742 58.776L436.842 66.976Z" fill="#2A87DB"/>
<path d="M423.742 53.876L418.042 52.276C417.142 51.976 416.542 51.076 416.842 50.076C417.142 49.176 418.042 48.576 419.042 48.876L424.742 50.476C425.642 50.776 426.242 51.676 425.942 52.676C425.642 53.576 424.642 54.176 423.742 53.876Z" fill="#2A87DB"/>
<path d="M419.087 51.4112L417.524 56.7889L421.654 57.9886L423.216 52.6109L419.087 51.4112Z" fill="#2A87DB"/>
<path d="M181.142 222.676L182.042 231.876C182.142 232.776 181.642 233.676 180.742 234.076C177.942 235.376 176.242 238.276 176.542 241.276L177.642 251.476C177.942 254.576 180.242 257.076 183.242 257.676C184.142 257.876 184.842 258.676 184.942 259.576L185.842 268.776C186.042 270.476 184.242 271.676 182.742 270.876L180.542 269.776C175.742 267.376 172.442 262.576 171.942 257.176L169.842 236.876C169.242 231.476 171.542 226.176 175.742 222.776L177.742 221.176C178.942 220.176 180.942 220.976 181.142 222.676Z" fill="#22272E"/>
<path d="M227.842 28.376C229.642 40.576 222.842 51.676 211.442 53.276C198.342 55.076 184.642 43.776 182.842 28.176C181.142 12.876 191.842 2.37597 204.942 4.17597C216.442 5.77597 226.142 16.376 227.842 28.376Z" fill="#F8AB5D"/>
<path d="M232.543 26.276C234.343 38.876 227.443 50.376 215.643 51.976C202.043 53.876 187.943 42.176 186.143 26.076C184.343 10.276 195.443 -0.524018 208.943 1.27598C220.743 2.97598 230.743 13.976 232.543 26.276Z" fill="#D4F0FC"/>
<path d="M216.142 19.276C216.542 22.376 214.642 24.776 211.842 24.776C208.942 24.776 206.142 22.076 205.742 18.876C205.342 15.676 207.442 13.276 210.342 13.476C213.142 13.676 215.742 16.276 216.142 19.276Z" fill="#22272E"/>
<path d="M218.842 38.876L208.542 39.576C206.042 39.776 203.742 37.676 203.342 34.876C202.542 28.776 206.542 23.976 211.842 24.076C216.842 24.176 221.342 28.676 222.142 34.076C222.342 36.676 220.942 38.776 218.842 38.876Z" fill="#22272E"/>
<path d="M540.342 206.576C538.842 204.976 536.342 204.876 534.742 206.276C533.142 207.776 533.042 210.276 534.442 211.876C535.842 213.476 538.442 213.576 540.042 212.176C541.742 210.676 541.842 208.176 540.342 206.576Z" fill="#22272E"/>
<path d="M535.142 197.476L534.442 196.676C532.142 194.176 528.242 193.976 525.642 196.276C523.142 198.576 522.942 202.476 525.242 205.076L525.942 205.876C526.742 206.776 527.342 207.776 527.642 208.976C527.842 209.876 528.142 210.876 528.342 211.876C528.842 213.976 531.442 214.776 533.142 213.276L537.542 209.276L541.942 205.276C543.542 203.776 543.042 201.176 540.942 200.376C539.942 200.076 539.042 199.676 538.142 199.376C536.942 198.976 535.942 198.376 535.142 197.476Z" fill="#2A87DB"/>
<path d="M455.742 213.176C455.742 213.176 458.142 224.576 455.742 238.376L488.142 231.376C488.142 231.376 480.942 219.376 479.042 208.376L455.742 213.176Z" fill="#22272E"/>
<path d="M456.442 218.376L480.242 213.376" stroke="#63737A" stroke-width="1.8" stroke-miterlimit="10" stroke-linecap="round" stroke-linejoin="round"/>
<path d="M462.042 223.076L477.443 219.376" stroke="#63737A" stroke-width="1.8" stroke-miterlimit="10" stroke-linecap="round" stroke-linejoin="round"/>
<path d="M462.342 227.876L472.642 225.476" stroke="#63737A" stroke-width="1.8" stroke-miterlimit="10" stroke-linecap="round" stroke-linejoin="round"/>
<path d="M532.342 323.176L554.142 318.276C554.142 318.276 554.442 328.276 569.842 334.176C569.842 334.176 552.742 347.176 547.442 350.576C547.542 350.476 534.742 343.876 532.342 323.176Z" fill="#2A87DB"/>
<path d="M533.642 329.776L555.542 322.676" stroke="#22272E" stroke-width="1.8" stroke-miterlimit="10" stroke-linecap="round" stroke-linejoin="round"/>
<path d="M540.842 333.876L554.542 327.576" stroke="#22272E" stroke-width="1.8" stroke-miterlimit="10" stroke-linecap="round" stroke-linejoin="round"/>
<path d="M543.142 338.076L556.842 330.676" stroke="#22272E" stroke-width="1.8" stroke-miterlimit="10" stroke-linecap="round" stroke-linejoin="round"/>
<path d="M546.142 342.076L554.042 337.276" stroke="#22272E" stroke-width="1.8" stroke-miterlimit="10" stroke-linecap="round" stroke-linejoin="round"/>
<path d="M186.542 167.276C186.542 167.276 184.342 167.876 180.842 167.476L182.642 164.676C178.742 164.776 169.342 159.676 168.342 154.976C168.242 154.376 168.242 153.776 168.442 153.376V153.276C169.942 150.276 177.842 150.976 183.642 156.676C190.542 163.376 186.542 167.276 186.542 167.276Z" fill="#E0F0FF"/>
<path d="M182.742 164.676L180.942 167.476C178.742 167.176 175.942 166.476 172.942 164.776C169.142 162.676 167.342 159.976 166.442 157.876C167.542 155.376 168.342 153.676 168.542 153.276C168.342 153.776 168.342 154.276 168.442 154.876C169.442 159.676 178.842 164.776 182.742 164.676Z" fill="#2A87DB"/>
<path d="M127.142 194.976C127.142 194.976 131.742 197.076 136.042 196.476C140.342 195.876 148.742 193.476 150.442 194.376C152.142 195.276 155.042 195.376 154.142 198.276C153.342 201.176 151.542 204.576 147.742 204.776C143.942 205.076 140.142 207.976 133.842 206.176C127.542 204.376 123.842 203.476 123.642 200.976C123.542 198.376 127.142 194.976 127.142 194.976Z" fill="#F4C2C9"/>
<path d="M186.542 167.276C184.942 171.976 164.042 199.476 154.142 213.876C144.242 228.276 127.442 269.076 119.042 267.376C110.642 265.676 100.242 257.476 102.042 252.776C103.942 248.076 125.142 234.676 141.342 211.576C157.542 188.476 157.142 172.476 162.042 159.376C164.142 153.776 165.642 154.176 165.642 154.176C165.642 154.176 165.542 155.776 166.342 157.976C167.142 160.076 168.942 162.776 172.842 164.876C175.842 166.576 178.642 167.276 180.842 167.576C184.342 167.976 186.542 167.276 186.542 167.276Z" fill="white"/>
<path d="M150.542 208.676C150.542 208.676 154.542 201.276 155.542 196.776" stroke="#E0F0FF" stroke-width="1.8" stroke-miterlimit="10" stroke-linecap="round" stroke-linejoin="round"/>
<path d="M154.342 209.676C154.342 209.676 157.042 204.576 158.442 203.276" stroke="#E0F0FF" stroke-width="1.8" stroke-miterlimit="10" stroke-linecap="round" stroke-linejoin="round"/>
<path d="M139.642 229.076C139.642 229.076 137.742 234.076 135.642 237.576" stroke="#E0F0FF" stroke-width="1.8" stroke-miterlimit="10" stroke-linecap="round" stroke-linejoin="round"/>
<path d="M134.042 227.676C134.042 227.676 130.342 233.476 123.642 238.876" stroke="#E0F0FF" stroke-width="1.8" stroke-miterlimit="10" stroke-linecap="round" stroke-linejoin="round"/>
<path d="M142.542 201.176C142.542 201.176 148.742 205.176 152.242 206.576C155.842 207.976 160.442 206.476 160.842 206.476C161.242 206.476 163.142 209.476 161.442 211.576C159.742 213.676 157.842 213.976 157.642 214.676C157.442 215.376 157.942 219.376 156.842 220.776C155.842 222.176 153.642 222.976 152.942 223.876C152.342 224.776 151.542 229.276 150.442 229.976C149.342 230.676 147.942 232.976 145.142 233.376C142.342 233.776 131.342 229.376 121.142 221.476C114.642 216.476 110.442 214.676 110.442 214.676C110.442 214.676 114.942 194.976 123.142 196.776C131.442 198.576 142.542 201.176 142.542 201.176Z" fill="#F4C2C9"/>
<path d="M142.542 201.176C142.542 201.176 148.742 205.176 152.242 206.576C155.842 207.976 160.442 206.476 160.842 206.476" stroke="#E26E85" stroke-width="1.8" stroke-miterlimit="10" stroke-linecap="round" stroke-linejoin="round"/>
<path d="M117.842 188.376C117.842 188.376 118.942 187.476 120.242 188.476C121.542 189.476 126.442 193.376 127.042 194.976C127.742 196.576 124.342 206.476 119.042 212.576C113.842 218.676 110.942 218.676 110.642 218.576C110.342 218.476 102.942 215.076 101.942 213.776C100.942 212.476 101.342 211.076 101.342 211.076C101.342 211.076 115.442 188.276 117.842 188.376Z" fill="#2A87DB"/>
<path d="M53.1424 153.776C46.3424 162.076 47.1424 174.376 55.0424 181.676C57.3424 183.776 59.9424 186.176 62.8424 188.776C78.4424 202.776 102.642 211.476 102.642 211.476C115.842 205.376 117.842 188.376 117.842 188.376C105.942 180.876 94.1424 166.876 85.4424 154.676C77.6424 143.876 61.6424 143.476 53.1424 153.776Z" fill="#D4F0FC"/>
<path d="M157.742 214.776C157.742 214.776 155.042 216.076 153.342 216.276C151.642 216.476 149.242 216.276 149.242 216.276" stroke="#E26E85" stroke-width="1.8" stroke-miterlimit="10" stroke-linecap="round" stroke-linejoin="round"/>
<path d="M153.542 223.576C153.542 223.576 152.342 224.576 150.642 224.876C148.942 225.076 147.542 224.276 147.542 224.276" stroke="#E26E85" stroke-width="1.8" stroke-miterlimit="10" stroke-linecap="round" stroke-linejoin="round"/>
<path d="M149.642 230.876C149.642 230.876 147.242 231.676 145.942 230.476" stroke="#E26E85" stroke-width="1.8" stroke-miterlimit="10" stroke-linecap="round" stroke-linejoin="round"/>
<path d="M418.142 329.976C399.042 330.376 369.042 337.576 350.842 344.976C332.742 352.376 320.342 359.276 320.342 359.276C320.342 359.276 324.642 356.876 329.742 366.676C334.842 376.476 333.042 387.876 333.042 387.876C335.642 387.176 397.642 385.276 417.442 382.676C437.242 380.076 460.142 372.876 458.742 353.576C457.342 334.276 440.342 328.976 417.042 324.676C393.642 320.376 380.742 322.176 379.342 321.776C377.942 321.476 373.442 319.576 371.042 316.676C368.642 313.776 366.142 305.876 366.142 305.876C366.142 305.876 305.742 302.076 299.642 312.276C293.642 322.476 320.942 351.676 320.942 351.676L418.142 329.976Z" fill="#22272E"/>
<path d="M274.142 304.676C274.142 304.676 270.842 311.876 269.642 314.476C268.442 317.076 240.742 318.076 228.342 318.276C215.942 318.476 191.642 323.476 189.742 341.376C187.542 361.776 204.642 371.276 235.142 373.476C269.442 375.976 301.242 375.176 307.942 375.876C314.642 376.576 333.142 368.276 335.242 360.576C337.342 352.876 366.442 346.976 366.442 346.976C366.442 346.976 372.842 314.976 362.342 308.576C351.842 302.076 274.142 304.676 274.142 304.676Z" fill="#22272E"/>
<path d="M335.242 353.376C335.242 353.376 278.442 320.676 233.342 322.576" stroke="#63737A" stroke-width="1.8" stroke-miterlimit="10" stroke-linecap="round" stroke-linejoin="round"/>
<path d="M320.342 359.376C320.342 359.376 317.542 360.576 319.142 370.176C320.742 379.776 329.542 389.976 333.042 387.976C336.542 385.976 334.742 368.576 330.742 362.776C326.842 357.076 320.342 359.376 320.342 359.376Z" fill="#22272E"/>
<path d="M313.842 362.576C313.842 362.576 308.342 369.276 305.842 371.176C303.342 373.076 292.142 373.876 288.042 380.276C283.942 386.676 293.342 401.376 300.942 398.976C298.842 400.276 297.042 401.476 295.642 402.376C288.842 406.976 276.442 413.876 267.642 403.776C260.242 395.176 262.842 384.776 268.242 377.876C273.642 371.076 287.542 370.176 290.742 369.276C293.942 368.276 301.242 363.076 304.442 361.176C307.142 359.576 309.142 361.676 313.842 362.576Z" fill="#2A87DB"/>
<path d="M333.242 384.676C332.842 384.776 325.642 385.976 322.642 386.576C320.242 387.076 308.842 393.776 300.842 398.876C293.242 401.276 283.842 386.576 287.942 380.176C292.042 373.776 303.242 372.976 305.742 371.076C308.242 369.176 313.742 362.476 313.742 362.476C314.442 362.576 315.242 362.676 316.042 362.776C322.442 363.276 325.742 361.076 325.742 361.076C326.942 362.176 328.242 363.976 329.542 366.576C333.142 373.276 333.442 380.576 333.242 384.676Z" fill="#F4C2C9"/>
<path d="M418.142 329.976C399.042 330.376 369.042 337.576 350.842 344.976C332.742 352.376 320.342 359.276 320.342 359.276" stroke="#63737A" stroke-width="1.8" stroke-miterlimit="10" stroke-linecap="round" stroke-linejoin="round"/>
<path d="M193.842 331.376C195.042 330.776 196.842 330.476 199.342 331.276C204.742 333.076 206.542 344.976 203.842 352.376C201.142 359.876 195.142 359.476 193.142 357.376" stroke="#63737A" stroke-width="1.8" stroke-miterlimit="10" stroke-linecap="round" stroke-linejoin="round"/>
<path d="M455.242 342.076C455.242 342.076 450.242 336.376 444.342 343.476C437.842 351.176 441.242 364.176 446.442 367.276C451.742 370.376 454.642 367.276 454.642 367.276" stroke="#63737A" stroke-width="1.8" stroke-miterlimit="10" stroke-linecap="round" stroke-linejoin="round"/>
<path d="M236.942 200.976C236.942 201.576 236.442 202.076 235.842 202.076C235.242 202.076 234.742 201.576 234.742 200.976C234.742 200.376 235.242 199.876 235.842 199.876C236.442 199.876 236.942 200.376 236.942 200.976Z" stroke="#22272E" stroke-width="1.8" stroke-miterlimit="10" stroke-linecap="round" stroke-linejoin="round"/>
<path d="M258.743 182.276C256.643 189.276 254.443 192.276 254.643 198.676C241.943 202.376 233.543 194.476 233.543 194.476C234.143 191.776 234.443 189.676 234.043 188.376C232.843 183.576 226.343 181.376 221.843 175.376C217.343 169.376 216.943 158.776 219.143 157.476C220.143 156.876 221.143 157.076 222.643 162.076C223.543 164.976 224.843 167.576 225.143 167.976C223.043 163.176 222.143 147.376 227.943 149.776C229.843 150.576 227.643 153.976 229.943 160.076C232.043 165.876 235.943 168.076 235.943 168.076C235.943 168.076 235.243 163.376 237.843 159.676C240.043 156.576 245.643 153.076 246.643 156.376C247.743 159.576 242.643 160.776 242.243 164.876C241.643 169.776 247.143 173.576 250.843 170.376C254.543 167.176 252.443 163.576 250.843 161.276C249.243 159.076 246.743 156.176 248.543 154.876C250.343 153.676 254.843 155.076 258.043 160.576C261.143 165.976 260.843 175.276 258.743 182.276Z" fill="#F4C2C9"/>
<path d="M279.043 253.976C279.043 253.976 256.543 282.376 241.743 288.776C226.943 295.176 216.943 290.676 214.043 275.176C211.143 259.676 220.343 231.976 224.343 221.776C227.243 214.176 231.843 202.176 233.543 194.576C233.543 194.576 242.043 202.376 254.643 198.776C254.743 204.876 251.943 227.376 251.643 229.476C251.743 228.776 252.943 225.476 261.343 213.676C271.043 200.176 280.743 194.276 280.743 194.276C280.743 194.276 288.943 198.176 291.343 216.476C293.643 234.876 279.043 253.976 279.043 253.976Z" fill="#2A87DB"/>
<path d="M251.642 229.476C251.642 229.476 250.742 255.076 247.442 263.376" stroke="#22272E" stroke-width="1.8" stroke-miterlimit="10" stroke-linecap="round" stroke-linejoin="round"/>
<path d="M235.843 168.176C235.843 168.176 236.243 170.976 237.443 172.576" stroke="#E26E85" stroke-width="1.8" stroke-miterlimit="10" stroke-linecap="round" stroke-linejoin="round"/>
<path d="M231.242 202.476C231.242 202.476 236.942 210.676 254.042 208.276" stroke="#22272E" stroke-width="1.8" stroke-miterlimit="10" stroke-linecap="round" stroke-linejoin="round"/>
<path d="M216.943 283.876C216.943 283.876 214.343 274.976 223.943 272.876C233.643 270.776 245.243 284.676 237.843 290.176" stroke="#22272E" stroke-width="1.8" stroke-miterlimit="10" stroke-linecap="round" stroke-linejoin="round"/>
<path d="M225.042 168.176C225.042 168.176 226.142 170.676 228.542 173.076C229.542 174.076 230.942 175.076 231.542 176.376" stroke="#E26E85" stroke-width="1.8" stroke-miterlimit="10" stroke-linecap="round" stroke-linejoin="round"/>
<path d="M344.443 107.676C355.843 110.576 361.242 117.076 360.742 133.476C360.242 149.876 358.042 155.776 365.842 164.876C373.642 173.876 375.743 186.776 360.943 194.876C346.143 202.976 313.742 205.076 297.642 194.876C281.542 184.676 279.642 173.776 284.442 163.076C289.242 152.376 302.042 145.376 299.242 137.676C296.442 129.876 299.842 138.376 299.842 138.376C299.842 138.376 291.442 132.276 292.142 120.076C292.742 107.876 307.742 103.276 315.542 102.876C319.542 102.676 323.842 105.176 329.742 106.176C335.642 106.976 341.543 106.976 344.443 107.676Z" fill="#22272E"/>
<path d="M320.542 185.476C320.542 185.476 298.942 186.676 286.342 191.176C273.742 195.676 276.042 205.676 274.442 216.176C272.742 226.676 262.543 237.376 267.742 251.676C272.942 265.976 278.042 274.076 275.342 285.076C272.742 296.076 270.142 301.576 270.542 304.676C271.042 307.776 285.342 317.276 290.842 319.176C296.342 321.076 307.042 313.476 307.042 313.476C307.042 313.476 312.542 320.676 320.542 322.276C328.542 323.976 360.942 315.576 368.342 307.276C368.342 307.276 363.542 297.976 363.342 286.776C363.142 275.576 369.642 261.676 372.042 253.976C374.342 246.276 387.942 216.576 382.642 206.676C378.842 199.576 350.442 183.576 320.542 185.476Z" fill="#D4F0FC"/>
<path d="M383.042 207.776C383.042 207.776 393.343 218.076 401.443 234.776C401.443 234.776 401.942 200.176 402.642 197.776C402.642 197.776 413.342 200.376 424.142 196.076C424.142 196.076 427.042 222.776 431.342 243.076C435.642 263.376 440.442 293.676 425.842 297.676C411.342 301.776 397.942 292.476 380.242 268.776C362.642 245.176 364.042 233.276 364.042 227.276C363.942 220.176 373.542 201.976 383.042 207.776Z" fill="#2A87DB"/>
<path d="M401.442 234.876C401.442 234.876 400.742 256.376 403.342 269.976" stroke="#22272E" stroke-width="1.8" stroke-miterlimit="10" stroke-linecap="round" stroke-linejoin="round"/>
<path d="M402.042 207.176C402.042 207.176 414.842 211.176 425.042 204.676" stroke="#22272E" stroke-width="1.8" stroke-miterlimit="10" stroke-linecap="round" stroke-linejoin="round"/>
<path d="M421.142 202.076C421.142 202.676 420.642 203.176 420.042 203.176C419.442 203.176 418.942 202.676 418.942 202.076C418.942 201.476 419.442 200.976 420.042 200.976C420.742 200.976 421.142 201.476 421.142 202.076Z" stroke="#22272E" stroke-width="1.8" stroke-miterlimit="10" stroke-linecap="round" stroke-linejoin="round"/>
<path d="M423.343 196.476C423.343 196.476 422.343 189.376 427.143 187.076C431.943 184.776 436.343 185.876 441.243 182.276C446.143 178.776 454.443 167.276 454.143 164.776C453.743 162.276 452.043 163.376 448.743 166.076C445.543 168.776 443.943 169.376 443.943 169.376C443.943 169.376 445.943 162.576 445.043 157.576C444.043 152.576 440.743 151.976 439.943 152.476C439.143 152.976 439.943 155.076 439.743 159.076C439.543 162.976 438.343 166.376 434.843 168.876C434.843 168.876 435.643 165.676 434.143 161.876C432.543 158.076 429.843 155.576 427.743 156.176C425.643 156.776 426.343 158.376 427.343 160.576C428.443 162.776 429.943 166.776 425.743 170.976C421.543 175.176 414.743 170.976 417.043 165.376C419.343 159.776 422.843 158.476 424.643 156.976C426.443 155.476 425.943 152.776 422.143 153.376C418.343 153.976 411.843 158.576 408.043 163.676C404.243 168.676 403.143 175.676 403.043 182.476C402.943 189.276 402.643 197.976 402.643 197.976C402.643 197.976 405.143 201.076 410.643 201.076C416.143 200.976 423.343 198.976 423.343 196.476Z" fill="#F4C2C9"/>
<path d="M443.943 169.476C443.943 169.476 442.243 174.176 439.843 177.976" stroke="#E26E85" stroke-width="1.8" stroke-miterlimit="10" stroke-linecap="round" stroke-linejoin="round"/>
<path d="M434.742 168.876C434.742 168.876 434.342 172.876 431.542 176.676" stroke="#E26E85" stroke-width="1.8" stroke-miterlimit="10" stroke-linecap="round" stroke-linejoin="round"/>
<path d="M411.143 297.276C411.143 297.276 408.643 293.276 414.743 287.176C420.843 281.076 433.843 281.776 434.243 288.076" stroke="#22272E" stroke-width="1.8" stroke-miterlimit="10" stroke-linecap="round" stroke-linejoin="round"/>
<path d="M314.042 184.076C314.042 184.076 308.442 183.776 304.942 191.376C301.442 198.976 302.442 214.576 306.242 216.976C310.042 219.376 320.242 209.076 320.242 209.076C320.242 209.076 328.842 220.676 335.042 220.176C341.242 219.676 349.042 208.576 348.542 196.376C348.042 184.176 343.042 182.776 340.342 182.476C337.742 181.976 314.042 184.076 314.042 184.076Z" fill="white"/>
<path d="M320.242 208.976C320.242 208.976 300.542 230.776 300.342 234.876C300.142 238.976 306.842 240.276 308.642 239.376C310.442 238.376 322.242 208.676 320.242 208.976Z" fill="white"/>
<path d="M320.042 211.676C320.042 211.676 323.442 235.876 325.642 239.676C327.842 243.476 334.842 237.776 334.042 234.476C333.242 231.176 323.742 211.876 320.242 209.076C316.742 206.176 320.042 211.676 320.042 211.676Z" fill="white"/>
<path d="M344.442 162.776C344.442 162.776 342.242 176.476 343.842 186.776C343.842 186.776 334.342 207.876 320.342 207.876C313.442 207.876 311.242 193.676 312.442 188.076L314.542 172.476C314.542 172.476 328.542 148.276 344.442 162.776Z" fill="#F4C2C9"/>
<path d="M332.942 177.276C326.942 180.876 320.342 182.676 313.342 181.276L312.542 187.176C320.142 185.676 327.842 183.476 332.942 177.276Z" fill="#E26E85"/>
<path d="M300.842 133.276C300.842 133.276 301.342 141.076 300.042 153.776C298.742 166.476 299.242 174.776 310.042 180.176C320.842 185.576 338.342 180.676 344.742 165.276C351.142 149.876 359.642 120.576 336.642 116.176C313.642 111.776 300.542 117.276 300.842 133.276Z" fill="#F4C2C9"/>
<path d="M316.842 123.176C316.842 123.176 321.242 137.976 331.042 141.776C340.942 145.576 339.342 154.776 344.242 153.676C349.142 152.576 352.942 148.576 356.242 152.476C359.542 156.276 359.842 122.076 342.942 116.176C326.042 110.276 308.142 109.976 302.842 115.376C297.642 120.776 299.442 138.076 299.442 138.076C299.442 138.076 310.242 135.576 316.842 123.176Z" fill="#22272E"/>
<path d="M345.342 153.776C345.342 153.776 347.642 148.076 352.542 149.076C357.342 150.076 357.042 165.576 344.542 164.776" fill="#F4C2C9"/>
<path d="M310.342 148.476C310.942 149.776 310.942 151.276 310.542 152.676C310.342 153.376 310.042 154.076 309.642 154.676C309.442 154.976 309.242 155.276 309.042 155.576C308.942 155.776 308.742 156.076 308.642 156.276C308.242 157.176 308.442 158.176 309.042 159.176C309.742 160.076 310.742 160.976 312.042 161.276C311.342 161.576 310.642 161.476 309.942 161.276C309.242 161.076 308.542 160.676 308.042 160.176C307.442 159.676 307.042 158.976 306.742 158.176C306.542 157.376 306.642 156.476 306.942 155.676C307.142 155.276 307.342 154.976 307.542 154.676C307.742 154.376 307.942 154.176 308.142 153.876C308.542 153.376 308.842 152.876 309.142 152.276C309.742 151.076 310.242 149.876 310.342 148.476Z" fill="#22272E"/>
<path d="M317.742 167.976C317.742 167.976 322.742 169.376 325.742 164.276" stroke="#22272E" stroke-width="1.8" stroke-miterlimit="10" stroke-linecap="round" stroke-linejoin="round"/>
<path d="M324.142 148.476C324.142 148.476 324.542 150.676 328.342 151.076C331.542 151.476 333.042 148.876 333.042 148.876" stroke="#22272E" stroke-width="1.8" stroke-miterlimit="10" stroke-linecap="round" stroke-linejoin="round"/>
<path d="M308.542 146.876C308.542 146.876 305.542 149.276 303.142 146.276" stroke="#22272E" stroke-width="1.8" stroke-miterlimit="10" stroke-linecap="round" stroke-linejoin="round"/>
<path d="M311.342 137.376C311.542 136.076 310.042 133.876 308.042 133.276C306.042 132.676 302.842 135.476 303.142 136.676C303.542 137.876 305.442 136.076 307.242 136.276C308.842 136.476 311.142 138.476 311.342 137.376Z" fill="#22272E"/>
<path d="M335.242 139.576C335.442 138.276 333.942 136.076 331.942 135.476C329.942 134.876 326.742 137.676 327.042 138.876C327.442 140.076 329.342 138.276 331.142 138.476C332.842 138.676 335.142 140.676 335.242 139.576Z" fill="#22272E"/>
<path d="M352.142 153.776C351.142 154.076 350.342 154.576 350.042 155.176C349.942 155.476 349.842 155.776 349.842 156.176C349.842 156.376 349.842 156.576 349.842 156.776C349.842 157.076 349.842 157.276 349.842 157.576C349.842 158.176 349.742 158.776 349.542 159.276C349.342 159.876 348.842 160.476 348.242 160.676C347.042 161.176 345.942 160.876 344.942 160.376C345.942 160.076 346.942 159.876 347.442 159.376C347.942 158.976 348.042 158.276 348.042 157.376C348.042 157.176 348.042 156.976 348.042 156.676C348.042 156.376 348.042 156.076 348.042 155.776C348.142 155.176 348.342 154.476 348.842 154.076C349.942 153.376 351.242 153.376 352.142 153.776Z" fill="#22272E"/>
<path d="M301.542 156.676C306.458 156.676 310.442 152.333 310.442 146.976C310.442 141.619 306.458 137.276 301.542 137.276C296.627 137.276 292.642 141.619 292.642 146.976C292.642 152.333 296.627 156.676 301.542 156.676Z" stroke="#22272E" stroke-width="1.8" stroke-miterlimit="10" stroke-linecap="round" stroke-linejoin="round"/>
<path d="M337.392 151.391C338.303 145.776 334.49 140.486 328.874 139.574C323.259 138.663 317.969 142.476 317.057 148.091C316.146 153.706 319.959 158.997 325.574 159.909C331.189 160.82 336.48 157.007 337.392 151.391Z" stroke="#22272E" stroke-width="1.8" stroke-miterlimit="10" stroke-linecap="round" stroke-linejoin="round"/>
<path d="M310.442 147.776C310.442 147.776 312.042 146.076 317.042 148.176" stroke="#22272E" stroke-width="1.8" stroke-miterlimit="10" stroke-linecap="round" stroke-linejoin="round"/>
<path d="M337.542 149.776L347.342 150.676" stroke="#22272E" stroke-width="1.8" stroke-miterlimit="10" stroke-linecap="round" stroke-linejoin="round"/>
<path d="M349.742 162.376L346.342 168.276C345.942 169.076 346.442 169.976 347.342 169.976H354.142C355.042 169.976 355.542 169.076 355.142 168.276L351.742 162.376C351.242 161.676 350.142 161.676 349.742 162.376Z" fill="#D4F0FC"/>
<path d="M489.042 362.476L491.443 384.676C491.443 386.276 499.743 387.476 509.943 387.476C520.143 387.476 528.443 386.176 528.443 384.676L530.842 362.476H489.042Z" fill="#22272E"/>
<path d="M530.842 362.476C530.842 364.276 521.443 365.676 509.943 365.676C498.443 365.676 489.042 364.276 489.042 362.476C489.042 360.676 498.443 359.276 509.943 359.276C521.543 359.376 530.842 360.776 530.842 362.476Z" fill="#D4F0FC"/>
<path d="M504.342 362.476C504.342 362.476 493.142 358.076 494.342 349.476C495.642 340.776 503.842 358.676 505.942 355.976C508.042 353.276 505.342 340.176 509.942 338.976C514.642 337.876 513.342 356.176 513.342 356.176C513.342 356.176 518.042 353.876 520.942 350.476C523.842 347.076 528.042 354.676 516.142 362.476C516.042 362.476 510.942 365.076 504.342 362.476Z" fill="#2A87DB"/>
<path d="M603.042 356.676C603.042 359.676 600.642 362.076 597.642 362.076C594.642 362.076 592.242 359.676 592.242 356.676C592.242 353.676 594.642 351.276 597.642 351.276C600.542 351.276 603.042 353.776 603.042 356.676Z" fill="#D4F0FC"/>
<path d="M218.142 375.976C215.442 376.676 212.642 377.976 210.142 380.176C205.842 383.876 198.942 386.476 191.642 386.076C184.642 385.776 177.242 382.676 171.642 375.176C195.942 377.776 218.142 375.976 218.142 375.976Z" fill="white"/>
<path d="M191.542 386.176C173.942 386.476 149.342 386.176 141.742 386.076C132.942 386.776 123.042 383.376 116.442 372.476C116.442 372.476 122.942 373.476 139.642 373.576C156.342 373.676 169.642 372.476 169.642 372.476C170.242 373.476 170.842 374.376 171.442 375.276C177.142 382.676 184.542 385.776 191.542 386.176Z" fill="#22272E"/>
</g>
</svg>
