<svg version="1.2" baseProfile="tiny-ps" xmlns="http://www.w3.org/2000/svg" viewBox="0 0 572 409" width="572" height="409">
	<title>hire-developer-svg</title>
	<style>
		tspan { white-space:pre }
		.shp0 { fill: #22272e } 
		.shp1 { fill: #63737a } 
		.shp2 { fill: none;stroke: #63737a;stroke-linecap:round;stroke-linejoin:round;stroke-width: 1.8 } 
		.shp3 { fill: #d4f0fc } 
		.shp4 { fill: none;stroke: #d4f0fc;stroke-linecap:round;stroke-linejoin:round;stroke-width: 1.8 } 
		.shp5 { fill: #2a87db } 
		.shp6 { fill: #f4c2c9 } 
		.shp7 { fill: none;stroke: #e26e85;stroke-linecap:round;stroke-linejoin:round;stroke-width: 1.8 } 
		.shp8 { fill: #ffffff } 
		.shp9 { fill: none;stroke: #2a87db;stroke-linecap:round;stroke-linejoin:round;stroke-width: 1.8 } 
		.shp10 { fill: #f8ab5d } 
		.shp11 { fill: none;stroke: #22272e;stroke-linecap:round;stroke-linejoin:round;stroke-width: 1.8 } 
		.shp12 { fill: #e0f0ff } 
		.shp13 { fill: none;stroke: #e0f0ff;stroke-linecap:round;stroke-linejoin:round;stroke-width: 1.8 } 
		.shp14 { fill: #e26e85 } 
	</style>
	<g id="Layer" style="opacity: 0.902">
		<path id="Layer" class="shp0" d="M68.94 335.38L56.24 342.68C54.34 343.78 51.84 343.18 50.74 341.18L14.34 278.38C13.24 276.48 13.84 273.98 15.84 272.88L28.54 265.58C30.44 264.48 32.94 265.08 34.04 267.08L70.44 329.88C71.54 331.78 70.84 334.28 68.94 335.38Z" />
		<path id="Layer" class="shp1" d="M60.04 326.48C58.94 324.58 56.44 323.88 54.54 324.98C52.64 326.08 51.94 328.58 53.04 330.48C54.14 332.38 56.64 333.08 58.54 331.98C60.44 330.88 61.14 328.48 60.04 326.48Z" />
		<path id="Layer" class="shp2" d="M43.34 316.48L52.64 311.08" />
		<path id="Layer" class="shp2" d="M40.74 312.08L50.14 306.68" />
		<path id="Layer" class="shp3" d="M88.14 292.48L79.94 327.18C79.64 328.18 84.44 330.68 90.84 332.88C97.14 335.08 102.64 336.08 102.94 335.18L118.04 302.88L88.14 292.48Z" />
		<path id="Layer" class="shp4" d="M110.24 311.58L115.84 313.48C118.34 314.38 119.44 317.18 118.24 319.48L113.54 328.48C112.54 330.38 110.34 331.18 108.34 330.48L102.24 328.38" />
		<path id="Layer" class="shp5" d="M118.04 302.98C117.64 304.18 110.54 302.88 102.34 299.98C94.04 297.08 87.74 293.78 88.14 292.48C88.54 291.28 95.64 292.58 103.84 295.48C112.14 298.38 118.44 301.68 118.04 302.98Z" />
		<path id="Layer" class="shp1" d="M171.24 122.78L56.54 153.18C52.34 154.28 48.24 151.48 47.74 147.18L33.44 23.48C33.14 20.48 35.54 17.88 38.54 18.18L155.14 26.28C158.44 26.48 161.14 28.98 161.64 32.28L174.64 117.48C175.14 119.78 173.54 122.18 171.24 122.78Z" />
		<path id="Layer" class="shp0" d="M176.54 123.18L60.64 153.88C56.44 154.98 52.24 152.08 51.74 147.78L37.34 22.78C37.04 19.78 39.44 17.18 42.54 17.38L160.44 25.48C163.74 25.68 166.54 28.18 167.04 31.48L180.24 117.58C180.44 120.18 178.94 122.48 176.54 123.18Z" />
		<path id="Layer" class="shp5" d="M85.84 41.08L57.54 40.68C56.94 40.68 56.54 40.28 56.44 39.68L56.04 36.48C55.94 35.78 56.54 35.18 57.14 35.18L85.54 35.98C86.14 35.98 86.54 36.38 86.64 36.98L87.04 39.88C87.04 40.48 86.54 41.08 85.84 41.08Z" />
		<path id="Layer" class="shp2" d="M57.84 51.68L112.64 50.98" />
		<path id="Layer" class="shp2" d="M59.24 62.78L93.94 61.38" />
		<path id="Layer" class="shp3" d="M72.24 131.18L68.94 131.88C68.24 132.08 67.54 131.58 67.44 130.78L64.14 103.08C64.04 102.38 64.54 101.78 65.24 101.68L68.54 101.18C69.24 101.08 69.84 101.58 69.94 102.28L73.34 129.78C73.24 130.48 72.84 131.08 72.24 131.18Z" />
		<path id="Layer" class="shp5" d="M83.94 127.28L78.44 83.28C78.34 82.58 78.84 81.98 79.54 81.88L82.34 81.58C83.04 81.48 83.64 81.98 83.64 82.68L89.14 126.28C89.24 126.88 88.84 127.48 88.14 127.68L85.24 128.28C84.74 128.48 84.04 127.98 83.94 127.28Z" />
		<path id="Layer" class="shp3" d="M99.24 123.98L97.14 107.78C97.04 107.08 97.54 106.48 98.14 106.38L100.54 105.98C101.24 105.88 101.84 106.38 101.94 107.08L104.04 123.18C104.14 123.78 103.74 124.38 103.04 124.58L100.64 125.08C99.94 125.18 99.24 124.68 99.24 123.98Z" />
		<path id="Layer" class="shp6" d="M116.84 121.58L114.74 121.98C114.04 122.18 113.34 121.68 113.24 120.98L112.04 112.28C111.94 111.58 112.44 110.98 113.04 110.88L115.14 110.48C115.84 110.38 116.54 110.88 116.54 111.58L117.74 120.28C117.84 120.88 117.44 121.48 116.84 121.58Z" />
		<path id="Layer" class="shp5" d="M157.64 109.48L149.04 90.18L156.44 73.08C159.84 76.68 162.34 82.08 163.34 88.18C164.44 96.88 162.14 105.18 157.64 109.48Z" />
		<path id="Layer" class="shp6" d="M156.34 73.08L148.94 90.18L134.44 78.58C136.54 72.68 140.64 68.58 145.74 68.28C149.54 67.98 153.34 69.78 156.34 73.08Z" />
		<path id="Layer" class="shp3" d="M157.64 109.48C156.04 110.98 154.24 111.98 152.24 112.38C143.84 114.18 135.14 105.18 133.34 92.28C132.64 87.18 133.14 82.38 134.44 78.48L148.94 90.08L157.64 109.48Z" />
		<path id="Layer" class="shp3" d="M254.54 24.28C259.34 33.58 265.34 42.78 268.94 47.98C270.54 50.28 273.64 50.78 275.84 49.18C280.34 45.98 286.34 42.78 290.54 40.68C293.04 39.38 294.24 36.38 293.14 33.78C290.44 27.48 287.64 19.08 285.34 11.68C282.24 1.88 271.24 -2.82 262.04 1.78C253.64 5.88 250.24 15.98 254.54 24.28Z" />
		<path id="Layer" class="shp6" d="M287.74 35.18C289.24 35.18 290.64 35.78 291.44 36.98C293.04 39.28 296.04 43.18 299.24 45.48C303.94 48.78 321.04 51.68 322.44 54.18C323.84 56.68 319.74 57.48 316.94 57.18C314.04 56.98 311.74 56.58 311.14 57.78C310.54 58.98 311.34 63.98 315.24 67.48C319.04 70.98 326.14 74.68 326.44 77.88C326.74 81.08 318.84 77.98 315.34 75.78C311.74 73.68 310.84 73.18 310.84 73.18C310.84 73.18 310.34 74.18 307.54 75.18C305.94 75.68 304.24 74.38 302.74 74.68C301.24 74.98 294.54 78.38 291.34 76.78C289.04 75.58 283.94 63.98 281.44 60.88C279.64 58.58 275.34 51.98 273.24 48.68C272.34 47.38 272.34 45.58 273.14 44.28C274.84 40.98 279.24 35.48 287.74 35.18Z" />
		<path id="Layer" class="shp7" d="M310.74 73.28C310.74 73.28 306.84 71.28 305.24 69.68C304.34 68.78 303.64 67.48 303.64 67.48" />
		<path id="Layer" class="shp7" d="M302.64 74.68C302.64 74.68 300.24 73.68 299.34 72.98C298.44 72.18 297.14 70.08 297.14 70.08" />
		<path id="Layer" class="shp7" d="M296.84 76.68C296.84 76.68 295.04 75.98 294.04 75.08C293.34 74.48 291.94 72.68 291.94 72.68" />
		<path id="Layer" class="shp5" d="M221.54 103.38C221.84 102.58 222.84 102.58 223.14 103.38C223.64 104.88 224.24 106.48 224.94 107.18C225.54 107.78 227.24 108.48 228.74 108.98C229.54 109.28 229.54 110.28 228.74 110.58C227.24 111.08 225.64 111.68 224.94 112.38C224.34 112.98 223.64 114.68 223.14 116.18C222.84 116.98 221.84 116.98 221.54 116.18C221.04 114.68 220.44 113.08 219.74 112.38C219.14 111.78 217.44 111.08 215.94 110.58C215.14 110.28 215.14 109.28 215.94 108.98C217.44 108.48 219.04 107.88 219.74 107.18C220.44 106.48 221.04 104.88 221.54 103.38Z" />
		<path id="Layer" class="shp5" d="M233.64 45.68C233.84 45.08 234.64 45.08 234.84 45.68C235.24 46.78 235.64 47.98 236.14 48.38C236.64 48.88 237.74 49.28 238.84 49.68C239.44 49.88 239.44 50.68 238.84 50.88C237.74 51.28 236.54 51.68 236.14 52.18C235.64 52.68 235.24 53.78 234.84 54.88C234.64 55.48 233.84 55.48 233.64 54.88C233.24 53.78 232.84 52.58 232.34 52.18C231.84 51.68 230.74 51.28 229.64 50.88C229.04 50.68 229.04 49.88 229.64 49.68C230.74 49.28 231.94 48.88 232.34 48.38C232.84 47.88 233.34 46.68 233.64 45.68Z" />
		<path id="Layer" class="shp5" d="M328.34 95.38C328.54 94.78 329.34 94.78 329.54 95.38C329.94 96.48 330.34 97.68 330.84 98.08C331.34 98.48 332.44 98.98 333.54 99.38C334.14 99.58 334.14 100.38 333.54 100.58C332.44 100.98 331.24 101.38 330.84 101.88C330.34 102.38 329.94 103.48 329.54 104.58C329.34 105.18 328.54 105.18 328.34 104.58C327.94 103.48 327.54 102.28 327.04 101.88C326.54 101.38 325.44 100.98 324.34 100.58C323.74 100.38 323.74 99.58 324.34 99.38C325.44 98.98 326.64 98.58 327.04 98.08C327.54 97.68 328.04 96.48 328.34 95.38Z" />
		<path id="Layer" class="shp3" d="M243.74 78.28C243.94 77.78 244.54 77.78 244.64 78.28C244.94 79.18 245.34 80.08 245.64 80.48C246.04 80.88 246.94 81.28 247.84 81.48C248.34 81.68 248.34 82.28 247.84 82.38C246.94 82.68 246.04 83.08 245.64 83.38C245.24 83.78 244.84 84.68 244.64 85.58C244.44 86.08 243.84 86.08 243.74 85.58C243.44 84.68 243.04 83.78 242.74 83.38C242.34 82.98 241.44 82.58 240.54 82.38C240.04 82.18 240.04 81.58 240.54 81.48C241.44 81.18 242.34 80.78 242.74 80.48C243.04 80.18 243.44 79.18 243.74 78.28Z" />
		<path id="Layer" class="shp3" d="M336.34 122.08C336.64 121.28 337.64 121.28 337.94 122.08C338.44 123.58 339.04 125.18 339.74 125.88C340.34 126.48 342.04 127.18 343.54 127.68C344.34 127.98 344.34 128.98 343.54 129.28C342.04 129.78 340.44 130.38 339.74 131.08C339.14 131.68 338.44 133.38 337.94 134.88C337.64 135.68 336.64 135.68 336.34 134.88C335.84 133.38 335.24 131.78 334.54 131.08C333.94 130.48 332.24 129.78 330.74 129.28C329.94 128.98 329.94 127.98 330.74 127.68C332.24 127.18 333.84 126.58 334.54 125.88C335.14 125.18 335.84 123.58 336.34 122.08Z" />
		<path id="Layer" class="shp0" d="M505.34 102.18C505.34 102.18 503.94 103.58 506.54 114.18C509.14 124.78 515.04 132.88 515.04 132.88C515.04 132.88 522.64 126.48 520.34 115.48C518.14 104.48 505.34 102.18 505.34 102.18Z" />
		<path id="Layer" class="shp6" d="M506.84 133.38C506.84 133.38 504.84 133.98 500.14 138.88C495.44 143.78 488.54 146.28 480.34 149.98C472.14 153.68 468.14 136.48 470.24 127.78C472.24 119.08 481.24 113.08 481.24 113.08L498.74 115.48C498.74 115.48 504.54 108.58 506.84 113.08C509.04 117.58 508.84 127.68 506.84 133.38Z" />
		<path id="Layer" class="shp0" d="M491.84 165.28L432.24 178.98C429.64 179.58 427.04 177.98 426.44 175.38L409.54 102.18C408.94 99.58 410.54 96.98 413.14 96.38L472.74 82.68C475.34 82.08 477.94 83.68 478.54 86.28L495.34 159.48C496.04 162.08 494.44 164.68 491.84 165.28Z" />
		<path id="Layer" class="shp3" d="M466.74 103.68L427.94 112.58C426.64 112.88 425.44 112.08 425.14 110.78C424.84 109.48 425.64 108.28 426.94 107.98L465.74 99.08C467.04 98.78 468.24 99.58 468.54 100.88C468.74 102.08 467.94 103.38 466.74 103.68Z" />
		<path id="Layer" class="shp2" d="M427.84 122.88L471.24 112.88" />
		<path id="Layer" class="shp2" d="M429.54 130.18L472.94 120.18" />
		<path id="Layer" class="shp3" d="M455.44 158.98L439.44 162.68C438.14 162.98 436.94 162.18 436.64 160.88L432.94 144.88C432.64 143.58 433.44 142.38 434.74 142.08L450.74 138.38C452.04 138.08 453.24 138.88 453.54 140.18L457.24 156.18C457.44 157.38 456.64 158.68 455.44 158.98Z" />
		<path id="Layer" class="shp2" d="M459.44 136.28L475.74 132.48" />
		<path id="Layer" class="shp2" d="M461.24 144.18L477.64 140.48" />
		<path id="Layer" class="shp2" d="M463.04 152.18L472.94 149.88" />
		<path id="Layer" class="shp5" d="M454.14 89.28L432.94 94.18C431.44 94.48 430.14 93.18 430.44 91.68L430.64 90.68C430.84 89.88 431.44 89.28 432.24 89.08L452.54 84.38C453.34 84.18 454.14 84.48 454.64 85.08L455.24 85.88C456.24 87.18 455.64 88.98 454.14 89.28Z" />
		<path id="Layer" class="shp6" d="M500.14 109.38C500.14 109.38 497.64 110.68 492.84 109.38C488.04 108.08 487.24 106.88 482.24 105.58C477.24 104.28 470.34 105.68 469.14 107.78C467.94 109.88 471.14 111.18 475.44 111.68C479.74 112.18 481.74 120.38 488.64 123.48C500.14 128.58 510.34 112.98 500.14 109.38Z" />
		<path id="Layer" class="shp7" d="M469.14 107.78C467.94 109.88 471.14 111.18 475.44 111.68C479.74 112.18 481.74 120.38 488.64 123.48C491.04 124.58 493.34 124.68 495.44 124.28" />
		<path id="Layer" class="shp8" d="M507.74 104.78C507.74 104.78 502.44 108.18 500.14 109.38C500.14 109.38 504.64 113.78 506.44 121.68C508.24 129.58 506.84 133.38 506.84 133.38C506.84 133.38 512.74 132.78 515.64 130.68C515.64 130.68 518.44 126.08 516.14 117.08C513.84 108.08 507.74 104.78 507.74 104.78Z" />
		<path id="Layer" class="shp5" d="M570.54 92.58C566.54 79.38 550.94 73.98 539.64 81.88C533.04 86.48 526.14 90.98 520.64 93.98C505.34 102.28 505.34 102.28 505.34 102.28C505.34 102.28 514.04 110.88 515.34 120.38C516.64 129.88 515.04 132.98 515.04 132.98C515.04 132.98 538.94 127.08 560.04 116.78C568.94 112.28 573.44 102.08 570.54 92.58Z" />
		<path id="Layer" class="shp0" d="M513.04 125.68C513.04 124.98 512.54 124.48 511.84 124.48C511.14 124.48 510.64 124.98 510.64 125.68C510.64 126.38 511.14 126.88 511.84 126.88C512.54 126.88 513.04 126.38 513.04 125.68Z" />
		<path id="Layer" class="shp1" d="M378.84 310.28L449.54 301.98L448.34 314.78L434.44 316.78L433.04 319.38L378.84 310.28Z" />
		<path id="Layer" class="shp0" d="M433.04 317.98L451.44 245.08C452.04 242.58 454.24 240.58 456.74 240.28L551.24 226.18C553.24 225.88 554.94 227.78 554.34 229.78L535.04 295.08C534.34 297.28 532.54 299.08 530.24 299.58L436.34 321.48C434.34 321.88 432.54 320.08 433.04 317.98Z" />
		<path id="Layer" class="shp1" d="M505.34 271.38C504.34 274.98 501.04 278.48 497.74 279.18C494.54 279.88 492.64 277.48 493.64 273.88C494.64 270.28 497.94 266.78 501.24 266.08C504.44 265.38 506.34 267.78 505.34 271.38Z" />
		<path id="Layer" class="shp0" d="M434.44 321.18C434.14 320.98 393.14 315.58 381.74 313.98C380.04 313.78 378.84 312.38 378.84 310.68L378.84 310.28L434.44 316.78L434.44 321.18Z" />
		<path id="Layer" class="shp9" d="M520.44 183.78L551.24 183.78C552.64 183.78 553.84 184.98 553.74 186.48L552.14 205.78C552.04 207.48 550.74 208.78 549.04 208.98L518.04 212.38C516.54 212.58 515.24 211.28 515.34 209.78L517.04 187.08C517.04 185.18 518.64 183.78 520.44 183.78Z" />
		<path id="Layer" class="shp9" d="M518.44 184.48L536.44 194.18C537.64 194.78 539.04 194.68 540.14 193.88L552.94 184.48" />
		<path id="Layer" class="shp0" d="M347.34 86.48L344.14 89.98C343.64 90.48 343.64 91.38 344.14 91.98C344.64 92.48 345.34 92.58 345.94 92.28L349.74 89.98L347.34 86.48Z" />
		<path id="Layer" class="shp0" d="M376.54 94.98L377.44 99.68C377.54 100.38 377.14 101.18 376.44 101.38C375.74 101.58 375.04 101.28 374.74 100.58L372.74 96.58L376.54 94.98Z" />
		<path id="Layer" class="shp5" d="M365.84 99.08C377.88 99.08 387.64 89.32 387.64 77.28C387.64 65.24 377.88 55.48 365.84 55.48C353.8 55.48 344.04 65.24 344.04 77.28C344.04 89.32 353.8 99.08 365.84 99.08Z" />
		<path id="Layer" class="shp3" d="M372.57 89.57C379.35 85.84 381.82 77.33 378.1 70.55C374.37 63.78 365.86 61.31 359.08 65.03C352.31 68.75 349.83 77.27 353.56 84.04C357.28 90.82 365.8 93.29 372.57 89.57Z" />
		<path id="Layer" class="shp2" d="M369.74 82.28L365.84 77.28L367.94 70.28" />
		<path id="Layer" class="shp5" d="M351.94 56.18C351.34 56.38 350.64 56.08 350.44 55.38C349.94 52.48 351.54 49.58 354.44 48.48C357.34 47.38 360.44 48.48 362.04 50.98C362.44 51.58 362.14 52.28 361.44 52.58L351.94 56.18Z" />
		<path id="Layer" class="shp5" d="M388.84 66.98C389.24 67.48 390.04 67.58 390.54 67.08C392.54 64.88 392.74 61.58 390.84 59.08C388.94 56.58 385.74 55.88 383.14 57.18C382.54 57.48 382.34 58.28 382.74 58.78L388.84 66.98Z" />
		<path id="Layer" class="shp5" d="M375.74 53.88L370.04 52.28C369.14 51.98 368.54 51.08 368.84 50.08C369.14 49.18 370.04 48.58 371.04 48.88L376.74 50.48C377.64 50.78 378.24 51.68 377.94 52.68C377.64 53.58 376.64 54.18 375.74 53.88Z" />
		<path id="Layer" class="shp5" d="M371.09 51.41L369.52 56.79L373.65 57.99L375.22 52.61L371.09 51.41Z" />
		<path id="Layer" class="shp0" d="M133.14 222.68L134.04 231.88C134.14 232.78 133.64 233.68 132.74 234.08C129.94 235.38 128.24 238.28 128.54 241.28L129.64 251.48C129.94 254.58 132.24 257.08 135.24 257.68C136.14 257.88 136.84 258.68 136.94 259.58L137.84 268.78C138.04 270.48 136.24 271.68 134.74 270.88L132.54 269.78C127.74 267.38 124.44 262.58 123.94 257.18L121.84 236.88C121.24 231.48 123.54 226.18 127.74 222.78L129.74 221.18C130.94 220.18 132.94 220.98 133.14 222.68Z" />
		<path id="Layer" class="shp10" d="M179.84 28.38C181.64 40.58 174.84 51.68 163.44 53.28C150.34 55.08 136.64 43.78 134.84 28.18C133.14 12.88 143.84 2.38 156.94 4.18C168.44 5.78 178.14 16.38 179.84 28.38Z" />
		<path id="Layer" class="shp3" d="M184.54 26.28C186.34 38.88 179.44 50.38 167.64 51.98C154.04 53.88 139.94 42.18 138.14 26.08C136.34 10.28 147.44 -0.52 160.94 1.28C172.74 2.98 182.74 13.98 184.54 26.28Z" />
		<path id="Layer" class="shp0" d="M168.14 19.28C168.54 22.38 166.64 24.78 163.84 24.78C160.94 24.78 158.14 22.08 157.74 18.88C157.34 15.68 159.44 13.28 162.34 13.48C165.14 13.68 167.74 16.28 168.14 19.28Z" />
		<path id="Layer" class="shp0" d="M170.84 38.88L160.54 39.58C158.04 39.78 155.74 37.68 155.34 34.88C154.54 28.78 158.54 23.98 163.84 24.08C168.84 24.18 173.34 28.68 174.14 34.08C174.34 36.68 172.94 38.78 170.84 38.88Z" />
		<path id="Layer" class="shp0" d="M492.34 206.58C490.84 204.98 488.34 204.88 486.74 206.28C485.14 207.78 485.04 210.28 486.44 211.88C487.84 213.48 490.44 213.58 492.04 212.18C493.74 210.68 493.84 208.18 492.34 206.58Z" />
		<path id="Layer" class="shp5" d="M487.14 197.48L486.44 196.68C484.14 194.18 480.24 193.98 477.64 196.28C475.14 198.58 474.94 202.48 477.24 205.08L477.94 205.88C478.74 206.78 479.34 207.78 479.64 208.98C479.84 209.88 480.14 210.88 480.34 211.88C480.84 213.98 483.44 214.78 485.14 213.28L489.54 209.28L493.94 205.28C495.54 203.78 495.04 201.18 492.94 200.38C491.94 200.08 491.04 199.68 490.14 199.38C488.94 198.98 487.94 198.38 487.14 197.48Z" />
		<path id="Layer" class="shp0" d="M407.74 213.18C407.74 213.18 410.14 224.58 407.74 238.38L440.14 231.38C440.14 231.38 432.94 219.38 431.04 208.38L407.74 213.18Z" />
		<path id="Layer" class="shp2" d="M408.44 218.38L432.24 213.38" />
		<path id="Layer" class="shp2" d="M414.04 223.08L429.44 219.38" />
		<path id="Layer" class="shp2" d="M414.34 227.88L424.64 225.48" />
		<path id="Layer" class="shp5" d="M484.34 323.18L506.14 318.28C506.14 318.28 506.44 328.28 521.84 334.18C521.84 334.18 504.74 347.18 499.44 350.58C499.54 350.48 486.74 343.88 484.34 323.18Z" />
		<path id="Layer" class="shp11" d="M485.64 329.78L507.54 322.68" />
		<path id="Layer" class="shp11" d="M492.84 333.88L506.54 327.58" />
		<path id="Layer" class="shp11" d="M495.14 338.08L508.84 330.68" />
		<path id="Layer" class="shp11" d="M498.14 342.08L506.04 337.28" />
		<path id="Layer" class="shp12" d="M138.54 167.28C138.54 167.28 136.34 167.88 132.84 167.48L134.64 164.68C130.74 164.78 121.34 159.68 120.34 154.98C120.24 154.38 120.24 153.78 120.44 153.38L120.44 153.28C121.94 150.28 129.84 150.98 135.64 156.68C142.54 163.38 138.54 167.28 138.54 167.28Z" />
		<path id="Layer" class="shp5" d="M134.74 164.68L132.94 167.48C130.74 167.18 127.94 166.48 124.94 164.78C121.14 162.68 119.34 159.98 118.44 157.88C119.54 155.38 120.34 153.68 120.54 153.28C120.34 153.78 120.34 154.28 120.44 154.88C121.44 159.68 130.84 164.78 134.74 164.68Z" />
		<path id="Layer" class="shp6" d="M79.14 194.98C79.14 194.98 83.74 197.08 88.04 196.48C92.34 195.88 100.74 193.48 102.44 194.38C104.14 195.28 107.04 195.38 106.14 198.28C105.34 201.18 103.54 204.58 99.74 204.78C95.94 205.08 92.14 207.98 85.84 206.18C79.54 204.38 75.84 203.48 75.64 200.98C75.54 198.38 79.14 194.98 79.14 194.98Z" />
		<path id="Layer" class="shp8" d="M138.54 167.28C136.94 171.98 116.04 199.48 106.14 213.88C96.24 228.28 79.44 269.08 71.04 267.38C62.64 265.68 52.24 257.48 54.04 252.78C55.94 248.08 77.14 234.68 93.34 211.58C109.54 188.48 109.14 172.48 114.04 159.38C116.14 153.78 117.64 154.18 117.64 154.18C117.64 154.18 117.54 155.78 118.34 157.98C119.14 160.08 120.94 162.78 124.84 164.88C127.84 166.58 130.64 167.28 132.84 167.58C136.34 167.98 138.54 167.28 138.54 167.28Z" />
		<path id="Layer" class="shp13" d="M102.54 208.68C102.54 208.68 106.54 201.28 107.54 196.78" />
		<path id="Layer" class="shp13" d="M106.34 209.68C106.34 209.68 109.04 204.58 110.44 203.28" />
		<path id="Layer" class="shp13" d="M91.64 229.08C91.64 229.08 89.74 234.08 87.64 237.58" />
		<path id="Layer" class="shp13" d="M86.04 227.68C86.04 227.68 82.34 233.48 75.64 238.88" />
		<path id="Layer" class="shp6" d="M94.54 201.18C94.54 201.18 100.74 205.18 104.24 206.58C107.84 207.98 112.44 206.48 112.84 206.48C113.24 206.48 115.14 209.48 113.44 211.58C111.74 213.68 109.84 213.98 109.64 214.68C109.44 215.38 109.94 219.38 108.84 220.78C107.84 222.18 105.64 222.98 104.94 223.88C104.34 224.78 103.54 229.28 102.44 229.98C101.34 230.68 99.94 232.98 97.14 233.38C94.34 233.78 83.34 229.38 73.14 221.48C66.64 216.48 62.44 214.68 62.44 214.68C62.44 214.68 66.94 194.98 75.14 196.78C83.44 198.58 94.54 201.18 94.54 201.18Z" />
		<path id="Layer" class="shp7" d="M94.54 201.18C94.54 201.18 100.74 205.18 104.24 206.58C107.84 207.98 112.44 206.48 112.84 206.48" />
		<path id="Layer" class="shp5" d="M69.84 188.38C69.84 188.38 70.94 187.48 72.24 188.48C73.54 189.48 78.44 193.38 79.04 194.98C79.74 196.58 76.34 206.48 71.04 212.58C65.84 218.68 62.94 218.68 62.64 218.58C62.34 218.48 54.94 215.08 53.94 213.78C52.94 212.48 53.34 211.08 53.34 211.08C53.34 211.08 67.44 188.28 69.84 188.38Z" />
		<path id="Layer" class="shp3" d="M5.14 153.78C-1.66 162.08 -0.86 174.38 7.04 181.68C9.34 183.78 11.94 186.18 14.84 188.78C30.44 202.78 54.64 211.48 54.64 211.48C67.84 205.38 69.84 188.38 69.84 188.38C57.94 180.88 46.14 166.88 37.44 154.68C29.64 143.88 13.64 143.48 5.14 153.78Z" />
		<path id="Layer" class="shp7" d="M109.74 214.78C109.74 214.78 107.04 216.08 105.34 216.28C103.64 216.48 101.24 216.28 101.24 216.28" />
		<path id="Layer" class="shp7" d="M105.54 223.58C105.54 223.58 104.34 224.58 102.64 224.88C100.94 225.08 99.54 224.28 99.54 224.28" />
		<path id="Layer" class="shp7" d="M101.64 230.88C101.64 230.88 99.24 231.68 97.94 230.48" />
		<path id="Layer" class="shp0" d="M370.14 329.98C351.04 330.38 321.04 337.58 302.84 344.98C284.74 352.38 272.34 359.28 272.34 359.28C272.34 359.28 276.64 356.88 281.74 366.68C286.84 376.48 285.04 387.88 285.04 387.88C287.64 387.18 349.64 385.28 369.44 382.68C389.24 380.08 412.14 372.88 410.74 353.58C409.34 334.28 392.34 328.98 369.04 324.68C345.64 320.38 332.74 322.18 331.34 321.78C329.94 321.48 325.44 319.58 323.04 316.68C320.64 313.78 318.14 305.88 318.14 305.88C318.14 305.88 257.74 302.08 251.64 312.28C245.64 322.48 272.94 351.68 272.94 351.68L370.14 329.98Z" />
		<path id="Layer" class="shp0" d="M226.14 304.68C226.14 304.68 222.84 311.88 221.64 314.48C220.44 317.08 192.74 318.08 180.34 318.28C167.94 318.48 143.64 323.48 141.74 341.38C139.54 361.78 156.64 371.28 187.14 373.48C221.44 375.98 253.24 375.18 259.94 375.88C266.64 376.58 285.14 368.28 287.24 360.58C289.34 352.88 318.44 346.98 318.44 346.98C318.44 346.98 324.84 314.98 314.34 308.58C303.84 302.08 226.14 304.68 226.14 304.68Z" />
		<path id="Layer" class="shp2" d="M287.24 353.38C287.24 353.38 230.44 320.68 185.34 322.58" />
		<path id="Layer" class="shp0" d="M272.34 359.38C272.34 359.38 269.54 360.58 271.14 370.18C272.74 379.78 281.54 389.98 285.04 387.98C288.54 385.98 286.74 368.58 282.74 362.78C278.84 357.08 272.34 359.38 272.34 359.38Z" />
		<path id="Layer" class="shp5" d="M265.84 362.58C265.84 362.58 260.34 369.28 257.84 371.18C255.34 373.08 244.14 373.88 240.04 380.28C235.94 386.68 245.34 401.38 252.94 398.98C250.84 400.28 249.04 401.48 247.64 402.38C240.84 406.98 228.44 413.88 219.64 403.78C212.24 395.18 214.84 384.78 220.24 377.88C225.64 371.08 239.54 370.18 242.74 369.28C245.94 368.28 253.24 363.08 256.44 361.18C259.14 359.58 261.14 361.68 265.84 362.58Z" />
		<path id="Layer" class="shp6" d="M285.24 384.68C284.84 384.78 277.64 385.98 274.64 386.58C272.24 387.08 260.84 393.78 252.84 398.88C245.24 401.28 235.84 386.58 239.94 380.18C244.04 373.78 255.24 372.98 257.74 371.08C260.24 369.18 265.74 362.48 265.74 362.48C266.44 362.58 267.24 362.68 268.04 362.78C274.44 363.28 277.74 361.08 277.74 361.08C278.94 362.18 280.24 363.98 281.54 366.58C285.14 373.28 285.44 380.58 285.24 384.68Z" />
		<path id="Layer" class="shp2" d="M370.14 329.98C351.04 330.38 321.04 337.58 302.84 344.98C284.74 352.38 272.34 359.28 272.34 359.28" />
		<path id="Layer" class="shp2" d="M145.84 331.38C147.04 330.78 148.84 330.48 151.34 331.28C156.74 333.08 158.54 344.98 155.84 352.38C153.14 359.88 147.14 359.48 145.14 357.38" />
		<path id="Layer" class="shp2" d="M407.24 342.08C407.24 342.08 402.24 336.38 396.34 343.48C389.84 351.18 393.24 364.18 398.44 367.28C403.74 370.38 406.64 367.28 406.64 367.28" />
		<path id="Layer" class="shp11" d="M188.94 200.98C188.94 201.58 188.44 202.08 187.84 202.08C187.24 202.08 186.74 201.58 186.74 200.98C186.74 200.38 187.24 199.88 187.84 199.88C188.44 199.88 188.94 200.38 188.94 200.98Z" />
		<path id="Layer" class="shp6" d="M210.74 182.28C208.64 189.28 206.44 192.28 206.64 198.68C193.94 202.38 185.54 194.48 185.54 194.48C186.14 191.78 186.44 189.68 186.04 188.38C184.84 183.58 178.34 181.38 173.84 175.38C169.34 169.38 168.94 158.78 171.14 157.48C172.14 156.88 173.14 157.08 174.64 162.08C175.54 164.98 176.84 167.58 177.14 167.98C175.04 163.18 174.14 147.38 179.94 149.78C181.84 150.58 179.64 153.98 181.94 160.08C184.04 165.88 187.94 168.08 187.94 168.08C187.94 168.08 187.24 163.38 189.84 159.68C192.04 156.58 197.64 153.08 198.64 156.38C199.74 159.58 194.64 160.78 194.24 164.88C193.64 169.78 199.14 173.58 202.84 170.38C206.54 167.18 204.44 163.58 202.84 161.28C201.24 159.08 198.74 156.18 200.54 154.88C202.34 153.68 206.84 155.08 210.04 160.58C213.14 165.98 212.84 175.28 210.74 182.28Z" />
		<path id="Layer" class="shp5" d="M231.04 253.98C231.04 253.98 208.54 282.38 193.74 288.78C178.94 295.18 168.94 290.68 166.04 275.18C163.14 259.68 172.34 231.98 176.34 221.78C179.24 214.18 183.84 202.18 185.54 194.58C185.54 194.58 194.04 202.38 206.64 198.78C206.74 204.88 203.94 227.38 203.64 229.48C203.74 228.78 204.94 225.48 213.34 213.68C223.04 200.18 232.74 194.28 232.74 194.28C232.74 194.28 240.94 198.18 243.34 216.48C245.64 234.88 231.04 253.98 231.04 253.98Z" />
		<path id="Layer" class="shp11" d="M203.64 229.48C203.64 229.48 202.74 255.08 199.44 263.38" />
		<path id="Layer" class="shp7" d="M187.84 168.18C187.84 168.18 188.24 170.98 189.44 172.58" />
		<path id="Layer" class="shp11" d="M183.24 202.48C183.24 202.48 188.94 210.68 206.04 208.28" />
		<path id="Layer" class="shp11" d="M168.94 283.88C168.94 283.88 166.34 274.98 175.94 272.88C185.64 270.78 197.24 284.68 189.84 290.18" />
		<path id="Layer" class="shp7" d="M177.04 168.18C177.04 168.18 178.14 170.68 180.54 173.08C181.54 174.08 182.94 175.08 183.54 176.38" />
		<path id="Layer" class="shp0" d="M296.44 107.68C307.84 110.58 313.24 117.08 312.74 133.48C312.24 149.88 310.04 155.78 317.84 164.88C325.64 173.88 327.74 186.78 312.94 194.88C298.14 202.98 265.74 205.08 249.64 194.88C233.54 184.68 231.64 173.78 236.44 163.08C241.24 152.38 254.04 145.38 251.24 137.68C248.44 129.88 251.84 138.38 251.84 138.38C251.84 138.38 243.44 132.28 244.14 120.08C244.74 107.88 259.74 103.28 267.54 102.88C271.54 102.68 275.84 105.18 281.74 106.18C287.64 106.98 293.54 106.98 296.44 107.68Z" />
		<path id="Layer" class="shp3" d="M272.54 185.48C272.54 185.48 250.94 186.68 238.34 191.18C225.74 195.68 228.04 205.68 226.44 216.18C224.74 226.68 214.54 237.38 219.74 251.68C224.94 265.98 230.04 274.08 227.34 285.08C224.74 296.08 222.14 301.58 222.54 304.68C223.04 307.78 237.34 317.28 242.84 319.18C248.34 321.08 259.04 313.48 259.04 313.48C259.04 313.48 264.54 320.68 272.54 322.28C280.54 323.98 312.94 315.58 320.34 307.28C320.34 307.28 315.54 297.98 315.34 286.78C315.14 275.58 321.64 261.68 324.04 253.98C326.34 246.28 339.94 216.58 334.64 206.68C330.84 199.58 302.44 183.58 272.54 185.48Z" />
		<path id="Layer" class="shp5" d="M335.04 207.78C335.04 207.78 345.34 218.08 353.44 234.78C353.44 234.78 353.94 200.18 354.64 197.78C354.64 197.78 365.34 200.38 376.14 196.08C376.14 196.08 379.04 222.78 383.34 243.08C387.64 263.38 392.44 293.68 377.84 297.68C363.34 301.78 349.94 292.48 332.24 268.78C314.64 245.18 316.04 233.28 316.04 227.28C315.94 220.18 325.54 201.98 335.04 207.78Z" />
		<path id="Layer" class="shp11" d="M353.44 234.88C353.44 234.88 352.74 256.38 355.34 269.98" />
		<path id="Layer" class="shp11" d="M354.04 207.18C354.04 207.18 366.84 211.18 377.04 204.68" />
		<path id="Layer" class="shp11" d="M373.14 202.08C373.14 202.68 372.64 203.18 372.04 203.18C371.44 203.18 370.94 202.68 370.94 202.08C370.94 201.48 371.44 200.98 372.04 200.98C372.74 200.98 373.14 201.48 373.14 202.08Z" />
		<path id="Layer" class="shp6" d="M375.34 196.48C375.34 196.48 374.34 189.38 379.14 187.08C383.94 184.78 388.34 185.88 393.24 182.28C398.14 178.78 406.44 167.28 406.14 164.78C405.74 162.28 404.04 163.38 400.74 166.08C397.54 168.78 395.94 169.38 395.94 169.38C395.94 169.38 397.94 162.58 397.04 157.58C396.04 152.58 392.74 151.98 391.94 152.48C391.14 152.98 391.94 155.08 391.74 159.08C391.54 162.98 390.34 166.38 386.84 168.88C386.84 168.88 387.64 165.68 386.14 161.88C384.54 158.08 381.84 155.58 379.74 156.18C377.64 156.78 378.34 158.38 379.34 160.58C380.44 162.78 381.94 166.78 377.74 170.98C373.54 175.18 366.74 170.98 369.04 165.38C371.34 159.78 374.84 158.48 376.64 156.98C378.44 155.48 377.94 152.78 374.14 153.38C370.34 153.98 363.84 158.58 360.04 163.68C356.24 168.68 355.14 175.68 355.04 182.48C354.94 189.28 354.64 197.98 354.64 197.98C354.64 197.98 357.14 201.08 362.64 201.08C368.14 200.98 375.34 198.98 375.34 196.48Z" />
		<path id="Layer" class="shp7" d="M395.94 169.48C395.94 169.48 394.24 174.18 391.84 177.98" />
		<path id="Layer" class="shp7" d="M386.74 168.88C386.74 168.88 386.34 172.88 383.54 176.68" />
		<path id="Layer" class="shp11" d="M363.14 297.28C363.14 297.28 360.64 293.28 366.74 287.18C372.84 281.08 385.84 281.78 386.24 288.08" />
		<path id="Layer" class="shp8" d="M266.04 184.08C266.04 184.08 260.44 183.78 256.94 191.38C253.44 198.98 254.44 214.58 258.24 216.98C262.04 219.38 272.24 209.08 272.24 209.08C272.24 209.08 280.84 220.68 287.04 220.18C293.24 219.68 301.04 208.58 300.54 196.38C300.04 184.18 295.04 182.78 292.34 182.48C289.74 181.98 266.04 184.08 266.04 184.08Z" />
		<path id="Layer" class="shp8" d="M272.24 208.98C272.24 208.98 252.54 230.78 252.34 234.88C252.14 238.98 258.84 240.28 260.64 239.38C262.44 238.38 274.24 208.68 272.24 208.98Z" />
		<path id="Layer" class="shp8" d="M272.04 211.68C272.04 211.68 275.44 235.88 277.64 239.68C279.84 243.48 286.84 237.78 286.04 234.48C285.24 231.18 275.74 211.88 272.24 209.08C268.74 206.18 272.04 211.68 272.04 211.68Z" />
		<path id="Layer" class="shp6" d="M296.44 162.78C296.44 162.78 294.24 176.48 295.84 186.78C295.84 186.78 286.34 207.88 272.34 207.88C265.44 207.88 263.24 193.68 264.44 188.08L266.54 172.48C266.54 172.48 280.54 148.28 296.44 162.78Z" />
		<path id="Layer" class="shp14" d="M284.94 177.28C278.94 180.88 272.34 182.68 265.34 181.28L264.54 187.18C272.14 185.68 279.84 183.48 284.94 177.28Z" />
		<path id="Layer" class="shp6" d="M252.84 133.28C252.84 133.28 253.34 141.08 252.04 153.78C250.74 166.48 251.24 174.78 262.04 180.18C272.84 185.58 290.34 180.68 296.74 165.28C303.14 149.88 311.64 120.58 288.64 116.18C265.64 111.78 252.54 117.28 252.84 133.28Z" />
		<path id="Layer" class="shp0" d="M268.84 123.18C268.84 123.18 273.24 137.98 283.04 141.78C292.94 145.58 291.34 154.78 296.24 153.68C301.14 152.58 304.94 148.58 308.24 152.48C311.54 156.28 311.84 122.08 294.94 116.18C278.04 110.28 260.14 109.98 254.84 115.38C249.64 120.78 251.44 138.08 251.44 138.08C251.44 138.08 262.24 135.58 268.84 123.18Z" />
		<path id="Layer" class="shp6" d="M297.34 153.78C297.34 153.78 299.64 148.08 304.54 149.08C309.34 150.08 309.04 165.58 296.54 164.78" />
		<path id="Layer" class="shp0" d="M262.34 148.48C262.94 149.78 262.94 151.28 262.54 152.68C262.34 153.38 262.04 154.08 261.64 154.68C261.44 154.98 261.24 155.28 261.04 155.58C260.94 155.78 260.74 156.08 260.64 156.28C260.24 157.18 260.44 158.18 261.04 159.18C261.74 160.08 262.74 160.98 264.04 161.28C263.34 161.58 262.64 161.48 261.94 161.28C261.24 161.08 260.54 160.68 260.04 160.18C259.44 159.68 259.04 158.98 258.74 158.18C258.54 157.38 258.64 156.48 258.94 155.68C259.14 155.28 259.34 154.98 259.54 154.68C259.74 154.38 259.94 154.18 260.14 153.88C260.54 153.38 260.84 152.88 261.14 152.28C261.74 151.08 262.24 149.88 262.34 148.48Z" />
		<path id="Layer" class="shp11" d="M269.74 167.98C269.74 167.98 274.74 169.38 277.74 164.28" />
		<path id="Layer" class="shp11" d="M276.14 148.48C276.14 148.48 276.54 150.68 280.34 151.08C283.54 151.48 285.04 148.88 285.04 148.88" />
		<path id="Layer" class="shp11" d="M260.54 146.88C260.54 146.88 257.54 149.28 255.14 146.28" />
		<path id="Layer" class="shp0" d="M263.34 137.38C263.54 136.08 262.04 133.88 260.04 133.28C258.04 132.68 254.84 135.48 255.14 136.68C255.54 137.88 257.44 136.08 259.24 136.28C260.84 136.48 263.14 138.48 263.34 137.38Z" />
		<path id="Layer" class="shp0" d="M287.24 139.58C287.44 138.28 285.94 136.08 283.94 135.48C281.94 134.88 278.74 137.68 279.04 138.88C279.44 140.08 281.34 138.28 283.14 138.48C284.84 138.68 287.14 140.68 287.24 139.58Z" />
		<path id="Layer" class="shp0" d="M304.14 153.78C303.14 154.08 302.34 154.58 302.04 155.18C301.94 155.48 301.84 155.78 301.84 156.18C301.84 156.38 301.84 156.58 301.84 156.78C301.84 157.08 301.84 157.28 301.84 157.58C301.84 158.18 301.74 158.78 301.54 159.28C301.34 159.88 300.84 160.48 300.24 160.68C299.04 161.18 297.94 160.88 296.94 160.38C297.94 160.08 298.94 159.88 299.44 159.38C299.94 158.98 300.04 158.28 300.04 157.38C300.04 157.18 300.04 156.98 300.04 156.68C300.04 156.38 300.04 156.08 300.04 155.78C300.14 155.18 300.34 154.48 300.84 154.08C301.94 153.38 303.24 153.38 304.14 153.78Z" />
		<path id="Layer" class="shp11" d="M253.54 156.68C258.46 156.68 262.44 152.33 262.44 146.98C262.44 141.62 258.46 137.28 253.54 137.28C248.63 137.28 244.64 141.62 244.64 146.98C244.64 152.33 248.63 156.68 253.54 156.68Z" />
		<path id="Layer" class="shp11" d="M289.39 151.39C290.3 145.78 286.49 140.49 280.87 139.57C275.26 138.66 269.97 142.48 269.06 148.09C268.15 153.71 271.96 159 277.57 159.91C283.19 160.82 288.48 157.01 289.39 151.39Z" />
		<path id="Layer" class="shp11" d="M262.44 147.78C262.44 147.78 264.04 146.08 269.04 148.18" />
		<path id="Layer" class="shp11" d="M289.54 149.78L299.34 150.68" />
		<path id="Layer" class="shp3" d="M301.74 162.38L298.34 168.28C297.94 169.08 298.44 169.98 299.34 169.98L306.14 169.98C307.04 169.98 307.54 169.08 307.14 168.28L303.74 162.38C303.24 161.68 302.14 161.68 301.74 162.38Z" />
		<path id="Layer" class="shp0" d="M441.04 362.48L443.44 384.68C443.44 386.28 451.74 387.48 461.94 387.48C472.14 387.48 480.44 386.18 480.44 384.68L482.84 362.48L441.04 362.48Z" />
		<path id="Layer" class="shp3" d="M482.84 362.48C482.84 364.28 473.44 365.68 461.94 365.68C450.44 365.68 441.04 364.28 441.04 362.48C441.04 360.68 450.44 359.28 461.94 359.28C473.54 359.38 482.84 360.78 482.84 362.48Z" />
		<path id="Layer" class="shp5" d="M456.34 362.48C456.34 362.48 445.14 358.08 446.34 349.48C447.64 340.78 455.84 358.68 457.94 355.98C460.04 353.28 457.34 340.18 461.94 338.98C466.64 337.88 465.34 356.18 465.34 356.18C465.34 356.18 470.04 353.88 472.94 350.48C475.84 347.08 480.04 354.68 468.14 362.48C468.04 362.48 462.94 365.08 456.34 362.48Z" />
		<path id="Layer" class="shp3" d="M555.04 356.68C555.04 359.68 552.64 362.08 549.64 362.08C546.64 362.08 544.24 359.68 544.24 356.68C544.24 353.68 546.64 351.28 549.64 351.28C552.54 351.28 555.04 353.78 555.04 356.68Z" />
		<path id="Layer" class="shp8" d="M170.14 375.98C167.44 376.68 164.64 377.98 162.14 380.18C157.84 383.88 150.94 386.48 143.64 386.08C136.64 385.78 129.24 382.68 123.64 375.18C147.94 377.78 170.14 375.98 170.14 375.98Z" />
		<path id="Layer" class="shp0" d="M143.54 386.18C125.94 386.48 101.34 386.18 93.74 386.08C84.94 386.78 75.04 383.38 68.44 372.48C68.44 372.48 74.94 373.48 91.64 373.58C108.34 373.68 121.64 372.48 121.64 372.48C122.24 373.48 122.84 374.38 123.44 375.28C129.14 382.68 136.54 385.78 143.54 386.18Z" />
	</g>
</svg>