<svg version="1.2" baseProfile="tiny-ps" xmlns="http://www.w3.org/2000/svg" viewBox="0 0 250 278" width="250" height="278">
	<title>transparency-svg</title>
	<style>
		tspan { white-space:pre }
		.shp0 { fill: #000000 } 
		.txt1 { font-size: 5px;fill: #000000;font-family: "' Helvetica  Neue'" } 
	</style>
	<g id="Layer">
		<path id="Layer" fill-rule="evenodd" class="shp0" d="M194.44 69.5C199.92 69.5 205.33 70.58 210.39 72.67C215.44 74.77 220.04 77.84 223.91 81.71C227.78 85.59 230.85 90.18 232.94 95.24C235.03 100.3 236.11 105.72 236.11 111.2L236.11 209.46C236.11 214.81 235.06 220.11 233.01 225.05C230.97 229.99 227.97 234.49 224.19 238.27C220.41 242.05 215.92 245.05 210.98 247.1C206.04 249.15 200.75 250.2 195.41 250.2L97.22 250.2C91.75 250.2 86.33 249.12 81.28 247.03C76.22 244.93 71.63 241.86 67.76 237.99C63.89 234.11 60.82 229.52 58.73 224.46C56.63 219.4 55.56 213.98 55.56 208.5C50.08 208.5 44.67 207.42 39.61 205.33C34.56 203.23 29.96 200.16 26.09 196.29C22.22 192.41 19.15 187.82 17.06 182.76C14.97 177.7 13.89 172.28 13.89 166.8L13.89 68.54C13.89 63.19 14.94 57.89 16.99 52.95C19.03 48.01 22.03 43.51 25.81 39.73C29.59 35.95 34.08 32.95 39.02 30.9C43.96 28.85 49.25 27.8 54.59 27.8L152.78 27.8C158.25 27.8 163.67 28.88 168.72 30.97C173.78 33.07 178.37 36.14 182.24 40.01C186.11 43.89 189.18 48.48 191.27 53.54C193.37 58.6 194.44 64.02 194.44 69.5ZM55.56 111.2C55.56 105.72 56.63 100.3 58.73 95.24C60.82 90.18 63.89 85.59 67.76 81.71C71.63 77.84 76.22 74.77 81.28 72.67C86.33 70.58 91.75 69.5 97.22 69.5L180.56 69.5C180.56 65.85 179.84 62.23 178.44 58.86C177.05 55.49 175 52.42 172.42 49.84C169.84 47.26 166.78 45.21 163.41 43.82C160.04 42.42 156.43 41.7 152.78 41.7L55.56 41.7C51.91 41.7 48.3 42.42 44.93 43.82C41.56 45.21 38.49 47.26 35.91 49.84C33.33 52.42 31.29 55.49 29.89 58.86C28.5 62.23 27.78 65.85 27.78 69.5L27.78 166.8C27.78 170.45 28.5 174.07 29.89 177.44C31.29 180.81 33.33 183.88 35.91 186.46C38.49 189.04 41.56 191.09 44.93 192.48C48.3 193.88 51.91 194.6 55.56 194.6L55.56 111.2ZM222.22 111.2C222.22 107.55 221.5 103.94 220.1 100.57C218.7 97.2 216.66 94.13 214.08 91.55C211.5 88.97 208.44 86.92 205.07 85.52C201.7 84.13 198.09 83.4 194.44 83.4L194.44 167.76C194.44 173.11 193.39 178.41 191.35 183.35C189.3 188.29 186.3 192.79 182.52 196.57C178.74 200.35 174.26 203.35 169.32 205.4C164.38 207.45 159.08 208.5 153.74 208.5L69.44 208.5C69.45 212.15 70.17 215.76 71.57 219.13C72.96 222.5 75.01 225.57 77.59 228.15C80.17 230.73 83.23 232.78 86.6 234.18C89.97 235.57 93.58 236.3 97.22 236.3L195.41 236.3C198.93 236.3 202.41 235.61 205.67 234.26C208.92 232.91 211.88 230.93 214.37 228.44C216.86 225.95 218.83 222.99 220.18 219.73C221.53 216.48 222.22 212.99 222.22 209.46L222.22 111.2ZM180.56 115.27L180.56 93.23L79.26 194.6L101.29 194.6L180.56 115.27ZM180.56 156.97L180.56 134.93L120.93 194.6L142.96 194.6L180.56 156.97ZM69.44 162.73L69.44 184.77L170.74 83.4L148.71 83.4L69.44 162.73ZM69.44 121.03L69.44 143.07L129.07 83.4L107.04 83.4L69.44 121.03ZM83.78 87.02C82.66 87.65 81.59 88.35 80.57 89.12C79.55 89.89 78.58 90.74 77.68 91.64C76.77 92.55 75.93 93.51 75.16 94.54C74.39 95.56 73.69 96.63 73.06 97.75L83.78 87.02ZM166.22 190.98C167.34 190.35 168.41 189.65 169.43 188.88C170.45 188.11 171.42 187.27 172.32 186.36C173.23 185.45 174.07 184.49 174.84 183.47C175.61 182.44 176.31 181.37 176.94 180.25L166.22 190.98Z" />
	</g>
	<text id="Created by Sophia Bai" style="transform: matrix(13.889,0,0,13.9,-41.667,514.3)" >
		<tspan x="0" y="0" class="txt1">Created by Sophia Bai
</tspan>
	</text>
	<text id="from the Noun Project" style="transform: matrix(13.889,0,0,13.9,-41.667,583.8)" >
		<tspan x="0" y="0" class="txt1">from the Noun Project
</tspan>
	</text>
</svg>