<svg width="76" height="76" viewBox="0 0 76 76" fill="none" xmlns="http://www.w3.org/2000/svg">
<path d="M73.7732 11.3563C73.8071 9.32772 73.0725 7.45727 71.7049 6.08965C70.9628 5.3477 69.7598 5.3477 69.0178 6.08975C68.2759 6.83179 68.2758 8.03477 69.0178 8.77672C69.6508 9.40961 69.9903 10.3031 69.9738 11.2927C69.9581 12.2368 69.6007 13.1484 69.0178 13.7313C67.809 14.9401 55.7587 25.5194 46.3475 33.751L44.0409 31.4445C50.9113 23.5836 59.4374 13.8635 62.7723 10.1727L63.5309 10.9315C64.273 11.6736 65.4761 11.6736 66.2179 10.9317C66.96 10.1898 66.9601 8.98677 66.2182 8.24472L64.0635 6.08984C63.7072 5.7335 63.2239 5.53324 62.72 5.53324H62.7199C62.2159 5.53324 61.7328 5.7334 61.3764 6.08965C60.2202 7.2458 53.1477 15.2785 46.7662 22.5608C45.05 19.9632 42.7577 17.7287 40.0311 16.0133C36.046 13.5062 31.3999 12.235 26.2217 12.235C25.0826 12.235 23.9556 12.3068 22.8723 12.4487C21.8318 12.5849 21.0988 13.5387 21.2349 14.5792C21.3711 15.6197 22.3248 16.3527 23.3654 16.2165C24.2858 16.0961 25.2469 16.035 26.2216 16.035C34.1061 16.035 40.7198 19.5698 44.1495 25.5489C40.9491 29.2059 38.1994 32.3557 36.8734 33.8755C34.5062 34.198 32.7399 35.1667 31.4944 36.8279C30.3365 38.3723 29.8289 40.2168 29.2916 42.1696C28.6437 44.5243 27.9737 46.9592 26.0632 48.8696C25.5197 49.413 25.3571 50.2302 25.6513 50.9402C25.9454 51.6503 26.6382 52.1132 27.4067 52.1132C32.5201 52.1132 36.5729 51.0233 39.4526 48.8738C42.0477 46.9366 43.5946 44.1864 43.9603 40.8838C48.856 36.6082 69.949 18.174 71.7048 16.4182C72.9869 15.1362 73.7409 13.2911 73.7732 11.3563ZM43.4802 36.2578C42.9093 36.7567 42.3558 37.2402 41.8236 37.7048L40.0888 35.9701C40.5531 35.4381 41.0365 34.8841 41.5353 34.313L43.4802 36.2578ZM37.1795 45.8286C35.685 46.9442 33.6961 47.6877 31.2412 48.0518C32.0765 46.3722 32.5451 44.6691 32.9554 43.1777C33.8361 39.9773 34.3725 38.3711 36.5425 37.7979L40.0507 41.306C39.6644 43.1735 38.7033 44.6911 37.1795 45.8286Z" fill="#222222"/>
<path d="M16.9395 18.0453C17.2162 18.0453 17.4973 17.9845 17.7632 17.8564C17.9337 17.7741 18.1089 17.6933 18.2837 17.6162C19.2437 17.1924 19.6784 16.0707 19.2546 15.1107C18.8308 14.1508 17.7091 13.7161 16.7491 14.1398C16.5356 14.234 16.3216 14.3328 16.1129 14.4334C15.1677 14.8892 14.7709 16.0249 15.2265 16.97C15.5541 17.6493 16.2327 18.0453 16.9395 18.0453Z" fill="#222222"/>
<path d="M30.6697 54.224C29.6214 54.2137 28.7603 55.0532 28.7485 56.1024C28.6665 63.4067 27.5638 66.6652 21.2469 66.6652C17.7057 66.6652 13.9893 64.0747 11.0507 59.558C7.81056 54.5775 6.02607 48.1111 6.02607 41.35C6.02607 32.5727 8.67657 25.2695 13.4894 20.7859C14.2572 20.0706 14.2997 18.8683 13.5845 18.1005C12.8692 17.3327 11.6669 17.2901 10.8991 18.0054C8.0642 20.6465 5.87075 24.0781 4.37953 28.2049C2.95054 32.1594 2.22607 36.5821 2.22607 41.35C2.22607 48.838 4.22896 56.0405 7.86556 61.6303C11.5184 67.2451 16.3958 70.4653 21.2469 70.4653C25.8868 70.4653 29.1207 68.8326 30.8585 65.6126C32.3506 62.8477 32.513 59.276 32.5482 56.1451C32.56 55.0959 31.719 54.2356 30.6697 54.224Z" fill="#222222"/>
<path d="M40.0194 26.0873C40.0194 22.597 37.1798 19.7573 33.6895 19.7573C30.1991 19.7573 27.3594 22.597 27.3594 26.0873C27.3594 29.5777 30.1991 32.4174 33.6895 32.4174C37.1798 32.4173 40.0194 29.5777 40.0194 26.0873ZM31.1594 26.0873C31.1594 24.6922 32.2943 23.5573 33.6895 23.5573C35.0846 23.5573 36.2194 24.6922 36.2194 26.0873C36.2194 27.4824 35.0846 28.6174 33.6895 28.6174C32.2943 28.6173 31.1594 27.4823 31.1594 26.0873Z" fill="#222222"/>
<path d="M18.6035 34.6917C22.0939 34.6917 24.9335 31.8521 24.9335 28.3618C24.9335 24.8714 22.0939 22.0317 18.6035 22.0317C15.1131 22.0317 12.2734 24.8714 12.2734 28.3618C12.2734 31.8521 15.1131 34.6917 18.6035 34.6917ZM18.6035 25.8317C19.9986 25.8317 21.1335 26.9667 21.1335 28.3618C21.1335 29.7569 19.9986 30.8917 18.6035 30.8917C17.2084 30.8917 16.0734 29.7569 16.0734 28.3618C16.0734 26.9667 17.2085 25.8317 18.6035 25.8317Z" fill="#222222"/>
<path d="M20.0848 42.9053C20.0848 39.4149 17.2451 36.5752 13.7547 36.5752C10.2643 36.5752 7.42468 39.4149 7.42468 42.9053C7.42468 46.3956 10.2643 49.2353 13.7547 49.2353C17.2451 49.2353 20.0848 46.3956 20.0848 42.9053ZM13.7547 45.4353C12.3596 45.4353 11.2247 44.3004 11.2247 42.9053C11.2247 41.5102 12.3596 40.3752 13.7547 40.3752C15.1498 40.3752 16.2848 41.5102 16.2848 42.9053C16.2848 44.3003 15.1498 45.4353 13.7547 45.4353Z" fill="#222222"/>
<path d="M20.4052 64.0456C23.8956 64.0456 26.7353 61.206 26.7353 57.7157C26.7353 54.2254 23.8956 51.3857 20.4052 51.3857C16.9148 51.3857 14.0752 54.2254 14.0752 57.7157C14.0752 61.206 16.9148 64.0456 20.4052 64.0456ZM20.4052 55.1857C21.8003 55.1857 22.9353 56.3206 22.9353 57.7157C22.9353 59.1108 21.8003 60.2456 20.4052 60.2456C19.0102 60.2456 17.8752 59.1108 17.8752 57.7157C17.8752 56.3206 19.0102 55.1857 20.4052 55.1857Z" fill="#222222"/>
</svg>
