<svg width="76" height="76" viewBox="0 0 76 76" fill="none" xmlns="http://www.w3.org/2000/svg">
<path d="M8.22667 0.730469H67.7728C68.8015 0.730469 69.6363 1.56528 69.6363 2.59398V73.4056C69.6363 74.4343 68.8015 75.2691 67.7728 75.2691H8.22667C7.19797 75.2691 6.36316 74.4343 6.36316 73.4056V2.59398C6.36316 1.56528 7.19797 0.730469 8.22667 0.730469V0.730469ZM19.4921 16.3935C17.0415 16.3935 17.0415 12.6665 19.4921 12.6665H38.804C41.2555 12.6665 41.2555 16.3935 38.804 16.3935H19.4921V16.3935ZM37.1955 63.3331C34.744 63.3331 34.744 59.6061 37.1955 59.6061H56.5074C58.958 59.6061 58.958 63.3331 56.5074 63.3331H37.1955ZM19.4921 38.1201C17.0415 38.1201 17.0415 34.393 19.4921 34.393H38.804C41.2555 34.393 41.2555 38.1201 38.804 38.1201H19.4921V38.1201ZM19.4921 27.2568C17.0415 27.2568 17.0415 23.5297 19.4921 23.5297H38.804C41.2555 23.5297 41.2555 27.2568 38.804 27.2568H19.4921V27.2568ZM65.9093 4.45749H10.0902V71.5421H65.9093V4.45749Z" fill="black"/>
</svg>
