<svg width="76" height="76" viewBox="0 0 76 76" fill="none" xmlns="http://www.w3.org/2000/svg">
<path d="M37.9993 0.73584C58.5796 0.73584 75.2641 17.4204 75.2641 38.0007C75.2641 58.581 58.5796 75.2655 37.9993 75.2655C17.419 75.2655 0.734497 58.581 0.734497 38.0007C0.734497 17.4204 17.419 0.73584 37.9993 0.73584V0.73584ZM4.51268 36.1372H12.4111C12.7414 26.3465 15.8329 15.6026 22.5562 8.2222C12.0574 13.6772 5.16258 24.2703 4.51268 36.1372ZM16.1399 36.1372H23.576C23.7384 27.2029 25.1962 14.8477 29.8155 6.91164C20.5051 12.7122 16.5106 25.8035 16.1399 36.1372ZM27.303 36.1372H48.6957C48.5906 30.5062 46.1822 4.46196 37.9993 4.46196C29.8164 4.46196 27.408 30.5062 27.303 36.1372V36.1372ZM52.4227 36.1372H59.8588C59.488 25.8035 55.4935 12.7122 46.1831 6.91164C50.8024 14.8477 52.2602 27.2029 52.4227 36.1372ZM63.5876 36.1372H71.486C70.8361 24.2694 63.9412 13.6781 53.4424 8.2222C60.1667 15.6062 63.2572 26.343 63.5876 36.1372ZM71.486 39.8642H63.5876C63.2572 49.6584 60.1667 60.3951 53.4424 67.7791C63.9412 62.3232 70.8361 51.7319 71.486 39.8642V39.8642ZM59.8588 39.8642H52.4227C52.2602 48.7984 50.8024 61.1536 46.1831 69.0897C55.4935 63.2891 59.488 50.1979 59.8588 39.8642ZM48.6957 39.8642H27.303C27.408 45.4951 29.8164 71.5394 37.9993 71.5394C46.1822 71.5394 48.5906 45.4951 48.6957 39.8642V39.8642ZM23.576 39.8642H16.1399C16.5106 50.1979 20.5051 63.2891 29.8155 69.0897C25.1962 61.1536 23.7384 48.7984 23.576 39.8642ZM12.4111 39.8642H4.51268C5.16258 51.7319 12.0574 62.3232 22.5562 67.7791C15.832 60.3969 12.7414 49.6566 12.4111 39.8642V39.8642Z" fill="black"/>
</svg>
