<?xml version="1.0" ?><svg data-name="Layer 1" id="Layer_1" viewBox="0 0 64 64" xmlns="http://www.w3.org/2000/svg"><path d="M17,19c-6.523,0-11.8365,4.3619-11.986,9.7687A2.9628,2.9628,0,0,0,5,33.22V34a3.0033,3.0033,0,0,0,3,3H26a3.0033,3.0033,0,0,0,3-3v-.78a2.9628,2.9628,0,0,0-.014-4.451C28.8365,23.3619,23.523,19,17,19Zm0,2c5.09,0,9.295,3.06,9.9133,7H7.0867C7.705,24.06,11.91,21,17,21Zm9,14H8a1.0013,1.0013,0,0,1-1-1H27A1.0013,1.0013,0,0,1,26,35Zm1-3H7a1,1,0,0,1,0-2H27a1,1,0,0,1,0,2Zm35.59-.4355L57,28.0709V28h-.1133l-1.022-.6387L52.7583,15.7119A5.0077,5.0077,0,0,0,47.9268,12H3a3.0033,3.0033,0,0,0-3,3V45a3.0033,3.0033,0,0,0,3,3H7.35a5.99,5.99,0,0,0,11.3,0h26.7a5.99,5.99,0,0,0,11.3,0H61a3.0033,3.0033,0,0,0,3-3V34.1084A2.9846,2.9846,0,0,0,62.59,31.5645ZM33,14H47.9268a3.0046,3.0046,0,0,1,2.8989,2.2275L53.965,28H40a7.0081,7.0081,0,0,1-7-7ZM13,50a4,4,0,1,1,4-4A4.0042,4.0042,0,0,1,13,50Zm38,0a4,4,0,1,1,4-4A4.0042,4.0042,0,0,1,51,50Zm11-5a1.0009,1.0009,0,0,1-1,1H57a6,6,0,0,0-12,0H19A6,6,0,0,0,7,46H3a1.0009,1.0009,0,0,1-1-1V15a1.0009,1.0009,0,0,1,1-1H31v7a9.01,9.01,0,0,0,9,9H56.3139l5.2154,3.26A.9969.9969,0,0,1,62,34.1084Z"/></svg>