<svg version="1.2" baseProfile="tiny-ps" xmlns="http://www.w3.org/2000/svg" viewBox="0 0 93 78" width="93" height="78">
	<title>education-svg</title>
	<style>
		tspan { white-space:pre }
		.shp0 { fill: #000000 } 
	</style>
	<path id="Layer" fill-rule="evenodd" class="shp0" d="M90.15 24.87C90.41 24.96 90.65 25.12 90.81 25.35C90.97 25.58 91.06 25.85 91.06 26.13C91.06 26.4 90.97 26.67 90.81 26.9C90.65 27.13 90.41 27.29 90.15 27.38L74.15 35.38L74.15 52.76C74.15 56.69 71.16 60.36 65.73 63.07C60.45 65.71 53.45 67.16 46.02 67.16C38.59 67.16 31.59 65.71 26.31 63.07C20.89 60.36 17.89 56.7 17.89 52.76L17.89 35.38L10.89 31.86L10.89 66.15C11.01 66.22 11.12 66.29 11.23 66.38C11.34 66.46 11.44 66.55 11.53 66.65C11.62 66.75 11.71 66.86 11.79 66.97C11.87 67.08 11.94 67.2 12 67.32L14.77 72.93C14.99 73.36 15.09 73.84 15.07 74.32C15.04 74.8 14.9 75.26 14.65 75.67C14.39 76.08 14.04 76.41 13.62 76.65C13.2 76.88 12.73 77 12.25 77L6.62 77C6.14 77 5.67 76.88 5.26 76.64C4.84 76.41 4.49 76.07 4.24 75.67C3.99 75.26 3.84 74.8 3.82 74.32C3.8 73.84 3.9 73.37 4.11 72.94L6.89 67.32C6.95 67.2 7.02 67.08 7.1 66.97C7.18 66.86 7.27 66.75 7.36 66.65C7.45 66.55 7.55 66.46 7.66 66.38C7.77 66.29 7.88 66.22 8 66.15L8 30.61L8.34 30.61L1.91 27.4C1.65 27.31 1.41 27.15 1.25 26.92C1.09 26.69 1 26.42 1 26.14C1 25.87 1.09 25.6 1.25 25.37C1.41 25.14 1.65 24.98 1.91 24.89L44.43 3.62C44.68 3.51 44.93 3.43 45.19 3.37C45.46 3.31 45.73 3.29 46 3.29C46.26 3.29 46.53 3.31 46.8 3.37C47.06 3.43 47.31 3.51 47.56 3.62L90.09 24.89L90.15 24.87ZM9.43 68.58L6.62 74.2L12.25 74.2L9.43 68.58ZM71.31 36.78L47.56 48.66C47.31 48.77 47.06 48.85 46.8 48.91C46.53 48.97 46.26 48.99 46 48.99C45.73 48.99 45.46 48.97 45.19 48.91C44.93 48.85 44.68 48.77 44.43 48.66L20.69 36.76L20.69 52.76C20.69 55.56 23.13 58.35 27.55 60.56C32.44 63 39 64.36 46 64.36C53 64.36 59.56 63 64.45 60.56C68.87 58.35 71.31 55.58 71.31 52.76L71.31 36.78ZM86.31 26.13L46.31 6.13C46.28 6.13 46.26 6.12 46.23 6.12C46.21 6.12 46.18 6.12 46.16 6.12C46.13 6.12 46.1 6.12 46.08 6.12C46.05 6.12 46.03 6.13 46 6.13C45.97 6.13 45.95 6.12 45.92 6.12C45.89 6.12 45.87 6.12 45.84 6.12C45.81 6.12 45.79 6.12 45.76 6.12C45.73 6.12 45.71 6.13 45.68 6.13L5.68 26.13L45.68 46.13C45.71 46.13 45.73 46.14 45.76 46.14C45.78 46.14 45.81 46.14 45.84 46.14C45.86 46.14 45.89 46.14 45.91 46.14C45.94 46.14 45.96 46.13 45.99 46.13C46.02 46.13 46.04 46.14 46.07 46.14C46.1 46.14 46.12 46.14 46.15 46.14C46.18 46.14 46.2 46.14 46.23 46.14C46.26 46.14 46.28 46.13 46.31 46.13L86.31 26.13Z" />
</svg>