<?xml version="1.0" ?><!DOCTYPE svg  PUBLIC '-//W3C//DTD SVG 1.1//EN'  'http://www.w3.org/Graphics/SVG/1.1/DTD/svg11.dtd'><svg enable-background="new 0 0 64 64" version="1.1" viewBox="0 0 64 64" xml:space="preserve" xmlns="http://www.w3.org/2000/svg" xmlns:xlink="http://www.w3.org/1999/xlink"><g id="Layer_1"/><g id="Layer_3"><g><path d="M56.7,22.5H35.1l20.7-4.6c0.5-0.1,0.9-0.7,0.8-1.2l-1.7-7.7c-0.1-0.3-0.2-0.5-0.4-0.6s-0.5-0.2-0.8-0.1L15,16.8    c-0.8-0.4-1.7-0.6-2.6-0.6c-3.4,0-6.1,2.7-6.1,6.1c0,2.8,1.8,5.1,4.3,5.8v3.1v23.5c0,0.6,0.4,1,1,1h45c0.6,0,1-0.4,1-1V31.3v-7.9    C57.7,22.9,57.2,22.5,56.7,22.5z M12.7,28.5c1.7-0.1,3.4-0.8,4.4-2.1c0,0,0.1-0.1,0.1-0.1c0.5-0.6,0.8-1.2,1-1.8h0.9l3.5,5.9h-9.9    V28.5z M26.8,16.3l-2,6.2h-3.4l1.8-5.4L26.8,16.3z M32.7,14.9l-2.1,6.5l-3.7,0.8l2.1-6.5L32.7,14.9z M38.6,13.6l-2.1,6.5l-3.7,0.8    l2.1-6.5L38.6,13.6z M44.5,12.3l-2.1,6.5l-3.7,0.8l2.1-6.5L44.5,12.3z M50.5,11l-2.1,6.5l-3.7,0.8l2.1-6.5L50.5,11z M19.2,22.5    h-0.7c0,0,0-0.1,0-0.1c0-1.5-0.5-2.9-1.4-3.9l3.7-0.8L19.2,22.5z M24.9,30.3l-3.5-5.9h3.5c0.1,0,0.1,0.1,0.2,0.1    c0.1,0,0.1,0,0.2,0l3.4,5.8H24.9z M31,30.3l-3.5-5.9h3.7l3.5,5.9H31z M37.1,30.3l-3.5-5.9h3.7l3.5,5.9H37.1z M43.1,30.3l-3.5-5.9    h3.7l3.5,5.9H43.1z M49.2,30.3l-3.5-5.9h3.7l3.5,5.9H49.2z M55.7,30.3h-0.4l-3.5-5.9h3.9V30.3z M54.4,16.1l-3.8,0.8l2.1-6.5    l0.4-0.1L54.4,16.1z M8.3,22.4c0-2.3,1.8-4.1,4.1-4.1c0.7,0,1.4,0.2,2,0.5c1.3,0.7,2.1,2.1,2.1,3.6c0,0.3,0,0.6-0.1,0.9    c-0.1,0.6-0.4,1.2-0.8,1.7c0,0-0.1,0.1-0.1,0.1c-0.9,1.1-2.4,1.7-3.8,1.4C9.8,26.1,8.3,24.4,8.3,22.4z M12.7,53.8V32.3h43v21.5    H12.7z"/></g></g></svg>