<?xml version="1.0" ?><svg id="Layer_1" style="enable-background:new 0 0 411.486 411.486;" version="1.1" viewBox="0 0 411.486 411.486" xml:space="preserve" xmlns="http://www.w3.org/2000/svg" xmlns:xlink="http://www.w3.org/1999/xlink"><path d="M406.486,303.089c2.762,0,5-2.239,5-5v-25c0-2.761-2.238-5-5-5H368.34V85.811c0-25.135-20.448-45.583-45.583-45.583h-26.446  c-17.677,0-33.025,10.121-40.583,24.867c-7.558-14.746-22.906-24.867-40.583-24.867h-26.447c-25.135,0-45.583,20.448-45.583,45.583  v63.767l-80.962-13.054L51.388,51.913c-0.318-2.498-2.442-4.369-4.96-4.369H5c-2.761,0-5,2.239-5,5v79.83v233.885  c0,2.761,2.239,5,5,5h74.147H181.58h74.147h27.922h24.344h45.175h10.172h14.172c2.762,0,5-2.239,5-5v-15.851h23.975  c2.762,0,5-2.239,5-5v-25c0-2.761-2.238-5-5-5h-23.975v-12.318H406.486z M401.486,293.089h-18.975v-15h18.975V293.089z   M250.728,124.598h-97.613v-9.091h97.613V124.598z M260.728,115.507h97.612v9.091h-97.612V115.507z M278.649,315.407h-17.922  v-12.318h17.922V315.407z M260.728,325.407h17.922v15h-17.922V325.407z M278.649,293.089h-17.922v-15h17.922V293.089z   M348.168,340.407h-35.175v-15h35.175V340.407z M348.168,315.407h-35.175v-12.318h35.175V315.407z M312.993,350.407h35.175v10.851  h-35.175V350.407z M348.168,293.089h-35.175v-15h35.175V293.089z M260.728,268.089v-95.29v-38.201h97.612v133.491H260.728z   M296.311,50.228h26.446c19.62,0,35.583,15.962,35.583,35.583v19.696h-97.612V85.811C260.728,66.19,276.69,50.228,296.311,50.228z   M188.698,50.228h26.447c19.62,0,35.583,15.962,35.583,35.583v19.696h-97.613V85.811C153.115,66.19,169.077,50.228,188.698,50.228z   M153.115,134.598h97.613v32.33l-97.613-15.738V134.598z M42.024,57.544l9.838,77.321L10,128.115V57.544H42.024z M10,138.244  l240.728,38.813v94.794c-0.102,0.398-0.173,0.808-0.173,1.237v25c0,0.43,0.071,0.839,0.173,1.237v19.844  c-0.102,0.398-0.173,0.808-0.173,1.237v25c0,0.43,0.071,0.839,0.173,1.237v14.614H186.58v-86.702c0-2.761-2.239-5-5-5H79.147  c-2.761,0-5,2.239-5,5v86.702H10V138.244z M84.147,279.556h41.217v81.702H84.147V279.556z M135.364,361.258v-81.702h41.216v81.702  H135.364z M260.728,350.407h17.922v10.851h-17.922V350.407z M288.649,361.258v-81.702h14.344v81.702H288.649z M372.512,361.258  h-9.172h-5.172v-81.702h14.344V361.258z M401.486,325.407v15h-18.975v-15H401.486z"/><g/><g/><g/><g/><g/><g/><g/><g/><g/><g/><g/><g/><g/><g/><g/></svg>