<?xml version="1.0" ?><svg data-name="Layer 1" id="Layer_1" viewBox="0 0 512 512" xmlns="http://www.w3.org/2000/svg"><rect height="28.81" width="28.81" x="112.46" y="294.6"/><rect height="28.81" width="28.81" x="166.66" y="294.6"/><rect height="28.81" width="28.81" x="112.46" y="344"/><rect height="28.81" width="28.81" x="166.66" y="344"/><rect height="28.81" width="28.81" x="112.46" y="393.39"/><rect height="28.81" width="28.81" x="166.66" y="393.39"/><path d="M456.35,435.8H444.47V342a38.11,38.11,0,0,0-30.3-37.26v-127a58.48,58.48,0,0,0-58.42-58.42H204.61l-1.44-51.12a7.74,7.74,0,0,0-7.74-7.53H164.91a7.74,7.74,0,0,0-7.74,7.54L151.63,265.5h-8.3l-5.49-145.69a7.75,7.75,0,0,0-7.74-7.46H99.59a7.75,7.75,0,0,0-7.74,7.46L86.36,265.5H75.27a7.74,7.74,0,0,0-7.74,7.75V435.8H55.65a7.75,7.75,0,0,0,0,15.5h400.7a7.75,7.75,0,0,0,0-15.5Zm-100.6-301a43,43,0,0,1,42.94,42.92v127A38.13,38.13,0,0,0,368.37,342v23.07H344V303.25A38.12,38.12,0,0,0,313.68,266V231.88a58.48,58.48,0,0,0-58.42-58.42H206.13l-1.08-38.61ZM328.5,303.25v61.81H283.37V303.25a22.57,22.57,0,0,1,45.13,0ZM172.44,76.2H187.9l5.28,188h-26Zm-65.38,51.65h15.57l5.15,136.39H101.91Zm117.85,245v63H83V281h141.9Zm7.74-107.31H208.72L206.57,189h48.69a43,43,0,0,1,42.94,42.92V266a38.13,38.13,0,0,0-30.32,37.26v61.81H240.4V273.25A7.75,7.75,0,0,0,232.65,265.5ZM429,435.08H240.4V380.55H429Zm0-70H383.86V342A22.57,22.57,0,0,1,429,342Z"/></svg>