<svg version="1.2" baseProfile="tiny-ps" xmlns="http://www.w3.org/2000/svg" viewBox="0 0 358 301" width="358" height="301">
	<title>travel-svg</title>
	<style>
		tspan { white-space:pre }
		.shp0 { fill: #000000 } 
	</style>
	<g id="Layer">
		<path id="Layer" fill-rule="evenodd" class="shp0" d="M335.9 58.6L335.9 276C335.9 279.3 333.2 282 329.9 282L294.7 282L294.7 282.8C294.7 286.1 292 288.8 288.7 288.8L246.1 288.8C242.8 288.8 240.1 286.1 240.1 282.8L240.1 281.2C239.2 281.8 238.1 282.1 237 282.1L115.3 282.1C114.5 282.1 113.7 281.9 113 281.6L113 282.8C113 286.1 110.3 288.8 107 288.8L64.4 288.8C61.1 288.8 58.4 286.1 58.4 282.8L58.4 282L23.9 282C20.6 282 17.9 279.3 17.9 276L17.9 58.6C17.9 55.3 20.6 52.6 23.9 52.6L58.5 52.6C58.9 49.6 61.4 47.3 64.5 47.3L107.1 47.3C110.4 47.3 113 49.9 113.1 53.1C113.8 52.8 114.6 52.6 115.4 52.6L126.7 52.6L126.7 33.5C126.7 21.2 136.7 11.2 149 11.2L204.8 11.2C217.1 11.2 227.1 21.2 227.1 33.5L227.1 52.6L236.9 52.6C238 52.6 239.1 53 240 53.5L240 53.3C240 50 242.7 47.3 246 47.3L288.6 47.3C291.7 47.3 294.3 49.6 294.6 52.6L329.9 52.6C333.2 52.6 335.9 55.3 335.9 58.6ZM58.6 270L58.6 64.6L30.1 64.6L30.1 270L58.6 270ZM101.2 59.2L70.6 59.2L70.6 276.8L101.2 276.8L101.2 59.2ZM138.9 33.5L138.9 52.6L215.3 52.6L215.3 33.5C215.3 27.8 210.7 23.2 205 23.2L149.1 23.2C143.4 23.2 138.8 27.8 138.8 33.5L138.9 33.5ZM240.1 270.9L240.1 63.7C239.2 64.3 238.1 64.6 237 64.6L115.5 64.6C114.7 64.6 113.9 64.4 113.2 64.1L113.2 270.5C113.9 270.2 114.7 270 115.5 270L237 270C238.1 270 239.2 270.3 240.1 270.9ZM282.7 59.2L252.1 59.2L252.1 276.8L282.7 276.8L282.7 59.2ZM323.9 64.6L294.7 64.6L294.7 270L323.9 270L323.9 64.6Z" />
	</g>
</svg>