<svg width="1367" height="394" viewBox="0 0 1367 394" fill="none" xmlns="http://www.w3.org/2000/svg">
<mask id="path-1-outside-1_667_1036" maskUnits="userSpaceOnUse" x="0.0117188" y="0" width="1316" height="394" fill="black">
<rect fill="white" x="0.0117188" width="1316" height="394"/>
<path d="M4.54796 391.725L19.8602 371.86L17.306 369.968L2.00016 389.833L4.54796 391.725ZM35.1662 351.996L50.4658 332.131L47.918 330.239L32.612 350.104L35.1662 351.996ZM65.7716 312.273L81.0776 292.395L78.5106 290.516L63.2175 310.381L65.7716 312.273ZM96.4285 272.581C101.563 266.006 106.742 259.455 112.01 252.968L109.501 251.007C104.219 257.507 99.0212 264.076 93.8807 270.664L96.4285 272.581ZM128.067 233.751C133.849 227.062 139.337 220.977 144.824 215.143L142.468 213.012C136.943 218.877 131.424 224.994 125.622 231.72L128.067 233.751ZM892.306 229.765C893.621 229.765 894.943 229.753 896.259 229.734L896.208 226.591C887.967 226.735 879.554 226.427 870.986 225.698L870.71 228.829C878.02 229.451 885.285 229.765 892.306 229.765ZM921.762 227.835C930.375 226.672 938.808 224.956 946.836 222.731L945.957 219.707C938.069 221.895 929.778 223.58 921.32 224.724L921.762 227.835ZM845.399 225.503L845.964 222.41C837.82 220.977 829.522 219.167 821.308 217.035L820.48 220.072C828.784 222.228 837.172 224.051 845.399 225.503ZM970.895 214.075C976.697 211.466 982.37 208.486 987.748 205.23C989.609 204.105 991.432 202.923 993.222 201.691L991.38 199.12C989.641 200.314 987.87 201.464 986.06 202.552C980.791 205.745 975.234 208.662 969.548 211.214L970.895 214.075ZM796.067 212.767L797.12 209.794C795.394 209.209 793.68 208.612 791.979 208.008C785.979 205.871 779.754 203.501 773.458 200.968L772.252 203.872C778.56 206.424 784.843 208.807 790.882 210.957C792.602 211.579 794.335 212.182 796.067 212.767ZM162.498 197.385C167.645 192.488 172.875 187.785 178.041 183.404C179.1 182.505 180.152 181.612 181.218 180.732L179.158 178.331C178.073 179.224 177.008 180.122 175.942 181.028C170.731 185.447 165.462 190.193 160.264 195.122L162.498 197.385ZM748.911 193.896L750.246 191.042C743.161 187.842 735.672 184.334 727.367 180.311L725.949 183.127C734.279 187.163 741.787 190.683 748.911 193.896ZM1077.04 191.079C1080.89 191.079 1084.75 191.042 1088.6 190.954L1088.53 187.811C1080.1 187.993 1071.65 187.968 1063.2 187.767L1063.12 190.91C1067.77 191.023 1072.4 191.079 1077.04 191.079ZM1037.69 189.797L1037.89 186.66C1029.92 186.17 1021.76 185.541 1012.94 184.737C1018.56 178.783 1023.67 172.202 1028.17 165.167L1025.45 163.495C1020.97 170.523 1015.84 177.086 1010.22 182.995L1012.56 185.139L1012.3 187.842C1021.29 188.659 1029.59 189.3 1037.69 189.797ZM1114.07 189.722C1122.71 189.068 1131.24 188.15 1139.41 187.006L1138.97 183.894C1130.85 185.032 1122.39 185.937 1113.82 186.591L1114.07 189.722ZM987.01 185.214L987.382 182.09C979.893 181.235 972.423 180.317 964.972 179.368L962.206 179.01L961.782 182.128L964.555 182.486C972.025 183.435 979.508 184.353 987.01 185.214ZM1164.53 182.593C1167.12 182.046 1169.71 181.461 1172.29 180.852C1177.97 179.5 1183.67 177.96 1189.23 176.275L1188.29 173.27C1182.78 174.936 1177.15 176.458 1171.53 177.79C1168.97 178.4 1166.41 178.972 1163.85 179.519L1164.53 182.593ZM936.587 178.413L937.139 175.32C928.026 173.754 919.94 172.057 912.431 170.127L911.616 173.163C919.215 175.119 927.384 176.835 936.587 178.413ZM703.243 171.913L704.713 169.115L682.11 157.756L680.641 160.553L703.243 171.913ZM1213.28 167.82C1221.18 164.639 1228.97 161.075 1236.43 157.228L1234.94 154.449C1227.57 158.246 1219.87 161.766 1212.06 164.91L1213.28 167.82ZM201.106 165.463C207.864 160.66 214.91 156.015 222.091 151.658L220.391 148.986C213.164 153.381 206.034 158.07 199.225 162.923L201.106 165.463ZM887.313 165.318L888.526 162.408C880.446 159.17 872.944 155.392 866.231 151.174L864.498 153.821C871.378 158.146 879.047 162.012 887.313 165.318ZM657.987 149.357L659.411 146.541C651.004 142.468 643.502 138.947 636.456 135.773L635.114 138.627C642.116 141.782 649.599 145.296 657.987 149.357ZM1258.44 144.492C1265.63 139.821 1272.54 134.805 1278.97 129.574L1276.92 127.154C1270.58 132.309 1263.76 137.263 1256.66 141.864L1258.44 144.492ZM1039.74 142.719C1042.93 134.823 1045.33 126.695 1046.88 118.561L1043.73 117.982C1042.21 125.916 1039.87 133.849 1036.77 141.562L1039.74 142.719ZM244.033 139.356C251.394 135.553 259.063 131.919 266.796 128.569L265.5 125.696C257.696 129.078 249.969 132.743 242.538 136.577L244.033 139.356ZM844.655 137.753L847.01 135.616C841.318 129.606 836.453 122.911 832.558 115.726L829.728 117.197C833.752 124.627 838.776 131.548 844.655 137.753ZM611.915 128.663L613.121 125.752L608.77 124.011C602.423 121.515 595.871 119.108 589.306 116.857L588.247 119.824C594.773 122.056 601.268 124.451 607.57 126.928L611.915 128.663ZM290.265 119.296C298.076 116.493 306.162 113.884 314.28 111.539L313.375 108.528C305.186 110.892 297.03 113.519 289.162 116.348L290.265 119.296ZM1297.65 112.463C1303.58 106.334 1309.08 99.8465 1314.01 93.1893L1311.41 91.3412C1306.57 97.8915 1301.15 104.272 1295.32 110.301L1297.65 112.463ZM564.136 112.319L565.021 109.301C556.89 107.013 548.592 104.913 540.339 103.065L539.621 106.127C547.822 107.962 556.063 110.043 564.136 112.319ZM338.769 105.278C346.881 103.455 355.237 101.846 363.599 100.481L363.073 97.3823C354.647 98.7527 346.227 100.381 338.051 102.216L338.769 105.278ZM514.798 101.255L515.336 98.1555C506.968 96.7474 498.484 95.5467 490.109 94.5975L489.73 97.7218C498.06 98.6647 506.48 99.8528 514.798 101.255ZM388.692 97.1372C397.009 96.2634 405.493 95.6159 413.932 95.2073L413.772 92.0704C405.281 92.479 396.74 93.1328 388.352 94.0129L388.692 97.1372ZM464.528 95.5216L464.727 92.3847C456.256 91.8755 447.682 91.5927 439.243 91.5361L439.218 94.6792C447.599 94.7295 456.115 95.0124 464.528 95.5216ZM1045.73 93.5728L1048.94 93.4786C1048.68 84.8223 1047.36 76.4364 1045.04 68.5597L1041.96 69.4335C1044.2 77.0525 1045.47 85.1806 1045.73 93.5728ZM820.968 93.4534L824.112 92.8373C823.188 88.2986 822.726 83.7662 822.726 79.3595C822.726 75.7323 823.047 72.1366 823.663 68.6792L820.506 68.1322C819.845 71.772 819.517 75.5438 819.517 79.3595C819.517 83.9737 820.005 88.7135 820.968 93.4534ZM1031.73 47.2366L1034.44 45.5393C1031.58 41.1766 1028.29 37.034 1024.65 33.2371C1022.41 30.8923 1020 28.6292 1017.49 26.5107L1015.4 28.8932C1017.81 30.9363 1020.14 33.1176 1022.31 35.3869C1025.82 39.0518 1028.99 43.0374 1031.73 47.2366ZM833.007 46.4634C837.422 40.1645 843.301 34.4 850.482 29.327L848.602 26.781C841.132 32.0615 834.997 38.0901 830.363 44.6844L833.007 46.4634ZM872.347 17.4648C876.871 15.5789 881.729 13.825 886.786 12.2534C889.867 11.2916 893.031 10.4053 896.182 9.60689L895.38 6.56432C892.171 7.37525 888.956 8.28677 885.817 9.26114C880.664 10.8641 875.71 12.6557 871.096 14.5793L872.347 17.4648ZM994.519 15.5915L995.911 12.7626C988.422 9.22342 980.246 6.44492 971.627 4.49617L970.902 7.55759C979.29 9.45604 987.235 12.1591 994.519 15.5915ZM920.915 5.14363C929.374 4.21955 937.787 3.94294 946.04 4.29497L946.175 1.15811C937.787 0.780935 929.194 1.08268 920.562 2.01934L920.915 5.14363Z"/>
</mask>
<path d="M4.54796 391.725L19.8602 371.86L17.306 369.968L2.00016 389.833L4.54796 391.725ZM35.1662 351.996L50.4658 332.131L47.918 330.239L32.612 350.104L35.1662 351.996ZM65.7716 312.273L81.0776 292.395L78.5106 290.516L63.2175 310.381L65.7716 312.273ZM96.4285 272.581C101.563 266.006 106.742 259.455 112.01 252.968L109.501 251.007C104.219 257.507 99.0212 264.076 93.8807 270.664L96.4285 272.581ZM128.067 233.751C133.849 227.062 139.337 220.977 144.824 215.143L142.468 213.012C136.943 218.877 131.424 224.994 125.622 231.72L128.067 233.751ZM892.306 229.765C893.621 229.765 894.943 229.753 896.259 229.734L896.208 226.591C887.967 226.735 879.554 226.427 870.986 225.698L870.71 228.829C878.02 229.451 885.285 229.765 892.306 229.765ZM921.762 227.835C930.375 226.672 938.808 224.956 946.836 222.731L945.957 219.707C938.069 221.895 929.778 223.58 921.32 224.724L921.762 227.835ZM845.399 225.503L845.964 222.41C837.82 220.977 829.522 219.167 821.308 217.035L820.48 220.072C828.784 222.228 837.172 224.051 845.399 225.503ZM970.895 214.075C976.697 211.466 982.37 208.486 987.748 205.23C989.609 204.105 991.432 202.923 993.222 201.691L991.38 199.12C989.641 200.314 987.87 201.464 986.06 202.552C980.791 205.745 975.234 208.662 969.548 211.214L970.895 214.075ZM796.067 212.767L797.12 209.794C795.394 209.209 793.68 208.612 791.979 208.008C785.979 205.871 779.754 203.501 773.458 200.968L772.252 203.872C778.56 206.424 784.843 208.807 790.882 210.957C792.602 211.579 794.335 212.182 796.067 212.767ZM162.498 197.385C167.645 192.488 172.875 187.785 178.041 183.404C179.1 182.505 180.152 181.612 181.218 180.732L179.158 178.331C178.073 179.224 177.008 180.122 175.942 181.028C170.731 185.447 165.462 190.193 160.264 195.122L162.498 197.385ZM748.911 193.896L750.246 191.042C743.161 187.842 735.672 184.334 727.367 180.311L725.949 183.127C734.279 187.163 741.787 190.683 748.911 193.896ZM1077.04 191.079C1080.89 191.079 1084.75 191.042 1088.6 190.954L1088.53 187.811C1080.1 187.993 1071.65 187.968 1063.2 187.767L1063.12 190.91C1067.77 191.023 1072.4 191.079 1077.04 191.079ZM1037.69 189.797L1037.89 186.66C1029.92 186.17 1021.76 185.541 1012.94 184.737C1018.56 178.783 1023.67 172.202 1028.17 165.167L1025.45 163.495C1020.97 170.523 1015.84 177.086 1010.22 182.995L1012.56 185.139L1012.3 187.842C1021.29 188.659 1029.59 189.3 1037.69 189.797ZM1114.07 189.722C1122.71 189.068 1131.24 188.15 1139.41 187.006L1138.97 183.894C1130.85 185.032 1122.39 185.937 1113.82 186.591L1114.07 189.722ZM987.01 185.214L987.382 182.09C979.893 181.235 972.423 180.317 964.972 179.368L962.206 179.01L961.782 182.128L964.555 182.486C972.025 183.435 979.508 184.353 987.01 185.214ZM1164.53 182.593C1167.12 182.046 1169.71 181.461 1172.29 180.852C1177.97 179.5 1183.67 177.96 1189.23 176.275L1188.29 173.27C1182.78 174.936 1177.15 176.458 1171.53 177.79C1168.97 178.4 1166.41 178.972 1163.85 179.519L1164.53 182.593ZM936.587 178.413L937.139 175.32C928.026 173.754 919.94 172.057 912.431 170.127L911.616 173.163C919.215 175.119 927.384 176.835 936.587 178.413ZM703.243 171.913L704.713 169.115L682.11 157.756L680.641 160.553L703.243 171.913ZM1213.28 167.82C1221.18 164.639 1228.97 161.075 1236.43 157.228L1234.94 154.449C1227.57 158.246 1219.87 161.766 1212.06 164.91L1213.28 167.82ZM201.106 165.463C207.864 160.66 214.91 156.015 222.091 151.658L220.391 148.986C213.164 153.381 206.034 158.07 199.225 162.923L201.106 165.463ZM887.313 165.318L888.526 162.408C880.446 159.17 872.944 155.392 866.231 151.174L864.498 153.821C871.378 158.146 879.047 162.012 887.313 165.318ZM657.987 149.357L659.411 146.541C651.004 142.468 643.502 138.947 636.456 135.773L635.114 138.627C642.116 141.782 649.599 145.296 657.987 149.357ZM1258.44 144.492C1265.63 139.821 1272.54 134.805 1278.97 129.574L1276.92 127.154C1270.58 132.309 1263.76 137.263 1256.66 141.864L1258.44 144.492ZM1039.74 142.719C1042.93 134.823 1045.33 126.695 1046.88 118.561L1043.73 117.982C1042.21 125.916 1039.87 133.849 1036.77 141.562L1039.74 142.719ZM244.033 139.356C251.394 135.553 259.063 131.919 266.796 128.569L265.5 125.696C257.696 129.078 249.969 132.743 242.538 136.577L244.033 139.356ZM844.655 137.753L847.01 135.616C841.318 129.606 836.453 122.911 832.558 115.726L829.728 117.197C833.752 124.627 838.776 131.548 844.655 137.753ZM611.915 128.663L613.121 125.752L608.77 124.011C602.423 121.515 595.871 119.108 589.306 116.857L588.247 119.824C594.773 122.056 601.268 124.451 607.57 126.928L611.915 128.663ZM290.265 119.296C298.076 116.493 306.162 113.884 314.28 111.539L313.375 108.528C305.186 110.892 297.03 113.519 289.162 116.348L290.265 119.296ZM1297.65 112.463C1303.58 106.334 1309.08 99.8465 1314.01 93.1893L1311.41 91.3412C1306.57 97.8915 1301.15 104.272 1295.32 110.301L1297.65 112.463ZM564.136 112.319L565.021 109.301C556.89 107.013 548.592 104.913 540.339 103.065L539.621 106.127C547.822 107.962 556.063 110.043 564.136 112.319ZM338.769 105.278C346.881 103.455 355.237 101.846 363.599 100.481L363.073 97.3823C354.647 98.7527 346.227 100.381 338.051 102.216L338.769 105.278ZM514.798 101.255L515.336 98.1555C506.968 96.7474 498.484 95.5467 490.109 94.5975L489.73 97.7218C498.06 98.6647 506.48 99.8528 514.798 101.255ZM388.692 97.1372C397.009 96.2634 405.493 95.6159 413.932 95.2073L413.772 92.0704C405.281 92.479 396.74 93.1328 388.352 94.0129L388.692 97.1372ZM464.528 95.5216L464.727 92.3847C456.256 91.8755 447.682 91.5927 439.243 91.5361L439.218 94.6792C447.599 94.7295 456.115 95.0124 464.528 95.5216ZM1045.73 93.5728L1048.94 93.4786C1048.68 84.8223 1047.36 76.4364 1045.04 68.5597L1041.96 69.4335C1044.2 77.0525 1045.47 85.1806 1045.73 93.5728ZM820.968 93.4534L824.112 92.8373C823.188 88.2986 822.726 83.7662 822.726 79.3595C822.726 75.7323 823.047 72.1366 823.663 68.6792L820.506 68.1322C819.845 71.772 819.517 75.5438 819.517 79.3595C819.517 83.9737 820.005 88.7135 820.968 93.4534ZM1031.73 47.2366L1034.44 45.5393C1031.58 41.1766 1028.29 37.034 1024.65 33.2371C1022.41 30.8923 1020 28.6292 1017.49 26.5107L1015.4 28.8932C1017.81 30.9363 1020.14 33.1176 1022.31 35.3869C1025.82 39.0518 1028.99 43.0374 1031.73 47.2366ZM833.007 46.4634C837.422 40.1645 843.301 34.4 850.482 29.327L848.602 26.781C841.132 32.0615 834.997 38.0901 830.363 44.6844L833.007 46.4634ZM872.347 17.4648C876.871 15.5789 881.729 13.825 886.786 12.2534C889.867 11.2916 893.031 10.4053 896.182 9.60689L895.38 6.56432C892.171 7.37525 888.956 8.28677 885.817 9.26114C880.664 10.8641 875.71 12.6557 871.096 14.5793L872.347 17.4648ZM994.519 15.5915L995.911 12.7626C988.422 9.22342 980.246 6.44492 971.627 4.49617L970.902 7.55759C979.29 9.45604 987.235 12.1591 994.519 15.5915ZM920.915 5.14363C929.374 4.21955 937.787 3.94294 946.04 4.29497L946.175 1.15811C937.787 0.780935 929.194 1.08268 920.562 2.01934L920.915 5.14363Z" fill="#484867"/>
<path d="M4.54796 391.725L19.8602 371.86L17.306 369.968L2.00016 389.833L4.54796 391.725ZM35.1662 351.996L50.4658 332.131L47.918 330.239L32.612 350.104L35.1662 351.996ZM65.7716 312.273L81.0776 292.395L78.5106 290.516L63.2175 310.381L65.7716 312.273ZM96.4285 272.581C101.563 266.006 106.742 259.455 112.01 252.968L109.501 251.007C104.219 257.507 99.0212 264.076 93.8807 270.664L96.4285 272.581ZM128.067 233.751C133.849 227.062 139.337 220.977 144.824 215.143L142.468 213.012C136.943 218.877 131.424 224.994 125.622 231.72L128.067 233.751ZM892.306 229.765C893.621 229.765 894.943 229.753 896.259 229.734L896.208 226.591C887.967 226.735 879.554 226.427 870.986 225.698L870.71 228.829C878.02 229.451 885.285 229.765 892.306 229.765ZM921.762 227.835C930.375 226.672 938.808 224.956 946.836 222.731L945.957 219.707C938.069 221.895 929.778 223.58 921.32 224.724L921.762 227.835ZM845.399 225.503L845.964 222.41C837.82 220.977 829.522 219.167 821.308 217.035L820.48 220.072C828.784 222.228 837.172 224.051 845.399 225.503ZM970.895 214.075C976.697 211.466 982.37 208.486 987.748 205.23C989.609 204.105 991.432 202.923 993.222 201.691L991.38 199.12C989.641 200.314 987.87 201.464 986.06 202.552C980.791 205.745 975.234 208.662 969.548 211.214L970.895 214.075ZM796.067 212.767L797.12 209.794C795.394 209.209 793.68 208.612 791.979 208.008C785.979 205.871 779.754 203.501 773.458 200.968L772.252 203.872C778.56 206.424 784.843 208.807 790.882 210.957C792.602 211.579 794.335 212.182 796.067 212.767ZM162.498 197.385C167.645 192.488 172.875 187.785 178.041 183.404C179.1 182.505 180.152 181.612 181.218 180.732L179.158 178.331C178.073 179.224 177.008 180.122 175.942 181.028C170.731 185.447 165.462 190.193 160.264 195.122L162.498 197.385ZM748.911 193.896L750.246 191.042C743.161 187.842 735.672 184.334 727.367 180.311L725.949 183.127C734.279 187.163 741.787 190.683 748.911 193.896ZM1077.04 191.079C1080.89 191.079 1084.75 191.042 1088.6 190.954L1088.53 187.811C1080.1 187.993 1071.65 187.968 1063.2 187.767L1063.12 190.91C1067.77 191.023 1072.4 191.079 1077.04 191.079ZM1037.69 189.797L1037.89 186.66C1029.92 186.17 1021.76 185.541 1012.94 184.737C1018.56 178.783 1023.67 172.202 1028.17 165.167L1025.45 163.495C1020.97 170.523 1015.84 177.086 1010.22 182.995L1012.56 185.139L1012.3 187.842C1021.29 188.659 1029.59 189.3 1037.69 189.797ZM1114.07 189.722C1122.71 189.068 1131.24 188.15 1139.41 187.006L1138.97 183.894C1130.85 185.032 1122.39 185.937 1113.82 186.591L1114.07 189.722ZM987.01 185.214L987.382 182.09C979.893 181.235 972.423 180.317 964.972 179.368L962.206 179.01L961.782 182.128L964.555 182.486C972.025 183.435 979.508 184.353 987.01 185.214ZM1164.53 182.593C1167.12 182.046 1169.71 181.461 1172.29 180.852C1177.97 179.5 1183.67 177.96 1189.23 176.275L1188.29 173.27C1182.78 174.936 1177.15 176.458 1171.53 177.79C1168.97 178.4 1166.41 178.972 1163.85 179.519L1164.53 182.593ZM936.587 178.413L937.139 175.32C928.026 173.754 919.94 172.057 912.431 170.127L911.616 173.163C919.215 175.119 927.384 176.835 936.587 178.413ZM703.243 171.913L704.713 169.115L682.11 157.756L680.641 160.553L703.243 171.913ZM1213.28 167.82C1221.18 164.639 1228.97 161.075 1236.43 157.228L1234.94 154.449C1227.57 158.246 1219.87 161.766 1212.06 164.91L1213.28 167.82ZM201.106 165.463C207.864 160.66 214.91 156.015 222.091 151.658L220.391 148.986C213.164 153.381 206.034 158.07 199.225 162.923L201.106 165.463ZM887.313 165.318L888.526 162.408C880.446 159.17 872.944 155.392 866.231 151.174L864.498 153.821C871.378 158.146 879.047 162.012 887.313 165.318ZM657.987 149.357L659.411 146.541C651.004 142.468 643.502 138.947 636.456 135.773L635.114 138.627C642.116 141.782 649.599 145.296 657.987 149.357ZM1258.44 144.492C1265.63 139.821 1272.54 134.805 1278.97 129.574L1276.92 127.154C1270.58 132.309 1263.76 137.263 1256.66 141.864L1258.44 144.492ZM1039.74 142.719C1042.93 134.823 1045.33 126.695 1046.88 118.561L1043.73 117.982C1042.21 125.916 1039.87 133.849 1036.77 141.562L1039.74 142.719ZM244.033 139.356C251.394 135.553 259.063 131.919 266.796 128.569L265.5 125.696C257.696 129.078 249.969 132.743 242.538 136.577L244.033 139.356ZM844.655 137.753L847.01 135.616C841.318 129.606 836.453 122.911 832.558 115.726L829.728 117.197C833.752 124.627 838.776 131.548 844.655 137.753ZM611.915 128.663L613.121 125.752L608.77 124.011C602.423 121.515 595.871 119.108 589.306 116.857L588.247 119.824C594.773 122.056 601.268 124.451 607.57 126.928L611.915 128.663ZM290.265 119.296C298.076 116.493 306.162 113.884 314.28 111.539L313.375 108.528C305.186 110.892 297.03 113.519 289.162 116.348L290.265 119.296ZM1297.65 112.463C1303.58 106.334 1309.08 99.8465 1314.01 93.1893L1311.41 91.3412C1306.57 97.8915 1301.15 104.272 1295.32 110.301L1297.65 112.463ZM564.136 112.319L565.021 109.301C556.89 107.013 548.592 104.913 540.339 103.065L539.621 106.127C547.822 107.962 556.063 110.043 564.136 112.319ZM338.769 105.278C346.881 103.455 355.237 101.846 363.599 100.481L363.073 97.3823C354.647 98.7527 346.227 100.381 338.051 102.216L338.769 105.278ZM514.798 101.255L515.336 98.1555C506.968 96.7474 498.484 95.5467 490.109 94.5975L489.73 97.7218C498.06 98.6647 506.48 99.8528 514.798 101.255ZM388.692 97.1372C397.009 96.2634 405.493 95.6159 413.932 95.2073L413.772 92.0704C405.281 92.479 396.74 93.1328 388.352 94.0129L388.692 97.1372ZM464.528 95.5216L464.727 92.3847C456.256 91.8755 447.682 91.5927 439.243 91.5361L439.218 94.6792C447.599 94.7295 456.115 95.0124 464.528 95.5216ZM1045.73 93.5728L1048.94 93.4786C1048.68 84.8223 1047.36 76.4364 1045.04 68.5597L1041.96 69.4335C1044.2 77.0525 1045.47 85.1806 1045.73 93.5728ZM820.968 93.4534L824.112 92.8373C823.188 88.2986 822.726 83.7662 822.726 79.3595C822.726 75.7323 823.047 72.1366 823.663 68.6792L820.506 68.1322C819.845 71.772 819.517 75.5438 819.517 79.3595C819.517 83.9737 820.005 88.7135 820.968 93.4534ZM1031.73 47.2366L1034.44 45.5393C1031.58 41.1766 1028.29 37.034 1024.65 33.2371C1022.41 30.8923 1020 28.6292 1017.49 26.5107L1015.4 28.8932C1017.81 30.9363 1020.14 33.1176 1022.31 35.3869C1025.82 39.0518 1028.99 43.0374 1031.73 47.2366ZM833.007 46.4634C837.422 40.1645 843.301 34.4 850.482 29.327L848.602 26.781C841.132 32.0615 834.997 38.0901 830.363 44.6844L833.007 46.4634ZM872.347 17.4648C876.871 15.5789 881.729 13.825 886.786 12.2534C889.867 11.2916 893.031 10.4053 896.182 9.60689L895.38 6.56432C892.171 7.37525 888.956 8.28677 885.817 9.26114C880.664 10.8641 875.71 12.6557 871.096 14.5793L872.347 17.4648ZM994.519 15.5915L995.911 12.7626C988.422 9.22342 980.246 6.44492 971.627 4.49617L970.902 7.55759C979.29 9.45604 987.235 12.1591 994.519 15.5915ZM920.915 5.14363C929.374 4.21955 937.787 3.94294 946.04 4.29497L946.175 1.15811C937.787 0.780935 929.194 1.08268 920.562 2.01934L920.915 5.14363Z" stroke="#484867" stroke-width="2" mask="url(#path-1-outside-1_667_1036)"/>
<path d="M1346.92 88.3315L1302.24 61.0443L1355.45 31.6353L1346.92 88.3315Z" fill="#484867"/>
</svg>
