<svg width="1109" height="1034" viewBox="0 0 1109 1034" fill="none" xmlns="http://www.w3.org/2000/svg">
<path opacity="0.3" d="M553.992 1033C724.876 1033 863.405 1016.63 863.405 996.428C863.405 976.227 724.876 959.851 553.992 959.851C383.109 959.851 244.58 976.227 244.58 996.428C244.58 1016.63 383.109 1033 553.992 1033Z" fill="#DADAE0"/>
<path d="M794.038 84.3794V940.628C794.038 975.235 765.992 1003.31 731.377 1003.31H376.614C341.999 1003.31 313.919 975.235 313.919 940.628V84.3794C313.919 62.6355 325.015 43.4437 341.863 32.2484C351.836 25.5789 363.782 21.6997 376.614 21.6997H731.377C765.992 21.6997 794.038 49.7729 794.038 84.3794Z" fill="#484867"/>
<path d="M723.62 983.072H384.371C358.041 983.072 336.696 961.733 336.696 935.406V92.043C336.696 65.7189 358.041 44.3799 384.371 44.3799H723.62C749.947 44.3799 771.295 65.7189 771.295 92.043V935.409C771.295 961.733 749.947 983.072 723.62 983.072Z" fill="#FDFDFD"/>
<path d="M633.95 73.9943H474.036C466.97 73.9943 461.245 68.2673 461.245 61.2065V33.9636H646.741V61.2065C646.741 68.2673 641.016 73.9943 633.95 73.9943Z" fill="#484867"/>
<path opacity="0.5" d="M582.496 61.5332H506.499C503.453 61.5332 500.981 59.0661 500.981 56.0172C500.981 52.9717 503.453 50.5046 506.499 50.5046H582.496C585.542 50.5046 588.013 52.9717 588.013 56.0172C588.009 59.0661 585.542 61.5332 582.496 61.5332Z" fill="#D1D1E6"/>
<path opacity="0.5" d="M601.495 61.5334C604.542 61.5334 607.013 59.0638 607.013 56.0174C607.013 52.971 604.542 50.5015 601.495 50.5015C598.448 50.5015 595.979 52.971 595.979 56.0174C595.979 59.0638 598.448 61.5334 601.495 61.5334Z" fill="#D1D1E6"/>
<path d="M669.714 817.109H438.269C430.92 817.109 424.964 811.158 424.964 803.811V770.437C424.964 763.093 430.92 757.138 438.269 757.138H669.714C677.059 757.138 683.015 763.093 683.015 770.437V803.811C683.015 811.158 677.059 817.109 669.714 817.109Z" fill="#0BAF9A"/>
<path d="M538.634 789.941C538.634 789.526 538.569 789.159 538.439 788.842C538.317 788.517 538.097 788.224 537.78 787.963C537.471 787.703 537.039 787.455 536.486 787.219C535.941 786.983 535.249 786.742 534.411 786.498C533.532 786.238 532.738 785.949 532.03 785.632C531.322 785.306 530.716 784.936 530.211 784.521C529.707 784.106 529.32 783.63 529.052 783.093C528.783 782.555 528.649 781.941 528.649 781.249C528.649 780.558 528.791 779.919 529.076 779.333C529.361 778.747 529.768 778.238 530.297 777.807C530.834 777.367 531.473 777.026 532.213 776.781C532.954 776.537 533.78 776.415 534.691 776.415C536.026 776.415 537.157 776.672 538.085 777.184C539.021 777.689 539.733 778.352 540.221 779.174C540.709 779.988 540.954 780.859 540.954 781.786H538.61C538.61 781.119 538.467 780.529 538.183 780.016C537.898 779.496 537.466 779.089 536.889 778.796C536.311 778.495 535.578 778.344 534.691 778.344C533.853 778.344 533.161 778.47 532.616 778.722C532.071 778.975 531.664 779.316 531.396 779.748C531.135 780.179 531.005 780.671 531.005 781.225C531.005 781.599 531.082 781.941 531.237 782.25C531.4 782.551 531.648 782.832 531.981 783.093C532.323 783.353 532.755 783.593 533.275 783.813C533.804 784.032 534.435 784.244 535.167 784.448C536.177 784.732 537.047 785.05 537.78 785.4C538.512 785.75 539.114 786.144 539.586 786.584C540.067 787.015 540.421 787.507 540.648 788.061C540.884 788.606 541.002 789.225 541.002 789.916C541.002 790.641 540.856 791.296 540.563 791.882C540.27 792.468 539.851 792.968 539.306 793.383C538.76 793.798 538.105 794.12 537.34 794.347C536.583 794.567 535.737 794.677 534.801 794.677C533.979 794.677 533.17 794.563 532.372 794.335C531.583 794.107 530.862 793.766 530.211 793.31C529.569 792.854 529.052 792.293 528.661 791.625C528.279 790.95 528.087 790.169 528.087 789.281H530.431C530.431 789.892 530.549 790.417 530.785 790.856C531.021 791.288 531.343 791.646 531.75 791.93C532.165 792.215 532.632 792.427 533.153 792.565C533.682 792.695 534.232 792.76 534.801 792.76C535.623 792.76 536.319 792.647 536.889 792.419C537.458 792.191 537.89 791.865 538.183 791.442C538.484 791.019 538.634 790.518 538.634 789.941ZM548.949 792.822C549.486 792.822 549.983 792.712 550.438 792.492C550.894 792.272 551.269 791.971 551.562 791.589C551.854 791.198 552.021 790.754 552.062 790.258H554.21C554.17 791.039 553.905 791.768 553.417 792.443C552.937 793.11 552.306 793.652 551.525 794.067C550.744 794.474 549.885 794.677 548.949 794.677C547.956 794.677 547.09 794.502 546.349 794.152C545.617 793.802 545.006 793.322 544.518 792.712C544.038 792.101 543.676 791.401 543.432 790.612C543.196 789.815 543.078 788.972 543.078 788.085V787.573C543.078 786.685 543.196 785.847 543.432 785.058C543.676 784.26 544.038 783.556 544.518 782.946C545.006 782.336 545.617 781.856 546.349 781.506C547.09 781.156 547.956 780.981 548.949 780.981C549.983 780.981 550.886 781.192 551.659 781.615C552.432 782.031 553.039 782.6 553.478 783.324C553.926 784.041 554.17 784.854 554.21 785.766H552.062C552.021 785.221 551.867 784.728 551.598 784.289C551.338 783.849 550.98 783.499 550.524 783.239C550.076 782.97 549.551 782.836 548.949 782.836C548.257 782.836 547.676 782.975 547.204 783.251C546.74 783.52 546.369 783.886 546.093 784.35C545.824 784.806 545.629 785.314 545.507 785.876C545.393 786.429 545.336 786.995 545.336 787.573V788.085C545.336 788.663 545.393 789.233 545.507 789.794C545.621 790.356 545.812 790.864 546.081 791.32C546.357 791.776 546.728 792.142 547.191 792.419C547.663 792.687 548.249 792.822 548.949 792.822ZM564.538 792.175V785.375C564.538 784.854 564.432 784.403 564.22 784.02C564.017 783.63 563.708 783.329 563.292 783.117C562.877 782.905 562.365 782.8 561.754 782.8C561.185 782.8 560.684 782.897 560.253 783.093C559.83 783.288 559.496 783.544 559.252 783.862C559.016 784.179 558.898 784.521 558.898 784.887H556.64C556.64 784.415 556.762 783.947 557.006 783.483C557.25 783.019 557.6 782.6 558.056 782.226C558.52 781.843 559.073 781.542 559.716 781.323C560.367 781.095 561.091 780.981 561.889 780.981C562.849 780.981 563.695 781.143 564.428 781.469C565.168 781.795 565.746 782.287 566.161 782.946C566.584 783.597 566.796 784.415 566.796 785.4V791.552C566.796 791.991 566.833 792.459 566.906 792.956C566.987 793.452 567.105 793.879 567.26 794.238V794.433H564.904C564.79 794.172 564.7 793.827 564.635 793.395C564.57 792.956 564.538 792.549 564.538 792.175ZM564.928 786.425L564.953 788.012H562.67C562.027 788.012 561.453 788.065 560.949 788.171C560.444 788.268 560.021 788.419 559.679 788.622C559.337 788.826 559.077 789.082 558.898 789.391C558.719 789.692 558.629 790.046 558.629 790.453C558.629 790.868 558.723 791.247 558.91 791.589C559.097 791.93 559.378 792.203 559.752 792.406C560.135 792.602 560.603 792.699 561.156 792.699C561.848 792.699 562.458 792.553 562.987 792.26C563.516 791.967 563.935 791.609 564.245 791.186C564.562 790.763 564.733 790.352 564.757 789.953L565.722 791.039C565.665 791.381 565.51 791.76 565.258 792.175C565.006 792.59 564.668 792.988 564.245 793.371C563.83 793.745 563.333 794.059 562.755 794.311C562.186 794.555 561.543 794.677 560.827 794.677C559.931 794.677 559.146 794.502 558.471 794.152C557.803 793.802 557.283 793.334 556.908 792.748C556.542 792.154 556.359 791.491 556.359 790.759C556.359 790.051 556.497 789.428 556.774 788.891C557.051 788.346 557.449 787.894 557.97 787.536C558.491 787.17 559.118 786.893 559.85 786.706C560.583 786.519 561.4 786.425 562.304 786.425H564.928ZM572.606 784.045V794.433H570.348V781.225H572.484L572.606 784.045ZM572.069 787.328L571.129 787.292C571.138 786.388 571.272 785.554 571.532 784.789C571.793 784.016 572.159 783.345 572.631 782.775C573.103 782.205 573.664 781.766 574.315 781.457C574.975 781.139 575.703 780.981 576.5 780.981C577.152 780.981 577.737 781.07 578.258 781.249C578.779 781.42 579.223 781.697 579.589 782.079C579.963 782.462 580.248 782.958 580.443 783.569C580.639 784.171 580.736 784.907 580.736 785.778V794.433H578.466V785.754C578.466 785.062 578.364 784.509 578.161 784.094C577.957 783.67 577.66 783.365 577.27 783.178C576.879 782.983 576.399 782.885 575.829 782.885C575.268 782.885 574.755 783.003 574.291 783.239C573.835 783.475 573.441 783.801 573.107 784.216C572.781 784.631 572.525 785.107 572.338 785.644C572.159 786.173 572.069 786.734 572.069 787.328Z" fill="white"/>
<path opacity="0.2" d="M715.274 145.463H392.707V196.771H715.274V145.463Z" fill="url(#paint0_linear_709_1151)"/>
<path opacity="0.2" d="M715.274 215.214H392.707V240.867H715.274V215.214Z" fill="url(#paint1_linear_709_1151)"/>
<path opacity="0.2" d="M715.274 263.87H392.707V289.524H715.274V263.87Z" fill="url(#paint2_linear_709_1151)"/>
<path opacity="0.2" d="M715.274 865.869H392.707V906.863H715.274V865.869Z" fill="url(#paint3_linear_709_1151)"/>
<path d="M142.651 251.145C142.651 251.145 177.031 237.666 189.322 282.063C201.613 326.462 213.508 335.579 225.006 342.714C236.503 349.85 237.521 407.987 140.241 407.864C42.475 407.742 37.0597 364.914 61.6443 337.164C86.2289 309.414 94.5542 280.477 95.7455 269.377C96.9334 258.277 113.822 239.252 142.651 251.145Z" fill="#E64054"/>
<path d="M201.191 404.108C200.895 403.778 200.711 403.587 200.66 403.54C197.233 400.297 192.747 398.585 188.029 398.718C183.312 398.851 178.928 400.811 175.688 404.237C169.411 410.876 169.275 421.394 175.381 428.176C175.688 428.52 176.011 428.846 176.345 429.17L242.464 497.423L242.522 497.478C248.662 503.082 258.71 502.64 264.418 496.6C269.863 490.842 270.401 481.621 265.088 475.73C265.088 475.516 264.275 475.393 264.064 475.186C261.902 472.719 206.419 409.917 201.191 404.108Z" fill="#F4B799"/>
<path d="M264.03 496.644C263.847 496.8 263.356 497.284 263.35 497.287L263.2 497.426C256.927 502.881 247.288 502.306 241.73 496.13C236.131 489.91 236.682 480.082 242.72 474.321C244.16 472.545 261.42 456.698 304.496 421.22L317.124 436.7C304.251 452.822 281.569 483.383 264.03 496.644Z" fill="#F4B799"/>
<path d="M148.125 764.955C148.153 764.894 148.143 764.193 148.143 764.193C146.58 717.503 147.707 608.576 147.7 608.419C147.241 591.443 160.634 577.26 177.611 576.8C194.596 576.338 208.636 589.493 209.095 606.469C209.099 606.633 209.047 606.943 209.047 606.943C204.153 656.8 198.765 694.966 186.869 768.76L186.777 769.447C185.464 778.676 177.659 785.998 168.027 786.257C157.278 786.55 148.323 778.124 148.03 767.378C148.01 766.541 148.044 765.769 148.125 764.955Z" fill="#37474F"/>
<path d="M176.137 924.636L154.088 924.86C153.384 917.738 152.155 898.91 150.845 889.178H177.339C176.815 898.91 176.399 917.245 176.137 924.636Z" fill="#F4B799"/>
<path d="M147.972 765.248C147.972 765.228 148.166 764.54 148.214 764.207C149.497 754.948 157.315 747.703 166.968 747.441C177.716 747.152 186.668 755.625 186.961 766.371C186.991 767.491 186.566 771.237 186.433 771.931C183.707 786.019 179.554 845.816 177.345 889.175H150.851C149.18 875.901 147.38 864.28 146.382 858.788C135.164 797.105 147.666 767.225 147.972 765.248Z" fill="#37474F"/>
<path d="M177.517 880.79C177.517 880.79 179.906 881.28 179.259 884.901C178.616 888.522 179.971 891.278 178.473 892.683C176.972 894.085 164.627 897.61 150.141 892.656C150.141 892.656 147.994 891.536 149.141 886.347C149.614 884.203 147.143 881.818 149.535 879.545C149.532 879.545 162.663 885.139 177.517 880.79Z" fill="#6F6FA5"/>
<path d="M74.2218 762.097C74.249 762.036 74.2797 761.335 74.2797 761.335C75.0761 714.624 81.7099 605.894 81.7133 605.734C82.1115 588.758 96.2026 575.269 113.183 575.667C130.168 576.062 143.595 590.238 143.197 607.214C143.197 607.374 143.166 607.783 143.166 607.783H143.17C135.794 657.335 128.296 694.973 112.686 768.069L112.581 768.64C110.804 777.787 102.649 784.651 93.0134 784.426C82.2647 784.174 73.7555 775.279 74.0074 764.533C74.021 763.703 74.0993 762.903 74.2218 762.097Z" fill="#37474F"/>
<path d="M74.0507 762.38C74.0541 762.36 74.2822 761.683 74.3434 761.352C76.0929 752.172 84.2685 745.332 93.9212 745.557C104.673 745.808 113.182 754.724 112.931 765.477C112.903 766.593 112.277 770.336 112.107 771.023C108.639 785.094 101.508 846.79 97.1989 889.931L70.6981 887.182C69.7043 873.734 68.4517 861.388 67.7199 855.743C59.6397 793.574 73.6491 764.337 74.0507 762.38Z" fill="#37474F"/>
<path d="M93.9043 924.064L71.4743 925.358C71.1407 918.389 71.5594 896.172 70.6982 887.185L97.199 889.934C96.2324 899.615 94.5136 917 93.9043 924.064Z" fill="#F4B799"/>
<path d="M98.1456 880.945C98.1456 880.945 100.498 881.571 99.6432 885.147C98.7923 888.73 99.987 891.558 98.4077 892.875C96.8284 894.188 84.2995 896.989 70.1233 891.204C70.1233 891.204 68.0437 889.962 69.4903 884.848C70.0893 882.734 67.7612 880.21 70.2799 878.079C70.2799 878.076 83.0606 884.422 98.1456 880.945Z" fill="#6F6FA5"/>
<path d="M180.862 926.221C180.862 926.221 177.908 921.389 165.808 921.389C153.711 921.389 152.68 926.306 152.68 926.306V932.533H180.763L180.862 926.221Z" fill="#F4B799"/>
<path d="M227.913 950.231H146.484V956.424H227.913V950.231Z" fill="#D0D1D8"/>
<path d="M227.27 950.232C227.27 950.232 231.051 935.776 204.012 938.026L181.041 921.91C181.041 921.91 179.23 920.386 177.542 921.954C175.851 923.523 169.816 929.277 162.454 928.314C155.088 927.348 154.908 922.652 152.314 923.013C149.721 923.373 145.436 935.188 146.161 950.232H227.27Z" fill="#FFCE43"/>
<path d="M204.011 937.845C231.047 935.589 227.269 950.231 227.269 950.231H201.734C201.734 941.38 204.011 937.845 204.011 937.845Z" fill="#FFDC85"/>
<path d="M194.212 939.806C194.535 939.806 194.851 939.642 195.035 939.35C196.792 936.522 199.133 935.164 199.157 935.151C199.62 934.889 199.78 934.296 199.514 933.83C199.249 933.367 198.66 933.208 198.197 933.473C198.085 933.541 195.406 935.093 193.391 938.332C193.109 938.785 193.248 939.38 193.701 939.663C193.864 939.758 194.038 939.806 194.212 939.806Z" fill="#EAEBF4"/>
<path d="M190.269 937.012C190.592 937.012 190.909 936.852 191.089 936.556C192.849 933.728 195.191 932.374 195.211 932.36C195.674 932.095 195.837 931.502 195.572 931.04C195.306 930.577 194.718 930.414 194.255 930.682C194.142 930.747 191.464 932.302 189.449 935.542C189.166 935.994 189.306 936.59 189.762 936.872C189.922 936.967 190.099 937.012 190.269 937.012Z" fill="#EAEBF4"/>
<path d="M186.33 934.225C186.654 934.225 186.97 934.062 187.154 933.769C188.914 930.938 191.252 929.584 191.276 929.57C191.739 929.308 191.902 928.716 191.637 928.253C191.371 927.79 190.782 927.627 190.319 927.893C190.207 927.961 187.528 929.512 185.513 932.752C185.231 933.204 185.37 933.803 185.823 934.082C185.98 934.177 186.157 934.225 186.33 934.225Z" fill="#EAEBF4"/>
<path d="M182.39 931.434C182.713 931.434 183.03 931.274 183.21 930.982C184.97 928.15 187.308 926.796 187.332 926.783C187.795 926.517 187.958 925.929 187.693 925.462C187.427 925 186.838 924.84 186.375 925.105C186.263 925.173 183.584 926.725 181.569 929.964C181.29 930.42 181.427 931.016 181.879 931.295C182.043 931.39 182.216 931.434 182.39 931.434Z" fill="#EAEBF4"/>
<path d="M98.4964 926.222C98.4964 926.222 95.5693 921.39 83.4693 921.39C71.3693 921.39 70.3652 926.307 70.3652 926.307V932.534H98.3977L98.4964 926.222Z" fill="#F4B799"/>
<path d="M118.162 950.231H66.8252V956.425H118.162V950.231Z" fill="#D0D1D8"/>
<path d="M117.275 950.232C117.275 950.232 119.555 940.261 109.446 937.992L97.091 921.787C97.091 921.787 92.4961 917.514 85.4505 921.849C83.8236 922.849 80.0932 929.226 75.4063 928.253C70.7195 927.283 72.1967 922.509 70.5459 922.873C68.8918 923.237 66.1654 933.422 66.6283 950.232H117.275Z" fill="#FFCE43"/>
<path d="M109.443 937.76C119.555 940.03 117.271 950.231 117.271 950.231H90.5967C91.2638 935.188 109.443 937.76 109.443 937.76Z" fill="#FFDC85"/>
<path d="M95.6553 936.924C95.7881 936.924 95.9242 936.897 96.0536 936.843C102.143 934.127 106.179 935.339 106.217 935.349C106.727 935.512 107.275 935.23 107.435 934.72C107.599 934.209 107.32 933.661 106.813 933.498C106.622 933.437 102.085 932.028 95.2605 935.07C94.7704 935.284 94.5525 935.859 94.767 936.349C94.9304 936.707 95.2877 936.924 95.6553 936.924Z" fill="#EAEBF4"/>
<path d="M93.2295 933.521C93.3623 933.521 93.495 933.494 93.6244 933.44C99.7169 930.728 103.75 931.936 103.788 931.949C104.298 932.109 104.846 931.827 105.006 931.317C105.166 930.806 104.89 930.258 104.38 930.098C104.189 930.034 99.6522 928.625 92.8279 931.667C92.3378 931.885 92.1199 932.456 92.3344 932.95C92.5011 933.307 92.8551 933.521 93.2295 933.521Z" fill="#EAEBF4"/>
<path d="M91.3127 930.752C91.4523 930.752 91.5952 930.721 91.7348 930.66C97.8069 927.754 101.81 928.877 101.85 928.887C102.364 929.037 102.906 928.744 103.055 928.23C103.205 927.716 102.912 927.172 102.398 927.026C102.204 926.968 97.6333 925.682 90.8941 928.907C90.4108 929.139 90.2031 929.717 90.4346 930.204C90.6014 930.551 90.9485 930.752 91.3127 930.752Z" fill="#EAEBF4"/>
<path d="M88.9038 927.451C89.0502 927.451 89.1965 927.417 89.3361 927.345C95.3571 924.334 99.3802 925.385 99.4177 925.399C99.935 925.538 100.473 925.235 100.612 924.718C100.752 924.201 100.452 923.663 99.9316 923.52C99.7376 923.469 95.1461 922.265 88.4647 925.61C87.9848 925.848 87.7874 926.433 88.0291 926.913C88.2027 927.25 88.5464 927.451 88.9038 927.451Z" fill="#EAEBF4"/>
<path d="M81.4268 605.234C81.4268 604.142 81.6412 601.977 81.7637 601.171C81.8828 600.174 82.0462 599.19 82.2572 598.224C88.6527 563.104 107.094 532.615 107.094 532.615L185.024 533.064C185.024 533.064 205.796 556.982 209.098 597.88C209.346 599.466 209.098 606.469 209.098 606.469C208.601 622.139 196.916 634.216 181.872 635.805L111.641 635.873C95.0243 635.294 81.6003 621.942 81.4268 605.234Z" fill="#37474F"/>
<g opacity="0.3">
<g opacity="0.3">
<path opacity="0.3" d="M144.543 634.634C144.884 634.634 145.211 634.434 145.354 634.103C145.394 634.018 149.271 625.004 153.958 605.887C158.662 586.689 154.172 543.783 153.975 541.966C153.924 541.479 153.478 541.125 153.002 541.18C152.515 541.234 152.164 541.67 152.215 542.153C152.263 542.595 156.865 586.573 152.236 605.465C147.593 624.412 143.764 633.311 143.727 633.399C143.533 633.848 143.737 634.369 144.186 634.563C144.305 634.61 144.428 634.634 144.543 634.634Z" fill="black"/>
</g>
<g opacity="0.3">
<path opacity="0.3" d="M152.507 618.475C152.551 618.475 152.595 618.471 152.64 618.464C161.51 617.13 164.661 606.537 164.794 606.088C170.608 588.193 164.849 542.833 164.6 540.911C164.535 540.428 164.1 540.084 163.61 540.145C163.123 540.21 162.783 540.652 162.844 541.136C162.905 541.605 168.8 588.023 163.103 605.571C163.065 605.693 160.118 615.551 152.381 616.715C151.898 616.787 151.564 617.236 151.636 617.719C151.7 618.158 152.078 618.475 152.507 618.475Z" fill="black"/>
</g>
<g opacity="0.3">
<path opacity="0.3" d="M149.825 555.573C175.462 555.573 190.686 547.679 190.911 547.56C191.34 547.332 191.503 546.794 191.275 546.362C191.044 545.93 190.509 545.77 190.077 545.998C189.743 546.178 156.18 563.522 104.482 545.94C104.019 545.784 103.515 546.028 103.359 546.491C103.202 546.957 103.447 547.458 103.91 547.614C121.453 553.579 136.953 555.573 149.825 555.573Z" fill="black"/>
</g>
<path opacity="0.3" d="M159.492 550.871C161.509 550.871 163.144 549.236 163.144 547.22C163.144 545.203 161.509 543.569 159.492 543.569C157.475 543.569 155.84 545.203 155.84 547.22C155.84 549.236 157.475 550.871 159.492 550.871Z" fill="black"/>
<path opacity="0.3" d="M123.008 554.743C123.008 554.743 122.821 579.982 96.8066 579.305C96.8066 579.305 101.323 560.494 107.079 550.871C107.075 550.871 118.137 554.529 123.008 554.743Z" fill="black"/>
<path opacity="0.3" d="M188.355 550.762C188.355 550.762 191.157 564.917 202.368 568.456C202.368 568.456 197.869 554.42 194.033 547.944C194.036 547.941 191.453 549.435 188.355 550.762Z" fill="black"/>
<g opacity="0.3">
<path opacity="0.3" d="M97.7319 585.601C107.089 585.604 114.583 582.967 120.046 577.737C129.505 568.695 129.43 555.271 129.42 554.706C129.413 554.22 129.018 553.805 128.535 553.805H128.521C128.031 553.805 127.643 554.24 127.65 554.727C127.65 554.856 127.711 567.957 118.811 576.454C113.127 581.881 105.023 584.335 94.7333 583.732C94.2398 583.702 93.8245 584.08 93.7973 584.566C93.7701 585.053 94.1411 585.478 94.6278 585.502C95.6863 585.57 96.7211 585.601 97.7319 585.601Z" fill="black"/>
</g>
<g opacity="0.3">
<path opacity="0.3" d="M203.44 573.986C203.835 573.986 204.196 573.724 204.298 573.322C204.417 572.849 204.135 572.369 203.658 572.247C187.603 568.13 185.2 551.803 185.176 551.636C185.112 551.153 184.669 550.813 184.179 550.877C183.696 550.945 183.355 551.388 183.42 551.874C183.444 552.051 186.024 569.549 203.219 573.959C203.294 573.979 203.365 573.986 203.44 573.986Z" fill="black"/>
</g>
<g opacity="0.3">
<g opacity="0.3">
<path opacity="0.3" d="M140.179 632.966C140.342 632.966 140.509 632.919 140.656 632.827C141.071 632.561 141.187 632.017 140.925 631.605C140.846 631.483 132.814 619.08 121.081 610.773C120.683 610.491 120.132 610.583 119.849 610.984C119.567 611.382 119.662 611.934 120.06 612.216C131.503 620.322 139.355 632.439 139.434 632.561C139.604 632.823 139.89 632.966 140.179 632.966Z" fill="black"/>
</g>
<g opacity="0.3">
<path opacity="0.3" d="M134.954 631.184C135.21 631.184 135.465 631.072 135.638 630.857C135.948 630.48 135.894 629.921 135.516 629.612C135.363 629.486 120.067 617.137 100.594 613.598C100.115 613.513 99.6517 613.83 99.5666 614.31C99.4781 614.793 99.7946 615.252 100.278 615.34C119.304 618.801 134.246 630.864 134.396 630.983C134.56 631.119 134.757 631.184 134.954 631.184Z" fill="black"/>
</g>
<g opacity="0.3">
<path opacity="0.3" d="M135.838 634.635C136.254 634.635 136.625 634.342 136.706 633.92C136.802 633.44 136.492 632.977 136.008 632.882C135.226 632.726 116.689 629.125 106.887 631.215C106.41 631.317 106.107 631.786 106.206 632.266C106.308 632.746 106.781 633.045 107.258 632.947C116.703 630.932 135.481 634.58 135.668 634.618C135.726 634.631 135.784 634.635 135.838 634.635Z" fill="black"/>
</g>
</g>
<g opacity="0.3">
<g opacity="0.3">
<path opacity="0.3" d="M155.309 632.967C155.602 632.967 155.884 632.824 156.054 632.562C156.133 632.44 163.985 620.319 175.428 612.217C175.826 611.934 175.921 611.383 175.639 610.985C175.353 610.587 174.802 610.492 174.403 610.774C162.671 619.08 154.642 631.484 154.563 631.606C154.298 632.018 154.421 632.562 154.829 632.828C154.982 632.92 155.145 632.967 155.309 632.967Z" fill="black"/>
</g>
<g opacity="0.3">
<path opacity="0.3" d="M160.535 631.184C160.733 631.184 160.93 631.116 161.097 630.983C161.243 630.861 176.202 618.794 195.212 615.337C195.695 615.252 196.012 614.789 195.923 614.306C195.838 613.826 195.372 613.51 194.895 613.595C175.423 617.134 160.124 629.482 159.974 629.608C159.596 629.918 159.538 630.476 159.848 630.854C160.025 631.072 160.28 631.184 160.535 631.184Z" fill="black"/>
</g>
<g opacity="0.3">
<path opacity="0.3" d="M159.653 634.636C159.71 634.636 159.765 634.632 159.823 634.618C160.013 634.581 178.791 630.933 188.233 632.948C188.71 633.046 189.183 632.744 189.285 632.267C189.387 631.787 189.084 631.321 188.604 631.216C178.802 629.126 160.265 632.726 159.482 632.883C159.003 632.975 158.689 633.441 158.785 633.921C158.866 634.343 159.237 634.636 159.653 634.636Z" fill="black"/>
</g>
</g>
</g>
<path d="M153.445 382.006L153.53 403.906L126.727 404.012L126.614 375.52C137.761 382.802 148.871 382.598 153.445 382.006Z" fill="#F4B799"/>
<path d="M126.618 375.521L126.529 353.573L153.333 353.467L153.445 382.006C148.871 382.599 137.761 382.803 126.618 375.521Z" fill="#F4B799"/>
<path opacity="0.3" d="M126.431 375.521L126.346 353.573L153.149 353.467L153.262 382.006C148.684 382.599 137.571 382.803 126.431 375.521Z" fill="black"/>
<path d="M143.886 399.701C134.237 399.926 126.477 394.128 124.043 391.222C129.24 390.293 137.042 388.472 141.568 388.424C145.86 388.377 152.225 389.82 156.643 390.595C156.463 392.715 154.179 399.463 143.886 399.701Z" fill="#F4B799"/>
<path d="M73.8838 410.505C73.8838 400.11 88.5535 398.007 88.5535 398.007C96.1879 396.567 108.564 394.73 116.664 392.777C116.664 392.777 120.49 391.923 125.446 391.035C127.879 393.937 134.101 398.786 143.751 398.562C154.043 398.323 155.497 392.681 155.677 390.562C160.367 391.385 163.961 392.253 163.961 392.253C178.362 395.281 189.836 398.007 189.836 398.007C189.836 398.007 204.945 400.11 204.945 410.505C204.945 415.201 195.163 422.058 190.741 424.501V425.651C204.904 436.721 206.715 445.017 206.715 454.466C206.715 474.22 190.027 479.058 190.027 479.058L185.081 533.064C154.176 549.231 107.127 532.615 107.127 532.615C102.008 497.76 93.9926 475.356 90.2928 453.071C88.7475 443.768 88.1315 433.399 87.9715 424.185C83.1962 421.507 73.8838 415.018 73.8838 410.505Z" fill="#0BAF9A"/>
<path d="M202.373 558.235C202.373 558.235 205.28 566.554 206.495 574.003C206.495 574.003 165.226 593.11 87.1904 574.013L92.3538 558.235H202.373Z" fill="#0BAF9A"/>
<path d="M145.416 405.86C128.911 406.245 119.071 398.619 115.719 392.998C116.035 392.926 116.359 392.851 116.662 392.78C116.662 392.78 120.487 391.926 125.443 391.038C127.877 393.94 134.098 398.789 143.748 398.565C154.04 398.326 155.494 392.685 155.674 390.565C159.98 391.32 163.349 392.11 163.877 392.235C162.863 397.003 159.132 405.544 145.416 405.86Z" fill="white"/>
<path opacity="0.1" d="M201.943 462.891C201.943 462.891 198.441 465.858 190.82 466.512C175.442 467.842 150.218 470.605 127.979 467.032C118.653 465.535 111.791 460.822 104.766 455.317C104.766 455.317 108.956 479.221 138.189 478.742C167.42 478.258 200.109 481.855 201.943 462.891Z" fill="black"/>
<path d="M70.7438 591.534C70.7438 591.534 82.2141 599.769 83.242 603.924C84.2733 608.079 87.4251 617.869 87.4421 619.883C87.483 624.875 89.9132 631.388 88.5824 631.844C87.2549 632.3 84.6477 633.501 81.5402 623.807L82.4592 635.101C82.4592 635.101 83.0344 639.177 79.8145 639.558C76.3632 639.963 75.9854 636.737 75.9854 636.737L74.5491 632.63C74.5491 632.63 73.933 634.767 71.2714 634.645C68.46 634.508 67.5716 629.663 67.5716 629.663C67.5716 629.663 66.4178 631.939 63.8923 631.432C61.3702 630.925 60.7133 628.816 60.7133 628.816C60.7133 628.816 59.185 629.782 57.9461 629.299C55.9652 628.52 54.6854 624.014 54.6854 624.014C54.6854 624.014 52.3879 611.101 55.1415 595.978C55.1347 595.975 58.7562 581.221 70.7438 591.534Z" fill="#F4B799"/>
<path opacity="0.3" d="M57.9425 629.296C59.1814 629.782 60.7096 628.812 60.7096 628.812C60.7096 628.812 61.3666 630.919 63.8887 631.429C66.4108 631.936 67.568 629.66 67.568 629.66C67.568 629.66 68.4564 634.505 71.2678 634.641C73.9294 634.764 74.5455 632.627 74.5455 632.627L75.9818 636.734C75.9818 636.734 76.38 639.933 79.6714 639.596C82.8946 639.262 82.4556 635.101 82.4556 635.101L81.557 624.025C81.5468 623.963 80.1275 614.544 79.5148 614.201L80.4985 625.403C80.4985 625.403 78.7728 630.262 74.6884 628.438C74.6884 628.438 71.2644 631.157 67.779 628.009C67.779 628.009 63.0105 629.922 60.6552 626.679C60.6552 626.679 56.421 628.384 54.5967 623.538C54.6443 623.844 54.6716 624.011 54.6716 624.011C54.6716 624.011 55.9615 628.516 57.9425 629.296Z" fill="black"/>
<path d="M47.4817 514.222C47.4886 513.984 47.4613 513.307 47.4613 513.297L47.4579 513.096C47.6009 504.79 54.4763 498.011 62.7812 498.011C71.1507 498.011 78.0908 504.97 78.3324 513.314C78.6932 515.57 77.7981 539.376 75.3645 595.124L54.7281 598.428C51.3075 578.076 45.6131 536.13 47.4817 514.222Z" fill="#F4B799"/>
<path d="M62.2922 528.565C69.4194 528.565 75.6923 523.553 77.2444 516.594C83.5922 495.333 104.171 426.403 104.426 425.096C106.322 415.544 100.09 406.238 90.5322 404.346C89.3954 404.121 88.2314 404.009 87.0775 404.009C78.7011 404.009 71.4344 409.967 69.7768 418.185L47.214 510.486L47.2004 510.561C45.7232 518.738 51.152 526.677 59.3003 528.296C60.2874 528.497 61.2949 528.565 62.2922 528.565Z" fill="#F4B799"/>
<path d="M97.9139 487.062C97.9139 487.062 98.7035 544.603 87.1855 574.014L203.325 561.161C203.325 561.161 189.673 523.792 189.302 486.936L97.9139 487.062Z" fill="#0BAF9A"/>
<path d="M89.7273 397.789C89.7273 397.789 56.9535 399.709 55.7725 455.977L99.8327 461.759C99.8327 461.759 126.528 411.513 89.7273 397.789Z" fill="#0BAF9A"/>
<path d="M176.304 405.609C176.304 405.609 159.789 433.975 206.045 466.06L231.98 436.261C231.98 436.261 208.08 382.531 176.304 405.609Z" fill="#0BAF9A"/>
<path d="M102.706 326.959C107.74 326.959 111.821 322.879 111.821 317.847C111.821 312.814 107.74 308.734 102.706 308.734C97.6717 308.734 93.5908 312.814 93.5908 317.847C93.5908 322.879 97.6717 326.959 102.706 326.959Z" fill="#F4B799"/>
<path d="M178.815 326.959C183.849 326.959 187.93 322.879 187.93 317.847C187.93 312.814 183.849 308.734 178.815 308.734C173.781 308.734 169.7 312.814 169.7 317.847C169.7 322.879 173.781 326.959 178.815 326.959Z" fill="#F4B799"/>
<path d="M165.497 276.271C146.352 254.993 110.923 264.834 104.858 292.805C102.135 305.355 100.47 320.964 103.275 336.538C109.596 371.645 132.216 385.968 156.845 373.734C181.477 361.501 182.587 311.388 173.843 289.678C171.835 284.703 168.999 280.171 165.497 276.271Z" fill="#F4B799"/>
<path d="M300.695 426.546C300.695 426.546 300.116 419.169 302.138 413.571C302.9 411.461 302.812 403.699 300.705 399.47C298.687 395.42 296.937 394.549 297.982 393.576C300.729 391.017 304.973 390.568 311.141 405.819L320.906 399.745C320.906 399.745 324.398 397.683 326.532 400.086C328.475 402.274 326.488 404.285 326.488 404.285C326.488 404.285 329.714 403.277 331.27 405.411C332.914 407.667 331.079 410.246 331.079 410.246C331.079 410.246 332.696 410.134 334.054 412.543C335.167 414.524 334.006 416.62 334.006 416.62C334.006 416.62 335.024 417.76 335.419 419.015C336.052 421.03 334.724 423.701 334.724 423.701C334.724 423.701 328.203 431.827 314.816 439.092C314.816 439.092 298.07 444.227 300.695 426.546Z" fill="#F4B799"/>
<path opacity="0.3" d="M311.24 406.489L320.999 400.66C320.999 400.66 315.471 405.42 313.854 407.248C312.234 409.078 313.875 411.154 313.875 411.154C313.875 411.154 313.919 411.236 313.997 411.375L313.987 411.345C315.12 412.832 317.554 411.253 317.554 411.253L326.489 404.28C326.489 404.28 320.175 409.667 317.823 411.695C315.471 413.727 316.387 415.391 316.387 415.391L316.37 415.384C316.57 415.707 316.778 416.041 316.999 416.388C318.354 418.075 320.73 416.888 320.73 416.888L331.084 410.239C331.084 410.239 323.412 415.922 321.131 417.375C318.861 418.821 320.124 421.022 320.137 421.046C320.182 421.111 320.226 421.169 320.27 421.233C321.567 423.057 323.643 422.407 323.643 422.407L334.014 416.616C334.014 416.616 325.559 421.849 324.099 422.839C322.643 423.823 323.32 425.412 323.32 425.415C323.63 425.827 323.868 426.147 323.99 426.31C325.614 428.457 334.293 423.115 334.293 423.115C333.238 424.936 327.122 429.369 327.122 429.369C319.28 422.69 311.826 425.392 311.826 425.392C316.849 416.922 311.24 406.489 311.24 406.489Z" fill="black"/>
<path d="M180.803 303.806C180.803 303.806 141.654 283.998 139.785 261.747C139.785 261.747 182.702 251.978 180.803 303.806Z" fill="#E64054"/>
<path d="M148.774 264.191C148.774 264.191 144.802 283.784 124.959 290.239C124.959 290.239 126.994 285.166 126.994 279.966C126.994 279.966 119.666 296.953 100.939 297.562C100.939 297.566 97.8866 252.996 148.774 264.191Z" fill="#E64054"/>
<path opacity="0.3" d="M143.198 971.131C222.285 971.131 286.397 963.55 286.397 954.198C286.397 944.847 222.285 937.266 143.198 937.266C64.1121 937.266 0 944.847 0 954.198C0 963.55 64.1121 971.131 143.198 971.131Z" fill="#DADAE0"/>
<path opacity="0.3" d="M948.302 972.51C1027.39 972.51 1091.5 964.929 1091.5 955.577C1091.5 946.226 1027.39 938.645 948.302 938.645C869.216 938.645 805.104 946.226 805.104 955.577C805.104 964.929 869.216 972.51 948.302 972.51Z" fill="#DADAE0"/>
<path d="M941.513 898.314H916.343V926.945H941.513V898.314Z" fill="#FAA284"/>
<path d="M945.767 777.279C945.488 764.267 935.073 755.613 924.097 755.613C912.582 755.613 902.422 764.991 902.422 777.279C902.231 783.315 915.339 911.002 915.339 911.002C927.99 911.002 927.646 910.04 942.834 910.142L945.767 777.279Z" fill="#37474F"/>
<path d="M942.861 614.165C942.861 601.136 932.296 590.57 919.263 590.57C906.23 590.57 895.662 601.133 895.662 614.165C895.662 614.495 902.122 771.287 902.415 777.279C902.687 790.999 913.844 798.948 924.089 798.948C935.301 798.948 946.24 789.679 945.747 776.493L942.861 614.165Z" fill="#37474F"/>
<path d="M911.856 924.345C911.856 924.345 915.403 918.982 929.072 918.982C942.741 918.982 944.116 924.634 944.116 924.634V931.287H911.969L911.856 924.345Z" fill="#FAA284"/>
<path d="M951.057 952.109H859.066V959.051H951.057V952.109Z" fill="#DBDBDB"/>
<path d="M859.424 952.109C859.424 952.109 855.152 935.55 885.697 938.096L911.649 919.772C911.649 919.772 913.695 917.995 915.604 919.768C917.514 921.541 924.331 928.013 932.65 926.924C940.968 925.835 941.173 920.738 944.103 921.146C947.034 921.555 951.874 934.758 951.057 952.112H859.424V952.109Z" fill="#FFCE43"/>
<path d="M885.697 938.112C855.152 935.567 859.424 952.108 859.424 952.108H888.273C888.27 941.695 885.697 938.112 885.697 938.112Z" fill="#FFDC85"/>
<path d="M901.225 936.724C900.86 936.724 900.506 936.541 900.299 936.211C898.315 933.015 895.67 931.481 895.643 931.467C895.122 931.168 894.938 930.501 895.238 929.977C895.537 929.453 896.201 929.269 896.728 929.572C896.854 929.643 899.88 931.396 902.157 935.057C902.477 935.567 902.317 936.241 901.803 936.558C901.619 936.673 901.419 936.724 901.225 936.724Z" fill="#E8E8E8"/>
<path d="M905.675 933.577C905.311 933.577 904.954 933.393 904.75 933.063C902.762 929.868 900.117 928.333 900.09 928.316C899.569 928.02 899.385 927.353 899.685 926.829C899.984 926.305 900.652 926.121 901.176 926.421C901.302 926.492 904.331 928.248 906.605 931.906C906.925 932.416 906.765 933.094 906.254 933.41C906.074 933.522 905.873 933.577 905.675 933.577Z" fill="#E8E8E8"/>
<path d="M910.128 930.426C909.764 930.426 909.407 930.242 909.203 929.912C907.215 926.717 904.574 925.182 904.546 925.165C904.022 924.866 903.838 924.202 904.138 923.678C904.437 923.154 905.105 922.974 905.629 923.27C905.755 923.341 908.784 925.097 911.061 928.755C911.377 929.265 911.221 929.943 910.707 930.256C910.523 930.371 910.326 930.426 910.128 930.426Z" fill="#E8E8E8"/>
<path d="M1016.7 897.659L991.543 898.381L992.365 927.001L1017.52 926.278L1016.7 897.659Z" fill="#FAA284"/>
<path d="M1017.45 776.589C1016.8 763.59 1006.14 755.236 995.165 755.55C983.657 755.88 973.77 765.547 974.12 777.831C974.103 783.871 991.472 910.823 991.472 910.823C1003.45 909.704 1003.26 909.68 1017.47 908.24L1017.45 776.589Z" fill="#37474F"/>
<path d="M1009.87 613.625C1009.5 600.599 998.634 590.343 985.605 590.717C972.579 591.092 962.321 601.954 962.699 614.976C962.705 615.306 973.662 771.852 974.125 777.831C974.788 791.534 986.17 799.163 996.412 798.871C1007.62 798.547 1018.29 788.972 1017.42 775.806L1009.87 613.625Z" fill="#37474F"/>
<path d="M986.492 924.346C986.492 924.346 990.035 918.983 1003.7 918.983C1017.38 918.983 1018.75 924.636 1018.75 924.636V931.288H986.601L986.492 924.346Z" fill="#FAA284"/>
<path d="M1026.56 952.11H941.513V959.051H1026.56V952.11Z" fill="#E8E8E8"/>
<path d="M951.037 952.11C951.037 952.11 949.431 938.073 967.102 937.702L988.487 918.919C988.487 918.919 992.347 915.992 997.408 918.895C1001.17 921.059 1001.72 927.327 1008.58 926.211C1015.43 925.095 1015.6 919.939 1018.01 920.358C1020.43 920.777 1027.21 933.02 1026.53 952.106H951.037V952.11Z" fill="#FFCE43"/>
<path d="M957.613 937.787C939.948 938.158 941.547 952.11 941.547 952.11H971.186C971.217 938.23 957.613 937.787 957.613 937.787Z" fill="#FFDC85"/>
<path d="M985.064 936.035C984.765 936.035 984.468 935.916 984.251 935.681C980.343 931.519 974.87 931.41 974.819 931.41C974.2 931.403 973.71 931.084 973.713 930.468C973.723 929.855 974.22 929.549 974.833 929.549C974.836 929.549 974.84 929.549 974.843 929.549C975.105 929.549 981.327 929.488 985.881 934.337C986.303 934.786 986.279 935.402 985.83 935.824C985.612 936.028 985.336 936.035 985.064 936.035Z" fill="white"/>
<path d="M989.527 932.132C989.23 932.132 988.931 932.013 988.713 931.778C984.809 927.613 979.333 927.508 979.282 927.508C978.666 927.501 978.172 926.963 978.179 926.347C978.186 925.735 978.683 925.211 979.295 925.211H979.305C979.568 925.211 985.793 925.371 990.343 930.216C990.765 930.669 990.742 931.39 990.292 931.812C990.075 932.016 989.802 932.132 989.527 932.132Z" fill="white"/>
<path d="M993.992 928.222C993.696 928.222 993.4 928.106 993.182 927.868C989.275 923.706 983.802 923.597 983.751 923.597C983.131 923.591 982.638 923.271 982.645 922.658C982.651 922.046 983.148 921.739 983.761 921.739C983.764 921.739 983.771 921.739 983.775 921.739C984.037 921.739 990.259 921.678 994.809 926.527C995.231 926.976 995.211 927.589 994.758 928.011C994.544 928.215 994.268 928.222 993.992 928.222Z" fill="white"/>
<path d="M1010.07 577.29H895.476L895.925 617.794C896.238 632.521 908.226 644.431 922.906 644.948L983.058 645.377C998.034 644.965 1010.07 632.491 1010.07 617.416C1010.07 616.586 1010.07 577.29 1010.07 577.29Z" fill="#37474F"/>
<path d="M1020.75 909.247C1019.89 909.247 986.495 911.003 986.495 911.003L984.15 892.635H1022.22L1020.75 909.247Z" fill="#6F6FA5"/>
<path d="M946.494 910.877C945.629 910.877 912.239 912.633 912.239 912.633L909.896 894.265H947.964L946.494 910.877Z" fill="#6F6FA5"/>
<g opacity="0.3">
<g opacity="0.3">
<path opacity="0.3" d="M956.545 643.995C956.259 643.995 955.99 643.828 955.867 643.549C955.837 643.478 952.6 635.961 948.693 620.015C944.772 604.002 948.516 568.211 948.676 566.697C948.72 566.292 949.091 565.999 949.486 566.043C949.894 566.087 950.187 566.452 950.142 566.853C950.102 567.221 946.262 603.903 950.125 619.665C953.999 635.471 957.188 642.889 957.222 642.964C957.385 643.338 957.212 643.774 956.841 643.934C956.742 643.974 956.643 643.995 956.545 643.995Z" fill="black"/>
</g>
<g opacity="0.3">
<path opacity="0.3" d="M949.897 630.512C949.862 630.512 949.825 630.512 949.791 630.506C942.391 629.393 939.76 620.556 939.652 620.182C934.801 605.257 939.604 567.424 939.811 565.818C939.866 565.417 940.23 565.127 940.639 565.178C941.044 565.233 941.33 565.604 941.278 566.005C941.227 566.393 936.309 605.114 941.064 619.746C941.098 619.851 943.552 628.069 950.009 629.042C950.41 629.104 950.69 629.478 950.632 629.88C950.574 630.25 950.257 630.512 949.897 630.512Z" fill="black"/>
</g>
<g opacity="0.3">
<path opacity="0.3" d="M952.135 578.049C930.757 578.049 918.055 571.464 917.871 571.362C917.51 571.172 917.374 570.722 917.565 570.365C917.759 570.008 918.205 569.868 918.565 570.059C918.841 570.209 946.839 584.677 989.96 570.011C990.345 569.882 990.764 570.086 990.893 570.474C991.026 570.858 990.821 571.277 990.433 571.41C975.801 576.388 962.874 578.049 952.135 578.049Z" fill="black"/>
</g>
<path opacity="0.3" d="M944.076 574.125C945.758 574.125 947.122 572.762 947.122 571.08C947.122 569.398 945.758 568.034 944.076 568.034C942.393 568.034 941.029 569.398 941.029 571.08C941.029 572.762 942.393 574.125 944.076 574.125Z" fill="black"/>
<path opacity="0.3" d="M974.505 577.357C974.505 577.357 974.661 598.41 996.363 597.845C996.363 597.845 992.595 582.152 987.793 574.124C987.793 574.128 978.565 577.177 974.505 577.357Z" fill="black"/>
<path opacity="0.3" d="M919.998 574.033C919.998 574.033 917.66 585.844 908.307 588.794C908.307 588.794 912.064 577.085 915.26 571.685C915.264 571.685 917.418 572.93 919.998 574.033Z" fill="black"/>
<g opacity="0.3">
<path opacity="0.3" d="M995.584 603.093C987.782 603.096 981.53 600.894 976.972 596.532C969.083 588.991 969.144 577.796 969.151 577.323C969.158 576.918 969.488 576.571 969.889 576.571H969.903C970.308 576.571 970.635 576.932 970.628 577.344C970.628 577.453 970.577 588.376 978.004 595.464C982.745 599.993 989.505 602.041 998.085 601.534C998.494 601.507 998.841 601.823 998.865 602.228C998.892 602.637 998.579 602.991 998.174 603.011C997.292 603.069 996.428 603.093 995.584 603.093Z" fill="black"/>
</g>
<g opacity="0.3">
<path opacity="0.3" d="M907.419 593.409C907.089 593.409 906.786 593.187 906.704 592.854C906.605 592.459 906.84 592.058 907.235 591.956C920.625 588.519 922.63 574.901 922.65 574.765C922.705 574.36 923.072 574.077 923.481 574.132C923.882 574.186 924.165 574.557 924.114 574.962C924.093 575.108 921.942 589.703 907.599 593.381C907.541 593.402 907.48 593.409 907.419 593.409Z" fill="black"/>
</g>
<g opacity="0.3">
<g opacity="0.3">
<path opacity="0.3" d="M960.182 642.603C960.046 642.603 959.906 642.562 959.784 642.487C959.44 642.266 959.341 641.81 959.562 641.467C959.63 641.364 966.325 631.02 976.111 624.092C976.444 623.857 976.901 623.935 977.142 624.265C977.374 624.602 977.299 625.058 976.965 625.296C967.418 632.054 960.869 642.164 960.805 642.266C960.662 642.484 960.424 642.603 960.182 642.603Z" fill="black"/>
</g>
<g opacity="0.3">
<path opacity="0.3" d="M964.539 641.114C964.324 641.114 964.113 641.025 963.967 640.845C963.708 640.528 963.756 640.065 964.069 639.803C964.198 639.701 976.955 629.398 993.197 626.447C993.599 626.376 993.984 626.641 994.055 627.043C994.13 627.441 993.865 627.826 993.463 627.9C977.592 630.786 965.131 640.848 965.008 640.947C964.869 641.063 964.705 641.114 964.539 641.114Z" fill="black"/>
</g>
<g opacity="0.3">
<path opacity="0.3" d="M963.799 643.995C963.452 643.995 963.146 643.753 963.074 643.4C962.996 642.998 963.258 642.61 963.656 642.532C964.31 642.402 979.769 639.398 987.948 641.14C988.346 641.225 988.598 641.62 988.517 642.018C988.431 642.416 988.033 642.668 987.638 642.586C979.762 640.905 964.099 643.947 963.942 643.981C963.895 643.988 963.847 643.995 963.799 643.995Z" fill="black"/>
</g>
</g>
<g opacity="0.3">
<g opacity="0.3">
<path opacity="0.3" d="M947.561 642.602C947.319 642.602 947.081 642.483 946.938 642.262C946.87 642.16 940.324 632.05 930.777 625.292C930.444 625.057 930.365 624.598 930.6 624.261C930.838 623.931 931.298 623.853 931.632 624.088C941.417 631.016 948.115 641.36 948.18 641.462C948.398 641.806 948.299 642.259 947.959 642.483C947.836 642.562 947.697 642.602 947.561 642.602Z" fill="black"/>
</g>
<g opacity="0.3">
<path opacity="0.3" d="M943.204 641.112C943.038 641.112 942.871 641.058 942.735 640.946C942.612 640.847 930.134 630.781 914.28 627.899C913.879 627.828 913.613 627.44 913.684 627.042C913.756 626.64 914.144 626.375 914.542 626.446C930.784 629.396 943.545 639.7 943.671 639.802C943.987 640.061 944.031 640.527 943.776 640.843C943.63 641.024 943.415 641.112 943.204 641.112Z" fill="black"/>
</g>
<g opacity="0.3">
<path opacity="0.3" d="M943.94 643.995C943.892 643.995 943.848 643.988 943.797 643.981C943.637 643.947 927.977 640.905 920.101 642.586C919.706 642.668 919.311 642.416 919.222 642.018C919.141 641.619 919.393 641.228 919.791 641.14C927.966 639.397 943.426 642.402 944.083 642.531C944.481 642.606 944.743 642.998 944.665 643.399C944.597 643.753 944.287 643.995 943.94 643.995Z" fill="black"/>
</g>
</g>
</g>
<path d="M991.598 252.871C996.819 256.828 1000.13 262.906 1001.8 269.242C1004.02 277.718 1003.52 286.752 1001.4 295.256C999.27 303.76 995.57 311.79 991.438 319.521C990.669 320.961 989.828 322.451 988.456 323.333C987.231 324.119 985.727 324.319 984.28 324.496C966.901 326.661 949.287 328.821 931.925 326.501C927.919 325.963 923.699 325.068 920.795 322.257C917.038 318.62 916.52 312.866 916.333 307.642C916.163 303.021 916.074 298.397 916.061 293.772C916.03 283.479 900.734 280.689 903.937 270.902C905.173 267.118 922.569 255.702 925.438 252.945C927.603 250.866 930.319 249.454 933.086 248.301C942.303 244.469 952.602 243.281 962.453 244.922C967.48 245.759 971.615 249.301 976.574 248.954C982.088 248.569 987.081 249.451 991.598 252.871Z" fill="#502F26"/>
<path d="M975.358 348.237H939.776V389.884H975.358V348.237Z" fill="#F4B799"/>
<path opacity="0.3" d="M975.358 366.026V348.233H939.776V375.997C944.981 376.742 965.811 378.171 975.358 366.026Z" fill="black"/>
<path d="M934.856 384.794C934.856 384.794 955.792 379.911 980.744 384.794C980.744 384.794 974.451 399.11 955.792 399.11C937.133 399.11 934.856 384.794 934.856 384.794Z" fill="#F4B799"/>
<path d="M1048.22 413.013C1044.65 400.15 1033.23 398.125 1033.23 398.125C1033.23 398.125 1003.25 389.792 978.575 384.415C978.575 384.415 973.225 398.704 953.119 398.377C935.693 398.095 937.354 384.415 937.354 384.415C926.122 386.181 897.728 392.824 886.537 398.05C886.537 398.05 874.754 401.994 873.634 415.439C873.634 415.439 873.467 421.499 886.217 429.853C886.99 444.022 888.818 463.619 892.711 490.008C897.259 520.796 895.475 536.943 895.393 579.458C895.393 579.458 931.843 594.733 1012.28 579.396C1012.28 579.396 1009.36 534.551 1013.36 500.686C1016.58 473.409 1027.42 446.816 1029.16 432.153V432.164C1051.73 422.69 1048.22 413.013 1048.22 413.013Z" fill="#0BAF9A"/>
<path d="M1040.28 409.181C1034.77 402.185 1024.63 400.977 1017.64 406.483C1010.64 411.989 1009.43 422.122 1014.94 429.122C1015.81 430.221 1084.79 502.623 1084.79 502.623C1089.48 508.377 1097.94 509.34 1103.8 504.729C1109.66 500.118 1110.71 491.676 1106.22 485.765L1040.28 409.181Z" fill="#F4B799"/>
<path d="M1104.51 504.072C1109.87 498.927 1110.14 490.427 1105.08 484.962C1100.01 479.493 1091.31 478.963 1085.78 483.917C1085.78 483.917 1065.19 497.379 1013.33 551.204L1025.17 563.975C1025.17 563.975 1080.72 530.039 1103.8 504.695C1103.95 504.531 1104.51 504.072 1104.51 504.072Z" fill="#F4B799"/>
<path d="M1087 455.385L1044.14 405.721C1036.95 396.693 1023.74 395.162 1014.66 402.321C1005.55 409.505 1003.98 422.762 1011.17 431.871C1011.81 432.671 1033.66 455.619 1057.96 481.076C1065.44 475.499 1077.74 465.739 1087 455.385Z" fill="#0BAF9A"/>
<path d="M1030.15 550.993C1027.44 543.197 1023.3 544.426 1023.3 544.426L1017.34 544.722C1012.16 542.122 1009.39 537.981 1006.72 537.141C1001.9 535.633 1000.32 530.944 999.291 531.335C997.082 532.179 996.54 534.218 997.517 536.086C998.896 538.75 1002.15 541.238 1002.15 541.238C1000.06 540.475 991.323 537.828 988.222 537.44C985.547 537.103 977.814 541.697 976.888 542.218C975.734 542.864 974.097 543.984 974.631 545.083C975.537 546.934 977.722 546.9 979.383 546.417C981.234 545.875 985.417 542.891 986.929 543.286C987.807 543.517 993.167 545.117 993.583 545.287C993.583 545.287 986.983 547.849 984.148 548.853C980.867 550.013 974.005 552.827 974.005 552.827C968.61 556.22 975.295 558.337 975.295 558.337C974.89 558.677 973.542 559.875 973.964 560.919C974.747 562.859 977.558 562.862 978.256 562.835C980.411 562.75 987.044 560.606 987.221 560.627C987.221 560.623 996.833 560.926 996.833 560.926C993.94 563.165 992.248 564.407 988.654 566.884C988.048 567.3 984.185 569.685 983.91 570.28C983.573 570.992 983.869 571.635 984.519 571.951C985.87 572.615 987.545 572.571 989.076 572.053C989.818 571.805 992.762 570.447 994.352 569.522C1000.59 565.877 1004.09 564.734 1009.78 568.879C1017.99 574.85 1027.03 562.634 1027.03 562.634C1027.03 562.634 1032.87 558.786 1030.15 550.993Z" fill="#F4B799"/>
<path opacity="0.3" d="M1002.15 541.238L1006.54 542.833C1006.54 542.83 1007.05 541.813 1002.15 541.238Z" fill="black"/>
<path opacity="0.3" d="M975.292 558.333C975.292 558.333 984.298 555.172 986.361 554.613C988.417 554.055 998.539 554.229 997.722 552.017C997.722 552.02 994.672 549.356 975.292 558.333Z" fill="black"/>
<path opacity="0.3" d="M993.583 545.283C993.583 545.283 998.651 544.545 997.436 544.041C996.221 543.534 994.577 544.899 993.583 545.283Z" fill="black"/>
<path d="M879.992 409.348C885.519 402.369 895.662 401.188 902.64 406.714C909.624 412.237 910.802 422.378 905.274 429.357C904.406 430.452 835.217 502.664 835.217 502.664C830.506 508.407 822.051 509.343 816.204 504.719C810.357 500.094 809.325 491.645 813.835 485.748L879.992 409.348Z" fill="#F4B799"/>
<path d="M814.321 502.663C809.543 496.981 810.172 488.497 815.799 483.601C821.418 478.704 830.121 479.106 835.094 484.622C835.094 484.622 854.13 500.203 899.954 559.255L887.745 569.886C887.745 569.886 835.199 531.026 814.965 503.364C814.829 503.177 814.321 502.663 814.321 502.663Z" fill="#F4B799"/>
<path d="M833.145 455.422L876.143 405.878C883.365 396.87 896.572 395.377 905.632 402.56C914.723 409.77 916.251 423.028 909.043 432.117C908.403 432.916 886.483 455.804 862.12 481.195C854.645 475.598 842.382 465.801 833.145 455.422Z" fill="#0BAF9A"/>
<path d="M896.745 536.657C896.745 536.657 898.869 529.787 895.713 527.837C892.711 525.979 890.604 538.893 890.604 538.893L896.745 536.657Z" fill="#F4B799"/>
<path d="M921.816 547.863C921.469 547.614 911.272 542.479 909.785 542.153C908.9 541.959 901.398 541.2 901.354 541.163L907.014 539.516C909.366 538.828 913.706 542.479 916.997 541.612C920.006 540.819 919.75 538.617 918.627 538.175C910.921 535.136 909.026 533.476 906.296 533.727C901.81 534.143 899.397 535.017 897.647 535.299C894.009 535.888 892.664 535.32 891.153 537.821C891.037 538.018 886.769 545.733 884.199 561.855C882.994 569.409 891.473 571.71 891.473 571.71C898.604 573.554 898.399 565.561 901.224 563.026C902.419 561.96 907.8 566.394 909.563 567.405C911.326 568.412 913.777 569.198 914.723 568.633C916.898 567.323 915.986 566.33 914.958 565.516C913.365 564.254 902.32 556.482 902.32 556.482C902.385 556.057 902.504 555.737 902.565 555.332C902.565 555.332 908.195 557.173 910.86 558.374C913.29 559.47 917.555 561.392 919.706 560.062C921.677 558.844 920.754 557.251 920.067 556.615C918.804 555.444 903.508 548.598 903.508 548.598C903.508 548.598 905.778 546.944 908.92 547.676C911.054 548.176 914.505 549.411 915.591 549.955C917.051 550.684 920.547 552.32 921.946 550.622C922.929 549.435 922.501 548.356 921.816 547.863Z" fill="#F4B799"/>
<path opacity="0.3" d="M901.789 562.873C901.789 562.873 899.059 560.947 898.538 560.811C898.028 560.675 897.691 561.372 901.789 562.873Z" fill="black"/>
<path opacity="0.3" d="M899.791 564.737C899.791 564.737 895.36 564.098 894.853 563.618C894.346 563.135 892.453 565.35 899.791 564.737Z" fill="black"/>
<path opacity="0.3" d="M902.317 556.489C902.317 556.489 896.824 553.848 897.174 552.882C897.654 551.569 901.204 554.372 902.562 555.339L902.317 556.489Z" fill="black"/>
<path opacity="0.3" d="M903.506 548.604C903.506 548.604 897.349 547.42 897.543 545.95C897.737 544.476 903.506 548.604 903.506 548.604Z" fill="black"/>
<path opacity="0.3" d="M901.354 541.162C901.354 541.162 896.745 540.131 896.418 539.253C896.095 538.379 898.199 539.127 901.354 541.162Z" fill="black"/>
<path d="M996.509 324.128C1002.3 324.128 1007 319.431 1007 313.637C1007 307.843 1002.3 303.146 996.509 303.146C990.714 303.146 986.016 307.843 986.016 313.637C986.016 319.431 990.714 324.128 996.509 324.128Z" fill="#F4B799"/>
<path opacity="0.6" d="M997.541 319.211C1000.33 319.211 1002.59 316.952 1002.59 314.165C1002.59 311.378 1000.33 309.118 997.541 309.118C994.753 309.118 992.493 311.378 992.493 314.165C992.493 316.952 994.753 319.211 997.541 319.211Z" fill="black"/>
<path d="M929.4 267.301C948.783 244.645 985.938 253.979 992.98 282.951C996.142 295.946 998.279 312.161 995.761 328.453C990.087 365.176 966.901 380.676 940.938 368.572C914.975 356.469 912.514 304.314 921.061 281.477C923.018 276.244 925.853 271.449 929.4 267.301Z" fill="#F4B799"/>
<path d="M996.414 303.153C996.414 303.153 992.53 302.765 989.059 308.567C989.059 308.567 982.401 264.882 965.141 266.318C965.141 266.318 942.418 267.24 919.178 278.371C899.223 287.929 901.677 244.2 937.473 242.893C978.98 241.375 974.358 245.602 974.358 245.602C974.358 245.602 1014.15 232.375 996.414 303.153Z" fill="#502F26"/>
<path d="M979.726 273.477C979.726 273.477 983.507 249.504 976.084 239.939C968.66 230.374 963.34 231.408 958.776 235.931C958.776 235.931 949.617 226.212 943.555 235.233C937.5 244.254 933.433 237.53 929.903 235.192C926.37 232.855 916.397 232.228 919.246 241.807C919.246 241.807 899.41 230.02 894.127 242.508C888.845 254.993 904.617 260.06 904.617 260.06C904.617 260.06 895.247 291.053 922.704 278.091C955.958 262.398 979.726 273.477 979.726 273.477Z" fill="#502F26"/>
<path d="M864.237 159.429L879.015 206.272L1013.08 87.3083L864.237 159.429Z" fill="#EA9918"/>
<path d="M816.452 143.832L864.237 159.436L1013.08 87.3083L816.452 143.832Z" fill="#FFCE43"/>
<path d="M880.913 164.112L1013.08 87.3083L931.26 180.671L880.913 164.112Z" fill="#FFCE43"/>
<path d="M879.011 206.271L880.909 164.112L914.26 175.094L879.011 206.271Z" fill="#FFBB4D"/>
<path opacity="0.5" d="M385.185 788.44L358.511 783.632L337.572 745.054L289.414 771.184L272.245 768.091L265.479 784.169L217.324 810.293L238.26 848.87L227.753 873.847L286.565 982.199L443.994 896.789L385.185 788.44Z" fill="black"/>
<path d="M370.492 780.829L213.066 866.247L256.243 945.782L413.669 860.364L370.492 780.829Z" fill="#E5AE13"/>
<path d="M213.021 866.307L257.511 760.548L370.451 780.9L213.021 866.307Z" fill="#FFCE43"/>
<path d="M322.878 737.448L202.63 802.694L281.027 947.11L401.276 881.865L322.878 737.448Z" fill="white"/>
<path d="M225.899 827.569L228.52 832.396L332.204 776.138L329.583 771.311L225.899 827.569Z" fill="#EDEDED"/>
<path d="M233.833 842.25L337.518 785.992L334.897 781.165L231.213 837.423L233.833 842.25Z" fill="#EDEDED"/>
<path d="M239.137 852.021L342.821 795.763L340.201 790.936L236.517 847.194L239.137 852.021Z" fill="#EDEDED"/>
<path d="M244.542 861.754L348.224 805.509L345.602 800.679L241.921 856.924L244.542 861.754Z" fill="#EDEDED"/>
<path d="M249.737 871.573L353.421 815.314L350.801 810.487L247.116 866.746L249.737 871.573Z" fill="#EDEDED"/>
<path d="M333.146 833.331L252.786 876.934L255.407 881.761L335.766 838.158L333.146 833.331Z" fill="#EDEDED"/>
<path d="M213.021 866.307L271.83 974.655L429.262 889.245L370.451 780.899L326.567 887.775L213.021 866.307Z" fill="#FFCE43"/>
<path d="M271.831 974.656L316.324 868.9L429.264 889.245L271.831 974.656Z" fill="#FFCE43"/>
<path opacity="0.5" d="M271.831 974.655L305.677 883.828L309.744 884.593L271.831 974.655Z" fill="black"/>
<path opacity="0.5" d="M429.263 889.245L333.079 871.918L334.641 868.11L429.263 889.245Z" fill="black"/>
<path opacity="0.5" d="M313.92 221.003V84.3798C313.92 62.6358 325.016 43.444 341.864 32.2488C358.406 44.9753 371.476 62.6019 378.623 83.8354C397.445 139.744 368.583 200.211 313.92 221.003Z" fill="black"/>
<path d="M268.795 218.814C329.233 218.814 378.229 169.831 378.229 109.407C378.229 48.9833 329.233 0 268.795 0C208.356 0 159.36 48.9833 159.36 109.407C159.36 169.831 208.356 218.814 268.795 218.814Z" fill="#0AAD60"/>
<path d="M271.697 208.327C325.177 208.327 368.531 164.984 368.531 111.517C368.531 58.0503 325.177 14.707 271.697 14.707C218.217 14.707 174.863 58.0503 174.863 111.517C174.863 164.984 218.217 208.327 271.697 208.327Z" fill="#0AAD60"/>
<path opacity="0.2" d="M298.033 197.386C248.006 214.244 193.864 187.913 176.046 138.497C176.25 139.151 176.434 139.804 176.652 140.457C193.735 191.122 248.666 218.351 299.343 201.272C350.02 184.194 377.256 129.276 360.173 78.6113C359.955 77.958 359.7 77.3284 359.469 76.6853C375.211 126.802 348.06 180.529 298.033 197.386Z" fill="white"/>
<path opacity="0.5" d="M240.592 25.7693C289.91 9.15 343.246 34.4976 361.816 82.569C361.421 81.2045 361.013 79.8434 360.553 78.4823C343.47 27.8178 288.539 0.588542 237.862 17.6673C187.185 34.746 159.949 89.6639 177.032 140.328C177.488 141.686 177.988 143.02 178.499 144.344C164.173 94.8464 191.276 42.3887 240.592 25.7693Z" fill="black"/>
<g opacity="0.5">
<path opacity="0.5" d="M269.325 164.383L219.104 122.273L228.917 110.574L265.643 141.366L317.756 57.4153L330.73 65.4629L269.325 164.383Z" fill="black"/>
</g>
<path d="M267.092 158.907L216.868 116.797L226.681 105.098L263.41 135.894L315.523 51.9429L328.498 59.9905L267.092 158.907Z" fill="white"/>
<path d="M747 335H357V725H747V335Z" fill="white"/>
<path d="M394.05 360.35H382.35V372.05H394.05V360.35Z" fill="black"/>
<path d="M405.75 360.35H394.05V372.05H405.75V360.35Z" fill="black"/>
<path d="M417.45 360.35H405.75V372.05H417.45V360.35Z" fill="black"/>
<path d="M429.15 360.35H417.45V372.05H429.15V360.35Z" fill="black"/>
<path d="M440.85 360.35H429.15V372.05H440.85V360.35Z" fill="black"/>
<path d="M452.55 360.35H440.85V372.05H452.55V360.35Z" fill="black"/>
<path d="M464.25 360.35H452.55V372.05H464.25V360.35Z" fill="black"/>
<path d="M511.05 360.35H499.35V372.05H511.05V360.35Z" fill="black"/>
<path d="M534.45 360.35H522.75V372.05H534.45V360.35Z" fill="black"/>
<path d="M557.85 360.35H546.15V372.05H557.85V360.35Z" fill="black"/>
<path d="M581.25 360.35H569.55V372.05H581.25V360.35Z" fill="black"/>
<path d="M616.35 360.35H604.65V372.05H616.35V360.35Z" fill="black"/>
<path d="M628.05 360.35H616.35V372.05H628.05V360.35Z" fill="black"/>
<path d="M651.45 360.35H639.75V372.05H651.45V360.35Z" fill="black"/>
<path d="M663.15 360.35H651.45V372.05H663.15V360.35Z" fill="black"/>
<path d="M674.85 360.35H663.15V372.05H674.85V360.35Z" fill="black"/>
<path d="M686.55 360.35H674.85V372.05H686.55V360.35Z" fill="black"/>
<path d="M698.25 360.35H686.55V372.05H698.25V360.35Z" fill="black"/>
<path d="M709.95 360.35H698.25V372.05H709.95V360.35Z" fill="black"/>
<path d="M721.65 360.35H709.95V372.05H721.65V360.35Z" fill="black"/>
<path d="M394.05 372.05H382.35V383.75H394.05V372.05Z" fill="black"/>
<path d="M464.25 372.05H452.55V383.75H464.25V372.05Z" fill="black"/>
<path d="M487.65 372.05H475.95V383.75H487.65V372.05Z" fill="black"/>
<path d="M511.05 372.05H499.35V383.75H511.05V372.05Z" fill="black"/>
<path d="M546.15 372.05H534.45V383.75H546.15V372.05Z" fill="black"/>
<path d="M569.55 372.05H557.85V383.75H569.55V372.05Z" fill="black"/>
<path d="M581.25 372.05H569.55V383.75H581.25V372.05Z" fill="black"/>
<path d="M592.95 372.05H581.25V383.75H592.95V372.05Z" fill="black"/>
<path d="M604.65 372.05H592.95V383.75H604.65V372.05Z" fill="black"/>
<path d="M651.45 372.05H639.75V383.75H651.45V372.05Z" fill="black"/>
<path d="M721.65 372.05H709.95V383.75H721.65V372.05Z" fill="black"/>
<path d="M394.05 383.75H382.35V395.45H394.05V383.75Z" fill="black"/>
<path d="M417.45 383.75H405.75V395.45H417.45V383.75Z" fill="black"/>
<path d="M429.15 383.75H417.45V395.45H429.15V383.75Z" fill="black"/>
<path d="M440.85 383.75H429.15V395.45H440.85V383.75Z" fill="black"/>
<path d="M464.25 383.75H452.55V395.45H464.25V383.75Z" fill="black"/>
<path d="M534.45 383.75H522.75V395.45H534.45V383.75Z" fill="black"/>
<path d="M569.55 383.75H557.85V395.45H569.55V383.75Z" fill="black"/>
<path d="M604.65 383.75H592.95V395.45H604.65V383.75Z" fill="black"/>
<path d="M628.05 383.75H616.35V395.45H628.05V383.75Z" fill="black"/>
<path d="M651.45 383.75H639.75V395.45H651.45V383.75Z" fill="black"/>
<path d="M674.85 383.75H663.15V395.45H674.85V383.75Z" fill="black"/>
<path d="M686.55 383.75H674.85V395.45H686.55V383.75Z" fill="black"/>
<path d="M698.25 383.75H686.55V395.45H698.25V383.75Z" fill="black"/>
<path d="M721.65 383.75H709.95V395.45H721.65V383.75Z" fill="black"/>
<path d="M394.05 395.45H382.35V407.15H394.05V395.45Z" fill="black"/>
<path d="M417.45 395.45H405.75V407.15H417.45V395.45Z" fill="black"/>
<path d="M429.15 395.45H417.45V407.15H429.15V395.45Z" fill="black"/>
<path d="M440.85 395.45H429.15V407.15H440.85V395.45Z" fill="black"/>
<path d="M464.25 395.45H452.55V407.15H464.25V395.45Z" fill="black"/>
<path d="M487.65 395.45H475.95V407.15H487.65V395.45Z" fill="black"/>
<path d="M499.35 395.45H487.65V407.15H499.35V395.45Z" fill="black"/>
<path d="M511.05 395.45H499.35V407.15H511.05V395.45Z" fill="black"/>
<path d="M534.45 395.45H522.75V407.15H534.45V395.45Z" fill="black"/>
<path d="M546.15 395.45H534.45V407.15H546.15V395.45Z" fill="black"/>
<path d="M557.85 395.45H546.15V407.15H557.85V395.45Z" fill="black"/>
<path d="M569.55 395.45H557.85V407.15H569.55V395.45Z" fill="black"/>
<path d="M592.95 395.45H581.25V407.15H592.95V395.45Z" fill="black"/>
<path d="M628.05 395.45H616.35V407.15H628.05V395.45Z" fill="black"/>
<path d="M651.45 395.45H639.75V407.15H651.45V395.45Z" fill="black"/>
<path d="M674.85 395.45H663.15V407.15H674.85V395.45Z" fill="black"/>
<path d="M686.55 395.45H674.85V407.15H686.55V395.45Z" fill="black"/>
<path d="M698.25 395.45H686.55V407.15H698.25V395.45Z" fill="black"/>
<path d="M721.65 395.45H709.95V407.15H721.65V395.45Z" fill="black"/>
<path d="M394.05 407.15H382.35V418.85H394.05V407.15Z" fill="black"/>
<path d="M417.45 407.15H405.75V418.85H417.45V407.15Z" fill="black"/>
<path d="M429.15 407.15H417.45V418.85H429.15V407.15Z" fill="black"/>
<path d="M440.85 407.15H429.15V418.85H440.85V407.15Z" fill="black"/>
<path d="M464.25 407.15H452.55V418.85H464.25V407.15Z" fill="black"/>
<path d="M499.35 407.15H487.65V418.85H499.35V407.15Z" fill="black"/>
<path d="M557.85 407.15H546.15V418.85H557.85V407.15Z" fill="black"/>
<path d="M581.25 407.15H569.55V418.85H581.25V407.15Z" fill="black"/>
<path d="M604.65 407.15H592.95V418.85H604.65V407.15Z" fill="black"/>
<path d="M616.35 407.15H604.65V418.85H616.35V407.15Z" fill="black"/>
<path d="M628.05 407.15H616.35V418.85H628.05V407.15Z" fill="black"/>
<path d="M651.45 407.15H639.75V418.85H651.45V407.15Z" fill="black"/>
<path d="M674.85 407.15H663.15V418.85H674.85V407.15Z" fill="black"/>
<path d="M686.55 407.15H674.85V418.85H686.55V407.15Z" fill="black"/>
<path d="M698.25 407.15H686.55V418.85H698.25V407.15Z" fill="black"/>
<path d="M721.65 407.15H709.95V418.85H721.65V407.15Z" fill="black"/>
<path d="M394.05 418.85H382.35V430.55H394.05V418.85Z" fill="black"/>
<path d="M464.25 418.85H452.55V430.55H464.25V418.85Z" fill="black"/>
<path d="M487.65 418.85H475.95V430.55H487.65V418.85Z" fill="black"/>
<path d="M499.35 418.85H487.65V430.55H499.35V418.85Z" fill="black"/>
<path d="M522.75 418.85H511.05V430.55H522.75V418.85Z" fill="black"/>
<path d="M534.45 418.85H522.75V430.55H534.45V418.85Z" fill="black"/>
<path d="M557.85 418.85H546.15V430.55H557.85V418.85Z" fill="black"/>
<path d="M569.55 418.85H557.85V430.55H569.55V418.85Z" fill="black"/>
<path d="M581.25 418.85H569.55V430.55H581.25V418.85Z" fill="black"/>
<path d="M604.65 418.85H592.95V430.55H604.65V418.85Z" fill="black"/>
<path d="M628.05 418.85H616.35V430.55H628.05V418.85Z" fill="black"/>
<path d="M651.45 418.85H639.75V430.55H651.45V418.85Z" fill="black"/>
<path d="M721.65 418.85H709.95V430.55H721.65V418.85Z" fill="black"/>
<path d="M394.05 430.55H382.35V442.25H394.05V430.55Z" fill="black"/>
<path d="M405.75 430.55H394.05V442.25H405.75V430.55Z" fill="black"/>
<path d="M417.45 430.55H405.75V442.25H417.45V430.55Z" fill="black"/>
<path d="M429.15 430.55H417.45V442.25H429.15V430.55Z" fill="black"/>
<path d="M440.85 430.55H429.15V442.25H440.85V430.55Z" fill="black"/>
<path d="M452.55 430.55H440.85V442.25H452.55V430.55Z" fill="black"/>
<path d="M464.25 430.55H452.55V442.25H464.25V430.55Z" fill="black"/>
<path d="M487.65 430.55H475.95V442.25H487.65V430.55Z" fill="black"/>
<path d="M511.05 430.55H499.35V442.25H511.05V430.55Z" fill="black"/>
<path d="M534.45 430.55H522.75V442.25H534.45V430.55Z" fill="black"/>
<path d="M557.85 430.55H546.15V442.25H557.85V430.55Z" fill="black"/>
<path d="M581.25 430.55H569.55V442.25H581.25V430.55Z" fill="black"/>
<path d="M604.65 430.55H592.95V442.25H604.65V430.55Z" fill="black"/>
<path d="M628.05 430.55H616.35V442.25H628.05V430.55Z" fill="black"/>
<path d="M651.45 430.55H639.75V442.25H651.45V430.55Z" fill="black"/>
<path d="M663.15 430.55H651.45V442.25H663.15V430.55Z" fill="black"/>
<path d="M674.85 430.55H663.15V442.25H674.85V430.55Z" fill="black"/>
<path d="M686.55 430.55H674.85V442.25H686.55V430.55Z" fill="black"/>
<path d="M698.25 430.55H686.55V442.25H698.25V430.55Z" fill="black"/>
<path d="M709.95 430.55H698.25V442.25H709.95V430.55Z" fill="black"/>
<path d="M721.65 430.55H709.95V442.25H721.65V430.55Z" fill="black"/>
<path d="M499.35 442.25H487.65V453.95H499.35V442.25Z" fill="black"/>
<path d="M511.05 442.25H499.35V453.95H511.05V442.25Z" fill="black"/>
<path d="M522.75 442.25H511.05V453.95H522.75V442.25Z" fill="black"/>
<path d="M616.35 442.25H604.65V453.95H616.35V442.25Z" fill="black"/>
<path d="M394.05 453.95H382.35V465.65H394.05V453.95Z" fill="black"/>
<path d="M405.75 453.95H394.05V465.65H405.75V453.95Z" fill="black"/>
<path d="M417.45 453.95H405.75V465.65H417.45V453.95Z" fill="black"/>
<path d="M429.15 453.95H417.45V465.65H429.15V453.95Z" fill="black"/>
<path d="M440.85 453.95H429.15V465.65H440.85V453.95Z" fill="black"/>
<path d="M464.25 453.95H452.55V465.65H464.25V453.95Z" fill="black"/>
<path d="M475.95 453.95H464.25V465.65H475.95V453.95Z" fill="black"/>
<path d="M487.65 453.95H475.95V465.65H487.65V453.95Z" fill="black"/>
<path d="M499.35 453.95H487.65V465.65H499.35V453.95Z" fill="black"/>
<path d="M522.75 453.95H511.05V465.65H522.75V453.95Z" fill="black"/>
<path d="M546.15 453.95H534.45V465.65H546.15V453.95Z" fill="black"/>
<path d="M592.95 453.95H581.25V465.65H592.95V453.95Z" fill="black"/>
<path d="M628.05 453.95H616.35V465.65H628.05V453.95Z" fill="black"/>
<path d="M639.75 453.95H628.05V465.65H639.75V453.95Z" fill="black"/>
<path d="M663.15 453.95H651.45V465.65H663.15V453.95Z" fill="black"/>
<path d="M686.55 453.95H674.85V465.65H686.55V453.95Z" fill="black"/>
<path d="M709.95 453.95H698.25V465.65H709.95V453.95Z" fill="black"/>
<path d="M405.75 465.65H394.05V477.35H405.75V465.65Z" fill="black"/>
<path d="M429.15 465.65H417.45V477.35H429.15V465.65Z" fill="black"/>
<path d="M487.65 465.65H475.95V477.35H487.65V465.65Z" fill="black"/>
<path d="M511.05 465.65H499.35V477.35H511.05V465.65Z" fill="black"/>
<path d="M534.45 465.65H522.75V477.35H534.45V465.65Z" fill="black"/>
<path d="M546.15 465.65H534.45V477.35H546.15V465.65Z" fill="black"/>
<path d="M581.25 465.65H569.55V477.35H581.25V465.65Z" fill="black"/>
<path d="M616.35 465.65H604.65V477.35H616.35V465.65Z" fill="black"/>
<path d="M628.05 465.65H616.35V477.35H628.05V465.65Z" fill="black"/>
<path d="M639.75 465.65H628.05V477.35H639.75V465.65Z" fill="black"/>
<path d="M651.45 465.65H639.75V477.35H651.45V465.65Z" fill="black"/>
<path d="M663.15 465.65H651.45V477.35H663.15V465.65Z" fill="black"/>
<path d="M674.85 465.65H663.15V477.35H674.85V465.65Z" fill="black"/>
<path d="M721.65 465.65H709.95V477.35H721.65V465.65Z" fill="black"/>
<path d="M394.05 477.35H382.35V489.05H394.05V477.35Z" fill="black"/>
<path d="M440.85 477.35H429.15V489.05H440.85V477.35Z" fill="black"/>
<path d="M452.55 477.35H440.85V489.05H452.55V477.35Z" fill="black"/>
<path d="M464.25 477.35H452.55V489.05H464.25V477.35Z" fill="black"/>
<path d="M475.95 477.35H464.25V489.05H475.95V477.35Z" fill="black"/>
<path d="M487.65 477.35H475.95V489.05H487.65V477.35Z" fill="black"/>
<path d="M511.05 477.35H499.35V489.05H511.05V477.35Z" fill="black"/>
<path d="M557.85 477.35H546.15V489.05H557.85V477.35Z" fill="black"/>
<path d="M569.55 477.35H557.85V489.05H569.55V477.35Z" fill="black"/>
<path d="M604.65 477.35H592.95V489.05H604.65V477.35Z" fill="black"/>
<path d="M663.15 477.35H651.45V489.05H663.15V477.35Z" fill="black"/>
<path d="M674.85 477.35H663.15V489.05H674.85V477.35Z" fill="black"/>
<path d="M394.05 489.05H382.35V500.75H394.05V489.05Z" fill="black"/>
<path d="M405.75 489.05H394.05V500.75H405.75V489.05Z" fill="black"/>
<path d="M429.15 489.05H417.45V500.75H429.15V489.05Z" fill="black"/>
<path d="M440.85 489.05H429.15V500.75H440.85V489.05Z" fill="black"/>
<path d="M487.65 489.05H475.95V500.75H487.65V489.05Z" fill="black"/>
<path d="M534.45 489.05H522.75V500.75H534.45V489.05Z" fill="black"/>
<path d="M557.85 489.05H546.15V500.75H557.85V489.05Z" fill="black"/>
<path d="M569.55 489.05H557.85V500.75H569.55V489.05Z" fill="black"/>
<path d="M581.25 489.05H569.55V500.75H581.25V489.05Z" fill="black"/>
<path d="M604.65 489.05H592.95V500.75H604.65V489.05Z" fill="black"/>
<path d="M628.05 489.05H616.35V500.75H628.05V489.05Z" fill="black"/>
<path d="M663.15 489.05H651.45V500.75H663.15V489.05Z" fill="black"/>
<path d="M686.55 489.05H674.85V500.75H686.55V489.05Z" fill="black"/>
<path d="M709.95 489.05H698.25V500.75H709.95V489.05Z" fill="black"/>
<path d="M394.05 500.75H382.35V512.45H394.05V500.75Z" fill="black"/>
<path d="M405.75 500.75H394.05V512.45H405.75V500.75Z" fill="black"/>
<path d="M417.45 500.75H405.75V512.45H417.45V500.75Z" fill="black"/>
<path d="M429.15 500.75H417.45V512.45H429.15V500.75Z" fill="black"/>
<path d="M452.55 500.75H440.85V512.45H452.55V500.75Z" fill="black"/>
<path d="M464.25 500.75H452.55V512.45H464.25V500.75Z" fill="black"/>
<path d="M475.95 500.75H464.25V512.45H475.95V500.75Z" fill="black"/>
<path d="M487.65 500.75H475.95V512.45H487.65V500.75Z" fill="black"/>
<path d="M499.35 500.75H487.65V512.45H499.35V500.75Z" fill="black"/>
<path d="M511.05 500.75H499.35V512.45H511.05V500.75Z" fill="black"/>
<path d="M534.45 500.75H522.75V512.45H534.45V500.75Z" fill="black"/>
<path d="M546.15 500.75H534.45V512.45H546.15V500.75Z" fill="black"/>
<path d="M557.85 500.75H546.15V512.45H557.85V500.75Z" fill="black"/>
<path d="M569.55 500.75H557.85V512.45H569.55V500.75Z" fill="black"/>
<path d="M581.25 500.75H569.55V512.45H581.25V500.75Z" fill="black"/>
<path d="M592.95 500.75H581.25V512.45H592.95V500.75Z" fill="black"/>
<path d="M604.65 500.75H592.95V512.45H604.65V500.75Z" fill="black"/>
<path d="M616.35 500.75H604.65V512.45H616.35V500.75Z" fill="black"/>
<path d="M686.55 500.75H674.85V512.45H686.55V500.75Z" fill="black"/>
<path d="M698.25 500.75H686.55V512.45H698.25V500.75Z" fill="black"/>
<path d="M405.75 512.45H394.05V524.15H405.75V512.45Z" fill="black"/>
<path d="M417.45 512.45H405.75V524.15H417.45V512.45Z" fill="black"/>
<path d="M429.15 512.45H417.45V524.15H429.15V512.45Z" fill="black"/>
<path d="M440.85 512.45H429.15V524.15H440.85V512.45Z" fill="black"/>
<path d="M475.95 512.45H464.25V524.15H475.95V512.45Z" fill="black"/>
<path d="M487.65 512.45H475.95V524.15H487.65V512.45Z" fill="black"/>
<path d="M499.35 512.45H487.65V524.15H499.35V512.45Z" fill="black"/>
<path d="M581.25 512.45H569.55V524.15H581.25V512.45Z" fill="black"/>
<path d="M592.95 512.45H581.25V524.15H592.95V512.45Z" fill="black"/>
<path d="M604.65 512.45H592.95V524.15H604.65V512.45Z" fill="black"/>
<path d="M616.35 512.45H604.65V524.15H616.35V512.45Z" fill="black"/>
<path d="M628.05 512.45H616.35V524.15H628.05V512.45Z" fill="black"/>
<path d="M651.45 512.45H639.75V524.15H651.45V512.45Z" fill="black"/>
<path d="M663.15 512.45H651.45V524.15H663.15V512.45Z" fill="black"/>
<path d="M674.85 512.45H663.15V524.15H674.85V512.45Z" fill="black"/>
<path d="M721.65 512.45H709.95V524.15H721.65V512.45Z" fill="black"/>
<path d="M394.05 524.15H382.35V535.85H394.05V524.15Z" fill="black"/>
<path d="M417.45 524.15H405.75V535.85H417.45V524.15Z" fill="black"/>
<path d="M464.25 524.15H452.55V535.85H464.25V524.15Z" fill="black"/>
<path d="M475.95 524.15H464.25V535.85H475.95V524.15Z" fill="black"/>
<path d="M487.65 524.15H475.95V535.85H487.65V524.15Z" fill="black"/>
<path d="M499.35 524.15H487.65V535.85H499.35V524.15Z" fill="black"/>
<path d="M522.75 524.15H511.05V535.85H522.75V524.15Z" fill="black"/>
<path d="M534.45 524.15H522.75V535.85H534.45V524.15Z" fill="black"/>
<path d="M569.55 524.15H557.85V535.85H569.55V524.15Z" fill="black"/>
<path d="M581.25 524.15H569.55V535.85H581.25V524.15Z" fill="black"/>
<path d="M592.95 524.15H581.25V535.85H592.95V524.15Z" fill="black"/>
<path d="M628.05 524.15H616.35V535.85H628.05V524.15Z" fill="black"/>
<path d="M639.75 524.15H628.05V535.85H639.75V524.15Z" fill="black"/>
<path d="M663.15 524.15H651.45V535.85H663.15V524.15Z" fill="black"/>
<path d="M674.85 524.15H663.15V535.85H674.85V524.15Z" fill="black"/>
<path d="M686.55 524.15H674.85V535.85H686.55V524.15Z" fill="black"/>
<path d="M698.25 524.15H686.55V535.85H698.25V524.15Z" fill="black"/>
<path d="M417.45 535.85H405.75V547.55H417.45V535.85Z" fill="black"/>
<path d="M429.15 535.85H417.45V547.55H429.15V535.85Z" fill="black"/>
<path d="M440.85 535.85H429.15V547.55H440.85V535.85Z" fill="black"/>
<path d="M499.35 535.85H487.65V547.55H499.35V535.85Z" fill="black"/>
<path d="M522.75 535.85H511.05V547.55H522.75V535.85Z" fill="black"/>
<path d="M557.85 535.85H546.15V547.55H557.85V535.85Z" fill="black"/>
<path d="M604.65 535.85H592.95V547.55H604.65V535.85Z" fill="black"/>
<path d="M628.05 535.85H616.35V547.55H628.05V535.85Z" fill="black"/>
<path d="M651.45 535.85H639.75V547.55H651.45V535.85Z" fill="black"/>
<path d="M663.15 535.85H651.45V547.55H663.15V535.85Z" fill="black"/>
<path d="M674.85 535.85H663.15V547.55H674.85V535.85Z" fill="black"/>
<path d="M709.95 535.85H698.25V547.55H709.95V535.85Z" fill="black"/>
<path d="M394.05 547.55H382.35V559.25H394.05V547.55Z" fill="black"/>
<path d="M452.55 547.55H440.85V559.25H452.55V547.55Z" fill="black"/>
<path d="M464.25 547.55H452.55V559.25H464.25V547.55Z" fill="black"/>
<path d="M522.75 547.55H511.05V559.25H522.75V547.55Z" fill="black"/>
<path d="M546.15 547.55H534.45V559.25H546.15V547.55Z" fill="black"/>
<path d="M557.85 547.55H546.15V559.25H557.85V547.55Z" fill="black"/>
<path d="M569.55 547.55H557.85V559.25H569.55V547.55Z" fill="black"/>
<path d="M581.25 547.55H569.55V559.25H581.25V547.55Z" fill="black"/>
<path d="M592.95 547.55H581.25V559.25H592.95V547.55Z" fill="black"/>
<path d="M639.75 547.55H628.05V559.25H639.75V547.55Z" fill="black"/>
<path d="M686.55 547.55H674.85V559.25H686.55V547.55Z" fill="black"/>
<path d="M698.25 547.55H686.55V559.25H698.25V547.55Z" fill="black"/>
<path d="M394.05 559.25H382.35V570.95H394.05V559.25Z" fill="black"/>
<path d="M405.75 559.25H394.05V570.95H405.75V559.25Z" fill="black"/>
<path d="M417.45 559.25H405.75V570.95H417.45V559.25Z" fill="black"/>
<path d="M452.55 559.25H440.85V570.95H452.55V559.25Z" fill="black"/>
<path d="M475.95 559.25H464.25V570.95H475.95V559.25Z" fill="black"/>
<path d="M499.35 559.25H487.65V570.95H499.35V559.25Z" fill="black"/>
<path d="M511.05 559.25H499.35V570.95H511.05V559.25Z" fill="black"/>
<path d="M534.45 559.25H522.75V570.95H534.45V559.25Z" fill="black"/>
<path d="M557.85 559.25H546.15V570.95H557.85V559.25Z" fill="black"/>
<path d="M581.25 559.25H569.55V570.95H581.25V559.25Z" fill="black"/>
<path d="M604.65 559.25H592.95V570.95H604.65V559.25Z" fill="black"/>
<path d="M616.35 559.25H604.65V570.95H616.35V559.25Z" fill="black"/>
<path d="M628.05 559.25H616.35V570.95H628.05V559.25Z" fill="black"/>
<path d="M639.75 559.25H628.05V570.95H639.75V559.25Z" fill="black"/>
<path d="M651.45 559.25H639.75V570.95H651.45V559.25Z" fill="black"/>
<path d="M663.15 559.25H651.45V570.95H663.15V559.25Z" fill="black"/>
<path d="M674.85 559.25H663.15V570.95H674.85V559.25Z" fill="black"/>
<path d="M698.25 559.25H686.55V570.95H698.25V559.25Z" fill="black"/>
<path d="M721.65 559.25H709.95V570.95H721.65V559.25Z" fill="black"/>
<path d="M394.05 570.95H382.35V582.65H394.05V570.95Z" fill="black"/>
<path d="M417.45 570.95H405.75V582.65H417.45V570.95Z" fill="black"/>
<path d="M440.85 570.95H429.15V582.65H440.85V570.95Z" fill="black"/>
<path d="M464.25 570.95H452.55V582.65H464.25V570.95Z" fill="black"/>
<path d="M475.95 570.95H464.25V582.65H475.95V570.95Z" fill="black"/>
<path d="M487.65 570.95H475.95V582.65H487.65V570.95Z" fill="black"/>
<path d="M499.35 570.95H487.65V582.65H499.35V570.95Z" fill="black"/>
<path d="M511.05 570.95H499.35V582.65H511.05V570.95Z" fill="black"/>
<path d="M569.55 570.95H557.85V582.65H569.55V570.95Z" fill="black"/>
<path d="M581.25 570.95H569.55V582.65H581.25V570.95Z" fill="black"/>
<path d="M592.95 570.95H581.25V582.65H592.95V570.95Z" fill="black"/>
<path d="M604.65 570.95H592.95V582.65H604.65V570.95Z" fill="black"/>
<path d="M651.45 570.95H639.75V582.65H651.45V570.95Z" fill="black"/>
<path d="M674.85 570.95H663.15V582.65H674.85V570.95Z" fill="black"/>
<path d="M698.25 570.95H686.55V582.65H698.25V570.95Z" fill="black"/>
<path d="M394.05 582.65H382.35V594.35H394.05V582.65Z" fill="black"/>
<path d="M417.45 582.65H405.75V594.35H417.45V582.65Z" fill="black"/>
<path d="M429.15 582.65H417.45V594.35H429.15V582.65Z" fill="black"/>
<path d="M475.95 582.65H464.25V594.35H475.95V582.65Z" fill="black"/>
<path d="M487.65 582.65H475.95V594.35H487.65V582.65Z" fill="black"/>
<path d="M511.05 582.65H499.35V594.35H511.05V582.65Z" fill="black"/>
<path d="M534.45 582.65H522.75V594.35H534.45V582.65Z" fill="black"/>
<path d="M569.55 582.65H557.85V594.35H569.55V582.65Z" fill="black"/>
<path d="M639.75 582.65H628.05V594.35H639.75V582.65Z" fill="black"/>
<path d="M651.45 582.65H639.75V594.35H651.45V582.65Z" fill="black"/>
<path d="M709.95 582.65H698.25V594.35H709.95V582.65Z" fill="black"/>
<path d="M394.05 594.35H382.35V606.05H394.05V594.35Z" fill="black"/>
<path d="M429.15 594.35H417.45V606.05H429.15V594.35Z" fill="black"/>
<path d="M440.85 594.35H429.15V606.05H440.85V594.35Z" fill="black"/>
<path d="M452.55 594.35H440.85V606.05H452.55V594.35Z" fill="black"/>
<path d="M464.25 594.35H452.55V606.05H464.25V594.35Z" fill="black"/>
<path d="M487.65 594.35H475.95V606.05H487.65V594.35Z" fill="black"/>
<path d="M534.45 594.35H522.75V606.05H534.45V594.35Z" fill="black"/>
<path d="M546.15 594.35H534.45V606.05H546.15V594.35Z" fill="black"/>
<path d="M557.85 594.35H546.15V606.05H557.85V594.35Z" fill="black"/>
<path d="M569.55 594.35H557.85V606.05H569.55V594.35Z" fill="black"/>
<path d="M592.95 594.35H581.25V606.05H592.95V594.35Z" fill="black"/>
<path d="M616.35 594.35H604.65V606.05H616.35V594.35Z" fill="black"/>
<path d="M628.05 594.35H616.35V606.05H628.05V594.35Z" fill="black"/>
<path d="M639.75 594.35H628.05V606.05H639.75V594.35Z" fill="black"/>
<path d="M651.45 594.35H639.75V606.05H651.45V594.35Z" fill="black"/>
<path d="M663.15 594.35H651.45V606.05H663.15V594.35Z" fill="black"/>
<path d="M674.85 594.35H663.15V606.05H674.85V594.35Z" fill="black"/>
<path d="M698.25 594.35H686.55V606.05H698.25V594.35Z" fill="black"/>
<path d="M709.95 594.35H698.25V606.05H709.95V594.35Z" fill="black"/>
<path d="M721.65 594.35H709.95V606.05H721.65V594.35Z" fill="black"/>
<path d="M487.65 606.05H475.95V617.75H487.65V606.05Z" fill="black"/>
<path d="M557.85 606.05H546.15V617.75H557.85V606.05Z" fill="black"/>
<path d="M581.25 606.05H569.55V617.75H581.25V606.05Z" fill="black"/>
<path d="M592.95 606.05H581.25V617.75H592.95V606.05Z" fill="black"/>
<path d="M604.65 606.05H592.95V617.75H604.65V606.05Z" fill="black"/>
<path d="M616.35 606.05H604.65V617.75H616.35V606.05Z" fill="black"/>
<path d="M628.05 606.05H616.35V617.75H628.05V606.05Z" fill="black"/>
<path d="M674.85 606.05H663.15V617.75H674.85V606.05Z" fill="black"/>
<path d="M686.55 606.05H674.85V617.75H686.55V606.05Z" fill="black"/>
<path d="M698.25 606.05H686.55V617.75H698.25V606.05Z" fill="black"/>
<path d="M709.95 606.05H698.25V617.75H709.95V606.05Z" fill="black"/>
<path d="M721.65 606.05H709.95V617.75H721.65V606.05Z" fill="black"/>
<path d="M394.05 617.75H382.35V629.45H394.05V617.75Z" fill="black"/>
<path d="M405.75 617.75H394.05V629.45H405.75V617.75Z" fill="black"/>
<path d="M417.45 617.75H405.75V629.45H417.45V617.75Z" fill="black"/>
<path d="M429.15 617.75H417.45V629.45H429.15V617.75Z" fill="black"/>
<path d="M440.85 617.75H429.15V629.45H440.85V617.75Z" fill="black"/>
<path d="M452.55 617.75H440.85V629.45H452.55V617.75Z" fill="black"/>
<path d="M464.25 617.75H452.55V629.45H464.25V617.75Z" fill="black"/>
<path d="M487.65 617.75H475.95V629.45H487.65V617.75Z" fill="black"/>
<path d="M522.75 617.75H511.05V629.45H522.75V617.75Z" fill="black"/>
<path d="M534.45 617.75H522.75V629.45H534.45V617.75Z" fill="black"/>
<path d="M569.55 617.75H557.85V629.45H569.55V617.75Z" fill="black"/>
<path d="M592.95 617.75H581.25V629.45H592.95V617.75Z" fill="black"/>
<path d="M616.35 617.75H604.65V629.45H616.35V617.75Z" fill="black"/>
<path d="M628.05 617.75H616.35V629.45H628.05V617.75Z" fill="black"/>
<path d="M651.45 617.75H639.75V629.45H651.45V617.75Z" fill="black"/>
<path d="M674.85 617.75H663.15V629.45H674.85V617.75Z" fill="black"/>
<path d="M686.55 617.75H674.85V629.45H686.55V617.75Z" fill="black"/>
<path d="M698.25 617.75H686.55V629.45H698.25V617.75Z" fill="black"/>
<path d="M394.05 629.45H382.35V641.15H394.05V629.45Z" fill="black"/>
<path d="M464.25 629.45H452.55V641.15H464.25V629.45Z" fill="black"/>
<path d="M499.35 629.45H487.65V641.15H499.35V629.45Z" fill="black"/>
<path d="M522.75 629.45H511.05V641.15H522.75V629.45Z" fill="black"/>
<path d="M581.25 629.45H569.55V641.15H581.25V629.45Z" fill="black"/>
<path d="M616.35 629.45H604.65V641.15H616.35V629.45Z" fill="black"/>
<path d="M628.05 629.45H616.35V641.15H628.05V629.45Z" fill="black"/>
<path d="M674.85 629.45H663.15V641.15H674.85V629.45Z" fill="black"/>
<path d="M709.95 629.45H698.25V641.15H709.95V629.45Z" fill="black"/>
<path d="M721.65 629.45H709.95V641.15H721.65V629.45Z" fill="black"/>
<path d="M394.05 641.15H382.35V652.85H394.05V641.15Z" fill="black"/>
<path d="M417.45 641.15H405.75V652.85H417.45V641.15Z" fill="black"/>
<path d="M429.15 641.15H417.45V652.85H429.15V641.15Z" fill="black"/>
<path d="M440.85 641.15H429.15V652.85H440.85V641.15Z" fill="black"/>
<path d="M464.25 641.15H452.55V652.85H464.25V641.15Z" fill="black"/>
<path d="M487.65 641.15H475.95V652.85H487.65V641.15Z" fill="black"/>
<path d="M499.35 641.15H487.65V652.85H499.35V641.15Z" fill="black"/>
<path d="M522.75 641.15H511.05V652.85H522.75V641.15Z" fill="black"/>
<path d="M569.55 641.15H557.85V652.85H569.55V641.15Z" fill="black"/>
<path d="M592.95 641.15H581.25V652.85H592.95V641.15Z" fill="black"/>
<path d="M628.05 641.15H616.35V652.85H628.05V641.15Z" fill="black"/>
<path d="M639.75 641.15H628.05V652.85H639.75V641.15Z" fill="black"/>
<path d="M651.45 641.15H639.75V652.85H651.45V641.15Z" fill="black"/>
<path d="M663.15 641.15H651.45V652.85H663.15V641.15Z" fill="black"/>
<path d="M674.85 641.15H663.15V652.85H674.85V641.15Z" fill="black"/>
<path d="M698.25 641.15H686.55V652.85H698.25V641.15Z" fill="black"/>
<path d="M709.95 641.15H698.25V652.85H709.95V641.15Z" fill="black"/>
<path d="M721.65 641.15H709.95V652.85H721.65V641.15Z" fill="black"/>
<path d="M394.05 652.85H382.35V664.55H394.05V652.85Z" fill="black"/>
<path d="M417.45 652.85H405.75V664.55H417.45V652.85Z" fill="black"/>
<path d="M429.15 652.85H417.45V664.55H429.15V652.85Z" fill="black"/>
<path d="M440.85 652.85H429.15V664.55H440.85V652.85Z" fill="black"/>
<path d="M464.25 652.85H452.55V664.55H464.25V652.85Z" fill="black"/>
<path d="M487.65 652.85H475.95V664.55H487.65V652.85Z" fill="black"/>
<path d="M534.45 652.85H522.75V664.55H534.45V652.85Z" fill="black"/>
<path d="M546.15 652.85H534.45V664.55H546.15V652.85Z" fill="black"/>
<path d="M581.25 652.85H569.55V664.55H581.25V652.85Z" fill="black"/>
<path d="M592.95 652.85H581.25V664.55H592.95V652.85Z" fill="black"/>
<path d="M604.65 652.85H592.95V664.55H604.65V652.85Z" fill="black"/>
<path d="M616.35 652.85H604.65V664.55H616.35V652.85Z" fill="black"/>
<path d="M686.55 652.85H674.85V664.55H686.55V652.85Z" fill="black"/>
<path d="M698.25 652.85H686.55V664.55H698.25V652.85Z" fill="black"/>
<path d="M709.95 652.85H698.25V664.55H709.95V652.85Z" fill="black"/>
<path d="M721.65 652.85H709.95V664.55H721.65V652.85Z" fill="black"/>
<path d="M394.05 664.55H382.35V676.25H394.05V664.55Z" fill="black"/>
<path d="M417.45 664.55H405.75V676.25H417.45V664.55Z" fill="black"/>
<path d="M429.15 664.55H417.45V676.25H429.15V664.55Z" fill="black"/>
<path d="M440.85 664.55H429.15V676.25H440.85V664.55Z" fill="black"/>
<path d="M464.25 664.55H452.55V676.25H464.25V664.55Z" fill="black"/>
<path d="M487.65 664.55H475.95V676.25H487.65V664.55Z" fill="black"/>
<path d="M511.05 664.55H499.35V676.25H511.05V664.55Z" fill="black"/>
<path d="M546.15 664.55H534.45V676.25H546.15V664.55Z" fill="black"/>
<path d="M557.85 664.55H546.15V676.25H557.85V664.55Z" fill="black"/>
<path d="M569.55 664.55H557.85V676.25H569.55V664.55Z" fill="black"/>
<path d="M581.25 664.55H569.55V676.25H581.25V664.55Z" fill="black"/>
<path d="M628.05 664.55H616.35V676.25H628.05V664.55Z" fill="black"/>
<path d="M651.45 664.55H639.75V676.25H651.45V664.55Z" fill="black"/>
<path d="M663.15 664.55H651.45V676.25H663.15V664.55Z" fill="black"/>
<path d="M674.85 664.55H663.15V676.25H674.85V664.55Z" fill="black"/>
<path d="M686.55 664.55H674.85V676.25H686.55V664.55Z" fill="black"/>
<path d="M698.25 664.55H686.55V676.25H698.25V664.55Z" fill="black"/>
<path d="M709.95 664.55H698.25V676.25H709.95V664.55Z" fill="black"/>
<path d="M394.05 676.25H382.35V687.95H394.05V676.25Z" fill="black"/>
<path d="M464.25 676.25H452.55V687.95H464.25V676.25Z" fill="black"/>
<path d="M487.65 676.25H475.95V687.95H487.65V676.25Z" fill="black"/>
<path d="M534.45 676.25H522.75V687.95H534.45V676.25Z" fill="black"/>
<path d="M546.15 676.25H534.45V687.95H546.15V676.25Z" fill="black"/>
<path d="M581.25 676.25H569.55V687.95H581.25V676.25Z" fill="black"/>
<path d="M628.05 676.25H616.35V687.95H628.05V676.25Z" fill="black"/>
<path d="M639.75 676.25H628.05V687.95H639.75V676.25Z" fill="black"/>
<path d="M674.85 676.25H663.15V687.95H674.85V676.25Z" fill="black"/>
<path d="M686.55 676.25H674.85V687.95H686.55V676.25Z" fill="black"/>
<path d="M709.95 676.25H698.25V687.95H709.95V676.25Z" fill="black"/>
<path d="M394.05 687.95H382.35V699.65H394.05V687.95Z" fill="black"/>
<path d="M405.75 687.95H394.05V699.65H405.75V687.95Z" fill="black"/>
<path d="M417.45 687.95H405.75V699.65H417.45V687.95Z" fill="black"/>
<path d="M429.15 687.95H417.45V699.65H429.15V687.95Z" fill="black"/>
<path d="M440.85 687.95H429.15V699.65H440.85V687.95Z" fill="black"/>
<path d="M452.55 687.95H440.85V699.65H452.55V687.95Z" fill="black"/>
<path d="M464.25 687.95H452.55V699.65H464.25V687.95Z" fill="black"/>
<path d="M487.65 687.95H475.95V699.65H487.65V687.95Z" fill="black"/>
<path d="M499.35 687.95H487.65V699.65H499.35V687.95Z" fill="black"/>
<path d="M534.45 687.95H522.75V699.65H534.45V687.95Z" fill="black"/>
<path d="M557.85 687.95H546.15V699.65H557.85V687.95Z" fill="black"/>
<path d="M592.95 687.95H581.25V699.65H592.95V687.95Z" fill="black"/>
<path d="M604.65 687.95H592.95V699.65H604.65V687.95Z" fill="black"/>
<path d="M616.35 687.95H604.65V699.65H616.35V687.95Z" fill="black"/>
<path d="M639.75 687.95H628.05V699.65H639.75V687.95Z" fill="black"/>
<path d="M663.15 687.95H651.45V699.65H663.15V687.95Z" fill="black"/>
<path d="M674.85 687.95H663.15V699.65H674.85V687.95Z" fill="black"/>
<path d="M686.55 687.95H674.85V699.65H686.55V687.95Z" fill="black"/>
<path d="M698.25 687.95H686.55V699.65H698.25V687.95Z" fill="black"/>
<defs>
<linearGradient id="paint0_linear_709_1151" x1="392.708" y1="171.118" x2="715.274" y2="171.118" gradientUnits="userSpaceOnUse">
<stop stop-color="#37355E" stop-opacity="0.8"/>
<stop offset="1" stop-color="#D1D1E6"/>
</linearGradient>
<linearGradient id="paint1_linear_709_1151" x1="392.708" y1="228.041" x2="715.274" y2="228.041" gradientUnits="userSpaceOnUse">
<stop stop-color="#37355E" stop-opacity="0.8"/>
<stop offset="1" stop-color="#D1D1E6"/>
</linearGradient>
<linearGradient id="paint2_linear_709_1151" x1="392.708" y1="276.697" x2="715.274" y2="276.697" gradientUnits="userSpaceOnUse">
<stop stop-color="#37355E" stop-opacity="0.8"/>
<stop offset="1" stop-color="#D1D1E6"/>
</linearGradient>
<linearGradient id="paint3_linear_709_1151" x1="392.708" y1="886.366" x2="715.274" y2="886.366" gradientUnits="userSpaceOnUse">
<stop stop-color="#37355E" stop-opacity="0.8"/>
<stop offset="1" stop-color="#D1D1E6"/>
</linearGradient>
</defs>
</svg>
