<svg width="21" height="20" viewBox="0 0 21 20" fill="none" xmlns="http://www.w3.org/2000/svg">
<path d="M17.4425 12.2819C15.9425 10.5819 13.3425 10.4819 11.7425 11.9819C10.0425 13.4819 9.94251 16.0819 11.4425 17.6819C12.9425 19.3819 15.5425 19.4819 17.1425 17.9819C18.8425 16.4819 18.9425 13.8819 17.4425 12.2819Z" fill="#22272E"/>
<path d="M12.0425 2.88186L11.3425 2.08187C8.94247 -0.518128 4.94247 -0.718138 2.34247 1.68186C-0.257533 4.08186 -0.457497 8.08186 1.9425 10.6819L2.64245 11.4819C3.44245 12.3819 4.04247 13.4819 4.34247 14.6819C4.54247 15.5819 4.84245 16.6819 5.14245 17.6819C5.74245 19.8819 8.34248 20.6819 10.0425 19.1819L14.5425 15.0819L19.0425 10.9819C20.7425 9.48187 20.1425 6.68187 18.0425 5.98187C17.0425 5.58187 16.0425 5.28187 15.1425 4.98187C13.9425 4.38187 12.9425 3.78186 12.0425 2.88186Z" fill="#2A87DB"/>
</svg>
