<svg width="676" height="461" viewBox="0 0 676 461" fill="none" xmlns="http://www.w3.org/2000/svg">
<g opacity="0.9">
<path d="M591.842 402.082L71.8425 387.182C47.6425 386.482 27.7425 367.982 25.3425 343.882L0.24249 95.8818C-2.55751 67.7818 19.2425 43.2818 47.4425 42.8818L626.242 34.8818C655.442 34.4818 678.342 59.9818 674.742 88.9818L641.042 359.882C637.942 384.582 616.642 402.782 591.842 402.082Z" fill="#C9E5FF"/>
<mask id="mask0_359:1103" style="mask-type:alpha" maskUnits="userSpaceOnUse" x="0" y="34" width="676" height="369">
<path d="M591.842 402.082L71.8425 387.182C47.6425 386.482 27.7425 367.982 25.3425 343.882L0.24249 95.8818C-2.55751 67.7818 19.2425 43.2818 47.4425 42.8818L626.242 34.8818C655.442 34.4818 678.342 59.9818 674.742 88.9818L641.042 359.882C637.942 384.582 616.642 402.782 591.842 402.082Z" fill="#EAF9F3"/>
</mask>
<g mask="url(#mask0_359:1103)">
<path d="M516.943 469.382H932.443C940.743 469.382 947.443 462.682 947.443 454.382V218.782C947.443 210.482 940.743 203.782 932.443 203.782H516.943C508.643 203.782 501.943 210.482 501.943 218.782V454.382C501.943 462.682 508.743 469.382 516.943 469.382Z" stroke="#E0F0FF" stroke-width="1.8" stroke-miterlimit="10" stroke-linecap="round" stroke-linejoin="round"/>
<path d="M-32.1575 453.582H386.943C395.243 453.582 401.943 446.882 401.943 438.582V94.2818C401.943 85.9818 395.243 79.2819 386.943 79.2819H-32.1575C-40.4575 79.2819 -47.1575 85.9818 -47.1575 94.2818V438.582C-47.1575 446.882 -40.3575 453.582 -32.1575 453.582Z" stroke="#E0F0FF" stroke-width="1.8" stroke-miterlimit="10" stroke-linecap="round" stroke-linejoin="round"/>
<path d="M616.643 133.382H706.543V124.482H616.643C615.643 124.482 614.843 125.282 614.843 126.282V131.482C614.743 132.582 615.643 133.382 616.643 133.382Z" stroke="#E0F0FF" stroke-width="1.8" stroke-miterlimit="10" stroke-linecap="round" stroke-linejoin="round"/>
<path d="M632.943 124.482H653.243C655.443 124.482 657.243 122.882 657.543 120.682L659.142 106.282C659.442 103.782 657.443 101.482 654.843 101.482H631.343C628.743 101.482 626.843 103.682 627.043 106.282L628.642 120.682C628.842 122.882 630.743 124.482 632.943 124.482Z" stroke="#E0F0FF" stroke-width="1.8" stroke-miterlimit="10" stroke-linecap="round" stroke-linejoin="round"/>
<path d="M645.443 101.582C645.443 101.582 653.443 100.782 655.043 89.9819C655.043 89.9819 647.843 92.0819 645.543 97.1819C645.543 97.1819 644.543 85.7819 639.143 84.6819C639.143 84.6819 636.743 93.1819 640.543 97.3819C640.543 97.3819 637.643 92.5819 630.243 92.6819C630.243 92.6819 632.143 99.4819 639.443 101.482" fill="#E0F0FF"/>
<path d="M520.143 253.482H610.343C612.643 253.482 614.543 251.582 614.543 249.282V221.882C614.543 219.582 612.643 217.682 610.343 217.682H520.143C517.843 217.682 515.943 219.582 515.943 221.882V249.282C515.943 251.582 517.843 253.482 520.143 253.482Z" stroke="#E0F0FF" stroke-width="1.8" stroke-miterlimit="10" stroke-linecap="round" stroke-linejoin="round"/>
<path d="M554.843 227.282H575.643C576.443 227.282 577.143 226.582 577.143 225.782C577.143 224.982 576.443 224.282 575.643 224.282H554.843C554.043 224.282 553.343 224.982 553.343 225.782C553.343 226.682 554.043 227.282 554.843 227.282Z" fill="#E0F0FF"/>
<path d="M520.143 299.282H610.343C612.643 299.282 614.543 297.382 614.543 295.082V267.682C614.543 265.382 612.643 263.482 610.343 263.482H520.143C517.843 263.482 515.943 265.382 515.943 267.682V294.982C515.943 297.382 517.843 299.282 520.143 299.282Z" stroke="#E0F0FF" stroke-width="1.8" stroke-miterlimit="10" stroke-linecap="round" stroke-linejoin="round"/>
<path d="M554.843 273.082H575.643C576.443 273.082 577.143 272.382 577.143 271.582C577.143 270.782 576.443 270.082 575.643 270.082H554.843C554.043 270.082 553.343 270.782 553.343 271.582C553.343 272.482 554.043 273.082 554.843 273.082Z" fill="#E0F0FF"/>
<path d="M56.9426 331.582H147.143C149.443 331.582 151.343 329.682 151.343 327.382V299.982C151.343 297.682 149.443 295.782 147.143 295.782H56.9426C54.6426 295.782 52.7426 297.682 52.7426 299.982V327.382C52.7426 329.682 54.6426 331.582 56.9426 331.582Z" stroke="#E0F0FF" stroke-width="1.8" stroke-miterlimit="10" stroke-linecap="round" stroke-linejoin="round"/>
<path d="M91.7426 305.482H112.543C113.343 305.482 114.043 304.782 114.043 303.982C114.043 303.182 113.343 302.482 112.543 302.482H91.7426C90.9426 302.482 90.2426 303.182 90.2426 303.982C90.2426 304.782 90.8426 305.482 91.7426 305.482Z" fill="#E0F0FF"/>
<path d="M172.743 331.582H262.943C265.243 331.582 267.143 329.682 267.143 327.382V299.982C267.143 297.682 265.243 295.782 262.943 295.782H172.743C170.443 295.782 168.543 297.682 168.543 299.982V327.382C168.543 329.682 170.443 331.582 172.743 331.582Z" stroke="#E0F0FF" stroke-width="1.8" stroke-miterlimit="10" stroke-linecap="round" stroke-linejoin="round"/>
<path d="M207.543 305.482H228.343C229.143 305.482 229.843 304.782 229.843 303.982C229.843 303.182 229.143 302.482 228.343 302.482H207.543C206.743 302.482 206.043 303.182 206.043 303.982C206.043 304.782 206.643 305.482 207.543 305.482Z" fill="#E0F0FF"/>
<path d="M635.143 253.482H725.343C727.643 253.482 729.543 251.582 729.543 249.282V221.882C729.543 219.582 727.643 217.682 725.343 217.682H635.143C632.843 217.682 630.943 219.582 630.943 221.882V249.282C630.943 251.582 632.843 253.482 635.143 253.482Z" stroke="#E0F0FF" stroke-width="1.8" stroke-miterlimit="10" stroke-linecap="round" stroke-linejoin="round"/>
<path d="M669.843 227.282H690.643C691.443 227.282 692.143 226.582 692.143 225.782C692.143 224.982 691.443 224.282 690.643 224.282H669.843C669.043 224.282 668.343 224.982 668.343 225.782C668.343 226.682 669.043 227.282 669.843 227.282Z" fill="#E0F0FF"/>
<path d="M635.143 299.282H725.343C727.643 299.282 729.543 297.382 729.543 295.082V267.682C729.543 265.382 727.643 263.482 725.343 263.482H635.143C632.843 263.482 630.943 265.382 630.943 267.682V294.982C630.943 297.382 632.843 299.282 635.143 299.282Z" stroke="#E0F0FF" stroke-width="1.8" stroke-miterlimit="10" stroke-linecap="round" stroke-linejoin="round"/>
<path d="M669.843 273.082H690.643C691.443 273.082 692.143 272.382 692.143 271.582C692.143 270.782 691.443 270.082 690.643 270.082H669.843C669.043 270.082 668.343 270.782 668.343 271.582C668.343 272.482 669.043 273.082 669.843 273.082Z" fill="#E0F0FF"/>
<path d="M-74.3575 184.082H380.643C383.143 184.082 385.243 181.982 385.243 179.482V99.7819C385.243 97.2819 383.143 95.1819 380.643 95.1819H-74.3575C-76.8575 95.1819 -78.9575 97.2819 -78.9575 99.7819V179.482C-78.9575 182.082 -76.8575 184.082 -74.3575 184.082Z" stroke="#E0F0FF" stroke-width="1.8" stroke-miterlimit="10" stroke-linecap="round" stroke-linejoin="round"/>
<path d="M-74.3575 283.082H380.643C383.143 283.082 385.243 280.982 385.243 278.482V198.782C385.243 196.282 383.143 194.182 380.643 194.182H-74.3575C-76.8575 194.182 -78.9575 196.282 -78.9575 198.782V278.482C-78.9575 280.982 -76.8575 283.082 -74.3575 283.082Z" stroke="#E0F0FF" stroke-width="1.8" stroke-miterlimit="10" stroke-linecap="round" stroke-linejoin="round"/>
<path d="M344.774 184.103H354.674V133.803H344.774V184.103Z" stroke="#E0F0FF" stroke-width="1.8" stroke-miterlimit="10" stroke-linecap="round" stroke-linejoin="round"/>
<path d="M334.431 184.117H344.731V147.517H334.431V184.117Z" stroke="#E0F0FF" stroke-width="1.8" stroke-miterlimit="10" stroke-linecap="round" stroke-linejoin="round"/>
<path d="M46.3962 282.943H56.2962L56.2962 232.643H46.3962L46.3962 282.943Z" stroke="#E0F0FF" stroke-width="1.8" stroke-miterlimit="10" stroke-linecap="round" stroke-linejoin="round"/>
<path d="M36.0534 282.958H46.3534L46.3534 246.358H36.0534L36.0534 282.958Z" stroke="#E0F0FF" stroke-width="1.8" stroke-miterlimit="10" stroke-linecap="round" stroke-linejoin="round"/>
<path d="M66.482 282.943H76.382V232.643H66.482V282.943Z" stroke="#E0F0FF" stroke-width="1.8" stroke-miterlimit="10" stroke-linecap="round" stroke-linejoin="round"/>
<path d="M91.3755 282.434L100.816 279.453L85.6708 231.487L76.2301 234.468L91.3755 282.434Z" stroke="#E0F0FF" stroke-width="1.8" stroke-miterlimit="10" stroke-linecap="round" stroke-linejoin="round"/>
<path d="M56.2391 282.958H66.5391V246.358H56.2391L56.2391 282.958Z" stroke="#E0F0FF" stroke-width="1.8" stroke-miterlimit="10" stroke-linecap="round" stroke-linejoin="round"/>
<path d="M46.5425 140.382L45.4425 125.482C45.3425 124.482 46.1426 123.682 47.1426 123.682H51.4425H55.7425C56.7425 123.682 57.4425 124.482 57.4425 125.482L56.3425 140.382C56.3425 140.382 65.3425 146.182 65.2425 150.982C65.1425 154.682 62.9425 172.382 61.9425 180.182C61.6425 182.382 59.8426 183.982 57.6426 183.982H51.4425H45.2425C43.0425 183.982 41.2425 182.382 40.9425 180.182C39.9425 172.382 37.7426 154.682 37.6426 150.982C37.5426 146.182 46.5425 140.382 46.5425 140.382Z" fill="#E0F0FF"/>
<path d="M685.643 377.382H-270.157" stroke="#E0F0FF" stroke-width="1.8" stroke-miterlimit="10" stroke-linecap="round" stroke-linejoin="round"/>
<path d="M249.443 283.082H166.243C163.543 283.082 161.343 280.882 161.343 278.182V264.982C161.343 262.282 163.543 260.082 166.243 260.082H249.443C252.143 260.082 254.343 262.282 254.343 264.982V278.082C254.343 280.882 252.143 283.082 249.443 283.082Z" stroke="#E0F0FF" stroke-width="1.8" stroke-miterlimit="10" stroke-linecap="round" stroke-linejoin="round"/>
<path d="M237.743 239.082H177.743V260.082H237.743V239.082Z" stroke="#E0F0FF" stroke-width="1.8" stroke-miterlimit="10" stroke-linecap="round" stroke-linejoin="round"/>
<path d="M170.743 269.282C171.571 269.282 172.243 268.61 172.243 267.782C172.243 266.953 171.571 266.282 170.743 266.282C169.914 266.282 169.243 266.953 169.243 267.782C169.243 268.61 169.914 269.282 170.743 269.282Z" fill="#E0F0FF"/>
</g>
<path d="M233.342 294.982H223.043L221.943 307.782H231.842L233.342 294.982Z" fill="#2A87DB"/>
<path d="M221.943 307.782L208.843 456.782C208.743 458.482 210.043 459.982 211.743 459.982C213.243 459.982 214.443 458.882 214.643 457.382L231.843 307.782H221.943V307.782Z" fill="#E0F0FF"/>
<path d="M323.342 294.982H313.042L314.542 307.782H324.442L323.342 294.982Z" fill="#E0F0FF"/>
<path d="M314.542 307.782L331.742 457.382C331.942 458.882 333.142 459.982 334.642 459.982C336.342 459.982 337.742 458.482 337.542 456.782L324.442 307.782H314.542V307.782Z" fill="#E0F0FF"/>
<path d="M327.143 375.982H220.943V381.082H327.143V375.982Z" fill="#E0F0FF"/>
<path d="M333.943 298.682H212.443C210.443 298.682 208.943 297.082 208.943 295.182V294.882C208.943 292.882 210.543 291.382 212.443 291.382H334.043C336.043 291.382 337.543 292.982 337.543 294.882V295.182C337.543 297.082 335.943 298.682 333.943 298.682Z" fill="#22272E"/>
<path d="M521.243 236.782L431.743 231.282C425.043 230.882 420.243 224.782 421.443 218.182L455.543 27.0819C456.743 20.4819 462.143 15.5819 468.743 14.8819L558.643 6.18192C565.943 5.48192 571.943 11.8819 570.743 19.1819L536.743 224.382C535.543 231.882 528.843 237.282 521.243 236.782Z" fill="#F8AB5D"/>
<path d="M516.343 236.182L426.843 230.682C420.143 230.282 415.343 224.182 416.543 217.582L450.643 26.4818C451.843 19.8818 457.243 14.9818 463.843 14.2818L553.743 5.58183C561.043 4.88183 567.043 11.2818 565.843 18.5818L531.843 223.782C530.643 231.282 523.943 236.582 516.343 236.182Z" fill="#D4F0FC"/>
<path d="M606.543 128.182L468.743 130.582C465.143 130.682 462.443 127.382 463.043 123.882L473.142 66.3818C473.742 63.0818 476.443 60.6818 479.743 60.3818L615.743 51.2819C620.343 50.9819 624.142 55.0819 623.342 59.6819L613.342 122.182C613.042 125.582 610.043 128.182 606.543 128.182Z" fill="#F8AB5D"/>
<path d="M591.343 220.882L453.543 214.882C450.143 214.682 447.542 211.582 448.142 208.182L458.543 149.282C459.143 145.882 462.142 143.282 465.642 143.282L601.843 142.182C606.343 142.182 609.743 146.182 609.043 150.582L598.843 214.882C598.243 218.482 594.943 221.082 591.343 220.882Z" fill="#F8AB5D"/>
<path d="M448.543 37.9819L564.143 28.7819" stroke="#F8AB5D" stroke-width="1.8" stroke-miterlimit="10" stroke-linecap="round" stroke-linejoin="round"/>
<path d="M507.343 24.0819L497.443 24.9819C496.543 25.0819 496.043 24.3819 496.143 23.3819C496.343 22.3819 497.143 21.5819 498.043 21.4819L507.943 20.5819C508.843 20.4819 509.443 21.1819 509.243 22.1819C509.043 23.1819 508.143 23.9819 507.343 24.0819Z" fill="#22272E"/>
<path d="M513.943 23.4819C513.043 23.5819 512.443 22.8819 512.643 21.8819C512.843 20.8819 513.643 20.0819 514.543 19.9819C515.443 19.8819 516.043 20.5819 515.843 21.5819C515.743 22.5819 514.843 23.4819 513.943 23.4819Z" fill="#22272E"/>
<path d="M625.343 30.2818L587.243 33.1818C585.843 33.2818 584.743 32.0818 585.043 30.7818L588.843 7.68184C589.043 6.28184 590.243 5.18185 591.643 5.08185L629.343 1.08185C630.943 0.881851 632.243 2.28184 632.043 3.88184L628.343 27.6818C627.943 29.0818 626.743 30.1818 625.343 30.2818Z" stroke="#2A87DB" stroke-width="1.8" stroke-miterlimit="10" stroke-linecap="round" stroke-linejoin="round"/>
<path d="M589.843 5.6819L606.443 16.3819C607.343 16.9819 608.543 16.9819 609.443 16.3819L631.043 1.58191" stroke="#2A87DB" stroke-width="1.8" stroke-miterlimit="10" stroke-linecap="round" stroke-linejoin="round"/>
<path d="M599.142 122.082L461.343 124.482C457.743 124.582 455.042 121.282 455.642 117.782L465.743 60.2819C466.343 56.9819 469.043 54.5819 472.343 54.2819L608.342 45.1819C612.942 44.8819 616.743 48.9819 615.943 53.5819L605.943 116.082C605.543 119.482 602.642 122.082 599.142 122.082Z" fill="#22272E"/>
<path d="M497.043 78.5819C496.343 82.6819 492.743 86.1819 489.043 86.3819C485.343 86.5819 482.943 83.3819 483.643 79.2819C484.343 75.1819 487.943 71.6819 491.643 71.4819C495.343 71.2819 497.743 74.4819 497.043 78.5819Z" fill="#D4F0FC"/>
<path d="M494.443 104.882L478.043 105.382C475.843 105.482 474.043 103.482 474.443 101.282L474.743 99.4819C476.043 92.0819 482.443 85.7819 489.143 85.5819C495.843 85.2819 500.343 91.1819 499.043 98.6819L498.643 101.282C498.243 103.282 496.543 104.782 494.443 104.882Z" fill="#D4F0FC"/>
<path d="M584.343 79.282L519.043 82.282C517.643 82.382 516.543 81.082 516.843 79.782L517.543 75.3819C517.843 73.8819 519.043 72.782 520.543 72.682L585.943 69.282C587.343 69.182 588.442 70.382 588.142 71.782L587.343 76.582C587.143 78.082 585.843 79.282 584.343 79.282Z" fill="#2A87DB"/>
<path d="M518.343 94.0819L519.343 97.1819L522.443 97.6819L519.743 100.382L519.543 103.882L516.943 102.482L513.743 104.082L514.743 100.582L512.943 98.0819L516.243 97.2819L518.343 94.0819Z" fill="#D4F0FC"/>
<path d="M533.343 93.5819L534.443 96.6819L537.543 97.1819L534.843 99.8819L534.743 103.382L531.943 101.982L528.743 103.582L529.743 100.082L527.943 97.4819L531.243 96.7819L533.343 93.5819Z" fill="#D4F0FC"/>
<path d="M548.743 92.9819L549.843 96.0819L553.043 96.6819L550.243 99.3819L550.143 102.982L547.343 101.482L544.043 103.182L545.043 99.5819L543.143 96.9819L546.643 96.1819L548.743 92.9819Z" fill="#D4F0FC"/>
<path d="M564.443 92.3818L565.543 95.5818L568.843 96.0818L566.043 98.8818L565.943 102.482L563.043 100.982L559.643 102.682L560.743 98.9818L558.743 96.4818L562.243 95.6819L564.443 92.3818Z" fill="#D4F0FC"/>
<path d="M580.543 91.7819L581.643 94.9819L585.043 95.5819L582.143 98.2819L582.043 101.982L579.043 100.482L575.643 102.182L576.743 98.4819L574.743 95.8819L578.243 95.0819L580.543 91.7819Z" fill="#D4F0FC"/>
<path d="M583.843 214.782L446.142 208.682C442.742 208.482 440.143 205.382 440.743 201.982L451.142 143.082C451.742 139.682 454.743 137.082 458.243 137.082L594.443 135.982C598.943 135.982 602.343 139.982 601.643 144.382L591.443 208.682C590.743 212.382 587.543 214.982 583.843 214.782Z" fill="#22272E"/>
<path d="M482.343 163.682C481.643 167.882 478.043 171.282 474.243 171.182C470.543 171.082 468.143 167.682 468.843 163.482C469.543 159.282 473.143 155.982 476.843 155.982C480.643 156.082 483.143 159.482 482.343 163.682Z" fill="#D4F0FC"/>
<path d="M479.443 190.682L463.043 190.182C460.943 190.082 459.343 188.182 459.643 186.082L460.043 183.982C461.343 176.382 467.743 170.382 474.443 170.482C481.143 170.582 485.643 176.882 484.243 184.582L483.843 187.082C483.543 189.182 481.643 190.682 479.443 190.682Z" fill="#D4F0FC"/>
<path d="M569.443 169.882L504.142 168.982C502.842 168.982 501.843 167.782 502.043 166.482L502.843 161.882C503.143 160.282 504.443 159.182 506.043 159.182L571.443 159.682C572.743 159.682 573.743 160.882 573.543 162.182L572.743 167.182C572.443 168.682 571.043 169.882 569.443 169.882Z" fill="#2A87DB"/>
<path d="M503.543 181.082L504.543 184.282L507.643 184.982L504.943 187.582L504.843 191.182L502.143 189.482L498.943 190.982L499.943 187.382L498.243 184.782L501.443 184.182L503.543 181.082Z" fill="#D4F0FC"/>
<path d="M518.643 181.382L519.643 184.582L522.843 185.382L520.043 187.982L519.943 191.582L517.143 189.982L513.943 191.482L514.943 187.882L513.143 185.082L516.543 184.582L518.643 181.382Z" fill="#D4F0FC"/>
<path d="M534.043 181.782L535.043 184.982L538.343 185.782L535.543 188.382L535.343 192.082L532.543 190.382L529.243 191.882L530.343 188.282L528.443 185.482L531.843 184.982L534.043 181.782Z" fill="#D4F0FC"/>
<path d="M549.742 182.082L550.842 185.382L554.142 186.182L551.242 188.882L551.142 192.582L548.242 190.882L544.842 192.382L545.943 188.682L544.042 185.882L547.542 185.282L549.742 182.082Z" fill="#63737A"/>
<path d="M565.743 182.482L566.943 185.782L570.243 186.582L567.343 189.282L567.243 193.082L564.343 191.282L560.843 192.882L561.943 189.082L559.943 186.382L563.543 185.782L565.743 182.482Z" fill="#63737A"/>
<path d="M375.143 406.482C375.143 406.482 376.543 420.182 377.743 427.282C378.043 429.382 385.943 431.782 393.143 430.282C402.043 428.482 402.543 423.382 402.543 423.382C402.543 423.382 400.843 399.382 400.643 397.682C400.443 395.982 376.443 400.482 375.143 406.482Z" fill="#FFECD6"/>
<path d="M400.343 415.382C393.443 418.882 384.443 418.982 379.143 418.682C376.743 418.582 374.743 416.682 374.443 414.282C373.943 409.882 373.543 406.482 373.543 406.482C374.943 399.782 401.843 394.782 402.043 396.682C402.143 397.582 402.643 404.082 403.143 410.582C403.343 412.482 402.143 414.382 400.343 415.382Z" fill="#22272E"/>
<path d="M377.543 426.482C377.543 426.482 376.243 428.182 376.843 432.082C377.343 435.982 376.743 453.482 378.943 455.582C381.143 457.582 405.943 456.182 417.043 453.682C428.943 450.982 436.443 446.282 437.243 443.782C438.443 440.182 437.443 439.682 425.143 436.082C412.843 432.582 406.643 427.382 404.043 424.482C402.343 422.582 398.743 421.182 395.543 423.982C394.043 425.282 392.243 429.982 388.943 429.982C381.043 429.882 378.343 426.082 377.543 426.482Z" fill="#22272E"/>
<path d="M420.643 433.382C420.643 433.382 411.443 434.182 404.743 443.782" stroke="white" stroke-width="1.8" stroke-miterlimit="10" stroke-linecap="round" stroke-linejoin="round"/>
<path d="M413.043 429.882C413.043 429.882 404.643 430.682 398.843 439.282" stroke="white" stroke-width="1.8" stroke-miterlimit="10" stroke-linecap="round" stroke-linejoin="round"/>
<path d="M291.543 406.782C291.543 406.782 290.143 426.082 289.943 426.982C289.743 427.882 291.342 432.582 300.842 433.882C310.342 435.182 313.543 429.382 313.543 429.382C313.543 429.382 316.943 411.682 317.543 408.482C318.243 405.382 294.643 403.482 291.543 406.782Z" fill="#FFECD6"/>
<path d="M319.343 408.082C319.043 409.382 318.343 412.982 317.643 416.982C317.243 419.182 315.443 420.882 313.243 421.082C304.243 422.082 296.943 420.082 292.843 418.482C290.743 417.682 289.343 415.582 289.543 413.282C289.843 409.282 290.043 405.982 290.043 405.982C293.443 402.282 320.043 404.482 319.343 408.082Z" fill="#22272E"/>
<path d="M289.943 426.282C289.943 426.282 287.543 426.882 287.343 430.982C287.143 434.982 282.443 453.782 282.643 455.782C282.843 457.682 283.943 460.282 299.043 460.082C314.143 459.882 322.543 460.682 325.343 458.282C328.243 455.882 324.343 450.382 321.543 445.382C318.643 440.382 314.543 432.882 313.843 428.782C313.843 428.782 311.443 430.382 310.543 430.482C309.643 430.582 308.743 426.282 303.143 426.282C296.643 426.282 294.343 429.882 293.743 429.782C292.943 429.682 290.743 428.082 289.943 426.282Z" fill="#22272E"/>
<path d="M294.043 438.382C294.043 438.382 305.243 434.182 315.143 438.382" stroke="white" stroke-width="1.8" stroke-miterlimit="10" stroke-linecap="round" stroke-linejoin="round"/>
<path d="M293.243 444.082C293.243 444.082 306.543 439.882 317.543 444.082" stroke="white" stroke-width="1.8" stroke-miterlimit="10" stroke-linecap="round" stroke-linejoin="round"/>
<path d="M316.943 227.582C316.943 227.582 338.143 233.382 363.543 242.382C387.543 250.882 396.943 255.882 399.543 272.582C402.143 289.282 398.943 348.782 402.143 364.482C405.343 380.182 409.043 391.282 405.943 399.382C403.843 404.982 399.543 406.582 399.543 406.582C399.543 406.582 386.643 412.082 375.143 409.482C375.143 409.482 368.743 407.982 364.943 400.882C361.143 393.782 364.843 370.882 361.943 353.782C359.043 336.782 355.843 308.482 352.343 289.582C348.843 270.582 291.843 263.082 284.543 248.182C277.143 233.282 281.043 220.182 281.043 220.182C281.043 220.182 310.543 219.582 316.943 227.582Z" fill="#22272E"/>
<path d="M302.143 246.582C302.143 246.582 302.143 242.882 301.443 239.082" stroke="#63737A" stroke-width="1.8" stroke-miterlimit="10" stroke-linecap="round" stroke-linejoin="round"/>
<path d="M400.443 283.582C399.243 283.882 397.942 284.082 396.642 284.082C387.842 284.082 380.343 276.682 379.943 267.682C379.743 261.482 382.843 255.982 387.743 253.182C394.643 257.782 398.143 263.482 399.543 272.682C399.943 275.282 400.243 279.082 400.443 283.582Z" stroke="#63737A" stroke-width="1.8" stroke-miterlimit="10" stroke-linecap="round" stroke-linejoin="round"/>
<path d="M218.243 228.882C218.243 228.882 217.443 236.282 218.143 253.182C218.843 269.682 231.443 291.282 258.443 291.582C285.443 291.882 301.343 291.582 301.343 291.582C301.343 291.582 299.243 301.182 298.243 325.682C297.243 350.082 289.843 366.982 285.043 382.282C280.843 395.682 280.843 405.082 290.543 409.582C290.543 409.582 302.743 414.382 318.143 413.482C318.143 413.482 325.543 412.882 327.743 395.182C329.943 377.482 339.343 343.282 347.043 321.282C354.743 299.382 360.843 271.082 348.943 261.482C337.043 251.882 296.543 246.082 294.443 245.082C292.343 244.082 292.643 230.582 290.143 222.282C287.743 213.782 226.343 212.182 218.243 228.882Z" fill="#22272E"/>
<path d="M347.143 321.182C354.843 299.282 360.943 270.982 349.043 261.382C337.143 251.782 296.643 245.982 294.543 244.982" stroke="#63737A" stroke-width="1.8" stroke-miterlimit="10" stroke-linecap="round" stroke-linejoin="round"/>
<path d="M294.643 244.982C294.643 244.982 284.243 242.982 280.043 243.682" stroke="#63737A" stroke-width="1.8" stroke-miterlimit="10" stroke-linecap="round" stroke-linejoin="round"/>
<path d="M220.043 264.082C223.543 262.582 228.743 258.882 231.943 249.782" stroke="#63737A" stroke-width="1.8" stroke-miterlimit="10" stroke-linecap="round" stroke-linejoin="round"/>
<path d="M301.343 291.582C301.343 291.582 303.043 286.682 306.543 283.182" stroke="#63737A" stroke-width="1.8" stroke-miterlimit="10" stroke-linecap="round" stroke-linejoin="round"/>
<path d="M355.643 284.382C353.143 289.482 347.943 292.982 341.943 292.982C333.143 292.982 325.643 285.582 325.243 276.582C324.843 267.482 331.743 260.182 340.643 260.182C345.143 260.182 349.343 262.082 352.343 265.182C355.243 269.882 356.143 276.682 355.643 284.382Z" stroke="#63737A" stroke-width="1.8" stroke-miterlimit="10" stroke-linecap="round" stroke-linejoin="round"/>
<path d="M294.643 419.182C294.643 419.182 294.343 418.382 294.643 415.982" stroke="#63737A" stroke-width="1.8" stroke-miterlimit="10" stroke-linecap="round" stroke-linejoin="round"/>
<path d="M303.343 421.082C303.343 421.082 304.343 418.882 304.343 417.582" stroke="#63737A" stroke-width="1.8" stroke-miterlimit="10" stroke-linecap="round" stroke-linejoin="round"/>
<path d="M312.543 421.082C312.543 421.082 313.643 419.382 313.943 417.982" stroke="#63737A" stroke-width="1.8" stroke-miterlimit="10" stroke-linecap="round" stroke-linejoin="round"/>
<path d="M380.543 418.682C380.543 418.682 379.643 416.682 379.343 414.582" stroke="#63737A" stroke-width="1.8" stroke-miterlimit="10" stroke-linecap="round" stroke-linejoin="round"/>
<path d="M391.643 418.082C391.643 418.082 391.943 416.682 391.343 413.582" stroke="#63737A" stroke-width="1.8" stroke-miterlimit="10" stroke-linecap="round" stroke-linejoin="round"/>
<path d="M401.443 414.582C401.443 414.582 401.943 412.682 401.343 410.282" stroke="#63737A" stroke-width="1.8" stroke-miterlimit="10" stroke-linecap="round" stroke-linejoin="round"/>
<path d="M296.443 113.082C296.443 113.082 306.343 114.782 322.143 118.482C338.043 122.082 351.743 123.582 351.743 123.582C351.743 123.582 368.043 116.282 387.343 107.982C406.643 99.5819 421.243 95.0819 421.243 95.0819C421.243 95.0819 426.243 95.4819 429.143 102.782C430.543 106.382 430.643 109.482 430.443 111.582C430.343 113.182 429.443 114.482 428.143 115.382C423.743 118.282 411.643 126.382 392.643 139.482C368.443 156.182 358.343 157.382 346.343 156.882C333.043 156.282 300.043 150.882 300.043 150.882C300.043 150.882 291.143 149.182 288.043 133.282C285.143 117.382 293.343 112.482 296.443 113.082Z" fill="#D4F0FC"/>
<path d="M351.543 156.882C351.543 156.882 347.643 155.782 350.243 151.382C352.843 146.982 363.043 143.482 369.343 146.082C374.643 148.282 371.443 151.982 371.443 151.982" stroke="#F8AB5D" stroke-width="1.8" stroke-miterlimit="10" stroke-linecap="round" stroke-linejoin="round"/>
<path d="M415.043 97.1819C415.043 97.1819 414.043 102.782 416.842 108.282C420.142 114.782 424.142 116.882 425.342 117.282" stroke="#F8AB5D" stroke-width="1.8" stroke-miterlimit="10" stroke-linecap="round" stroke-linejoin="round"/>
<path d="M421.243 95.0819C421.243 95.0819 420.443 101.182 422.943 106.282C424.143 108.882 425.643 110.682 426.843 111.782C427.843 112.682 429.243 112.982 430.543 112.482C431.643 111.982 433.143 111.482 434.243 111.382C436.443 111.182 442.443 112.482 445.943 109.982C449.443 107.482 450.243 107.182 450.743 107.082C451.243 106.982 456.543 106.982 457.443 106.582C459.243 105.782 459.643 102.782 458.743 101.582C457.943 100.582 452.743 100.482 451.743 98.9819C450.743 97.5819 451.643 95.8819 457.243 94.4819C462.843 93.0819 472.743 89.9819 472.443 87.5819C472.243 85.2819 466.843 86.9819 460.043 87.6819C453.343 88.3819 450.043 88.5819 447.243 87.4819C444.543 86.4819 440.643 86.4819 436.343 88.5819C433.543 89.9819 430.543 91.1819 425.243 93.4819C423.343 94.4819 421.243 95.0819 421.243 95.0819Z" fill="#FFECD6"/>
<path d="M458.143 94.2819C458.143 94.2819 459.143 97.0819 459.143 99.2819C459.243 101.482 456.043 107.482 453.743 108.582C451.443 109.682 449.943 108.482 448.943 106.882C447.943 105.282 445.343 95.7819 450.343 94.6819C455.343 93.5819 457.143 93.3819 458.143 94.2819Z" fill="#FFECD6"/>
<path d="M458.643 101.582C457.843 100.582 452.643 100.482 451.643 98.9819C450.643 97.5819 451.543 95.8819 457.143 94.4819C462.743 93.0819 472.643 89.9819 472.343 87.5819" stroke="#896068" stroke-width="1.8" stroke-miterlimit="10" stroke-linecap="round" stroke-linejoin="round"/>
<path d="M449.543 88.1819C449.143 88.0819 445.143 88.1819 443.943 88.6819" stroke="#896068" stroke-width="1.8" stroke-miterlimit="10" stroke-linecap="round" stroke-linejoin="round"/>
<path d="M445.843 109.982C449.343 107.382 450.143 107.182 450.643 107.082C451.143 106.982 456.443 106.982 457.343 106.582" stroke="#896068" stroke-width="1.8" stroke-miterlimit="10" stroke-linecap="round" stroke-linejoin="round"/>
<path d="M259.643 102.482C259.643 102.482 260.743 98.3819 268.243 98.7819C275.743 99.1819 286.643 103.082 287.343 108.682C288.143 114.282 263.143 117.382 259.643 102.482Z" fill="#22272E"/>
<path d="M313.143 147.782C312.143 116.182 296.543 113.082 296.543 113.082C296.543 113.082 279.043 110.182 257.843 110.582C236.643 110.982 220.043 114.582 211.443 126.782C203.843 137.582 187.243 185.482 191.543 198.782C195.143 209.982 205.743 212.682 224.743 209.382C223.543 216.382 222.143 221.882 222.143 221.882C230.143 227.682 247.843 233.382 274.343 233.382C297.943 233.382 309.843 225.682 309.843 225.682C308.943 218.582 314.043 179.382 313.143 147.782Z" fill="#D4F0FC"/>
<path d="M287.543 120.482C288.643 127.182 289.143 141.782 290.943 155.582C292.743 169.382 293.043 189.682 293.143 209.082C293.243 228.482 296.643 243.682 296.643 243.682C310.143 239.182 319.743 228.582 319.743 228.582C319.743 228.582 321.043 226.982 317.543 214.082C314.043 201.182 313.143 155.582 313.143 155.582C313.143 155.582 314.143 143.882 311.943 132.882C309.743 121.982 302.343 114.282 296.643 112.482C290.943 110.782 287.043 111.082 287.043 111.082C287.043 111.082 287.243 116.182 287.543 120.482Z" fill="#2A87DB"/>
<path d="M261.243 91.082C261.243 91.082 260.643 102.482 260.643 108.082C260.643 117.882 274.043 127.982 279.043 127.982C287.143 127.982 288.543 118.482 288.143 114.282C287.743 110.082 287.643 97.882 287.743 97.582C287.843 97.282 266.243 85.682 261.243 91.082Z" fill="#FFECD6"/>
<path d="M266.043 97.0819C267.543 109.482 277.443 115.982 288.143 115.582C288.143 115.182 288.143 114.682 288.043 114.382C287.843 112.682 287.743 109.682 287.743 106.782C280.043 110.782 270.543 104.282 266.043 97.0819Z" fill="#896068"/>
<path d="M273.143 125.782C272.443 137.682 276.843 167.282 276.843 200.882C276.843 234.482 271.943 248.282 271.943 248.282C230.643 253.182 209.643 235.782 209.643 235.782C209.643 235.782 211.243 232.282 214.743 222.582C218.243 212.982 218.243 200.982 218.243 200.982C218.243 200.982 223.043 157.082 221.343 147.282C219.643 137.382 213.343 124.482 213.343 124.482C213.343 124.482 218.343 117.182 231.743 113.482C242.143 110.582 253.443 110.282 257.943 110.282L257.843 110.782C262.443 121.082 273.143 125.782 273.143 125.782Z" fill="#2A87DB"/>
<path d="M237.443 215.582C240.943 216.582 248.843 218.482 258.143 218.082C259.443 217.982 260.442 218.782 260.342 219.782C260.342 219.882 260.342 219.882 260.342 219.882C260.242 220.682 259.342 221.382 258.342 221.482C253.842 221.782 242.243 221.082 236.243 218.682C235.243 218.282 234.743 217.382 234.943 216.582C235.143 215.682 236.343 215.282 237.443 215.582Z" fill="#F5FAFF"/>
<path d="M302.943 215.282C304.943 214.782 309.443 213.782 314.343 212.082C315.043 211.882 315.843 212.482 316.043 213.482V213.582C316.243 214.382 315.943 215.082 315.443 215.282C313.143 216.182 307.343 218.282 303.643 218.482C303.043 218.482 302.443 217.982 302.143 217.182C301.943 216.282 302.243 215.482 302.943 215.282Z" fill="#F5FAFF"/>
<path d="M303.943 165.782C303.743 165.782 303.543 165.782 303.443 165.782C295.843 169.882 291.443 169.682 290.943 165.882C291.743 165.382 292.443 164.882 293.143 164.382C294.843 163.282 296.743 162.582 298.643 162.282C299.843 162.082 301.343 161.882 303.043 161.782C303.043 161.782 305.243 161.282 305.643 162.082C306.043 162.682 305.943 164.182 303.943 165.782Z" fill="#FFECD6"/>
<path d="M354.342 200.882L297.543 200.782C295.743 200.782 294.443 199.282 294.543 197.482L298.842 153.482C299.042 151.482 300.743 150.082 302.743 150.182L359.743 153.982C361.043 154.082 362.043 155.282 361.943 156.582L357.342 198.182C357.242 199.682 355.942 200.882 354.342 200.882Z" fill="#22272E"/>
<path d="M334.943 158.882C335.043 158.182 334.643 157.682 333.943 157.682C333.243 157.682 332.643 158.282 332.543 158.882C332.443 159.482 332.843 160.082 333.543 160.082C334.243 160.082 334.743 159.482 334.943 158.882Z" fill="#63737A"/>
<path d="M283.643 189.982C283.443 190.882 282.843 191.482 281.943 191.882C277.243 193.982 259.143 201.482 236.443 206.982C232.243 207.982 228.243 208.882 224.643 209.482C205.543 212.682 195.043 210.082 191.443 198.882C187.143 185.582 203.743 137.782 211.343 126.882C211.943 125.982 212.643 125.182 213.343 124.382C223.843 116.182 234.743 124.182 237.143 137.582C238.343 144.682 235.343 152.482 232.843 161.382C231.043 167.782 226.443 178.082 226.443 178.082L278.843 172.682C279.843 172.582 280.743 172.882 281.343 173.682C286.143 178.982 284.543 186.882 283.643 189.982Z" fill="#D4F0FC"/>
<path d="M226.443 177.982C226.443 177.982 216.243 179.182 212.343 181.782" stroke="#F8AB5D" stroke-width="1.8" stroke-miterlimit="10" stroke-linecap="round" stroke-linejoin="round"/>
<path d="M271.743 173.282C271.743 173.282 268.943 176.482 270.043 183.182C271.243 190.482 274.443 192.482 276.643 193.982" stroke="#F8AB5D" stroke-width="1.8" stroke-miterlimit="10" stroke-linecap="round" stroke-linejoin="round"/>
<path d="M191.443 199.782C191.443 199.782 190.343 193.782 199.043 193.682C207.743 193.582 217.543 205.582 211.443 210.782" stroke="#F8AB5D" stroke-width="1.8" stroke-miterlimit="10" stroke-linecap="round" stroke-linejoin="round"/>
<path d="M323.543 180.782C322.943 182.682 318.343 180.882 314.843 179.882C310.343 178.582 307.343 177.582 307.043 177.482C307.443 177.682 310.043 178.982 315.343 182.882C318.943 185.582 321.643 188.482 320.443 189.882C319.243 191.282 312.043 187.082 312.043 187.082C312.043 187.082 314.643 188.882 315.243 190.982C315.843 192.982 312.343 192.382 305.743 188.382C305.743 188.382 303.243 188.482 298.543 190.582C293.843 192.682 286.843 191.682 284.643 190.982C283.643 190.682 282.643 190.582 281.943 190.582C280.943 190.582 279.943 190.082 279.343 189.282C278.143 187.782 276.343 185.082 275.943 181.382C275.543 177.682 276.443 175.582 277.143 174.582C277.443 174.082 277.943 173.682 278.543 173.482C279.443 173.182 280.943 172.582 282.043 171.982C282.943 171.482 286.243 169.082 289.543 166.882C290.043 166.582 290.543 166.182 290.943 165.882C293.243 165.982 300.243 166.182 303.443 165.782C303.643 165.782 303.743 165.782 303.943 165.782C308.243 165.482 319.743 166.482 320.943 167.782C322.243 169.082 320.443 170.782 315.043 170.682C311.143 170.582 306.343 171.282 306.343 171.282C306.343 171.282 310.943 172.382 315.043 174.282C319.243 176.182 324.243 178.882 323.543 180.782Z" fill="#FFECD6"/>
<path d="M307.143 177.482C307.143 177.482 305.543 176.882 304.343 176.582C303.143 176.282 302.143 176.282 302.143 176.282" stroke="#896068" stroke-width="1.8" stroke-miterlimit="10" stroke-linecap="round" stroke-linejoin="round"/>
<path d="M312.043 187.082C312.043 187.082 308.743 183.682 304.943 182.882C303.243 182.582 302.143 182.482 302.143 182.482" stroke="#896068" stroke-width="1.8" stroke-miterlimit="10" stroke-linecap="round" stroke-linejoin="round"/>
<path d="M306.443 171.282C306.443 171.282 303.743 171.182 302.143 171.682" stroke="#896068" stroke-width="1.8" stroke-miterlimit="10" stroke-linecap="round" stroke-linejoin="round"/>
<path d="M297.743 165.982C297.743 165.982 295.943 165.982 295.343 165.782" stroke="#896068" stroke-width="1.8" stroke-miterlimit="10" stroke-linecap="round" stroke-linejoin="round"/>
<path d="M287.243 115.482C287.143 114.182 287.143 112.882 287.243 111.482C287.343 110.482 287.443 109.382 287.343 108.682V106.382C287.343 106.382 287.943 107.682 289.143 109.782C290.343 111.782 288.543 121.082 287.643 122.182L287.243 115.482Z" fill="#22272E"/>
<path d="M298.143 70.9819C298.143 70.9819 297.543 77.7819 298.143 89.2819C298.743 100.882 290.543 108.082 283.843 110.182C277.143 112.282 264.543 107.082 261.543 92.1819C258.443 77.2819 252.043 60.4819 269.443 54.3819C286.743 48.2819 298.343 56.7819 298.143 70.9819Z" fill="#FFECD6"/>
<path d="M260.543 81.4819C260.543 81.4819 262.643 80.1819 263.343 75.7819C263.543 74.4819 264.143 73.7819 264.843 73.3819C266.843 72.3819 268.443 70.6819 268.743 68.4819C268.943 66.5819 269.743 65.1819 271.743 66.2819C287.443 75.3819 297.843 67.0819 297.843 67.0819L297.943 72.7819C304.043 71.0819 307.743 63.0819 306.543 57.1819C305.043 49.7819 302.243 51.1819 298.743 45.5819C295.343 39.9819 288.843 36.0819 280.643 38.9819C272.443 41.8819 269.443 43.1819 263.043 43.0819C256.743 42.9819 250.543 45.6819 250.043 51.6819C249.643 57.6819 244.043 59.4819 243.043 65.0819C242.043 70.6819 244.243 73.4819 246.343 75.6819C248.443 77.8819 244.443 84.0819 249.743 89.2819C255.143 94.4819 258.543 96.0819 260.743 99.4819C261.043 99.4819 261.843 90.2819 260.543 81.4819Z" fill="#22272E"/>
<path d="M262.343 83.1819C262.343 83.1819 258.543 76.7819 253.443 79.6819C248.343 82.5819 253.743 92.5819 261.643 92.0819" fill="#FFECD6"/>
<path d="M289.643 78.2819C290.043 79.3819 290.543 80.2819 291.143 81.0819C291.443 81.4819 291.743 81.7819 292.043 82.0819C292.343 82.2819 293.043 82.8819 293.343 83.4819C294.043 84.7819 293.943 86.1819 293.443 87.2819C293.243 87.8819 292.843 88.3818 292.443 88.7818C292.043 89.1818 291.543 89.5819 290.943 89.6819C291.643 88.7819 291.943 87.7819 292.043 86.8819C292.143 85.9819 292.043 84.9819 291.743 84.3819C291.543 83.9819 291.343 83.8819 290.843 83.3819C290.443 82.8819 290.043 82.3819 289.843 81.7819C289.443 80.5819 289.343 79.3819 289.643 78.2819Z" fill="#22272E"/>
<path d="M284.243 97.9819C284.243 97.9819 280.143 98.5819 277.543 94.5819" stroke="#22272E" stroke-width="1.8" stroke-miterlimit="10" stroke-linecap="round" stroke-linejoin="round"/>
<path d="M278.543 82.4819C277.743 82.4819 277.143 81.8819 277.143 81.0819V79.6819C277.143 78.8819 277.743 78.2819 278.543 78.2819C279.343 78.2819 279.943 78.8819 279.943 79.6819V81.0819C279.943 81.8819 279.243 82.4819 278.543 82.4819Z" fill="#22272E"/>
<path d="M294.043 82.4819C293.243 82.4819 292.643 81.8819 292.643 81.0819V79.6819C292.643 78.8819 293.243 78.2819 294.043 78.2819C294.843 78.2819 295.443 78.8819 295.443 79.6819V81.0819C295.443 81.8819 294.743 82.4819 294.043 82.4819Z" fill="#22272E"/>
<path d="M280.543 75.1819C279.543 75.5819 278.843 74.3819 277.343 74.7819C275.043 75.4819 273.943 76.2819 273.543 75.2819C273.243 74.5819 274.643 72.7819 276.843 72.1819C280.043 71.4819 282.343 74.4819 280.543 75.1819Z" fill="#22272E"/>
<path d="M292.143 75.1819C292.943 75.4819 293.543 74.3819 294.643 74.6819C296.143 75.1819 296.943 75.7819 297.143 74.9819C297.343 74.3819 296.543 72.7819 295.043 72.2819C292.643 71.4819 290.543 74.5819 292.143 75.1819Z" fill="#22272E"/>
<path d="M254.243 83.8818C254.343 83.4818 254.643 83.0818 255.043 82.8818C255.443 82.5818 255.943 82.3818 256.543 82.4818C257.143 82.5818 257.643 82.9818 257.943 83.3818C258.243 83.7818 258.443 84.1818 258.643 84.5818C258.943 85.3818 259.143 86.1818 259.243 86.7818C259.343 87.0818 259.343 87.2818 259.543 87.4818C259.743 87.6818 260.143 87.8818 260.543 87.9818C260.143 88.1818 259.743 88.3818 259.243 88.2818C258.743 88.1818 258.243 87.7818 257.943 87.3818C257.443 86.5818 257.143 85.8818 256.943 85.2818C256.843 84.9818 256.643 84.5818 256.543 84.3818C256.443 84.1818 256.343 83.9818 256.143 83.8818C255.843 83.4818 255.043 83.5818 254.243 83.8818Z" fill="#22272E"/>
<path d="M263.243 145.582C263.643 149.382 261.143 153.482 257.543 153.782C253.943 154.182 250.742 151.382 250.342 147.582C249.942 143.782 252.543 140.382 256.143 140.082C259.843 139.682 262.943 141.782 263.243 145.582Z" fill="#D4F0FC"/>
<path d="M273.143 125.782C273.143 125.782 262.443 121.082 257.743 110.682L259.643 102.482C259.643 102.482 262.643 108.882 269.443 112.382C271.743 113.582 273.243 115.882 273.343 118.482C273.443 120.582 273.343 123.282 273.143 125.782Z" fill="#22272E"/>
<path d="M142.043 184.282C142.043 187.382 139.543 189.782 136.543 189.782C133.543 189.782 131.043 187.282 131.043 184.282C131.043 181.182 133.543 178.782 136.543 178.782C139.543 178.782 142.043 181.182 142.043 184.282Z" fill="#22272E"/>
<path d="M142.043 203.582H131.043C128.543 203.582 126.543 201.582 126.543 199.082C126.543 193.582 131.043 189.082 136.543 189.082C142.043 189.082 146.543 193.582 146.543 199.082C146.543 201.582 144.543 203.582 142.043 203.582Z" fill="#22272E"/>
<path d="M108.543 191.182C108.543 206.582 121.043 219.182 136.543 219.182C145.743 219.182 153.943 214.682 159.043 207.882" stroke="#2A87DB" stroke-width="1.8" stroke-linecap="round" stroke-linejoin="round"/>
<path d="M162.043 211.182L162.243 202.182L154.343 206.482L162.043 211.182Z" fill="#2A87DB"/>
<path d="M164.443 191.182C164.443 175.782 151.943 163.182 136.443 163.182C126.843 163.182 118.343 167.982 113.343 175.382" stroke="#2A87DB" stroke-width="1.8" stroke-linecap="round" stroke-linejoin="round"/>
<path d="M110.243 172.182L110.443 181.082L118.143 176.482L110.243 172.182Z" fill="#2A87DB"/>
</g>
</svg>
