<svg width="153" height="126" viewBox="0 0 153 126" fill="none" xmlns="http://www.w3.org/2000/svg">
<path d="M144.243 105.382L24.6425 125.382C20.3425 126.082 16.2425 123.082 15.6425 118.782L0.342538 9.38186C-0.257462 5.08186 3.34254 1.38186 7.64254 1.88186L125.843 15.8819C129.243 16.2819 131.943 18.7819 132.643 22.1819L147.843 100.282C148.243 102.682 146.643 104.982 144.243 105.382Z" fill="#F8AB5D"/>
<path d="M149.243 103.982L29.6425 123.982C25.3425 124.682 21.2425 121.682 20.6425 117.382L5.2425 7.98183C4.6425 3.68183 8.2425 -0.0181659 12.5425 0.481834L130.743 14.4818C134.143 14.8818 136.843 17.3818 137.543 20.7818L152.743 98.8818C153.243 101.282 151.643 103.582 149.243 103.982Z" fill="#D4F0FC"/>
<path d="M72.8425 98.4819L43.3425 101.882C41.1425 102.182 39.1425 100.582 38.8425 98.4819L28.0425 26.2819C27.7425 24.2819 29.3425 22.4819 31.4425 22.6819L60.9425 24.8819C62.8425 24.9819 64.3425 26.3819 64.6425 28.2819L75.6425 94.8819C75.8425 96.5819 74.5425 98.2819 72.8425 98.4819Z" fill="#22272E"/>
<path d="M75.2425 97.1818L45.7425 100.582C43.5425 100.882 41.5425 99.2818 41.2425 97.1818L30.4425 24.9818C30.1425 22.9818 31.7425 21.1818 33.8425 21.3818L63.3425 23.5818C65.2425 23.6818 66.7425 25.0818 67.0425 26.9818L78.0425 93.5818C78.2425 95.2818 77.0425 96.9818 75.2425 97.1818Z" fill="#2A87DB"/>
<path d="M46.1426 26.9818L50.7426 27.2818" stroke="#22272E" stroke-width="1.8" stroke-miterlimit="10" stroke-linecap="round" stroke-linejoin="round"/>
<path d="M53.1426 27.4818H53.4426" stroke="#22272E" stroke-width="1.8" stroke-miterlimit="10" stroke-linecap="round" stroke-linejoin="round"/>
<path d="M31.3425 30.6819L67.9425 32.5819" stroke="#22272E" stroke-width="1.8" stroke-miterlimit="10" stroke-linecap="round" stroke-linejoin="round"/>
<path d="M40.4425 91.5819L77.0425 88.1819" stroke="#22272E" stroke-width="1.8" stroke-miterlimit="10" stroke-linecap="round" stroke-linejoin="round"/>
<path d="M114.943 35.9818C115.443 38.7818 114.143 40.9818 112.043 40.8818C109.843 40.7818 107.643 38.3818 107.143 35.5818C106.643 32.6818 107.943 30.4818 110.143 30.6818C112.243 30.7818 114.343 33.1818 114.943 35.9818Z" fill="#22272E"/>
<path d="M118.843 53.8818H109.843C108.243 53.8818 106.943 52.7818 106.643 51.1818L106.343 49.5818C105.443 44.2818 107.943 40.1818 111.843 40.2818C115.743 40.3818 119.543 44.5818 120.443 49.6818L120.743 51.4818C121.043 52.7818 120.143 53.8818 118.843 53.8818Z" fill="#22272E"/>
<path d="M108.343 69.6818C108.843 72.6818 107.443 75.1818 105.143 75.3818C102.843 75.4818 100.443 73.1818 99.9425 70.0818C99.4425 66.9818 100.843 64.4818 103.243 64.3818C105.543 64.3818 107.743 66.6818 108.343 69.6818Z" fill="#22272E"/>
<path d="M112.343 88.7818L102.843 89.7818C101.143 89.9818 99.5425 88.7819 99.2425 87.0819L98.9425 85.4818C97.9425 79.8818 100.643 75.0818 104.943 74.7818C109.043 74.4818 113.143 78.6819 114.143 84.0819L114.443 85.8818C114.743 87.2818 113.843 88.5818 112.343 88.7818Z" fill="#22272E"/>
<path d="M132.743 68.4818C133.243 71.2818 132.143 73.5818 130.143 73.7818C128.143 73.8818 126.043 71.6818 125.543 68.8818C125.043 66.0818 126.243 63.6818 128.243 63.5818C130.243 63.5818 132.243 65.7818 132.743 68.4818Z" fill="#22272E"/>
<path d="M136.343 86.2818L128.943 87.0818C127.243 87.2818 125.743 86.0818 125.443 84.3818L125.243 83.0818C124.243 77.8818 126.543 73.4818 130.143 73.1818C133.743 72.9818 137.343 76.8818 138.243 81.8818L138.543 83.3818C138.743 84.7818 137.743 86.0818 136.343 86.2818Z" fill="#22272E"/>
<path d="M80.5425 55.7818L89.7426 55.6818" stroke="#22272E" stroke-width="1.8" stroke-linecap="round" stroke-linejoin="round"/>
<path d="M89.5426 59.8818L94.7426 56.4818C95.3426 56.0818 95.3426 55.1818 94.6426 54.8818L88.2426 51.5818C87.5426 51.1818 86.7426 51.7818 86.9426 52.5818L88.1426 59.2818C88.2426 59.9818 88.9426 60.2818 89.5426 59.8818Z" fill="#22272E"/>
</svg>
