<svg version="1.2" baseProfile="tiny-ps" xmlns="http://www.w3.org/2000/svg" viewBox="0 0 1500 1000" width="1000" height="667">
	<title>2696461-ai</title>
	<style>
		tspan { white-space:pre }
		.shp0 { fill: none;stroke: #9fafc9;stroke-width: 2;stroke-dasharray: 8,8 } 
		.shp1 { fill: #e9eff4 } 
		.shp2 { fill: none;stroke: #ffffff;stroke-width: 2;stroke-dasharray: 8,8 } 
		.shp3 { fill: #000000 } 
		.shp4 { fill: #ffdacf } 
		.shp5 { fill: #5481db } 
		.shp6 { fill: #75a1e9 } 
		.shp7 { fill: none;stroke: #4a578e;stroke-width: 2;stroke-dasharray: 8,8 } 
		.shp8 { fill: #f7a794 } 
		.shp9 { fill: #bfd7fa } 
		.shp10 { fill: #ffffff } 
		.shp11 { fill: #ff8080 } 
		.shp12 { fill: #ffb0b0 } 
		.shp13 { fill: #fc8975 } 
		.shp14 { fill: #081466 } 
		.shp15 { fill: none;stroke: #5481db;stroke-width: 2;stroke-dasharray: 8,8 } 
		.shp16 { fill: none;stroke: #f7a794;stroke-linejoin:round;stroke-width: 2;stroke-dasharray: 8,8 } 
		.shp17 { fill: none;stroke: #bfd7fa;stroke-linejoin:round;stroke-width: 2;stroke-dasharray: 8,8 } 
		.shp18 { fill: #e0edfc } 
		.shp19 { fill: none;stroke: #5481db;stroke-dasharray: 7,7 } 
		.shp20 { fill: #a33646 } 
		.shp21 { fill: #e54a52 } 
		.shp22 { fill: none;stroke: #e54a52;stroke-width: 22;stroke-dasharray: 0,0 } 
		.shp23 { fill: none;stroke: #f7a794;stroke-width: 2;stroke-dasharray: 8,8 } 
		.shp24 { fill: none;stroke: #273b93;stroke-width: 2;stroke-dasharray: 8,8 } 
		.shp25 { fill: #273b93 } 
		.shp26 { fill: #fccabe } 
		.shp27 { fill: none;stroke: #000000;stroke-width: 2;stroke-dasharray: 8,8 } 
	</style>
	<g id="OBJECTS">
		<g id="&lt;Group&gt;">
			<g id="&lt;Group&gt;">
				<path id="&lt;Path&gt;" class="shp0" d="M474.02 740.84C389.36 628.65 283.42 688 208.15 686.98C119.33 685.77 92.04 562.79 153.96 510.42C175.3 492.38 202.14 482.22 228.97 474.39C268.71 462.8 321.4 451.52 343.61 412.29C379.27 349.26 325.83 247.94 409.58 211.88C508.48 169.3 569.2 280.01 660.23 287.27C748.48 294.31 832.83 241.11 905.39 197.75C960.89 164.59 1032.31 142.14 1088.77 173.63C1145.53 205.29 1173.32 266.78 1179.23 329.36C1183.97 379.57 1168.43 422.82 1163.74 471.51C1162.46 484.83 1164.24 499.02 1171.99 509.93C1195.68 543.25 1269 541.03 1304.95 556.03C1363.73 580.55 1422.11 634.82 1384.63 702.76C1349.26 766.86 1266.91 778.9 1200.8 782.95C1109.87 788.52 973.36 779.81 873.72 781.51" />
				<path id="&lt;Path&gt;" class="shp0" d="M722.78 117.68C722.78 121.76 719.47 125.07 715.39 125.07C711.31 125.07 708 121.76 708 117.68C708 113.6 711.31 110.29 715.39 110.29C719.47 110.29 722.78 113.6 722.78 117.68Z" />
				<path id="&lt;Path&gt;" class="shp0" d="M1047.07 195.83C1047.07 199.91 1043.76 203.22 1039.68 203.22C1035.59 203.22 1032.29 199.91 1032.29 195.83C1032.29 191.75 1035.59 188.44 1039.68 188.44C1043.76 188.44 1047.07 191.75 1047.07 195.83Z" />
				<path id="&lt;Path&gt;" class="shp0" d="M1329.26 639.9C1329.26 643.98 1325.95 647.29 1321.87 647.29C1317.78 647.29 1314.48 643.98 1314.48 639.9C1314.48 635.82 1317.78 632.51 1321.87 632.51C1325.95 632.51 1329.26 635.82 1329.26 639.9Z" />
				<path id="&lt;Path&gt;" class="shp0" d="M207.29 578.31C207.29 582.39 203.98 585.7 199.9 585.7C195.82 585.7 192.51 582.39 192.51 578.31C192.51 574.23 195.82 570.92 199.9 570.92C203.98 570.92 207.29 574.23 207.29 578.31Z" />
				<g id="&lt;Group&gt;">
					<path id="&lt;Path&gt;" class="shp1" d="M759.64 155.87L752.91 155.87C751.71 155.87 750.73 154.89 750.73 153.68L750.73 146.95C750.73 145.74 751.71 144.76 752.91 144.76L759.64 144.76C760.85 144.76 761.83 145.74 761.83 146.95L761.83 153.68C761.83 154.89 760.85 155.87 759.64 155.87Z" />
				</g>
				<g id="&lt;Group&gt;">
					<path id="&lt;Path&gt;" class="shp1" d="M1109.29 316.82L1102.56 316.82C1101.36 316.82 1100.38 315.84 1100.38 314.63L1100.38 307.9C1100.38 306.69 1101.36 305.71 1102.56 305.71L1109.29 305.71C1110.5 305.71 1111.48 306.69 1111.48 307.9L1111.48 314.63C1111.48 315.84 1110.5 316.82 1109.29 316.82Z" />
				</g>
				<g id="&lt;Group&gt;">
					<path id="&lt;Path&gt;" class="shp1" d="M299.56 287.97L292.83 287.97C291.62 287.97 290.64 286.99 290.64 285.78L290.64 279.05C290.64 277.84 291.62 276.86 292.83 276.86L299.56 276.86C300.76 276.86 301.74 277.84 301.74 279.05L301.74 285.78C301.74 286.99 300.76 287.97 299.56 287.97Z" />
				</g>
				<path id="&lt;Path&gt;" class="shp0" d="M247.76 227.77L268.88 227.77" />
				<path id="&lt;Path&gt;" class="shp0" d="M157.6 545.06L178.71 545.06" />
				<path id="&lt;Path&gt;" class="shp0" d="M1104.33 270.04L1132.28 270.04" />
				<path id="&lt;Path&gt;" class="shp0" d="M1334.39 529.71L1362.34 529.71" />
				<path id="&lt;Path&gt;" class="shp0" d="M884.6 136.24L908.73 136.24" />
				<g id="&lt;Group&gt;">
					<path id="&lt;Path&gt;" class="shp1" d="M1361.74 375.58L1355.01 375.58C1353.81 375.58 1352.83 374.6 1352.83 373.39L1352.83 366.66C1352.83 365.45 1353.81 364.47 1355.01 364.47L1361.74 364.47C1362.95 364.47 1363.93 365.45 1363.93 366.66L1363.93 373.39C1363.93 374.6 1362.95 375.58 1361.74 375.58Z" />
				</g>
			</g>
			<g id="&lt;Group&gt;">
				<g id="&lt;Group&gt;">
					<g id="&lt;Group&gt;">
						<path id="&lt;Path&gt;" class="shp1" d="M593.83 736.22C505.75 631.15 452.38 509.31 439.8 384.61C435.02 337.27 436.69 287.55 462.54 244.38C465.48 239.47 474.39 238.9 478.25 243.36C539.09 313.7 587.41 391.29 606.76 474.33C626.47 558.88 615.63 645.9 604.73 731.66" />
					</g>
					<g id="&lt;Group&gt;">
						<path id="&lt;Path&gt;" class="shp1" d="M517.77 787.89C477.61 647.1 379.13 539.21 254.96 477.9C250.29 475.6 245.15 480.53 247.09 485.43C280.68 570 317.12 655.76 381.11 721.42C414.99 756.17 455.55 784.07 498.13 807.64" />
					</g>
					<g id="&lt;Group&gt;">
						<path id="&lt;Path&gt;" class="shp1" d="M500.14 821.69C406.9 744.02 301.27 725.89 194.53 718.14C190.01 717.81 187.36 723.18 190.43 726.52C227.6 766.86 276.11 796.01 327.47 815.6C382.66 836.65 441.29 847.21 499.91 854.44" />
					</g>
					<g id="&lt;Group&gt;">
						<path id="&lt;Path&gt;" class="shp1" d="M879.89 644.59C875.4 526.38 865.07 447.99 833.55 333.97C829.32 318.64 808.68 275.02 794.76 255.21C792.56 252.09 787.7 253.05 786.89 256.78C769.5 336.84 763.41 419.35 768.86 501.1C771 533.07 774.96 565.26 785.86 595.39C798.31 629.82 819.36 660.4 840.76 690.11" />
					</g>
					<g id="&lt;Group&gt;">
						<path id="&lt;Path&gt;" class="shp1" d="M861.2 763.59C876.38 668.81 866.9 572.17 877.04 476.86C887.19 381.54 921.29 282.09 1003.61 221.15C1006.3 219.16 1009.61 217.09 1012.98 217.88C1017.34 218.91 1018.66 223.79 1019.11 227.82C1024.82 278.94 1017.89 330.47 1009.5 381.29C991.28 491.63 966.13 601.04 934.19 708.84" />
					</g>
					<g id="&lt;Group&gt;">
						<path id="&lt;Path&gt;" class="shp1" d="M920.47 791.91C938.66 632.81 1019.18 478.21 1121.51 354.83C1122.87 353.2 1125.55 353.89 1125.94 355.98C1155.2 515.31 1085.29 688.89 953.38 783.07" />
					</g>
					<g id="&lt;Group&gt;">
						<path id="&lt;Path&gt;" class="shp1" d="M952.57 811.29C1018.42 715.68 1125.43 657.31 1232.94 613.23C1234.37 612.64 1235.75 613.97 1235.38 615.47C1199.6 763.31 1079.29 829.57 962.8 844.9" />
					</g>
					<path id="&lt;Path&gt;" class="shp2" d="M195.77 723.19C248.13 745.53 344.45 777.2 484.72 818.2" />
					<path id="&lt;Path&gt;" class="shp2" d="M256.52 485.09C363.8 602.17 439.11 698.61 482.46 774.43" />
					<path id="&lt;Path&gt;" class="shp2" d="M466.36 254.15C498.06 440.42 546.02 594.06 610.23 715.07" />
					<path id="&lt;Path&gt;" class="shp2" d="M797.05 280.44C812.36 432.99 824.75 553.24 834.22 641.2" />
					<path id="&lt;Path&gt;" class="shp2" d="M999.27 249.15C928.49 432.93 889.91 581.99 883.52 696.35" />
					<path id="&lt;Path&gt;" class="shp2" d="M930.69 746.39C934.89 742.19 1058.63 587.67 1113.33 397.5" />
					<path id="&lt;Path&gt;" class="shp2" d="M970.41 819.23C1061.83 790.79 1164.89 728.58 1214.08 642.82" />
				</g>
				<g id="&lt;Group&gt;">
					<path id="&lt;Path&gt;" class="shp0" d="M557.19 804.43C512.55 744.61 461.71 689.43 405.76 640.03C394.3 629.92 382.42 619.8 374.59 606.67C366.75 593.55 363.6 576.54 370.6 562.95C376.55 551.38 388.99 544.12 401.8 541.85C414.61 539.57 427.81 541.69 440.38 545.03C461.2 550.55 481.33 559.54 497.99 573.19C527.37 597.27 543.72 633.77 554.15 670.29C564.59 706.81 570.17 744.73 583.24 780.4" />
					<path id="&lt;Path&gt;" class="shp0" d="M382.68 549.56C417.58 570.58 464.14 614.59 489.68 646.34C515.21 678.08 555.8 750 568.71 792.74" />
					<path id="&lt;Path&gt;" class="shp0" d="M438 669.68C465.52 661.21 486.57 658.59 501.14 661.81" />
					<path id="&lt;Path&gt;" class="shp0" d="M386.24 621.8C418.77 613.94 445.1 612.95 465.21 618.82" />
					<path id="&lt;Path&gt;" class="shp0" d="M450.36 603.13C453.94 578.64 453.96 560.26 450.4 547.98" />
					<path id="&lt;Path&gt;" class="shp0" d="M494.58 652.68C500.41 617.54 501.55 591.05 497.99 573.19" />
					<path id="&lt;Path&gt;" class="shp0" d="M513.83 681.09C522.7 644.13 526.1 617.78 524.03 602.03" />
					<path id="&lt;Path&gt;" class="shp0" d="M463.77 695.19C490.52 692.64 510.2 692.86 522.8 695.84" />
					<path id="&lt;Path&gt;" class="shp0" d="M431.59 586.65C411.16 581.81 389.44 580.7 366.42 583.33" />
				</g>
				<g id="&lt;Group&gt;">
					<path id="&lt;Path&gt;" class="shp0" d="M935.38 830.19C971.12 761.16 1014.01 695.83 1063.13 635.59C1073.2 623.25 1083.69 610.84 1089.52 596.02C1095.34 581.2 1095.7 563.19 1086.21 550.41C1078.13 539.53 1064.12 534.18 1050.57 534.01C1037.02 533.84 1023.81 538.26 1011.45 543.82C990.99 553.02 971.83 565.67 957.02 582.52C930.92 612.24 920.3 652.53 915.76 691.83C911.23 731.13 911.92 771.05 904.54 809.91" />
					<path id="&lt;Path&gt;" class="shp0" d="M1071.52 538.7C1039.22 566.22 998.82 619.34 977.97 656.28C957.11 693.23 927.59 774.02 921.55 820.14" />
					<path id="&lt;Path&gt;" class="shp0" d="M1057.86 642.3C1031.25 640.94 1004.96 645 978.98 654.5" />
					<path id="&lt;Path&gt;" class="shp0" d="M1011.05 605.22C1003.21 580.66 1000.08 561.77 1001.66 548.55" />
					<path id="&lt;Path&gt;" class="shp0" d="M974 663.64C962.05 628.51 956.39 601.48 957.02 582.52" />
					<path id="&lt;Path&gt;" class="shp0" d="M966.43 679.21C951.83 643.33 944.26 617.13 943.72 600.59" />
					<path id="&lt;Path&gt;" class="shp0" d="M1012.87 702.1C984.95 704.02 964.76 707.58 952.32 712.78" />
					<path id="&lt;Path&gt;" class="shp0" d="M1021.26 592.93C1050.22 582.52 1074.47 577.1 1094.01 576.66" />
					<path id="&lt;Path&gt;" class="shp0" d="M1032.59 536.24C1030.13 555.45 1030.32 569.48 1033.18 578.31" />
					<path id="&lt;Path&gt;" class="shp0" d="M1006.12 612.98C1041 604.25 1068.07 600.27 1087.33 601.03" />
				</g>
				<g id="&lt;Group&gt;">
					<path id="&lt;Path&gt;" class="shp0" d="M867.8 610.45C897.38 521.83 936.13 436.28 983.25 355.6C992.9 339.08 1003.05 322.39 1007.2 303.71C1011.36 285.04 1008.43 263.58 994.78 250.18C983.16 238.76 965.53 235.02 949.41 237.34C933.29 239.67 918.43 247.37 904.8 256.27C882.22 271 859.51 304.03 844.62 346.9C829.02 391.81 814.15 511.43 827.41 592.11" />
					<path id="&lt;Path&gt;" class="shp0" d="M975.16 239.01C941.94 277.69 903.87 348.29 885.98 396.04C868.09 443.79 848.09 545.2 849.51 601.09" />
					<path id="&lt;Path&gt;" class="shp0" d="M865.07 472.44C844.84 451.47 832.88 434 829.22 420.05" />
					<path id="&lt;Path&gt;" class="shp0" d="M871.73 291.18C876.22 323.96 883.96 351.56 894.97 373.98" />
					<path id="&lt;Path&gt;" class="shp0" d="M899.2 260.3C901.75 298.57 905.94 324.64 911.79 338.52" />
					<path id="&lt;Path&gt;" class="shp0" d="M941.2 239.01C937.54 260.87 936.55 278.27 938.23 291.18" />
					<path id="&lt;Path&gt;" class="shp0" d="M923.22 317.01C951.73 314.93 980 309.06 1008.02 299.41" />
					<path id="&lt;Path&gt;" class="shp0" d="M947.58 276.4C962.12 273.47 980.06 267.54 1001.43 258.63" />
					<path id="&lt;Path&gt;" class="shp0" d="M858.7 505.69C877.47 493.55 898.06 483.52 920.47 475.61" />
				</g>
			</g>
			<g id="&lt;Group&gt;">
				<g id="&lt;Group&gt;">
					<g id="&lt;Group&gt;">
						<path id="&lt;Path&gt;" class="shp3" d="M703.44 756.3C715.29 760.62 721.25 764.54 721.33 768.04C721.4 771.05 695.56 770.97 693.95 768.97C692.23 766.85 692.86 762.84 695.85 756.96L703.44 756.3Z" />
					</g>
					<g id="&lt;Group&gt;">
						<path id="&lt;Path&gt;" class="shp4" d="M703.06 741.63L703.45 756.75C703.08 758.39 702.02 759.33 700.27 759.56C698.53 759.79 697.05 758.92 695.85 756.96L695.07 738.04" />
					</g>
					<g id="&lt;Group&gt;">
						<path id="&lt;Path&gt;" class="shp5" d="M733.25 405C741.89 432.25 744.59 483.42 741.35 558.52C738.03 635.45 706.3 746.29 702.5 746.4C699.96 746.47 697.55 746.34 695.28 746.03C685.2 671.71 679.62 613.62 678.52 571.76C675.98 475.08 641.36 452.91 652.42 402.67" />
					</g>
					<path id="&lt;Path&gt;" class="shp6" d="M704.99 740.26L704.28 746.92L693.67 747.22L693.16 740.59L704.99 740.26Z" />
				</g>
				<g id="&lt;Group&gt;">
					<g id="&lt;Group&gt;">
						<path id="&lt;Path&gt;" class="shp3" d="M639.36 757.8C651.21 762.13 657.17 766.04 657.25 769.55C657.32 772.56 631.48 772.48 629.87 770.48C628.15 768.35 628.78 764.35 631.76 758.47L639.36 757.8Z" />
					</g>
					<g id="&lt;Group&gt;">
						<path id="&lt;Path&gt;" class="shp4" d="M638.98 743.13L639.37 758.26C639 759.9 637.94 760.83 636.19 761.06C634.45 761.29 632.97 760.43 631.76 758.47L630.99 739.55" />
					</g>
					<g id="&lt;Group&gt;">
						<path id="&lt;Path&gt;" class="shp5" d="M683.86 405.86C683.43 470.18 680 527.64 673.57 578.25C669.27 612.1 642.47 743.15 639.71 747.87C637.18 747.94 633.95 748.02 630.04 748.13C621.2 665.99 616.23 603.99 615.13 562.13C612.59 465.45 600.57 453.77 611.62 403.53" />
					</g>
					<path id="&lt;Path&gt;" class="shp6" d="M641.17 741.76L640.45 748.42L629.84 748.71L629.34 742.09L641.17 741.76Z" />
					<path id="&lt;Path&gt;" class="shp7" d="M681.52 443.64C680.51 468.1 679.25 499.9 677.75 539.05" />
				</g>
				<g id="&lt;Group&gt;">
					<g id="&lt;Group&gt;">
						<g id="&lt;Group&gt;">
							<path id="&lt;Path&gt;" class="shp4" d="M806.58 197.99L811.24 189.21C810.47 186.95 810.09 184.39 810.09 181.54C810.1 179.64 810.92 174.59 811.93 174.18C812.94 173.76 813.41 178.43 813.84 178.26C814.27 178.08 817.5 168.89 819.33 169.02C819.94 169.06 819.19 172.05 817.08 177.99C819.16 171.54 820.68 168.44 821.64 168.66C822.6 168.88 821.94 172.07 819.65 178.21C821.66 172.37 823.07 169.55 823.88 169.74C824.69 169.93 824.04 172.87 821.93 178.56C823.92 173.5 825.14 171.11 825.58 171.39C826.89 172.24 825.28 176.62 824.99 177.62C824.26 180.21 822.45 188.92 818.22 191.17C818 191.29 817.46 193.74 816.6 198.51" />
							<g id="&lt;Group&gt;">
								<g id="&lt;Group&gt;">
									<path id="&lt;Path&gt;" class="shp8" d="M814.11 179.37C815.1 180.63 816.22 182.04 816.76 183.56C817.44 185.49 816.81 187.04 816.14 188.84C816.01 189.17 816.5 189.32 816.68 189.07C819.36 185.25 817.27 181.96 814.48 179C814.24 178.75 813.92 179.11 814.11 179.37Z" />
								</g>
							</g>
						</g>
					</g>
					<g id="&lt;Group&gt;">
						<path id="&lt;Path&gt;" class="shp4" d="M755.7 289.04C766.79 283.24 779.19 274.93 785.39 267.2C803.5 244.61 814.32 219.73 817.85 192.56L810.84 187.91C791.38 212.68 777.71 228.85 769.84 236.44C764.61 241.49 754.69 246.01 744.21 252.44" />
					</g>
					<g id="&lt;Group&gt;">
						<path id="&lt;Path&gt;" class="shp9" d="M745.82 250.23C724.32 255.61 698.22 264.56 687.13 270.45L670.2 271.13C662.01 272.8 636.24 283.79 630.79 290.34C616.09 308.04 611.62 361.28 606.85 413.62C648.43 426.68 705.54 430.5 736.43 414.59C736.12 395.83 728.29 379.8 727.08 359.98C725.83 339.47 730.35 326.44 722.97 306.94C728.64 303.38 744.31 296.91 759.4 289.04L745.82 250.23Z" />
					</g>
					<path id="&lt;Path&gt;" class="shp10" d="M738.19 251.8L751.85 293.62L761.89 289.04L748.27 249.06L738.19 251.8Z" />
				</g>
				<g id="&lt;Group&gt;">
					<path id="&lt;Path&gt;" class="shp3" d="M664.65 201.16C653.79 206.75 648.31 218.42 648.94 230.65C649.62 243.94 657.66 256.5 674.76 255.56C677.02 255.44 679.27 255.4 681.48 254.95C685.16 254.2 688.82 253.1 692.01 251.14C697.27 247.91 700.95 242.47 702.67 236.57C704.38 230.66 704.24 224.33 702.98 218.3C702.29 215 701.21 211.65 698.96 209.11C697.82 207.83 696.41 206.76 695.54 205.25C694.74 203.86 693.95 202.96 692.58 202.01C690.06 200.25 687.03 199.32 684 198.92C677.85 198.12 670.15 198.32 664.65 201.16Z" />
				</g>
				<g id="&lt;Group&gt;">
					<path id="&lt;Path&gt;" class="shp11" d="M709.33 236.53C709.9 242.09 706.27 247.04 701.24 247.58C696.2 248.11 691.65 244.03 691.09 238.47C690.52 232.9 694.15 227.95 699.18 227.42C704.22 226.88 708.77 230.96 709.33 236.53Z" />
				</g>
				<g id="&lt;Group&gt;">
					<path id="&lt;Path&gt;" class="shp12" d="M705 237.41C705.39 241.23 703.04 244.61 699.75 244.96C696.45 245.31 693.47 242.5 693.08 238.68C692.69 234.86 695.05 231.49 698.34 231.14C701.63 230.79 704.62 233.6 705 237.41Z" />
				</g>
				<g id="&lt;Group&gt;">
					<path id="&lt;Path&gt;" class="shp4" d="M687.13 270.45L686.51 248.61L674.12 249.94L669.9 272.1C672.16 274.61 675.68 275.53 680.44 274.87C684.56 274.31 686.79 272.83 687.13 270.45Z" />
				</g>
				<path id="&lt;Path&gt;" class="shp10" d="M670.98 266.43C672.26 268.73 675.42 271.55 680.44 274.87L673.28 282.79L666.43 270.25L670.98 266.43Z" />
				<path id="&lt;Path&gt;" class="shp10" d="M687.03 266.95C686.11 269.88 683.91 272.52 680.44 274.87L685.27 280.9L690.22 269.15L687.03 266.95Z" />
				<g id="&lt;Group&gt;">
					<path id="&lt;Path&gt;" class="shp4" d="M666.48 239.68C665.98 231.12 668.52 221.92 673.04 216.89C677.55 211.87 686 211.13 692.22 211.98C694.35 212.27 696.47 212.99 698.14 214.38C704.29 219.48 703.88 231.25 703.45 238.46C703.08 244.59 701.27 250.77 697.45 255.5C696.24 256.99 694.8 258.35 693.04 259.09C687.16 261.55 678.78 260.2 673.77 256.22C668.88 252.33 666.83 245.79 666.48 239.68Z" />
				</g>
				<g id="&lt;Group&gt;">
					<path id="&lt;Path&gt;" class="shp3" d="M663.72 246.58C661.45 247.64 657.91 248.41 656.14 245.91C654.73 243.92 655.96 240.92 656.46 238.8C658.07 231.9 660.07 225.1 662.43 218.43C663.65 214.99 665 211.54 667.14 208.59C671.33 202.83 683.23 200.15 690.22 200.82C697.91 200.31 710.16 212.83 703.46 227.4C702.46 223.84 701.05 222.07 698.42 219.06C695.89 221.6 689.69 227.17 673.43 227.17C669.94 230.51 672.64 237.27 670.11 241.42C668.66 243.81 666.23 245.41 663.72 246.58Z" />
				</g>
				<g id="&lt;Group&gt;">
					<path id="&lt;Path&gt;" class="shp13" d="M671.67 241.14C671.99 239.15 670.72 237.88 669.4 237.74C665.86 237.37 664.81 242.92 666.18 245.44C667.2 247.32 669.76 248.86 671.09 246.6" />
				</g>
				<g id="&lt;Group&gt;">
					<g id="&lt;Group&gt;">
						<g id="&lt;Group&gt;">
							<path id="&lt;Path&gt;" class="shp14" d="M677.61 254.16C676.74 254.08 675.86 253.95 675.01 253.73C673.03 253.24 670.28 252.09 668.38 249.4C667.69 248.43 667.35 247.52 667.32 246.62C667.31 246.4 667.49 246.21 667.71 246.2C667.93 246.2 668.11 246.37 668.12 246.6C668.14 247.33 668.44 248.09 669.03 248.92C670.78 251.41 673.35 252.48 675.2 252.94C677.67 253.55 680.31 253.47 682.59 253.35C682.81 253.33 683 253.51 683.01 253.73C683.02 253.96 682.85 254.15 682.63 254.17C681.07 254.25 679.35 254.32 677.61 254.16Z" />
						</g>
						<g id="&lt;Group&gt;">
							<path id="&lt;Path&gt;" class="shp14" d="M684.43 252.73C683.76 252.36 682.9 252.37 682.17 252.61C679.62 253.43 682.38 256.74 684.69 255.04C684.88 254.9 685.04 254.73 685.15 254.53C685.48 253.91 685.1 253.1 684.43 252.73Z" />
						</g>
					</g>
					<g id="&lt;Group&gt;">
						<g id="&lt;Group&gt;">
							<g id="&lt;Group&gt;">
								<path id="&lt;Path&gt;" class="shp11" d="M664.1 230.61C664.69 224.94 666.65 215.56 670.14 211.11C674.62 205.38 681.13 200.15 686.88 200.15C688.21 200.01 689.32 200.23 690.22 200.82C684.3 202.25 679.23 205.14 674.55 210.09C669.86 215.05 667.22 224.71 667.1 231.6" />
							</g>
						</g>
					</g>
					<g id="&lt;Group&gt;">
						<path id="&lt;Path&gt;" class="shp11" d="M674.71 238.32C675.23 243.38 671.93 247.88 667.35 248.37C662.77 248.85 658.64 245.14 658.12 240.08C657.61 235.02 660.9 230.52 665.49 230.03C670.07 229.54 674.2 233.25 674.71 238.32Z" />
					</g>
					<g id="&lt;Group&gt;">
						<path id="&lt;Path&gt;" class="shp12" d="M670.78 239.12C671.13 242.59 668.99 245.66 666 245.98C663 246.3 660.29 243.75 659.93 240.28C659.58 236.8 661.72 233.73 664.72 233.41C667.71 233.1 670.42 235.65 670.78 239.12Z" />
					</g>
				</g>
				<g id="&lt;Group&gt;">
					<path id="&lt;Path&gt;" class="shp3" d="M662.89 205.63C663.63 204.32 663.39 202.68 662.9 201.26C660.87 195.38 654.69 191.27 648.48 191.54C642.27 191.81 636.52 196.36 634.69 202.3C634.25 203.74 634.02 205.3 634.35 206.77C634.88 209.08 636.76 210.9 638.91 211.89C641.06 212.88 643.46 213.16 645.82 213.3C649.03 213.5 652.38 213.45 655.31 212.13C658.25 210.81 660.69 207.93 660.6 204.71" />
				</g>
				<g id="&lt;Group&gt;">
					<path id="&lt;Path&gt;" class="shp3" d="M638 205.86C639.53 207.77 639.52 210.66 638.23 212.74C636.94 214.82 634.55 216.08 632.12 216.33C629.69 216.57 627.22 215.88 625.08 214.71C622.99 213.58 621.02 211.74 620.83 209.38C620.25 202.34 628.48 193.7 637.39 201.02" />
				</g>
				<g id="&lt;Group&gt;">
					<path id="&lt;Path&gt;" class="shp3" d="M625.5 210.89C625.82 212.28 624.78 214.88 624.63 216.3C624.49 217.73 623.91 219.15 622.84 220.09C621.35 221.4 619.2 221.58 617.21 221.55C615.69 221.52 614.14 221.4 612.75 220.79C610.95 220.01 609.53 218.4 608.98 216.52C608.42 214.63 608.74 212.51 609.83 210.88C613.23 205.76 622.46 204.99 625.5 210.89Z" />
				</g>
				<g id="&lt;Group&gt;">
					<path id="&lt;Path&gt;" class="shp3" d="M611.98 219.43C612.92 222.67 610.45 225.81 609.57 229.07C608.48 233.14 609.91 237.42 610.01 241.63C610.02 241.87 610.01 242.13 609.83 242.28C609.72 242.38 609.55 242.41 609.4 242.42C605.2 242.95 600.75 242.65 597.07 240.58C593.38 238.52 590.65 234.39 591.14 230.2C591.42 227.75 592.72 225.54 594.22 223.59C596.46 220.67 599.32 218.11 602.8 216.9C606.28 215.7 610.42 216.05 613.25 218.41" />
				</g>
				<g id="&lt;Group&gt;">
					<path id="&lt;Path&gt;" class="shp15" d="M722.97 306.94L716.63 290.85" />
				</g>
				<path id="&lt;Path&gt;" class="shp16" d="M693.49 234.4C695.24 238.99 696.06 241.81 695.96 242.86C695.86 243.9 694.21 244.26 691.02 243.92" />
				<g id="&lt;Group&gt;">
					<path id="&lt;Path&gt;" class="shp3" d="M683.62 235.38C683.76 236.61 683.22 237.68 682.42 237.77C681.62 237.86 680.86 236.94 680.72 235.71C680.58 234.48 681.12 233.41 681.92 233.32C682.72 233.23 683.48 234.15 683.62 235.38Z" />
				</g>
				<g id="&lt;Group&gt;">
					<path id="&lt;Path&gt;" class="shp3" d="M700.27 235.23C700.4 236.46 699.87 237.53 699.06 237.62C698.26 237.71 697.5 236.79 697.36 235.56C697.23 234.33 697.76 233.26 698.56 233.17C699.37 233.08 700.13 234 700.27 235.23Z" />
				</g>
				<path id="&lt;Path&gt;" class="shp10" d="M685.64 249.56L695.04 248.72C695.08 252.74 693.67 254.79 690.83 254.88C687.04 255 685.31 253.22 685.64 249.56Z" />
				<g id="&lt;Group&gt;">
					<path id="&lt;Path&gt;" class="shp3" d="M696.71 228.79C696.83 228.57 697.08 228.48 697.3 228.44C699.09 228.04 700.92 229.15 701.5 230.96" />
				</g>
				<g id="&lt;Group&gt;">
					<path id="&lt;Path&gt;" class="shp3" d="M684.35 228.91C684.25 228.67 683.98 228.56 683.74 228.5C681.78 227.95 679.5 228.9 678.52 230.69" />
				</g>
				<g id="&lt;Group&gt;">
					<g id="&lt;Group&gt;">
						<path id="&lt;Path&gt;" class="shp10" d="M468.99 123.27C495.89 106.61 531.2 114.9 547.87 141.8C558.14 158.38 558.9 178.15 551.69 194.78L564.79 206.4L545.65 205.45C541.39 211.38 535.93 216.59 529.34 220.68C502.44 237.34 467.13 229.04 450.46 202.15C433.8 175.25 442.1 139.94 468.99 123.27Z" />
						<path id="&lt;Path&gt;" class="shp17" d="M468.99 123.27C495.89 106.61 531.2 114.9 547.87 141.8C558.14 158.38 558.9 178.15 551.69 194.78L564.79 206.4L545.65 205.45C541.39 211.38 535.93 216.59 529.34 220.68C502.44 237.34 467.13 229.04 450.46 202.15C433.8 175.25 442.1 139.94 468.99 123.27Z" />
					</g>
					<g id="&lt;Group&gt;">
						<g id="&lt;Group&gt;">
							<path id="&lt;Path&gt;" class="shp9" d="M523.82 193.68L474.17 192.99L468.68 157.29L528.69 157.31L523.82 193.68Z" />
						</g>
						<g id="&lt;Group&gt;">
							<path id="&lt;Path&gt;" class="shp9" d="M528.69 157.31L468.68 157.29L498.7 132.63L528.69 157.31Z" />
						</g>
						<path id="&lt;Path&gt;" class="shp10" d="M518.72 188.38L477.76 188.37L477.77 153.77L518.73 153.78L518.72 188.38Z" />
						<g id="&lt;Group&gt;">
							<path id="&lt;Path&gt;" class="shp18" d="M468.68 157.29L468.67 196.31L498.68 178.19L468.68 157.29Z" />
						</g>
						<g id="&lt;Group&gt;">
							<path id="&lt;Path&gt;" class="shp18" d="M528.69 157.31L528.68 196.33L498.68 178.19L528.69 157.31Z" />
						</g>
						<g id="&lt;Group&gt;">
							<path id="&lt;Path&gt;" class="shp18" d="M528.68 196.33L468.67 196.31L498.68 171.65L528.68 196.33Z" />
						</g>
						<g id="&lt;Group&gt;">
							<path id="&lt;Path&gt;" class="shp19" d="M468.67 196.31L498.68 171.65L528.68 196.33" />
						</g>
						<path id="&lt;Path&gt;" class="shp19" d="M502.99 175.19L528.69 157.31" />
					</g>
					<path id="&lt;Path&gt;" class="shp19" d="M494.38 175.19L468.68 157.29" />
				</g>
			</g>
			<g id="&lt;Group&gt;">
				<g id="&lt;Group&gt;">
					<g id="&lt;Group&gt;">
						<path id="&lt;Path&gt;" class="shp20" d="M1044.95 741.15C1048.07 741.99 1050.26 744.33 1051.7 746.88C1053.29 749.71 1054.43 752.84 1054.27 756.19C1055.54 755.81 1056.4 754.7 1057.09 753.63C1058.8 750.99 1060.29 747.97 1060.07 744.93C1059.83 741.48 1056.74 737.51 1054.28 735.18C1052.97 733.93 1051.75 734.45 1049.79 734.93" />
					</g>
					<g id="&lt;Group&gt;">
						<path id="&lt;Path&gt;" class="shp21" d="M1054.23 735.1C1053.07 732.63 1048.87 731.39 1045.58 731.77C1036.03 734.5 1030.58 752.03 1033.18 758.7C1034.53 760.59 1037.28 761.28 1039.86 761.02C1042.08 760.79 1043.15 760.43 1044.95 759.66C1045.45 759.44 1045.74 758.93 1045.61 758.47C1044.49 754.46 1044.24 743.97 1054.23 735.1Z" />
					</g>
					<g id="&lt;Group&gt;">
						<path id="&lt;Path&gt;" class="shp20" d="M1061.72 747.58C1064.84 748.43 1067.03 750.77 1068.47 753.32C1070.06 756.15 1071.2 759.28 1071.04 762.63C1072.31 762.25 1073.17 761.14 1073.86 760.07C1075.57 757.43 1077.06 754.41 1076.84 751.37C1076.6 747.92 1073.51 743.95 1071.05 741.62C1069.74 740.37 1068.52 740.89 1066.56 741.37" />
					</g>
					<g id="&lt;Group&gt;">
						<path id="&lt;Path&gt;" class="shp21" d="M1071 741.54C1069.84 739.07 1065.64 737.83 1062.35 738.21C1052.8 740.94 1047.35 758.47 1049.95 765.13C1051.3 767.03 1054.05 767.72 1056.63 767.46C1058.85 767.23 1059.92 766.87 1061.72 766.1C1062.22 765.88 1062.51 765.37 1062.38 764.91C1061.26 760.9 1061.01 750.41 1071 741.54Z" />
					</g>
					<g id="&lt;Group&gt;">
						<path id="&lt;Path&gt;" class="shp20" d="M1081.21 751.23C1084.33 752.08 1086.52 754.41 1087.96 756.96C1089.56 759.79 1090.69 762.92 1090.53 766.27C1091.8 765.89 1092.66 764.78 1093.35 763.72C1095.06 761.07 1096.55 758.05 1096.33 755.02C1096.09 751.57 1093 747.59 1090.54 745.26C1089.23 744.02 1088.01 744.53 1086.05 745.01" />
					</g>
					<g id="&lt;Group&gt;">
						<path id="&lt;Path&gt;" class="shp21" d="M1090.49 745.18C1089.33 742.71 1085.13 741.47 1081.84 741.85C1072.29 744.59 1066.84 762.12 1069.44 768.78C1070.79 770.68 1073.54 771.37 1076.12 771.1C1078.34 770.88 1079.41 770.51 1081.21 769.74C1081.71 769.53 1082 769.02 1081.87 768.55C1080.75 764.54 1080.5 754.06 1090.49 745.18Z" />
					</g>
					<g id="&lt;Group&gt;">
						<path id="&lt;Path&gt;" class="shp20" d="M1098.84 753.08C1101.96 753.95 1104.13 756.3 1105.55 758.86C1107.13 761.7 1108.24 764.83 1108.06 768.19C1109.33 767.81 1110.2 766.71 1110.9 765.65C1112.62 763.02 1114.13 760 1113.94 756.97C1113.72 753.52 1110.65 749.52 1108.21 747.17C1106.91 745.92 1105.68 746.43 1103.73 746.89" />
					</g>
					<g id="&lt;Group&gt;">
						<path id="&lt;Path&gt;" class="shp21" d="M1108.16 747.09C1107.02 744.62 1102.83 743.35 1099.54 743.7C1089.96 746.38 1084.4 763.87 1086.95 770.55C1088.29 772.46 1091.04 773.17 1093.62 772.92C1095.84 772.71 1096.92 772.35 1098.72 771.59C1099.22 771.38 1099.51 770.87 1099.38 770.41C1098.29 766.39 1098.12 755.9 1108.16 747.09Z" />
					</g>
					<g id="&lt;Group&gt;">
						<path id="&lt;Path&gt;" class="shp20" d="M1115.72 758.11C1118.79 759.14 1120.84 761.59 1122.13 764.22C1123.57 767.13 1124.52 770.32 1124.18 773.66C1125.46 773.35 1126.39 772.29 1127.14 771.27C1128.99 768.73 1130.65 765.79 1130.6 762.75C1130.55 759.29 1127.69 755.15 1125.37 752.68C1124.13 751.37 1122.89 751.81 1120.91 752.18" />
					</g>
					<g id="&lt;Group&gt;">
						<path id="&lt;Path&gt;" class="shp21" d="M1125.33 752.6C1124.31 750.07 1120.19 748.59 1116.88 748.79C1107.19 750.98 1100.76 768.17 1102.98 774.97C1104.22 776.94 1106.93 777.79 1109.51 777.67C1111.75 777.57 1112.84 777.26 1114.67 776.6C1115.19 776.41 1115.5 775.92 1115.4 775.45C1114.51 771.38 1114.86 760.9 1125.33 752.6Z" />
					</g>
					<g id="&lt;Group&gt;">
						<path id="&lt;Path&gt;" class="shp20" d="M1133.67 767.98C1136.2 770 1137.28 773.01 1137.59 775.92C1137.93 779.16 1137.72 782.48 1136.25 785.49C1137.56 785.65 1138.8 784.97 1139.85 784.27C1142.47 782.52 1145.04 780.34 1146.04 777.47C1147.19 774.21 1145.93 769.33 1144.61 766.22C1143.9 764.55 1142.57 764.54 1140.59 764.2" />
					</g>
					<g id="&lt;Group&gt;">
						<path id="&lt;Path&gt;" class="shp21" d="M1144.59 766.12C1144.51 763.4 1141.15 760.59 1137.98 759.63C1128.13 758.34 1116.16 772.26 1115.9 779.41C1116.38 781.68 1118.63 783.41 1121.1 784.19C1123.23 784.87 1124.36 784.96 1126.31 784.97C1126.86 784.97 1127.32 784.62 1127.39 784.14C1127.96 780.02 1131.9 770.3 1144.59 766.12Z" />
					</g>
					<g id="&lt;Group&gt;">
						<path id="&lt;Path&gt;" class="shp20" d="M1151.45 777.1C1153.98 779.12 1155.05 782.13 1155.36 785.04C1155.7 788.27 1155.5 791.59 1154.02 794.61C1155.33 794.76 1156.57 794.09 1157.63 793.38C1160.24 791.64 1162.81 789.46 1163.82 786.59C1164.96 783.32 1163.71 778.45 1162.38 775.33C1161.67 773.67 1160.35 773.66 1158.36 773.32" />
					</g>
					<g id="&lt;Group&gt;">
						<path id="&lt;Path&gt;" class="shp21" d="M1162.37 775.24C1162.29 772.51 1158.92 769.7 1155.76 768.74C1145.9 767.46 1133.94 781.38 1133.67 788.52C1134.15 790.8 1136.41 792.53 1138.88 793.31C1141.01 793.99 1142.14 794.08 1144.09 794.08C1144.64 794.09 1145.1 793.73 1145.16 793.25C1145.73 789.13 1149.68 779.41 1162.37 775.24Z" />
					</g>
					<g id="&lt;Group&gt;">
						<path id="&lt;Path&gt;" class="shp20" d="M1170.77 787.73C1172.8 790.15 1173.18 793.29 1172.82 796.2C1172.43 799.43 1171.49 802.65 1169.36 805.35C1170.62 805.73 1171.98 805.28 1173.17 804.77C1176.13 803.51 1179.14 801.82 1180.77 799.18C1182.63 796.18 1182.49 791.19 1181.89 787.9C1181.57 786.15 1180.27 785.91 1178.4 785.23" />
					</g>
					<g id="&lt;Group&gt;">
						<path id="&lt;Path&gt;" class="shp21" d="M1181.9 787.81C1182.43 785.12 1179.76 781.78 1176.87 780.29C1167.5 777.32 1152.64 788.89 1150.78 795.85C1150.74 798.16 1152.56 800.25 1154.81 801.45C1156.75 802.48 1157.83 802.76 1159.75 803.11C1160.28 803.21 1160.81 802.94 1160.99 802.48C1162.47 798.54 1168.52 789.7 1181.9 787.81Z" />
					</g>
					<g id="&lt;Group&gt;">
						<path id="&lt;Path&gt;" class="shp20" d="M1181.51 805.22C1182.35 808.14 1181.36 811.17 1179.79 813.75C1178.05 816.61 1175.79 819.28 1172.67 821.08C1173.67 821.84 1175.12 821.88 1176.44 821.8C1179.72 821.62 1183.23 821.04 1185.87 819.14C1188.88 816.98 1190.93 813.53 1191.74 809.06C1192.05 807.3 1191.09 806.67 1189.65 805.43" />
					</g>
					<g id="&lt;Group&gt;">
						<path id="&lt;Path&gt;" class="shp21" d="M1191.79 808.97C1193.43 806.66 1192.39 802.69 1190.35 800.35C1182.94 794.49 1164.22 800.3 1159.52 806.13C1158.49 808.26 1159.28 810.79 1160.85 812.64C1162.21 814.24 1163.09 814.86 1164.72 815.82C1165.17 816.09 1165.78 816.02 1166.13 815.65C1169.19 812.49 1178.58 806.29 1191.79 808.97Z" />
					</g>
					<g id="&lt;Group&gt;">
						<path id="&lt;Path&gt;" class="shp20" d="M1185.38 819.93C1184.98 822.91 1182.81 825.43 1180.29 827.34C1177.49 829.46 1174.3 831.23 1170.65 831.92C1171.26 832.95 1172.61 833.45 1173.87 833.8C1177.01 834.66 1180.52 835.24 1183.76 834.3C1187.45 833.23 1191.84 830.08 1193.99 825.81C1195.12 824.33 1193.73 824.32 1192.89 822.7" />
					</g>
					<g id="&lt;Group&gt;">
						<path id="&lt;Path&gt;" class="shp21" d="M1193.99 825.81C1195.93 823.68 1195.42 819.62 1193.71 817.09C1187.13 810.51 1167.77 814.35 1162.32 819.65C1161.02 821.67 1161.47 824.27 1162.78 826.27C1163.91 827.99 1164.71 828.7 1166.19 829.82C1166.61 830.13 1167.22 830.12 1167.62 829.79C1171.08 826.97 1181.23 821.79 1193.99 825.81Z" />
					</g>
					<g id="&lt;Group&gt;">
						<path id="&lt;Path&gt;" class="shp20" d="M1180.85 834.98C1179.41 837.7 1176.47 839.5 1173.4 840.63C1169.99 841.88 1166.32 842.7 1162.61 842.36C1162.83 843.5 1163.94 844.34 1165.02 845.02C1167.69 846.69 1170.83 848.2 1174.24 848.19C1178.12 848.18 1183.41 846.39 1186.96 842.91C1188.56 841.82 1187.24 841.42 1187.02 839.66" />
					</g>
					<g id="&lt;Group&gt;">
						<path id="&lt;Path&gt;" class="shp21" d="M1186.96 842.91C1189.55 841.42 1190.5 837.43 1189.77 834.55C1185.84 826.5 1166.08 824.86 1159.03 828.42C1157.08 829.98 1156.59 832.57 1157.13 834.83C1157.6 836.78 1158.1 837.67 1159.12 839.14C1159.41 839.55 1159.99 839.71 1160.49 839.5C1164.77 837.77 1176.25 835.61 1186.96 842.91Z" />
					</g>
					<g id="&lt;Group&gt;">
						<path id="&lt;Path&gt;" class="shp20" d="M1171.34 850.03C1168.59 851.82 1165.03 852.15 1161.72 851.85C1158.05 851.51 1154.38 850.68 1151.31 848.82C1150.88 849.92 1151.39 851.12 1151.97 852.17C1153.41 854.77 1155.34 857.41 1158.34 858.84C1161.75 860.47 1167.37 861.12 1172.38 859.57C1174.38 859.28 1173.44 858.38 1174.2 856.73" />
					</g>
					<g id="&lt;Group&gt;">
						<path id="&lt;Path&gt;" class="shp21" d="M1172.38 859.57C1175.47 859.35 1178.48 856.24 1179.4 853.41C1180.33 844.69 1163.88 834.93 1155.76 835.08C1153.2 835.62 1151.35 837.69 1150.6 839.9C1149.95 841.81 1149.9 842.81 1150 844.52C1150.03 845 1150.45 845.39 1151 845.42C1155.71 845.7 1166.96 848.64 1172.38 859.57Z" />
					</g>
					<g id="&lt;Group&gt;">
						<path id="&lt;Path&gt;" class="shp20" d="M1154.06 858.5C1150.84 859.49 1147.32 858.88 1144.26 857.73C1140.87 856.45 1137.65 854.7 1135.34 852.12C1134.56 853.06 1134.64 854.34 1134.84 855.49C1135.34 858.35 1136.29 861.37 1138.67 863.52C1141.39 865.97 1146.53 868.06 1151.84 867.88C1153.84 868.13 1153.25 867.02 1154.53 865.65" />
					</g>
					<g id="&lt;Group&gt;">
						<path id="&lt;Path&gt;" class="shp21" d="M1151.84 867.88C1154.86 868.48 1158.78 866.3 1160.62 863.83C1164.45 855.74 1152.03 842.13 1144.22 840.15C1141.59 840.01 1139.13 841.51 1137.67 843.42C1136.4 845.07 1136.02 846.01 1135.54 847.67C1135.4 848.14 1135.68 848.62 1136.19 848.79C1140.59 850.29 1150.34 856.03 1151.84 867.88Z" />
					</g>
					<g id="&lt;Group&gt;">
						<path id="&lt;Path&gt;" class="shp20" d="M1131.5 863.5C1128.08 863.49 1124.99 861.88 1122.54 859.9C1119.83 857.71 1117.45 855.12 1116.25 852.01C1115.16 852.67 1114.75 853.9 1114.51 855.05C1113.89 857.88 1113.65 861.02 1115.08 863.74C1116.72 866.84 1120.78 870.31 1125.85 871.69C1127.65 872.51 1127.51 871.3 1129.24 870.38" />
					</g>
					<g id="&lt;Group&gt;">
						<path id="&lt;Path&gt;" class="shp21" d="M1125.85 871.69C1128.48 873.14 1133 872.23 1135.66 870.44C1142.33 863.94 1135.77 847.47 1129.15 843.32C1126.72 842.41 1123.84 843.11 1121.73 844.48C1119.91 845.67 1119.2 846.45 1118.11 847.88C1117.81 848.28 1117.89 848.81 1118.3 849.12C1121.89 851.82 1128.92 860.09 1125.85 871.69Z" />
					</g>
					<g id="&lt;Group&gt;">
						<path id="&lt;Path&gt;" class="shp20" d="M1110.05 866.05C1106.84 865 1104.57 862.56 1103.05 859.95C1101.37 857.07 1100.16 853.91 1100.25 850.63C1098.97 850.92 1098.11 851.95 1097.42 852.95C1095.73 855.43 1094.27 858.29 1094.55 861.28C1094.87 864.69 1097.31 869.18 1101.53 872.02C1102.89 873.34 1103.24 872.15 1105.22 871.82" />
					</g>
					<g id="&lt;Group&gt;">
						<path id="&lt;Path&gt;" class="shp21" d="M1101.53 872.02C1103.42 874.18 1108.02 874.7 1111.22 873.83C1120.04 869.75 1120.35 852.3 1115.77 846.4C1113.85 844.81 1110.87 844.59 1108.36 845.24C1106.18 845.8 1105.21 846.31 1103.63 847.32C1103.19 847.6 1103.05 848.13 1103.32 848.55C1105.63 852.17 1108.97 862.06 1101.53 872.02Z" />
					</g>
					<g id="&lt;Group&gt;">
						<path id="&lt;Path&gt;" class="shp20" d="M1093.64 866.05C1090.43 865 1088.16 862.56 1086.64 859.95C1084.96 857.07 1083.75 853.91 1083.84 850.63C1082.56 850.92 1081.7 851.95 1081.01 852.95C1079.32 855.43 1077.86 858.29 1078.14 861.28C1078.46 864.69 1080.9 869.18 1085.12 872.02C1086.48 873.34 1086.83 872.15 1088.81 871.82" />
					</g>
					<g id="&lt;Group&gt;">
						<path id="&lt;Path&gt;" class="shp21" d="M1085.12 872.02C1087.01 874.18 1091.61 874.7 1094.81 873.83C1103.63 869.75 1103.94 852.3 1099.36 846.4C1097.44 844.81 1094.46 844.59 1091.95 845.24C1089.77 845.8 1088.8 846.31 1087.22 847.32C1086.78 847.6 1086.64 848.13 1086.91 848.55C1089.22 852.17 1092.56 862.06 1085.12 872.02Z" />
					</g>
					<g id="&lt;Group&gt;">
						<path id="&lt;Path&gt;" class="shp20" d="M1076.48 866.05C1073.27 865 1071 862.56 1069.48 859.95C1067.8 857.07 1066.59 853.91 1066.68 850.63C1065.4 850.92 1064.53 851.95 1063.85 852.95C1062.16 855.43 1060.7 858.29 1060.98 861.28C1061.29 864.69 1063.74 869.18 1067.96 872.02C1069.32 873.34 1069.67 872.15 1071.65 871.82" />
					</g>
					<g id="&lt;Group&gt;">
						<path id="&lt;Path&gt;" class="shp21" d="M1067.96 872.02C1069.85 874.18 1074.45 874.7 1077.65 873.83C1086.47 869.75 1086.78 852.3 1082.2 846.4C1080.28 844.81 1077.3 844.59 1074.79 845.24C1072.61 845.8 1071.64 846.31 1070.06 847.32C1069.61 847.6 1069.48 848.13 1069.75 848.55C1072.05 852.17 1075.4 862.06 1067.96 872.02Z" />
					</g>
					<g id="&lt;Group&gt;">
						<path id="&lt;Path&gt;" class="shp20" d="M1059.31 866.05C1056.11 865 1053.84 862.56 1052.32 859.95C1050.64 857.07 1049.42 853.91 1049.52 850.63C1048.24 850.92 1047.37 851.95 1046.69 852.95C1045 855.43 1043.54 858.29 1043.82 861.28C1044.13 864.69 1046.57 869.18 1050.8 872.02C1052.16 873.34 1052.5 872.15 1054.49 871.82" />
					</g>
					<g id="&lt;Group&gt;">
						<path id="&lt;Path&gt;" class="shp21" d="M1050.8 872.02C1052.69 874.18 1057.29 874.7 1060.49 873.83C1069.31 869.75 1069.62 852.3 1065.04 846.4C1063.12 844.81 1060.14 844.59 1057.62 845.24C1055.45 845.8 1054.48 846.31 1052.9 847.32C1052.45 847.6 1052.32 848.13 1052.59 848.55C1054.89 852.17 1058.24 862.06 1050.8 872.02Z" />
					</g>
					<g id="&lt;Group&gt;">
						<path id="&lt;Path&gt;" class="shp20" d="M648.6 606.92C646.18 608.75 642.99 608.9 640.02 608.35C636.73 607.75 633.43 606.59 630.63 604.32C630.27 605.52 630.76 606.9 631.3 608.1C632.64 611.1 634.43 614.17 637.15 615.96C640.24 618 644.2 618.68 648.66 617.85C650.41 617.52 650.66 616.39 651.31 614.6" />
					</g>
					<g id="&lt;Group&gt;">
						<path id="&lt;Path&gt;" class="shp21" d="M648.76 617.86C651.5 618.57 654.85 616.18 656.3 613.44C659.13 604.43 647.03 589.01 639.91 586.7C637.55 586.5 635.46 588.14 634.3 590.27C633.29 592.1 633.02 593.15 632.71 595.01C632.62 595.53 632.9 596.07 633.37 596.27C637.42 598.01 646.55 604.57 648.76 617.86Z" />
					</g>
					<g id="&lt;Group&gt;">
						<path id="&lt;Path&gt;" class="shp20" d="M636.24 615.78C633.31 616.47 630.18 615.34 627.5 613.67C624.52 611.81 621.72 609.46 619.78 606.3C619.04 607.24 619.05 608.68 619.18 609.98C619.49 613.22 620.2 616.7 622.24 619.39C624.55 622.46 629.06 625.44 633.82 625.92C635.6 626.45 635.12 625.15 636.33 623.79" />
					</g>
					<g id="&lt;Group&gt;">
						<path id="&lt;Path&gt;" class="shp21" d="M633.82 625.92C636.5 626.97 640.1 625.06 641.86 622.55C645.66 614.06 635.17 597.34 628.27 594.14C625.93 593.64 623.66 594.99 622.26 596.93C621.05 598.6 620.67 599.6 620.16 601.38C620.01 601.88 620.24 602.45 620.69 602.71C624.56 604.94 633.02 612.57 633.82 625.92Z" />
					</g>
					<g id="&lt;Group&gt;">
						<path id="&lt;Path&gt;" class="shp20" d="M620.57 616.92C617.5 616.55 614.77 614.44 612.62 611.97C610.24 609.23 608.17 606.1 607.16 602.51C606.17 603.13 605.78 604.46 605.54 605.71C604.92 608.8 604.64 612.27 605.86 615.45C607.26 619.08 610.81 623.38 615.33 625.46C616.92 626.56 616.82 625.19 618.39 624.35" />
					</g>
					<g id="&lt;Group&gt;">
						<path id="&lt;Path&gt;" class="shp21" d="M615.33 625.46C617.65 627.35 621.72 626.81 624.14 625.1C630.26 618.55 624.74 599.51 618.91 594.19C616.76 592.93 614.16 593.39 612.24 594.7C610.59 595.84 609.93 596.63 608.93 598.1C608.65 598.51 608.7 599.12 609.07 599.51C612.23 602.89 618.33 612.85 615.33 625.46Z" />
					</g>
					<g id="&lt;Group&gt;">
						<path id="&lt;Path&gt;" class="shp20" d="M603.11 613.4C600.46 611.47 598.88 608.26 597.98 605.06C596.99 601.51 596.45 597.79 597.1 594.26C595.91 594.25 594.97 595.16 594.2 596.07C592.29 598.34 590.51 601.08 590.24 604.4C589.94 608.17 591.33 613.65 594.57 617.77C595.55 619.54 596.06 618.34 597.87 618.47" />
					</g>
					<g id="&lt;Group&gt;">
						<path id="&lt;Path&gt;" class="shp21" d="M594.57 617.77C595.88 620.58 599.85 622.29 602.82 622.14C611.31 619.9 614.56 601.05 611.52 593.51C610.1 591.31 607.51 590.33 605.17 590.41C603.16 590.48 602.21 590.8 600.64 591.5C600.2 591.7 599.99 592.23 600.16 592.76C601.58 597.26 602.84 608.81 594.57 617.77Z" />
					</g>
					<g id="&lt;Group&gt;">
						<path id="&lt;Path&gt;" class="shp20" d="M589.04 600.28C586.96 597.62 586.27 594.11 586.26 590.85C586.25 587.22 586.73 583.59 588.32 580.52C587.16 580.12 585.99 580.66 584.99 581.25C582.5 582.73 580.01 584.7 578.85 587.7C577.54 591.1 577.42 596.65 579.48 601.55C579.96 603.51 580.78 602.56 582.52 603.27" />
					</g>
					<g id="&lt;Group&gt;">
						<path id="&lt;Path&gt;" class="shp21" d="M579.48 601.55C580 604.59 583.43 607.47 586.39 608.31C595.31 609 603.6 592.55 602.66 584.54C601.86 582.04 599.59 580.27 597.27 579.59C595.28 578.99 594.27 578.98 592.54 579.11C592.05 579.15 591.71 579.58 591.73 580.12C591.9 584.77 590.01 595.93 579.48 601.55Z" />
					</g>
					<g id="&lt;Group&gt;">
						<path id="&lt;Path&gt;" class="shp20" d="M574.06 582.31C573.05 579.04 573.67 575.61 574.83 572.69C576.13 569.44 577.9 566.41 580.51 564.34C579.56 563.49 578.26 563.47 577.09 563.57C574.2 563.83 571.14 564.52 568.96 566.7C566.49 569.18 564.37 574.08 564.55 579.35C564.3 581.3 565.42 580.81 566.81 582.19" />
					</g>
					<g id="&lt;Group&gt;">
						<path id="&lt;Path&gt;" class="shp21" d="M564.55 579.35C563.95 582.28 566.16 586.33 568.65 588.34C576.85 592.79 590.63 581.64 592.63 574.08C592.78 571.5 591.26 568.95 589.32 567.35C587.65 565.96 586.7 565.51 585.01 564.9C584.54 564.72 584.05 564.96 583.88 565.45C582.36 569.68 576.55 578.84 564.55 579.35Z" />
					</g>
					<g id="&lt;Group&gt;">
						<path id="&lt;Path&gt;" class="shp20" d="M562.56 564.13C562.61 560.76 564.27 557.87 566.31 555.65C568.57 553.19 571.22 551.09 574.38 550.21C573.73 549.07 572.48 548.55 571.33 548.2C568.46 547.32 565.29 546.77 562.52 547.92C559.36 549.23 555.79 552.89 554.33 557.77C553.48 559.46 554.71 559.44 555.62 561.23" />
					</g>
					<g id="&lt;Group&gt;">
						<path id="&lt;Path&gt;" class="shp21" d="M554.33 557.77C552.83 560.22 553.69 564.76 555.47 567.56C561.98 574.78 578.74 569.91 583.02 563.78C583.97 561.48 583.3 558.57 581.93 556.36C580.75 554.45 579.98 553.67 578.55 552.46C578.14 552.12 577.6 552.14 577.28 552.52C574.5 555.8 566.05 561.92 554.33 557.77Z" />
					</g>
					<g id="&lt;Group&gt;">
						<path id="&lt;Path&gt;" class="shp20" d="M555.91 546.65C556.51 543.34 558.63 540.76 561.01 538.91C563.64 536.85 566.6 535.23 569.86 534.88C569.41 533.64 568.27 532.93 567.19 532.39C564.51 531.04 561.47 529.98 558.54 530.66C555.21 531.43 551.09 534.45 548.84 539.02C547.72 540.54 548.94 540.73 549.54 542.65" />
					</g>
					<g id="&lt;Group&gt;">
						<path id="&lt;Path&gt;" class="shp21" d="M548.84 539.02C546.96 541.18 547.06 545.81 548.35 548.87C553.58 557.06 570.91 555.02 576.14 549.69C577.46 547.57 577.28 544.59 576.3 542.18C575.45 540.11 574.81 539.21 573.6 537.78C573.26 537.38 572.72 537.31 572.34 537.64C569.06 540.41 559.71 545.05 548.84 539.02Z" />
					</g>
					<g id="&lt;Group&gt;">
						<path id="&lt;Path&gt;" class="shp20" d="M553.6 529.65C554.21 526.33 556.32 523.75 558.7 521.9C561.33 519.84 564.3 518.22 567.56 517.87C567.1 516.64 565.96 515.92 564.88 515.38C562.2 514.04 559.17 512.97 556.24 513.65C552.91 514.42 548.78 517.44 546.53 522.01C545.42 523.54 546.64 523.72 547.23 525.64" />
					</g>
					<g id="&lt;Group&gt;">
						<path id="&lt;Path&gt;" class="shp21" d="M546.53 522.01C544.65 524.18 544.75 528.81 546.04 531.86C551.27 540.05 568.6 538.01 573.84 532.68C575.15 530.57 574.98 527.58 573.99 525.18C573.15 523.1 572.51 522.21 571.3 520.77C570.96 520.37 570.42 520.31 570.04 520.63C566.76 523.4 557.4 528.05 546.53 522.01Z" />
					</g>
					<g id="&lt;Group&gt;">
						<path id="&lt;Path&gt;" class="shp20" d="M551.29 512.64C551.9 509.33 554.02 506.75 556.39 504.89C559.03 502.84 561.99 501.21 565.25 500.87C564.8 499.63 563.66 498.92 562.58 498.37C559.9 497.03 556.86 495.97 553.93 496.65C550.6 497.42 546.48 500.44 544.23 505C543.11 506.53 544.33 506.71 544.93 508.64" />
					</g>
					<g id="&lt;Group&gt;">
						<path id="&lt;Path&gt;" class="shp21" d="M544.23 505C542.35 507.17 542.45 511.8 543.74 514.85C548.96 523.05 566.3 521.01 571.53 515.67C572.85 513.56 572.67 510.58 571.69 508.17C570.84 506.09 570.2 505.2 568.99 503.77C568.65 503.36 568.11 503.3 567.73 503.62C564.45 506.4 555.1 511.04 544.23 505Z" />
					</g>
				</g>
				<g id="&lt;Group&gt;">
					<g id="&lt;Group&gt;">
						<path id="&lt;Path&gt;" class="shp11" d="M904.8 492.3L904.8 424.82L854.21 424.82L854.21 478.05L645.79 478.05L645.79 424.82L595.2 424.82L595.2 492.3C595.2 547.39 582.15 662.23 467.82 701.25C456.11 705.25 448.33 716.37 448.33 728.75L448.33 850.16C448.33 864.43 459.89 876 474.16 876L1025.84 876C1040.11 876 1051.67 864.43 1051.67 850.16L1051.67 728.75C1051.67 716.37 1043.89 705.25 1032.18 701.25C917.85 662.23 904.8 547.39 904.8 492.3Z" />
					</g>
					<g id="&lt;Group&gt;" style="opacity: 0.251">
						<path id="&lt;Path&gt;" class="shp21" d="M746 742.24C630.56 742.24 531.23 735.83 448.65 724.48C448.44 725.88 448.33 727.3 448.33 728.75L448.33 850.16C448.33 864.43 459.89 876 474.16 876L1025.84 876C1040.11 876 1051.67 864.43 1051.67 850.16L1051.67 728.75C1051.67 726.92 1051.49 725.13 1051.16 723.38C967.04 735.41 865.11 742.24 746 742.24Z" />
					</g>
					<g id="&lt;Group&gt;" style="opacity: 0.749">
						<path id="&lt;Path&gt;" class="shp22" d="M595.2 427.45L645.79 427.45" />
					</g>
					<g id="&lt;Group&gt;" style="opacity: 0.749">
						<path id="&lt;Path&gt;" class="shp22" d="M854.21 427.45L904.8 427.45" />
					</g>
					<g id="&lt;Group&gt;">
						<path id="&lt;Path&gt;" class="shp11" d="M402.04 434.41L402.04 510.8L568.89 510.8L568.89 441.08C568.89 432.47 575.87 425.49 584.48 425.49L915.52 425.49C924.13 425.49 931.11 432.47 931.11 441.08L931.11 510.8L1097.96 510.8L1097.96 434.41C1097.96 371.59 1047.04 320.67 984.22 320.67L515.78 320.67C452.96 320.67 402.04 371.59 402.04 434.41Z" />
					</g>
					<g id="&lt;Group&gt;">
						<path id="&lt;Path&gt;" class="shp21" d="M564.69 519.99L406.24 519.99C401.24 519.99 397.19 515.94 397.19 510.94L397.19 458.15C397.19 453.15 401.24 449.09 406.24 449.09L564.69 449.09C569.69 449.09 573.74 453.15 573.74 458.15L573.74 510.94C573.74 515.94 569.69 519.99 564.69 519.99Z" />
					</g>
					<g id="&lt;Group&gt;">
						<path id="&lt;Path&gt;" class="shp21" d="M1093.76 519.99L935.31 519.99C930.31 519.99 926.26 515.94 926.26 510.94L926.26 458.15C926.26 453.15 930.31 449.09 935.31 449.09L1093.76 449.09C1098.76 449.09 1102.81 453.15 1102.81 458.15L1102.81 510.94C1102.81 515.94 1098.76 519.99 1093.76 519.99Z" />
					</g>
					<g id="&lt;Group&gt;" style="opacity: 0.749">
						<path id="&lt;Path&gt;" class="shp21" d="M448.33 838.79L448.33 850.16C448.33 864.43 459.89 876 474.16 876L1025.84 876C1040.11 876 1051.67 864.43 1051.67 850.16L1051.67 838.79L448.33 838.79Z" />
					</g>
					<g id="&lt;Group&gt;">
						<g id="&lt;Group&gt;">
							<path id="&lt;Compound Path&gt;" fill-rule="evenodd" class="shp21" d="M884.36 657.55C884.36 731.76 824.2 791.91 750 791.91C675.8 791.91 615.64 731.76 615.64 657.55C615.64 583.35 675.8 523.2 750 523.2C824.2 523.2 884.36 583.35 884.36 657.55ZM785.76 657.55C785.76 637.8 769.75 621.79 750 621.79C730.25 621.79 714.24 637.8 714.24 657.55C714.24 677.31 730.25 693.32 750 693.32C769.75 693.32 785.76 677.31 785.76 657.55Z" />
						</g>
					</g>
					<path id="&lt;Compound Path&gt;" fill-rule="evenodd" class="shp10" d="M884.36 641.65C884.36 715.85 824.2 776 750 776C675.8 776 615.64 715.85 615.64 641.65C615.64 567.44 675.8 507.29 750 507.29C824.2 507.29 884.36 567.44 884.36 641.65ZM785.76 641.65C785.76 621.89 769.75 605.88 750 605.88C730.25 605.88 714.24 621.89 714.24 641.65C714.24 661.4 730.25 677.41 750 677.41C769.75 677.41 785.76 661.4 785.76 641.65Z" />
					<g id="&lt;Group&gt;">
						<g id="&lt;Group&gt;">
							<path id="&lt;Compound Path&gt;" class="shp11" d="M796.82 569.37C793.54 577.3 784.44 581.07 776.51 577.79C768.58 574.51 764.81 565.41 768.09 557.48C771.38 549.55 780.47 545.78 788.4 549.06C796.33 552.34 800.1 561.44 796.82 569.37ZM757.04 555.84C757.89 564.39 751.65 572 743.1 572.84C734.56 573.68 726.95 567.44 726.11 558.9C725.26 550.35 731.5 542.74 740.05 541.9C748.59 541.06 756.2 547.3 757.04 555.84ZM715.59 562.66C720.36 569.8 718.44 579.45 711.3 584.22C704.17 588.99 694.51 587.07 689.74 579.94C684.97 572.8 686.89 563.15 694.03 558.38C701.17 553.61 710.82 555.52 715.59 562.66ZM682.24 588.21C689.81 592.26 692.67 601.68 688.62 609.25C684.58 616.82 675.16 619.68 667.59 615.63C660.01 611.58 657.16 602.16 661.2 594.59C665.25 587.02 674.67 584.17 682.24 588.21ZM664.87 626.46C673.46 626.47 680.41 633.43 680.41 642.01C680.41 650.6 673.45 657.56 664.87 657.55C656.28 657.55 649.32 650.59 649.32 642.01C649.33 633.42 656.29 626.46 664.87 626.46ZM667.58 668.39C675.15 664.34 684.57 667.2 688.61 674.78C692.66 682.35 689.8 691.77 682.23 695.81C674.66 699.86 665.24 697 661.19 689.42C657.15 681.85 660.01 672.43 667.58 668.39ZM689.73 704.09C694.5 696.95 704.15 695.03 711.29 699.81C718.43 704.58 720.34 714.23 715.57 721.37C710.8 728.51 701.14 730.42 694.01 725.65C686.87 720.88 684.95 711.23 689.73 704.09ZM726.08 725.14C726.93 716.59 734.54 710.35 743.08 711.2C751.63 712.04 757.87 719.65 757.02 728.2C756.18 736.74 748.57 742.98 740.02 742.14C731.48 741.29 725.24 733.68 726.08 725.14ZM768.07 726.56C764.79 718.63 768.56 709.54 776.5 706.26C784.43 702.98 793.52 706.75 796.8 714.68C800.08 722.62 796.31 731.71 788.38 734.99C780.44 738.27 771.35 734.5 768.07 726.56ZM805.78 708.03C799.14 702.58 798.18 692.79 803.64 686.16C809.09 679.52 818.88 678.56 825.51 684.02C832.15 689.47 833.11 699.26 827.66 705.89C822.2 712.53 812.41 713.49 805.78 708.03Z" />
						</g>
					</g>
					<g id="&lt;Group&gt;">
						<g id="&lt;Group&gt;">
							<path id="&lt;Compound Path&gt;" fill-rule="evenodd" class="shp21" d="M649.57 644.68C649.42 643.81 649.32 642.92 649.32 642.01C649.33 633.42 656.29 626.46 664.87 626.46C673.46 626.47 680.41 633.43 680.41 642.01C680.41 642.92 680.32 643.81 680.17 644.68C678.9 637.37 672.54 631.8 664.87 631.8C657.2 631.8 650.84 637.36 649.57 644.68ZM800.34 698.68C799.6 694.38 800.65 689.79 803.64 686.16C809.09 679.52 818.88 678.56 825.51 684.02C830 687.7 831.88 693.37 830.95 698.7C830.34 695.16 828.51 691.81 825.51 689.35C818.88 683.9 809.09 684.86 803.64 691.49C801.87 693.64 800.79 696.12 800.34 698.68ZM690.21 684.74C689.93 683.16 689.41 681.6 688.61 680.11C684.57 672.54 675.15 669.68 667.58 673.72C663.18 676.07 660.39 680.23 659.6 684.79C658.47 678.35 661.5 671.64 667.58 668.39C675.15 664.34 684.57 667.2 688.61 674.77C690.31 677.95 690.78 681.45 690.21 684.74ZM717.95 715.42C717.25 711.37 714.97 707.6 711.29 705.14C704.15 700.37 694.5 702.29 689.73 709.42C688.48 711.28 687.71 713.31 687.34 715.37C686.69 711.58 687.42 707.54 689.73 704.09C694.5 696.95 704.15 695.03 711.29 699.81C716.57 703.34 718.98 709.54 717.95 715.42ZM659.61 604.56C659.04 601.27 659.51 597.77 661.2 594.59C665.25 587.02 674.67 584.17 682.24 588.21C688.32 591.46 691.35 598.17 690.22 604.61C689.43 600.06 686.64 595.9 682.24 593.55C674.67 589.5 665.25 592.36 661.2 599.93C660.41 601.42 659.89 602.98 659.61 604.56ZM797.76 566.11C796.88 561.04 793.51 556.51 788.4 554.4C780.47 551.11 771.38 554.88 768.09 562.81C767.65 563.89 767.35 564.98 767.15 566.07C766.66 563.27 766.92 560.3 768.09 557.48C771.38 549.55 780.47 545.78 788.4 549.06C795.26 551.9 799 559.09 797.76 566.11ZM796.8 714.68C797.97 717.5 798.23 720.47 797.74 723.27C797.55 722.18 797.24 721.09 796.8 720.02C793.52 712.08 784.43 708.31 776.5 711.59C771.38 713.71 768.02 718.24 767.13 723.31C765.89 716.28 769.63 709.1 776.5 706.26C784.43 702.98 793.52 706.75 796.8 714.68ZM757.02 728.2C756.99 728.58 756.92 728.95 756.85 729.32C755.68 722.62 750.19 717.23 743.08 716.53C734.92 715.72 727.63 721.39 726.25 729.34C726.02 727.98 725.94 726.58 726.08 725.14C726.93 716.59 734.54 710.35 743.08 711.2C751.63 712.04 757.87 719.65 757.02 728.2ZM757.04 555.84C757.19 557.28 757.11 558.69 756.87 560.05C755.5 552.09 748.21 546.43 740.05 547.24C732.94 547.94 727.44 553.32 726.27 560.03C726.21 559.65 726.14 559.28 726.11 558.9C725.26 550.35 731.5 542.74 740.05 541.9C748.59 541.06 756.2 547.3 757.04 555.84ZM715.59 562.66C717.9 566.11 718.63 570.15 717.97 573.94C717.61 571.88 716.83 569.85 715.59 568C710.82 560.86 701.17 558.94 694.03 563.71C690.34 566.17 688.06 569.94 687.36 573.99C686.33 568.11 688.75 561.91 694.03 558.38C701.17 553.61 710.82 555.52 715.59 562.66Z" />
						</g>
					</g>
					<g id="&lt;Group&gt;">
						<g id="&lt;Group&gt;">
							<path id="&lt;Path&gt;" class="shp20" d="M884.36 626.96L822.52 624.3C822.54 626.18 822.55 627.55 822.55 628.41C822.55 629.27 822.53 630.21 823.13 630.76C826.85 634.16 833.76 638.93 844.86 641.2C857.03 643.69 870.2 644.58 884.36 643.87L884.36 626.96Z" />
						</g>
						<g id="&lt;Group&gt;">
							<path id="&lt;Path&gt;" class="shp21" d="M884.36 623.62C884.36 622.61 883.54 621.79 882.53 621.79L823.89 621.79C822.49 621.79 821.94 624.51 823.13 625.6C826.85 628.99 833.76 633.76 844.86 636.03C857.03 638.52 870.2 639.41 884.36 638.7L884.36 623.62Z" />
						</g>
					</g>
				</g>
			</g>
			<g id="&lt;Group&gt;">
				<g id="&lt;Group&gt;">
					<g id="&lt;Group&gt;">
						<path id="&lt;Path&gt;" class="shp4" d="M641.45 372.16C645.09 374.74 647.53 376.06 648.8 376.13C650.69 376.24 655.02 374.83 660.39 375.37C662.78 375.6 668.97 376.98 669.32 377.95C669.67 378.93 663.72 378.78 663.87 379.2C664.02 379.62 674.99 383.71 674.52 385.37C674.35 385.92 670.73 384.87 663.64 382.21C671.37 384.91 675.01 386.68 674.57 387.53C674.12 388.39 670.23 387.39 662.91 384.54C669.9 387.09 673.2 388.73 672.82 389.45C672.44 390.17 668.84 389.62 662.01 387.8C667.96 389.1 670.77 390.11 670.45 390.81C670.2 391.37 660.42 390.13 652.06 386.98C646.9 385.04 642.19 382.47 637.94 379.25" />
					</g>
					<g id="&lt;Group&gt;">
						<path id="&lt;Path&gt;" class="shp4" d="M647.12 308.85C639.13 321.03 620.65 335.08 610.44 343.7C614.34 348.99 627.35 359.9 649.46 376.4L646.38 383.78C604.25 376.22 582.51 362.04 581.17 341.23C579.96 322.56 603.6 295.05 621.95 282.12" />
					</g>
				</g>
				<g id="&lt;Group&gt;">
					<path id="&lt;Path&gt;" class="shp9" d="M633.33 273.45C620.85 279.01 607.97 290.56 594.67 308.09L623.09 336.43L648.89 318.33L668.66 275.04L666.43 270.25C656.43 267 645.4 268.07 633.33 273.45Z" />
				</g>
				<path id="&lt;Path&gt;" class="shp10" d="M592.39 309.47L620.53 340.21L630.77 332.5L600.34 301.19L592.39 309.47Z" />
				<path id="&lt;Path&gt;" class="shp15" d="M641.73 323.35L652.54 316.46" />
			</g>
			<g id="&lt;Group&gt;">
				<g id="&lt;Group&gt;">
					<g id="&lt;Group&gt;">
						<g id="&lt;Group&gt;">
							<path id="&lt;Path&gt;" class="shp4" d="M1009.87 540.44C999.58 545.42 993.25 547.86 990.89 547.75C987.36 547.59 985.24 545.99 979.6 544.47C978.08 544.06 973.15 542.34 972.52 543.91C972.1 544.94 976.78 546.04 976.32 547.17C975.87 548.3 965.27 547.42 964.51 548.87C964.01 549.84 967.34 550.28 974.5 550.2C967.01 550.61 963.16 551.28 962.95 552.21C962.74 553.14 966.46 553.33 974.09 552.78C966.96 553.52 963.5 554.32 963.72 555.16C963.91 555.89 967.29 556.04 973.86 555.64C968.2 556.5 965.57 557.37 965.98 558.25C966.4 559.15 973.63 558.11 976.73 557.99C980.06 557.86 983.17 560.87 990.59 557.98C991.06 557.89 997.88 557.35 1011.05 556.35" />
						</g>
						<path id="&lt;Path&gt;" class="shp23" d="M978 548.4C980.07 551.96 982.57 553.63 985.53 553.39" />
						<g id="&lt;Group&gt;">
							<path id="&lt;Path&gt;" class="shp4" d="M1091.58 481.76C1080.12 497.07 1071.95 508.31 1065.25 513.03C1057.62 518.41 1032.84 529.98 990.89 547.75L990.59 557.98C1039.33 559.84 1076.52 554.23 1102.16 541.16C1107.69 538.35 1117.19 531.53 1130.66 520.72" />
						</g>
					</g>
					<g id="&lt;Group&gt;">
						<g id="&lt;Group&gt;">
							<g id="&lt;Group&gt;">
								<path id="&lt;Path&gt;" class="shp9" d="M1194.2 420.95C1168.71 414.15 1145.26 421.04 1123.87 441.63C1110.74 454.27 1100 469.36 1090.53 482.02L1130.37 523.89C1145.73 511.25 1158.76 499.83 1169.47 489.65" />
							</g>
						</g>
					</g>
					<path id="&lt;Path&gt;" class="shp10" d="M1088.62 483.33L1128.22 525.53L1138.2 517.94L1096.26 473.13L1088.62 483.33Z" />
				</g>
				<g id="&lt;Group&gt;">
					<g id="&lt;Group&gt;">
						<g id="&lt;Group&gt;">
							<g id="&lt;Group&gt;">
								<g id="&lt;Group&gt;">
									<path id="&lt;Path&gt;" class="shp3" d="M1281.3 888.95C1285.59 894.9 1285.39 904.74 1282.68 905.73C1281.07 906.32 1248.5 907.38 1248.03 905.47C1246.46 899.22 1254.65 894.26 1272.58 890.61" />
								</g>
								<g id="&lt;Group&gt;">
									<path id="&lt;Path&gt;" class="shp4" d="M1258.97 852.35L1268.28 891.65C1270.16 892.67 1272.67 893.17 1275.8 893.14C1278.93 893.11 1281.17 892.33 1282.52 890.8L1281.82 846.91" />
								</g>
							</g>
						</g>
					</g>
					<g id="&lt;Group&gt;">
						<g id="&lt;Group&gt;">
							<g id="&lt;Group&gt;">
								<g id="&lt;Group&gt;">
									<path id="&lt;Path&gt;" class="shp3" d="M1160.63 888.95C1164.93 894.9 1164.72 904.74 1162.01 905.73C1160.41 906.32 1127.84 907.38 1127.36 905.47C1125.8 899.22 1133.98 894.26 1151.91 890.61" />
								</g>
								<g id="&lt;Group&gt;">
									<path id="&lt;Path&gt;" class="shp4" d="M1145.62 852.35L1147.61 891.65C1149.49 892.67 1152 893.17 1155.13 893.14C1158.26 893.11 1160.5 892.33 1161.86 890.8L1168.47 846.91" />
								</g>
							</g>
						</g>
					</g>
					<g id="&lt;Group&gt;">
						<path id="&lt;Path&gt;" class="shp5" d="M1143.13 588.45C1132.52 679.01 1133.79 775.17 1146.93 876.94L1165.19 878.34C1191.07 743.41 1207.24 673.11 1213.71 667.43C1223.4 658.92 1232.34 630.54 1217.29 594.12" />
					</g>
					<g id="&lt;Group&gt;">
						<path id="&lt;Path&gt;" class="shp24" d="M1160.88 878.01C1185.81 743.01 1201.5 672.67 1207.97 666.99C1217.66 658.48 1232.34 630.54 1217.29 594.12" />
					</g>
					<g id="&lt;Group&gt;">
						<path id="&lt;Path&gt;" class="shp24" d="M1165.48 604.15C1164.89 610.79 1162.48 614.88 1158.27 616.43C1152.9 618.41 1147.14 618.38 1141.01 616.34" />
					</g>
					<g id="&lt;Group&gt;">
						<path id="&lt;Path&gt;" class="shp25" d="M1165.37 878.35L1146.1 876.88L1145.62 870.85L1166.86 872.47L1165.37 878.35Z" />
					</g>
					<g id="&lt;Group&gt;">
						<path id="&lt;Path&gt;" class="shp5" d="M1193.55 594.22C1208.39 704.92 1232.29 799.66 1265.26 878.43L1283.46 876.43C1295.6 692.35 1290.15 591.91 1267.13 575.11" />
					</g>
					<g id="&lt;Group&gt;">
						<path id="&lt;Path&gt;" class="shp24" d="M1209.04 686.69C1201.24 644.26 1196.07 611.44 1193.51 588.22" />
					</g>
					<g id="&lt;Group&gt;">
						<path id="&lt;Path&gt;" class="shp24" d="M1186.42 602.78C1189.59 620.22 1191.81 629.45 1193.1 630.48C1195.35 632.29 1197.65 633 1200 632.63" />
					</g>
					<g id="&lt;Group&gt;">
						<path id="&lt;Path&gt;" class="shp24" d="M1281.24 874.6C1287.31 690.3 1279.84 590.77 1258.84 576.03" />
					</g>
					<g id="&lt;Group&gt;">
						<path id="&lt;Path&gt;" class="shp24" d="M1236.49 606.6C1237.35 613.21 1240.99 617.1 1247.41 618.27C1255.61 619.76 1264.34 619.58 1273.62 617.73" />
					</g>
					<g id="&lt;Group&gt;">
						<path id="&lt;Path&gt;" class="shp25" d="M1283.46 876.43L1264.26 878.54L1262.67 872.7L1283.84 870.37L1283.46 876.43Z" />
					</g>
				</g>
				<g id="&lt;Group&gt;">
					<path id="&lt;Path&gt;" class="shp9" d="M1264.17 449.38C1280.45 483.46 1296.18 590.23 1285.58 600.83C1268.2 618.21 1156.04 618.61 1138.26 600.83C1134.48 597.05 1136.12 571.16 1138.33 546.89C1140.81 519.61 1143.07 492.38 1145.11 465.19C1164.59 432.31 1182.58 415.87 1199.08 415.87C1215.59 415.87 1237.28 427.04 1264.17 449.38Z" />
				</g>
				<g id="&lt;Group&gt;">
					<path id="&lt;Path&gt;" class="shp15" d="M1141.12 514.94C1143.57 489.88 1143.88 473.53 1142.05 465.91" />
				</g>
				<g id="&lt;Group&gt;">
					<g id="&lt;Group&gt;">
						<g id="&lt;Group&gt;">
							<path id="&lt;Path&gt;" class="shp4" d="M1361.91 400.76C1364.64 391.08 1366.06 385.06 1366.17 382.7C1366.34 379.17 1364.95 376.91 1363.96 371.15C1363.7 369.6 1362.44 364.54 1364.07 364.05C1365.12 363.73 1365.79 368.49 1366.95 368.14C1368.12 367.79 1368.23 357.16 1369.75 356.54C1370.76 356.13 1370.89 359.48 1370.14 366.61C1371.24 359.19 1372.27 355.42 1373.21 355.3C1374.16 355.17 1374.01 358.89 1372.75 366.44C1374.15 359.41 1375.26 356.04 1376.09 356.34C1376.79 356.6 1376.63 359.98 1375.61 366.48C1377 360.92 1378.11 358.39 1378.94 358.87C1379.8 359.37 1378.09 366.48 1377.69 369.55C1377.25 372.86 1379.96 376.23 1376.39 383.35C1376.26 383.81 1374.19 391.04 1370.2 405.04" />
						</g>
						<g id="&lt;Group&gt;">
							<path id="&lt;Path&gt;" class="shp4" d="M1291.65 434.31C1304.52 440.01 1321.26 443.79 1325.66 441.52C1334.5 436.95 1347.98 417.61 1366.09 383.51L1376.39 383.35C1371.09 444.84 1357.68 482.28 1336.18 495.68C1322.42 504.26 1292.61 503.21 1278.51 497.6" />
						</g>
						<path id="&lt;Path&gt;" class="shp23" d="M1368.02 369.93C1371.38 372.31 1372.8 374.97 1372.29 377.89" />
					</g>
					<g id="&lt;Group&gt;">
						<path id="&lt;Path&gt;" class="shp9" d="M1205.21 421.71C1223.01 417.36 1249.53 415.4 1278.23 428.28C1282.95 430.4 1302.34 438.38 1306.53 440.23L1297.82 501.97C1280.19 500.46 1264.85 497.25 1251.8 492.35" />
					</g>
					<g id="&lt;Group&gt;">
						<path id="&lt;Path&gt;" class="shp15" d="M1278.51 499.33L1251.8 492.35" />
					</g>
					<path id="&lt;Path&gt;" class="shp10" d="M1294.9 504.48L1297.14 435.51L1313.09 438.01L1307.82 505.52L1294.9 504.48Z" />
				</g>
				<g id="&lt;Group&gt;">
					<g id="&lt;Group&gt;">
						<path id="&lt;Path&gt;" class="shp11" d="M1170.54 382.3C1170.81 386.6 1174.25 389.89 1178.23 389.65C1182.21 389.4 1185.23 385.72 1184.97 381.41C1184.7 377.11 1181.26 373.82 1177.28 374.06C1173.3 374.31 1170.28 377.99 1170.54 382.3Z" />
					</g>
					<g id="&lt;Group&gt;">
						<path id="&lt;Path&gt;" class="shp12" d="M1174.02 382.41C1174.2 385.36 1176.46 387.62 1179.06 387.46C1181.66 387.3 1183.63 384.78 1183.44 381.83C1183.26 378.88 1181.01 376.62 1178.4 376.78C1175.8 376.94 1173.84 379.46 1174.02 382.41Z" />
					</g>
					<g id="&lt;Group&gt;">
						<path id="&lt;Path&gt;" class="shp3" d="M1181.77 358.11C1176.75 359.83 1175.22 373.16 1176.91 377.69C1177.89 380.3 1180.2 382.28 1182.98 382.03C1185.76 381.78 1188.23 379.51 1188.73 376.76" />
					</g>
					<g id="&lt;Group&gt;">
						<path id="&lt;Path&gt;" class="shp26" d="M1177.95 380.28C1178.83 379.68 1179.89 379.33 1180.9 379.48C1185.02 380.09 1183.64 391.74 1180.62 391.44C1175.48 390.91 1173.77 383.07 1177.95 380.28Z" />
					</g>
					<g id="&lt;Group&gt;">
						<path id="&lt;Path&gt;" class="shp4" d="M1187.44 397.78L1185.02 418.72C1186.19 429.14 1189.66 434.47 1195.45 434.7C1205.15 435.1 1214.26 429.25 1222.78 417.14L1211.41 385.95" />
					</g>
					<g id="&lt;Group&gt;">
						<path id="&lt;Path&gt;" class="shp15" d="M1195.45 434.7L1191.41 479.13" />
					</g>
					<path id="&lt;Path&gt;" class="shp10" d="M1220.61 411.19C1210.79 424.36 1202.4 432.2 1195.45 434.7L1203.9 447.02C1212.37 444.43 1220.19 434.73 1227.37 417.92L1220.61 411.19Z" />
					<path id="&lt;Path&gt;" class="shp10" d="M1185.53 414.29C1187.5 424.57 1190.8 431.37 1195.45 434.7L1188.48 446.36C1183.86 443.77 1180.95 434.86 1179.74 419.63L1185.53 414.29Z" />
					<g id="&lt;Group&gt;">
						<path id="&lt;Path&gt;" class="shp5" d="M1199.59 447.02C1199.59 447.73 1199.02 448.3 1198.31 448.3C1197.6 448.3 1197.03 447.73 1197.03 447.02C1197.03 446.32 1197.6 445.74 1198.31 445.74C1199.02 445.74 1199.59 446.32 1199.59 447.02Z" />
					</g>
					<g id="&lt;Group&gt;">
						<path id="&lt;Path&gt;" class="shp5" d="M1198.7 461.36C1198.7 462.06 1198.12 462.63 1197.42 462.63C1196.71 462.63 1196.14 462.06 1196.14 461.36C1196.14 460.65 1196.71 460.08 1197.42 460.08C1198.12 460.08 1198.7 460.65 1198.7 461.36Z" />
					</g>
					<g id="&lt;Group&gt;">
						<path id="&lt;Path&gt;" class="shp5" d="M1197.42 476.86C1197.42 477.56 1196.85 478.13 1196.14 478.13C1195.43 478.13 1194.86 477.56 1194.86 476.86C1194.86 476.15 1195.43 475.58 1196.14 475.58C1196.85 475.58 1197.42 476.15 1197.42 476.86Z" />
					</g>
					<g id="&lt;Group&gt;">
						<path id="&lt;Path&gt;" class="shp4" d="M1181.96 362.47C1178.41 378.11 1178.35 389.24 1181.77 395.86C1187.51 406.94 1200.61 404.29 1206.41 399.36C1213.07 393.71 1212.86 379.5 1212.86 375.08C1212.86 363.1 1188.27 356.16 1181.96 362.47Z" />
					</g>
					<path id="&lt;Path&gt;" class="shp16" d="M1193.53 376.43C1191.82 380.91 1191.02 383.67 1191.12 384.69C1191.22 385.71 1192.82 386.32 1195.94 386.52" />
					<g id="&lt;Group&gt;">
						<path id="&lt;Path&gt;" class="shp3" d="M1201.86 377.72C1201.76 378.65 1202.25 379.47 1202.95 379.55C1203.65 379.63 1204.31 378.94 1204.41 378.01C1204.51 377.08 1204.03 376.26 1203.33 376.18C1202.62 376.1 1201.97 376.79 1201.86 377.72Z" />
					</g>
					<g id="&lt;Group&gt;">
						<path id="&lt;Path&gt;" class="shp3" d="M1182.5 377.1C1182.4 378.03 1182.88 378.85 1183.59 378.93C1184.29 379 1184.94 378.31 1185.05 377.38C1185.15 376.45 1184.67 375.64 1183.96 375.56C1183.26 375.48 1182.61 376.17 1182.5 377.1Z" />
					</g>
					<g id="&lt;Group&gt;">
						<path id="&lt;Path&gt;" class="shp27" d="M1199.55 373.07C1201.55 371.78 1205.91 373.01 1208.07 374.52" />
					</g>
					<g id="&lt;Group&gt;">
						<path id="&lt;Path&gt;" class="shp27" d="M1181.77 371.87C1183.6 371.48 1185.43 371.88 1187.26 373.07" />
					</g>
					<path id="&lt;Path&gt;" class="shp10" d="M1201.57 392.02L1188.7 391.44C1188.53 395.65 1190.38 397.75 1194.28 397.75C1199.48 397.75 1201.91 395.84 1201.57 392.02Z" />
					<path id="&lt;Path&gt;" class="shp23" d="M1186.88 402.61C1193.43 404.28 1202.06 404.15 1206.41 400.46C1208.91 398.34 1210.44 393.92 1211.38 390.36" />
					<g id="&lt;Group&gt;">
						<path id="&lt;Path&gt;" class="shp4" d="M1216.28 382.19C1215.57 381.4 1214.64 380.79 1213.63 380.68C1209.49 380.23 1207.88 391.85 1210.88 392.31C1215.99 393.11 1219.62 385.95 1216.28 382.19Z" />
					</g>
					<g id="&lt;Group&gt;">
						<path id="&lt;Path&gt;" class="shp3" d="M1220.78 378.46C1221.1 376.92 1221.24 375.33 1221.29 373.89C1221.49 367.99 1221.22 361.48 1217.93 356.36C1213.9 350.11 1206.35 347.78 1199.35 346.95C1192.61 346.14 1185.57 349.1 1181.26 354.53C1179.2 357.13 1177.73 360.37 1177.76 363.74C1177.76 364.5 1177.86 365.3 1178.29 365.91C1179.26 367.31 1181.59 367.16 1183.09 367.33C1185.08 367.56 1187.36 366.61 1189.01 365.52C1192.34 368.46 1197.56 368.83 1201.25 366.37C1201.15 367.45 1202.05 368.38 1203.04 368.72C1204.03 369.07 1205.1 368.99 1206.14 369.05C1207.18 369.12 1208.3 369.4 1208.96 370.24C1209.57 371.01 1209.64 372.09 1209.69 373.09C1209.77 374.82 1209.85 376.55 1209.93 378.29C1210.04 380.62 1210.28 383.25 1212.04 384.72C1214.19 386.53 1217.33 385.29 1218.83 383.25C1219.82 381.9 1220.42 380.21 1220.78 378.46Z" />
					</g>
					<g id="&lt;Group&gt;">
						<g id="&lt;Group&gt;">
							<g id="&lt;Group&gt;">
								<path id="&lt;Path&gt;" class="shp14" d="M1207.33 395.1C1207.92 395.02 1208.51 394.91 1209.09 394.74C1210.42 394.36 1212.26 393.51 1213.47 391.66C1213.91 391 1214.12 390.39 1214.12 389.79C1214.11 389.64 1213.99 389.51 1213.84 389.52C1213.69 389.52 1213.57 389.64 1213.57 389.79C1213.57 390.28 1213.39 390.79 1213.02 391.36C1211.89 393.07 1210.18 393.86 1208.93 394.22C1207.27 394.7 1205.47 394.72 1203.91 394.71C1203.76 394.7 1203.64 394.83 1203.64 394.98C1203.64 395.13 1203.76 395.25 1203.91 395.25C1204.97 395.26 1206.15 395.26 1207.33 395.1Z" />
							</g>
							<g id="&lt;Group&gt;">
								<path id="&lt;Path&gt;" class="shp14" d="M1202.65 394.35C1203.09 394.08 1203.68 394.07 1204.18 394.2C1205.94 394.68 1204.15 396.96 1202.54 395.89C1202.4 395.81 1202.28 395.7 1202.21 395.57C1201.96 395.17 1202.2 394.62 1202.65 394.35Z" />
							</g>
						</g>
						<g id="&lt;Group&gt;">
							<path id="&lt;Path&gt;" class="shp11" d="M1208.49 383.1C1208.22 387.4 1211.24 391.08 1215.22 391.33C1219.21 391.57 1222.65 388.28 1222.91 383.97C1223.17 379.67 1220.15 375.99 1216.17 375.74C1212.19 375.5 1208.75 378.79 1208.49 383.1Z" />
						</g>
						<g id="&lt;Group&gt;">
							<path id="&lt;Path&gt;" class="shp12" d="M1211.92 383.63C1211.74 386.58 1213.71 389.1 1216.31 389.26C1218.91 389.42 1221.17 387.16 1221.35 384.2C1221.53 381.26 1219.56 378.74 1216.96 378.58C1214.36 378.42 1212.1 380.68 1211.92 383.63Z" />
						</g>
					</g>
					<g id="&lt;Group&gt;">
						<g id="&lt;Group&gt;">
							<g id="&lt;Group&gt;">
								<path id="&lt;Path&gt;" class="shp11" d="M1218.72 378.82C1218.7 378.82 1218.68 378.82 1218.66 378.82C1218.03 378.78 1217.56 378.25 1217.59 377.63C1218.17 367.57 1214.51 359.63 1207.3 355.27C1200.42 351.1 1191.16 351.08 1184.27 355.21C1180.53 357.46 1175.63 362.1 1176.31 376.38C1176.34 377 1175.86 377.53 1175.23 377.56C1174.62 377.59 1174.08 377.11 1174.05 376.48C1173.49 364.86 1176.46 357.26 1183.11 353.27C1190.82 348.65 1200.77 348.67 1208.48 353.33C1216.44 358.14 1220.48 366.82 1219.85 377.75C1219.82 378.36 1219.32 378.82 1218.72 378.82Z" />
							</g>
						</g>
					</g>
				</g>
				<g id="&lt;Group&gt;">
					<g id="&lt;Group&gt;">
						<path id="&lt;Path&gt;" class="shp10" d="M1297.22 248.26C1270.41 243.74 1245.02 261.8 1240.5 288.61C1237.71 305.13 1243.52 321.09 1254.66 331.99L1248.01 345.48L1262.93 338.51C1268.24 341.84 1274.27 344.22 1280.84 345.32C1307.65 349.85 1333.04 331.78 1337.56 304.98C1342.08 278.18 1324.02 252.78 1297.22 248.26Z" />
						<path id="&lt;Path&gt;" class="shp17" d="M1297.22 248.26C1270.41 243.74 1245.02 261.8 1240.5 288.61C1237.71 305.13 1243.52 321.09 1254.66 331.99L1248.01 345.48L1262.93 338.51C1268.24 341.84 1274.27 344.22 1280.84 345.32C1307.65 349.85 1333.04 331.78 1337.56 304.98C1342.08 278.18 1324.02 252.78 1297.22 248.26Z" />
					</g>
					<g id="&lt;Group&gt;">
						<path id="&lt;Path&gt;" class="shp9" d="M1264.61 322.48L1258.95 315.69C1256.77 313.08 1257.12 309.19 1259.74 307L1266.26 301.56C1268.87 299.38 1272.76 299.73 1274.94 302.35C1276.95 305.37 1279.13 306.61 1281.49 306.07C1285.51 305.15 1294.25 298.77 1298.96 293.82C1301.17 291.5 1300.41 288.29 1296.7 284.2C1294.52 281.58 1294.87 277.69 1297.48 275.51L1304 270.07C1306.62 267.89 1310.51 268.24 1312.69 270.86L1318.35 277.64C1331.11 292.94 1275.73 335.8 1264.61 322.48Z" />
					</g>
				</g>
			</g>
			<g id="&lt;Group&gt;">
				<g id="&lt;Group&gt;">
					<g id="&lt;Group&gt;">
						<g id="&lt;Group&gt;">
							<g id="&lt;Group&gt;">
								<g id="&lt;Group&gt;">
									<path id="&lt;Path&gt;" class="shp3" d="M389.24 889.84C393.32 895.49 393.13 904.83 390.55 905.77C389.03 906.33 358.1 907.33 357.65 905.53C356.17 899.59 363.94 894.88 380.96 891.42" />
								</g>
								<g id="&lt;Group&gt;">
									<path id="&lt;Path&gt;" class="shp4" d="M364.12 855.08L376.88 892.4C378.67 893.37 381.05 893.84 384.02 893.81C386.99 893.78 389.12 893.04 390.41 891.59L385.81 849.92" />
								</g>
							</g>
						</g>
					</g>
					<g id="&lt;Group&gt;">
						<g id="&lt;Group&gt;">
							<g id="&lt;Group&gt;">
								<g id="&lt;Group&gt;">
									<path id="&lt;Path&gt;" class="shp3" d="M267.64 889.84C271.72 895.49 271.52 904.83 268.95 905.77C267.43 906.33 236.5 907.33 236.05 905.53C234.56 899.59 242.33 894.88 259.36 891.42" />
								</g>
								<g id="&lt;Group&gt;">
									<path id="&lt;Path&gt;" class="shp4" d="M249.08 855.08L255.28 892.4C257.06 893.37 259.44 893.84 262.41 893.81C265.39 893.78 267.52 893.04 268.8 891.59L270.78 849.92" />
								</g>
							</g>
						</g>
					</g>
					<g id="&lt;Group&gt;">
						<path id="&lt;Path&gt;" class="shp5" d="M316.15 567.49C327.21 664.81 283.8 798.23 273.05 875.37L248.69 875.37C242 834.23 238.43 783.35 237.99 722.73C237.51 656.95 239.8 612.67 244.85 589.87L245.07 579.12" />
					</g>
					<g id="&lt;Group&gt;">
						<path id="&lt;Path&gt;" class="shp5" d="M281.09 569.94C288.72 666.13 318.2 767.98 369.53 875.51L389.66 875.51C385.84 802.96 377.68 732.78 365.18 664.95C368.09 636.55 365.94 614.33 349.54 589.28L348.3 579.26" />
					</g>
					<g id="&lt;Group&gt;">
						<path id="&lt;Path&gt;" class="shp24" d="M244.85 589.87C279.02 593.33 313.68 593.08 348.84 589.14" />
						<path id="&lt;Path&gt;" class="shp24" d="M290.51 579.12L282.4 579.12C281.3 579.12 280.42 580.14 280.45 581.38L280.69 589.85C280.72 591.03 281.58 591.97 282.63 591.97L290.51 591.97" />
						<path id="&lt;Path&gt;" class="shp24" d="M321.28 591.34C321.51 586.74 321.29 582.66 320.6 579.12" />
						<path id="&lt;Path&gt;" class="shp24" d="M261.53 591.34C261.33 586.74 261.52 582.66 262.12 579.12" />
						<path id="&lt;Path&gt;" class="shp10" d="M288.19 585.43C288.19 586.61 287.31 587.57 286.21 587.57C285.12 587.57 284.23 586.61 284.23 585.43C284.23 584.24 285.12 583.28 286.21 583.28C287.31 583.28 288.19 584.24 288.19 585.43Z" />
						<path id="&lt;Path&gt;" class="shp24" d="M326.5 591.34C328.33 597.38 331.05 600.4 334.68 600.4C338.3 600.4 343.02 600.4 348.84 600.4" />
						<path id="&lt;Path&gt;" class="shp24" d="M344.59 589.59C354.51 608.61 358.62 631.98 356.92 659.67C356.76 662.31 356.9 664.94 357.42 667.53C368.11 721 377.39 790.28 385.25 875.37" />
						<path id="&lt;Path&gt;" class="shp24" d="M305.46 702.77C295.37 665.71 288.71 639.3 285.48 623.54" />
						<path id="&lt;Path&gt;" class="shp24" d="M244.04 600.4C253.89 602.18 259.7 602.18 261.48 600.4C263.26 598.62 264.75 595.6 265.96 591.34" />
						<path id="&lt;Path&gt;" class="shp24" d="M270.26 875.37C277.94 814.9 288.19 753.04 302.46 691.63" />
					</g>
					<g id="&lt;Group&gt;">
						<path id="&lt;Path&gt;" class="shp25" d="M273.89 879.72L248.76 878.95L247.8 871.19L274.19 872.04L273.89 879.72Z" />
					</g>
					<g id="&lt;Group&gt;">
						<path id="&lt;Path&gt;" class="shp25" d="M391.28 878.64L368.32 880.06L366.76 872.41L390.87 870.96L391.28 878.64Z" />
					</g>
				</g>
				<g id="&lt;Group&gt;">
					<g id="&lt;Group&gt;">
						<path id="&lt;Path&gt;" class="shp4" d="M197.31 444.63L193.48 395.9L183.62 393.86L169.01 453.65" />
					</g>
					<g id="&lt;Group&gt;">
						<path id="&lt;Path&gt;" class="shp9" d="M280.74 419.07C271.55 417.27 260.35 418.63 247.14 423.16C232.09 428.32 216.74 437.5 201.08 450.69L197.9 419.44L178.96 411.65C160.03 459.29 158.9 487.95 175.57 497.65C195.5 509.24 229.6 506.53 277.85 489.53" />
					</g>
					<path id="&lt;Path&gt;" class="shp15" d="M201.08 450.69L203.22 471.75" />
					<path id="&lt;Path&gt;" class="shp10" d="M200.79 429.63L172.46 423.74L176.14 409.26L202.07 417.45L200.79 429.63Z" />
					<g id="&lt;Group&gt;">
						<g id="&lt;Group&gt;">
							<path id="&lt;Path&gt;" class="shp4" d="M193.16 404.72L193.48 395.9C195.71 393.7 197.69 391.02 199.43 387.84C200.59 385.71 202.77 379.73 201.93 378.84C201.08 377.94 197.71 382.96 197.35 382.58C196.99 382.19 199.08 370.57 197.02 369.94C196.32 369.73 195.3 373.38 193.97 380.9C195.65 372.83 195.89 368.71 194.71 368.56C193.53 368.4 192.3 372.23 191.03 380.06C192.42 372.7 192.61 368.95 191.61 368.81C190.61 368.68 189.51 372.23 188.33 379.48C189.26 372.99 189.39 369.8 188.73 369.94C187.23 370.24 185.27 376.56 183.9 386.03C183.67 387.67 183.74 393.43 183.68 393.87C183.64 394.16 183.05 397.54 181.93 404.01" />
						</g>
						<g id="&lt;Group&gt;">
							<g id="&lt;Group&gt;">
								<path id="&lt;Path&gt;" class="shp8" d="M196.15 383.2C191.58 385.21 187.26 387.73 187.71 393.38C187.74 393.76 188.25 393.75 188.3 393.38C188.59 390.92 189.11 388.75 191.04 387.04C192.61 385.65 194.57 384.62 196.41 383.64C196.71 383.48 196.45 383.06 196.15 383.2Z" />
							</g>
						</g>
					</g>
				</g>
				<g id="&lt;Group&gt;">
					<path id="&lt;Path&gt;" class="shp3" d="M285.35 385.83C281.07 382.35 281.72 375.17 282.6 369.92C283.82 362.62 286.51 355.45 292.24 351.98C301.06 346.65 312.68 349.4 318.58 357.76C328.7 362.57 326.26 378.81 323.75 386.27C320.22 396.73 313.9 400 307.65 398.75" />
				</g>
				<g id="&lt;Group&gt;">
					<path id="&lt;Path&gt;" class="shp9" d="M365.67 454.03C375.58 479.31 352.11 576.08 347.6 579.12C342.43 582.61 250.36 584.41 245.07 579.12C242.9 576.95 244.39 574.32 244.85 564.47C245.55 549.42 245.79 519.43 242.09 463.61C243.07 435.46 271.2 415.06 294.71 415.06C310.38 415.06 334.03 428.05 365.67 454.03Z" />
				</g>
				<g id="&lt;Group&gt;">
					<path id="&lt;Path&gt;" class="shp15" d="M244.04 498.85L242.09 463.61" />
				</g>
				<g id="&lt;Group&gt;">
					<g id="&lt;Group&gt;">
						<path id="&lt;Path&gt;" class="shp4" d="M471.41 541C479.17 546.81 484.09 550.13 486.17 550.97C489.1 551.29 491.83 551.23 497.29 552.15C498.77 552.4 503.7 552.87 503.63 554.48C503.58 555.53 499.1 554.63 499.05 555.78C499 556.94 508.48 560.38 508.56 561.94C508.62 562.97 505.57 562.03 499.43 559.12C505.72 562.44 508.78 564.55 508.59 565.43C508.4 566.32 505.12 565.01 498.75 561.51C504.61 564.98 507.28 567.03 506.75 567.68C506.3 568.22 503.32 567.02 497.81 564.06C502.36 567.06 504.28 568.85 503.58 569.44C502.86 570.05 497.04 566.29 494.41 564.95C491.58 563.52 487.71 564.89 482.45 559.45C482.09 559.19 475.96 557.46 464.08 554.26" />
					</g>
					<path id="&lt;Path&gt;" class="shp23" d="M497.11 556.17C493.92 558.43 491.1 558.88 488.64 557.5" />
					<g id="&lt;Group&gt;">
						<path id="&lt;Path&gt;" class="shp4" d="M384.84 463.53C406.69 486.25 419.46 499.43 423.15 503.08C429.45 509.31 450.45 525.27 486.17 550.97L482.45 559.45C443.97 554.87 411.72 544.84 385.7 529.38C378.58 525.15 366.89 514.99 350.62 498.89" />
					</g>
					<g id="&lt;Group&gt;">
						<path id="&lt;Path&gt;" class="shp9" d="M306.53 414.47C322.93 417.33 350.83 419.42 371.75 439.33C391.65 458.27 402.31 474.88 420.77 496.74C430.74 508.54 441.63 518.05 453.45 525.25L435.26 550.86C408 542.55 390.22 535.29 381.91 529.08C373.6 522.87 358.75 509.74 337.37 489.7" />
					</g>
					<g id="&lt;Group&gt;">
						<path id="&lt;Path&gt;" class="shp15" d="M363.03 513.05L337.37 489.7" />
					</g>
					<path id="&lt;Path&gt;" class="shp10" d="M430.19 551.27L447.69 520.19L459.89 529.07L441.21 556.63L430.19 551.27Z" />
				</g>
				<g id="&lt;Group&gt;">
					<path id="&lt;Path&gt;" class="shp4" d="M289.98 379.69L281.36 417.76C282.47 427.65 285.77 432.71 291.26 432.93C300.47 433.31 309 427.91 316.86 416.74L311.12 386.64" />
				</g>
				<g id="&lt;Group&gt;">
					<path id="&lt;Path&gt;" class="shp15" d="M291.26 432.93L287.43 475.12" />
				</g>
				<path id="&lt;Path&gt;" class="shp10" d="M315.51 409.67C305.94 422.8 297.86 430.55 291.26 432.93L299.29 444.63C307.33 442.17 314.75 432.96 321.57 417L315.51 409.67Z" />
				<path id="&lt;Path&gt;" class="shp10" d="M281.85 413.55C283.71 423.31 286.85 429.77 291.26 432.93L284.64 444.01C280.26 441.54 277.49 433.08 276.34 418.62L281.85 413.55Z" />
				<g id="&lt;Group&gt;">
					<path id="&lt;Path&gt;" class="shp5" d="M295.19 444.63C295.19 445.3 294.65 445.85 293.98 445.85C293.31 445.85 292.76 445.3 292.76 444.63C292.76 443.96 293.31 443.42 293.98 443.42C294.65 443.42 295.19 443.96 295.19 444.63Z" />
				</g>
				<g id="&lt;Group&gt;">
					<path id="&lt;Path&gt;" class="shp5" d="M294.34 458.24C294.34 458.91 293.8 459.46 293.13 459.46C292.46 459.46 291.92 458.91 291.92 458.24C291.92 457.57 292.46 457.03 293.13 457.03C293.8 457.03 294.34 457.57 294.34 458.24Z" />
				</g>
				<g id="&lt;Group&gt;">
					<path id="&lt;Path&gt;" class="shp5" d="M293.13 472.96C293.13 473.63 292.59 474.17 291.92 474.17C291.25 474.17 290.7 473.63 290.7 472.96C290.7 472.29 291.25 471.75 291.92 471.75C292.59 471.75 293.13 472.29 293.13 472.96Z" />
				</g>
				<g id="&lt;Group&gt;">
					<path id="&lt;Path&gt;" class="shp4" d="M284.83 360.73C278.54 377.76 276.43 389.66 278.5 396.43C280.87 404.17 294.1 404.64 300.43 401.13C307.67 397.11 310.43 382.34 311.25 378.23C313.49 367.08 291.88 356.03 284.83 360.73Z" />
				</g>
				<g id="&lt;Group&gt;">
					<path id="&lt;Path&gt;" class="shp3" d="M287.85 377.01C287.57 377.89 287.88 378.77 288.54 378.98C289.2 379.2 289.97 378.66 290.25 377.78C290.53 376.9 290.22 376.02 289.56 375.81C288.89 375.6 288.13 376.13 287.85 377.01Z" />
				</g>
				<g id="&lt;Group&gt;">
					<path id="&lt;Path&gt;" class="shp3" d="M307.26 381.12C307.29 382.88 307.34 384.64 307.81 386.32C308 386.99 308.26 387.66 308.73 388.17C309.64 389.15 311.18 389.34 312.44 388.89C313.7 388.44 319.31 377.57 315.84 368.23C313.52 361.99 310.15 358.02 303.8 356.02C300.2 354.88 296.37 354.51 292.62 354.54C289.29 354.56 286.2 356.18 282.78 356.09C281.3 356.06 279.81 355.77 278.32 355.92C276.84 356.07 275.29 356.77 274.67 358.13C273.7 360.28 275.52 362.67 277.46 364.02C280.96 366.46 285.34 367.61 289.59 367.21C292.05 366.98 294.46 366.25 296.93 366.16C297.13 367.35 294.91 367.77 294.97 368.97C294.99 369.54 295.54 369.92 296.06 370.17C297.92 371.05 299.91 370.72 301.91 370.92C303.18 371.05 304.48 371.42 305.36 372.33C305.9 372.87 306.24 373.57 306.5 374.29C308.75 380.64 306.48 388.87 306.57 395.48C306.59 396.67 306.71 398.03 307.65 398.75C308.42 399.34 309.5 399.3 310.44 399.05C313.17 398.3 323.01 398.39 324.75 380.3" />
				</g>
				<path id="&lt;Path&gt;" class="shp27" d="M287.04 371.87C289.48 371.41 292.05 371.64 294.37 372.54" />
				<g id="&lt;Group&gt;">
					<path id="&lt;Path&gt;" class="shp4" d="M281.46 373.89C275.63 378.22 273.32 381.02 274.55 382.29C275.78 383.56 277.61 384.63 280.05 385.49" />
				</g>
				<g id="&lt;Group&gt;">
					<g id="&lt;Group&gt;">
						<g id="&lt;Group&gt;">
							<path id="&lt;Path&gt;" class="shp14" d="M299.13 395.83C299.7 395.82 300.27 395.77 300.83 395.67C302.13 395.45 303.95 394.85 305.3 393.24C305.78 392.66 306.05 392.1 306.11 391.54C306.12 391.4 306.02 391.27 305.87 391.25C305.73 391.24 305.6 391.34 305.59 391.48C305.54 391.94 305.32 392.41 304.9 392.91C303.66 394.4 301.95 394.96 300.74 395.16C299.12 395.44 297.42 395.27 295.95 395.09C295.81 395.07 295.68 395.17 295.66 395.31C295.65 395.45 295.75 395.58 295.89 395.6C296.89 395.73 298 395.85 299.13 395.83Z" />
						</g>
						<g id="&lt;Group&gt;">
							<path id="&lt;Path&gt;" class="shp14" d="M294.8 394.61C295.24 394.41 295.8 394.46 296.26 394.64C297.86 395.28 295.94 397.24 294.53 396.06C294.41 395.96 294.31 395.85 294.25 395.72C294.06 395.31 294.35 394.82 294.8 394.61Z" />
						</g>
					</g>
					<path id="&lt;Path&gt;" class="shp11" d="M300.62 384.47C299.81 389.03 302.59 393.34 306.82 394.08C311.04 394.82 315.12 391.72 315.92 387.15C316.72 382.59 313.95 378.28 309.72 377.54C305.49 376.8 301.42 379.9 300.62 384.47Z" />
					<g id="&lt;Group&gt;">
						<path id="&lt;Path&gt;" class="shp12" d="M304.7 385.5C304.21 388.26 305.79 390.85 308.23 391.28C310.67 391.71 313.04 389.81 313.53 387.05C314.01 384.28 312.43 381.7 309.99 381.27C307.55 380.84 305.18 382.73 304.7 385.5Z" />
					</g>
				</g>
				<path id="&lt;Path&gt;" class="shp10" d="M290.89 390.6L280.3 387.79C279.41 391.68 280.58 393.97 283.82 394.66C288.14 395.58 290.49 394.22 290.89 390.6Z" />
				<g id="&lt;Group&gt;">
					<g id="&lt;Group&gt;">
						<path id="&lt;Path&gt;" class="shp11" d="M310.96 380.62C310.94 380.62 310.93 380.62 310.91 380.61C310.46 380.51 310.2 379.95 310.31 379.37C312.2 370 310.71 362.14 306.13 357.24C301.75 352.55 294.98 351.24 289.46 354.6C289.09 354.82 288.74 355.07 288.4 355.33L285.96 355.76C286.81 354.61 287.92 353.53 289.35 352.74C295.6 349.27 302.36 350.31 307.26 355.55C312.32 360.96 313.98 369.55 311.93 379.75C311.82 380.31 311.39 380.69 310.96 380.62Z" />
					</g>
				</g>
				<path id="&lt;Path&gt;" class="shp23" d="M284.87 402.26C294.58 406.1 301.43 403.96 305.42 395.83" />
				<g id="&lt;Group&gt;">
					<g id="&lt;Group&gt;">
						<g id="&lt;Group&gt;">
							<path id="&lt;Path&gt;" class="shp10" d="M125.48 268.39C147.23 254.92 175.79 261.63 189.27 283.38C197.57 296.79 198.19 312.78 192.36 326.23L202.95 335.63L187.47 334.86C184.03 339.65 179.61 343.87 174.28 347.17C152.53 360.65 123.97 353.94 110.49 332.18C97.01 310.43 103.72 281.87 125.48 268.39Z" />
							<path id="&lt;Path&gt;" class="shp17" d="M125.48 268.39C147.23 254.92 175.79 261.63 189.27 283.38C197.57 296.79 198.19 312.78 192.36 326.23L202.95 335.63L187.47 334.86C184.03 339.65 179.61 343.87 174.28 347.17C152.53 360.65 123.97 353.94 110.49 332.18C97.01 310.43 103.72 281.87 125.48 268.39Z" />
						</g>
					</g>
					<g id="&lt;Group&gt;">
						<g id="&lt;Group&gt;">
							<path id="&lt;Path&gt;" class="shp9" d="M161.2 331.77C161.22 333.79 160.02 335.61 157.89 336.08C154.8 336.77 151.68 338.01 148.61 337.92C141.48 337.72 138.39 333.51 139.92 326.56C141.12 321.11 143.41 313.22 144.68 307.78C146.09 301.77 143.93 299.86 137.95 301.54C137.48 301.67 137.01 301.78 136.37 301.95C136.35 299.75 137 298.39 139.23 297.72C143.66 296.38 146.83 295.87 148.79 295.67C155.94 294.95 159.21 299.63 157.47 307.54C156.54 311.79 154.57 318.48 153.49 322.7C152.98 324.73 152.52 326.81 152.38 328.89C152.21 331.39 153.35 332.49 155.85 332.62C156.78 332.67 157.73 332.5 158.66 332.36C159.5 332.22 160.32 331.98 161.2 331.77Z" />
						</g>
						<g id="&lt;Group&gt;">
							<path id="&lt;Path&gt;" class="shp9" d="M154.63 277.64C158.73 277.59 162.25 280.83 162.3 284.71C162.36 288.53 158.81 291.85 154.7 291.82C150.66 291.8 147.21 288.63 147.13 284.88C147.05 281.05 150.53 277.69 154.63 277.64Z" />
						</g>
					</g>
				</g>
			</g>
		</g>
	</g>
</svg>