<svg width="32" height="32" viewBox="0 0 32 32" fill="none" xmlns="http://www.w3.org/2000/svg">
<path d="M18.7566 6.72245H13.4886V3.81445H7.27395V6.72245H1.90061C0.894613 6.72245 0.0786133 7.53779 0.0786133 8.54512V8.82112L1.48928 16.0925C1.49195 16.0945 1.49461 16.0945 1.49595 16.0945L4.31461 30.2145L4.32795 30.2105C4.57861 30.9278 5.24328 31.4491 6.04595 31.4491H14.7253C15.5373 31.4491 16.2059 30.9131 16.4486 30.1818L16.4659 30.1911L19.3006 16.0658H19.3026L20.5786 9.63579V8.54512C20.5786 7.53779 19.7639 6.72245 18.7566 6.72245Z" fill="#A7AEFF"/>
<path d="M30.0747 17.2685H29.8633V8.79785H26.8573V17.2692H26.6307C25.6093 17.2692 24.7833 18.0845 24.7833 19.0912V20.0772V20.6859V31.4665H31.9213V20.6852V20.0765V19.0905C31.922 18.0839 31.0967 17.2685 30.0747 17.2685Z" fill="#A7AEFF"/>
<path d="M26.8432 7.4792H29.8472V7.03587L31.0692 0.533203H25.8285L26.8432 7.03587V7.4792Z" fill="#A7AEFF"/>
</svg>
