<svg width="28" height="28" viewBox="0 0 28 28" fill="none" xmlns="http://www.w3.org/2000/svg">
<path fill-rule="evenodd" clip-rule="evenodd" d="M16.832 1.83393L17.8066 2.8086C18.184 3.18326 18.688 3.39126 19.224 3.39126H20.5946C22.8093 3.39126 24.6106 5.1926 24.6106 7.40726V8.7766C24.6106 9.31126 24.8186 9.8166 25.196 10.1966L26.1533 11.1553C26.912 11.9086 27.3333 12.9153 27.3373 13.9886C27.3413 15.0619 26.9266 16.0713 26.1706 16.8326L25.1933 17.8073C24.8186 18.1846 24.6106 18.6873 24.6106 19.2233V20.5953C24.6106 22.8086 22.8093 24.6099 20.596 24.6099H19.2213C18.6933 24.6099 18.1773 24.8233 17.8026 25.1953L16.8453 26.1526C16.0626 26.9406 15.0306 27.3353 13.9986 27.3353C12.976 27.3353 11.9533 26.9486 11.1706 26.1726C11.16 26.1619 11.1493 26.1513 11.1386 26.1393L10.192 25.1939C9.81462 24.8193 9.31062 24.6113 8.77462 24.6099H7.40662C5.19196 24.6099 3.39196 22.8086 3.39196 20.5953V19.2206C3.39196 18.6846 3.18262 18.1819 2.80662 17.8033L1.84796 16.8459C0.290622 15.2966 0.271955 12.7739 1.80129 11.2006L1.83729 11.1646L2.80796 10.1913C3.18262 9.81393 3.39196 9.3086 3.39196 8.77393V7.40726C3.39196 5.19393 5.19195 3.3926 7.40529 3.39126H8.77862C9.31329 3.39126 9.81729 3.18193 10.2 2.8046L11.1533 1.8486C12.712 0.279263 15.26 0.271263 16.832 1.83393ZM12.5706 3.2606L11.612 4.22193C10.8466 4.97793 9.84262 5.39126 8.77862 5.39126H7.40662C6.29596 5.3926 5.39196 6.2966 5.39196 7.40726V8.77393C5.39196 9.84193 4.97729 10.8459 4.22529 11.6033L3.27862 12.5513C3.26929 12.5619 3.25996 12.5699 3.25062 12.5793C2.46796 13.3673 2.47196 14.6459 3.25996 15.4286L4.22262 16.3913C4.97729 17.1486 5.39196 18.1526 5.39196 19.2206V20.5953C5.39196 21.7059 6.29462 22.6099 7.40662 22.6099H8.77596C9.84529 22.6113 10.8493 23.0259 11.6053 23.7793L12.5666 24.7379L12.5933 24.7673C13.38 25.5353 14.6466 25.5259 15.428 24.7406L16.3906 23.7806C17.1373 23.0353 18.1693 22.6099 19.2213 22.6099H20.5946C21.7066 22.6099 22.6106 21.7059 22.6106 20.5953V19.2233C22.6106 18.1553 23.024 17.1513 23.7786 16.3953L24.7386 15.4339C25.1293 15.0419 25.3386 14.5339 25.3373 13.9953C25.336 13.4579 25.124 12.9526 24.7413 12.5713L23.78 11.6086C23.024 10.8473 22.6106 9.8446 22.6106 8.7766V7.40726C22.6106 6.29526 21.7066 5.39126 20.5946 5.39126H19.224C18.156 5.39126 17.152 4.9766 16.396 4.22593L15.4333 3.26193C14.632 2.4686 13.3533 2.4726 12.5706 3.2606ZM17.3381 15.9989C18.0754 15.9989 18.6714 16.5949 18.6714 17.3322C18.6714 18.0695 18.0754 18.6655 17.3381 18.6655C16.6008 18.6655 15.9981 18.0695 15.9981 17.3322C15.9981 16.5949 16.5888 15.9989 17.3261 15.9989H17.3381ZM18.1352 9.86726C18.5258 10.2579 18.5258 10.8913 18.1352 11.2819L11.2805 18.1353C11.0858 18.3313 10.8298 18.4286 10.5738 18.4286C10.3178 18.4286 10.0618 18.3313 9.86716 18.1353C9.47649 17.7446 9.47649 17.1126 9.86716 16.7219L16.7205 9.86726C17.1112 9.4766 17.7445 9.4766 18.1352 9.86726ZM10.6714 9.3322C11.4088 9.3322 12.0048 9.9282 12.0048 10.6655C12.0048 11.4029 11.4088 11.9989 10.6714 11.9989C9.93409 11.9989 9.33142 11.4029 9.33142 10.6655C9.33142 9.9282 9.92209 9.3322 10.6594 9.3322H10.6714Z" fill="#F0F0F0"/>
</svg>
