<svg width="180" height="164" viewBox="0 0 180 164" fill="none" xmlns="http://www.w3.org/2000/svg">
<path fill-rule="evenodd" clip-rule="evenodd" d="M147.991 99.8543C165.641 99.8543 180 114.141 180 131.699C180 149.257 165.641 163.544 147.991 163.544C130.33 163.544 115.961 149.257 115.961 131.699C115.961 114.141 130.33 99.8543 147.991 99.8543ZM147.991 115.283C138.836 115.283 131.389 122.648 131.389 131.699C131.389 140.761 138.836 148.115 147.991 148.115C157.135 148.115 164.571 140.761 164.571 131.699C164.571 122.648 157.135 115.283 147.991 115.283ZM72.8264 124.384C77.0847 124.384 80.5407 127.84 80.5407 132.098C80.5407 136.356 77.0847 139.812 72.8264 139.812H8.0157C3.75739 139.812 0.301373 136.356 0.301373 132.098C0.301373 127.84 3.75739 124.384 8.0157 124.384H72.8264ZM32.0196 0C49.6803 0 64.0392 14.2972 64.0392 31.855C64.0392 49.4128 49.6803 63.6895 32.0196 63.6895C14.3692 63.6895 0 49.4128 0 31.855C0 14.2972 14.3692 0 32.0196 0ZM32.0196 15.4287C22.8756 15.4287 15.4287 22.7933 15.4287 31.855C15.4287 40.9065 22.8756 48.2608 32.0196 48.2608C41.1739 48.2608 48.6106 40.9065 48.6106 31.855C48.6106 22.7933 41.1739 15.4287 32.0196 15.4287ZM166.538 24.69C170.796 24.69 174.252 28.146 174.252 32.4043C174.252 36.6626 170.796 40.1186 166.538 40.1186H101.738C97.4793 40.1186 94.0233 36.6626 94.0233 32.4043C94.0233 28.146 97.4793 24.69 101.738 24.69H166.538Z" fill="#F0F0F0"/>
</svg>
