<svg width="32" height="32" viewBox="0 0 32 32" fill="none" xmlns="http://www.w3.org/2000/svg">
<path d="M31 21H29V16C29 12.5522 27.6304 9.24558 25.1924 6.80761C22.7544 4.36964 19.4478 3 16 3C12.5522 3 9.24558 4.36964 6.80761 6.80761C4.36964 9.24558 3 12.5522 3 16V21H1V16C1 12.0218 2.58035 8.20644 5.3934 5.3934C8.20644 2.58035 12.0218 1 16 1C19.9782 1 23.7936 2.58035 26.6066 5.3934C29.4196 8.20644 31 12.0218 31 16V21Z" fill="#FFE398"/>
<path d="M7.23 27H6C5.34339 27 4.69321 26.8707 4.08658 26.6194C3.47995 26.3681 2.92876 25.9998 2.46447 25.5355C1.52678 24.5979 1 23.3261 1 22V20C1 18.6739 1.52678 17.4021 2.46447 16.4645C3.40215 15.5268 4.67392 15 6 15H7.23C7.70217 15.0079 8.15234 15.201 8.48344 15.5377C8.81455 15.8744 9.00007 16.3278 9 16.8V25.2C9.00007 25.6722 8.81455 26.1256 8.48344 26.4623C8.15234 26.799 7.70217 26.9921 7.23 27V27ZM6 17C5.20435 17 4.44129 17.3161 3.87868 17.8787C3.31607 18.4413 3 19.2044 3 20V22C3 22.7956 3.31607 23.5587 3.87868 24.1213C4.44129 24.6839 5.20435 25 6 25H7V17H6Z" fill="#FFE398"/>
<path d="M26 27H24.8C24.3226 27 23.8648 26.8104 23.5272 26.4728C23.1896 26.1352 23 25.6774 23 25.2V16.8C23 16.3226 23.1896 15.8648 23.5272 15.5272C23.8648 15.1896 24.3226 15 24.8 15H26C27.3261 15 28.5979 15.5268 29.5355 16.4645C30.4732 17.4021 31 18.6739 31 20V22C31 23.3261 30.4732 24.5979 29.5355 25.5355C28.5979 26.4732 27.3261 27 26 27ZM25 25H26C26.7956 25 27.5587 24.6839 28.1213 24.1213C28.6839 23.5587 29 22.7956 29 22V20C29 19.2044 28.6839 18.4413 28.1213 17.8787C27.5587 17.3161 26.7956 17 26 17H25V25Z" fill="#FFE398"/>
<path d="M6 16H7.23C7.44217 16 7.64566 16.0843 7.79569 16.2343C7.94571 16.3843 8.03 16.5878 8.03 16.8V25.2C8.03 25.4122 7.94571 25.6157 7.79569 25.7657C7.64566 25.9157 7.44217 26 7.23 26H6C4.93913 26 3.92172 25.5786 3.17157 24.8284C2.42143 24.0783 2 23.0609 2 22V20C2 18.9391 2.42143 17.9217 3.17157 17.1716C3.92172 16.4214 4.93913 16 6 16V16Z" fill="#FFE398"/>
<path d="M26 26H24.8C24.5878 26 24.3843 25.9157 24.2343 25.7657C24.0843 25.6157 24 25.4122 24 25.2V16.8C24 16.5878 24.0843 16.3843 24.2343 16.2343C24.3843 16.0843 24.5878 16 24.8 16H26C27.0609 16 28.0783 16.4214 28.8284 17.1716C29.5786 17.9217 30 18.9391 30 20V22C30 23.0609 29.5786 24.0783 28.8284 24.8284C28.0783 25.5786 27.0609 26 26 26V26Z" fill="#FFE398"/>
<path d="M23.89 31H17C16.7348 31 16.4804 30.8946 16.2929 30.7071C16.1054 30.5196 16 30.2652 16 30C16 29.7348 16.1054 29.4804 16.2929 29.2929C16.4804 29.1054 16.7348 29 17 29H24C24.2652 29 24.5196 28.8946 24.7071 28.7071C24.8946 28.5196 25 28.2652 25 28V26H27V28C27.0018 28.4905 26.8834 28.974 26.655 29.4081C26.4266 29.8422 26.0953 30.2137 25.69 30.49C25.156 30.8395 24.528 31.0175 23.89 31V31Z" fill="#FFE398"/>
</svg>
