<svg width="32" height="32" viewBox="0 0 32 32" fill="none" xmlns="http://www.w3.org/2000/svg">
<path d="M29.2686 2.69302C29.2496 2.67802 28.3036 1.98852 27.5921 2.89852C25.3151 5.82102 17.7516 15.4365 14.0881 18.8405C10.8886 21.814 8.0766 20.1195 6.8146 19.0225V19.0255C6.8146 19.0255 6.1676 18.3535 4.6871 18.815C4.6836 18.816 4.6836 18.816 4.6801 18.816C4.0796 19.0135 3.2631 19.2655 2.1616 19.586C0.600599 20.0375 0.115599 21.212 0.0635986 22.3355C0.0930986 22.708 0.277099 24.4 1.2226 25.5265C2.9451 27.2895 6.3101 29.1155 9.8791 29.497C14.0011 29.9345 15.0091 28.224 15.0091 28.224C15.0091 28.224 17.5236 24.823 19.8791 21.365C19.8806 21.3615 19.8841 21.36 19.8861 21.3565C21.9196 18.428 24.3256 16.957 24.3771 16.925C24.5161 16.8635 24.6496 16.806 24.7781 16.7585C25.0386 16.681 26.4476 16.35 26.5641 18.2665L27.1626 28.5025L27.1661 28.6345C27.1661 28.6345 27.1661 28.6365 27.1661 28.6385L27.1716 28.825C27.1956 29.098 27.3191 29.57 27.8966 29.571C28.4366 29.5605 28.5076 28.9575 28.5126 28.7125V28.6075C28.7316 25.936 29.6896 16.003 30.5761 14.192C33.5866 7.29902 30.8896 3.96702 29.2686 2.69302Z" fill="#FFB4B1"/>
</svg>
