<svg width="32" height="32" viewBox="0 0 32 32" fill="none" xmlns="http://www.w3.org/2000/svg">
<path d="M15.8 13.3902C15.7099 13.2461 15.5846 13.1273 15.4359 13.045C15.2872 12.9628 15.1199 12.9198 14.95 12.9202H7C6.73478 12.9202 6.48043 13.0255 6.29289 13.2131C6.10536 13.4006 6 13.655 6 13.9202V29.0002C6 29.2654 6.10536 29.5197 6.29289 29.7073C6.48043 29.8948 6.73478 30.0002 7 30.0002H15C15.2652 30.0002 15.5196 29.8948 15.7071 29.7073C15.8946 29.5197 16 29.2654 16 29.0002V14.0002C15.9826 13.7839 15.914 13.5748 15.8 13.3902V13.3902ZM12 26.0002H10C9.73478 26.0002 9.48043 25.8948 9.29289 25.7073C9.10536 25.5197 9 25.2654 9 25.0002C9 24.7349 9.10536 24.4806 9.29289 24.2931C9.48043 24.1055 9.73478 24.0002 10 24.0002H12C12.2652 24.0002 12.5196 24.1055 12.7071 24.2931C12.8946 24.4806 13 24.7349 13 25.0002C13 25.2654 12.8946 25.5197 12.7071 25.7073C12.5196 25.8948 12.2652 26.0002 12 26.0002ZM12 22.5002H10C9.73478 22.5002 9.48043 22.3948 9.29289 22.2073C9.10536 22.0197 9 21.7654 9 21.5002C9 21.235 9.10536 20.9806 9.29289 20.7931C9.48043 20.6055 9.73478 20.5002 10 20.5002H12C12.2652 20.5002 12.5196 20.6055 12.7071 20.7931C12.8946 20.9806 13 21.235 13 21.5002C13 21.7654 12.8946 22.0197 12.7071 22.2073C12.5196 22.3948 12.2652 22.5002 12 22.5002ZM12 19.0002H10C9.73478 19.0002 9.48043 18.8948 9.29289 18.7073C9.10536 18.5197 9 18.2654 9 18.0002C9 17.735 9.10536 17.4806 9.29289 17.2931C9.48043 17.1055 9.73478 17.0002 10 17.0002H12C12.2652 17.0002 12.5196 17.1055 12.7071 17.2931C12.8946 17.4806 13 17.735 13 18.0002C13 18.2654 12.8946 18.5197 12.7071 18.7073C12.5196 18.8948 12.2652 19.0002 12 19.0002Z" fill="#E4BCFF"/>
<path d="M25.0001 12.9202H16.6801C16.8746 13.2481 16.9846 13.6192 17.0001 14.0002V29.0002C16.9964 29.3523 16.8998 29.6973 16.7201 30.0002H25.0001C25.2653 30.0002 25.5196 29.8948 25.7072 29.7073C25.8947 29.5197 26.0001 29.2654 26.0001 29.0002V13.9202C26.0001 13.6549 25.8947 13.4006 25.7072 13.2131C25.5196 13.0255 25.2653 12.9202 25.0001 12.9202Z" fill="#E4BCFF"/>
<path d="M15 11.9199L11.87 6.49994C11.7821 6.3484 11.6559 6.22261 11.5041 6.13517C11.3523 6.04773 11.1802 6.00171 11.005 6.00171C10.8298 6.00171 10.6577 6.04773 10.5059 6.13517C10.3541 6.22261 10.2279 6.3484 10.14 6.49994L7 11.9199H15Z" fill="#E4BCFF"/>
<path d="M16.11 11.92H25L21.87 6.50001C21.7819 6.3474 21.655 6.22079 21.5022 6.13299C21.3495 6.04518 21.1762 5.99931 21 6.00001H12.74L16.11 11.92Z" fill="#E4BCFF"/>
<path d="M11 5H11.12H21C21.3513 5.00062 21.6962 5.09375 22 5.27V3C22 2.73478 21.8946 2.48043 21.7071 2.29289C21.5196 2.10536 21.2652 2 21 2H11C10.7348 2 10.4804 2.10536 10.2929 2.29289C10.1054 2.48043 10 2.73478 10 3V5.27C10.3038 5.09375 10.6487 5.00062 11 5Z" fill="#E4BCFF"/>
</svg>
