<svg width="32" height="32" viewBox="0 0 32 32" fill="none" xmlns="http://www.w3.org/2000/svg">
<path d="M7 26H27C27.6 26 28 25.6 28 25V3C28 2.4 27.6 2 27 2H8C5.8 2 4 3.8 4 6V27C4 28.7 5.3 30 7 30H27C27.6 30 28 29.6 28 29C28 28.4 27.6 28 27 28H7C6.4 28 6 27.6 6 27C6 26.4 6.4 26 7 26ZM10.1 18.6L15.1 8.6C15.4 7.9 16.6 7.9 16.9 8.6L21.9 18.6C22.1 19.1 21.9 19.7 21.5 19.9C21.3 20 21.2 20 21 20C20.6 20 20.3 19.8 20.1 19.4L18.9 17H13.1L11.9 19.4C11.7 19.9 11.1 20.1 10.6 19.8C10.1 19.6 9.9 19 10.1 18.6Z" fill="#FF9F9C"/>
<path d="M16 11.2L14.1 15H17.9L16 11.2Z" fill="#FF9F9C"/>
</svg>
