<svg width="32" height="32" viewBox="0 0 32 32" fill="none" xmlns="http://www.w3.org/2000/svg">
<path d="M26.6666 16C26.6666 12.6067 25.0799 9.58667 22.6066 7.63333L21.3333 0H10.6666L9.39325 7.63333C6.91992 9.58667 5.33325 12.6067 5.33325 16C5.33325 19.3933 6.91992 22.4133 9.39325 24.3667L10.6666 32H21.3333L22.6066 24.3667C25.0799 22.4133 26.6666 19.3933 26.6666 16V16ZM7.99992 16C7.99992 11.58 11.5799 8 15.9999 8C20.4199 8 23.9999 11.58 23.9999 16C23.9999 20.42 20.4199 24 15.9999 24C11.5799 24 7.99992 20.42 7.99992 16Z" fill="#A4ABFF"/>
</svg>
