<svg width="32" height="32" viewBox="0 0 32 32" fill="none" xmlns="http://www.w3.org/2000/svg">
<path d="M4.12354 12.539H27.8888" stroke="#0BAF9A" stroke-width="1.5" stroke-linecap="round" stroke-linejoin="round"/>
<path d="M10.0771 22.9283H10.0895M21.9227 17.7462H21.9351H21.9227ZM16.0061 17.7462H16.0185H16.0061ZM10.0771 17.7462H10.0895H10.0771ZM21.9227 22.9283H21.9351H21.9227ZM16.0061 22.9283H16.0185H16.0061Z" stroke="#0BAF9A" stroke-width="1.5" stroke-linecap="round" stroke-linejoin="round"/>
<path d="M21.3916 2.66666V7.05436" stroke="#222222" stroke-width="1.5" stroke-linecap="round" stroke-linejoin="round"/>
<path d="M10.6206 2.66666V7.05436" stroke="#222222" stroke-width="1.5" stroke-linecap="round" stroke-linejoin="round"/>
<path fill-rule="evenodd" clip-rule="evenodd" d="M21.651 4.77225H10.3613C6.4457 4.77225 4 6.95349 4 10.9629V23.0291C4 27.1016 6.4457 29.3333 10.3613 29.3333H21.6387C25.5666 29.3333 28 27.1395 28 23.13V10.9629C28.0123 6.95349 25.579 4.77225 21.651 4.77225Z" stroke="#222222" stroke-width="1.5" stroke-linecap="round" stroke-linejoin="round"/>
</svg>
