<svg width="267" height="183" viewBox="0 0 267 183" fill="none" xmlns="http://www.w3.org/2000/svg">
<path d="M226.863 182.581L151.669 182.547C144.73 182.544 139.109 177.567 139.111 171.434L139.202 11.9139C139.204 5.7806 144.832 0.810901 151.771 0.813325L226.965 0.847264C233.904 0.849688 239.525 5.82423 239.522 11.96L239.432 171.48C239.427 177.613 233.802 182.583 226.863 182.581Z" fill="#F9CAD0"/>
<path fill-rule="evenodd" clip-rule="evenodd" d="M226.87 182.823C226.867 182.823 226.865 182.823 226.863 182.823L151.669 182.789C148.254 182.787 145.042 181.608 142.626 179.47C140.201 177.325 138.868 174.472 138.868 171.434L138.958 11.9139C138.963 5.65938 144.708 0.570892 151.764 0.570892C151.766 0.570892 151.769 0.570892 151.771 0.570892L226.965 0.604832C230.38 0.604832 233.592 1.78544 236.008 3.92362C238.433 6.06907 239.766 8.92241 239.766 11.96L239.676 171.478C239.671 177.735 233.929 182.823 226.87 182.823ZM226.863 182.338C226.865 182.338 226.867 182.338 226.87 182.338C233.66 182.338 239.184 177.468 239.188 171.478L239.279 11.96C239.279 9.06301 238.004 6.33817 235.684 4.28483C233.356 2.22665 230.26 1.08968 226.965 1.08968L151.771 1.05574C151.769 1.05574 151.766 1.05574 151.764 1.05574C144.976 1.05574 139.45 5.92604 139.445 11.9139L139.355 171.434C139.355 174.331 140.63 177.056 142.95 179.109C145.276 181.167 148.374 182.302 151.669 182.304L226.863 182.338Z" fill="#121936"/>
<path d="M223.986 179.681L154.672 179.65C148.276 179.647 143.094 174.838 143.097 168.905L143.184 14.68C143.187 8.7503 148.374 3.94545 154.769 3.94788L224.084 3.97697C230.48 3.98182 235.662 8.79151 235.657 14.7212L235.571 168.947C235.569 174.879 230.38 179.684 223.986 179.681Z" fill="#121936"/>
<path opacity="0.89" fill-rule="evenodd" clip-rule="evenodd" d="M176.55 15.4533C176.204 15.4533 175.877 15.3297 175.631 15.1091C175.375 14.8836 175.236 14.5781 175.236 14.2533C175.236 13.9285 175.377 13.623 175.631 13.3975C175.877 13.1769 176.204 13.0557 176.55 13.0557C176.896 13.0557 177.223 13.1769 177.469 13.3975C177.725 13.6254 177.864 13.9285 177.864 14.2533C177.864 14.9151 177.274 15.4533 176.55 15.4533ZM176.55 13.5406C176.326 13.5406 176.114 13.6181 175.958 13.7588C175.806 13.8921 175.724 14.0666 175.724 14.2533C175.724 14.44 175.806 14.6145 175.955 14.7503C176.114 14.8909 176.323 14.9684 176.55 14.9684C177.006 14.9684 177.376 14.6484 177.376 14.2533C177.376 14.0691 177.293 13.8921 177.145 13.7588C176.986 13.6181 176.777 13.5406 176.55 13.5406Z" fill="white"/>
<path opacity="0.89" fill-rule="evenodd" clip-rule="evenodd" d="M171.833 14.8618C171.475 14.8618 171.183 14.5878 171.183 14.2533C171.183 13.9188 171.475 13.6472 171.833 13.6472C171.833 13.6472 171.833 13.6472 171.836 13.6472C172.194 13.6472 172.487 13.9188 172.487 14.2533C172.484 14.5878 172.194 14.8618 171.833 14.8618ZM171.833 14.1321C171.746 14.1321 171.67 14.1879 171.67 14.2533C171.67 14.3866 171.997 14.3866 171.999 14.2533C171.999 14.1879 171.924 14.1321 171.833 14.1321Z" fill="white"/>
<path opacity="0.89" fill-rule="evenodd" clip-rule="evenodd" d="M197.624 15.1382L181.217 15.1309C180.691 15.1309 180.262 14.7357 180.262 14.2509C180.262 14.0109 180.364 13.7854 180.552 13.6182C180.732 13.4582 180.969 13.3709 181.22 13.3709L197.624 13.3782C197.875 13.3782 198.111 13.4654 198.289 13.6278C198.477 13.7927 198.579 14.0182 198.579 14.2582C198.579 14.743 198.15 15.1382 197.624 15.1382ZM181.22 13.8557C181.088 13.8557 180.969 13.8994 180.879 13.9794C180.796 14.0521 180.749 14.1491 180.749 14.2509C180.749 14.4666 180.959 14.646 181.217 14.646L197.624 14.6533C197.882 14.6533 198.092 14.4763 198.092 14.2582C198.092 14.1563 198.048 14.0618 197.965 13.9866C197.875 13.9066 197.753 13.863 197.624 13.863L181.22 13.8557Z" fill="white"/>
<path fill-rule="evenodd" clip-rule="evenodd" d="M198.223 174.377L180.44 174.37C179.65 174.367 178.904 174.062 178.346 173.504C177.786 172.949 177.478 172.207 177.478 171.419V171.293C177.481 169.669 178.809 168.348 180.442 168.348L198.226 168.358C199.018 168.358 199.761 168.665 200.319 169.221C200.88 169.778 201.187 170.518 201.187 171.305V171.432C201.187 173.056 199.856 174.377 198.223 174.377ZM180.442 168.833C179.077 168.833 177.968 169.938 177.966 171.293V171.419C177.966 172.079 178.224 172.697 178.69 173.162C179.158 173.628 179.779 173.885 180.44 173.885L198.223 173.892C199.588 173.892 200.7 172.789 200.7 171.432V171.305C200.7 170.649 200.444 170.028 199.976 169.565C199.508 169.099 198.886 168.842 198.226 168.842L180.442 168.833Z" fill="white"/>
<path d="M232.849 161.221L146.197 161.182L146.273 24.1151L232.927 24.1539L232.849 161.221Z" fill="white"/>
<g opacity="0.812">
<path opacity="0.812" d="M235.615 161.218L143.106 161.177L143.184 24.1127L235.693 24.1539L235.615 161.218Z" fill="white"/>
</g>
<path opacity="0.69" d="M226.117 54.5369H226.114L188.23 54.4788C188.093 54.4788 187.986 54.3697 187.986 54.2363C187.986 54.103 188.096 53.9939 188.23 53.9939L226.117 54.0521C226.251 54.0521 226.36 54.1612 226.36 54.2945C226.36 54.4303 226.251 54.5369 226.117 54.5369Z" fill="#353148"/>
<path opacity="0.69" d="M207.146 71.0751L188.201 71.046C188.067 71.0436 187.959 70.9369 187.959 70.8012C187.959 70.6679 188.069 70.5612 188.203 70.5612L207.146 70.5903C207.28 70.5903 207.39 70.6969 207.39 70.8327C207.39 70.966 207.28 71.0751 207.146 71.0751Z" fill="#353148"/>
<path opacity="0.69" d="M199.227 59.4703L188.215 59.4485C188.081 59.4485 187.971 59.3394 187.971 59.206C187.971 59.0727 188.081 58.9636 188.215 58.9636L199.227 58.9854C199.361 58.9854 199.471 59.0945 199.471 59.2279C199.471 59.3612 199.361 59.4703 199.227 59.4703Z" fill="#353148"/>
<path opacity="0.69" d="M226.102 59.5067L201.879 59.4848C201.745 59.4848 201.636 59.3758 201.636 59.2424C201.636 59.1091 201.745 59 201.879 59L226.102 59.0218C226.236 59.0218 226.346 59.1309 226.346 59.2642C226.346 59.3976 226.236 59.5067 226.102 59.5067Z" fill="#353148"/>
<path opacity="0.69" d="M209.633 65.3491L188.215 65.3273C188.081 65.3273 187.971 65.2182 187.971 65.0848C187.971 64.9515 188.081 64.8424 188.215 64.8424L209.633 64.8642C209.767 64.8642 209.876 64.9733 209.876 65.1067C209.876 65.24 209.767 65.3491 209.633 65.3491Z" fill="#353148"/>
<path opacity="0.69" d="M226.102 65.3854L211.958 65.3636C211.824 65.3636 211.714 65.2545 211.714 65.1212C211.714 64.9879 211.824 64.8788 211.958 64.8788L226.102 64.9006C226.239 64.9006 226.346 65.0097 226.346 65.143C226.346 65.2763 226.236 65.3854 226.102 65.3854Z" fill="#353148"/>
<path opacity="0.69" d="M226.117 38.1879H226.114L188.23 38.1297C188.093 38.1297 187.986 38.0206 187.986 37.8873C187.986 37.7539 188.096 37.6448 188.23 37.6448L226.117 37.703C226.251 37.703 226.36 37.8121 226.36 37.9454C226.36 38.0788 226.251 38.1879 226.117 38.1879Z" fill="#353148"/>
<path opacity="0.69" d="M199.227 43.1212L188.215 43.0994C188.081 43.0994 187.971 42.9903 187.971 42.857C187.971 42.7236 188.081 42.6145 188.215 42.6145L199.227 42.6363C199.361 42.6363 199.471 42.7454 199.471 42.8788C199.471 43.0121 199.361 43.1212 199.227 43.1212Z" fill="#353148"/>
<path opacity="0.69" d="M226.102 43.1576L201.879 43.1357C201.745 43.1357 201.636 43.0267 201.636 42.8933C201.636 42.76 201.745 42.6509 201.879 42.6509L226.102 42.6727C226.236 42.6727 226.346 42.7818 226.346 42.9151C226.346 43.0485 226.236 43.1576 226.102 43.1576Z" fill="#353148"/>
<path opacity="0.69" d="M209.633 49L188.215 48.9782C188.081 48.9782 187.971 48.8691 187.971 48.7357C187.971 48.6024 188.081 48.4933 188.215 48.4933L209.633 48.5151C209.767 48.5151 209.876 48.6242 209.876 48.7576C209.876 48.8909 209.767 49 209.633 49Z" fill="#353148"/>
<path opacity="0.69" d="M226.102 49.0363L211.958 49.0145C211.824 49.0145 211.714 48.9054 211.714 48.7721C211.714 48.6364 211.824 48.5297 211.958 48.5297L226.102 48.5515C226.239 48.5515 226.346 48.6606 226.346 48.7939C226.346 48.9273 226.236 49.0363 226.102 49.0363Z" fill="#353148"/>
<path d="M182.261 74.2218H154.508V34.5394H182.261V74.2218Z" fill="#FFA8A8"/>
<path d="M182.261 43.8897H154.508V34.5394H182.261V43.8897Z" fill="#708CF5"/>
<path fill-rule="evenodd" clip-rule="evenodd" d="M201.567 116.779H154.355V81.5382H201.567V116.779ZM154.842 116.295H201.08V82.023H154.842V116.295Z" fill="#121936"/>
<path d="M155.754 82.9855H153.446V80.5757H155.754V82.9855Z" fill="#121936"/>
<path d="M202.406 83.0751H200.097V80.6655H202.406V83.0751Z" fill="#121936"/>
<path d="M155.754 117.742H153.446V115.332H155.754V117.742Z" fill="#121936"/>
<path d="M202.406 117.742H200.097V115.332H202.406V117.742Z" fill="#121936"/>
<path d="M177.849 91.2327H159.361C158.542 91.2327 157.879 90.5709 157.879 89.7588C157.879 88.9442 158.542 88.2848 159.361 88.2848H177.849C178.665 88.2848 179.331 88.9442 179.331 89.7588C179.331 90.5709 178.665 91.2327 177.849 91.2327Z" fill="#708CF5"/>
<path d="M177.849 103.293H159.361C158.542 103.293 157.879 102.634 157.879 101.819C157.879 101.005 158.542 100.345 159.361 100.345H177.849C178.665 100.345 179.331 101.005 179.331 101.819C179.331 102.634 178.665 103.293 177.849 103.293Z" fill="#F9CAD0"/>
<path d="M182.409 97.0485H170.946C170.13 97.0485 169.467 96.3891 169.467 95.5745C169.467 94.76 170.13 94.1006 170.946 94.1006H182.409C183.228 94.1006 183.891 94.76 183.891 95.5745C183.891 96.3891 183.228 97.0485 182.409 97.0485Z" fill="#708CF5"/>
<path d="M189.224 91.2327H183.272C182.453 91.2327 181.79 90.5709 181.79 89.7588C181.79 88.9442 182.453 88.2848 183.272 88.2848H189.224C190.043 88.2848 190.706 88.9442 190.706 89.7588C190.706 90.5709 190.043 91.2327 189.224 91.2327Z" fill="#F9CAD0"/>
<path d="M176.228 109.931H159.361C158.542 109.931 157.879 109.272 157.879 108.459C157.879 107.645 158.542 106.985 159.361 106.985H176.228C177.047 106.985 177.71 107.645 177.71 108.459C177.71 109.272 177.047 109.931 176.228 109.931Z" fill="#708CF5"/>
<path d="M186.748 109.931H181.469C180.65 109.931 179.987 109.272 179.987 108.459C179.987 107.645 180.65 106.985 181.469 106.985H186.748C187.567 106.985 188.23 107.645 188.23 108.459C188.23 109.272 187.567 109.931 186.748 109.931Z" fill="#F9CAD0"/>
<path d="M165.313 97.0509H159.361C158.542 97.0509 157.879 96.3915 157.879 95.577C157.879 94.7624 158.542 94.103 159.361 94.103H165.313C166.132 94.103 166.795 94.7624 166.795 95.577C166.795 96.3915 166.132 97.0509 165.313 97.0509Z" fill="#F9CAD0"/>
<path d="M155.008 150.619H197.234C197.619 150.619 197.931 150.309 197.931 149.926V126.971C197.931 126.588 197.619 126.275 197.234 126.275H155.008C154.621 126.275 154.309 126.588 154.309 126.971V149.926C154.309 150.309 154.621 150.619 155.008 150.619Z" fill="#81A5DB"/>
<path d="M157.75 137.482C157.75 141.114 160.709 144.057 164.36 144.057C168.012 144.057 170.971 141.114 170.971 137.482C170.971 133.853 168.012 130.908 164.36 130.908C160.709 130.908 157.75 133.853 157.75 137.482Z" fill="white"/>
<path d="M191.823 132.525H175.845C175.711 132.525 175.602 132.416 175.602 132.282C175.602 132.147 175.711 132.04 175.845 132.04H191.823C191.957 132.04 192.066 132.147 192.066 132.282C192.066 132.416 191.957 132.525 191.823 132.525Z" fill="white"/>
<path d="M194.511 141.584H185.707C185.573 141.584 185.463 141.475 185.463 141.342C185.463 141.206 185.573 141.099 185.707 141.099H194.511C194.645 141.099 194.755 141.206 194.755 141.342C194.755 141.475 194.645 141.584 194.511 141.584Z" fill="white"/>
<path d="M183.591 144.855H174.788C174.651 144.855 174.544 144.748 174.544 144.612C174.544 144.479 174.651 144.37 174.788 144.37H183.591C183.726 144.37 183.835 144.479 183.835 144.612C183.835 144.748 183.726 144.855 183.591 144.855Z" fill="white"/>
<path d="M184.659 138.43H174.788C174.651 138.43 174.544 138.321 174.544 138.188C174.544 138.055 174.651 137.945 174.788 137.945H184.659C184.796 137.945 184.903 138.055 184.903 138.188C184.903 138.321 184.796 138.43 184.659 138.43Z" fill="white"/>
<path d="M194.004 138.43H187.523C187.389 138.43 187.279 138.321 187.279 138.188C187.279 138.055 187.389 137.945 187.523 137.945H194.004C194.138 137.945 194.248 138.055 194.248 138.188C194.248 138.321 194.138 138.43 194.004 138.43Z" fill="#9DD3FF"/>
<path d="M180.796 141.584H174.346C174.212 141.584 174.103 141.475 174.103 141.342C174.103 141.206 174.212 141.099 174.346 141.099H180.796C180.93 141.099 181.04 141.206 181.04 141.342C181.04 141.475 180.93 141.584 180.796 141.584Z" fill="#9DD3FF"/>
<path d="M245.609 154.081H203.941V123.087H245.609V154.081Z" fill="white"/>
<g opacity="0.478">
<path opacity="0.478" fill-rule="evenodd" clip-rule="evenodd" d="M245.852 154.324H203.698V122.845H245.852V154.324ZM204.185 153.839H245.365V123.33H204.185V153.839Z" fill="#121936"/>
<path opacity="0.478" d="M204.97 124.161H202.913V122.011H204.97V124.161Z" fill="#121936"/>
<path opacity="0.478" d="M246.574 124.241H244.514V122.091H246.574V124.241Z" fill="#121936"/>
<path opacity="0.478" d="M204.97 155.155H202.913V153.007H204.97V155.155Z" fill="#121936"/>
<path opacity="0.478" d="M246.574 155.155H244.514V153.007H246.574V155.155Z" fill="#121936"/>
</g>
<path d="M228.369 130.743H209.881C209.065 130.743 208.399 130.084 208.399 129.269C208.399 128.457 209.065 127.795 209.881 127.795H228.369C229.188 127.795 229.851 128.457 229.851 129.269C229.851 130.084 229.188 130.743 228.369 130.743Z" fill="#708CF5"/>
<path d="M228.369 142.806H209.881C209.065 142.806 208.399 142.144 208.399 141.332C208.399 140.518 209.065 139.858 209.881 139.858H228.369C229.188 139.858 229.851 140.518 229.851 141.332C229.851 142.144 229.188 142.806 228.369 142.806Z" fill="#F9CAD0"/>
<path d="M232.929 136.561H221.469C220.65 136.561 219.987 135.902 219.987 135.087C219.987 134.273 220.65 133.613 221.469 133.613H232.929C233.748 133.613 234.411 134.273 234.411 135.087C234.411 135.902 233.748 136.561 232.929 136.561Z" fill="#708CF5"/>
<path d="M239.744 130.743H233.792C232.973 130.743 232.31 130.084 232.31 129.269C232.31 128.457 232.973 127.795 233.792 127.795H239.744C240.563 127.795 241.226 128.457 241.226 129.269C241.226 130.084 240.563 130.743 239.744 130.743Z" fill="#F9CAD0"/>
<path d="M226.75 149.444H209.881C209.065 149.444 208.399 148.784 208.399 147.97C208.399 147.155 209.065 146.496 209.881 146.496H226.75C227.567 146.496 228.232 147.155 228.232 147.97C228.232 148.784 227.567 149.444 226.75 149.444Z" fill="#708CF5"/>
<path d="M237.268 149.444H231.988C231.169 149.444 230.506 148.784 230.506 147.97C230.506 147.155 231.169 146.496 231.988 146.496H237.268C238.087 146.496 238.75 147.155 238.75 147.97C238.75 148.784 238.087 149.444 237.268 149.444Z" fill="#F9CAD0"/>
<path d="M215.836 136.564H209.881C209.065 136.564 208.399 135.902 208.399 135.09C208.399 134.275 209.065 133.616 209.881 133.616H215.836C216.652 133.616 217.318 134.275 217.318 135.09C217.318 135.902 216.652 136.564 215.836 136.564Z" fill="#F9CAD0"/>
<path d="M254.454 71.2885H223.416C223.031 71.2885 222.719 70.9757 222.719 70.5927V43.4679C222.719 43.0848 223.031 42.7745 223.416 42.7745H254.454C254.839 42.7745 255.153 43.0848 255.153 43.4679V70.5927C255.153 70.9757 254.839 71.2885 254.454 71.2885Z" fill="#81A5DB"/>
<path d="M227.769 47.4412C227.708 47.4412 227.645 47.417 227.599 47.3709L225.349 45.1333C225.254 45.0388 225.254 44.8861 225.349 44.7915C225.444 44.697 225.6 44.697 225.695 44.7915L227.942 47.0267C228.037 47.1212 228.037 47.2739 227.942 47.3709C227.894 47.417 227.833 47.4412 227.769 47.4412Z" fill="white"/>
<path d="M225.522 47.4412C225.459 47.4412 225.398 47.417 225.349 47.3709C225.254 47.2739 225.254 47.1212 225.349 47.0267L227.599 44.7915C227.694 44.697 227.847 44.697 227.942 44.7915C228.037 44.8861 228.037 45.0388 227.942 45.1333L225.695 47.3709C225.646 47.417 225.585 47.4412 225.522 47.4412Z" fill="white"/>
<path d="M265.544 113.419H194.701C194.316 113.419 194.004 113.109 194.004 112.726V85.6012C194.004 85.2182 194.316 84.9079 194.701 84.9079H265.544C265.929 84.9079 266.241 85.2182 266.241 85.6012V112.726C266.241 113.109 265.929 113.419 265.544 113.419Z" fill="#81A5DB"/>
<path d="M199.054 89.5745C198.993 89.5745 198.93 89.5503 198.884 89.5018L196.634 87.2667C196.539 87.1721 196.539 87.0194 196.634 86.9249C196.729 86.8303 196.885 86.8303 196.98 86.9249L199.227 89.16C199.322 89.2545 199.322 89.4073 199.227 89.5018C199.179 89.5503 199.118 89.5745 199.054 89.5745Z" fill="white"/>
<path d="M196.807 89.5745C196.744 89.5745 196.683 89.5503 196.634 89.5018C196.539 89.4073 196.539 89.2545 196.634 89.16L198.884 86.9249C198.979 86.8303 199.132 86.8303 199.227 86.9249C199.322 87.0194 199.322 87.1721 199.227 87.2667L196.98 89.5018C196.931 89.5503 196.87 89.5745 196.807 89.5745Z" fill="white"/>
<path d="M217.359 95.3879H201.277C201.141 95.3879 201.033 95.2788 201.033 95.1454C201.033 95.0121 201.141 94.903 201.277 94.903H217.359C217.493 94.903 217.603 95.0121 217.603 95.1454C217.603 95.2788 217.493 95.3879 217.359 95.3879Z" fill="white"/>
<path d="M235.874 95.3879H221.539C221.405 95.3879 221.296 95.2788 221.296 95.1454C221.296 95.0121 221.405 94.903 221.539 94.903H235.874C236.01 94.903 236.117 95.0121 236.117 95.1454C236.117 95.2788 236.01 95.3879 235.874 95.3879Z" fill="white"/>
<path d="M215.612 104.394H201.277C201.141 104.394 201.033 104.285 201.033 104.152C201.033 104.018 201.141 103.909 201.277 103.909H215.612C215.746 103.909 215.855 104.018 215.855 104.152C215.855 104.285 215.746 104.394 215.612 104.394Z" fill="white"/>
<path d="M229.178 99.6376H214.844C214.707 99.6376 214.6 99.5285 214.6 99.3952C214.6 99.2618 214.707 99.1527 214.844 99.1527H229.178C229.312 99.1527 229.422 99.2618 229.422 99.3952C229.422 99.5285 229.312 99.6376 229.178 99.6376Z" fill="white"/>
<path d="M210.686 99.6376H201.277C201.141 99.6376 201.033 99.5285 201.033 99.3952C201.033 99.2618 201.141 99.1527 201.277 99.1527H210.686C210.82 99.1527 210.929 99.2618 210.929 99.3952C210.929 99.5285 210.82 99.6376 210.686 99.6376Z" fill="white"/>
<path d="M225.802 104.394H220.018C219.884 104.394 219.775 104.285 219.775 104.152C219.775 104.018 219.884 103.909 220.018 103.909H225.802C225.939 103.909 226.046 104.018 226.046 104.152C226.046 104.285 225.939 104.394 225.802 104.394Z" fill="white"/>
<path d="M248.324 95.3879H232.242C232.105 95.3879 231.998 95.2788 231.998 95.1454C231.998 95.0121 232.105 94.903 232.242 94.903H248.324C248.458 94.903 248.568 95.0121 248.568 95.1454C248.568 95.2788 248.458 95.3879 248.324 95.3879Z" fill="white"/>
<path d="M256.557 95.3879H243.815C243.681 95.3879 243.571 95.2788 243.571 95.1454C243.571 95.0121 243.681 94.903 243.815 94.903H256.557C256.691 94.903 256.801 95.0121 256.801 95.1454C256.801 95.2788 256.691 95.3879 256.557 95.3879Z" fill="white"/>
<path d="M246.576 104.394H232.242C232.105 104.394 231.998 104.285 231.998 104.152C231.998 104.018 232.105 103.909 232.242 103.909H246.576C246.71 103.909 246.82 104.018 246.82 104.152C246.82 104.285 246.71 104.394 246.576 104.394Z" fill="white"/>
<path d="M260.143 99.6376H245.806C245.672 99.6376 245.562 99.5285 245.562 99.3952C245.562 99.2618 245.672 99.1527 245.806 99.1527H260.143C260.277 99.1527 260.386 99.2618 260.386 99.3952C260.386 99.5285 260.277 99.6376 260.143 99.6376Z" fill="white"/>
<path d="M241.65 99.6376H232.242C232.105 99.6376 231.998 99.5285 231.998 99.3952C231.998 99.2618 232.105 99.1527 232.242 99.1527H241.65C241.784 99.1527 241.894 99.2618 241.894 99.3952C241.894 99.5285 241.784 99.6376 241.65 99.6376Z" fill="white"/>
<path d="M256.769 104.394H250.983C250.849 104.394 250.739 104.285 250.739 104.152C250.739 104.018 250.849 103.909 250.983 103.909H256.769C256.903 103.909 257.013 104.018 257.013 104.152C257.013 104.285 256.903 104.394 256.769 104.394Z" fill="white"/>
<path d="M51.3701 109.756H15.0846C14.7165 109.756 14.3801 109.55 14.2144 109.223L0.601554 82.2436C0.274943 81.5988 0.747797 80.8376 1.4717 80.8376H37.9814C38.3519 80.8376 38.6907 81.0485 38.8565 81.3782L52.2451 108.358C52.5644 109.002 52.0915 109.756 51.3701 109.756Z" fill="white"/>
<path fill-rule="evenodd" clip-rule="evenodd" d="M51.3701 109.999H15.0846C14.6215 109.999 14.2047 109.742 13.9975 109.332L0.382193 82.3503C0.192076 81.9721 0.211575 81.5309 0.435816 81.1721C0.657619 80.8109 1.04516 80.5951 1.47171 80.5951H37.9815C38.4494 80.5951 38.8687 80.8545 39.0734 81.2715L52.462 108.251C52.6497 108.629 52.6278 109.068 52.406 109.427C52.1817 109.785 51.7942 109.999 51.3701 109.999ZM1.47171 81.08C1.21578 81.08 0.98423 81.2085 0.850173 81.4266C0.716116 81.6424 0.703929 81.9066 0.818487 82.1345L14.4313 109.114C14.5581 109.361 14.8067 109.514 15.0846 109.514H51.3701C51.6236 109.514 51.8576 109.385 51.9916 109.172C52.1257 108.956 52.1379 108.692 52.0257 108.464L38.6371 81.4848C38.5128 81.2351 38.2618 81.08 37.9815 81.08H1.47171Z" fill="#121936"/>
<path d="M71.5298 109.657C71.5298 108.668 70.7254 107.865 69.731 107.865H50.3195L37.6329 82.5854C37.55 82.4206 37.3818 82.3188 37.1966 82.3188H1.29134C0.928165 82.3188 0.694176 82.6969 0.855044 83.0194L14.329 109.916C14.4094 110.081 14.58 110.185 14.7653 110.185L50.6193 110.028C50.6291 110.028 50.6364 110.025 50.6437 110.025H71.5298V109.657Z" fill="#121936"/>
<path d="M54.8629 109.322H52.5961C52.5595 109.322 52.5303 109.293 52.5303 109.259V108.792C52.5303 108.758 52.5595 108.728 52.5961 108.728H54.8629C54.8994 108.728 54.9287 108.758 54.9287 108.792V109.259C54.9287 109.293 54.8994 109.322 54.8629 109.322Z" fill="white"/>
<path d="M58.9942 109.322H56.7275C56.6933 109.322 56.6641 109.293 56.6641 109.259V108.792C56.6641 108.758 56.6933 108.728 56.7275 108.728H58.9942C59.0308 108.728 59.06 108.758 59.06 108.792V109.259C59.06 109.293 59.0308 109.322 58.9942 109.322Z" fill="white"/>
<path d="M26.3453 98.486C25.2948 99.5309 23.3376 99.2763 21.9726 97.9188C20.6053 96.5612 20.3493 94.6121 21.3999 93.5697C22.4504 92.5248 24.41 92.7794 25.775 94.137C27.1399 95.4945 27.3959 97.4412 26.3453 98.486Z" fill="white"/>
<path fill-rule="evenodd" clip-rule="evenodd" d="M24.6782 99.3685C23.7081 99.3685 22.6429 98.9297 21.7996 98.0909C20.342 96.6388 20.0837 94.5345 21.2292 93.3976C22.3724 92.2606 24.488 92.5151 25.948 93.9648C27.4056 95.4145 27.6615 97.5212 26.5184 98.6582C26.0358 99.1357 25.3826 99.3685 24.6782 99.3685ZM23.0695 93.1673C22.4918 93.1673 21.9605 93.3539 21.5729 93.7394C20.6199 94.6873 20.8758 96.486 22.1433 97.7467C23.4132 99.0073 25.2193 99.2642 26.1723 98.3163C27.1277 97.366 26.8694 95.5697 25.6019 94.3067C24.8512 93.56 23.9104 93.1673 23.0695 93.1673Z" fill="#121936"/>
<path fill-rule="evenodd" clip-rule="evenodd" d="M25.0096 100.217C23.7909 100.217 22.4431 99.6594 21.373 98.5951C19.5377 96.7673 19.2013 94.1297 20.6248 92.7139C22.0458 91.3006 24.7001 91.6351 26.5355 93.4606C28.3732 95.286 28.7096 97.9236 27.2862 99.3394C26.6914 99.9309 25.8822 100.217 25.0096 100.217ZM22.8964 92.0788C22.0628 92.0788 21.3292 92.3576 20.7954 92.886C19.4694 94.2073 19.8034 96.6921 21.5461 98.423C22.3943 99.2666 23.4424 99.8073 24.5002 99.943C25.5459 100.081 26.4745 99.8048 27.1131 99.1697C27.7517 98.5321 28.0296 97.6109 27.8931 96.5709C27.7541 95.5188 27.2106 94.4739 26.3624 93.6327C25.5166 92.7891 24.4661 92.2485 23.4083 92.1103C23.2352 92.0885 23.0622 92.0788 22.8964 92.0788Z" fill="white"/>
<path d="M65.5289 48.6291C65.5289 49.2545 65.0195 49.7612 64.3906 49.7612C63.7618 49.7612 63.2523 49.2545 63.2523 48.6291C63.2523 48.0036 63.7618 47.4969 64.3906 47.4969C65.0195 47.4969 65.5289 48.0036 65.5289 48.6291Z" fill="#F9CAD0"/>
<path d="M22.0555 68.5879C22.0555 68.9006 21.802 69.1552 21.4876 69.1552C21.1732 69.1552 20.9172 68.9006 20.9172 68.5879C20.9172 68.2751 21.1732 68.023 21.4876 68.023C21.802 68.023 22.0555 68.2751 22.0555 68.5879Z" fill="#F8F8F6"/>
<path d="M32.4754 52.8497C32.4754 53.1624 32.2219 53.4145 31.9075 53.4145C31.593 53.4145 31.3371 53.1624 31.3371 52.8497C31.3371 52.5369 31.593 52.2824 31.9075 52.2824C32.2219 52.2824 32.4754 52.5369 32.4754 52.8497Z" fill="#F8F8F6"/>
<path d="M38.1058 23.5527C38.1058 23.8654 37.8523 24.12 37.5378 24.12C37.2234 24.12 36.9675 23.8654 36.9675 23.5527C36.9675 23.24 37.2234 22.9879 37.5378 22.9879C37.8523 22.9879 38.1058 23.24 38.1058 23.5527Z" fill="#F8F8F6"/>
<g opacity="0.49">
<path opacity="0.49" d="M17.2782 37.8218C17.2782 38.1345 17.0223 38.3867 16.7079 38.3867C16.3934 38.3867 16.1399 38.1345 16.1399 37.8218C16.1399 37.5091 16.3934 37.2545 16.7079 37.2545C17.0223 37.2545 17.2782 37.5091 17.2782 37.8218Z" fill="#F8F8F6"/>
</g>
<g opacity="0.49">
<path opacity="0.49" d="M50.5438 41.2133C50.5438 41.5261 50.2879 41.7782 49.9734 41.7782C49.659 41.7782 49.4055 41.5261 49.4055 41.2133C49.4055 40.9006 49.659 40.6461 49.9734 40.6461C50.2879 40.6461 50.5438 40.9006 50.5438 41.2133Z" fill="#F8F8F6"/>
</g>
<path d="M46.154 57.4339C46.154 58.0594 45.6446 58.566 45.0158 58.566C44.3869 58.566 43.8775 58.0594 43.8775 57.4339C43.8775 56.8085 44.3869 56.3018 45.0158 56.3018C45.6446 56.3018 46.154 56.8085 46.154 57.4339Z" fill="#F8F8F6"/>
<path fill-rule="evenodd" clip-rule="evenodd" d="M12.2636 182.295C11.7542 182.295 11.2741 182.098 10.9133 181.742C10.5502 181.383 10.3479 180.905 10.3454 180.396L10.0481 115.638C10.0456 115.126 10.243 114.646 10.6038 114.285C10.9621 113.924 11.4447 113.722 11.9565 113.72L81.3711 113.405C81.3736 113.405 81.376 113.405 81.3784 113.405C82.4338 113.405 83.2918 114.253 83.2967 115.303L83.5965 180.062C83.5989 180.571 83.4015 181.051 83.0407 181.415C82.68 181.776 82.1998 181.977 81.6855 181.979L12.271 182.295C12.2685 182.295 12.2661 182.295 12.2636 182.295ZM81.3784 113.89C81.376 113.89 81.376 113.89 81.3736 113.89L11.959 114.205C11.5763 114.207 11.218 114.358 10.9499 114.627C10.6793 114.896 10.5331 115.255 10.5355 115.635L10.8329 180.394C10.8353 180.772 10.984 181.131 11.257 181.398C11.5276 181.664 11.8834 181.81 12.2636 181.81C12.2661 181.81 12.2685 181.81 12.271 181.81L81.6855 181.495C82.0658 181.492 82.4241 181.342 82.6946 181.073C82.9627 180.801 83.109 180.445 83.109 180.064L82.8092 115.305C82.8068 114.522 82.1657 113.89 81.3784 113.89Z" fill="#121936"/>
<path d="M80.5042 118.678L80.7797 178.619C80.7845 179.541 80.0387 180.29 79.1125 180.292L14.8457 180.585C13.9219 180.59 13.1688 179.848 13.1639 178.927L12.8885 118.985C12.8836 118.067 13.6294 117.318 14.5532 117.313L78.8224 117.019C79.7462 117.017 80.4994 117.759 80.5042 118.678Z" fill="white"/>
<path d="M83.2804 111.502L83.2999 115.511L10.0075 115.844L9.98797 111.754C9.9831 110.874 10.6973 110.156 11.582 110.151L81.5889 109.834C82.52 109.829 83.2756 110.576 83.2804 111.502Z" fill="#81A5DB"/>
<path fill-rule="evenodd" clip-rule="evenodd" d="M13.6124 114.115C12.9738 114.115 12.4546 113.599 12.4546 112.964C12.4546 112.328 12.9738 111.812 13.6124 111.812C14.251 111.812 14.7701 112.328 14.7701 112.964C14.7701 113.599 14.251 114.115 13.6124 114.115ZM13.6124 112.176C13.1761 112.176 12.8202 112.53 12.8202 112.964C12.8202 113.4 13.1761 113.751 13.6124 113.751C14.0487 113.751 14.4045 113.4 14.4045 112.964C14.4045 112.53 14.0487 112.176 13.6124 112.176Z" fill="white"/>
<path fill-rule="evenodd" clip-rule="evenodd" d="M17.6828 114.115C17.0442 114.115 16.5251 113.599 16.5251 112.964C16.5251 112.328 17.0442 111.812 17.6828 111.812C18.3214 111.812 18.8406 112.328 18.8406 112.964C18.8406 113.599 18.3214 114.115 17.6828 114.115ZM17.6828 112.176C17.2465 112.176 16.8907 112.53 16.8907 112.964C16.8907 113.4 17.2465 113.751 17.6828 113.751C18.1191 113.751 18.475 113.4 18.475 112.964C18.475 112.53 18.1191 112.176 17.6828 112.176Z" fill="white"/>
<path fill-rule="evenodd" clip-rule="evenodd" d="M21.6411 114.115C21.0025 114.115 20.4834 113.599 20.4834 112.964C20.4834 112.328 21.0025 111.812 21.6411 111.812C22.2797 111.812 22.7989 112.328 22.7989 112.964C22.7989 113.599 22.2797 114.115 21.6411 114.115ZM21.6411 112.176C21.2049 112.176 20.849 112.53 20.849 112.964C20.849 113.4 21.2049 113.751 21.6411 113.751C22.0774 113.751 22.4333 113.4 22.4333 112.964C22.4333 112.53 22.0774 112.176 21.6411 112.176Z" fill="white"/>
<path d="M45.4959 136.879H20.42C20.286 136.879 20.1763 136.77 20.1763 136.636C20.1763 136.501 20.286 136.394 20.42 136.394H45.4959C45.63 136.394 45.7397 136.501 45.7397 136.636C45.7397 136.77 45.63 136.879 45.4959 136.879Z" fill="#599AF2"/>
<path d="M52.6765 126.098H20.42C20.286 126.098 20.1763 125.989 20.1763 125.856C20.1763 125.72 20.286 125.613 20.42 125.613H52.6765C52.8106 125.613 52.9202 125.72 52.9202 125.856C52.9202 125.989 52.8106 126.098 52.6765 126.098Z" fill="#708CF5"/>
<path opacity="0.69" d="M63.4278 126.098H56.7348C56.5983 126.098 56.491 125.989 56.491 125.856C56.491 125.72 56.5983 125.613 56.7348 125.613H63.4278C63.5643 125.613 63.6716 125.72 63.6716 125.856C63.6716 125.989 63.5643 126.098 63.4278 126.098Z" fill="#353148"/>
<path d="M52.6765 148.685H20.42C20.286 148.685 20.1763 148.578 20.1763 148.442C20.1763 148.309 20.286 148.2 20.42 148.2H52.6765C52.8106 148.2 52.9202 148.309 52.9202 148.442C52.9202 148.578 52.8106 148.685 52.6765 148.685Z" fill="#708CF5"/>
<path d="M63.4278 148.685H56.7348C56.5983 148.685 56.491 148.578 56.491 148.442C56.491 148.309 56.5983 148.2 56.7348 148.2H63.4278C63.5643 148.2 63.6716 148.309 63.6716 148.442C63.6716 148.578 63.5643 148.685 63.4278 148.685Z" fill="#599AF2"/>
<path d="M63.4278 136.879H56.7348C56.5983 136.879 56.491 136.77 56.491 136.636C56.491 136.501 56.5983 136.394 56.7348 136.394H63.4278C63.5643 136.394 63.6716 136.501 63.6716 136.636C63.6716 136.77 63.5643 136.879 63.4278 136.879Z" fill="#708CF5"/>
<path opacity="0.69" d="M74.4497 136.879H67.7566C67.6226 136.879 67.5129 136.77 67.5129 136.636C67.5129 136.501 67.6226 136.394 67.7566 136.394H74.4497C74.5862 136.394 74.6935 136.501 74.6935 136.636C74.6935 136.77 74.5862 136.879 74.4497 136.879Z" fill="#353148"/>
<path opacity="0.69" d="M41.9251 131.402H20.42C20.286 131.402 20.1763 131.293 20.1763 131.16C20.1763 131.027 20.286 130.918 20.42 130.918H41.9251C42.0592 130.918 42.1689 131.027 42.1689 131.16C42.1689 131.293 42.0592 131.402 41.9251 131.402Z" fill="#353148"/>
<path d="M55.3138 131.402H45.881C45.747 131.402 45.6373 131.293 45.6373 131.16C45.6373 131.027 45.747 130.918 45.881 130.918H55.3138C55.4478 130.918 55.5575 131.027 55.5575 131.16C55.5575 131.293 55.4478 131.402 55.3138 131.402Z" fill="#F7A9B4"/>
<path opacity="0.69" d="M55.3138 142.762H33.8111C33.6746 142.762 33.5673 142.653 33.5673 142.52C33.5673 142.387 33.6746 142.278 33.8111 142.278H55.3138C55.4478 142.278 55.5575 142.387 55.5575 142.52C55.5575 142.653 55.4478 142.762 55.3138 142.762Z" fill="#353148"/>
<path d="M29.8527 142.762H20.42C20.286 142.762 20.1763 142.653 20.1763 142.52C20.1763 142.387 20.286 142.278 20.42 142.278H29.8527C29.9892 142.278 30.0965 142.387 30.0965 142.52C30.0965 142.653 29.9892 142.762 29.8527 142.762Z" fill="#F7A9B4"/>
<path d="M52.6765 156.302H20.42C20.286 156.302 20.1763 156.193 20.1763 156.059C20.1763 155.924 20.286 155.817 20.42 155.817H52.6765C52.8106 155.817 52.9202 155.924 52.9202 156.059C52.9202 156.193 52.8106 156.302 52.6765 156.302Z" fill="#F7A9B4"/>
<path opacity="0.69" d="M63.4278 156.302H56.7348C56.5983 156.302 56.491 156.193 56.491 156.059C56.491 155.924 56.5983 155.817 56.7348 155.817H63.4278C63.5643 155.817 63.6716 155.924 63.6716 156.059C63.6716 156.193 63.5643 156.302 63.4278 156.302Z" fill="#353148"/>
<path d="M52.6765 167.082H20.42C20.286 167.082 20.1763 166.973 20.1763 166.84C20.1763 166.704 20.286 166.598 20.42 166.598H52.6765C52.8106 166.598 52.9202 166.704 52.9202 166.84C52.9202 166.973 52.8106 167.082 52.6765 167.082Z" fill="#599AF2"/>
<path d="M63.4278 167.082H56.7348C56.5983 167.082 56.491 166.973 56.491 166.84C56.491 166.704 56.5983 166.598 56.7348 166.598H63.4278C63.5643 166.598 63.6716 166.704 63.6716 166.84C63.6716 166.973 63.5643 167.082 63.4278 167.082Z" fill="#708CF5"/>
<path opacity="0.69" d="M74.4497 167.082H67.7566C67.6226 167.082 67.5129 166.973 67.5129 166.84C67.5129 166.704 67.6226 166.598 67.7566 166.598H74.4497C74.5862 166.598 74.6935 166.704 74.6935 166.84C74.6935 166.973 74.5862 167.082 74.4497 167.082Z" fill="#353148"/>
<path opacity="0.69" d="M41.9251 161.606H20.42C20.286 161.606 20.1763 161.497 20.1763 161.364C20.1763 161.228 20.286 161.121 20.42 161.121H41.9251C42.0592 161.121 42.1689 161.228 42.1689 161.364C42.1689 161.497 42.0592 161.606 41.9251 161.606Z" fill="#353148"/>
<path d="M55.3138 161.606H45.881C45.747 161.606 45.6373 161.497 45.6373 161.364C45.6373 161.228 45.747 161.121 45.881 161.121H55.3138C55.4478 161.121 55.5575 161.228 55.5575 161.364C55.5575 161.497 55.4478 161.606 55.3138 161.606Z" fill="#F7A9B4"/>
<path opacity="0.69" d="M55.3138 172.966H33.8111C33.6746 172.966 33.5673 172.857 33.5673 172.724C33.5673 172.588 33.6746 172.481 33.8111 172.481H55.3138C55.4478 172.481 55.5575 172.588 55.5575 172.724C55.5575 172.857 55.4478 172.966 55.3138 172.966Z" fill="#353148"/>
<path d="M29.8527 172.966H20.42C20.286 172.966 20.1763 172.857 20.1763 172.724C20.1763 172.588 20.286 172.481 20.42 172.481H29.8527C29.9892 172.481 30.0965 172.588 30.0965 172.724C30.0965 172.857 29.9892 172.966 29.8527 172.966Z" fill="#F7A9B4"/>
<path d="M54.1438 182.513H98.7628C100.008 182.513 101.02 181.509 101.02 180.27V163.015C101.02 161.776 100.008 160.772 98.7628 160.772H54.1438C52.8983 160.772 51.8893 161.776 51.8893 163.015V180.27C51.8893 181.509 52.8983 182.513 54.1438 182.513Z" fill="#81A5DB"/>
<path d="M89.5007 171.732H73.9623C73.8282 171.732 73.7186 171.623 73.7186 171.49C73.7186 171.356 73.8282 171.247 73.9623 171.247H89.5007C89.6348 171.247 89.7444 171.356 89.7444 171.49C89.7444 171.623 89.6348 171.732 89.5007 171.732Z" fill="white"/>
<path d="M78.881 166.857H63.3426C63.2085 166.857 63.0988 166.748 63.0988 166.615C63.0988 166.481 63.2085 166.372 63.3426 166.372H78.881C79.015 166.372 79.1247 166.481 79.1247 166.615C79.1247 166.748 79.015 166.857 78.881 166.857Z" fill="white"/>
<path d="M93.5833 166.857H83.3853C83.2512 166.857 83.1415 166.748 83.1415 166.615C83.1415 166.481 83.2512 166.372 83.3853 166.372H93.5833C93.7174 166.372 93.8271 166.481 93.8271 166.615C93.8271 166.748 93.7174 166.857 93.5833 166.857Z" fill="#9DD3FF"/>
<path d="M78.881 176.406H63.3426C63.2085 176.406 63.0988 176.297 63.0988 176.164C63.0988 176.03 63.2085 175.921 63.3426 175.921H78.881C79.015 175.921 79.1247 176.03 79.1247 176.164C79.1247 176.297 79.015 176.406 78.881 176.406Z" fill="white"/>
<path d="M90.1027 176.406H83.3853C83.2512 176.406 83.1415 176.297 83.1415 176.164C83.1415 176.03 83.2512 175.921 83.3853 175.921H90.1027C90.2392 175.921 90.3465 176.03 90.3465 176.164C90.3465 176.297 90.2392 176.406 90.1027 176.406Z" fill="#9DD3FF"/>
<path d="M69.1875 171.732H62.916C62.782 171.732 62.6723 171.623 62.6723 171.49C62.6723 171.356 62.782 171.247 62.916 171.247H69.1875C69.3215 171.247 69.4312 171.356 69.4312 171.49C69.4312 171.623 69.3215 171.732 69.1875 171.732Z" fill="#9DD3FF"/>
<path d="M57.2149 165.982C57.154 165.982 57.0906 165.96 57.0443 165.912L54.7946 163.676C54.6995 163.582 54.6995 163.429 54.7946 163.335C54.8897 163.238 55.0457 163.238 55.1407 163.335L57.388 165.57C57.4831 165.664 57.4831 165.817 57.388 165.912C57.3393 165.96 57.2783 165.982 57.2149 165.982Z" fill="white"/>
<path d="M54.9677 165.982C54.9043 165.982 54.8434 165.96 54.7946 165.912C54.6995 165.817 54.6995 165.664 54.7946 165.57L57.0443 163.335C57.1394 163.238 57.2929 163.238 57.388 163.335C57.4831 163.429 57.4831 163.582 57.388 163.676L55.1407 165.912C55.092 165.96 55.031 165.982 54.9677 165.982Z" fill="white"/>
<path d="M168.041 60.3358H120.499C119.286 60.3358 118.303 59.5091 118.303 58.4909V27.4315V23.9358C118.303 22.9152 119.286 22.0885 120.499 22.0885H168.041C169.252 22.0885 170.237 22.9152 170.237 23.9358V58.4909C170.237 59.5091 169.252 60.3358 168.041 60.3358Z" fill="white"/>
<path fill-rule="evenodd" clip-rule="evenodd" d="M168.04 60.5782H120.499C119.154 60.5782 118.059 59.674 118.059 58.5612V28.7721L170.48 28.5443V58.5612C170.48 59.674 169.386 60.5782 168.04 60.5782ZM118.547 29.2546V58.5612C118.547 59.4049 119.424 60.0934 120.499 60.0934H168.04C169.115 60.0934 169.993 59.4049 169.993 58.5612V29.0315L118.547 29.2546Z" fill="#121936"/>
<path d="M118.023 29.2424V23.9043C118.023 22.9006 119.015 22.0885 120.239 22.0885H168.224C169.447 22.0885 170.442 22.9006 170.442 23.9043V29.0097" fill="#81A5DB"/>
<path fill-rule="evenodd" clip-rule="evenodd" d="M122.052 26.8303C121.467 26.8303 120.992 26.3406 120.992 25.737C120.992 25.1358 121.467 24.6436 122.052 24.6436C122.637 24.6436 123.112 25.1358 123.112 25.737C123.112 26.3406 122.637 26.8303 122.052 26.8303ZM122.052 25.1285C121.735 25.1285 121.479 25.4024 121.479 25.737C121.479 26.0715 121.735 26.3455 122.052 26.3455C122.367 26.3455 122.625 26.0715 122.625 25.737C122.625 25.4024 122.367 25.1285 122.052 25.1285Z" fill="white"/>
<path fill-rule="evenodd" clip-rule="evenodd" d="M125.116 26.8303C124.531 26.8303 124.056 26.3406 124.056 25.737C124.056 25.1358 124.531 24.6436 125.116 24.6436C125.701 24.6436 126.176 25.1358 126.176 25.737C126.176 26.3406 125.701 26.8303 125.116 26.8303ZM125.116 25.1285C124.799 25.1285 124.543 25.4024 124.543 25.737C124.543 26.0715 124.799 26.3455 125.116 26.3455C125.43 26.3455 125.689 26.0715 125.689 25.737C125.689 25.4024 125.43 25.1285 125.116 25.1285Z" fill="white"/>
<path fill-rule="evenodd" clip-rule="evenodd" d="M128.121 26.8303C127.536 26.8303 127.061 26.3406 127.061 25.737C127.061 25.1358 127.536 24.6436 128.121 24.6436C128.706 24.6436 129.181 25.1358 129.181 25.737C129.181 26.3406 128.706 26.8303 128.121 26.8303ZM128.121 25.1285C127.804 25.1285 127.548 25.4024 127.548 25.737C127.548 26.0715 127.804 26.3455 128.121 26.3455C128.436 26.3455 128.694 26.0715 128.694 25.737C128.694 25.4024 128.436 25.1285 128.121 25.1285Z" fill="white"/>
<g opacity="0.31">
<path opacity="0.31" fill-rule="evenodd" clip-rule="evenodd" d="M166.418 57.9673H122.123C121.175 57.9673 120.404 57.2012 120.404 56.2606V31.817C120.404 30.8764 121.175 30.1103 122.123 30.1103H166.418C167.366 30.1103 168.136 30.8764 168.136 31.817V56.2606C168.136 57.2012 167.366 57.9673 166.418 57.9673ZM122.123 30.5952C121.443 30.5952 120.892 31.143 120.892 31.817V56.2606C120.892 56.9346 121.443 57.4825 122.123 57.4825H166.418C167.098 57.4825 167.648 56.9346 167.648 56.2606V31.817C167.648 31.143 167.098 30.5952 166.418 30.5952H122.123Z" fill="#103463"/>
<path opacity="0.69" fill-rule="evenodd" clip-rule="evenodd" d="M137.956 53.9576H125.755V40.0788H137.956V53.9576ZM126.242 53.4728H137.469V40.5637H126.242V53.4728Z" fill="#353148"/>
<g opacity="0.31">
<path opacity="0.31" d="M137.712 38.9224H125.998V34.1952H126.266H137.712V38.9224Z" fill="#708CF5"/>
</g>
<g opacity="0.31">
<path opacity="0.31" d="M143.884 45.0218V34.1952H162.63V34.4449V45.0218H143.884Z" fill="#708CF5"/>
</g>
<g opacity="0.31">
<path opacity="0.31" d="M137.656 38.9224H125.942V34.1952H126.21H137.656V38.9224Z" fill="#F9CAD0"/>
</g>
<g opacity="0.31">
<path opacity="0.31" d="M143.828 45.0218V34.1952H162.571V34.4449V45.0218H143.828Z" fill="#F9CAD0"/>
</g>
<path opacity="0.69" fill-rule="evenodd" clip-rule="evenodd" d="M162.874 54.5709H143.64V47.9867H162.874V54.5709ZM144.128 54.0861H162.386V48.4715H144.128V54.0861Z" fill="#353148"/>
</g>
<path d="M137.656 38.9224H125.942V34.1952H126.21H137.656V38.9224Z" fill="#F9CAD0"/>
<path d="M143.828 45.0218V34.1952H162.571V34.4449V45.0218H143.828Z" fill="#F9CAD0"/>
<path fill-rule="evenodd" clip-rule="evenodd" d="M147.628 40.8812C146.782 40.8812 146.092 40.1976 146.092 39.354C146.092 38.5128 146.782 37.8267 147.628 37.8267C148.476 37.8267 149.166 38.5128 149.166 39.354C149.166 40.1976 148.476 40.8812 147.628 40.8812ZM147.628 38.1903C146.984 38.1903 146.458 38.714 146.458 39.354C146.458 39.9964 146.984 40.5176 147.628 40.5176C148.274 40.5176 148.8 39.9964 148.8 39.354C148.8 38.714 148.274 38.1903 147.628 38.1903Z" fill="white"/>
<path fill-rule="evenodd" clip-rule="evenodd" d="M153.278 40.8812C152.432 40.8812 151.742 40.1976 151.742 39.354C151.742 38.5128 152.432 37.8267 153.278 37.8267C154.126 37.8267 154.813 38.5128 154.813 39.354C154.813 40.1976 154.126 40.8812 153.278 40.8812ZM153.278 38.1903C152.634 38.1903 152.108 38.714 152.108 39.354C152.108 39.9964 152.634 40.5176 153.278 40.5176C153.923 40.5176 154.448 39.9964 154.448 39.354C154.448 38.714 153.923 38.1903 153.278 38.1903Z" fill="white"/>
<path fill-rule="evenodd" clip-rule="evenodd" d="M158.771 40.8812C157.923 40.8812 157.236 40.1976 157.236 39.354C157.236 38.5128 157.923 37.8267 158.771 37.8267C159.617 37.8267 160.307 38.5128 160.307 39.354C160.307 40.1976 159.617 40.8812 158.771 40.8812ZM158.771 38.1903C158.126 38.1903 157.602 38.714 157.602 39.354C157.602 39.9964 158.126 40.5176 158.771 40.5176C159.417 40.5176 159.941 39.9964 159.941 39.354C159.941 38.714 159.417 38.1903 158.771 38.1903Z" fill="white"/>
<path d="M95.8184 147.124L94.2341 148.884L85.2572 159.165C84.6625 159.846 83.5364 159.432 83.5315 158.53L83.3975 135.904C83.3926 135.301 83.8898 134.811 84.4967 134.818L95.1481 134.641L95.8184 147.124Z" fill="#8998AD"/>
<path d="M85.1597 135.904C85.1548 135.301 85.652 134.811 86.259 134.818L95.1506 134.67L95.1481 134.641L84.4967 134.818C83.8898 134.811 83.3926 135.301 83.3975 135.904L83.5315 158.53C83.5364 159.432 84.6625 159.846 85.2572 159.165L85.418 158.981C85.3474 158.847 85.2962 158.702 85.2937 158.53L85.1597 135.904Z" fill="#121936"/>
<path d="M85.3571 156.122C85.2231 156.122 85.1134 156.016 85.1134 155.882L84.8794 134.83C84.8794 134.697 84.9866 134.585 85.1207 134.585H85.1231C85.2572 134.585 85.3669 134.692 85.3669 134.825L85.6009 155.878C85.6009 156.011 85.4936 156.12 85.3596 156.122H85.3571Z" fill="white"/>
<path fill-rule="evenodd" clip-rule="evenodd" d="M90.3733 141.618C90.2563 141.618 90.1368 141.608 90.0174 141.589C88.8645 141.393 88.087 140.302 88.282 139.155C88.377 138.6 88.6817 138.115 89.1448 137.788C89.6055 137.463 90.1661 137.337 90.7267 137.429C91.8796 137.623 92.6595 138.714 92.4646 139.861C92.2891 140.888 91.3897 141.618 90.3733 141.618ZM90.3684 137.885C90.032 137.885 89.7054 137.987 89.4276 138.183C89.0717 138.435 88.8353 138.808 88.7622 139.238C88.6135 140.12 89.2131 140.961 90.1003 141.109C90.9851 141.259 91.8333 140.663 91.982 139.781C92.0551 139.352 91.9576 138.922 91.7041 138.568C91.4506 138.215 91.0752 137.979 90.6438 137.907C90.5536 137.892 90.461 137.885 90.3684 137.885Z" fill="white"/>
<path d="M94.2341 149.126C94.1756 149.126 94.1196 149.107 94.0733 149.065L91.9576 147.213C91.8552 147.126 91.8455 146.971 91.9357 146.872C92.0258 146.772 92.1794 146.76 92.2793 146.85L94.395 148.702C94.4974 148.792 94.5047 148.944 94.4169 149.044C94.3682 149.099 94.3024 149.126 94.2341 149.126Z" fill="white"/>
<path d="M92.7912 150.709C92.7327 150.709 92.6766 150.69 92.6303 150.649L90.5146 148.796C90.4123 148.709 90.4025 148.556 90.4927 148.455C90.5805 148.355 90.734 148.343 90.8364 148.433L92.952 150.285C93.052 150.375 93.0617 150.527 92.974 150.627C92.9252 150.682 92.8594 150.709 92.7912 150.709Z" fill="white"/>
<path d="M91.3702 152.202C91.3141 152.202 91.2556 152.181 91.2093 152.142L89.0936 150.287C88.9913 150.2 88.9815 150.047 89.0717 149.945C89.1595 149.846 89.3154 149.836 89.4154 149.924L91.531 151.778C91.6334 151.865 91.6432 152.018 91.553 152.12C91.5042 152.173 91.4384 152.202 91.3702 152.202Z" fill="white"/>
<path fill-rule="evenodd" clip-rule="evenodd" d="M96.5911 147.655C95.6844 147.655 94.7021 147.56 94.4974 147.179C94.4535 147.097 94.4535 147 94.4949 146.91C94.7265 146.421 97.3369 145.272 97.744 145.189C98.0608 145.124 98.3874 145.184 98.658 145.364C98.931 145.541 99.1162 145.815 99.182 146.13C99.3161 146.784 98.892 147.427 98.2339 147.56C98.1413 147.579 97.3954 147.655 96.5911 147.655ZM95.0458 147.022C95.5844 147.221 97.5319 147.208 98.1364 147.087C98.5313 147.005 98.7847 146.619 98.7043 146.229C98.6653 146.038 98.5532 145.875 98.3899 145.768C98.2266 145.662 98.0316 145.623 97.8415 145.662C97.3979 145.754 95.5552 146.639 95.0458 147.022Z" fill="white"/>
<path fill-rule="evenodd" clip-rule="evenodd" d="M96.3766 151.002C96.284 151.002 96.1865 150.993 96.0938 150.968C95.777 150.893 95.5089 150.702 95.3382 150.425C95.2018 150.205 94.1 147.225 94.5924 146.913C94.6631 146.869 94.7874 146.821 94.9653 146.864C95.699 147.032 97.1614 148.753 97.4125 149.158C97.5831 149.432 97.6343 149.759 97.5612 150.072C97.4856 150.387 97.2906 150.653 97.0127 150.823C96.8202 150.942 96.6008 151.002 96.3766 151.002ZM94.9312 147.354C94.9799 147.921 95.5089 149.776 95.7526 150.171C95.855 150.336 96.0158 150.452 96.206 150.498C96.3985 150.544 96.5911 150.51 96.7593 150.411C97.1005 150.2 97.2077 149.752 96.9981 149.41C96.6788 148.896 95.4089 147.541 94.9312 147.354Z" fill="white"/>
<path fill-rule="evenodd" clip-rule="evenodd" d="M134.753 122.92L116.141 137.768L121.977 166.452C122.12 167.17 121.662 167.87 120.946 168.028L103.933 171.749C103.584 171.827 103.235 171.618 103.138 171.276L97.783 152.411L97.3857 152.729C96.6837 153.289 95.638 152.925 95.4382 152.052L91.0874 133C90.9777 132.52 91.1703 132.023 91.5749 131.742L91.8601 131.545L82.5395 98.7164C81.3378 94.4885 81.3403 90.0109 82.5419 85.7806L83.7704 81.463L104.954 86.0473C105.088 86.0279 105.227 86.0255 105.366 86.0521C112.439 86.423 116.022 86.6388 116.11 86.6946L133.505 98.8012C142.087 104.312 142.721 116.564 134.753 122.92ZM117.811 113.708L110.762 111.33L112.051 117.667L117.811 113.708Z" fill="#121936"/>
<path d="M116.6 140.263C116.485 140.263 116.383 140.181 116.358 140.064L108.439 99.2061C108.412 99.0727 108.5 98.9467 108.632 98.92C108.763 98.8958 108.893 98.9806 108.917 99.114L116.839 139.975C116.863 140.105 116.778 140.232 116.646 140.258C116.629 140.261 116.614 140.263 116.6 140.263Z" fill="white"/>
<path d="M122.535 115.575C122.51 115.575 122.484 115.572 122.457 115.562L110.977 111.659C110.85 111.616 110.782 111.478 110.825 111.352C110.869 111.225 111.008 111.155 111.135 111.201L122.615 115.104C122.742 115.148 122.81 115.284 122.766 115.412C122.732 115.512 122.637 115.575 122.535 115.575Z" fill="white"/>
<path d="M117.787 168.755L119.798 170.013L131.487 177.099C132.26 177.57 132.038 178.741 131.146 178.898L108.742 182.811C108.142 182.915 107.574 182.51 107.481 181.914L105.524 171.497L117.787 168.755Z" fill="#8998AD"/>
<path d="M131.487 177.099L131.08 176.855C130.941 177.036 130.744 177.182 130.473 177.228L108.069 181.141C107.793 181.189 107.528 181.126 107.308 180.988L107.481 181.914C107.574 182.51 108.142 182.915 108.741 182.811L131.146 178.898C132.038 178.741 132.26 177.57 131.487 177.099Z" fill="#121936"/>
<path d="M107.384 181.541C107.269 181.541 107.167 181.458 107.145 181.339C107.121 181.208 107.208 181.082 107.34 181.058L128.17 177.313C128.299 177.291 128.431 177.376 128.455 177.509C128.477 177.64 128.389 177.766 128.258 177.79L107.428 181.536C107.413 181.538 107.398 181.541 107.384 181.541Z" fill="white"/>
<path fill-rule="evenodd" clip-rule="evenodd" d="M111.147 177.478C109.98 177.478 109.027 176.53 109.027 175.368C109.027 174.205 109.98 173.259 111.147 173.259C112.317 173.259 113.268 174.205 113.268 175.368C113.268 176.53 112.317 177.478 111.147 177.478ZM111.147 173.744C110.248 173.744 109.514 174.472 109.514 175.368C109.514 176.263 110.248 176.993 111.147 176.993C112.049 176.993 112.78 176.263 112.78 175.368C112.78 174.472 112.049 173.744 111.147 173.744Z" fill="white"/>
<path d="M118.313 172.641C118.269 172.641 118.225 172.629 118.184 172.605C118.069 172.535 118.035 172.384 118.106 172.273L119.59 169.887C119.661 169.773 119.81 169.739 119.924 169.81C120.039 169.88 120.075 170.028 120.005 170.142L118.52 172.527C118.474 172.6 118.394 172.641 118.313 172.641Z" fill="white"/>
<path d="M120.124 173.793C120.08 173.793 120.036 173.781 119.995 173.756C119.88 173.686 119.846 173.536 119.917 173.422L121.401 171.039C121.472 170.922 121.621 170.888 121.735 170.959C121.85 171.029 121.886 171.179 121.816 171.293L120.331 173.676C120.285 173.752 120.205 173.793 120.124 173.793Z" fill="white"/>
<path d="M121.84 174.937C121.796 174.937 121.752 174.925 121.711 174.901C121.596 174.83 121.562 174.68 121.633 174.566L123.115 172.183C123.186 172.067 123.337 172.033 123.451 172.103C123.566 172.173 123.6 172.324 123.529 172.438L122.047 174.821C122.001 174.896 121.921 174.937 121.84 174.937Z" fill="white"/>
<path fill-rule="evenodd" clip-rule="evenodd" d="M117.884 170.101C117.855 170.101 117.826 170.098 117.796 170.088C117.27 169.943 115.698 167.577 115.547 167.192C115.303 166.568 115.613 165.865 116.239 165.623C116.544 165.504 116.873 165.514 117.172 165.642C117.47 165.773 117.699 166.011 117.816 166.314C117.889 166.503 118.708 169.545 118.062 170.042C118.011 170.081 117.95 170.101 117.884 170.101ZM116.68 166.025C116.592 166.025 116.502 166.042 116.417 166.074C116.041 166.219 115.854 166.641 116 167.015C116.166 167.436 117.35 169.095 117.813 169.531C117.923 168.968 117.584 167.061 117.363 166.488C117.25 166.202 116.973 166.025 116.68 166.025ZM117.938 169.625H117.943H117.938Z" fill="white"/>
<path fill-rule="evenodd" clip-rule="evenodd" d="M118.016 170.067C117.911 170.067 117.831 170.045 117.782 169.994C117.726 169.931 117.66 169.817 117.672 169.635C117.714 168.888 119.176 167.165 119.537 166.852C120.041 166.413 120.811 166.462 121.255 166.966C121.696 167.468 121.645 168.234 121.141 168.675C120.967 168.825 118.798 170.067 118.016 170.067ZM120.339 167.036C120.166 167.036 119.995 167.097 119.856 167.216C119.4 167.616 118.269 169.087 118.162 169.587C118.718 169.444 120.468 168.615 120.819 168.309C120.965 168.183 121.053 168.004 121.067 167.812C121.08 167.618 121.016 167.432 120.887 167.284C120.743 167.121 120.541 167.036 120.339 167.036ZM118.16 169.691H118.164H118.16ZM119.695 167.034H119.7H119.695Z" fill="white"/>
<path d="M116.183 29.0824C115.893 28.5927 115.61 28.1491 115.349 27.7515C114.438 26.3721 113.29 24.9151 113.375 23.3612C113.906 13.5527 103.516 10.5951 95.8598 12.5345C95.7599 12.2679 95.6429 12.0012 95.5016 11.7394C94.2487 9.40727 91.8138 8.26787 90.0637 9.19878C89.1668 9.67393 88.6257 10.6 88.477 11.703C86.6709 11.7515 85.1134 12.5709 84.4723 14.0109C83.6022 15.9624 84.7063 18.3915 86.9682 19.8121C85.7885 20.84 84.4285 21.7103 82.8149 22.5564L82.4176 22.7624C77.0383 25.577 75.8805 32.1248 78.6494 35.7394L79.4464 36.7891C79.5707 36.9539 79.6999 37.1115 79.834 37.2642C80.3214 37.8194 80.4823 38.5176 80.241 39.1648C79.7974 40.3673 79.5951 41.6667 79.7048 43.0436C80.1216 48.1612 84.8501 52.5442 90.8827 53.3539C95.0653 53.9164 98.9846 52.7454 101.7 50.5079C104.949 47.8364 108.661 45.6012 112.454 43.4897C115.554 41.7636 117.692 38.8933 117.989 35.4921C118.189 33.1794 117.504 30.9661 116.183 29.0824Z" fill="#121936"/>
<path d="M113.158 32.8739L112.363 25.2303C111.008 23.1649 107.484 22.6291 106.172 21.1285C105.124 19.9333 104.708 19.6982 104.649 18.6727C104.145 23.7709 100.44 27.5818 96.3644 27.2133L96.3693 27.2691L95.0385 27.3152C93.2445 27.3782 91.826 28.8885 91.8893 30.6727L91.8918 30.7479C91.9527 32.5321 93.4736 33.943 95.2676 33.88L96.2767 33.8461L94.7216 43.7709C94.3755 46.7673 106.894 47.4461 107.242 44.4497L107.676 40.6849C111.142 39.8049 113.536 36.52 113.158 32.8739Z" fill="#FFB5B5"/>
<path d="M94.8142 31.7345C94.7338 31.7345 94.6558 31.6958 94.6095 31.6255C94.5363 31.5115 94.568 31.3612 94.6801 31.2885L95.5064 30.7527L94.5583 29.703C94.4681 29.6036 94.4778 29.4509 94.5778 29.3612C94.6777 29.2715 94.8313 29.2788 94.9215 29.3782L96.0597 30.6388C96.1085 30.6921 96.1304 30.7624 96.1206 30.8327C96.1109 30.903 96.0719 30.9661 96.0134 31.0048L94.9458 31.6958C94.9044 31.7224 94.8581 31.7345 94.8142 31.7345Z" fill="#8998AD"/>
<path d="M112.909 28.6242C112.983 28.9636 112.763 29.2982 112.422 29.3709C112.081 29.4436 111.744 29.2254 111.671 28.8861C111.598 28.5467 111.817 28.2121 112.159 28.1394C112.5 28.0667 112.836 28.2848 112.909 28.6242Z" fill="#121936"/>
<path d="M107.754 28.9855C107.737 29.3661 107.416 29.6594 107.033 29.6424C106.65 29.6255 106.355 29.3055 106.372 28.9249C106.389 28.5442 106.711 28.2509 107.094 28.2679C107.476 28.2849 107.771 28.6049 107.754 28.9855Z" fill="#121936"/>
<path d="M106.66 31.6036C106.538 33.0921 107.481 33.8363 109.49 33.8315L106.66 31.6036Z" fill="#FFB5B5"/>
<path d="M109.478 34.0739C108.373 34.0739 107.545 33.783 107.013 33.2133C106.35 32.5006 106.414 31.6206 106.416 31.5842C106.426 31.4485 106.548 31.3515 106.679 31.3612C106.814 31.3709 106.913 31.4873 106.904 31.6206C106.901 31.6303 106.857 32.3382 107.377 32.8885C107.81 33.3539 108.52 33.5891 109.478 33.5891C109.482 33.5891 109.485 33.5891 109.49 33.5891C109.624 33.5891 109.734 33.6982 109.734 33.8315C109.734 33.9697 109.614 34.0788 109.478 34.0739Z" fill="#8998AD"/>
<path d="M108.166 37.5164C108.139 37.5261 108.108 37.5236 108.079 37.5115C108.049 37.4994 107.342 37.2182 106.843 37.7782C106.796 37.8315 106.711 37.8364 106.658 37.7879C106.604 37.7394 106.599 37.657 106.645 37.6036C107.274 36.9006 108.171 37.2667 108.181 37.2715C108.247 37.2982 108.278 37.3758 108.252 37.4412C108.235 37.48 108.203 37.5067 108.166 37.5164Z" fill="#8998AD"/>
<path d="M104.547 26.5403C104.798 26.596 105.09 26.5112 105.378 26.4457C105.666 26.373 105.958 26.3076 106.214 26.2591C106.47 26.2106 106.765 26.167 107.062 26.1282C107.355 26.0845 107.659 26.0554 107.866 25.9148C108.069 25.7815 108.108 25.4979 107.786 25.2215C107.481 24.9524 106.777 24.727 105.929 24.8845C105.083 25.047 104.522 25.51 104.347 25.8712C104.159 26.2445 104.308 26.4894 104.547 26.5403Z" fill="#121936"/>
<path d="M113.502 26.0327C113.331 26.0885 113.126 26.0376 112.927 25.9988C112.727 25.9576 112.522 25.9188 112.344 25.8945C112.166 25.8679 111.961 25.8485 111.757 25.8315C111.554 25.8121 111.342 25.8049 111.196 25.7055C111.052 25.6085 111.02 25.3903 111.237 25.1576C111.442 24.9321 111.925 24.7212 112.512 24.8036C113.1 24.8885 113.499 25.2255 113.626 25.4994C113.765 25.783 113.667 25.9818 113.502 26.0327Z" fill="#121936"/>
<path d="M106.372 29.6982C106.775 29.3903 107.182 29.4073 107.591 29.7467L106.372 29.6982Z" fill="#FFB5B5"/>
<path d="M107.591 29.9891C107.537 29.9891 107.481 29.9697 107.437 29.9333C106.974 29.5527 106.538 29.8776 106.521 29.8897C106.414 29.9721 106.26 29.9527 106.18 29.8461C106.097 29.7394 106.116 29.5867 106.224 29.5067C106.484 29.3054 107.143 29.0606 107.747 29.56C107.852 29.6448 107.866 29.7976 107.779 29.8994C107.732 29.9576 107.662 29.9891 107.591 29.9891Z" fill="#8998AD"/>
<path d="M111.952 29.2885C112.2 29.1091 112.441 29.1357 112.673 29.3685L111.952 29.2885Z" fill="#FFB5B5"/>
<path d="M112.673 29.6109C112.61 29.6109 112.546 29.5867 112.5 29.5382C112.32 29.3563 112.142 29.4533 112.09 29.4873C111.981 29.56 111.83 29.5333 111.754 29.4242C111.676 29.3151 111.7 29.1673 111.81 29.0897C111.998 28.9563 112.454 28.806 112.846 29.1988C112.941 29.2933 112.939 29.446 112.844 29.5406C112.797 29.5866 112.734 29.6109 112.673 29.6109Z" fill="#8998AD"/>
<path d="M107.676 40.6945C103.706 40.9951 101.327 40.3964 100.54 38.8933C99.7524 37.3903 99.7524 37.3903 100.54 38.8933C100.452 41.4048 102.702 43.1212 107.289 44.0448L107.676 40.6945Z" fill="#8998AD"/>
<path d="M109.987 26.8521L109.924 28.3115C109.899 28.8691 110.333 29.3418 110.894 29.3661C111.174 29.3782 111.391 29.6133 111.379 29.8921C111.34 30.7939 110.572 31.4945 109.665 31.4533L109.071 31.4291" fill="#FFB5B5"/>
<path d="M109.741 31.6982C109.712 31.6982 109.685 31.6982 109.656 31.6957L109.061 31.6691C108.924 31.6642 108.822 31.5503 108.827 31.417C108.832 31.2836 108.949 31.1697 109.08 31.1867L109.677 31.2109C110.043 31.2303 110.409 31.0994 110.684 30.8473C110.96 30.5976 111.118 30.2533 111.135 29.8824C111.14 29.8121 111.113 29.7442 111.067 29.6933C111.018 29.6424 110.955 29.6109 110.884 29.6085C110.548 29.5939 110.236 29.4509 110.009 29.2036C109.782 28.9563 109.665 28.6363 109.68 28.3018L109.743 26.84C109.751 26.7066 109.863 26.5951 109.999 26.6097C110.133 26.6145 110.238 26.7285 110.231 26.8618L110.167 28.3236C110.158 28.5273 110.228 28.7236 110.37 28.8763C110.509 29.0266 110.699 29.1139 110.903 29.1236C111.106 29.1333 111.291 29.2182 111.425 29.366C111.562 29.5139 111.632 29.703 111.622 29.9042C111.601 30.4036 111.384 30.8667 111.013 31.206C110.662 31.5236 110.214 31.6982 109.741 31.6982Z" fill="#8998AD"/>
<path fill-rule="evenodd" clip-rule="evenodd" d="M94.6948 35.257C94.6631 35.257 94.6339 35.2545 94.6022 35.2545C94.2122 35.2303 93.8514 35.0558 93.5931 34.7624C93.3323 34.4715 93.2031 34.0958 93.225 33.7055C93.2762 32.903 93.9879 32.2897 94.7825 32.3382C95.175 32.3624 95.5332 32.5345 95.794 32.8279C96.0524 33.1212 96.184 33.497 96.1597 33.8848C96.1109 34.6582 95.4626 35.257 94.6948 35.257ZM93.7125 33.737C93.6955 33.9964 93.7832 34.2461 93.9563 34.4424C94.1317 34.6364 94.3706 34.7527 94.6314 34.7697C95.1628 34.8012 95.6381 34.3939 95.6722 33.8558C95.6892 33.5964 95.6015 33.3442 95.4284 33.1503C95.2554 32.9539 95.0141 32.8376 94.7533 32.8206C94.2 32.7891 93.7466 33.1988 93.7125 33.737Z" fill="white"/>
<path d="M143.484 48.0158L140.376 45.6376L142.39 40.2242C142.633 39.5697 142.378 38.8352 141.78 38.4691L141.715 38.4279C141.449 38.2655 141.1 38.3455 140.932 38.6073L136.067 47.5236L135.972 47.4242L134.892 44.9442C134.673 44.44 134.156 44.1321 133.608 44.1733L133.391 44.1879C133.013 44.217 132.752 44.583 132.855 44.9491L133.82 48.4376L134.212 50.9806C134.268 51.3346 134.415 51.6376 134.619 51.8848L134.593 51.9236L126.006 64.2194L119 55.2206L110.701 69.9479L117.809 79.7636C122.503 86.2461 132.608 84.6849 135.104 77.0946L140.959 59.2885L144.481 52.4109C145.256 50.8982 144.837 49.0509 143.484 48.0158Z" fill="#FFB5B5"/>
<path d="M126.24 63.8824L123.444 68.0206L126.24 63.8824Z" fill="#FFB5B5"/>
<path d="M123.444 68.263C123.398 68.263 123.349 68.2485 123.307 68.2218C123.198 68.1467 123.166 67.9964 123.242 67.8849L126.037 63.7491C126.113 63.6376 126.266 63.6085 126.376 63.6812C126.488 63.7564 126.517 63.9067 126.442 64.0182L123.646 68.1564C123.6 68.2242 123.522 68.263 123.444 68.263Z" fill="#8998AD"/>
<path d="M139.818 52.5055C139.687 52.5055 139.579 52.4037 139.575 52.2728C139.46 48.617 136.152 47.7927 136.011 47.7588C135.879 47.7273 135.799 47.5964 135.831 47.4679C135.86 47.337 135.992 47.257 136.123 47.2861C136.16 47.2958 139.935 48.2242 140.062 52.2558C140.067 52.3915 139.962 52.5031 139.826 52.5055C139.823 52.5055 139.821 52.5055 139.818 52.5055Z" fill="#8998AD"/>
<path d="M140.786 45.1382L140.759 45.2376L139.194 50.9079C139.043 51.4509 139.306 52.023 139.818 52.263L140.16 52.4255C140.362 52.52 140.601 52.4206 140.674 52.2097L142.512 46.8521C142.655 46.3988 142.438 45.9091 142.005 45.7055L140.786 45.1382Z" fill="#FFB5B5"/>
<path fill-rule="evenodd" clip-rule="evenodd" d="M140.32 52.7042C140.23 52.7042 140.14 52.6849 140.057 52.6436L139.713 52.4836C139.094 52.1903 138.778 51.4994 138.958 50.8424L140.62 44.7915L142.109 45.4873C142.651 45.7394 142.924 46.3576 142.743 46.9249L140.903 52.2897C140.847 52.4546 140.723 52.5879 140.559 52.6558C140.484 52.6873 140.403 52.7042 140.32 52.7042ZM140.947 45.48L139.428 50.9709C139.311 51.4024 139.518 51.8533 139.923 52.0449L140.267 52.2073C140.311 52.2267 140.35 52.217 140.372 52.2097C140.391 52.2 140.425 52.1806 140.442 52.1321L142.28 46.7721C142.385 46.4424 142.224 46.0764 141.902 45.9261L140.947 45.48Z" fill="#8998AD"/>
<path d="M142.68 46.3043L142.658 46.394L141.252 51.4873C141.115 51.9746 141.354 52.4885 141.812 52.7067L142.119 52.8497C142.3 52.937 142.514 52.8448 142.58 52.6582L144.23 47.8437C144.359 47.4364 144.164 46.9976 143.777 46.8158L142.68 46.3043Z" fill="#FFB5B5"/>
<path fill-rule="evenodd" clip-rule="evenodd" d="M142.263 53.126C142.178 53.126 142.092 53.1067 142.014 53.0703L141.707 52.9248C141.139 52.6557 140.849 52.0254 141.015 51.4218L142.514 45.96L143.879 46.5951C144.376 46.8279 144.627 47.3951 144.462 47.9164L142.811 52.7357C142.758 52.8909 142.638 53.017 142.487 53.08C142.417 53.1091 142.339 53.126 142.263 53.126ZM142.841 46.6461L141.485 51.5503C141.383 51.926 141.563 52.3188 141.917 52.486L142.224 52.6315C142.256 52.6461 142.285 52.6388 142.297 52.6339C142.312 52.6267 142.339 52.6121 142.348 52.5782L143.998 47.7661C144.091 47.48 143.95 47.1648 143.672 47.0339L142.841 46.6461Z" fill="#8998AD"/>
<path d="M144.218 47.1891L144.198 47.2691L142.924 51.8824C142.802 52.3261 143.016 52.7915 143.433 52.9879L143.711 53.1188C143.874 53.1964 144.069 53.1139 144.128 52.9442L145.622 48.583C145.741 48.2145 145.563 47.8145 145.212 47.6497L144.218 47.1891Z" fill="#FFB5B5"/>
<path fill-rule="evenodd" clip-rule="evenodd" d="M143.84 53.3903C143.76 53.3903 143.679 53.3733 143.606 53.3394L143.328 53.2061C142.804 52.9588 142.534 52.3746 142.687 51.8194L144.054 46.8424L145.315 47.4315C145.775 47.6473 146.009 48.1733 145.856 48.6558L144.359 53.0218C144.308 53.1697 144.196 53.2885 144.052 53.3491C143.984 53.3758 143.913 53.3903 143.84 53.3903ZM144.379 47.5309L143.158 51.9479C143.067 52.2776 143.226 52.6218 143.538 52.7697L143.816 52.9006C143.874 52.8982 143.889 52.8861 143.896 52.8667L145.393 48.5055C145.471 48.2582 145.349 47.9818 145.107 47.8703L144.379 47.5309Z" fill="#8998AD"/>
<path d="M120.105 53.9503L112.281 47.1067C110.528 45.56 108.293 44.663 105.951 44.566L96.0549 44.1612L95.6771 44.1176C95.348 44.0812 95.0214 44.0618 94.6948 44.0521L94.6924 44.0448L94.5144 44.0473C94.2512 44.0424 93.9904 44.0473 93.732 44.0618L87.1194 44.1879C82.3762 44.5879 78.4325 47.9891 77.3625 52.6024L75.6319 61.2497C75.493 61.9479 75.9707 62.6194 76.68 62.7188L82.8003 63.5867L82.6979 84.9539L116.678 86.7261C117.845 86.7867 118.652 85.5842 118.15 84.537L111.296 70.2291L120.524 58.0764C121.492 56.8036 121.309 55.0048 120.105 53.9503Z" fill="#81A5DB"/>
<path d="M78.1132 109.383C78.2107 109.153 78.2911 108.913 78.352 108.663L92.7473 65.1745L78.8395 63.0242L69.1606 106.396L65.9238 106.038C63.7984 105.8 61.9386 107.456 61.9386 109.582V109.795V114.304C61.9386 114.631 62.2043 114.896 62.5309 114.896C63.5595 114.896 64.3906 114.067 64.3906 113.046V114.304C64.3906 114.631 64.6563 114.896 64.9829 114.896C66.0091 114.896 66.8427 114.067 66.8427 113.046V114.304C66.8427 114.631 67.1083 114.896 67.435 114.896C68.444 114.896 69.2606 114.093 69.2898 113.099C69.6018 113.337 69.9893 113.485 70.4159 113.485H72.0124C72.9264 113.485 73.7112 112.983 74.1354 112.248C75.9122 112.103 77.4234 110.981 78.1034 109.405H78.1059L78.1132 109.383Z" fill="#FFB5B5"/>
<path d="M64.3906 113.567C64.2907 113.567 64.2078 113.487 64.2078 113.385V109.582C64.2078 109.482 64.2907 109.4 64.3906 109.4C64.493 109.4 64.5734 109.482 64.5734 109.582V113.385C64.5734 113.487 64.493 113.567 64.3906 113.567Z" fill="#8998AD"/>
<path d="M66.8427 113.567C66.7403 113.567 66.6599 113.487 66.6599 113.385V109.582C66.6599 109.482 66.7403 109.4 66.8427 109.4C66.9426 109.4 67.0255 109.482 67.0255 109.582V113.385C67.0255 113.487 66.9426 113.567 66.8427 113.567Z" fill="#8998AD"/>
<path d="M94.4705 65.6812C94.3828 65.6812 94.2902 65.6739 94.2 65.6594L90.5195 65.0509C90.3879 65.0291 90.2977 64.9055 90.3197 64.7721C90.3416 64.6412 90.4708 64.5515 90.6 64.5733L94.2804 65.1818C94.9093 65.2861 95.5138 64.8642 95.6283 64.2412L97.371 54.8206C97.3954 54.6897 97.5197 54.6024 97.6538 54.6267C97.7878 54.6509 97.8756 54.777 97.8512 54.9103L96.1085 64.3285C95.9598 65.1188 95.2554 65.6812 94.4705 65.6812Z" fill="white"/>
<path d="M111.296 70.4715C111.262 70.4715 111.23 70.4642 111.198 70.4497C111.074 70.3964 111.018 70.2533 111.072 70.1297L112.624 66.6121C113.743 64.0788 113.816 61.2594 112.829 58.6727L110.972 53.8C110.925 53.6739 110.989 53.5358 111.113 53.4873C111.24 53.4388 111.381 53.5042 111.428 53.6279L113.285 58.5006C114.318 61.2061 114.243 64.1564 113.073 66.8061L111.52 70.3261C111.479 70.4158 111.389 70.4715 111.296 70.4715Z" fill="white"/>
<path d="M107.206 44.9394C107.201 44.9394 107.199 44.9394 107.194 44.9394L94.6802 44.2849C94.5461 44.2776 94.4437 44.1636 94.4486 44.0303C94.4559 43.897 94.5729 43.7927 94.707 43.8024L107.218 44.4546C107.355 44.4618 107.457 44.5758 107.45 44.7091C107.442 44.8376 107.335 44.9394 107.206 44.9394Z" fill="white"/>
</svg>
