<svg width="329" height="163" viewBox="0 0 329 163" fill="none" xmlns="http://www.w3.org/2000/svg">
<path d="M269.736 143.679H65.3536C59.4855 143.679 54.7275 139.214 54.7275 133.708V10.5586C54.7275 5.04916 59.4855 0.588287 65.3536 0.588287H269.736C275.604 0.588287 280.362 5.04916 280.362 10.5586V133.708C280.362 139.214 275.604 143.679 269.736 143.679Z" fill="white"/>
<path d="M271.665 1.07971H64.8778C59.4892 0.885914 55.0373 4.33625 55.1996 10.178V13.3411L279.912 13.1473V9.54118C279.912 5.05954 276.146 1.07971 271.665 1.07971Z" fill="#E6E6E6"/>
<path d="M150.156 103.815H75.8138C74.3864 103.815 73.2319 102.728 73.2319 101.392V79.8181C73.2319 78.4788 74.3864 77.3921 75.8138 77.3921H150.156C151.583 77.3921 152.738 78.4788 152.738 79.8181V101.392C152.738 102.728 151.583 103.815 150.156 103.815Z" fill="#3943B3"/>
<path d="M96.8265 90.9824C96.8265 94.9414 93.4037 98.153 89.1842 98.153C84.9611 98.153 81.542 94.9414 81.542 90.9824C81.542 87.0198 84.9611 83.8083 89.1842 83.8083C93.4037 83.8083 96.8265 87.0198 96.8265 90.9824Z" fill="white"/>
<path d="M103.263 91.7368H143.488" stroke="white" stroke-width="3"/>
<path d="M103.263 86.8503H122.538" stroke="white" stroke-width="3"/>
<path d="M103.263 96.2634H143.488" stroke="white" stroke-width="3"/>
<path d="M267.748 28.9074V25.2979C267.748 23.0276 265.785 21.1865 263.366 21.1865H179.659C177.24 21.1865 175.277 23.0276 175.277 25.2979V60.4934L267.748 28.9074Z" fill="#FFDA8F"/>
<path d="M221.511 53.0148L205.831 58.8945L192.557 27.7273L208.236 21.8475L221.511 53.0148Z" fill="#FFDA8F"/>
<path d="M261.957 122.212H181.064C177.867 122.212 175.277 119.779 175.277 116.779V26.6199C175.277 23.6194 177.867 21.1865 181.064 21.1865H261.957C265.155 21.1865 267.748 23.6194 267.748 26.6199V116.779C267.748 119.779 265.155 122.212 261.957 122.212Z" stroke="#B3B3B3" stroke-width="3"/>
<path d="M215.768 64.4144L200.089 70.2941L186.814 39.1269L202.494 33.2471L215.768 64.4144Z" fill="#FFDA8F"/>
<path d="M203.394 59.8082L187.715 65.6879L181.448 50.9764L197.127 45.0966L203.394 59.8082Z" fill="#FFDA8F"/>
<path d="M266.143 46.5986L250.46 52.4784L241.542 31.5375L257.221 25.6578L266.143 46.5986Z" fill="#FFDA8F"/>
<path d="M152.738 31.9874H73.4937V21.1865H152.738V31.9874Z" fill="#E6E6E6"/>
<path d="M152.738 114.764H73.4937V110.598H152.738V114.764Z" fill="#E6E6E6"/>
<path d="M152.738 122.53H73.4937V118.364H152.738V122.53Z" fill="#E6E6E6"/>
<path d="M150.156 70.5987H75.8138C74.3864 70.5987 73.2319 69.5155 73.2319 68.1762V46.602C73.2319 45.2627 74.3864 44.1795 75.8138 44.1795H150.156C151.583 44.1795 152.738 45.2627 152.738 46.602V68.1762C152.738 69.5155 151.583 70.5987 150.156 70.5987Z" stroke="#B3B3B3" stroke-width="3" stroke-dasharray="21 21"/>
<path d="M261.891 7.75197C261.891 8.70367 261.064 9.47887 260.047 9.47887C259.032 9.47887 258.206 8.70367 258.206 7.75197C258.206 6.79681 259.032 6.02161 260.047 6.02161C261.064 6.02161 261.891 6.79681 261.891 7.75197Z" fill="#FFA320"/>
<path d="M268.035 7.75197C268.035 8.70366 267.209 9.47887 266.195 9.47887C265.177 9.47887 264.351 8.70366 264.351 7.75197C264.351 6.79681 265.177 6.02161 266.195 6.02161C267.209 6.02161 268.035 6.79681 268.035 7.75197Z" fill="#EB4334"/>
<path d="M274.18 7.75197C274.18 8.70366 273.358 9.47887 272.34 9.47887C271.322 9.47887 270.499 8.70366 270.499 7.75197C270.499 6.79681 271.322 6.02161 272.34 6.02161C273.358 6.02161 274.18 6.79681 274.18 7.75197Z" fill="#3943B3"/>
<path d="M250.018 10.6036H64.2804C62.2813 10.6036 60.6621 9.08091 60.6621 7.20866C60.6621 5.33295 62.2813 3.81369 64.2804 3.81369H250.018C252.013 3.81369 253.636 5.33295 253.636 7.20866C253.636 9.08091 252.013 10.6036 250.018 10.6036Z" fill="white"/>
<path d="M269.736 143.679H65.3536C59.4855 143.679 54.7275 139.214 54.7275 133.708V10.5586C54.7275 5.04916 59.4855 0.588287 65.3536 0.588287H269.736C275.604 0.588287 280.362 5.04916 280.362 10.5586V133.708C280.362 139.214 275.604 143.679 269.736 143.679Z" stroke="#B3B3B3" stroke-width="3" stroke-dasharray="21 21"/>
<path d="M120.391 70.5987H46.0452C44.6215 70.5987 43.4634 69.5155 43.4634 68.1762V46.602C43.4634 45.2627 44.6215 44.1795 46.0452 44.1795H120.391C121.815 44.1795 122.973 45.2627 122.973 46.602V68.1762C122.973 69.5155 121.815 70.5987 120.391 70.5987Z" fill="#3943B3"/>
<path d="M67.0579 57.7663C67.0579 61.7288 63.6388 64.9369 59.4157 64.9369C55.1962 64.9369 51.7734 61.7288 51.7734 57.7663C51.7734 53.8073 55.1962 50.5957 59.4157 50.5957C63.6388 50.5957 67.0579 53.8073 67.0579 57.7663Z" fill="white"/>
<path d="M73.4941 58.5208H113.719" stroke="white" stroke-width="3" stroke-dasharray="21 21"/>
<path d="M73.4941 53.6377H92.7694" stroke="white" stroke-width="3" stroke-dasharray="21 21"/>
<path d="M73.4941 63.0508H113.719" stroke="white" stroke-width="3" stroke-dasharray="21 21"/>
<path d="M35.0321 154.442C38.3553 155.328 40.8338 156.196 42.4641 157.048C44.4263 158.068 44.6734 158.92 42.2465 158.927C39.152 158.934 35.471 158.871 33.258 158.549C31.7642 158.331 32.3875 155.033 32.6383 154.473L35.0321 154.442Z" fill="#FFA320"/>
<path d="M34.5929 154.445L35.1019 152.625L32.52 152.912L32.638 154.473L34.5929 154.445Z" fill="#FFC69A"/>
<path d="M43.9685 158.498C41.2797 158.411 35.6365 158.193 34.1612 157.861C33.287 157.667 32.7006 157.311 32.3022 156.975C32.3539 157.764 32.601 158.453 33.2575 158.549C35.4705 158.871 39.1515 158.934 42.246 158.927C43.2935 158.923 43.8431 158.764 43.9685 158.498Z" fill="#3943B3"/>
<path d="M23.2254 90.9927C22.8123 89.1586 24.3466 87.0164 27.8321 84.5731C31.3139 82.1298 33.999 80.0222 35.8764 78.2504L40.8298 62.158L42.5486 62.9193C42.6224 71.3393 42.4048 76.7969 41.9031 79.299C41.1507 83.0469 24.5864 99.3054 23.2254 90.9927Z" fill="#DAA184"/>
<path d="M36.8025 74.2809L42.4272 75.0457L42.2133 79.4547C36.7361 87.4732 32.2142 92.1175 28.6475 93.3841C23.2958 95.2806 20.0869 92.3493 21.3963 90.2556C22.2704 88.8575 26.8071 84.8984 35.0026 78.3749L36.8025 74.2809Z" fill="#FFA320"/>
<path d="M42.5488 76.212L42.9877 73.6061L36.3339 72.6198L35.895 75.2257L42.5488 76.212Z" fill="#FFDA8F"/>
<path d="M42.545 66.5808C40.3799 61.6077 39.6127 58.8392 40.2471 58.2647C42.272 61.4693 43.5925 63.7465 44.2047 65.0996" fill="#DAA184"/>
<path d="M4.2232 149.873C6.56161 152.258 8.18817 154.217 9.10288 155.743C10.2057 157.577 9.94013 158.425 7.87097 157.238C5.22643 155.726 2.12454 153.864 0.420522 152.504C-0.73024 151.583 1.63767 149.081 2.16511 148.724L4.2232 149.873Z" fill="#FFDA8F"/>
<path d="M3.84692 149.662L5.29644 148.361L2.9359 147.337L2.16504 148.724L3.84692 149.662Z" fill="#FFC69A"/>
<path d="M33.3944 109.774L23.1519 104.417C24.2989 117.924 27.0541 127.663 31.4137 133.632C31.4469 144.499 31.8453 151.105 32.6051 153.448L35.0025 153.393C37.4405 141.028 38.547 133.864 38.3183 131.895C37.6913 126.458 37.0864 118.627 33.3944 109.774Z" fill="#3943B3"/>
<path d="M22.5431 72.4571C19.81 73.7168 18.3347 76.7034 18.1171 81.4204C17.8995 86.1408 17.3573 88.5875 16.4868 88.7606C20.1825 90.7782 24.0996 90.7782 28.2342 88.7606L22.5431 72.4571Z" fill="#411809"/>
<path d="M27.4888 73.1215C29.1338 74.5335 29.9268 76.8176 30.0117 78.9806C30.1002 81.3304 26.2606 81.6453 24.0808 80.5067C22.1481 79.4927 20.7798 77.2294 21.1486 75.2949C21.6244 72.7893 25.2943 71.2355 27.4888 73.1215Z" fill="#FFC69A"/>
<path d="M25.2467 76.0009L21.208 76.5857L22.7239 85.7497C22.9415 87.0614 24.2509 87.9611 25.6525 87.757C27.1536 87.5355 28.1236 86.1408 27.7327 84.7634L25.2467 76.0009Z" fill="#FFC69A"/>
<path d="M25.6744 72.6405C26.342 76.0562 24.8556 78.1846 21.2078 79.0221C17.3904 79.8976 17.4973 70.9863 22.886 70.7994C27.9353 70.6264 29.8902 71.8999 28.7542 74.6235C27.537 72.9554 26.5116 72.2944 25.6744 72.6405Z" fill="#411809"/>
<path d="M26.9173 81.8807L23.8486 80.6175L26.7034 81.102L26.9173 81.8807Z" fill="#DAA184"/>
<path d="M31.4653 105.573L18.9913 108.684C16.6529 111.66 15.9152 118.942 16.7709 130.531C9.51227 136.259 4.86865 141.91 2.84375 147.486L4.86127 148.724C15.0854 140.156 20.9166 135.145 22.3514 133.691C24.9369 131.075 29.9346 122.368 31.4653 105.573Z" fill="#3943B3"/>
<path d="M30.1448 85.6563C29.8866 84.6111 29.0862 83.7563 28.0129 83.386C25.704 82.5935 20.083 82.552 20.0313 89.6742C19.9649 99.0147 19.6182 105.351 18.9912 108.684C20.9903 110.31 25.7888 110.677 33.3942 109.774L31.8893 100.922L33.2208 98.2049C34.0765 96.0488 33.9917 93.6609 32.9848 91.5637L30.1448 85.6563Z" fill="#FFDA8F"/>
<path d="M25.5086 91.5568C25.0955 89.7226 26.6298 87.5805 30.1153 85.1372C33.5971 82.6939 36.2785 80.5863 38.1596 78.8144L43.113 62.7221L44.8318 63.4834C44.9056 71.9034 44.688 77.3644 44.1863 79.863C43.4302 83.611 26.8696 99.8695 25.5086 91.5568Z" fill="#FFC69A"/>
<path d="M42.7221 64.224C41.9586 61.1994 41.8959 59.4032 42.5303 58.8288C43.1536 60.085 43.7696 61.3897 44.3819 62.7428C44.6695 63.3761 47.5944 65.3557 46.0859 65.1446C45.0789 65.0061 43.9577 64.6981 42.7221 64.224Z" fill="#FFC69A"/>
<path d="M28.2344 73.9971C29.0606 74.8035 29.8019 75.2845 30.4621 75.4402C30.322 75.994 30.0048 76.4092 29.5069 76.6757L28.2344 73.9971Z" fill="#FFC69A"/>
<path d="M9.57486 157.719C7.33235 156.324 2.64815 153.369 1.57116 152.362C0.940451 151.766 0.638007 151.175 0.486785 150.69C0.0884441 151.389 -0.0849079 152.099 0.420395 152.504C2.12441 153.864 5.2263 155.726 7.87084 157.238C8.76342 157.75 9.32036 157.882 9.57486 157.719Z" fill="#3943B3"/>
<path d="M2.35303 148.828C4.16769 151.777 5.48074 152.867 6.28849 152.106L4.27465 149.278L2.35303 148.828Z" fill="#FFC69A"/>
<path d="M32.9258 154.4C36.1088 156.075 37.8165 156.387 38.0452 155.334L34.7036 154.016L32.9258 154.4Z" fill="#FFC69A"/>
<path d="M39.4948 74.4782L44.6253 75.3606L44.3155 80.9186C39.2293 88.0927 34.9065 92.3147 31.3399 93.5814C25.9881 95.4778 22.7793 92.5466 24.0886 90.4529C24.9628 89.0582 29.4958 85.0957 37.6949 78.5722L39.4948 74.4782Z" fill="#FFDA8F"/>
<path d="M45.2412 76.4092L45.6801 73.8033L39.0263 72.817L38.5874 75.4229L45.2412 76.4092Z" fill="#FFDA8F"/>
<path d="M33.3943 109.774L34.7295 113.307L26.1172 122.222L26.9249 110.182C28.7507 110.234 30.9083 110.099 33.3943 109.774Z" fill="#3943B3"/>
<path d="M23.3951 129.213C21.6357 130.909 21.0788 131.68 20.8317 132.677C20.6288 133.49 20.8464 133.598 20.6067 134.093C19.9428 135.439 18.0654 135.162 15.7823 136.145C14.1078 136.861 13.005 138.014 10.8068 140.315C9.71134 141.46 9.81092 141.526 8.0147 143.641C5.89022 146.15 4.5993 147.42 3.99072 148.192L4.86117 148.724C15.0853 140.156 20.9165 135.145 22.3513 133.691C23.5094 132.518 25.1544 130.116 26.7552 126.313C26.4601 126.254 25.4237 127.254 23.3951 129.213Z" fill="#4753DE"/>
<path d="M31.7012 153.549H35.7252V152.061H31.7012V153.549Z" fill="#3943B3"/>
<path d="M1.7334 147.565L5.21519 149.451L6.00819 148.164L2.52639 146.278L1.7334 147.565Z" fill="#3943B3"/>
<path d="M17.944 78.1638L27.1464 71.3427C25.14 68.9583 21.4516 68.5534 18.9103 70.436C16.3691 72.3187 15.9375 75.7794 17.944 78.1638Z" fill="#FFDA8F"/>
<path d="M20.8873 69.4809C20.1865 69.6712 19.5152 69.9861 18.9103 70.436C16.3691 72.3187 15.9375 75.7794 17.944 78.1638L20.3377 76.3885C18.7444 74.2394 18.9989 71.3531 20.8873 69.4809Z" fill="#FFA320"/>
<path d="M18.3499 78.6379L17.3467 77.3782L28.2457 69.7508L29.249 71.0105L18.3499 78.6379Z" fill="#FFA320"/>
<path d="M33.2207 98.2049C33.9473 96.3707 33.9879 94.3773 33.3682 92.5293C29.8938 93.7163 26.921 93.481 24.6711 92.8338C22.7937 86.5042 25.7407 83.6802 26.5153 83.0711C25.7739 82.9985 24.9477 83.0296 24.1326 83.2372C22.956 84.8223 21.7389 87.6704 22.7606 92.1278C21.5914 91.5983 20.6803 91.0377 20.0238 90.4494C19.939 99.3919 19.4742 105.677 18.6333 109.296C20.8684 110.518 25.7887 110.677 33.394 109.774L31.8892 100.922L33.2207 98.2049Z" fill="#3943B3"/>
<path d="M38.3178 131.895C37.6908 126.458 37.0859 118.627 33.3939 109.774L31.8891 100.922L33.2206 98.2049C33.9472 96.3707 33.9877 94.3773 33.3681 92.5293C32.7743 92.7335 32.1989 92.8823 31.6346 93.0069C31.7968 94.578 31.878 96.6268 30.7826 98.7967C30.4063 99.5407 29.8236 100.437 29.5765 101.908C29.2814 103.649 29.6502 105.047 29.8789 105.87C31.1625 110.556 32.4386 113.934 32.4386 113.934C34.2201 118.644 35.109 120.997 35.1532 122.139C35.3266 126.424 33.2427 128.836 35.002 131.051C35.8503 132.117 37.038 132.449 37.1154 133.598C37.1855 134.688 36.1602 135.058 35.4557 136.425C34.493 138.29 35.3487 139.644 35.4557 142.367C35.5626 145.132 34.7475 145.461 34.4008 148.451C34.2127 150.053 34.2201 151.85 34.3713 153.407L35.002 153.393C37.44 141.028 38.5465 133.864 38.3178 131.895Z" fill="#4753DE"/>
<path d="M99.4969 156.615H79.7827L86.2004 126.129H93.0755L99.4969 156.615Z" fill="#EB4334"/>
<path d="M103.251 158.252H75.1167V155.099H103.251V158.252Z" fill="#EB4334"/>
<path d="M99.4969 156.615H79.7827L86.2004 126.129H93.0755L99.4969 156.615Z" fill="#EB4334"/>
<path d="M83.4819 139.048H95.7973L94.7904 134.273H84.4852L83.4819 139.048Z" fill="white"/>
<path d="M81.1289 150.22H98.1506L97.1437 145.444H82.1358L81.1289 150.22Z" fill="white"/>
<path d="M310.983 152.081C305.834 154.739 302.415 156.075 300.722 156.096C298.18 156.123 300.061 157.144 302.828 157.387C305.022 157.58 309.404 156.996 311.964 156.532C312.096 156.508 312.366 156.3 312.775 155.909C312.889 156.286 312.948 156.473 312.948 156.473C313.107 156.508 313.55 156.473 314.273 156.373C314.339 155.563 314.155 154.127 313.727 152.064L310.983 152.081Z" fill="#3943B3"/>
<path d="M310.982 152.081L311.082 150.147L313.822 150.275L313.727 152.064L310.982 152.081Z" fill="#FFB780"/>
<path d="M310.886 94.0486L320.026 95.5159C318.171 110.798 316.279 121.416 314.357 127.368C315.618 137.605 315.574 145.492 314.224 151.026L310.602 151.189C308.548 138.1 307.239 130.448 306.682 128.24C305.675 124.261 306.925 114.654 310.886 94.0486Z" fill="#3943B3"/>
<path d="M309.802 149.257L310.079 151.479L314.612 151.375L314.859 149.382L309.802 149.257Z" fill="#3943B3"/>
<path d="M321.767 152.867C316.622 155.521 313.199 156.861 311.506 156.878C308.969 156.906 310.846 157.93 313.616 158.172C315.807 158.363 320.193 157.778 322.752 157.314C322.881 157.29 323.151 157.082 323.56 156.691C323.678 157.068 323.733 157.255 323.733 157.255C323.896 157.29 324.335 157.255 325.061 157.155C325.124 156.345 324.939 154.909 324.515 152.846L321.767 152.867Z" fill="#3943B3"/>
<path d="M321.768 152.867L321.871 150.929L324.608 151.057L324.515 152.846L321.768 152.867Z" fill="#FFB780"/>
<path d="M315.324 95.4052L325.013 102.486C327.138 105.427 326.577 113.806 323.331 127.621C326.146 135.224 326.655 143.27 324.851 151.763L321.27 152.272C318.382 138.194 316.541 130.082 315.745 127.936C314.31 124.074 313.159 113.349 315.324 95.4052Z" fill="#3943B3"/>
<path d="M320.366 150.223L320.827 152.417L325.338 151.974L325.415 149.967L320.366 150.223Z" fill="#3943B3"/>
<path d="M314.616 102.347L309.356 102.216L308.515 106.957L316.132 119.211L314.616 102.347Z" fill="#3943B3"/>
<path d="M320.226 76.8107C317.828 74.7827 315.173 75.8071 312.252 79.8907C309.334 83.9744 306.918 86.9783 305.004 88.9024L288.37 80.2991L286.632 83.6145C296.624 94.3358 303.204 99.3365 306.38 98.6167C311.141 97.5335 330.97 77.835 320.226 76.8107Z" fill="#FFDA8F"/>
<path d="M286.743 83.7287C281.369 79.8492 279.964 78.2503 282.523 78.9356C284.264 79.3993 285.795 80.6382 286.411 80.126C287.008 79.6242 285.732 79.164 285.511 78.0496C285.378 77.3782 286.573 78.3022 289.1 80.8182L286.743 83.7287Z" fill="#FFB780"/>
<g opacity="0.102">
<path opacity="0.102" d="M292.357 85.3241L299.261 91.3699L291.457 87.9438L292.357 85.3241Z" fill="black"/>
</g>
<g opacity="0.102">
<g opacity="0.102">
<path opacity="0.102" d="M304.465 94.803L312.783 87.7327V89.6015L308.622 95.8447L304.465 94.803Z" fill="black"/>
</g>
</g>
<path d="M285.71 83.6179L287.418 84.8292L290.597 81.1885L288.89 79.9807L285.71 83.6179Z" fill="#FFDA8F"/>
<path d="M316.759 74.3501C319.536 73.3949 327.414 72.7651 328.628 79.0774C329.738 84.843 327.396 89.8576 326.477 93.9482C326.042 95.8896 325.706 98.3294 325.47 101.257C322.029 105.071 317.113 106.123 310.713 104.417L311.333 94.623L311.99 89.2001C311.455 83.0434 311.613 82.289 312.783 79.1917C313.269 77.8973 315.062 75.1115 316.375 74.5058C316.5 74.447 316.629 74.3951 316.759 74.3501Z" fill="#FFDA8F"/>
<path d="M312.524 84.4104L311.706 83.8325C311.706 79.8907 313.428 74.4574 320.178 73.9694H320.392C311.706 75.5475 312.524 84.3101 312.524 84.4104Z" fill="#3943B3"/>
<path d="M319.234 64.1237L324.228 64.096L323.623 73.8656C323.604 74.1528 323.53 74.492 323.258 74.6789C321.893 75.596 320.631 75.8313 319.47 75.3849C317.784 75.0076 319.009 74.2878 319.256 72.509L319.234 64.1237Z" fill="#FFB780"/>
<path d="M318.606 61.9157C316.186 64.7708 315.906 67.2833 315.984 69.8962C316.087 73.2081 320.782 73.2461 323.77 71.5054C326.422 69.9585 327.668 67.1172 327.012 64.4144C326.163 60.9156 321.221 58.8322 318.606 61.9157Z" fill="#FFB780"/>
<g opacity="0.102">
<path opacity="0.102" d="M319.016 73.4745L321.856 72.3948L319.233 72.6474L319.016 73.4745Z" fill="black"/>
</g>
<path d="M316.998 65.0685C316.316 65.5772 315.634 66.252 314.951 67.0964C315.235 67.664 315.678 68.0412 316.279 68.2246L316.998 65.0685Z" fill="#FFB780"/>
<path d="M327.543 63.9022C327.359 59.3894 318.997 59.4344 317.994 60.1715C316.696 61.1232 316.57 62.1338 317.614 63.2031L318.027 62.9159C318.097 62.8847 318.175 62.8536 318.263 62.8224C319.491 62.992 323.796 63.8226 322.483 66.9995C322.151 67.8024 322.885 68.1727 323.759 68.2143C323.84 69.1833 323.833 70.218 323.663 71.2562C323.541 72.0037 327.846 71.2355 327.543 63.9022Z" fill="#411809"/>
<path d="M292.707 89.1932L291.523 90.4529L275.025 76.7553C274.741 76.5165 274.711 76.1082 274.966 75.8417L275.692 75.0665L292.707 89.1932Z" fill="#3943B3"/>
<path d="M291.98 84.6388C292.464 85.0437 292.74 85.6217 292.733 86.2308L292.703 89.2001L275.689 75.0734L280.591 75.7863C281.166 75.8694 281.701 76.1082 282.136 76.4681L291.98 84.6388Z" fill="white"/>
<path d="M320.93 68.8372C321.314 69.384 322.302 69.4048 323.139 68.8857C323.977 68.3665 324.342 67.5014 323.955 66.958C323.571 66.4112 322.579 66.3905 321.745 66.9096C320.908 67.4287 320.543 68.2939 320.93 68.8372Z" fill="#FFB780"/>
<path d="M325.515 103.78C325.721 99.1704 326.042 95.8897 326.477 93.9482C326.846 92.3113 327.436 90.5255 327.949 88.6048C321.749 88.0719 315.792 85.7013 311.709 83.6872C311.661 84.9469 311.761 86.5838 311.989 89.2001L310.713 94.6161L308.943 104.541C315.342 106.251 320.867 105.998 325.515 103.78Z" fill="#3943B3"/>
<path d="M322.449 110.061L319.215 109.241C323.386 94.803 325.422 81.2923 323.659 79.735C322.505 78.766 321.76 78.811 321.295 78.9321C318.85 79.5723 316.485 84.5765 315.726 86.8987L313.188 85.9747C313.483 85.0783 315.534 77.1741 320.399 75.904C321.697 75.5683 323.7 75.551 325.894 77.3955C330.247 81.057 324.935 101.461 322.449 110.061Z" fill="#3943B3"/>
<path d="M321.579 77.8766C319.399 77.8731 317.131 80.0672 314.77 84.4554C312.41 88.8471 310.617 91.6226 309.385 92.7888L292.696 85.8847L289.8 89.4146C301.695 98.9385 309.035 102.894 311.812 101.281C319.584 96.7756 332.375 77.6517 321.579 77.8766Z" fill="#FFDA8F"/>
<path d="M289.8 89.4146C287.259 89.6119 285.688 89.0028 285.086 87.5874C284.515 86.2308 282.479 83.22 284.489 84.6112C285.75 85.4867 287.48 87.1167 287.997 86.435C288.498 85.767 285.865 85.511 286.543 84.1993L291.021 86.5526L289.8 89.4146Z" fill="#FFB780"/>
<path d="M288.487 90.311L290.383 91.2454L293.555 85.9747L291.659 85.0437L288.487 90.311Z" fill="#FFDA8F"/>
<path d="M328.126 65.3903L317.673 60.4069C319.138 57.6971 322.667 56.6174 325.555 57.9947C328.443 59.3721 329.594 62.684 328.126 65.3903Z" fill="#FFDA8F"/>
<path d="M323.416 57.4203C324.143 57.4826 324.866 57.666 325.555 57.9948C328.443 59.3721 329.594 62.684 328.126 65.3903L325.404 64.0925C326.518 61.6908 325.662 58.9084 323.416 57.4203Z" fill="#FFA320"/>
<path d="M327.827 65.9336L328.547 64.5113L316.257 59.0468L315.542 60.4692L327.827 65.9336Z" fill="#FFA320"/>
<path d="M300.209 156.615H280.495L286.916 126.129H293.791L300.209 156.615Z" fill="#EB4334"/>
<path d="M303.963 158.252H275.829V155.099H303.963V158.252Z" fill="#EB4334"/>
<path d="M300.209 156.615H280.495L286.916 126.129H293.791L300.209 156.615Z" fill="#EB4334"/>
<path d="M284.194 139.048H296.513L295.506 134.273H285.201L284.194 139.048Z" fill="white"/>
<path d="M281.844 150.22H298.862L297.859 145.444H282.847L281.844 150.22Z" fill="white"/>
<path d="M152.779 162.806C153.181 162.806 153.538 162.543 153.62 162.162L168.543 93.8651C168.635 93.4291 168.336 93.0034 167.871 92.9134C167.41 92.8234 166.953 93.1038 166.857 93.5398L151.938 161.837C151.842 162.273 152.144 162.699 152.609 162.789C152.664 162.799 152.723 162.806 152.779 162.806Z" fill="#3943B3"/>
<path d="M167.004 100.44H188.533C189.009 100.44 189.393 100.077 189.393 99.6341C189.393 99.1877 189.009 98.8278 188.533 98.8278H167.004C166.529 98.8278 166.145 99.1877 166.145 99.6341C166.145 100.077 166.529 100.44 167.004 100.44Z" fill="#4753DE"/>
<path d="M164.902 109.224H186.431C186.907 109.224 187.291 108.864 187.291 108.417C187.291 107.971 186.907 107.611 186.431 107.611H164.902C164.427 107.611 164.043 107.971 164.043 108.417C164.043 108.864 164.427 109.224 164.902 109.224Z" fill="#4753DE"/>
<path d="M163.099 118.007H184.627C185.103 118.007 185.487 117.647 185.487 117.201C185.487 116.758 185.103 116.398 184.627 116.398H163.099C162.623 116.398 162.239 116.758 162.239 117.201C162.239 117.647 162.623 118.007 163.099 118.007Z" fill="#4753DE"/>
<path d="M161.147 126.794H182.676C183.152 126.794 183.536 126.434 183.536 125.988C183.536 125.541 183.152 125.181 182.676 125.181H161.147C160.675 125.181 160.288 125.541 160.288 125.988C160.288 126.434 160.675 126.794 161.147 126.794Z" fill="#4753DE"/>
<path d="M159.311 135.577H180.839C181.312 135.577 181.699 135.217 181.699 134.771C181.699 134.328 181.312 133.964 180.839 133.964H159.311C158.835 133.964 158.451 134.328 158.451 134.771C158.451 135.217 158.835 135.577 159.311 135.577Z" fill="#4753DE"/>
<path d="M157.485 144.364H179.014C179.486 144.364 179.873 144.001 179.873 143.558C179.873 143.111 179.486 142.751 179.014 142.751H157.485C157.009 142.751 156.625 143.111 156.625 143.558C156.625 144.001 157.009 144.364 157.485 144.364Z" fill="#4753DE"/>
<path d="M155.622 153.147H177.151C177.627 153.147 178.01 152.787 178.01 152.341C178.01 151.898 177.627 151.535 177.151 151.535H155.622C155.15 151.535 154.763 151.898 154.763 152.341C154.763 152.787 155.15 153.147 155.622 153.147Z" fill="#4753DE"/>
<path d="M175.827 162.806C176.226 162.806 176.583 162.543 176.664 162.162L191.588 93.8651C191.68 93.4291 191.381 93.0034 190.916 92.9134C190.455 92.8234 189.998 93.1038 189.902 93.5398L174.983 161.837C174.887 162.273 175.189 162.699 175.654 162.789C175.709 162.799 175.768 162.806 175.827 162.806Z" fill="#3943B3"/>
<path d="M246.768 50.0282L251.179 60.5488" stroke="#3943B3" stroke-width="6" stroke-linecap="round" stroke-dasharray="18 18"/>
<path d="M235.165 47.5053L236.607 49.8655L246.58 49.5402L253.901 43.4251L252.806 39.9782" stroke="#3943B3" stroke-width="3" stroke-linecap="round" stroke-dasharray="21 21"/>
<path d="M253.636 39.338L234.209 47.3911" stroke="#3943B3" stroke-width="3" stroke-linecap="round" stroke-dasharray="21 21"/>
<path d="M250.925 44.093L239.569 48.5643C237.931 49.208 236.028 48.4778 235.342 46.9412C234.656 45.4046 235.434 43.6189 237.072 42.9752L248.424 38.504C250.066 37.8603 251.969 38.5905 252.655 40.127C253.341 41.6636 252.563 43.4493 250.925 44.093Z" fill="#FFA320"/>
<path d="M238.923 47.3738L250.279 42.906C251.766 42.3211 252.529 40.7984 252.149 39.3726C251.264 38.3794 249.763 37.9779 248.424 38.5039L237.072 42.9752C235.585 43.5601 234.818 45.0793 235.202 46.5051C236.087 47.5018 237.588 47.8998 238.923 47.3738Z" fill="#FFDA8F"/>
<path d="M236.43 145.056H221.684L218.969 126.129H239.141L236.43 145.056Z" fill="#3943B3"/>
<path d="M220.29 126.597C220.29 122.056 224.214 118.374 229.057 118.374C233.896 118.374 237.821 122.056 237.821 126.597" stroke="#3943B3" stroke-width="3" stroke-dasharray="21 21"/>
<path d="M235.029 126.749C235.169 126.628 235.187 126.396 235.143 126.129H223.001C222.769 127.42 223.337 128.829 223.831 128.891C224.443 128.971 224.864 126.97 225.612 127.019C226.243 127.057 227.113 128.41 226.505 131.635C225.97 134.48 227.814 135.082 228.021 135.044C229.909 134.709 228.681 128.209 230.355 127.753C230.99 127.579 231.617 128.455 232.462 128.123C233.159 127.846 233.192 127.067 234.029 126.849C234.545 126.718 234.822 126.932 235.029 126.749Z" fill="#FFDA8F"/>
<path d="M247.775 109.11L257.265 110.691L264.406 107.224C263.93 104.067 263.705 102.046 263.735 101.167C263.831 97.9938 265.461 90.8439 263.056 85.7463C261.286 81.9983 257.988 83.701 253.82 84.9399L249.129 85.421C244.113 82.5763 243.357 87.7085 246.864 100.821C247.262 102.316 247.565 105.078 247.775 109.11Z" fill="#FFDA8F"/>
<path d="M251.7 71.322C249.837 73.1112 249.052 75.8867 249.103 78.4718C249.162 81.2819 253.769 81.4204 256.288 79.9219C258.523 78.5964 259.999 75.8036 259.42 73.5195C258.675 70.5606 254.186 68.9341 251.7 71.322Z" fill="#FFC69A"/>
<path d="M250.726 72.6059C249.967 73.4399 249.269 73.9487 248.631 74.1286C248.801 74.665 249.137 75.0526 249.638 75.2914L250.726 72.6059Z" fill="#FFC69A"/>
<path d="M244.998 87.0786L242.582 95.7304L241.07 100.202L231.86 115.412L234.737 117.218L246.37 101.897L248.155 97.1355L255.071 84.5108C255.624 83.0296 252.253 83.085 250.675 82.5659C249.096 82.0433 246.134 83.9848 244.998 87.0786Z" fill="#FFDA8F"/>
<path d="M232.251 114.764C229.924 117.177 229.559 118.301 231.148 118.139C232.266 118.024 232.417 117.893 231.609 117.741C230.023 119.045 229.581 119.686 230.282 119.661C231.329 119.627 233.542 120.502 234.081 119.156C234.516 118.069 234.833 117.208 235.036 116.571L232.251 114.764Z" fill="#FFC69A"/>
<path d="M236.762 115.668L235.511 117.391L231.399 114.764L232.649 113.041L236.762 115.668Z" fill="#FFDA8F"/>
<path d="M255.75 76.5027L249.483 60.0297L252.652 58.718L261.282 75.6964L262.16 80.6763L256.414 81.1539L255.75 76.5027Z" fill="#FFDA8F"/>
<path d="M261.197 92.6366C259.545 92.8927 257.988 91.8441 257.716 90.2972L256.414 81.1539L262.16 80.6763L263.993 88.6637C264.266 90.2141 262.85 92.3805 261.197 92.6366Z" fill="#FFDA8F"/>
<path d="M250.457 60.3134C248.063 57.929 247.366 56.4997 248.373 56.0291L249.483 57.7352C248.609 54.8109 248.517 53.4162 249.203 53.5512C250.228 53.7588 252.475 54.9839 252.242 56.4063C252.058 57.5379 251.914 58.5727 251.814 59.5175L250.457 60.3134Z" fill="#FFC69A"/>
<path d="M249.852 61.8604L249.03 59.9258L253.043 58.4204L253.865 60.355L249.852 61.8604Z" fill="#FFDA8F"/>
<path d="M250.981 78.5653L251.416 87.8296L256.823 86.21L254.275 77.752L250.981 78.5653Z" fill="#FFC69A"/>
<path d="M252.71 104.981C252.994 94.3565 251.548 85.9539 250.637 82.5555C249.977 82.3582 249.088 82.5763 248.192 83.1196C249.051 86.2965 250.493 93.9482 250.195 104.919L252.71 104.981Z" fill="#3943B3"/>
<path d="M265.974 115.066C266.77 109.694 266.066 105.189 263.86 101.555C260.157 103.486 254.654 104.23 247.359 103.787L245.806 117.402L244.95 132.487C245.194 138.114 246.577 144.669 249.096 152.151L253.378 151.503C253.898 146.195 253.673 139.754 252.703 132.182C254.138 126.766 255.244 122.665 256.026 119.876C256.104 119.599 257.373 119.163 257.439 118.928C261.695 118.713 264.539 117.429 265.974 115.066Z" fill="#3943B3"/>
<path d="M258.748 152.023L262.488 151.503C263.657 146.018 263.661 139.657 262.503 132.418C264.484 128.306 265.557 122.994 265.727 116.481C265.826 116 265.904 115.529 265.974 115.066C264.539 117.429 261.695 118.713 257.439 118.928L254.695 133.172C255.447 137.733 256.797 144.014 258.748 152.023Z" fill="#3943B3"/>
<path d="M259.556 118.64C258.741 118.803 258.033 118.897 257.439 118.928L254.695 133.172C255.44 137.681 256.775 143.897 258.697 151.815C259.132 151.545 259.493 151.216 259.674 150.818C260.054 149.998 259.479 149.472 258.77 146.856C258.328 145.222 258.564 145.468 257.867 142.187C257.332 139.671 257.063 138.415 256.812 137.802C256.096 136.079 255.377 135.349 255.757 134.407C256.119 133.511 257.103 133.355 257.111 132.57C257.122 131.902 256.421 131.639 256.056 131.013C255.196 129.531 256.919 127.213 257.413 126.486C258.442 124.98 259.445 122.586 259.556 118.64Z" fill="#4753DE"/>
<path d="M249.096 152.151L249.908 154.618L252.891 154.407L252.88 151.618L249.096 152.151Z" fill="#FFC69A"/>
<path d="M244.479 158.307C244.501 157.2 245.622 156.476 247.839 156.13C249.011 155.947 249.299 155.449 248.698 154.635L251.977 153.687L248.853 158.854L244.479 158.307Z" fill="#FFDA8F"/>
<path d="M252.497 153.653C250.288 153.646 250.446 155.414 250.118 156.532C249.078 157.933 247.451 158.553 245.231 158.39C246.024 158.491 247.296 158.653 248.303 158.785C249.321 158.92 250.354 158.857 251.346 158.608L253.201 158.138C254.282 157.584 255.455 153.763 252.681 153.656C252.622 153.653 252.56 153.653 252.497 153.653Z" fill="#3943B3"/>
<path d="M244.685 158.335C244.877 158.363 245.054 158.376 245.231 158.39C244.559 158.304 244.231 158.266 244.685 158.335Z" fill="#FFA320"/>
<path d="M258.748 152.023L259.515 154.507L262.503 154.293L262.488 151.503L258.748 152.023Z" fill="#FFC69A"/>
<path d="M254.086 158.193C254.112 157.086 255.233 156.362 257.45 156.016C258.623 155.833 258.911 155.334 258.306 154.521L261.588 153.573L258.464 158.74L254.086 158.193Z" fill="#FFDA8F"/>
<path d="M262.109 153.538C259.896 153.531 260.058 155.3 259.726 156.418C258.689 157.819 257.059 158.439 254.839 158.276C255.636 158.376 256.908 158.539 257.915 158.671C258.933 158.806 259.966 158.743 260.958 158.494L262.813 158.023C263.89 157.47 265.067 153.649 262.293 153.542C262.23 153.538 262.171 153.538 262.109 153.538Z" fill="#3943B3"/>
<path d="M254.297 158.221C254.485 158.248 254.666 158.262 254.839 158.276C254.171 158.19 253.843 158.151 254.297 158.221Z" fill="#FFA320"/>
<path d="M253.902 152.431L248.343 152.998L248.089 150.804L253.647 150.237L253.902 152.431Z" fill="#3943B3"/>
<path d="M263.532 151.915L257.974 152.483L257.719 150.285L263.274 149.718L263.532 151.915Z" fill="#3943B3"/>
<path d="M250.888 81.9879L250.8 83.5418C252.253 84.0159 253.437 84.1267 254.348 83.874C255.259 83.6214 255.871 83.0954 256.185 82.2994L255.731 81.1435C254.909 82.3548 253.297 82.6351 250.888 81.9879Z" fill="white"/>
<path d="M251.943 69.1313C249.808 70.9413 250.051 72.772 252.67 74.627C253.636 75.288 253.408 76.4231 251.973 78.0323C251.534 78.5237 251.534 79.2436 251.98 79.735C253.282 81.1712 256.133 83.2753 259.173 78.8352C260.585 76.7761 260.773 74.3605 259.593 72.9312C258.468 71.5642 257.435 70.789 255.698 70.2249C254.116 69.7127 253.286 69.8892 251.943 69.1313Z" fill="#411809"/>
<path d="M251.958 78.0289C248.181 81.0951 248.402 85.3033 248.406 85.9608C248.439 89.3454 252.061 92.0655 252.142 92.8615C252.363 95.0348 248.635 99.6272 249.166 101.901C249.937 105.189 256.174 106.386 262.289 103.991C269.282 101.254 270.189 92.5224 263.945 86.5215C261.182 83.8706 262.086 78.6622 261.558 74.8692C261.238 72.5782 260.522 74.9973 259.345 73.305C257.582 70.7717 253.245 69.9066 252.574 70.6818C251.943 71.4085 254.706 73.2877 254.097 75.4956C253.791 76.603 253.415 76.8488 251.958 78.0289Z" fill="#411809"/>
<path d="M253.824 75.4748C254.075 75.9282 253.791 76.5338 253.19 76.8245C252.593 77.1152 251.899 76.9837 251.648 76.5269C251.398 76.0736 251.682 75.4679 252.283 75.1772C252.884 74.8831 253.574 75.018 253.824 75.4748Z" fill="#FFC69A"/>
<path d="M261.208 76.5027L252.005 69.6851C254.012 67.3006 257.7 66.8923 260.241 68.7784C262.783 70.661 263.214 74.1182 261.208 76.5027Z" fill="#FFDA8F"/>
<path d="M258.265 67.8197C258.962 68.0135 259.633 68.3284 260.242 68.7783C262.783 70.661 263.214 74.1182 261.208 76.5027L258.811 74.7273C260.408 72.5817 260.153 69.692 258.265 67.8197Z" fill="#FFA320"/>
<path d="M260.802 76.9803L261.806 75.7206L250.907 68.0897L249.903 69.3528L260.802 76.9803Z" fill="#FFA320"/>
</svg>
