<svg width="456" height="201" viewBox="0 0 456 201" fill="none" xmlns="http://www.w3.org/2000/svg">
<path d="M453.789 174.42L453.945 174.686L454.253 174.666C454.347 174.659 454.442 174.645 454.531 174.626C453.398 175.59 452.156 176.555 450.963 177.333C450.178 177.844 449.424 178.267 448.743 178.556C448.528 178.647 448.324 178.722 448.132 178.783C448.397 178.599 448.743 178.319 448.892 177.861L448.917 177.785V177.706C448.917 177.246 448.689 176.963 448.556 176.799C448.549 176.79 448.542 176.781 448.536 176.773C448.507 176.738 448.484 176.708 448.466 176.682C451.173 174.986 451.77 172.647 451.964 171.262C452.084 171.469 452.224 171.714 452.388 172C452.735 172.606 453.189 173.4 453.789 174.42Z" fill="#FFF5D9" stroke="#222222"/>
<path d="M429.776 186.826C429.7 186.742 429.611 186.548 429.68 186.113C431.289 185.346 432.905 184.656 434.48 183.983C435.5 183.547 436.502 183.119 437.474 182.682C439.954 181.568 442.211 180.408 443.844 178.977C443.845 178.977 443.845 178.977 443.846 178.977C443.864 178.976 443.896 178.976 443.948 178.988C444.059 179.012 444.199 179.071 444.381 179.165C444.469 179.21 444.557 179.259 444.652 179.311L444.655 179.312C444.685 179.329 444.716 179.346 444.748 179.363C442.426 181.263 438.473 183.85 435.111 185.485C433.255 186.388 431.656 186.962 430.629 187.018C430.109 187.046 429.873 186.934 429.776 186.826Z" fill="#FFF5D9" stroke="#222222"/>
<path d="M428.446 124.991C430.048 125.114 430.804 124.34 430.914 123.125C430.749 123.089 430.749 122.896 430.472 122.966C429.551 123.301 423.508 123.723 428.446 124.991Z" fill="#DBDBDB"/>
<path d="M425.692 128.859L425.757 129.039L425.926 129.129C426.9 129.651 427.493 130.098 427.802 130.438C427.989 130.645 428.029 130.756 428.036 130.801C428.018 130.813 427.984 130.834 427.921 130.856C427.806 130.896 427.633 130.927 427.395 130.932C426.938 130.941 426.311 130.852 425.561 130.63C424.568 129.887 423.796 129.166 423.132 128.546L423.1 128.516L423.085 128.502C422.423 127.884 421.821 127.322 421.218 127.008C420.902 126.844 420.566 126.736 420.203 126.725C419.837 126.714 419.476 126.801 419.111 126.979C418.455 127.299 417.754 127.927 416.923 128.881C415.831 128.6 414.682 128.426 413.626 128.286C413.381 128.253 413.143 128.222 412.911 128.192C412.032 128.079 411.257 127.979 410.641 127.842C410.252 127.755 409.964 127.662 409.772 127.561C409.575 127.457 409.553 127.386 409.551 127.379C409.55 127.375 409.526 127.287 409.675 127.054C409.822 126.824 410.097 126.519 410.552 126.127L410.805 125.909L410.701 125.592C409.696 122.531 406.901 121.625 404.583 120.873C404.433 120.825 404.285 120.777 404.139 120.729C402.892 120.318 401.844 119.925 401.138 119.288C400.502 118.715 400.106 117.907 400.224 116.544C400.807 115.926 401.236 115.781 401.525 115.791C401.834 115.802 402.159 115.998 402.501 116.418C402.839 116.832 403.132 117.388 403.386 117.952C403.511 118.231 403.623 118.504 403.726 118.756C403.738 118.785 403.75 118.815 403.762 118.845C403.849 119.058 403.93 119.259 404.003 119.421L404.187 119.83L404.613 119.692C414.197 116.587 423.224 122.054 425.692 128.859ZM428.035 130.824C428.035 130.824 428.035 130.821 428.037 130.814C428.037 130.821 428.036 130.824 428.035 130.824Z" fill="#FFF5D9" stroke="#222222"/>
<path d="M406.897 179.319C405.984 181.072 405.089 181.873 404.389 182.159C403.668 182.454 403.099 182.227 402.754 181.827C402.386 181.401 402.29 180.806 402.52 180.36C402.734 179.946 403.331 179.484 404.725 179.543C405.243 179.615 405.758 179.505 406.149 179.421C406.225 179.404 406.295 179.389 406.361 179.376C406.58 179.334 406.752 179.313 406.897 179.319Z" fill="#FFF5D9" stroke="#222222"/>
<path d="M390.861 63.1967L390.507 63.2787L390.476 63.6416C390.414 64.3668 390.276 64.8405 390.121 65.1289C389.969 65.4105 389.825 65.4769 389.743 65.4925C389.649 65.5104 389.495 65.4885 389.285 65.339C389.081 65.1939 388.863 64.9534 388.671 64.6291C388.246 63.7305 388.155 63.0597 388.244 62.5455C388.332 62.0358 388.61 61.611 389.062 61.2247C389.521 60.8316 390.142 60.4951 390.873 60.172C391.381 59.9475 391.917 59.7397 392.472 59.5249C392.719 59.4293 392.969 59.3323 393.222 59.2318C394.81 58.6013 396.513 57.8363 397.421 56.4867C398.238 55.2726 398.349 53.7066 397.487 51.6202C398.097 51.9139 398.55 52.2846 398.897 52.6994C399.431 53.3389 399.741 54.1175 399.951 54.9714C400.101 55.579 400.194 56.1896 400.287 56.8051C400.327 57.07 400.367 57.3359 400.413 57.6028C400.52 58.2399 400.655 58.8836 400.897 59.4545C399.133 60.0719 397.661 60.6924 396.321 61.2569C396.097 61.3511 395.878 61.4438 395.661 61.5346C394.008 62.2267 392.53 62.8108 390.861 63.1967Z" fill="#FFF5D9" stroke="#222222"/>
<path d="M395.28 46.1915C395.2 45.9836 395.087 45.789 394.985 45.6246C395.284 45.7416 395.598 45.8465 395.915 45.9431C396.416 46.0957 396.953 46.2362 397.47 46.3716C397.705 46.4329 397.935 46.4932 398.156 46.553C398.885 46.7503 399.517 46.944 399.975 47.1679C400.257 47.3057 400.414 47.4266 400.499 47.5231C399.944 48.0866 399.46 48.3493 399.053 48.4724C398.589 48.6127 398.178 48.5879 397.766 48.5482C397.74 48.5458 397.714 48.5431 397.687 48.5405C397.511 48.523 397.315 48.5037 397.134 48.5052C396.919 48.507 396.672 48.5372 396.435 48.663C396.075 48.8543 395.854 49.1987 395.713 49.6625C395.524 49.5721 395.325 49.4527 395.145 49.3122C394.878 49.1037 394.726 48.907 394.66 48.7539C395.031 48.262 395.254 47.823 395.355 47.4141C395.472 46.9384 395.414 46.5375 395.28 46.1915Z" fill="#FFF5D9" stroke="#222222"/>
<path d="M396.519 133.143C396.648 133.583 397.919 133.671 397.827 132.967C397.68 132.421 396.537 132.597 396.519 133.143Z" fill="#DBDBDB"/>
<path d="M392.193 41.4002C392.481 41.5609 392.761 41.7387 392.965 41.9264C393.165 42.1109 393.184 42.2098 393.184 42.2226L393.184 42.2226C393.184 42.2238 393.184 42.2256 393.182 42.2302C393.181 42.2354 393.175 42.2487 393.16 42.2701C393.147 42.2876 393.129 42.3094 393.102 42.3349C392.825 42.1883 392.551 41.9566 392.357 41.6847C392.289 41.5882 392.234 41.493 392.193 41.4002Z" fill="#FFF5D9" stroke="#222222"/>
<path d="M387.012 130.328C387.837 129.51 388.731 129.009 389.622 128.779C389.613 128.785 389.603 128.791 389.594 128.797C389.101 129.117 388.664 129.401 388.244 129.657C387.79 129.934 387.39 130.157 387.012 130.328Z" fill="#FFF5D9" stroke="#222222"/>
<path d="M387.97 113.546C386.625 113.828 382.351 111.856 381.024 114.638C382.719 113.916 387.012 115.43 387.97 113.546Z" fill="#DBDBDB"/>
<path d="M385.686 123.547C386.092 123.266 385.907 122.42 385.944 121.787C385.115 120.818 384.839 119.322 384.102 118.265C384.563 117.367 386.22 117.226 386.128 116.064C380.381 116.997 378.317 114.321 380.325 123.635C381.578 123.952 381.32 120.959 382.26 119.779C382.96 120.836 383.918 123.882 385.686 123.547Z" fill="#DBDBDB"/>
<mask id="path-13-inside-1_85_1154" fill="white">
<path d="M382.869 128.601C382.721 127.879 380.897 127.685 380.584 128.354C380.732 128.935 382.555 129.234 382.869 128.601Z"/>
</mask>
<path d="M382.869 128.601C382.721 127.879 380.897 127.685 380.584 128.354C380.732 128.935 382.555 129.234 382.869 128.601Z" fill="#FFF5D9"/>
<path d="M382.869 128.601L383.765 129.044L383.917 128.736L383.848 128.401L382.869 128.601ZM380.584 128.354L379.679 127.93L379.527 128.254L379.615 128.6L380.584 128.354ZM383.848 128.401C383.729 127.816 383.303 127.469 382.979 127.289C382.639 127.1 382.252 127 381.895 126.961C381.538 126.923 381.139 126.94 380.767 127.05C380.415 127.155 379.928 127.397 379.679 127.93L381.49 128.778C381.444 128.877 381.381 128.932 381.348 128.956C381.318 128.978 381.309 128.976 381.338 128.967C381.401 128.948 381.525 128.933 381.682 128.95C381.839 128.967 381.955 129.008 382.008 129.038C382.032 129.051 382.019 129.049 381.992 129.018C381.961 128.983 381.911 128.91 381.889 128.801L383.848 128.401ZM379.615 128.6C379.762 129.179 380.241 129.483 380.506 129.618C380.824 129.78 381.189 129.879 381.533 129.924C381.874 129.97 382.265 129.972 382.633 129.884C382.975 129.802 383.495 129.59 383.765 129.044L381.972 128.158C382.028 128.044 382.105 127.981 382.147 127.954C382.185 127.93 382.198 127.931 382.168 127.939C382.101 127.955 381.968 127.964 381.796 127.942C381.626 127.919 381.487 127.874 381.412 127.835C381.375 127.817 381.381 127.813 381.408 127.839C381.433 127.864 381.514 127.951 381.554 128.108L379.615 128.6Z" fill="#222222" mask="url(#path-13-inside-1_85_1154)"/>
<path d="M380.229 130.194C380.315 130.226 380.395 130.268 380.463 130.316C380.332 130.271 380.214 130.225 380.104 130.169C380.089 130.161 380.074 130.153 380.059 130.145C380.111 130.155 380.167 130.17 380.229 130.194Z" fill="#FFF5D9" stroke="#222222"/>
<path d="M375.92 128.597C375.967 128.596 376.014 128.593 376.061 128.588C376.08 128.586 376.098 128.585 376.116 128.583C376.106 128.59 376.096 128.597 376.087 128.604C376.03 128.602 375.974 128.6 375.92 128.597Z" fill="#FFF5D9" stroke="#222222"/>
<path d="M395.44 168.583C395.419 168.596 395.395 168.609 395.366 168.622C395.053 166.63 394.004 165.335 392.518 164.604C390.939 163.826 388.922 163.71 386.897 163.936C384.861 164.162 382.755 164.742 380.954 165.421C379.277 166.054 377.829 166.786 376.937 167.424C374.346 167.016 372.501 167.488 370.83 168.048C370.577 168.132 370.329 168.218 370.085 168.303C368.703 168.783 367.434 169.223 365.821 169.214C365.067 168.882 364.836 168.617 364.778 168.477C364.739 168.385 364.737 168.246 364.949 167.95C365.094 167.749 365.271 167.561 365.474 167.346C365.581 167.233 365.695 167.112 365.816 166.978C366.12 166.639 366.479 166.191 366.559 165.668L366.566 165.621L366.565 165.574C366.436 162 366.355 159.181 366.474 156.914C366.594 154.645 366.912 152.98 367.547 151.693C368.794 149.169 371.355 147.92 376.826 146.659L376.826 146.659L376.83 146.658C380.236 145.84 382.258 143.957 383.995 142.086C384.236 141.827 384.471 141.57 384.701 141.317C386.113 139.766 387.392 138.362 389.241 137.545C391.124 138.055 392.463 138.145 393.485 137.943C394.562 137.73 395.234 137.202 395.784 136.627C395.955 136.448 396.126 136.251 396.288 136.064C396.372 135.967 396.453 135.873 396.532 135.786C396.773 135.515 397.014 135.267 397.294 135.049C397.838 134.625 398.57 134.284 399.786 134.223L400.171 134.204L400.25 133.826C400.29 133.638 400.279 133.46 400.25 133.31C401.045 133.628 401.824 133.821 402.535 133.961C402.912 134.036 403.275 134.096 403.608 134.152C403.681 134.164 403.752 134.176 403.821 134.188C404.216 134.254 404.557 134.316 404.848 134.391C405.462 134.549 405.667 134.724 405.735 134.908C405.813 135.12 405.797 135.555 405.386 136.439C404.818 136.649 404.441 136.857 404.192 137.097C403.892 137.387 403.821 137.686 403.774 137.888L403.77 137.904L403.705 138.177L403.903 138.374C405.357 139.823 406.58 140.869 407.619 141.577C408.651 142.282 409.535 142.677 410.305 142.776C411.102 142.88 411.757 142.662 412.274 142.202C412.769 141.762 413.107 141.127 413.365 140.443C413.624 139.754 413.82 138.962 414.001 138.167C414.05 137.949 414.098 137.731 414.146 137.514C414.276 136.926 414.405 136.345 414.553 135.783C414.756 135.016 414.988 134.323 415.288 133.759C415.505 133.35 415.749 133.026 416.028 132.79C416.334 133.219 416.565 133.781 416.713 134.424C416.9 135.235 416.945 136.135 416.858 136.964L416.824 137.287L417.105 137.45C419.013 138.55 419.329 140.367 419.67 142.329C419.677 142.373 419.685 142.417 419.693 142.461C419.862 143.434 420.054 144.463 420.532 145.323C420.991 146.15 421.702 146.804 422.831 147.169C423.225 148.723 423.913 149.918 424.57 150.874C424.804 151.216 425.041 151.536 425.255 151.825C425.354 151.958 425.448 152.085 425.535 152.204C425.816 152.592 426.021 152.903 426.14 153.175C427.322 156.268 426.369 159.714 424.116 162.999C421.866 166.281 418.371 169.316 414.67 171.512C410.96 173.713 407.115 175.029 404.177 174.955C402.716 174.919 401.522 174.541 400.668 173.806C399.835 173.09 399.265 171.984 399.124 170.358C399.204 170.048 399.256 169.674 399.195 169.304C399.138 168.963 398.982 168.627 398.681 168.367C398.704 168.08 398.793 167.9 398.908 167.765L399.97 166.515L398.391 166.96C396.825 167.401 396.223 167.85 395.817 168.241C395.759 168.296 395.713 168.342 395.674 168.381C395.573 168.481 395.521 168.533 395.44 168.583Z" fill="#FFF5D9" stroke="#222222"/>
<path d="M353.317 127.771L353.317 127.771L353.312 127.77C348.171 127.101 345.02 126.489 343.323 125.985C342.9 125.86 342.578 125.744 342.343 125.64C342.335 125.637 342.328 125.633 342.32 125.63C342.59 125.569 342.965 125.516 343.443 125.481C344.147 125.429 345.024 125.418 346.013 125.455C347.92 125.528 350.219 125.78 352.449 126.253C352.447 126.268 352.444 126.285 352.441 126.304C352.437 126.328 352.433 126.356 352.427 126.392C352.413 126.488 352.397 126.609 352.397 126.752V127.057L352.669 127.197C352.978 127.355 353.32 127.458 353.643 127.541C353.79 127.578 353.94 127.613 354.084 127.647C354.098 127.65 354.113 127.654 354.127 127.657C354.287 127.695 354.439 127.731 354.585 127.77C354.914 127.857 355.168 127.95 355.358 128.061C355.21 128.09 355.041 128.091 354.842 128.068C354.62 128.043 354.385 127.992 354.124 127.933C354.103 127.928 354.082 127.923 354.062 127.919C353.827 127.865 353.569 127.806 353.317 127.771ZM341.902 125.773C341.902 125.773 341.903 125.773 341.904 125.772C341.903 125.773 341.902 125.773 341.902 125.773Z" fill="#FFF5D9" stroke="#222222"/>
<path d="M377.709 107.749L377.735 107.803L377.774 107.85C378.044 108.171 378.424 108.374 378.704 108.523C378.732 108.538 378.76 108.553 378.786 108.567C378.954 108.658 379.086 108.735 379.189 108.812C378.527 109.756 378.185 110.63 378.035 111.457C377.868 112.375 377.943 113.207 378.039 113.951C378.055 114.07 378.07 114.187 378.086 114.301C378.262 115.608 378.396 116.606 377.563 117.727C376.188 118.537 375.788 119.673 375.607 120.642C375.567 120.86 375.536 121.072 375.509 121.264C375.506 121.284 375.503 121.304 375.5 121.324C375.47 121.536 375.442 121.718 375.406 121.879C375.352 122.121 375.291 122.26 375.223 122.345C372.073 122.6 369.146 122.119 367.175 120.886C366.181 120.264 365.438 119.457 365.015 118.459C364.624 117.536 364.493 116.417 364.729 115.074C369.178 114.216 372.033 111.155 374.017 108.994C374.051 108.957 374.084 108.92 374.118 108.884C374.59 108.368 375.006 107.916 375.387 107.549C375.8 107.152 376.132 106.897 376.407 106.775C376.656 106.665 376.817 106.679 376.969 106.766C377.161 106.878 377.415 107.152 377.709 107.749Z" fill="#FFF5D9" stroke="#222222"/>
<path d="M361.804 115.396C361.375 115.396 361.092 115.242 360.911 115.041C360.723 114.832 360.618 114.539 360.618 114.232C360.618 113.924 360.723 113.632 360.911 113.422C361.092 113.222 361.375 113.068 361.804 113.068C362.226 113.068 362.506 113.221 362.685 113.421C362.872 113.63 362.976 113.923 362.976 114.232C362.976 114.541 362.872 114.833 362.685 115.043C362.506 115.243 362.226 115.396 361.804 115.396Z" fill="#FFF5D9" stroke="#222222"/>
<path d="M358.138 118.58L357.93 118.666L357.856 118.878C357.637 119.505 357.654 120.168 357.667 120.678C357.669 120.748 357.67 120.814 357.671 120.878C357.68 121.439 357.633 121.692 357.504 121.833C357.405 121.873 357.24 121.904 356.984 121.913C356.802 121.919 356.628 121.915 356.441 121.911C356.372 121.91 356.3 121.908 356.226 121.907C352.978 119.192 350.52 116.153 348.288 113.154C347.776 112.467 347.275 111.78 346.778 111.099C345.426 109.244 344.105 107.433 342.691 105.782C345.49 106.608 348.04 108.204 350.269 110.074C352.895 112.279 355.048 114.843 356.601 116.913L356.872 117.274L357.259 117.042C357.863 116.678 358.212 116.672 358.375 116.721C358.516 116.764 358.637 116.884 358.699 117.135C358.762 117.391 358.738 117.72 358.624 118.013C358.509 118.308 358.329 118.502 358.138 118.58Z" fill="#FFF5D9" stroke="#222222"/>
<path d="M316.706 103.081C316.681 102.447 316.745 101.644 316.94 100.649C318.162 101.634 318.621 102.58 318.706 103.306C318.801 104.121 318.44 104.702 318.059 104.93C317.87 105.043 317.689 105.066 317.537 105.026C317.39 104.987 317.205 104.869 317.04 104.573C316.872 104.271 316.734 103.793 316.706 103.081Z" fill="#FFF5D9" stroke="#222222"/>
<path d="M267.389 139.598L267.176 139.704L267.124 139.936C266.04 144.781 264.678 148.345 263.323 150.711C262.644 151.895 261.976 152.764 261.357 153.344C260.733 153.929 260.197 154.185 259.781 154.225C259.397 154.261 259.049 154.122 258.735 153.737C258.405 153.333 258.121 152.659 257.954 151.671C257.625 149.711 257.791 146.691 258.76 142.658C259.726 140.935 261.404 139.888 263.101 138.83C263.144 138.804 263.187 138.777 263.229 138.75C264.737 137.809 266.316 136.811 267.002 135.217C267.55 135.661 267.934 136.454 268.056 137.332C268.131 137.869 268.099 138.387 267.971 138.799C267.842 139.214 267.633 139.475 267.389 139.598Z" fill="#FFF5D9" stroke="#222222"/>
<mask id="path-24-inside-2_85_1154" fill="white">
<path fill-rule="evenodd" clip-rule="evenodd" d="M339.573 90.4288C337.638 86.9778 335.151 83.5445 332.996 80.745C330.785 80.5865 325.387 81.0267 325.497 83.0163C321.665 86.0799 318.478 89.3724 315.917 91.2739C315.365 118.318 304.053 87.2243 302.634 81.6782C300.202 84.0023 297.494 81.5021 297.697 79.7414C293.717 77.2941 293.091 74.8995 289.425 75.6214C281.245 76.537 276.252 73.3325 270.873 72.505C261.238 63.9833 262.564 69.8992 267.612 74.7058C267.98 74.8291 268.717 74.3889 269.104 74.7763C269.454 75.551 269.104 76.9771 269.896 77.3117C273.563 77.8751 274.594 75.9735 276.234 74.6178C278.666 79.5829 281.042 76.9771 282.572 80.34C277.726 89.7773 265.549 93.7388 257.756 95.1298C257.074 92.1014 256.153 90.4288 254.845 89.1611C254.808 88.6153 255.49 88.7737 255.563 88.3159C250.184 82.4 247.918 75.7975 243.054 71.3429C242.335 71.431 241.58 71.4838 241.212 71.924C245.504 82.1007 252.505 90.1647 257.313 96.732C260.74 101.081 266.562 96.2214 269.712 96.644C270.523 111.275 247.954 115.466 251.418 128.354C251.915 129.498 252.284 130.784 253.187 131.541C254.918 141.524 249.834 140.714 244.509 145.45C242.225 150.31 247.77 152.299 240.696 154.553C238.817 164.959 227.947 168.709 219.399 169.219C213.632 163.497 212.011 150.503 208.658 145.08C203.96 138.284 213.227 133.389 209.34 126.857C207.608 121.91 205.397 120.713 203.113 117.579C203.96 110.536 205.452 107.138 198.102 108.247C196.591 103.511 189.83 105.465 188.079 106.398C183.289 108.687 181.079 105.641 177.818 107.666C169.841 108.652 158.326 92.2951 162.379 90.0942C161.79 75.6038 167.095 74.072 173.986 67.98C173.746 63.4023 177.928 62.8388 179.457 61.1662C181.631 58.4899 179.31 56.4652 177.375 57.187C173.654 55.2855 178.002 50.2851 176.639 48.1371C184.082 46.6934 195.135 47.5737 183.842 39.9675C191.359 39.1576 194.988 32.9072 202.136 31.6219C202.689 28.8048 201.307 26.7448 204.697 26.1814C205.342 26.6216 205.158 27.854 205.231 28.6287C210.113 28.3822 206.152 26.0757 205.968 24.4207C201.031 24.632 197.659 26.692 198.009 20.2127C203.776 16.973 209.542 14.8954 209.984 10.6169C223.065 3.29248 255.324 14.8954 234.174 13.8214C234.192 15.7229 236.348 17.1667 238.319 16.9378C238.485 16.0398 237.195 16.5328 237.343 15.6701C238.227 15.0362 239.277 16.0927 240.512 15.9166C240.991 15.7933 240.917 15.1243 241.046 14.6665C242.077 14.0503 243.386 13.1699 244.988 13.8214C245.08 13.6805 245.191 13.5573 245.357 13.4868C245.449 12.5537 244.288 12.0783 244.915 11.2156C245.209 10.6169 246.849 10.8282 247.107 11.3036C247.236 11.867 246.702 11.8142 246.757 12.3072C248.526 14.2792 251.639 10.6169 252.56 10.881C258.271 9.87744 263.725 11.8142 262.767 9.12035C267.87 9.04992 269.694 10.388 272.623 10.6169C265.383 7.81744 273.249 2.04239 275.184 6.79624C277.118 7.18359 280.434 5.07077 282.645 5.73983C283.198 5.4053 282.479 4.96513 282.737 4.48974C283.732 3.80308 285.98 4.33128 287.233 3.89111C287.583 3.50376 286.79 3.22205 287.14 2.79949C296.739 0.528204 309.69 -2.20086 315.917 2.88752C322.715 5.95111 327.929 4.24325 333.972 4.29607C339.536 4.10239 340.107 9.56052 343.091 6.76103C346.444 6.6906 349.245 7.51812 350.221 5.58137C365.549 5.96872 377.911 9.08513 390.789 10.1239C391.342 9.7718 390.347 9.27881 390.881 8.94428C401.658 10.9162 415.789 9.61334 421.408 16.1807C416.047 15.2475 405.748 13.4516 415.679 18.8745C411.902 18.8393 411.736 19.9486 410.336 21.4627C407.83 23.2234 403.685 21.1986 402.23 23.065C402.451 26.3574 406.67 26.3398 407.149 27.6956C406.743 30.2838 409.304 29.4915 407.425 31.2345C408.383 33.2593 408.051 35.3722 407.333 35.6891C403.114 32.0973 398.527 30.5479 397.219 26.0053C399.411 23.558 399.411 19.6668 397.219 19.033C397.642 24.5968 387.528 16.2863 390.494 22.8889C392.06 24.3327 388.062 24.0333 388.062 24.1566C380.011 21.9381 374.54 23.2234 373.029 29.6499C376.935 31.3226 382.056 32.5375 384.359 31.6395C387.399 34.4214 392.963 37.0272 391.139 40.1436C387.473 35.7947 382.572 31.5691 387.123 38.2773C388.578 52.6797 382.075 45.725 380.325 49.7217C378.059 55.9369 381.854 54.3347 383.659 57.2046C385.741 59.8105 384.433 60.233 382.572 61.131C378.003 59.6872 376.216 49.8802 370.376 54.1058C369.713 49.1759 367.576 52.9966 365.457 54.0002C364.37 57.099 372.274 55.9546 372.845 56.9582C366.323 60.3563 375.406 63.5959 375.921 66.4658C375.995 66.9236 375.7 67.0293 375.737 67.4694C375.958 68.0681 376.935 67.9624 377.156 68.5611C376.971 70.0048 377.598 71.3782 376.364 71.924C374.116 82.5409 362.73 78.1392 362.012 86.5553C358.843 86.1151 361.68 83.8262 361.754 83.3684C360.17 79.6886 358.014 81.7838 356.061 83.8262C355.232 89.3195 364.278 89.7069 362.804 96.644C360.17 98.4927 358.438 100.253 356.393 101.275C354.256 97.2778 347.66 91.2563 347.366 97.7884C347.697 104.937 356.743 106.891 355.324 113.124C345.873 108.863 346.721 97.3306 344.068 91.7669C343.257 87.4708 341.544 89.5836 339.573 90.4288ZM219.122 29.2978C219.104 26.6216 219.528 25.1778 221.591 26.2518C225.331 26.4983 220.946 24.2798 220.191 24.8433C222.365 22.3783 227.394 24.0862 228.463 22.3959C219.73 22.9417 214.48 21.4099 222.567 15.0891C219.638 13.5045 210.206 21.1106 215.346 22.1494C215.18 26.2518 210.519 29.0337 206.981 29.9668C200.054 31.0409 219.896 31.2698 219.122 29.2978ZM235.758 122.456C235.666 122.456 235.574 122.456 235.501 122.456C234.856 123.847 235.758 126.118 236.993 126.241C236.072 124.656 236.514 123.001 235.758 122.456ZM243.422 132.386C243.017 133.09 242.612 134.763 243.588 135.15C243.993 134.534 244.509 132.808 243.588 132.386C243.533 132.386 243.478 132.386 243.422 132.386ZM239.277 118.177C239.627 118.793 240.493 118.917 241.562 118.846C242.814 116.821 243.109 116.786 243.238 115.659C240.769 113.265 238.909 116.786 239.277 118.177ZM243.238 58.0498C238.356 58.7188 234.782 57.8737 231.263 58.0498C229.384 56.6764 228.555 54.4404 228.113 51.905C227.081 50.6197 225.515 51.6761 224.76 52.5036C222.052 52.4156 224.852 54.3523 225.497 54.8629C226.528 55.9898 223.581 57.1518 223.618 57.8737C221.886 58.085 221.315 57.1694 221.333 55.6905C217.612 48.9646 213.135 46.9927 209.008 43.9995C208.676 43.8939 208.179 44.3164 207.958 44.5981C208.99 49.2287 214.848 50.0387 216.488 52.2571C215.972 52.5916 214.793 51.7465 214.388 52.5916C215.585 54.951 213.54 55.3735 212.969 55.532C213.872 50.0739 205.121 50.4964 203.997 46.2884C199.907 47.0631 197.107 47.7674 194.675 48.1371C194.656 48.6125 194.822 48.9294 194.767 49.4752C188.521 51.3063 190.493 58.0322 184.376 57.8033C179.863 57.5744 181.981 60.3739 183.768 59.9865C189.995 59.3703 194.343 56.7645 199.152 57.0462C210.942 56.694 202.928 60.145 205.452 62.5043C231.042 73.9135 211.44 60.8669 225.294 64.5995C232.166 66.1489 241.691 68.6139 242.704 63.1734C244.38 60.6908 243.22 59.4935 243.238 58.0498ZM244.38 42.1508C241.248 41.8691 239.627 43.3657 241.746 44.6862C238.706 46.7462 237.73 44.4221 236.993 43.4185C232.442 41.1648 229.587 48.8766 231.447 50.5669C231.392 51.2183 230.305 50.8838 230.397 51.6585C236.514 49.0879 243.533 50.6373 249.318 50.9894C253.592 46.4116 240.254 47.0807 244.38 42.1508ZM267.612 51.8346C267.815 51.8522 267.704 51.5881 267.87 51.5705C268.459 51.3063 269.325 51.993 269.638 51.324C269.638 50.3204 268.312 49.5809 266.986 50.0563C266.617 49.8098 266.562 49.2463 266.47 48.7181C262.288 47.1335 262.822 44.2284 265.77 44.3516C266.378 43.9115 265.972 42.5557 265.42 42.2388C254.458 42.274 258.161 48.1899 262.564 51.1655C262.251 57.1166 265.935 58.9301 269.989 57.0462C270.431 54.1234 268.054 53.9122 267.612 51.8346ZM275.442 43.9995C274.042 44.334 275.534 46.3764 276.492 46.2004C277.929 45.9363 276.51 43.753 275.442 43.9995ZM276.4 7.60616C276.4 7.69419 276.418 7.83505 276.326 7.85265C277.947 10.3176 279.421 11.3388 278.353 13.3988C283.437 12.6593 277.763 8.09915 276.4 7.60616ZM296.997 42.7494C296.665 42.1156 295.707 42.9255 296.112 43.5065C296.72 43.5417 296.923 43.2072 296.997 42.7494ZM315.475 3.06359C313.872 3.45094 312.454 4.12 312.749 4.48974C313.596 4.3841 315.273 4.03197 315.475 3.06359ZM337.638 29.3858C337.233 31.0937 336.533 32.5022 336.33 33.4178C335.98 33.7875 335.409 33.946 335.354 34.5974C337.804 33.3474 337.878 33.0657 338.523 32.2381C338.873 31.1641 338.338 30.0901 337.638 29.3858Z"/>
</mask>
<path fill-rule="evenodd" clip-rule="evenodd" d="M339.573 90.4288C337.638 86.9778 335.151 83.5445 332.996 80.745C330.785 80.5865 325.387 81.0267 325.497 83.0163C321.665 86.0799 318.478 89.3724 315.917 91.2739C315.365 118.318 304.053 87.2243 302.634 81.6782C300.202 84.0023 297.494 81.5021 297.697 79.7414C293.717 77.2941 293.091 74.8995 289.425 75.6214C281.245 76.537 276.252 73.3325 270.873 72.505C261.238 63.9833 262.564 69.8992 267.612 74.7058C267.98 74.8291 268.717 74.3889 269.104 74.7763C269.454 75.551 269.104 76.9771 269.896 77.3117C273.563 77.8751 274.594 75.9735 276.234 74.6178C278.666 79.5829 281.042 76.9771 282.572 80.34C277.726 89.7773 265.549 93.7388 257.756 95.1298C257.074 92.1014 256.153 90.4288 254.845 89.1611C254.808 88.6153 255.49 88.7737 255.563 88.3159C250.184 82.4 247.918 75.7975 243.054 71.3429C242.335 71.431 241.58 71.4838 241.212 71.924C245.504 82.1007 252.505 90.1647 257.313 96.732C260.74 101.081 266.562 96.2214 269.712 96.644C270.523 111.275 247.954 115.466 251.418 128.354C251.915 129.498 252.284 130.784 253.187 131.541C254.918 141.524 249.834 140.714 244.509 145.45C242.225 150.31 247.77 152.299 240.696 154.553C238.817 164.959 227.947 168.709 219.399 169.219C213.632 163.497 212.011 150.503 208.658 145.08C203.96 138.284 213.227 133.389 209.34 126.857C207.608 121.91 205.397 120.713 203.113 117.579C203.96 110.536 205.452 107.138 198.102 108.247C196.591 103.511 189.83 105.465 188.079 106.398C183.289 108.687 181.079 105.641 177.818 107.666C169.841 108.652 158.326 92.2951 162.379 90.0942C161.79 75.6038 167.095 74.072 173.986 67.98C173.746 63.4023 177.928 62.8388 179.457 61.1662C181.631 58.4899 179.31 56.4652 177.375 57.187C173.654 55.2855 178.002 50.2851 176.639 48.1371C184.082 46.6934 195.135 47.5737 183.842 39.9675C191.359 39.1576 194.988 32.9072 202.136 31.6219C202.689 28.8048 201.307 26.7448 204.697 26.1814C205.342 26.6216 205.158 27.854 205.231 28.6287C210.113 28.3822 206.152 26.0757 205.968 24.4207C201.031 24.632 197.659 26.692 198.009 20.2127C203.776 16.973 209.542 14.8954 209.984 10.6169C223.065 3.29248 255.324 14.8954 234.174 13.8214C234.192 15.7229 236.348 17.1667 238.319 16.9378C238.485 16.0398 237.195 16.5328 237.343 15.6701C238.227 15.0362 239.277 16.0927 240.512 15.9166C240.991 15.7933 240.917 15.1243 241.046 14.6665C242.077 14.0503 243.386 13.1699 244.988 13.8214C245.08 13.6805 245.191 13.5573 245.357 13.4868C245.449 12.5537 244.288 12.0783 244.915 11.2156C245.209 10.6169 246.849 10.8282 247.107 11.3036C247.236 11.867 246.702 11.8142 246.757 12.3072C248.526 14.2792 251.639 10.6169 252.56 10.881C258.271 9.87744 263.725 11.8142 262.767 9.12035C267.87 9.04992 269.694 10.388 272.623 10.6169C265.383 7.81744 273.249 2.04239 275.184 6.79624C277.118 7.18359 280.434 5.07077 282.645 5.73983C283.198 5.4053 282.479 4.96513 282.737 4.48974C283.732 3.80308 285.98 4.33128 287.233 3.89111C287.583 3.50376 286.79 3.22205 287.14 2.79949C296.739 0.528204 309.69 -2.20086 315.917 2.88752C322.715 5.95111 327.929 4.24325 333.972 4.29607C339.536 4.10239 340.107 9.56052 343.091 6.76103C346.444 6.6906 349.245 7.51812 350.221 5.58137C365.549 5.96872 377.911 9.08513 390.789 10.1239C391.342 9.7718 390.347 9.27881 390.881 8.94428C401.658 10.9162 415.789 9.61334 421.408 16.1807C416.047 15.2475 405.748 13.4516 415.679 18.8745C411.902 18.8393 411.736 19.9486 410.336 21.4627C407.83 23.2234 403.685 21.1986 402.23 23.065C402.451 26.3574 406.67 26.3398 407.149 27.6956C406.743 30.2838 409.304 29.4915 407.425 31.2345C408.383 33.2593 408.051 35.3722 407.333 35.6891C403.114 32.0973 398.527 30.5479 397.219 26.0053C399.411 23.558 399.411 19.6668 397.219 19.033C397.642 24.5968 387.528 16.2863 390.494 22.8889C392.06 24.3327 388.062 24.0333 388.062 24.1566C380.011 21.9381 374.54 23.2234 373.029 29.6499C376.935 31.3226 382.056 32.5375 384.359 31.6395C387.399 34.4214 392.963 37.0272 391.139 40.1436C387.473 35.7947 382.572 31.5691 387.123 38.2773C388.578 52.6797 382.075 45.725 380.325 49.7217C378.059 55.9369 381.854 54.3347 383.659 57.2046C385.741 59.8105 384.433 60.233 382.572 61.131C378.003 59.6872 376.216 49.8802 370.376 54.1058C369.713 49.1759 367.576 52.9966 365.457 54.0002C364.37 57.099 372.274 55.9546 372.845 56.9582C366.323 60.3563 375.406 63.5959 375.921 66.4658C375.995 66.9236 375.7 67.0293 375.737 67.4694C375.958 68.0681 376.935 67.9624 377.156 68.5611C376.971 70.0048 377.598 71.3782 376.364 71.924C374.116 82.5409 362.73 78.1392 362.012 86.5553C358.843 86.1151 361.68 83.8262 361.754 83.3684C360.17 79.6886 358.014 81.7838 356.061 83.8262C355.232 89.3195 364.278 89.7069 362.804 96.644C360.17 98.4927 358.438 100.253 356.393 101.275C354.256 97.2778 347.66 91.2563 347.366 97.7884C347.697 104.937 356.743 106.891 355.324 113.124C345.873 108.863 346.721 97.3306 344.068 91.7669C343.257 87.4708 341.544 89.5836 339.573 90.4288ZM219.122 29.2978C219.104 26.6216 219.528 25.1778 221.591 26.2518C225.331 26.4983 220.946 24.2798 220.191 24.8433C222.365 22.3783 227.394 24.0862 228.463 22.3959C219.73 22.9417 214.48 21.4099 222.567 15.0891C219.638 13.5045 210.206 21.1106 215.346 22.1494C215.18 26.2518 210.519 29.0337 206.981 29.9668C200.054 31.0409 219.896 31.2698 219.122 29.2978ZM235.758 122.456C235.666 122.456 235.574 122.456 235.501 122.456C234.856 123.847 235.758 126.118 236.993 126.241C236.072 124.656 236.514 123.001 235.758 122.456ZM243.422 132.386C243.017 133.09 242.612 134.763 243.588 135.15C243.993 134.534 244.509 132.808 243.588 132.386C243.533 132.386 243.478 132.386 243.422 132.386ZM239.277 118.177C239.627 118.793 240.493 118.917 241.562 118.846C242.814 116.821 243.109 116.786 243.238 115.659C240.769 113.265 238.909 116.786 239.277 118.177ZM243.238 58.0498C238.356 58.7188 234.782 57.8737 231.263 58.0498C229.384 56.6764 228.555 54.4404 228.113 51.905C227.081 50.6197 225.515 51.6761 224.76 52.5036C222.052 52.4156 224.852 54.3523 225.497 54.8629C226.528 55.9898 223.581 57.1518 223.618 57.8737C221.886 58.085 221.315 57.1694 221.333 55.6905C217.612 48.9646 213.135 46.9927 209.008 43.9995C208.676 43.8939 208.179 44.3164 207.958 44.5981C208.99 49.2287 214.848 50.0387 216.488 52.2571C215.972 52.5916 214.793 51.7465 214.388 52.5916C215.585 54.951 213.54 55.3735 212.969 55.532C213.872 50.0739 205.121 50.4964 203.997 46.2884C199.907 47.0631 197.107 47.7674 194.675 48.1371C194.656 48.6125 194.822 48.9294 194.767 49.4752C188.521 51.3063 190.493 58.0322 184.376 57.8033C179.863 57.5744 181.981 60.3739 183.768 59.9865C189.995 59.3703 194.343 56.7645 199.152 57.0462C210.942 56.694 202.928 60.145 205.452 62.5043C231.042 73.9135 211.44 60.8669 225.294 64.5995C232.166 66.1489 241.691 68.6139 242.704 63.1734C244.38 60.6908 243.22 59.4935 243.238 58.0498ZM244.38 42.1508C241.248 41.8691 239.627 43.3657 241.746 44.6862C238.706 46.7462 237.73 44.4221 236.993 43.4185C232.442 41.1648 229.587 48.8766 231.447 50.5669C231.392 51.2183 230.305 50.8838 230.397 51.6585C236.514 49.0879 243.533 50.6373 249.318 50.9894C253.592 46.4116 240.254 47.0807 244.38 42.1508ZM267.612 51.8346C267.815 51.8522 267.704 51.5881 267.87 51.5705C268.459 51.3063 269.325 51.993 269.638 51.324C269.638 50.3204 268.312 49.5809 266.986 50.0563C266.617 49.8098 266.562 49.2463 266.47 48.7181C262.288 47.1335 262.822 44.2284 265.77 44.3516C266.378 43.9115 265.972 42.5557 265.42 42.2388C254.458 42.274 258.161 48.1899 262.564 51.1655C262.251 57.1166 265.935 58.9301 269.989 57.0462C270.431 54.1234 268.054 53.9122 267.612 51.8346ZM275.442 43.9995C274.042 44.334 275.534 46.3764 276.492 46.2004C277.929 45.9363 276.51 43.753 275.442 43.9995ZM276.4 7.60616C276.4 7.69419 276.418 7.83505 276.326 7.85265C277.947 10.3176 279.421 11.3388 278.353 13.3988C283.437 12.6593 277.763 8.09915 276.4 7.60616ZM296.997 42.7494C296.665 42.1156 295.707 42.9255 296.112 43.5065C296.72 43.5417 296.923 43.2072 296.997 42.7494ZM315.475 3.06359C313.872 3.45094 312.454 4.12 312.749 4.48974C313.596 4.3841 315.273 4.03197 315.475 3.06359ZM337.638 29.3858C337.233 31.0937 336.533 32.5022 336.33 33.4178C335.98 33.7875 335.409 33.946 335.354 34.5974C337.804 33.3474 337.878 33.0657 338.523 32.2381C338.873 31.1641 338.338 30.0901 337.638 29.3858Z" fill="#FFF5D9" stroke="#222222" stroke-width="2" mask="url(#path-24-inside-2_85_1154)"/>
<path d="M250.627 10.2825C250.94 9.43736 249.134 9.29651 249.392 10.2121C249.576 10.529 250.35 10.5466 250.627 10.2825Z" fill="#DBDBDB"/>
<path d="M238.577 60.4971C238.909 61.2894 240.493 60.8316 240.604 60.1625C240.272 59.5463 238.614 59.7928 238.577 60.4971Z" fill="#DBDBDB"/>
<path d="M208.401 55.9546C209.045 56.9582 210.39 57.2928 211.827 57.5392C212.343 57.1695 212.38 56.342 212.619 55.6905C211.348 55.7258 209.322 55.2328 208.401 55.9546Z" fill="#DBDBDB"/>
<path d="M201.972 51.5C201.991 52.4332 202.083 53.0318 201.88 53.8417C202.451 54.8805 203.704 53.9474 203.999 53.2607C204.459 50.919 203.188 50.2852 201.972 51.5Z" fill="#DBDBDB"/>
<path d="M203.114 50.0563C203.519 49.8274 203.832 49.5105 203.74 48.8062C202.838 47.8731 201.953 49.8626 203.114 50.0563Z" fill="#DBDBDB"/>
<path d="M183.621 28.3925C183.412 27.542 183.479 26.9797 183.65 26.5932C183.824 26.2033 184.136 25.9204 184.555 25.6911C184.981 25.4572 185.478 25.3001 185.988 25.1406C186.005 25.1353 186.022 25.13 186.039 25.1247C186.224 25.0671 186.417 25.0066 186.607 24.9389C186.563 25.0374 186.529 25.1503 186.514 25.2785L186.507 25.3428L186.516 25.4069C186.572 25.7963 186.811 26.0355 187.075 26.1681C187.297 26.2795 187.557 26.3254 187.735 26.3567C187.74 26.3575 187.744 26.3583 187.749 26.3591C187.896 26.3851 188.002 26.4044 188.081 26.4264C187.846 26.9069 187.733 27.3761 187.73 27.8352C187.727 28.3963 187.89 28.9068 188.141 29.3684C188.632 30.2681 189.5 31.0394 190.264 31.7113C190.279 31.7243 190.294 31.7372 190.308 31.7502C191.096 32.4431 191.755 33.0217 192.073 33.6041C192.224 33.8814 192.278 34.1269 192.245 34.3646C192.216 34.5771 192.111 34.8327 191.857 35.1372C191.255 35.2391 190.63 35.356 190.009 35.4723C189.937 35.4857 189.865 35.4992 189.794 35.5126C189.038 35.6538 188.291 35.7917 187.584 35.9015C186.58 36.0573 185.703 36.1477 185.021 36.1271C185.051 36.1043 185.08 36.0807 185.108 36.0564C185.254 35.929 185.426 35.7311 185.477 35.4405L185.489 35.3709L185.482 35.3007C185.423 34.762 185.008 34.5455 184.812 34.4464C184.796 34.4382 184.781 34.4308 184.767 34.4239C184.81 34.3773 184.857 34.3307 184.912 34.2759L184.92 34.2681C184.974 34.2146 185.036 34.1524 185.097 34.0865C185.226 33.9461 185.368 33.767 185.465 33.5302C185.521 33.393 185.558 33.2457 185.575 33.0863C185.955 32.9208 186.261 32.7419 186.491 32.5442C186.789 32.2885 186.989 31.9739 187.012 31.6021C187.034 31.2417 186.883 30.9289 186.7 30.6828C186.517 30.4357 186.269 30.2114 186.012 30.0119C185.611 29.7015 185.121 29.4016 184.695 29.1409C184.579 29.07 184.468 29.002 184.365 28.9375C184.112 28.7797 183.908 28.6446 183.765 28.5281C183.693 28.4702 183.649 28.427 183.625 28.3981C183.623 28.3961 183.622 28.3942 183.621 28.3925ZM183.612 28.3815C183.612 28.3804 183.611 28.3798 183.611 28.3798C183.611 28.3798 183.612 28.3804 183.612 28.3815Z" fill="#FFF5D9" stroke="#222222"/>
<path d="M180.948 33.6872C180.947 33.6878 180.946 33.6884 180.945 33.6889L180.859 33.6281L180.628 33.6941C180.389 33.7627 180.106 33.8704 179.824 33.9775C179.75 34.0055 179.677 34.0334 179.604 34.0606C179.237 34.1979 178.867 34.3275 178.512 34.4064C178.153 34.486 177.85 34.5044 177.609 34.4515C177.452 34.417 177.315 34.3513 177.197 34.2344C177.254 34.1299 177.349 34.032 177.493 33.905C177.516 33.885 177.541 33.8635 177.568 33.8405C177.772 33.6651 178.08 33.4014 178.243 33.0121L178.327 32.8117L178.238 32.6136C178.014 32.1174 178.048 31.782 178.164 31.5356C178.292 31.2652 178.56 31.0147 178.962 30.7866C179.6 30.4237 180.396 30.2072 181.051 30.0287C181.209 29.9859 181.358 29.9452 181.495 29.9052C182.337 29.9355 182.58 30.2176 182.661 30.4322C182.775 30.7318 182.71 31.2183 182.439 31.8127C182.179 32.3832 181.778 32.9417 181.406 33.3176C181.218 33.5077 181.058 33.6291 180.948 33.6872ZM180.887 33.7153C180.877 33.7188 180.873 33.7194 180.873 33.7188C180.873 33.7183 180.878 33.7165 180.887 33.7153Z" fill="#FFF5D9" stroke="#222222"/>
<path d="M119.97 11.462C119.344 10.4936 117.225 11.4444 117.427 12.2191C117.667 13.1875 120.154 12.2191 119.97 11.462Z" fill="#DBDBDB"/>
<path d="M103.702 18.5225C104.734 18.4873 104.347 18.5049 103.702 18.5225C102.025 19.8078 106.613 19.6493 103.702 18.5225Z" fill="#DBDBDB"/>
<mask id="path-34-inside-3_85_1154" fill="white">
<path fill-rule="evenodd" clip-rule="evenodd" d="M144.344 134.323C141.285 137.897 143.699 144.447 141.175 147.105C138.319 153.831 127.1 150.732 129.826 159.131C124.115 165.663 125.847 170.857 117.685 168.867C125.921 178.181 111.808 172.952 113.817 178.71C113.153 179.942 111.385 178.674 110.463 179.044C111.035 182.02 112.158 179.977 112.932 181.157C112.748 181.985 111.808 182.09 111.606 182.918C112.048 187.267 106.889 185.717 112.803 188.429C110.371 196.721 112.914 196.528 118.828 199.908C118.662 200.613 117.943 200.806 117.243 201C115.272 201 114.959 201 114.517 201C104.034 199.204 96.1304 186.914 100.183 184.009C99.7966 182.794 100.202 180.84 98.949 180.488C98.2858 180.999 99.6123 182.178 98.5069 182.495C93.7169 169.554 96.0936 157.705 94.1039 145.591C92.6484 140.468 87.3978 141.471 84.2843 138.196C78.3152 128.284 70.1906 119.832 78.352 111.61C83.3815 109.568 79.0337 97.859 76.3255 102.278C75.0912 106.222 68.9194 98.9858 67.7035 99.2499C67.5193 98.845 67.6666 98.1055 67.6297 97.5773C59.8183 89.619 47.6222 91.2212 39.903 85.3758C38.1528 80.8508 38.337 77.171 34.634 74.7764C34.6708 74.2482 34.6708 74.1426 34.634 73.6144C24.317 56.1132 31.7968 74.5651 33.0496 78.738C27.4858 74.7588 27.3753 70.0402 26.491 64.494C23.3222 60.3916 21.0561 56.9055 22.2168 52.1692C25.9567 45.5138 33.1786 41.3938 29.9545 38.2246C28.7939 35.0554 33.3997 29.1219 30.0835 29.7381C27.578 30.6008 29.6229 27.3436 28.9044 26.8506C30.8941 21.7798 23.4512 23.5757 21.6641 21.9206C8.27052 25.1251 -12.5108 21.3396 9.91017 16.5153C-0.922624 15.4061 11.8078 13.3989 13.9448 13.487C14.2396 12.6242 13.6132 11.9023 13.4289 11.2157C30.6177 4.50747 48.7092 10.4938 63.4845 9.455C70.0984 8.6979 74.1884 12.4658 74.9253 6.42662C73.1567 6.44423 71.4802 7.27175 69.472 7.34217C70.9643 -0.158345 83.5289 5.38781 86.974 5.07089C87.6004 5.17653 87.6742 5.81038 88.3005 5.91602C90.1244 4.38422 92.7589 3.92645 93.5695 4.48986C90.3086 6.35619 90.806 7.51824 92.1694 9.03243C88.3373 11.3565 86.8082 9.9832 85.0396 10.1241C90.0139 15.7583 99.5387 5.26457 95.9462 11.3918C99.815 11.4974 97.8437 8.36337 99.2991 7.09568C95.596 7.28935 96.4988 5.96884 95.4303 5.33499C95.7987 4.87722 96.6094 5.17653 97.1805 5.24696C99.0965 3.73277 101.971 3.64474 102.376 4.15533C102.523 4.94764 101.141 5.42303 101.399 6.33858C104.052 4.52508 107.534 2.11294 109.413 4.15533C108.4 5.84559 104.587 4.87721 103.61 6.58508C102.523 11.3918 106.558 8.78594 104.844 12.0608C107.682 11.5854 109.561 10.3706 109.948 9.12047C101.565 5.44063 118.33 3.13414 120.412 4.40183C121.37 3.87362 122.512 4.47226 123.839 4.3138C125.036 7.48303 131.595 6.99004 129.826 9.455C130.01 12.0608 132.682 11.2333 133.658 12.4306C135.685 14.8779 129.495 16.5682 128.979 14.2088C125.128 13.2053 130.25 18.3465 126.75 18.7866C126.013 18.5049 125.405 18.1 124.465 18.0295C123.894 18.6634 125.386 18.8923 124.907 19.7022C118.109 18.8747 118.275 15.5822 113.024 16.0928C126.234 13.6982 122.623 7.87038 114.074 9.19089C111.937 13.4518 108.087 14.5434 105.195 13.7335C106.374 15.723 108.29 15.8991 108.621 17.0964C106.208 16.8851 103.131 18.6634 101.491 17.4309C101.768 16.4625 102.892 16.3041 103.168 15.3357C95.6514 18.5753 83.0499 20.9171 86.5319 25.0018C87.103 29.7381 100.405 27.8366 95.7803 31.7277C94.7671 38.9113 100.57 32.4672 100.349 30.3895C107.442 30.9178 107.35 24.7377 108.621 21.2164C111.016 16.9027 117.501 19.8078 119.086 21.5509C116.801 30.8825 127.947 15.5646 126.4 28.2063C130.029 30.8297 131.798 32.3791 129.734 35.6892C126.694 37.802 133.014 38.0309 131.061 40.2318C132.774 44.2461 124.078 39.9149 123.047 40.4783C124.907 37.9077 127.247 37.0625 127.892 35.4251C124.262 36.2878 121.131 37.0978 118.478 37.2738C118.312 37.9077 119.822 37.6612 119.62 38.6296C116.138 37.133 114.388 35.8301 112.84 38.3655C113.964 38.876 115.788 37.8548 116.193 39.1402C112.435 42.2213 115.677 43.6123 117.778 43.6651C118.625 43.3306 119.086 42.1861 120.062 42.239C119.62 45.3378 107.147 48.7535 111.79 44.8448C107.147 45.7251 102.763 46.8343 102.634 50.1444C97.8068 50.9015 94.9513 53.5602 92.8694 55.8667C92.3536 55.9019 91.9483 55.4969 91.4693 55.7786C91.414 56.8526 91.8562 58.314 91.3772 59.388C82.0182 64.0538 79.2733 65.6913 80.2865 73.6848C79.1074 73.227 77.5967 73.0686 76.7676 72.2586C78.61 66.6421 70.9092 68.2267 68.422 67.7161C63.5399 70.7797 56.5206 67.3287 53.8124 72.7692C50.8647 79.3894 50.5147 87.2949 57.8655 86.0448C63.0792 85.8335 62.1028 80.4458 66.8376 81.3438C68.5325 85.2525 63.9267 88.0872 64.461 90.0944C77.4125 89.3197 69.2142 94.0031 71.3697 98.5809C74.3911 103.423 78.6837 98.5633 81.5208 101.697C84.1369 98.5809 91.9115 93.4221 90.4008 97.6477C93.2564 95.9046 94.8039 97.2428 96.5725 98.4928C101.344 99.4964 103.463 97.3132 105.36 99.338C106.134 99.4612 106.153 98.4929 106.871 98.8274C109.8 108.001 124.613 104.109 124.373 114.057C132.719 118.882 139.959 119.375 147.42 122.966C151.547 127.368 145.652 131.47 144.344 134.323ZM91.4693 47.2041C92.372 47.609 94.8775 47.8908 95.1539 46.7815C94.8038 46.447 93.6064 46.535 92.7773 46.6231C92.2062 46.6759 91.5245 46.7815 91.4693 47.2041ZM123.765 13.7335C124.189 13.7863 124.428 13.663 124.373 13.2405C123.986 12.9764 123.415 13.3109 123.765 13.7335ZM84.2474 43.6651C75.8465 44.9856 76.6571 54.8631 82.6631 44.9328C83.3816 44.5102 84.1369 44.5631 84.2474 43.6651ZM89.3507 48.7183C84.5791 48.6302 82.9763 50.3733 86.274 50.1444C87.6742 49.7219 88.54 49.3697 89.3507 48.7183ZM86.0161 43.8412C85.9792 44.3342 86.403 44.4222 86.3661 44.9328C85.1318 50.1444 88.8716 44.4574 90.585 45.3554C91.8009 42.8376 87.9136 43.8764 87.6741 43.2602C86.974 43.1897 86.274 43.5243 86.0161 43.8412ZM77.2098 41.6579C80.6733 41.6227 89.4611 44.5631 84.3395 39.2106C81.5576 39.8268 78.2231 40.4959 77.2098 41.6579ZM74.3911 11.3918C76.0308 12.6594 78.5178 10.7931 80.2128 11.9728C80.4891 11.7967 80.9497 11.5502 80.7287 11.1276C79.7522 10.6875 78.1126 11.022 76.694 10.8812C75.865 9.77192 74.5201 9.61346 74.3911 11.3918ZM73.2489 34.2631C74.2253 34.2278 74.907 31.446 73.2489 31.8157C72.1435 32.0622 71.8856 34.2983 73.2489 34.2631ZM65.7691 20.0367C62.8582 18.4169 61.8265 21.0403 61.0159 21.2164C62.3792 21.4805 63.6135 20.9171 64.461 20.6353C64.9584 20.4593 65.6401 20.5473 65.7691 20.0367ZM59.9658 15.3357C62.895 14.7723 64.0557 14.7899 65.5111 14.2441C65.0874 12.3953 62.416 13.5222 60.85 13.6454C60.5184 14.1736 60.0763 14.5962 59.9658 15.3357ZM90.0508 99.2499C89.4244 99.5317 89.756 100.623 90.4008 100.518C91.1009 100.412 90.8982 98.8802 90.0508 99.2499Z"/>
</mask>
<path fill-rule="evenodd" clip-rule="evenodd" d="M144.344 134.323C141.285 137.897 143.699 144.447 141.175 147.105C138.319 153.831 127.1 150.732 129.826 159.131C124.115 165.663 125.847 170.857 117.685 168.867C125.921 178.181 111.808 172.952 113.817 178.71C113.153 179.942 111.385 178.674 110.463 179.044C111.035 182.02 112.158 179.977 112.932 181.157C112.748 181.985 111.808 182.09 111.606 182.918C112.048 187.267 106.889 185.717 112.803 188.429C110.371 196.721 112.914 196.528 118.828 199.908C118.662 200.613 117.943 200.806 117.243 201C115.272 201 114.959 201 114.517 201C104.034 199.204 96.1304 186.914 100.183 184.009C99.7966 182.794 100.202 180.84 98.949 180.488C98.2858 180.999 99.6123 182.178 98.5069 182.495C93.7169 169.554 96.0936 157.705 94.1039 145.591C92.6484 140.468 87.3978 141.471 84.2843 138.196C78.3152 128.284 70.1906 119.832 78.352 111.61C83.3815 109.568 79.0337 97.859 76.3255 102.278C75.0912 106.222 68.9194 98.9858 67.7035 99.2499C67.5193 98.845 67.6666 98.1055 67.6297 97.5773C59.8183 89.619 47.6222 91.2212 39.903 85.3758C38.1528 80.8508 38.337 77.171 34.634 74.7764C34.6708 74.2482 34.6708 74.1426 34.634 73.6144C24.317 56.1132 31.7968 74.5651 33.0496 78.738C27.4858 74.7588 27.3753 70.0402 26.491 64.494C23.3222 60.3916 21.0561 56.9055 22.2168 52.1692C25.9567 45.5138 33.1786 41.3938 29.9545 38.2246C28.7939 35.0554 33.3997 29.1219 30.0835 29.7381C27.578 30.6008 29.6229 27.3436 28.9044 26.8506C30.8941 21.7798 23.4512 23.5757 21.6641 21.9206C8.27052 25.1251 -12.5108 21.3396 9.91017 16.5153C-0.922624 15.4061 11.8078 13.3989 13.9448 13.487C14.2396 12.6242 13.6132 11.9023 13.4289 11.2157C30.6177 4.50747 48.7092 10.4938 63.4845 9.455C70.0984 8.6979 74.1884 12.4658 74.9253 6.42662C73.1567 6.44423 71.4802 7.27175 69.472 7.34217C70.9643 -0.158345 83.5289 5.38781 86.974 5.07089C87.6004 5.17653 87.6742 5.81038 88.3005 5.91602C90.1244 4.38422 92.7589 3.92645 93.5695 4.48986C90.3086 6.35619 90.806 7.51824 92.1694 9.03243C88.3373 11.3565 86.8082 9.9832 85.0396 10.1241C90.0139 15.7583 99.5387 5.26457 95.9462 11.3918C99.815 11.4974 97.8437 8.36337 99.2991 7.09568C95.596 7.28935 96.4988 5.96884 95.4303 5.33499C95.7987 4.87722 96.6094 5.17653 97.1805 5.24696C99.0965 3.73277 101.971 3.64474 102.376 4.15533C102.523 4.94764 101.141 5.42303 101.399 6.33858C104.052 4.52508 107.534 2.11294 109.413 4.15533C108.4 5.84559 104.587 4.87721 103.61 6.58508C102.523 11.3918 106.558 8.78594 104.844 12.0608C107.682 11.5854 109.561 10.3706 109.948 9.12047C101.565 5.44063 118.33 3.13414 120.412 4.40183C121.37 3.87362 122.512 4.47226 123.839 4.3138C125.036 7.48303 131.595 6.99004 129.826 9.455C130.01 12.0608 132.682 11.2333 133.658 12.4306C135.685 14.8779 129.495 16.5682 128.979 14.2088C125.128 13.2053 130.25 18.3465 126.75 18.7866C126.013 18.5049 125.405 18.1 124.465 18.0295C123.894 18.6634 125.386 18.8923 124.907 19.7022C118.109 18.8747 118.275 15.5822 113.024 16.0928C126.234 13.6982 122.623 7.87038 114.074 9.19089C111.937 13.4518 108.087 14.5434 105.195 13.7335C106.374 15.723 108.29 15.8991 108.621 17.0964C106.208 16.8851 103.131 18.6634 101.491 17.4309C101.768 16.4625 102.892 16.3041 103.168 15.3357C95.6514 18.5753 83.0499 20.9171 86.5319 25.0018C87.103 29.7381 100.405 27.8366 95.7803 31.7277C94.7671 38.9113 100.57 32.4672 100.349 30.3895C107.442 30.9178 107.35 24.7377 108.621 21.2164C111.016 16.9027 117.501 19.8078 119.086 21.5509C116.801 30.8825 127.947 15.5646 126.4 28.2063C130.029 30.8297 131.798 32.3791 129.734 35.6892C126.694 37.802 133.014 38.0309 131.061 40.2318C132.774 44.2461 124.078 39.9149 123.047 40.4783C124.907 37.9077 127.247 37.0625 127.892 35.4251C124.262 36.2878 121.131 37.0978 118.478 37.2738C118.312 37.9077 119.822 37.6612 119.62 38.6296C116.138 37.133 114.388 35.8301 112.84 38.3655C113.964 38.876 115.788 37.8548 116.193 39.1402C112.435 42.2213 115.677 43.6123 117.778 43.6651C118.625 43.3306 119.086 42.1861 120.062 42.239C119.62 45.3378 107.147 48.7535 111.79 44.8448C107.147 45.7251 102.763 46.8343 102.634 50.1444C97.8068 50.9015 94.9513 53.5602 92.8694 55.8667C92.3536 55.9019 91.9483 55.4969 91.4693 55.7786C91.414 56.8526 91.8562 58.314 91.3772 59.388C82.0182 64.0538 79.2733 65.6913 80.2865 73.6848C79.1074 73.227 77.5967 73.0686 76.7676 72.2586C78.61 66.6421 70.9092 68.2267 68.422 67.7161C63.5399 70.7797 56.5206 67.3287 53.8124 72.7692C50.8647 79.3894 50.5147 87.2949 57.8655 86.0448C63.0792 85.8335 62.1028 80.4458 66.8376 81.3438C68.5325 85.2525 63.9267 88.0872 64.461 90.0944C77.4125 89.3197 69.2142 94.0031 71.3697 98.5809C74.3911 103.423 78.6837 98.5633 81.5208 101.697C84.1369 98.5809 91.9115 93.4221 90.4008 97.6477C93.2564 95.9046 94.8039 97.2428 96.5725 98.4928C101.344 99.4964 103.463 97.3132 105.36 99.338C106.134 99.4612 106.153 98.4929 106.871 98.8274C109.8 108.001 124.613 104.109 124.373 114.057C132.719 118.882 139.959 119.375 147.42 122.966C151.547 127.368 145.652 131.47 144.344 134.323ZM91.4693 47.2041C92.372 47.609 94.8775 47.8908 95.1539 46.7815C94.8038 46.447 93.6064 46.535 92.7773 46.6231C92.2062 46.6759 91.5245 46.7815 91.4693 47.2041ZM123.765 13.7335C124.189 13.7863 124.428 13.663 124.373 13.2405C123.986 12.9764 123.415 13.3109 123.765 13.7335ZM84.2474 43.6651C75.8465 44.9856 76.6571 54.8631 82.6631 44.9328C83.3816 44.5102 84.1369 44.5631 84.2474 43.6651ZM89.3507 48.7183C84.5791 48.6302 82.9763 50.3733 86.274 50.1444C87.6742 49.7219 88.54 49.3697 89.3507 48.7183ZM86.0161 43.8412C85.9792 44.3342 86.403 44.4222 86.3661 44.9328C85.1318 50.1444 88.8716 44.4574 90.585 45.3554C91.8009 42.8376 87.9136 43.8764 87.6741 43.2602C86.974 43.1897 86.274 43.5243 86.0161 43.8412ZM77.2098 41.6579C80.6733 41.6227 89.4611 44.5631 84.3395 39.2106C81.5576 39.8268 78.2231 40.4959 77.2098 41.6579ZM74.3911 11.3918C76.0308 12.6594 78.5178 10.7931 80.2128 11.9728C80.4891 11.7967 80.9497 11.5502 80.7287 11.1276C79.7522 10.6875 78.1126 11.022 76.694 10.8812C75.865 9.77192 74.5201 9.61346 74.3911 11.3918ZM73.2489 34.2631C74.2253 34.2278 74.907 31.446 73.2489 31.8157C72.1435 32.0622 71.8856 34.2983 73.2489 34.2631ZM65.7691 20.0367C62.8582 18.4169 61.8265 21.0403 61.0159 21.2164C62.3792 21.4805 63.6135 20.9171 64.461 20.6353C64.9584 20.4593 65.6401 20.5473 65.7691 20.0367ZM59.9658 15.3357C62.895 14.7723 64.0557 14.7899 65.5111 14.2441C65.0874 12.3953 62.416 13.5222 60.85 13.6454C60.5184 14.1736 60.0763 14.5962 59.9658 15.3357ZM90.0508 99.2499C89.4244 99.5317 89.756 100.623 90.4008 100.518C91.1009 100.412 90.8982 98.8802 90.0508 99.2499Z" fill="#FFF5D9" stroke="#222222" stroke-width="2" mask="url(#path-34-inside-3_85_1154)"/>
<path d="M28.5543 31.5691C28.1121 30.7592 26.9145 31.3579 26.8777 32.1502C27.0066 32.3086 27.1541 32.4495 27.3199 32.5727C27.8542 32.3614 28.37 32.1149 28.5543 31.5691Z" fill="#DBDBDB"/>
<path d="M73.6361 32.6783C73.6361 36.2701 70.5963 39.1752 66.838 39.1752C63.098 39.1752 60.0398 36.2701 60.0398 32.6783C60.0398 29.0865 63.098 26.1814 66.838 26.1814C70.5963 26.1814 73.6361 29.0865 73.6361 32.6783Z" fill="#F9C80E"/>
<path d="M249.301 151.806C249.301 155.398 246.261 158.303 242.502 158.303C238.744 158.303 235.704 155.398 235.704 151.806C235.704 148.214 238.744 145.309 242.502 145.309C246.261 145.309 249.301 148.214 249.301 151.806Z" fill="#F9C80E"/>
<path d="M369.418 26.1814C369.418 29.7732 366.378 32.6783 362.62 32.6783C358.862 32.6783 355.822 29.7732 355.822 26.1814C355.822 22.5896 358.862 19.6844 362.62 19.6844C366.378 19.6844 369.418 22.5896 369.418 26.1814Z" fill="#F86624"/>
<path d="M78.1669 94.4079C78.1669 97.9997 75.127 100.905 71.3687 100.905C67.6288 100.905 64.5706 97.9997 64.5706 94.4079C64.5706 90.8161 67.6288 87.911 71.3687 87.911C75.127 87.911 78.1669 90.8161 78.1669 94.4079Z" fill="#F86624"/>
<path d="M240.973 20.3182C240.973 23.91 237.933 26.8151 234.175 26.8151C230.416 26.8151 227.376 23.91 227.376 20.3182C227.376 16.7264 230.416 13.8212 234.175 13.8212C237.933 13.8212 240.973 16.7264 240.973 20.3182Z" fill="#F86624"/>
<path d="M244.768 97.6653C244.768 101.24 241.71 104.162 237.97 104.162C234.212 104.162 231.172 101.24 231.172 97.6653C231.172 94.0735 234.212 91.1684 237.97 91.1684C241.71 91.1684 244.768 94.0735 244.768 97.6653Z" fill="#662E9B"/>
<path d="M390.899 118.265C390.899 121.84 387.859 124.762 384.101 124.762C380.342 124.762 377.302 121.84 377.302 118.265C377.302 114.674 380.342 111.768 384.101 111.768C387.859 111.768 390.899 114.674 390.899 118.265Z" fill="#662E9B"/>
<path d="M395.487 152.898C395.487 156.49 392.448 159.395 388.689 159.395C384.931 159.395 381.891 156.49 381.891 152.898C381.891 149.306 384.931 146.401 388.689 146.401C392.448 146.401 395.487 149.306 395.487 152.898Z" fill="#43BCCD"/>
<path d="M353.187 90.4288C353.187 94.0206 350.129 96.9257 346.371 96.9257C342.631 96.9257 339.573 94.0206 339.573 90.4288C339.573 86.837 342.631 83.9319 346.371 83.9319C350.129 83.9319 353.187 86.837 353.187 90.4288Z" fill="#43BCCD"/>
<path d="M124.631 148.567C124.631 152.141 121.592 155.063 117.833 155.063C114.093 155.063 111.035 152.141 111.035 148.567C111.035 144.975 114.093 142.07 117.833 142.07C121.592 142.07 124.631 144.975 124.631 148.567Z" fill="#43BCCD"/>
</svg>
