<svg id="Capa_1" enable-background="new 0 0 512 512" height="512" viewBox="0 0 512 512" width="512" xmlns="http://www.w3.org/2000/svg"><g><path d="m256 81c-30.645 0-55.578 24.932-55.578 55.577v27.608h-50.534l-12.383 227.572h236.987l-12.382-227.572h-50.534v-27.608c.002-30.645-24.93-55.577-55.576-55.577zm86.818 280.758h-173.635l9.118-167.572h155.399zm-86.818-250.758c14.104 0 25.577 11.474 25.577 25.577v27.608h-51.155v-27.608c.001-14.103 11.475-25.577 25.578-25.577z"/><path d="m472.292 119.073 34.368 6.026 5.18-29.549-86.323-15.134-15.134 86.324 29.549 5.181 6.575-37.501c23.016 36.111 35.493 78.446 35.493 121.58 0 60.367-23.508 117.12-66.194 159.806-42.685 42.686-99.438 66.194-159.806 66.194s-117.12-23.508-159.806-66.194c-42.686-42.685-66.194-99.439-66.194-159.806s23.508-117.12 66.194-159.806c42.686-42.685 99.439-66.194 159.806-66.194 43.585 0 85.887 12.427 122.334 35.938l16.262-25.21c-41.304-26.644-89.23-40.728-138.596-40.728-68.38 0-132.667 26.628-181.019 74.98-48.352 48.353-74.981 112.64-74.981 181.02s26.629 132.668 74.981 181.02 112.639 74.98 181.019 74.98 132.667-26.629 181.02-74.98c48.352-48.352 74.98-112.64 74.98-181.02 0-48.54-13.955-96.191-39.708-136.927z"/><path d="m209.667 262.972h92.666v30h-92.666z"/></g></svg>