<svg width="28" height="28" viewBox="0 0 28 28" fill="none" xmlns="http://www.w3.org/2000/svg">
<path d="M12.7969 3.5H4.375C3.89102 3.5 3.5 3.89102 3.5 4.375V12.7969C3.5 12.9172 3.59844 13.0156 3.71875 13.0156H12.7969C12.9172 13.0156 13.0156 12.9172 13.0156 12.7969V3.71875C13.0156 3.59844 12.9172 3.5 12.7969 3.5ZM11.2656 11.2656H5.25V5.25H11.2656V11.2656ZM7.49219 9.24219H9.02344C9.14375 9.24219 9.24219 9.14375 9.24219 9.02344V7.49219C9.24219 7.37188 9.14375 7.27344 9.02344 7.27344H7.49219C7.37188 7.27344 7.27344 7.37188 7.27344 7.49219V9.02344C7.27344 9.14375 7.37188 9.24219 7.49219 9.24219ZM12.7969 14.9844H3.71875C3.59844 14.9844 3.5 15.0828 3.5 15.2031V23.625C3.5 24.109 3.89102 24.5 4.375 24.5H12.7969C12.9172 24.5 13.0156 24.4016 13.0156 24.2812V15.2031C13.0156 15.0828 12.9172 14.9844 12.7969 14.9844ZM11.2656 22.75H5.25V16.7344H11.2656V22.75ZM7.49219 20.7266H9.02344C9.14375 20.7266 9.24219 20.6281 9.24219 20.5078V18.9766C9.24219 18.8562 9.14375 18.7578 9.02344 18.7578H7.49219C7.37188 18.7578 7.27344 18.8562 7.27344 18.9766V20.5078C7.27344 20.6281 7.37188 20.7266 7.49219 20.7266ZM23.625 3.5H15.2031C15.0828 3.5 14.9844 3.59844 14.9844 3.71875V12.7969C14.9844 12.9172 15.0828 13.0156 15.2031 13.0156H24.2812C24.4016 13.0156 24.5 12.9172 24.5 12.7969V4.375C24.5 3.89102 24.109 3.5 23.625 3.5ZM22.75 11.2656H16.7344V5.25H22.75V11.2656ZM18.9766 9.24219H20.5078C20.6281 9.24219 20.7266 9.14375 20.7266 9.02344V7.49219C20.7266 7.37188 20.6281 7.27344 20.5078 7.27344H18.9766C18.8562 7.27344 18.7578 7.37188 18.7578 7.49219V9.02344C18.7578 9.14375 18.8562 9.24219 18.9766 9.24219ZM24.2812 14.9844H22.9688C22.8484 14.9844 22.75 15.0828 22.75 15.2031V18.8672H20.6172V15.2031C20.6172 15.0828 20.5187 14.9844 20.3984 14.9844H15.2031C15.0828 14.9844 14.9844 15.0828 14.9844 15.2031V24.2812C14.9844 24.4016 15.0828 24.5 15.2031 24.5H16.5156C16.6359 24.5 16.7344 24.4016 16.7344 24.2812V17.6094H18.8672V20.3984C18.8672 20.5187 18.9656 20.6172 19.0859 20.6172H24.2812C24.4016 20.6172 24.5 20.5187 24.5 20.3984V15.2031C24.5 15.0828 24.4016 14.9844 24.2812 14.9844ZM20.3984 22.75H19.0859C18.9656 22.75 18.8672 22.8484 18.8672 22.9688V24.2812C18.8672 24.4016 18.9656 24.5 19.0859 24.5H20.3984C20.5187 24.5 20.6172 24.4016 20.6172 24.2812V22.9688C20.6172 22.8484 20.5187 22.75 20.3984 22.75ZM24.2812 22.75H22.9688C22.8484 22.75 22.75 22.8484 22.75 22.9688V24.2812C22.75 24.4016 22.8484 24.5 22.9688 24.5H24.2812C24.4016 24.5 24.5 24.4016 24.5 24.2812V22.9688C24.5 22.8484 24.4016 22.75 24.2812 22.75Z" fill="white"/>
</svg>
